<?xml version="1.0" encoding="utf-8" standalone="no"?>
<!DOCTYPE svg PUBLIC "-//W3C//DTD SVG 1.1//EN"
  "http://www.w3.org/Graphics/SVG/1.1/DTD/svg11.dtd">
<svg xmlns:xlink="http://www.w3.org/1999/xlink" width="1080pt" height="360pt" viewBox="0 0 1080 360" xmlns="http://www.w3.org/2000/svg" version="1.1">
 <metadata>
  <rdf:RDF xmlns:dc="http://purl.org/dc/elements/1.1/" xmlns:cc="http://creativecommons.org/ns#" xmlns:rdf="http://www.w3.org/1999/02/22-rdf-syntax-ns#">
   <cc:Work>
    <dc:type rdf:resource="http://purl.org/dc/dcmitype/StillImage"/>
    <dc:date>2024-05-04T16:18:30.326676</dc:date>
    <dc:format>image/svg+xml</dc:format>
    <dc:creator>
     <cc:Agent>
      <dc:title>Matplotlib v3.8.4, https://matplotlib.org/</dc:title>
     </cc:Agent>
    </dc:creator>
   </cc:Work>
  </rdf:RDF>
 </metadata>
 <defs>
  <style type="text/css">*{stroke-linejoin: round; stroke-linecap: butt}</style>
 </defs>
 <g id="figure_1">
  <g id="patch_1">
   <path d="M 0 360 
L 1080 360 
L 1080 0 
L 0 0 
z
" style="fill: #ffffff"/>
  </g>
  <g id="axes_1">
   <g id="patch_2">
    <path d="M 66.62 318.04 
L 380.706667 318.04 
L 380.706667 10.8 
L 66.62 10.8 
z
" style="fill: #ffffff"/>
   </g>
   <g id="PathCollection_1">
    <defs>
     <path id="m8d1e2ecdee" d="M 0 3 
C 0.795609 3 1.55874 2.683901 2.12132 2.12132 
C 2.683901 1.55874 3 0.795609 3 0 
C 3 -0.795609 2.683901 -1.55874 2.12132 -2.12132 
C 1.55874 -2.683901 0.795609 -3 0 -3 
C -0.795609 -3 -1.55874 -2.683901 -2.12132 -2.12132 
C -2.683901 -1.55874 -3 -0.795609 -3 0 
C -3 0.795609 -2.683901 1.55874 -2.12132 2.12132 
C -1.55874 2.683901 -0.795609 3 0 3 
z
" style="stroke: #1b9e77"/>
    </defs>
    <g clip-path="url(#p57856f4a03)">
     <use xlink:href="#m8d1e2ecdee" x="80.896667" y="304.074545" style="fill: #1b9e77; stroke: #1b9e77"/>
    </g>
   </g>
   <g id="PathCollection_2">
    <defs>
     <path id="m77c8449b9a" d="M 0 3 
C 0.795609 3 1.55874 2.683901 2.12132 2.12132 
C 2.683901 1.55874 3 0.795609 3 0 
C 3 -0.795609 2.683901 -1.55874 2.12132 -2.12132 
C 1.55874 -2.683901 0.795609 -3 0 -3 
C -0.795609 -3 -1.55874 -2.683901 -2.12132 -2.12132 
C -2.683901 -1.55874 -3 -0.795609 -3 0 
C -3 0.795609 -2.683901 1.55874 -2.12132 2.12132 
C -1.55874 2.683901 -0.795609 3 0 3 
z
" style="stroke: #d95f02"/>
    </defs>
    <g clip-path="url(#p57856f4a03)">
     <use xlink:href="#m77c8449b9a" x="94.729935" y="279.390946" style="fill: #d95f02; stroke: #d95f02"/>
    </g>
   </g>
   <g id="PathCollection_3">
    <defs>
     <path id="m82b8ae2845" d="M 0 3 
C 0.795609 3 1.55874 2.683901 2.12132 2.12132 
C 2.683901 1.55874 3 0.795609 3 0 
C 3 -0.795609 2.683901 -1.55874 2.12132 -2.12132 
C 1.55874 -2.683901 0.795609 -3 0 -3 
C -0.795609 -3 -1.55874 -2.683901 -2.12132 -2.12132 
C -2.683901 -1.55874 -3 -0.795609 -3 0 
C -3 0.795609 -2.683901 1.55874 -2.12132 2.12132 
C -1.55874 2.683901 -0.795609 3 0 3 
z
" style="stroke: #7570b3"/>
    </defs>
    <g clip-path="url(#p57856f4a03)">
     <use xlink:href="#m82b8ae2845" x="109.799696" y="253.189912" style="fill: #7570b3; stroke: #7570b3"/>
    </g>
   </g>
   <g id="PathCollection_4">
    <defs>
     <path id="m0d121f00ee" d="M 0 3 
C 0.795609 3 1.55874 2.683901 2.12132 2.12132 
C 2.683901 1.55874 3 0.795609 3 0 
C 3 -0.795609 2.683901 -1.55874 2.12132 -2.12132 
C 1.55874 -2.683901 0.795609 -3 0 -3 
C -0.795609 -3 -1.55874 -2.683901 -2.12132 -2.12132 
C -2.683901 -1.55874 -3 -0.795609 -3 0 
C -3 0.795609 -2.683901 1.55874 -2.12132 2.12132 
C -1.55874 2.683901 -0.795609 3 0 3 
z
" style="stroke: #e7298a"/>
    </defs>
    <g clip-path="url(#p57856f4a03)">
     <use xlink:href="#m0d121f00ee" x="140.518824" y="201.647724" style="fill: #e7298a; stroke: #e7298a"/>
    </g>
   </g>
   <g id="PathCollection_5">
    <defs>
     <path id="m533a29ec89" d="M 0 3 
C 0.795609 3 1.55874 2.683901 2.12132 2.12132 
C 2.683901 1.55874 3 0.795609 3 0 
C 3 -0.795609 2.683901 -1.55874 2.12132 -2.12132 
C 1.55874 -2.683901 0.795609 -3 0 -3 
C -0.795609 -3 -1.55874 -2.683901 -2.12132 -2.12132 
C -2.683901 -1.55874 -3 -0.795609 -3 0 
C -3 0.795609 -2.683901 1.55874 -2.12132 2.12132 
C -1.55874 2.683901 -0.795609 3 0 3 
z
" style="stroke: #66a61e"/>
    </defs>
    <g clip-path="url(#p57856f4a03)">
     <use xlink:href="#m533a29ec89" x="159.72311" y="171.349617" style="fill: #66a61e; stroke: #66a61e"/>
    </g>
   </g>
   <g id="PathCollection_6">
    <defs>
     <path id="m98988d9fe2" d="M 0 3 
C 0.795609 3 1.55874 2.683901 2.12132 2.12132 
C 2.683901 1.55874 3 0.795609 3 0 
C 3 -0.795609 2.683901 -1.55874 2.12132 -2.12132 
C 1.55874 -2.683901 0.795609 -3 0 -3 
C -0.795609 -3 -1.55874 -2.683901 -2.12132 -2.12132 
C -2.683901 -1.55874 -3 -0.795609 -3 0 
C -3 0.795609 -2.683901 1.55874 -2.12132 2.12132 
C -1.55874 2.683901 -0.795609 3 0 3 
z
" style="stroke: #e6ab02"/>
    </defs>
    <g clip-path="url(#p57856f4a03)">
     <use xlink:href="#m98988d9fe2" x="186.095192" y="130.631794" style="fill: #e6ab02; stroke: #e6ab02"/>
    </g>
   </g>
   <g id="PathCollection_7">
    <defs>
     <path id="m28f6619f75" d="M 0 3 
C 0.795609 3 1.55874 2.683901 2.12132 2.12132 
C 2.683901 1.55874 3 0.795609 3 0 
C 3 -0.795609 2.683901 -1.55874 2.12132 -2.12132 
C 1.55874 -2.683901 0.795609 -3 0 -3 
C -0.795609 -3 -1.55874 -2.683901 -2.12132 -2.12132 
C -2.683901 -1.55874 -3 -0.795609 -3 0 
C -3 0.795609 -2.683901 1.55874 -2.12132 2.12132 
C -1.55874 2.683901 -0.795609 3 0 3 
z
" style="stroke: #a6761d"/>
    </defs>
    <g clip-path="url(#p57856f4a03)">
     <use xlink:href="#m28f6619f75" x="202.073002" y="105.543545" style="fill: #a6761d; stroke: #a6761d"/>
    </g>
   </g>
   <g id="PathCollection_8">
    <defs>
     <path id="mb06e8026f5" d="M 0 3 
C 0.795609 3 1.55874 2.683901 2.12132 2.12132 
C 2.683901 1.55874 3 0.795609 3 0 
C 3 -0.795609 2.683901 -1.55874 2.12132 -2.12132 
C 1.55874 -2.683901 0.795609 -3 0 -3 
C -0.795609 -3 -1.55874 -2.683901 -2.12132 -2.12132 
C -2.683901 -1.55874 -3 -0.795609 -3 0 
C -3 0.795609 -2.683901 1.55874 -2.12132 2.12132 
C -1.55874 2.683901 -0.795609 3 0 3 
z
" style="stroke: #666666"/>
    </defs>
    <g clip-path="url(#p57856f4a03)">
     <use xlink:href="#mb06e8026f5" x="261.424677" y="59.41354" style="fill: #666666; stroke: #666666"/>
    </g>
   </g>
   <g id="PathCollection_9">
    <defs>
     <path id="m454602dba8" d="M 0 3 
C 0.795609 3 1.55874 2.683901 2.12132 2.12132 
C 2.683901 1.55874 3 0.795609 3 0 
C 3 -0.795609 2.683901 -1.55874 2.12132 -2.12132 
C 1.55874 -2.683901 0.795609 -3 0 -3 
C -0.795609 -3 -1.55874 -2.683901 -2.12132 -2.12132 
C -2.683901 -1.55874 -3 -0.795609 -3 0 
C -3 0.795609 -2.683901 1.55874 -2.12132 2.12132 
C -1.55874 2.683901 -0.795609 3 0 3 
z
" style="stroke: #e41a1c"/>
    </defs>
    <g clip-path="url(#p57856f4a03)">
     <use xlink:href="#m454602dba8" x="305.494068" y="44.239196" style="fill: #e41a1c; stroke: #e41a1c"/>
    </g>
   </g>
   <g id="PathCollection_10">
    <defs>
     <path id="meeae938946" d="M 0 3 
C 0.795609 3 1.55874 2.683901 2.12132 2.12132 
C 2.683901 1.55874 3 0.795609 3 0 
C 3 -0.795609 2.683901 -1.55874 2.12132 -2.12132 
C 1.55874 -2.683901 0.795609 -3 0 -3 
C -0.795609 -3 -1.55874 -2.683901 -2.12132 -2.12132 
C -2.683901 -1.55874 -3 -0.795609 -3 0 
C -3 0.795609 -2.683901 1.55874 -2.12132 2.12132 
C -1.55874 2.683901 -0.795609 3 0 3 
z
" style="stroke: #377eb8"/>
    </defs>
    <g clip-path="url(#p57856f4a03)">
     <use xlink:href="#meeae938946" x="366.43" y="24.765455" style="fill: #377eb8; stroke: #377eb8"/>
    </g>
   </g>
   <g id="matplotlib.axis_1">
    <g id="xtick_1">
     <g id="line2d_1">
      <path d="M 102.226175 318.04 
L 102.226175 10.8 
" clip-path="url(#p57856f4a03)" style="fill: none; stroke: #b0b0b0; stroke-width: 0.8; stroke-linecap: square"/>
     </g>
     <g id="line2d_2">
      <defs>
       <path id="mdb16a722f8" d="M 0 0 
L 0 3.5 
" style="stroke: #000000; stroke-width: 0.8"/>
      </defs>
      <g>
       <use xlink:href="#mdb16a722f8" x="102.226175" y="318.04" style="stroke: #000000; stroke-width: 0.8"/>
      </g>
     </g>
     <g id="text_1">
      <!-- 14.532 -->
      <g transform="translate(84.730862 332.638438) scale(0.1 -0.1)">
       <defs>
        <path id="DejaVuSans-31" d="M 794 531 
L 1825 531 
L 1825 4091 
L 703 3866 
L 703 4441 
L 1819 4666 
L 2450 4666 
L 2450 531 
L 3481 531 
L 3481 0 
L 794 0 
L 794 531 
z
" transform="scale(0.015625)"/>
        <path id="DejaVuSans-34" d="M 2419 4116 
L 825 1625 
L 2419 1625 
L 2419 4116 
z
M 2253 4666 
L 3047 4666 
L 3047 1625 
L 3713 1625 
L 3713 1100 
L 3047 1100 
L 3047 0 
L 2419 0 
L 2419 1100 
L 313 1100 
L 313 1709 
L 2253 4666 
z
" transform="scale(0.015625)"/>
        <path id="DejaVuSans-2e" d="M 684 794 
L 1344 794 
L 1344 0 
L 684 0 
L 684 794 
z
" transform="scale(0.015625)"/>
        <path id="DejaVuSans-35" d="M 691 4666 
L 3169 4666 
L 3169 4134 
L 1269 4134 
L 1269 2991 
Q 1406 3038 1543 3061 
Q 1681 3084 1819 3084 
Q 2600 3084 3056 2656 
Q 3513 2228 3513 1497 
Q 3513 744 3044 326 
Q 2575 -91 1722 -91 
Q 1428 -91 1123 -41 
Q 819 9 494 109 
L 494 744 
Q 775 591 1075 516 
Q 1375 441 1709 441 
Q 2250 441 2565 725 
Q 2881 1009 2881 1497 
Q 2881 1984 2565 2268 
Q 2250 2553 1709 2553 
Q 1456 2553 1204 2497 
Q 953 2441 691 2322 
L 691 4666 
z
" transform="scale(0.015625)"/>
        <path id="DejaVuSans-33" d="M 2597 2516 
Q 3050 2419 3304 2112 
Q 3559 1806 3559 1356 
Q 3559 666 3084 287 
Q 2609 -91 1734 -91 
Q 1441 -91 1130 -33 
Q 819 25 488 141 
L 488 750 
Q 750 597 1062 519 
Q 1375 441 1716 441 
Q 2309 441 2620 675 
Q 2931 909 2931 1356 
Q 2931 1769 2642 2001 
Q 2353 2234 1838 2234 
L 1294 2234 
L 1294 2753 
L 1863 2753 
Q 2328 2753 2575 2939 
Q 2822 3125 2822 3475 
Q 2822 3834 2567 4026 
Q 2313 4219 1838 4219 
Q 1578 4219 1281 4162 
Q 984 4106 628 3988 
L 628 4550 
Q 988 4650 1302 4700 
Q 1616 4750 1894 4750 
Q 2613 4750 3031 4423 
Q 3450 4097 3450 3541 
Q 3450 3153 3228 2886 
Q 3006 2619 2597 2516 
z
" transform="scale(0.015625)"/>
        <path id="DejaVuSans-32" d="M 1228 531 
L 3431 531 
L 3431 0 
L 469 0 
L 469 531 
Q 828 903 1448 1529 
Q 2069 2156 2228 2338 
Q 2531 2678 2651 2914 
Q 2772 3150 2772 3378 
Q 2772 3750 2511 3984 
Q 2250 4219 1831 4219 
Q 1534 4219 1204 4116 
Q 875 4013 500 3803 
L 500 4441 
Q 881 4594 1212 4672 
Q 1544 4750 1819 4750 
Q 2544 4750 2975 4387 
Q 3406 4025 3406 3419 
Q 3406 3131 3298 2873 
Q 3191 2616 2906 2266 
Q 2828 2175 2409 1742 
Q 1991 1309 1228 531 
z
" transform="scale(0.015625)"/>
       </defs>
       <use xlink:href="#DejaVuSans-31"/>
       <use xlink:href="#DejaVuSans-34" x="63.623047"/>
       <use xlink:href="#DejaVuSans-2e" x="127.246094"/>
       <use xlink:href="#DejaVuSans-35" x="159.033203"/>
       <use xlink:href="#DejaVuSans-33" x="222.65625"/>
       <use xlink:href="#DejaVuSans-32" x="286.279297"/>
      </g>
     </g>
    </g>
    <g id="xtick_2">
     <g id="line2d_3">
      <path d="M 140.866588 318.04 
L 140.866588 10.8 
" clip-path="url(#p57856f4a03)" style="fill: none; stroke: #b0b0b0; stroke-width: 0.8; stroke-linecap: square"/>
     </g>
     <g id="line2d_4">
      <g>
       <use xlink:href="#mdb16a722f8" x="140.866588" y="318.04" style="stroke: #000000; stroke-width: 0.8"/>
      </g>
     </g>
     <g id="text_2">
      <!-- 14.534 -->
      <g transform="translate(123.371275 332.638438) scale(0.1 -0.1)">
       <use xlink:href="#DejaVuSans-31"/>
       <use xlink:href="#DejaVuSans-34" x="63.623047"/>
       <use xlink:href="#DejaVuSans-2e" x="127.246094"/>
       <use xlink:href="#DejaVuSans-35" x="159.033203"/>
       <use xlink:href="#DejaVuSans-33" x="222.65625"/>
       <use xlink:href="#DejaVuSans-34" x="286.279297"/>
      </g>
     </g>
    </g>
    <g id="xtick_3">
     <g id="line2d_5">
      <path d="M 179.507001 318.04 
L 179.507001 10.8 
" clip-path="url(#p57856f4a03)" style="fill: none; stroke: #b0b0b0; stroke-width: 0.8; stroke-linecap: square"/>
     </g>
     <g id="line2d_6">
      <g>
       <use xlink:href="#mdb16a722f8" x="179.507001" y="318.04" style="stroke: #000000; stroke-width: 0.8"/>
      </g>
     </g>
     <g id="text_3">
      <!-- 14.536 -->
      <g transform="translate(162.011689 332.638438) scale(0.1 -0.1)">
       <defs>
        <path id="DejaVuSans-36" d="M 2113 2584 
Q 1688 2584 1439 2293 
Q 1191 2003 1191 1497 
Q 1191 994 1439 701 
Q 1688 409 2113 409 
Q 2538 409 2786 701 
Q 3034 994 3034 1497 
Q 3034 2003 2786 2293 
Q 2538 2584 2113 2584 
z
M 3366 4563 
L 3366 3988 
Q 3128 4100 2886 4159 
Q 2644 4219 2406 4219 
Q 1781 4219 1451 3797 
Q 1122 3375 1075 2522 
Q 1259 2794 1537 2939 
Q 1816 3084 2150 3084 
Q 2853 3084 3261 2657 
Q 3669 2231 3669 1497 
Q 3669 778 3244 343 
Q 2819 -91 2113 -91 
Q 1303 -91 875 529 
Q 447 1150 447 2328 
Q 447 3434 972 4092 
Q 1497 4750 2381 4750 
Q 2619 4750 2861 4703 
Q 3103 4656 3366 4563 
z
" transform="scale(0.015625)"/>
       </defs>
       <use xlink:href="#DejaVuSans-31"/>
       <use xlink:href="#DejaVuSans-34" x="63.623047"/>
       <use xlink:href="#DejaVuSans-2e" x="127.246094"/>
       <use xlink:href="#DejaVuSans-35" x="159.033203"/>
       <use xlink:href="#DejaVuSans-33" x="222.65625"/>
       <use xlink:href="#DejaVuSans-36" x="286.279297"/>
      </g>
     </g>
    </g>
    <g id="xtick_4">
     <g id="line2d_7">
      <path d="M 218.147414 318.04 
L 218.147414 10.8 
" clip-path="url(#p57856f4a03)" style="fill: none; stroke: #b0b0b0; stroke-width: 0.8; stroke-linecap: square"/>
     </g>
     <g id="line2d_8">
      <g>
       <use xlink:href="#mdb16a722f8" x="218.147414" y="318.04" style="stroke: #000000; stroke-width: 0.8"/>
      </g>
     </g>
     <g id="text_4">
      <!-- 14.538 -->
      <g transform="translate(200.652102 332.638438) scale(0.1 -0.1)">
       <defs>
        <path id="DejaVuSans-38" d="M 2034 2216 
Q 1584 2216 1326 1975 
Q 1069 1734 1069 1313 
Q 1069 891 1326 650 
Q 1584 409 2034 409 
Q 2484 409 2743 651 
Q 3003 894 3003 1313 
Q 3003 1734 2745 1975 
Q 2488 2216 2034 2216 
z
M 1403 2484 
Q 997 2584 770 2862 
Q 544 3141 544 3541 
Q 544 4100 942 4425 
Q 1341 4750 2034 4750 
Q 2731 4750 3128 4425 
Q 3525 4100 3525 3541 
Q 3525 3141 3298 2862 
Q 3072 2584 2669 2484 
Q 3125 2378 3379 2068 
Q 3634 1759 3634 1313 
Q 3634 634 3220 271 
Q 2806 -91 2034 -91 
Q 1263 -91 848 271 
Q 434 634 434 1313 
Q 434 1759 690 2068 
Q 947 2378 1403 2484 
z
M 1172 3481 
Q 1172 3119 1398 2916 
Q 1625 2713 2034 2713 
Q 2441 2713 2670 2916 
Q 2900 3119 2900 3481 
Q 2900 3844 2670 4047 
Q 2441 4250 2034 4250 
Q 1625 4250 1398 4047 
Q 1172 3844 1172 3481 
z
" transform="scale(0.015625)"/>
       </defs>
       <use xlink:href="#DejaVuSans-31"/>
       <use xlink:href="#DejaVuSans-34" x="63.623047"/>
       <use xlink:href="#DejaVuSans-2e" x="127.246094"/>
       <use xlink:href="#DejaVuSans-35" x="159.033203"/>
       <use xlink:href="#DejaVuSans-33" x="222.65625"/>
       <use xlink:href="#DejaVuSans-38" x="286.279297"/>
      </g>
     </g>
    </g>
    <g id="xtick_5">
     <g id="line2d_9">
      <path d="M 256.787828 318.04 
L 256.787828 10.8 
" clip-path="url(#p57856f4a03)" style="fill: none; stroke: #b0b0b0; stroke-width: 0.8; stroke-linecap: square"/>
     </g>
     <g id="line2d_10">
      <g>
       <use xlink:href="#mdb16a722f8" x="256.787828" y="318.04" style="stroke: #000000; stroke-width: 0.8"/>
      </g>
     </g>
     <g id="text_5">
      <!-- 14.540 -->
      <g transform="translate(239.292515 332.638438) scale(0.1 -0.1)">
       <defs>
        <path id="DejaVuSans-30" d="M 2034 4250 
Q 1547 4250 1301 3770 
Q 1056 3291 1056 2328 
Q 1056 1369 1301 889 
Q 1547 409 2034 409 
Q 2525 409 2770 889 
Q 3016 1369 3016 2328 
Q 3016 3291 2770 3770 
Q 2525 4250 2034 4250 
z
M 2034 4750 
Q 2819 4750 3233 4129 
Q 3647 3509 3647 2328 
Q 3647 1150 3233 529 
Q 2819 -91 2034 -91 
Q 1250 -91 836 529 
Q 422 1150 422 2328 
Q 422 3509 836 4129 
Q 1250 4750 2034 4750 
z
" transform="scale(0.015625)"/>
       </defs>
       <use xlink:href="#DejaVuSans-31"/>
       <use xlink:href="#DejaVuSans-34" x="63.623047"/>
       <use xlink:href="#DejaVuSans-2e" x="127.246094"/>
       <use xlink:href="#DejaVuSans-35" x="159.033203"/>
       <use xlink:href="#DejaVuSans-34" x="222.65625"/>
       <use xlink:href="#DejaVuSans-30" x="286.279297"/>
      </g>
     </g>
    </g>
    <g id="xtick_6">
     <g id="line2d_11">
      <path d="M 295.428241 318.04 
L 295.428241 10.8 
" clip-path="url(#p57856f4a03)" style="fill: none; stroke: #b0b0b0; stroke-width: 0.8; stroke-linecap: square"/>
     </g>
     <g id="line2d_12">
      <g>
       <use xlink:href="#mdb16a722f8" x="295.428241" y="318.04" style="stroke: #000000; stroke-width: 0.8"/>
      </g>
     </g>
     <g id="text_6">
      <!-- 14.542 -->
      <g transform="translate(277.932928 332.638438) scale(0.1 -0.1)">
       <use xlink:href="#DejaVuSans-31"/>
       <use xlink:href="#DejaVuSans-34" x="63.623047"/>
       <use xlink:href="#DejaVuSans-2e" x="127.246094"/>
       <use xlink:href="#DejaVuSans-35" x="159.033203"/>
       <use xlink:href="#DejaVuSans-34" x="222.65625"/>
       <use xlink:href="#DejaVuSans-32" x="286.279297"/>
      </g>
     </g>
    </g>
    <g id="xtick_7">
     <g id="line2d_13">
      <path d="M 334.068654 318.04 
L 334.068654 10.8 
" clip-path="url(#p57856f4a03)" style="fill: none; stroke: #b0b0b0; stroke-width: 0.8; stroke-linecap: square"/>
     </g>
     <g id="line2d_14">
      <g>
       <use xlink:href="#mdb16a722f8" x="334.068654" y="318.04" style="stroke: #000000; stroke-width: 0.8"/>
      </g>
     </g>
     <g id="text_7">
      <!-- 14.544 -->
      <g transform="translate(316.573341 332.638438) scale(0.1 -0.1)">
       <use xlink:href="#DejaVuSans-31"/>
       <use xlink:href="#DejaVuSans-34" x="63.623047"/>
       <use xlink:href="#DejaVuSans-2e" x="127.246094"/>
       <use xlink:href="#DejaVuSans-35" x="159.033203"/>
       <use xlink:href="#DejaVuSans-34" x="222.65625"/>
       <use xlink:href="#DejaVuSans-34" x="286.279297"/>
      </g>
     </g>
    </g>
    <g id="xtick_8">
     <g id="line2d_15">
      <path d="M 372.709067 318.04 
L 372.709067 10.8 
" clip-path="url(#p57856f4a03)" style="fill: none; stroke: #b0b0b0; stroke-width: 0.8; stroke-linecap: square"/>
     </g>
     <g id="line2d_16">
      <g>
       <use xlink:href="#mdb16a722f8" x="372.709067" y="318.04" style="stroke: #000000; stroke-width: 0.8"/>
      </g>
     </g>
     <g id="text_8">
      <!-- 14.546 -->
      <g transform="translate(355.213755 332.638438) scale(0.1 -0.1)">
       <use xlink:href="#DejaVuSans-31"/>
       <use xlink:href="#DejaVuSans-34" x="63.623047"/>
       <use xlink:href="#DejaVuSans-2e" x="127.246094"/>
       <use xlink:href="#DejaVuSans-35" x="159.033203"/>
       <use xlink:href="#DejaVuSans-34" x="222.65625"/>
       <use xlink:href="#DejaVuSans-36" x="286.279297"/>
      </g>
     </g>
    </g>
    <g id="text_9">
     <!-- Longitude [°] -->
     <g transform="translate(190.803177 346.316563) scale(0.1 -0.1)">
      <defs>
       <path id="DejaVuSans-4c" d="M 628 4666 
L 1259 4666 
L 1259 531 
L 3531 531 
L 3531 0 
L 628 0 
L 628 4666 
z
" transform="scale(0.015625)"/>
       <path id="DejaVuSans-6f" d="M 1959 3097 
Q 1497 3097 1228 2736 
Q 959 2375 959 1747 
Q 959 1119 1226 758 
Q 1494 397 1959 397 
Q 2419 397 2687 759 
Q 2956 1122 2956 1747 
Q 2956 2369 2687 2733 
Q 2419 3097 1959 3097 
z
M 1959 3584 
Q 2709 3584 3137 3096 
Q 3566 2609 3566 1747 
Q 3566 888 3137 398 
Q 2709 -91 1959 -91 
Q 1206 -91 779 398 
Q 353 888 353 1747 
Q 353 2609 779 3096 
Q 1206 3584 1959 3584 
z
" transform="scale(0.015625)"/>
       <path id="DejaVuSans-6e" d="M 3513 2113 
L 3513 0 
L 2938 0 
L 2938 2094 
Q 2938 2591 2744 2837 
Q 2550 3084 2163 3084 
Q 1697 3084 1428 2787 
Q 1159 2491 1159 1978 
L 1159 0 
L 581 0 
L 581 3500 
L 1159 3500 
L 1159 2956 
Q 1366 3272 1645 3428 
Q 1925 3584 2291 3584 
Q 2894 3584 3203 3211 
Q 3513 2838 3513 2113 
z
" transform="scale(0.015625)"/>
       <path id="DejaVuSans-67" d="M 2906 1791 
Q 2906 2416 2648 2759 
Q 2391 3103 1925 3103 
Q 1463 3103 1205 2759 
Q 947 2416 947 1791 
Q 947 1169 1205 825 
Q 1463 481 1925 481 
Q 2391 481 2648 825 
Q 2906 1169 2906 1791 
z
M 3481 434 
Q 3481 -459 3084 -895 
Q 2688 -1331 1869 -1331 
Q 1566 -1331 1297 -1286 
Q 1028 -1241 775 -1147 
L 775 -588 
Q 1028 -725 1275 -790 
Q 1522 -856 1778 -856 
Q 2344 -856 2625 -561 
Q 2906 -266 2906 331 
L 2906 616 
Q 2728 306 2450 153 
Q 2172 0 1784 0 
Q 1141 0 747 490 
Q 353 981 353 1791 
Q 353 2603 747 3093 
Q 1141 3584 1784 3584 
Q 2172 3584 2450 3431 
Q 2728 3278 2906 2969 
L 2906 3500 
L 3481 3500 
L 3481 434 
z
" transform="scale(0.015625)"/>
       <path id="DejaVuSans-69" d="M 603 3500 
L 1178 3500 
L 1178 0 
L 603 0 
L 603 3500 
z
M 603 4863 
L 1178 4863 
L 1178 4134 
L 603 4134 
L 603 4863 
z
" transform="scale(0.015625)"/>
       <path id="DejaVuSans-74" d="M 1172 4494 
L 1172 3500 
L 2356 3500 
L 2356 3053 
L 1172 3053 
L 1172 1153 
Q 1172 725 1289 603 
Q 1406 481 1766 481 
L 2356 481 
L 2356 0 
L 1766 0 
Q 1100 0 847 248 
Q 594 497 594 1153 
L 594 3053 
L 172 3053 
L 172 3500 
L 594 3500 
L 594 4494 
L 1172 4494 
z
" transform="scale(0.015625)"/>
       <path id="DejaVuSans-75" d="M 544 1381 
L 544 3500 
L 1119 3500 
L 1119 1403 
Q 1119 906 1312 657 
Q 1506 409 1894 409 
Q 2359 409 2629 706 
Q 2900 1003 2900 1516 
L 2900 3500 
L 3475 3500 
L 3475 0 
L 2900 0 
L 2900 538 
Q 2691 219 2414 64 
Q 2138 -91 1772 -91 
Q 1169 -91 856 284 
Q 544 659 544 1381 
z
M 1991 3584 
L 1991 3584 
z
" transform="scale(0.015625)"/>
       <path id="DejaVuSans-64" d="M 2906 2969 
L 2906 4863 
L 3481 4863 
L 3481 0 
L 2906 0 
L 2906 525 
Q 2725 213 2448 61 
Q 2172 -91 1784 -91 
Q 1150 -91 751 415 
Q 353 922 353 1747 
Q 353 2572 751 3078 
Q 1150 3584 1784 3584 
Q 2172 3584 2448 3432 
Q 2725 3281 2906 2969 
z
M 947 1747 
Q 947 1113 1208 752 
Q 1469 391 1925 391 
Q 2381 391 2643 752 
Q 2906 1113 2906 1747 
Q 2906 2381 2643 2742 
Q 2381 3103 1925 3103 
Q 1469 3103 1208 2742 
Q 947 2381 947 1747 
z
" transform="scale(0.015625)"/>
       <path id="DejaVuSans-65" d="M 3597 1894 
L 3597 1613 
L 953 1613 
Q 991 1019 1311 708 
Q 1631 397 2203 397 
Q 2534 397 2845 478 
Q 3156 559 3463 722 
L 3463 178 
Q 3153 47 2828 -22 
Q 2503 -91 2169 -91 
Q 1331 -91 842 396 
Q 353 884 353 1716 
Q 353 2575 817 3079 
Q 1281 3584 2069 3584 
Q 2775 3584 3186 3129 
Q 3597 2675 3597 1894 
z
M 3022 2063 
Q 3016 2534 2758 2815 
Q 2500 3097 2075 3097 
Q 1594 3097 1305 2825 
Q 1016 2553 972 2059 
L 3022 2063 
z
" transform="scale(0.015625)"/>
       <path id="DejaVuSans-20" transform="scale(0.015625)"/>
       <path id="DejaVuSans-5b" d="M 550 4863 
L 1875 4863 
L 1875 4416 
L 1125 4416 
L 1125 -397 
L 1875 -397 
L 1875 -844 
L 550 -844 
L 550 4863 
z
" transform="scale(0.015625)"/>
       <path id="DejaVuSans-b0" d="M 1600 4347 
Q 1350 4347 1178 4173 
Q 1006 4000 1006 3750 
Q 1006 3503 1178 3333 
Q 1350 3163 1600 3163 
Q 1850 3163 2022 3333 
Q 2194 3503 2194 3750 
Q 2194 3997 2020 4172 
Q 1847 4347 1600 4347 
z
M 1600 4750 
Q 1800 4750 1984 4673 
Q 2169 4597 2303 4453 
Q 2447 4313 2519 4134 
Q 2591 3956 2591 3750 
Q 2591 3338 2302 3052 
Q 2013 2766 1594 2766 
Q 1172 2766 890 3047 
Q 609 3328 609 3750 
Q 609 4169 896 4459 
Q 1184 4750 1600 4750 
z
" transform="scale(0.015625)"/>
       <path id="DejaVuSans-5d" d="M 1947 4863 
L 1947 -844 
L 622 -844 
L 622 -397 
L 1369 -397 
L 1369 4416 
L 622 4416 
L 622 4863 
L 1947 4863 
z
" transform="scale(0.015625)"/>
      </defs>
      <use xlink:href="#DejaVuSans-4c"/>
      <use xlink:href="#DejaVuSans-6f" x="53.962891"/>
      <use xlink:href="#DejaVuSans-6e" x="115.144531"/>
      <use xlink:href="#DejaVuSans-67" x="178.523438"/>
      <use xlink:href="#DejaVuSans-69" x="242"/>
      <use xlink:href="#DejaVuSans-74" x="269.783203"/>
      <use xlink:href="#DejaVuSans-75" x="308.992188"/>
      <use xlink:href="#DejaVuSans-64" x="372.371094"/>
      <use xlink:href="#DejaVuSans-65" x="435.847656"/>
      <use xlink:href="#DejaVuSans-20" x="497.371094"/>
      <use xlink:href="#DejaVuSans-5b" x="529.158203"/>
      <use xlink:href="#DejaVuSans-b0" x="568.171875"/>
      <use xlink:href="#DejaVuSans-5d" x="618.171875"/>
     </g>
    </g>
   </g>
   <g id="matplotlib.axis_2">
    <g id="ytick_1">
     <g id="line2d_17">
      <path d="M 66.62 314.241356 
L 380.706667 314.241356 
" clip-path="url(#p57856f4a03)" style="fill: none; stroke: #b0b0b0; stroke-width: 0.8; stroke-linecap: square"/>
     </g>
     <g id="line2d_18">
      <defs>
       <path id="me4434f902f" d="M 0 0 
L -3.5 0 
" style="stroke: #000000; stroke-width: 0.8"/>
      </defs>
      <g>
       <use xlink:href="#me4434f902f" x="66.62" y="314.241356" style="stroke: #000000; stroke-width: 0.8"/>
      </g>
     </g>
     <g id="text_10">
      <!-- 50.001 -->
      <g transform="translate(24.629375 318.040575) scale(0.1 -0.1)">
       <use xlink:href="#DejaVuSans-35"/>
       <use xlink:href="#DejaVuSans-30" x="63.623047"/>
       <use xlink:href="#DejaVuSans-2e" x="127.246094"/>
       <use xlink:href="#DejaVuSans-30" x="159.033203"/>
       <use xlink:href="#DejaVuSans-30" x="222.65625"/>
       <use xlink:href="#DejaVuSans-31" x="286.279297"/>
      </g>
     </g>
    </g>
    <g id="ytick_2">
     <g id="line2d_19">
      <path d="M 66.62 263.660209 
L 380.706667 263.660209 
" clip-path="url(#p57856f4a03)" style="fill: none; stroke: #b0b0b0; stroke-width: 0.8; stroke-linecap: square"/>
     </g>
     <g id="line2d_20">
      <g>
       <use xlink:href="#me4434f902f" x="66.62" y="263.660209" style="stroke: #000000; stroke-width: 0.8"/>
      </g>
     </g>
     <g id="text_11">
      <!-- 50.002 -->
      <g transform="translate(24.629375 267.459428) scale(0.1 -0.1)">
       <use xlink:href="#DejaVuSans-35"/>
       <use xlink:href="#DejaVuSans-30" x="63.623047"/>
       <use xlink:href="#DejaVuSans-2e" x="127.246094"/>
       <use xlink:href="#DejaVuSans-30" x="159.033203"/>
       <use xlink:href="#DejaVuSans-30" x="222.65625"/>
       <use xlink:href="#DejaVuSans-32" x="286.279297"/>
      </g>
     </g>
    </g>
    <g id="ytick_3">
     <g id="line2d_21">
      <path d="M 66.62 213.079063 
L 380.706667 213.079063 
" clip-path="url(#p57856f4a03)" style="fill: none; stroke: #b0b0b0; stroke-width: 0.8; stroke-linecap: square"/>
     </g>
     <g id="line2d_22">
      <g>
       <use xlink:href="#me4434f902f" x="66.62" y="213.079063" style="stroke: #000000; stroke-width: 0.8"/>
      </g>
     </g>
     <g id="text_12">
      <!-- 50.003 -->
      <g transform="translate(24.629375 216.878282) scale(0.1 -0.1)">
       <use xlink:href="#DejaVuSans-35"/>
       <use xlink:href="#DejaVuSans-30" x="63.623047"/>
       <use xlink:href="#DejaVuSans-2e" x="127.246094"/>
       <use xlink:href="#DejaVuSans-30" x="159.033203"/>
       <use xlink:href="#DejaVuSans-30" x="222.65625"/>
       <use xlink:href="#DejaVuSans-33" x="286.279297"/>
      </g>
     </g>
    </g>
    <g id="ytick_4">
     <g id="line2d_23">
      <path d="M 66.62 162.497916 
L 380.706667 162.497916 
" clip-path="url(#p57856f4a03)" style="fill: none; stroke: #b0b0b0; stroke-width: 0.8; stroke-linecap: square"/>
     </g>
     <g id="line2d_24">
      <g>
       <use xlink:href="#me4434f902f" x="66.62" y="162.497916" style="stroke: #000000; stroke-width: 0.8"/>
      </g>
     </g>
     <g id="text_13">
      <!-- 50.004 -->
      <g transform="translate(24.629375 166.297135) scale(0.1 -0.1)">
       <use xlink:href="#DejaVuSans-35"/>
       <use xlink:href="#DejaVuSans-30" x="63.623047"/>
       <use xlink:href="#DejaVuSans-2e" x="127.246094"/>
       <use xlink:href="#DejaVuSans-30" x="159.033203"/>
       <use xlink:href="#DejaVuSans-30" x="222.65625"/>
       <use xlink:href="#DejaVuSans-34" x="286.279297"/>
      </g>
     </g>
    </g>
    <g id="ytick_5">
     <g id="line2d_25">
      <path d="M 66.62 111.91677 
L 380.706667 111.91677 
" clip-path="url(#p57856f4a03)" style="fill: none; stroke: #b0b0b0; stroke-width: 0.8; stroke-linecap: square"/>
     </g>
     <g id="line2d_26">
      <g>
       <use xlink:href="#me4434f902f" x="66.62" y="111.91677" style="stroke: #000000; stroke-width: 0.8"/>
      </g>
     </g>
     <g id="text_14">
      <!-- 50.005 -->
      <g transform="translate(24.629375 115.715989) scale(0.1 -0.1)">
       <use xlink:href="#DejaVuSans-35"/>
       <use xlink:href="#DejaVuSans-30" x="63.623047"/>
       <use xlink:href="#DejaVuSans-2e" x="127.246094"/>
       <use xlink:href="#DejaVuSans-30" x="159.033203"/>
       <use xlink:href="#DejaVuSans-30" x="222.65625"/>
       <use xlink:href="#DejaVuSans-35" x="286.279297"/>
      </g>
     </g>
    </g>
    <g id="ytick_6">
     <g id="line2d_27">
      <path d="M 66.62 61.335623 
L 380.706667 61.335623 
" clip-path="url(#p57856f4a03)" style="fill: none; stroke: #b0b0b0; stroke-width: 0.8; stroke-linecap: square"/>
     </g>
     <g id="line2d_28">
      <g>
       <use xlink:href="#me4434f902f" x="66.62" y="61.335623" style="stroke: #000000; stroke-width: 0.8"/>
      </g>
     </g>
     <g id="text_15">
      <!-- 50.006 -->
      <g transform="translate(24.629375 65.134842) scale(0.1 -0.1)">
       <use xlink:href="#DejaVuSans-35"/>
       <use xlink:href="#DejaVuSans-30" x="63.623047"/>
       <use xlink:href="#DejaVuSans-2e" x="127.246094"/>
       <use xlink:href="#DejaVuSans-30" x="159.033203"/>
       <use xlink:href="#DejaVuSans-30" x="222.65625"/>
       <use xlink:href="#DejaVuSans-36" x="286.279297"/>
      </g>
     </g>
    </g>
    <g id="text_16">
     <!-- Latitude [°] -->
     <g transform="translate(18.549688 192.989531) rotate(-90) scale(0.1 -0.1)">
      <defs>
       <path id="DejaVuSans-61" d="M 2194 1759 
Q 1497 1759 1228 1600 
Q 959 1441 959 1056 
Q 959 750 1161 570 
Q 1363 391 1709 391 
Q 2188 391 2477 730 
Q 2766 1069 2766 1631 
L 2766 1759 
L 2194 1759 
z
M 3341 1997 
L 3341 0 
L 2766 0 
L 2766 531 
Q 2569 213 2275 61 
Q 1981 -91 1556 -91 
Q 1019 -91 701 211 
Q 384 513 384 1019 
Q 384 1609 779 1909 
Q 1175 2209 1959 2209 
L 2766 2209 
L 2766 2266 
Q 2766 2663 2505 2880 
Q 2244 3097 1772 3097 
Q 1472 3097 1187 3025 
Q 903 2953 641 2809 
L 641 3341 
Q 956 3463 1253 3523 
Q 1550 3584 1831 3584 
Q 2591 3584 2966 3190 
Q 3341 2797 3341 1997 
z
" transform="scale(0.015625)"/>
      </defs>
      <use xlink:href="#DejaVuSans-4c"/>
      <use xlink:href="#DejaVuSans-61" x="55.712891"/>
      <use xlink:href="#DejaVuSans-74" x="116.992188"/>
      <use xlink:href="#DejaVuSans-69" x="156.201172"/>
      <use xlink:href="#DejaVuSans-74" x="183.984375"/>
      <use xlink:href="#DejaVuSans-75" x="223.193359"/>
      <use xlink:href="#DejaVuSans-64" x="286.572266"/>
      <use xlink:href="#DejaVuSans-65" x="350.048828"/>
      <use xlink:href="#DejaVuSans-20" x="411.572266"/>
      <use xlink:href="#DejaVuSans-5b" x="443.359375"/>
      <use xlink:href="#DejaVuSans-b0" x="482.373047"/>
      <use xlink:href="#DejaVuSans-5d" x="532.373047"/>
     </g>
    </g>
   </g>
   <g id="patch_3">
    <path d="M 66.62 318.04 
L 66.62 10.8 
" style="fill: none; stroke: #000000; stroke-width: 0.8; stroke-linejoin: miter; stroke-linecap: square"/>
   </g>
   <g id="patch_4">
    <path d="M 380.706667 318.04 
L 380.706667 10.8 
" style="fill: none; stroke: #000000; stroke-width: 0.8; stroke-linejoin: miter; stroke-linecap: square"/>
   </g>
   <g id="patch_5">
    <path d="M 66.62 318.04 
L 380.706667 318.04 
" style="fill: none; stroke: #000000; stroke-width: 0.8; stroke-linejoin: miter; stroke-linecap: square"/>
   </g>
   <g id="patch_6">
    <path d="M 66.62 10.8 
L 380.706667 10.8 
" style="fill: none; stroke: #000000; stroke-width: 0.8; stroke-linejoin: miter; stroke-linecap: square"/>
   </g>
   <g id="text_17">
    <!-- 0 -->
    <g transform="translate(80.896667 304.074545) scale(0.1 -0.1)">
     <use xlink:href="#DejaVuSans-30"/>
    </g>
   </g>
   <g id="text_18">
    <!-- 1 -->
    <g transform="translate(94.729935 279.390946) scale(0.1 -0.1)">
     <use xlink:href="#DejaVuSans-31"/>
    </g>
   </g>
   <g id="text_19">
    <!-- 2 -->
    <g transform="translate(109.799696 253.189912) scale(0.1 -0.1)">
     <use xlink:href="#DejaVuSans-32"/>
    </g>
   </g>
   <g id="text_20">
    <!-- 3 -->
    <g transform="translate(140.518824 201.647724) scale(0.1 -0.1)">
     <use xlink:href="#DejaVuSans-33"/>
    </g>
   </g>
   <g id="text_21">
    <!-- 4 -->
    <g transform="translate(159.72311 171.349617) scale(0.1 -0.1)">
     <use xlink:href="#DejaVuSans-34"/>
    </g>
   </g>
   <g id="text_22">
    <!-- 5 -->
    <g transform="translate(186.095192 130.631794) scale(0.1 -0.1)">
     <use xlink:href="#DejaVuSans-35"/>
    </g>
   </g>
   <g id="text_23">
    <!-- 6 -->
    <g transform="translate(202.073002 105.543545) scale(0.1 -0.1)">
     <use xlink:href="#DejaVuSans-36"/>
    </g>
   </g>
   <g id="text_24">
    <!-- 7 -->
    <g transform="translate(261.424677 59.41354) scale(0.1 -0.1)">
     <defs>
      <path id="DejaVuSans-37" d="M 525 4666 
L 3525 4666 
L 3525 4397 
L 1831 0 
L 1172 0 
L 2766 4134 
L 525 4134 
L 525 4666 
z
" transform="scale(0.015625)"/>
     </defs>
     <use xlink:href="#DejaVuSans-37"/>
    </g>
   </g>
   <g id="text_25">
    <!-- 8 -->
    <g transform="translate(305.494068 44.239196) scale(0.1 -0.1)">
     <use xlink:href="#DejaVuSans-38"/>
    </g>
   </g>
   <g id="text_26">
    <!-- 9 -->
    <g transform="translate(366.43 24.765455) scale(0.1 -0.1)">
     <defs>
      <path id="DejaVuSans-39" d="M 703 97 
L 703 672 
Q 941 559 1184 500 
Q 1428 441 1663 441 
Q 2288 441 2617 861 
Q 2947 1281 2994 2138 
Q 2813 1869 2534 1725 
Q 2256 1581 1919 1581 
Q 1219 1581 811 2004 
Q 403 2428 403 3163 
Q 403 3881 828 4315 
Q 1253 4750 1959 4750 
Q 2769 4750 3195 4129 
Q 3622 3509 3622 2328 
Q 3622 1225 3098 567 
Q 2575 -91 1691 -91 
Q 1453 -91 1209 -44 
Q 966 3 703 97 
z
M 1959 2075 
Q 2384 2075 2632 2365 
Q 2881 2656 2881 3163 
Q 2881 3666 2632 3958 
Q 2384 4250 1959 4250 
Q 1534 4250 1286 3958 
Q 1038 3666 1038 3163 
Q 1038 2656 1286 2365 
Q 1534 2075 1959 2075 
z
" transform="scale(0.015625)"/>
     </defs>
     <use xlink:href="#DejaVuSans-39"/>
    </g>
   </g>
  </g>
  <g id="axes_2">
   <g id="patch_7">
    <path d="M 441.026667 318.04 
L 1069.2 318.04 
L 1069.2 10.8 
L 441.026667 10.8 
z
" style="fill: #ffffff"/>
   </g>
   <g id="PathCollection_11">
    <defs>
     <path id="m71f78ffd31" d="M -6.123724 0 
L 6.123724 0 
M 0 6.123724 
L 0 -6.123724 
" style="stroke: #000000; stroke-width: 1.5"/>
    </defs>
    <g clip-path="url(#p7dab3337a1)">
     <use xlink:href="#m71f78ffd31" x="469.58" y="37.676507" style="stroke: #000000; stroke-width: 1.5"/>
    </g>
   </g>
   <g id="PathCollection_12">
    <g clip-path="url(#p7dab3337a1)">
     <use xlink:href="#m71f78ffd31" x="469.58" y="31.938261" style="stroke: #000000; stroke-width: 1.5"/>
    </g>
   </g>
   <g id="PathCollection_13">
    <g clip-path="url(#p7dab3337a1)">
     <use xlink:href="#m71f78ffd31" x="469.58" y="24.765455" style="stroke: #000000; stroke-width: 1.5"/>
    </g>
   </g>
   <g id="PathCollection_14">
    <g clip-path="url(#p7dab3337a1)">
     <use xlink:href="#m71f78ffd31" x="504.400876" y="40.832541" style="stroke: #000000; stroke-width: 1.5"/>
    </g>
   </g>
   <g id="PathCollection_15">
    <defs>
     <path id="mb5669ab161" d="M 0 3.535534 
C 0.937635 3.535534 1.836992 3.163008 2.5 2.5 
C 3.163008 1.836992 3.535534 0.937635 3.535534 0 
C 3.535534 -0.937635 3.163008 -1.836992 2.5 -2.5 
C 1.836992 -3.163008 0.937635 -3.535534 0 -3.535534 
C -0.937635 -3.535534 -1.836992 -3.163008 -2.5 -2.5 
C -3.163008 -1.836992 -3.535534 -0.937635 -3.535534 0 
C -3.535534 0.937635 -3.163008 1.836992 -2.5 2.5 
C -1.836992 3.163008 -0.937635 3.535534 0 3.535534 
z
" style="stroke: #000000"/>
    </defs>
    <g clip-path="url(#p7dab3337a1)">
     <use xlink:href="#mb5669ab161" x="504.400876" y="64.502803" style="stroke: #000000"/>
    </g>
   </g>
   <g id="PathCollection_16">
    <g clip-path="url(#p7dab3337a1)">
     <use xlink:href="#m71f78ffd31" x="541.876442" y="67.658838" style="stroke: #000000; stroke-width: 1.5"/>
    </g>
   </g>
   <g id="PathCollection_17">
    <g clip-path="url(#p7dab3337a1)">
     <use xlink:href="#mb5669ab161" x="541.876442" y="91.3291" style="stroke: #000000"/>
    </g>
   </g>
   <g id="PathCollection_18">
    <g clip-path="url(#p7dab3337a1)">
     <use xlink:href="#m71f78ffd31" x="616.82464" y="90.755276" style="stroke: #000000; stroke-width: 1.5"/>
    </g>
   </g>
   <g id="PathCollection_19">
    <g clip-path="url(#p7dab3337a1)">
     <use xlink:href="#mb5669ab161" x="616.82464" y="114.425538" style="stroke: #000000"/>
    </g>
   </g>
   <g id="PathCollection_20">
    <g clip-path="url(#p7dab3337a1)">
     <use xlink:href="#m71f78ffd31" x="662.25946" y="93.624398" style="stroke: #000000; stroke-width: 1.5"/>
    </g>
   </g>
   <g id="PathCollection_21">
    <g clip-path="url(#p7dab3337a1)">
     <use xlink:href="#mb5669ab161" x="662.25946" y="117.29466" style="stroke: #000000"/>
    </g>
   </g>
   <g id="PathCollection_22">
    <g clip-path="url(#p7dab3337a1)">
     <use xlink:href="#m71f78ffd31" x="724.057692" y="84.730118" style="stroke: #000000; stroke-width: 1.5"/>
    </g>
   </g>
   <g id="PathCollection_23">
    <g clip-path="url(#p7dab3337a1)">
     <use xlink:href="#mb5669ab161" x="724.057692" y="108.40038" style="stroke: #000000"/>
    </g>
   </g>
   <g id="PathCollection_24">
    <g clip-path="url(#p7dab3337a1)">
     <use xlink:href="#m71f78ffd31" x="761.834916" y="103.809784" style="stroke: #000000; stroke-width: 1.5"/>
    </g>
   </g>
   <g id="PathCollection_25">
    <g clip-path="url(#p7dab3337a1)">
     <use xlink:href="#mb5669ab161" x="761.834916" y="127.480046" style="stroke: #000000"/>
    </g>
   </g>
   <g id="PathCollection_26">
    <g clip-path="url(#p7dab3337a1)">
     <use xlink:href="#m71f78ffd31" x="870.236168" y="170.803798" style="stroke: #000000; stroke-width: 1.5"/>
    </g>
   </g>
   <g id="PathCollection_27">
    <g clip-path="url(#p7dab3337a1)">
     <use xlink:href="#mb5669ab161" x="870.236168" y="194.47406" style="stroke: #000000"/>
    </g>
   </g>
   <g id="PathCollection_28">
    <g clip-path="url(#p7dab3337a1)">
     <use xlink:href="#m71f78ffd31" x="940.757127" y="198.9212" style="stroke: #000000; stroke-width: 1.5"/>
    </g>
   </g>
   <g id="PathCollection_29">
    <g clip-path="url(#p7dab3337a1)">
     <use xlink:href="#mb5669ab161" x="940.757127" y="222.591462" style="stroke: #000000"/>
    </g>
   </g>
   <g id="PathCollection_30">
    <g clip-path="url(#p7dab3337a1)">
     <use xlink:href="#m71f78ffd31" x="1040.646667" y="280.404284" style="stroke: #000000; stroke-width: 1.5"/>
    </g>
   </g>
   <g id="PathCollection_31">
    <g clip-path="url(#p7dab3337a1)">
     <use xlink:href="#mb5669ab161" x="1040.646667" y="304.074545" style="stroke: #000000"/>
    </g>
   </g>
   <g id="matplotlib.axis_3">
    <g id="xtick_9">
     <g id="line2d_29">
      <path d="M 469.58 318.04 
L 469.58 10.8 
" clip-path="url(#p7dab3337a1)" style="fill: none; stroke: #b0b0b0; stroke-width: 0.8; stroke-linecap: square"/>
     </g>
     <g id="line2d_30">
      <g>
       <use xlink:href="#mdb16a722f8" x="469.58" y="318.04" style="stroke: #000000; stroke-width: 0.8"/>
      </g>
     </g>
     <g id="text_27">
      <!-- 0 -->
      <g transform="translate(466.39875 332.638438) scale(0.1 -0.1)">
       <use xlink:href="#DejaVuSans-30"/>
      </g>
     </g>
    </g>
    <g id="xtick_10">
     <g id="line2d_31">
      <path d="M 562.839022 318.04 
L 562.839022 10.8 
" clip-path="url(#p7dab3337a1)" style="fill: none; stroke: #b0b0b0; stroke-width: 0.8; stroke-linecap: square"/>
     </g>
     <g id="line2d_32">
      <g>
       <use xlink:href="#mdb16a722f8" x="562.839022" y="318.04" style="stroke: #000000; stroke-width: 0.8"/>
      </g>
     </g>
     <g id="text_28">
      <!-- 200 -->
      <g transform="translate(553.295272 332.638438) scale(0.1 -0.1)">
       <use xlink:href="#DejaVuSans-32"/>
       <use xlink:href="#DejaVuSans-30" x="63.623047"/>
       <use xlink:href="#DejaVuSans-30" x="127.246094"/>
      </g>
     </g>
    </g>
    <g id="xtick_11">
     <g id="line2d_33">
      <path d="M 656.098044 318.04 
L 656.098044 10.8 
" clip-path="url(#p7dab3337a1)" style="fill: none; stroke: #b0b0b0; stroke-width: 0.8; stroke-linecap: square"/>
     </g>
     <g id="line2d_34">
      <g>
       <use xlink:href="#mdb16a722f8" x="656.098044" y="318.04" style="stroke: #000000; stroke-width: 0.8"/>
      </g>
     </g>
     <g id="text_29">
      <!-- 400 -->
      <g transform="translate(646.554294 332.638438) scale(0.1 -0.1)">
       <use xlink:href="#DejaVuSans-34"/>
       <use xlink:href="#DejaVuSans-30" x="63.623047"/>
       <use xlink:href="#DejaVuSans-30" x="127.246094"/>
      </g>
     </g>
    </g>
    <g id="xtick_12">
     <g id="line2d_35">
      <path d="M 749.357066 318.04 
L 749.357066 10.8 
" clip-path="url(#p7dab3337a1)" style="fill: none; stroke: #b0b0b0; stroke-width: 0.8; stroke-linecap: square"/>
     </g>
     <g id="line2d_36">
      <g>
       <use xlink:href="#mdb16a722f8" x="749.357066" y="318.04" style="stroke: #000000; stroke-width: 0.8"/>
      </g>
     </g>
     <g id="text_30">
      <!-- 600 -->
      <g transform="translate(739.813316 332.638438) scale(0.1 -0.1)">
       <use xlink:href="#DejaVuSans-36"/>
       <use xlink:href="#DejaVuSans-30" x="63.623047"/>
       <use xlink:href="#DejaVuSans-30" x="127.246094"/>
      </g>
     </g>
    </g>
    <g id="xtick_13">
     <g id="line2d_37">
      <path d="M 842.616088 318.04 
L 842.616088 10.8 
" clip-path="url(#p7dab3337a1)" style="fill: none; stroke: #b0b0b0; stroke-width: 0.8; stroke-linecap: square"/>
     </g>
     <g id="line2d_38">
      <g>
       <use xlink:href="#mdb16a722f8" x="842.616088" y="318.04" style="stroke: #000000; stroke-width: 0.8"/>
      </g>
     </g>
     <g id="text_31">
      <!-- 800 -->
      <g transform="translate(833.072338 332.638438) scale(0.1 -0.1)">
       <use xlink:href="#DejaVuSans-38"/>
       <use xlink:href="#DejaVuSans-30" x="63.623047"/>
       <use xlink:href="#DejaVuSans-30" x="127.246094"/>
      </g>
     </g>
    </g>
    <g id="xtick_14">
     <g id="line2d_39">
      <path d="M 935.87511 318.04 
L 935.87511 10.8 
" clip-path="url(#p7dab3337a1)" style="fill: none; stroke: #b0b0b0; stroke-width: 0.8; stroke-linecap: square"/>
     </g>
     <g id="line2d_40">
      <g>
       <use xlink:href="#mdb16a722f8" x="935.87511" y="318.04" style="stroke: #000000; stroke-width: 0.8"/>
      </g>
     </g>
     <g id="text_32">
      <!-- 1000 -->
      <g transform="translate(923.15011 332.638438) scale(0.1 -0.1)">
       <use xlink:href="#DejaVuSans-31"/>
       <use xlink:href="#DejaVuSans-30" x="63.623047"/>
       <use xlink:href="#DejaVuSans-30" x="127.246094"/>
       <use xlink:href="#DejaVuSans-30" x="190.869141"/>
      </g>
     </g>
    </g>
    <g id="xtick_15">
     <g id="line2d_41">
      <path d="M 1029.134132 318.04 
L 1029.134132 10.8 
" clip-path="url(#p7dab3337a1)" style="fill: none; stroke: #b0b0b0; stroke-width: 0.8; stroke-linecap: square"/>
     </g>
     <g id="line2d_42">
      <g>
       <use xlink:href="#mdb16a722f8" x="1029.134132" y="318.04" style="stroke: #000000; stroke-width: 0.8"/>
      </g>
     </g>
     <g id="text_33">
      <!-- 1200 -->
      <g transform="translate(1016.409132 332.638438) scale(0.1 -0.1)">
       <use xlink:href="#DejaVuSans-31"/>
       <use xlink:href="#DejaVuSans-32" x="63.623047"/>
       <use xlink:href="#DejaVuSans-30" x="127.246094"/>
       <use xlink:href="#DejaVuSans-30" x="190.869141"/>
      </g>
     </g>
    </g>
    <g id="text_34">
     <!-- Transmitting distance [m] -->
     <g transform="translate(690.855521 346.316563) scale(0.1 -0.1)">
      <defs>
       <path id="DejaVuSans-54" d="M -19 4666 
L 3928 4666 
L 3928 4134 
L 2272 4134 
L 2272 0 
L 1638 0 
L 1638 4134 
L -19 4134 
L -19 4666 
z
" transform="scale(0.015625)"/>
       <path id="DejaVuSans-72" d="M 2631 2963 
Q 2534 3019 2420 3045 
Q 2306 3072 2169 3072 
Q 1681 3072 1420 2755 
Q 1159 2438 1159 1844 
L 1159 0 
L 581 0 
L 581 3500 
L 1159 3500 
L 1159 2956 
Q 1341 3275 1631 3429 
Q 1922 3584 2338 3584 
Q 2397 3584 2469 3576 
Q 2541 3569 2628 3553 
L 2631 2963 
z
" transform="scale(0.015625)"/>
       <path id="DejaVuSans-73" d="M 2834 3397 
L 2834 2853 
Q 2591 2978 2328 3040 
Q 2066 3103 1784 3103 
Q 1356 3103 1142 2972 
Q 928 2841 928 2578 
Q 928 2378 1081 2264 
Q 1234 2150 1697 2047 
L 1894 2003 
Q 2506 1872 2764 1633 
Q 3022 1394 3022 966 
Q 3022 478 2636 193 
Q 2250 -91 1575 -91 
Q 1294 -91 989 -36 
Q 684 19 347 128 
L 347 722 
Q 666 556 975 473 
Q 1284 391 1588 391 
Q 1994 391 2212 530 
Q 2431 669 2431 922 
Q 2431 1156 2273 1281 
Q 2116 1406 1581 1522 
L 1381 1569 
Q 847 1681 609 1914 
Q 372 2147 372 2553 
Q 372 3047 722 3315 
Q 1072 3584 1716 3584 
Q 2034 3584 2315 3537 
Q 2597 3491 2834 3397 
z
" transform="scale(0.015625)"/>
       <path id="DejaVuSans-6d" d="M 3328 2828 
Q 3544 3216 3844 3400 
Q 4144 3584 4550 3584 
Q 5097 3584 5394 3201 
Q 5691 2819 5691 2113 
L 5691 0 
L 5113 0 
L 5113 2094 
Q 5113 2597 4934 2840 
Q 4756 3084 4391 3084 
Q 3944 3084 3684 2787 
Q 3425 2491 3425 1978 
L 3425 0 
L 2847 0 
L 2847 2094 
Q 2847 2600 2669 2842 
Q 2491 3084 2119 3084 
Q 1678 3084 1418 2786 
Q 1159 2488 1159 1978 
L 1159 0 
L 581 0 
L 581 3500 
L 1159 3500 
L 1159 2956 
Q 1356 3278 1631 3431 
Q 1906 3584 2284 3584 
Q 2666 3584 2933 3390 
Q 3200 3197 3328 2828 
z
" transform="scale(0.015625)"/>
       <path id="DejaVuSans-63" d="M 3122 3366 
L 3122 2828 
Q 2878 2963 2633 3030 
Q 2388 3097 2138 3097 
Q 1578 3097 1268 2742 
Q 959 2388 959 1747 
Q 959 1106 1268 751 
Q 1578 397 2138 397 
Q 2388 397 2633 464 
Q 2878 531 3122 666 
L 3122 134 
Q 2881 22 2623 -34 
Q 2366 -91 2075 -91 
Q 1284 -91 818 406 
Q 353 903 353 1747 
Q 353 2603 823 3093 
Q 1294 3584 2113 3584 
Q 2378 3584 2631 3529 
Q 2884 3475 3122 3366 
z
" transform="scale(0.015625)"/>
      </defs>
      <use xlink:href="#DejaVuSans-54"/>
      <use xlink:href="#DejaVuSans-72" x="46.333984"/>
      <use xlink:href="#DejaVuSans-61" x="87.447266"/>
      <use xlink:href="#DejaVuSans-6e" x="148.726562"/>
      <use xlink:href="#DejaVuSans-73" x="212.105469"/>
      <use xlink:href="#DejaVuSans-6d" x="264.205078"/>
      <use xlink:href="#DejaVuSans-69" x="361.617188"/>
      <use xlink:href="#DejaVuSans-74" x="389.400391"/>
      <use xlink:href="#DejaVuSans-74" x="428.609375"/>
      <use xlink:href="#DejaVuSans-69" x="467.818359"/>
      <use xlink:href="#DejaVuSans-6e" x="495.601562"/>
      <use xlink:href="#DejaVuSans-67" x="558.980469"/>
      <use xlink:href="#DejaVuSans-20" x="622.457031"/>
      <use xlink:href="#DejaVuSans-64" x="654.244141"/>
      <use xlink:href="#DejaVuSans-69" x="717.720703"/>
      <use xlink:href="#DejaVuSans-73" x="745.503906"/>
      <use xlink:href="#DejaVuSans-74" x="797.603516"/>
      <use xlink:href="#DejaVuSans-61" x="836.8125"/>
      <use xlink:href="#DejaVuSans-6e" x="898.091797"/>
      <use xlink:href="#DejaVuSans-63" x="961.470703"/>
      <use xlink:href="#DejaVuSans-65" x="1016.451172"/>
      <use xlink:href="#DejaVuSans-20" x="1077.974609"/>
      <use xlink:href="#DejaVuSans-5b" x="1109.761719"/>
      <use xlink:href="#DejaVuSans-6d" x="1148.775391"/>
      <use xlink:href="#DejaVuSans-5d" x="1246.1875"/>
     </g>
    </g>
   </g>
   <g id="matplotlib.axis_4">
    <g id="ytick_7">
     <g id="line2d_43">
      <path d="M 441.026667 310.099703 
L 1069.2 310.099703 
" clip-path="url(#p7dab3337a1)" style="fill: none; stroke: #b0b0b0; stroke-width: 0.8; stroke-linecap: square"/>
     </g>
     <g id="line2d_44">
      <g>
       <use xlink:href="#me4434f902f" x="441.026667" y="310.099703" style="stroke: #000000; stroke-width: 0.8"/>
      </g>
     </g>
     <g id="text_35">
      <!-- 287.5 -->
      <g transform="translate(405.398542 313.898922) scale(0.1 -0.1)">
       <use xlink:href="#DejaVuSans-32"/>
       <use xlink:href="#DejaVuSans-38" x="63.623047"/>
       <use xlink:href="#DejaVuSans-37" x="127.246094"/>
       <use xlink:href="#DejaVuSans-2e" x="190.869141"/>
       <use xlink:href="#DejaVuSans-35" x="222.65625"/>
      </g>
     </g>
    </g>
    <g id="ytick_8">
     <g id="line2d_45">
      <path d="M 441.026667 274.23567 
L 1069.2 274.23567 
" clip-path="url(#p7dab3337a1)" style="fill: none; stroke: #b0b0b0; stroke-width: 0.8; stroke-linecap: square"/>
     </g>
     <g id="line2d_46">
      <g>
       <use xlink:href="#me4434f902f" x="441.026667" y="274.23567" style="stroke: #000000; stroke-width: 0.8"/>
      </g>
     </g>
     <g id="text_36">
      <!-- 290.0 -->
      <g transform="translate(405.398542 278.034889) scale(0.1 -0.1)">
       <use xlink:href="#DejaVuSans-32"/>
       <use xlink:href="#DejaVuSans-39" x="63.623047"/>
       <use xlink:href="#DejaVuSans-30" x="127.246094"/>
       <use xlink:href="#DejaVuSans-2e" x="190.869141"/>
       <use xlink:href="#DejaVuSans-30" x="222.65625"/>
      </g>
     </g>
    </g>
    <g id="ytick_9">
     <g id="line2d_47">
      <path d="M 441.026667 238.371637 
L 1069.2 238.371637 
" clip-path="url(#p7dab3337a1)" style="fill: none; stroke: #b0b0b0; stroke-width: 0.8; stroke-linecap: square"/>
     </g>
     <g id="line2d_48">
      <g>
       <use xlink:href="#me4434f902f" x="441.026667" y="238.371637" style="stroke: #000000; stroke-width: 0.8"/>
      </g>
     </g>
     <g id="text_37">
      <!-- 292.5 -->
      <g transform="translate(405.398542 242.170855) scale(0.1 -0.1)">
       <use xlink:href="#DejaVuSans-32"/>
       <use xlink:href="#DejaVuSans-39" x="63.623047"/>
       <use xlink:href="#DejaVuSans-32" x="127.246094"/>
       <use xlink:href="#DejaVuSans-2e" x="190.869141"/>
       <use xlink:href="#DejaVuSans-35" x="222.65625"/>
      </g>
     </g>
    </g>
    <g id="ytick_10">
     <g id="line2d_49">
      <path d="M 441.026667 202.507603 
L 1069.2 202.507603 
" clip-path="url(#p7dab3337a1)" style="fill: none; stroke: #b0b0b0; stroke-width: 0.8; stroke-linecap: square"/>
     </g>
     <g id="line2d_50">
      <g>
       <use xlink:href="#me4434f902f" x="441.026667" y="202.507603" style="stroke: #000000; stroke-width: 0.8"/>
      </g>
     </g>
     <g id="text_38">
      <!-- 295.0 -->
      <g transform="translate(405.398542 206.306822) scale(0.1 -0.1)">
       <use xlink:href="#DejaVuSans-32"/>
       <use xlink:href="#DejaVuSans-39" x="63.623047"/>
       <use xlink:href="#DejaVuSans-35" x="127.246094"/>
       <use xlink:href="#DejaVuSans-2e" x="190.869141"/>
       <use xlink:href="#DejaVuSans-30" x="222.65625"/>
      </g>
     </g>
    </g>
    <g id="ytick_11">
     <g id="line2d_51">
      <path d="M 441.026667 166.64357 
L 1069.2 166.64357 
" clip-path="url(#p7dab3337a1)" style="fill: none; stroke: #b0b0b0; stroke-width: 0.8; stroke-linecap: square"/>
     </g>
     <g id="line2d_52">
      <g>
       <use xlink:href="#me4434f902f" x="441.026667" y="166.64357" style="stroke: #000000; stroke-width: 0.8"/>
      </g>
     </g>
     <g id="text_39">
      <!-- 297.5 -->
      <g transform="translate(405.398542 170.442789) scale(0.1 -0.1)">
       <use xlink:href="#DejaVuSans-32"/>
       <use xlink:href="#DejaVuSans-39" x="63.623047"/>
       <use xlink:href="#DejaVuSans-37" x="127.246094"/>
       <use xlink:href="#DejaVuSans-2e" x="190.869141"/>
       <use xlink:href="#DejaVuSans-35" x="222.65625"/>
      </g>
     </g>
    </g>
    <g id="ytick_12">
     <g id="line2d_53">
      <path d="M 441.026667 130.779537 
L 1069.2 130.779537 
" clip-path="url(#p7dab3337a1)" style="fill: none; stroke: #b0b0b0; stroke-width: 0.8; stroke-linecap: square"/>
     </g>
     <g id="line2d_54">
      <g>
       <use xlink:href="#me4434f902f" x="441.026667" y="130.779537" style="stroke: #000000; stroke-width: 0.8"/>
      </g>
     </g>
     <g id="text_40">
      <!-- 300.0 -->
      <g transform="translate(405.398542 134.578756) scale(0.1 -0.1)">
       <use xlink:href="#DejaVuSans-33"/>
       <use xlink:href="#DejaVuSans-30" x="63.623047"/>
       <use xlink:href="#DejaVuSans-30" x="127.246094"/>
       <use xlink:href="#DejaVuSans-2e" x="190.869141"/>
       <use xlink:href="#DejaVuSans-30" x="222.65625"/>
      </g>
     </g>
    </g>
    <g id="ytick_13">
     <g id="line2d_55">
      <path d="M 441.026667 94.915504 
L 1069.2 94.915504 
" clip-path="url(#p7dab3337a1)" style="fill: none; stroke: #b0b0b0; stroke-width: 0.8; stroke-linecap: square"/>
     </g>
     <g id="line2d_56">
      <g>
       <use xlink:href="#me4434f902f" x="441.026667" y="94.915504" style="stroke: #000000; stroke-width: 0.8"/>
      </g>
     </g>
     <g id="text_41">
      <!-- 302.5 -->
      <g transform="translate(405.398542 98.714722) scale(0.1 -0.1)">
       <use xlink:href="#DejaVuSans-33"/>
       <use xlink:href="#DejaVuSans-30" x="63.623047"/>
       <use xlink:href="#DejaVuSans-32" x="127.246094"/>
       <use xlink:href="#DejaVuSans-2e" x="190.869141"/>
       <use xlink:href="#DejaVuSans-35" x="222.65625"/>
      </g>
     </g>
    </g>
    <g id="ytick_14">
     <g id="line2d_57">
      <path d="M 441.026667 59.05147 
L 1069.2 59.05147 
" clip-path="url(#p7dab3337a1)" style="fill: none; stroke: #b0b0b0; stroke-width: 0.8; stroke-linecap: square"/>
     </g>
     <g id="line2d_58">
      <g>
       <use xlink:href="#me4434f902f" x="441.026667" y="59.05147" style="stroke: #000000; stroke-width: 0.8"/>
      </g>
     </g>
     <g id="text_42">
      <!-- 305.0 -->
      <g transform="translate(405.398542 62.850689) scale(0.1 -0.1)">
       <use xlink:href="#DejaVuSans-33"/>
       <use xlink:href="#DejaVuSans-30" x="63.623047"/>
       <use xlink:href="#DejaVuSans-35" x="127.246094"/>
       <use xlink:href="#DejaVuSans-2e" x="190.869141"/>
       <use xlink:href="#DejaVuSans-30" x="222.65625"/>
      </g>
     </g>
    </g>
    <g id="ytick_15">
     <g id="line2d_59">
      <path d="M 441.026667 23.187437 
L 1069.2 23.187437 
" clip-path="url(#p7dab3337a1)" style="fill: none; stroke: #b0b0b0; stroke-width: 0.8; stroke-linecap: square"/>
     </g>
     <g id="line2d_60">
      <g>
       <use xlink:href="#me4434f902f" x="441.026667" y="23.187437" style="stroke: #000000; stroke-width: 0.8"/>
      </g>
     </g>
     <g id="text_43">
      <!-- 307.5 -->
      <g transform="translate(405.398542 26.986656) scale(0.1 -0.1)">
       <use xlink:href="#DejaVuSans-33"/>
       <use xlink:href="#DejaVuSans-30" x="63.623047"/>
       <use xlink:href="#DejaVuSans-37" x="127.246094"/>
       <use xlink:href="#DejaVuSans-2e" x="190.869141"/>
       <use xlink:href="#DejaVuSans-35" x="222.65625"/>
      </g>
     </g>
    </g>
    <g id="text_44">
     <!-- Elevation [m] -->
     <g transform="translate(399.318854 198.006719) rotate(-90) scale(0.1 -0.1)">
      <defs>
       <path id="DejaVuSans-45" d="M 628 4666 
L 3578 4666 
L 3578 4134 
L 1259 4134 
L 1259 2753 
L 3481 2753 
L 3481 2222 
L 1259 2222 
L 1259 531 
L 3634 531 
L 3634 0 
L 628 0 
L 628 4666 
z
" transform="scale(0.015625)"/>
       <path id="DejaVuSans-6c" d="M 603 4863 
L 1178 4863 
L 1178 0 
L 603 0 
L 603 4863 
z
" transform="scale(0.015625)"/>
       <path id="DejaVuSans-76" d="M 191 3500 
L 800 3500 
L 1894 563 
L 2988 3500 
L 3597 3500 
L 2284 0 
L 1503 0 
L 191 3500 
z
" transform="scale(0.015625)"/>
      </defs>
      <use xlink:href="#DejaVuSans-45"/>
      <use xlink:href="#DejaVuSans-6c" x="63.183594"/>
      <use xlink:href="#DejaVuSans-65" x="90.966797"/>
      <use xlink:href="#DejaVuSans-76" x="152.490234"/>
      <use xlink:href="#DejaVuSans-61" x="211.669922"/>
      <use xlink:href="#DejaVuSans-74" x="272.949219"/>
      <use xlink:href="#DejaVuSans-69" x="312.158203"/>
      <use xlink:href="#DejaVuSans-6f" x="339.941406"/>
      <use xlink:href="#DejaVuSans-6e" x="401.123047"/>
      <use xlink:href="#DejaVuSans-20" x="464.501953"/>
      <use xlink:href="#DejaVuSans-5b" x="496.289062"/>
      <use xlink:href="#DejaVuSans-6d" x="535.302734"/>
      <use xlink:href="#DejaVuSans-5d" x="632.714844"/>
     </g>
    </g>
   </g>
   <g id="line2d_61">
    <path d="M 469.58 39.111068 
L 472.258529 41.406366 
L 474.937058 43.701664 
L 477.615587 45.566594 
L 480.294116 47.861892 
L 482.972645 50.300646 
L 485.651174 52.882857 
L 488.329702 55.321611 
L 491.008231 57.473453 
L 493.68676 59.338383 
L 496.365289 61.059856 
L 499.043818 62.350961 
L 501.722347 63.642067 
L 504.400876 64.502803 
" clip-path="url(#p7dab3337a1)" style="fill: none; stroke: #d95f02; stroke-width: 1.5; stroke-linecap: square"/>
   </g>
   <g id="line2d_62">
    <path d="M 504.400876 318.04 
L 504.400876 10.8 
" clip-path="url(#p7dab3337a1)" style="fill: none; stroke-dasharray: 5.55,2.4; stroke-dashoffset: 0; stroke: #808080; stroke-opacity: 0.5; stroke-width: 1.5"/>
   </g>
   <g id="line2d_63">
    <path d="M 469.58 39.111068 
L 471.989881 41.119454 
L 474.399763 43.271296 
L 476.809644 44.992769 
L 479.219526 47.001155 
L 481.629407 49.009541 
L 484.039288 51.448295 
L 486.44917 53.743593 
L 488.859051 55.751979 
L 491.268933 57.760365 
L 493.678814 59.338383 
L 496.088695 60.9164 
L 498.498577 62.064049 
L 500.908458 63.355154 
L 503.318339 64.072435 
L 505.728221 64.789716 
L 508.138102 65.650452 
L 510.547984 66.798102 
L 512.957865 68.376119 
L 515.367746 69.81068 
L 517.777628 71.388698 
L 520.187509 72.966715 
L 522.597391 74.401277 
L 525.007272 76.12275 
L 527.417153 78.274592 
L 529.827035 81.000259 
L 532.236916 83.582469 
L 534.646798 86.021223 
L 537.056679 88.029609 
L 539.46656 89.607627 
L 541.876442 91.3291 
" clip-path="url(#p7dab3337a1)" style="fill: none; stroke: #7570b3; stroke-width: 1.5; stroke-linecap: square"/>
   </g>
   <g id="line2d_64">
    <path d="M 541.876442 318.04 
L 541.876442 10.8 
" clip-path="url(#p7dab3337a1)" style="fill: none; stroke-dasharray: 5.55,2.4; stroke-dashoffset: 0; stroke: #808080; stroke-opacity: 0.5; stroke-width: 1.5"/>
   </g>
   <g id="line2d_65">
    <path d="M 469.58 39.111068 
L 471.954914 41.119454 
L 474.329827 43.271296 
L 476.704741 44.992769 
L 479.079654 47.001155 
L 481.454568 49.009541 
L 483.829481 51.304839 
L 486.204395 53.456681 
L 488.579308 55.608523 
L 490.954222 57.616909 
L 493.329135 59.194926 
L 495.704049 60.772944 
L 498.078962 61.920593 
L 500.453876 63.211698 
L 502.82879 63.928979 
L 505.203703 64.64626 
L 507.578617 65.220084 
L 509.95353 66.367733 
L 512.328444 67.802294 
L 514.703357 69.236856 
L 517.078271 70.814873 
L 519.453184 72.392891 
L 521.828098 73.827452 
L 524.203011 75.118557 
L 526.577925 77.126943 
L 528.952839 79.709153 
L 531.327752 82.43482 
L 533.702666 85.160487 
L 536.077579 87.312329 
L 538.452493 89.033802 
L 540.827406 90.61182 
L 543.20232 92.333293 
L 545.577233 93.767855 
L 547.952147 94.915504 
L 550.32706 96.063153 
L 552.701974 96.923889 
L 555.076887 98.214995 
L 557.451801 99.362644 
L 559.826715 100.510293 
L 562.201628 101.084117 
L 564.576542 102.08831 
L 566.951455 103.092503 
L 569.326369 104.096696 
L 571.701282 105.244345 
L 574.076196 105.961626 
L 576.451109 106.965819 
L 578.826023 107.683099 
L 581.200936 108.40038 
L 583.57585 108.687292 
L 585.950763 109.404573 
L 588.325677 109.978398 
L 590.700591 110.408766 
L 593.075504 111.126047 
L 595.450418 111.126047 
L 597.825331 111.699871 
L 600.200245 111.556415 
L 602.575158 112.13024 
L 604.950072 112.13024 
L 607.324985 112.417152 
L 609.699899 113.708257 
L 612.074812 114.855906 
L 614.449726 115.860099 
L 616.82464 114.425538 
" clip-path="url(#p7dab3337a1)" style="fill: none; stroke: #e7298a; stroke-width: 1.5; stroke-linecap: square"/>
   </g>
   <g id="line2d_66">
    <path d="M 616.82464 318.04 
L 616.82464 10.8 
" clip-path="url(#p7dab3337a1)" style="fill: none; stroke-dasharray: 5.55,2.4; stroke-dashoffset: 0; stroke: #808080; stroke-opacity: 0.5; stroke-width: 1.5"/>
   </g>
   <g id="line2d_67">
    <path d="M 469.58 39.111068 
L 471.958759 41.26291 
L 474.337518 43.271296 
L 476.716276 44.992769 
L 479.095035 47.001155 
L 481.473794 49.009541 
L 483.852553 51.304839 
L 486.231311 53.600137 
L 488.61007 55.751979 
L 490.988829 57.760365 
L 493.367588 59.194926 
L 495.746346 60.9164 
L 498.125105 61.920593 
L 500.503864 63.211698 
L 502.882623 63.785523 
L 505.261381 64.502803 
L 507.64014 65.076628 
L 510.018899 66.224277 
L 512.397658 67.658838 
L 514.776417 69.0934 
L 517.155175 70.671417 
L 519.533934 72.249435 
L 521.912693 73.683996 
L 524.291452 75.118557 
L 526.67021 77.126943 
L 529.048969 79.709153 
L 531.427728 82.578276 
L 533.806487 85.160487 
L 536.185245 87.455785 
L 538.564004 89.177258 
L 540.942763 90.898732 
L 543.321522 92.620205 
L 545.70028 94.198223 
L 548.079039 95.489328 
L 550.457798 96.636977 
L 552.836557 97.784626 
L 555.215315 98.932275 
L 557.594074 100.366837 
L 559.972833 101.227573 
L 562.351592 102.08831 
L 564.730351 102.949047 
L 567.109109 103.95324 
L 569.487868 105.100889 
L 571.866627 106.105082 
L 574.245386 107.109275 
L 576.624144 108.113468 
L 579.002903 108.974205 
L 581.381662 109.691485 
L 583.760421 110.26531 
L 586.139179 110.839134 
L 588.517938 111.412959 
L 590.896697 111.986783 
L 593.275456 112.417152 
L 595.654214 112.84752 
L 598.032973 112.990976 
L 600.411732 113.277889 
L 602.790491 113.421345 
L 605.16925 113.564801 
L 607.548008 114.138625 
L 609.926767 115.142818 
L 612.305526 117.29466 
L 614.684285 118.442309 
L 617.063043 117.007748 
L 619.441802 116.147011 
L 621.820561 115.429731 
L 624.19932 115.142818 
L 626.578078 114.568994 
L 628.956837 114.425538 
L 631.335596 114.282082 
L 633.714355 114.568994 
L 636.093113 114.425538 
L 638.471872 114.568994 
L 640.850631 114.425538 
L 643.22939 114.568994 
L 645.608149 114.999362 
L 647.986907 115.142818 
L 650.365666 115.716643 
L 652.744425 115.860099 
L 655.123184 116.433924 
L 657.501942 116.57738 
L 659.880701 117.007748 
L 662.25946 117.29466 
" clip-path="url(#p7dab3337a1)" style="fill: none; stroke: #66a61e; stroke-width: 1.5; stroke-linecap: square"/>
   </g>
   <g id="line2d_68">
    <path d="M 662.25946 318.04 
L 662.25946 10.8 
" clip-path="url(#p7dab3337a1)" style="fill: none; stroke-dasharray: 5.55,2.4; stroke-dashoffset: 0; stroke: #808080; stroke-opacity: 0.5; stroke-width: 1.5"/>
   </g>
   <g id="line2d_69">
    <path d="M 469.58 39.111068 
L 471.936275 41.26291 
L 474.29255 43.271296 
L 476.648825 44.992769 
L 479.0051 47.001155 
L 481.361375 49.009541 
L 483.71765 51.304839 
L 486.073925 53.456681 
L 488.430199 55.608523 
L 490.786474 57.616909 
L 493.142749 59.194926 
L 495.499024 60.772944 
L 497.855299 61.920593 
L 500.211574 63.068242 
L 502.567849 63.785523 
L 504.924124 64.359347 
L 507.280399 64.933172 
L 509.636674 65.793909 
L 511.992949 67.22847 
L 514.349224 68.663031 
L 516.705499 70.241049 
L 519.061774 71.819066 
L 521.418048 73.253627 
L 523.774323 74.688189 
L 526.130598 76.409662 
L 528.486873 78.991873 
L 530.843148 81.717539 
L 533.199423 84.586662 
L 535.555698 87.025416 
L 537.911973 88.74689 
L 540.268248 90.468363 
L 542.624523 92.333293 
L 544.980798 93.911311 
L 547.337073 95.632784 
L 549.693348 96.923889 
L 552.049623 98.214995 
L 554.405897 99.362644 
L 556.762172 100.940661 
L 559.118447 101.944854 
L 561.474722 102.805591 
L 563.830997 103.522872 
L 566.187272 104.527064 
L 568.543547 105.674714 
L 570.899822 106.678906 
L 573.256097 107.683099 
L 575.612372 108.830748 
L 577.968647 109.978398 
L 580.324922 110.839134 
L 582.681197 111.556415 
L 585.037472 112.13024 
L 587.393746 112.84752 
L 589.750021 113.277889 
L 592.106296 113.995169 
L 594.462571 114.282082 
L 596.818846 114.568994 
L 599.175121 114.999362 
L 601.531396 114.999362 
L 603.887671 115.429731 
L 606.243946 115.716643 
L 608.600221 116.720836 
L 610.956496 118.585766 
L 613.312771 120.737608 
L 615.669046 120.307239 
L 618.025321 119.15959 
L 620.381595 118.298853 
L 622.73787 117.581573 
L 625.094145 117.29466 
L 627.45042 117.007748 
L 629.806695 116.864292 
L 632.16297 117.007748 
L 634.519245 117.29466 
L 636.87552 117.581573 
L 639.231795 117.581573 
L 641.58807 117.725029 
L 643.944345 117.725029 
L 646.30062 117.581573 
L 648.656895 117.725029 
L 651.01317 117.725029 
L 653.369444 117.868485 
L 655.725719 118.011941 
L 658.081994 118.298853 
L 660.438269 118.585766 
L 662.794544 118.872678 
L 665.150819 119.303046 
L 667.507094 119.446502 
L 669.863369 119.733415 
L 672.219644 119.446502 
L 674.575919 119.589958 
L 676.932194 119.446502 
L 679.288469 119.303046 
L 681.644744 119.15959 
L 684.001019 118.729222 
L 686.357293 118.298853 
L 688.713568 117.581573 
L 691.069843 117.29466 
L 693.426118 116.290467 
L 695.782393 115.573187 
L 698.138668 114.71245 
L 700.494943 113.708257 
L 702.851218 112.84752 
L 705.207493 111.699871 
L 707.563768 110.98259 
L 709.920043 109.691485 
L 712.276318 109.404573 
L 714.632593 108.40038 
L 716.988868 108.256924 
L 719.345142 107.970012 
L 721.701417 108.113468 
L 724.057692 108.40038 
" clip-path="url(#p7dab3337a1)" style="fill: none; stroke: #e6ab02; stroke-width: 1.5; stroke-linecap: square"/>
   </g>
   <g id="line2d_70">
    <path d="M 724.057692 318.04 
L 724.057692 10.8 
" clip-path="url(#p7dab3337a1)" style="fill: none; stroke-dasharray: 5.55,2.4; stroke-dashoffset: 0; stroke: #808080; stroke-opacity: 0.5; stroke-width: 1.5"/>
   </g>
   <g id="line2d_71">
    <path d="M 469.58 39.111068 
L 471.936894 41.26291 
L 474.293789 43.271296 
L 476.650683 44.992769 
L 479.007578 47.001155 
L 481.364472 49.009541 
L 483.721367 51.304839 
L 486.078261 53.456681 
L 488.435156 55.608523 
L 490.79205 57.616909 
L 493.148945 59.194926 
L 495.505839 60.772944 
L 497.862734 61.920593 
L 500.219628 63.068242 
L 502.576523 63.642067 
L 504.933417 64.359347 
L 507.290312 64.933172 
L 509.647206 65.793909 
L 512.004101 67.22847 
L 514.360995 68.663031 
L 516.71789 70.241049 
L 519.074784 71.819066 
L 521.431679 73.253627 
L 523.788573 74.688189 
L 526.145468 76.266206 
L 528.502362 78.991873 
L 530.859257 81.717539 
L 533.216151 84.586662 
L 535.573046 87.025416 
L 537.92994 88.890346 
L 540.286834 90.468363 
L 542.643729 92.333293 
L 545.000623 94.054767 
L 547.357518 95.77624 
L 549.714412 97.067346 
L 552.071307 98.358451 
L 554.428201 99.649556 
L 556.785096 101.227573 
L 559.14199 102.375222 
L 561.498885 103.235959 
L 563.855779 103.809784 
L 566.212674 104.813977 
L 568.569568 105.961626 
L 570.926463 107.109275 
L 573.283357 108.113468 
L 575.640252 109.117661 
L 577.997146 110.26531 
L 580.354041 111.126047 
L 582.710935 111.986783 
L 585.06783 112.560608 
L 587.424724 113.277889 
L 589.781619 113.851713 
L 592.138513 114.425538 
L 594.495408 114.855906 
L 596.852302 115.142818 
L 599.209197 115.429731 
L 601.566091 115.716643 
L 603.922985 116.003555 
L 606.27988 116.433924 
L 608.636774 117.29466 
L 610.993669 119.303046 
L 613.350563 121.311432 
L 615.707458 121.02452 
L 618.064352 119.733415 
L 620.421247 118.872678 
L 622.778141 118.298853 
L 625.135036 118.011941 
L 627.49193 117.725029 
L 629.848825 117.725029 
L 632.205719 117.725029 
L 634.562614 118.011941 
L 636.919508 118.442309 
L 639.276403 118.585766 
L 641.633297 118.729222 
L 643.990192 118.729222 
L 646.347086 118.585766 
L 648.703981 118.442309 
L 651.060875 118.442309 
L 653.41777 118.585766 
L 655.774664 118.729222 
L 658.131559 118.872678 
L 660.488453 119.15959 
L 662.845348 119.446502 
L 665.202242 120.020327 
L 667.559137 120.020327 
L 669.916031 120.307239 
L 672.272925 120.163783 
L 674.62982 120.163783 
L 676.986714 120.020327 
L 679.343609 119.876871 
L 681.700503 119.589958 
L 684.057398 119.15959 
L 686.414292 118.729222 
L 688.771187 118.155397 
L 691.128081 117.581573 
L 693.484976 116.57738 
L 695.84187 115.716643 
L 698.198765 114.71245 
L 700.555659 113.851713 
L 702.912554 112.990976 
L 705.269448 111.986783 
L 707.626343 111.126047 
L 709.983237 110.121854 
L 712.340132 109.548029 
L 714.697026 108.830748 
L 717.053921 108.40038 
L 719.410815 108.113468 
L 721.76771 108.113468 
L 724.124604 108.40038 
L 726.481499 109.117661 
L 728.838393 110.121854 
L 731.195288 111.556415 
L 733.552182 113.134432 
L 735.909076 114.855906 
L 738.265971 116.433924 
L 740.622865 117.868485 
L 742.97976 119.15959 
L 745.336654 120.307239 
L 747.693549 121.598344 
L 750.050443 122.602537 
L 752.407338 123.750186 
L 754.764232 124.467467 
L 757.121127 125.47166 
L 759.478021 126.332397 
L 761.834916 127.480046 
" clip-path="url(#p7dab3337a1)" style="fill: none; stroke: #a6761d; stroke-width: 1.5; stroke-linecap: square"/>
   </g>
   <g id="line2d_72">
    <path d="M 761.834916 318.04 
L 761.834916 10.8 
" clip-path="url(#p7dab3337a1)" style="fill: none; stroke-dasharray: 5.55,2.4; stroke-dashoffset: 0; stroke: #808080; stroke-opacity: 0.5; stroke-width: 1.5"/>
   </g>
   <g id="line2d_73">
    <path d="M 469.58 39.111068 
L 474.293602 43.558208 
L 476.650403 45.279682 
L 483.720806 51.304839 
L 488.434408 55.751979 
L 490.791209 57.616909 
L 493.14801 59.194926 
L 495.504811 60.486032 
L 497.861612 61.633681 
L 502.575214 63.068242 
L 507.288816 63.928979 
L 509.645617 64.64626 
L 512.002418 65.650452 
L 514.359219 66.941558 
L 516.71602 68.519575 
L 519.072821 70.384505 
L 521.429622 72.105978 
L 523.786423 73.683996 
L 526.143224 75.692382 
L 528.500025 78.274592 
L 533.213627 85.303943 
L 535.570428 88.173065 
L 537.927229 90.468363 
L 540.28403 92.333293 
L 542.640831 94.341679 
L 547.354433 99.362644 
L 556.781636 107.252731 
L 559.138437 108.543836 
L 563.852039 109.978398 
L 566.20884 110.98259 
L 568.565641 112.13024 
L 570.922442 113.134432 
L 573.279243 113.564801 
L 575.636044 114.425538 
L 577.992845 115.716643 
L 580.349646 116.720836 
L 582.706447 117.868485 
L 585.063248 119.15959 
L 587.420049 120.020327 
L 589.77685 120.737608 
L 594.490452 121.885257 
L 596.847253 122.602537 
L 599.204054 123.60673 
L 601.560855 124.324011 
L 603.917656 124.754379 
L 606.274457 125.328204 
L 608.631258 126.188941 
L 610.988059 128.484239 
L 613.34486 131.353361 
L 615.701661 131.209905 
L 618.058462 129.9188 
L 620.415263 128.484239 
L 622.772064 127.623502 
L 625.128865 127.33659 
L 627.485666 127.480046 
L 629.842467 127.049677 
L 632.199268 126.475853 
L 634.556069 126.762765 
L 636.91287 127.480046 
L 639.269671 128.340783 
L 641.626472 128.771151 
L 643.983273 128.484239 
L 646.340074 127.623502 
L 648.696875 126.906221 
L 651.053676 126.332397 
L 653.410477 126.332397 
L 655.767278 126.619309 
L 658.124079 127.480046 
L 665.194482 130.922993 
L 667.551283 131.927186 
L 669.908084 132.787923 
L 672.264885 133.505203 
L 674.621686 133.792116 
L 676.978487 133.648659 
L 681.692089 133.074835 
L 684.04889 132.644467 
L 686.405691 132.070642 
L 688.762492 131.353361 
L 691.119293 130.349168 
L 693.476094 129.058063 
L 695.832895 127.910414 
L 698.189696 126.619309 
L 700.546497 125.615116 
L 702.903298 124.754379 
L 707.6169 123.60673 
L 709.973701 123.319818 
L 714.687303 123.319818 
L 719.400905 123.893642 
L 721.757706 124.324011 
L 724.114507 125.041291 
L 735.898511 130.062256 
L 738.255312 131.209905 
L 740.612113 132.644467 
L 742.968914 134.36594 
L 745.325715 135.943958 
L 747.682516 137.665431 
L 750.039317 138.81308 
L 752.396118 140.104185 
L 757.10972 142.112571 
L 759.466521 142.829852 
L 761.823322 143.690589 
L 766.536924 145.12515 
L 768.893725 145.985887 
L 773.607327 148.281185 
L 775.964128 149.715746 
L 780.67773 152.297957 
L 783.034531 153.445606 
L 792.461735 157.462378 
L 801.888939 162.052974 
L 804.24574 163.344079 
L 806.602541 164.491728 
L 811.316143 166.500114 
L 818.386546 168.221588 
L 820.743347 169.082324 
L 823.100148 170.37343 
L 825.456949 171.951447 
L 830.170551 176.111675 
L 834.884153 180.415359 
L 841.954556 186.010148 
L 846.668158 189.453095 
L 849.024959 190.7442 
L 851.38176 191.748393 
L 853.738561 192.322218 
L 863.165765 193.469867 
L 865.522566 193.613323 
L 867.879367 193.900235 
L 870.236168 194.47406 
L 870.236168 194.47406 
" clip-path="url(#p7dab3337a1)" style="fill: none; stroke: #666666; stroke-width: 1.5; stroke-linecap: square"/>
   </g>
   <g id="line2d_74">
    <path d="M 870.236168 318.04 
L 870.236168 10.8 
" clip-path="url(#p7dab3337a1)" style="fill: none; stroke-dasharray: 5.55,2.4; stroke-dashoffset: 0; stroke: #808080; stroke-opacity: 0.5; stroke-width: 1.5"/>
   </g>
   <g id="line2d_75">
    <path d="M 469.58 39.111068 
L 474.26833 43.701664 
L 476.612494 45.423138 
L 481.300824 49.152997 
L 490.677483 57.186541 
L 493.021648 58.621102 
L 495.365813 59.768751 
L 497.709978 60.772944 
L 500.054143 61.633681 
L 502.398307 62.207505 
L 507.086637 63.068242 
L 509.430802 63.642067 
L 511.774967 64.502803 
L 514.119131 65.506996 
L 516.463296 67.085014 
L 518.807461 68.806487 
L 521.151626 70.814873 
L 523.495791 72.536347 
L 525.839955 74.688189 
L 528.18412 77.557311 
L 532.87245 84.730118 
L 535.216615 88.029609 
L 537.56078 90.755276 
L 544.593274 97.210802 
L 549.281604 101.944854 
L 551.625768 103.809784 
L 556.314098 107.826556 
L 558.658263 109.261117 
L 563.346592 110.695678 
L 565.690757 111.556415 
L 568.034922 112.84752 
L 570.379087 113.708257 
L 572.723252 114.425538 
L 575.067417 115.286274 
L 577.411581 116.433924 
L 579.755746 117.725029 
L 582.099911 119.15959 
L 586.788241 121.7418 
L 589.132405 122.315625 
L 591.47657 123.032906 
L 596.1649 124.180555 
L 598.509065 125.184748 
L 603.197394 127.766958 
L 605.541559 128.771151 
L 607.885724 129.9188 
L 610.229889 131.496817 
L 612.574054 133.935572 
L 614.918218 134.796309 
L 617.262383 134.079028 
L 619.606548 132.644467 
L 621.950713 131.78373 
L 624.294878 131.353361 
L 626.639042 131.640274 
L 628.983207 131.640274 
L 631.327372 131.066449 
L 633.671537 130.062256 
L 636.015702 129.9188 
L 638.359866 130.205712 
L 640.704031 130.636081 
L 643.048196 130.922993 
L 645.392361 130.779537 
L 647.736526 130.779537 
L 650.080691 130.922993 
L 652.424855 131.353361 
L 654.76902 132.070642 
L 657.113185 132.931379 
L 659.45735 133.935572 
L 661.801515 135.083221 
L 664.145679 136.374326 
L 668.834009 138.669624 
L 671.178174 139.673817 
L 673.522339 140.821466 
L 675.866503 141.538747 
L 678.210668 142.112571 
L 680.554833 142.399484 
L 682.898998 142.54294 
L 685.243163 142.399484 
L 687.587328 142.112571 
L 689.931492 141.682203 
L 692.275657 140.964922 
L 694.619822 140.391098 
L 696.963987 139.530361 
L 699.308152 138.81308 
L 703.996481 137.665431 
L 708.684811 136.804694 
L 713.37314 136.517782 
L 715.717305 136.517782 
L 720.405635 136.804694 
L 727.438129 136.804694 
L 729.782294 136.661238 
L 732.126459 136.661238 
L 734.470624 136.517782 
L 736.814789 136.517782 
L 739.158953 136.804694 
L 741.503118 137.378519 
L 743.847283 138.0958 
L 748.535613 140.104185 
L 755.568107 142.686396 
L 757.912272 143.690589 
L 764.944766 147.563904 
L 769.633096 150.433027 
L 779.009755 155.597448 
L 788.386414 160.188044 
L 793.074744 162.19643 
L 795.418909 163.344079 
L 797.763074 164.635184 
L 800.107238 166.356658 
L 802.451403 168.221588 
L 807.139733 173.529464 
L 809.483898 176.398587 
L 814.172227 182.710657 
L 823.548887 196.33899 
L 825.893051 199.351568 
L 828.237216 201.790323 
L 832.925546 205.95055 
L 835.269711 207.81548 
L 837.613875 209.393498 
L 842.302205 211.975708 
L 846.990535 214.271006 
L 849.3347 215.275199 
L 851.678864 216.566304 
L 856.367194 218.287778 
L 858.711359 218.718146 
L 861.055524 218.861602 
L 863.399688 218.861602 
L 865.743853 218.431234 
L 868.088018 217.85741 
L 870.432183 217.427041 
L 872.776348 216.70976 
L 875.120512 216.135936 
L 877.464677 215.275199 
L 879.808842 214.271006 
L 882.153007 213.410269 
L 884.497172 212.836445 
L 886.841337 212.549533 
L 889.185501 212.406076 
L 893.873831 212.692989 
L 896.217996 213.266813 
L 900.906325 214.988287 
L 903.25049 216.135936 
L 905.594655 217.140129 
L 907.93882 218.000866 
L 910.282985 218.57469 
L 914.971314 218.861602 
L 924.347974 218.287778 
L 929.036303 218.57469 
L 931.380468 219.005059 
L 933.724633 219.865795 
L 936.068798 220.583076 
L 940.757127 222.591462 
L 940.757127 222.591462 
" clip-path="url(#p7dab3337a1)" style="fill: none; stroke: #e41a1c; stroke-width: 1.5; stroke-linecap: square"/>
   </g>
   <g id="line2d_76">
    <path d="M 940.757127 318.04 
L 940.757127 10.8 
" clip-path="url(#p7dab3337a1)" style="fill: none; stroke-dasharray: 5.55,2.4; stroke-dashoffset: 0; stroke: #808080; stroke-opacity: 0.5; stroke-width: 1.5"/>
   </g>
   <g id="line2d_77">
    <path d="M 469.58 39.111068 
L 474.280137 43.84512 
L 478.980274 47.288067 
L 483.680412 51.017927 
L 488.380549 54.891242 
L 490.730617 56.612716 
L 493.080686 57.903821 
L 495.430754 59.05147 
L 497.780823 59.912207 
L 502.48096 61.346768 
L 507.181097 62.494418 
L 509.531166 63.211698 
L 511.881235 64.072435 
L 514.231303 65.36354 
L 516.581372 66.798102 
L 518.93144 68.519575 
L 525.981646 74.114364 
L 528.331715 76.983487 
L 535.38192 88.029609 
L 537.731989 90.898732 
L 540.082058 93.19403 
L 542.432126 95.202416 
L 549.482332 102.231766 
L 551.832401 104.096696 
L 556.532538 108.256924 
L 558.882606 109.691485 
L 563.582743 111.412959 
L 565.932812 112.417152 
L 568.282881 113.708257 
L 570.632949 114.855906 
L 572.983018 115.429731 
L 575.333086 116.147011 
L 577.683155 117.151204 
L 584.733361 121.02452 
L 587.083429 122.028713 
L 589.433498 122.88945 
L 591.783567 123.60673 
L 594.133635 124.180555 
L 596.483704 124.897835 
L 598.833772 126.188941 
L 603.533909 130.636081 
L 605.883978 132.50101 
L 612.934184 136.804694 
L 615.284252 137.952343 
L 617.634321 137.808887 
L 619.98439 136.804694 
L 622.334458 136.23087 
L 624.684527 136.374326 
L 627.034595 137.235063 
L 629.384664 138.239256 
L 631.734733 138.526168 
L 634.084801 138.0958 
L 636.43487 138.0958 
L 638.784938 138.669624 
L 643.485075 140.104185 
L 645.835144 140.391098 
L 648.185213 140.391098 
L 650.535281 140.67801 
L 655.235418 141.538747 
L 659.935556 142.973308 
L 662.285624 143.977501 
L 664.635693 145.268606 
L 666.985761 146.416255 
L 671.685898 148.998466 
L 674.035967 149.859203 
L 685.78631 154.880167 
L 688.136379 155.310536 
L 690.486447 155.453992 
L 692.836516 155.310536 
L 695.186584 155.023623 
L 697.536653 154.449799 
L 699.886722 154.01943 
L 702.23679 153.30215 
L 704.586859 152.728325 
L 709.286996 151.293764 
L 711.637064 150.719939 
L 713.987133 150.289571 
L 716.337202 150.002659 
L 718.68727 150.002659 
L 725.737476 149.57229 
L 732.787682 148.281185 
L 735.13775 148.281185 
L 737.487819 148.424641 
L 739.837888 148.998466 
L 742.187956 149.715746 
L 746.888093 150.863395 
L 751.58823 151.724132 
L 753.938299 152.441413 
L 756.288368 153.445606 
L 760.988505 155.740904 
L 765.688642 157.462378 
L 775.088916 159.757676 
L 777.438985 160.618412 
L 779.789053 161.335693 
L 782.139122 162.626798 
L 784.489191 164.06136 
L 786.839259 165.782833 
L 798.589602 175.968219 
L 800.939671 178.120061 
L 815.040082 192.896042 
L 819.740219 198.203919 
L 836.1907 217.140129 
L 838.540768 219.291971 
L 840.890837 221.013444 
L 843.240905 222.448006 
L 857.341317 230.194637 
L 862.041454 232.203023 
L 864.391523 232.920303 
L 869.09166 234.641777 
L 873.791797 236.076338 
L 876.141866 236.937075 
L 878.491934 237.941268 
L 880.842003 239.232373 
L 883.192071 240.666935 
L 885.54214 241.95804 
L 887.892209 243.536057 
L 892.592346 246.40518 
L 897.292483 249.561215 
L 899.642551 251.282689 
L 901.99262 252.71725 
L 904.342689 254.008355 
L 906.692757 255.156004 
L 911.392894 256.877478 
L 913.742963 257.16439 
L 916.093032 257.307846 
L 918.4431 257.307846 
L 920.793169 257.020934 
L 925.493306 255.873285 
L 927.843374 255.012548 
L 932.543512 252.71725 
L 934.89358 251.426145 
L 937.243649 250.278496 
L 939.593717 249.417759 
L 941.943786 249.130847 
L 944.293855 249.417759 
L 946.643923 249.848127 
L 956.044198 252.143425 
L 958.394266 252.430338 
L 960.744335 252.860706 
L 965.444472 254.295267 
L 967.79454 255.442916 
L 970.144609 256.447109 
L 972.494678 257.307846 
L 974.844746 258.312039 
L 977.194815 259.459688 
L 979.544883 261.037706 
L 981.894952 262.759179 
L 984.245021 264.337197 
L 986.595089 265.771758 
L 988.945158 267.636688 
L 991.295226 269.78853 
L 1003.045569 281.982301 
L 1005.395638 283.703775 
L 1007.745706 284.99488 
L 1010.095775 285.855617 
L 1014.795912 287.864002 
L 1017.145981 289.44202 
L 1019.496049 291.30695 
L 1026.546255 296.47137 
L 1028.896324 298.049388 
L 1033.596461 300.918511 
L 1038.296598 303.213809 
L 1040.646667 304.074545 
L 1040.646667 304.074545 
" clip-path="url(#p7dab3337a1)" style="fill: none; stroke: #377eb8; stroke-width: 1.5; stroke-linecap: square"/>
   </g>
   <g id="line2d_78">
    <path d="M 1040.646667 318.04 
L 1040.646667 10.8 
" clip-path="url(#p7dab3337a1)" style="fill: none; stroke-dasharray: 5.55,2.4; stroke-dashoffset: 0; stroke: #808080; stroke-opacity: 0.5; stroke-width: 1.5"/>
   </g>
   <g id="patch_8">
    <path d="M 441.026667 318.04 
L 441.026667 10.8 
" style="fill: none; stroke: #000000; stroke-width: 0.8; stroke-linejoin: miter; stroke-linecap: square"/>
   </g>
   <g id="patch_9">
    <path d="M 1069.2 318.04 
L 1069.2 10.8 
" style="fill: none; stroke: #000000; stroke-width: 0.8; stroke-linejoin: miter; stroke-linecap: square"/>
   </g>
   <g id="patch_10">
    <path d="M 441.026667 318.04 
L 1069.2 318.04 
" style="fill: none; stroke: #000000; stroke-width: 0.8; stroke-linejoin: miter; stroke-linecap: square"/>
   </g>
   <g id="patch_11">
    <path d="M 441.026667 10.8 
L 1069.2 10.8 
" style="fill: none; stroke: #000000; stroke-width: 0.8; stroke-linejoin: miter; stroke-linecap: square"/>
   </g>
   <g id="text_45">
    <!-- 1 -->
    <g transform="translate(506.732351 39.39798) scale(0.1 -0.1)">
     <use xlink:href="#DejaVuSans-31"/>
    </g>
   </g>
   <g id="text_46">
    <!-- 2 -->
    <g transform="translate(544.207917 66.224277) scale(0.1 -0.1)">
     <use xlink:href="#DejaVuSans-32"/>
    </g>
   </g>
   <g id="text_47">
    <!-- 3 -->
    <g transform="translate(619.156115 89.320714) scale(0.1 -0.1)">
     <use xlink:href="#DejaVuSans-33"/>
    </g>
   </g>
   <g id="text_48">
    <!-- 4 -->
    <g transform="translate(664.590935 92.189837) scale(0.1 -0.1)">
     <use xlink:href="#DejaVuSans-34"/>
    </g>
   </g>
   <g id="text_49">
    <!-- 5 -->
    <g transform="translate(726.389168 83.295557) scale(0.1 -0.1)">
     <use xlink:href="#DejaVuSans-35"/>
    </g>
   </g>
   <g id="text_50">
    <!-- 6 -->
    <g transform="translate(764.166391 102.375222) scale(0.1 -0.1)">
     <use xlink:href="#DejaVuSans-36"/>
    </g>
   </g>
   <g id="text_51">
    <!-- 7 -->
    <g transform="translate(872.567643 169.369237) scale(0.1 -0.1)">
     <use xlink:href="#DejaVuSans-37"/>
    </g>
   </g>
   <g id="text_52">
    <!-- 8 -->
    <g transform="translate(943.088603 197.486639) scale(0.1 -0.1)">
     <use xlink:href="#DejaVuSans-38"/>
    </g>
   </g>
   <g id="text_53">
    <!-- 9 -->
    <g transform="translate(1042.978142 278.969722) scale(0.1 -0.1)">
     <use xlink:href="#DejaVuSans-39"/>
    </g>
   </g>
   <g id="legend_1">
    <g id="patch_12">
     <path d="M 448.026667 62.834375 
L 595.114167 62.834375 
Q 597.114167 62.834375 597.114167 60.834375 
L 597.114167 17.8 
Q 597.114167 15.8 595.114167 15.8 
L 448.026667 15.8 
Q 446.026667 15.8 446.026667 17.8 
L 446.026667 60.834375 
Q 446.026667 62.834375 448.026667 62.834375 
z
" style="fill: #ffffff; opacity: 0.8; stroke: #cccccc; stroke-linejoin: miter"/>
    </g>
    <g id="line2d_79">
     <path d="M 450.026667 23.898438 
L 460.026667 23.898438 
L 470.026667 23.898438 
" style="fill: none; stroke: #d95f02; stroke-width: 1.5; stroke-linecap: square"/>
    </g>
    <g id="text_54">
     <!-- 1 -->
     <g transform="translate(478.026667 27.398438) scale(0.1 -0.1)">
      <use xlink:href="#DejaVuSans-31"/>
     </g>
    </g>
    <g id="line2d_80">
     <path d="M 450.026667 38.576563 
L 460.026667 38.576563 
L 470.026667 38.576563 
" style="fill: none; stroke: #7570b3; stroke-width: 1.5; stroke-linecap: square"/>
    </g>
    <g id="text_55">
     <!-- 2 -->
     <g transform="translate(478.026667 42.076563) scale(0.1 -0.1)">
      <use xlink:href="#DejaVuSans-32"/>
     </g>
    </g>
    <g id="line2d_81">
     <path d="M 450.026667 53.254688 
L 460.026667 53.254688 
L 470.026667 53.254688 
" style="fill: none; stroke: #e7298a; stroke-width: 1.5; stroke-linecap: square"/>
    </g>
    <g id="text_56">
     <!-- 3 -->
     <g transform="translate(478.026667 56.754688) scale(0.1 -0.1)">
      <use xlink:href="#DejaVuSans-33"/>
     </g>
    </g>
    <g id="line2d_82">
     <path d="M 504.389167 23.898438 
L 514.389167 23.898438 
L 524.389167 23.898438 
" style="fill: none; stroke: #66a61e; stroke-width: 1.5; stroke-linecap: square"/>
    </g>
    <g id="text_57">
     <!-- 4 -->
     <g transform="translate(532.389167 27.398438) scale(0.1 -0.1)">
      <use xlink:href="#DejaVuSans-34"/>
     </g>
    </g>
    <g id="line2d_83">
     <path d="M 504.389167 38.576563 
L 514.389167 38.576563 
L 524.389167 38.576563 
" style="fill: none; stroke: #e6ab02; stroke-width: 1.5; stroke-linecap: square"/>
    </g>
    <g id="text_58">
     <!-- 5 -->
     <g transform="translate(532.389167 42.076563) scale(0.1 -0.1)">
      <use xlink:href="#DejaVuSans-35"/>
     </g>
    </g>
    <g id="line2d_84">
     <path d="M 504.389167 53.254688 
L 514.389167 53.254688 
L 524.389167 53.254688 
" style="fill: none; stroke: #a6761d; stroke-width: 1.5; stroke-linecap: square"/>
    </g>
    <g id="text_59">
     <!-- 6 -->
     <g transform="translate(532.389167 56.754688) scale(0.1 -0.1)">
      <use xlink:href="#DejaVuSans-36"/>
     </g>
    </g>
    <g id="line2d_85">
     <path d="M 558.751667 23.898438 
L 568.751667 23.898438 
L 578.751667 23.898438 
" style="fill: none; stroke: #666666; stroke-width: 1.5; stroke-linecap: square"/>
    </g>
    <g id="text_60">
     <!-- 7 -->
     <g transform="translate(586.751667 27.398438) scale(0.1 -0.1)">
      <use xlink:href="#DejaVuSans-37"/>
     </g>
    </g>
    <g id="line2d_86">
     <path d="M 558.751667 38.576563 
L 568.751667 38.576563 
L 578.751667 38.576563 
" style="fill: none; stroke: #e41a1c; stroke-width: 1.5; stroke-linecap: square"/>
    </g>
    <g id="text_61">
     <!-- 8 -->
     <g transform="translate(586.751667 42.076563) scale(0.1 -0.1)">
      <use xlink:href="#DejaVuSans-38"/>
     </g>
    </g>
    <g id="line2d_87">
     <path d="M 558.751667 53.254688 
L 568.751667 53.254688 
L 578.751667 53.254688 
" style="fill: none; stroke: #377eb8; stroke-width: 1.5; stroke-linecap: square"/>
    </g>
    <g id="text_62">
     <!-- 9 -->
     <g transform="translate(586.751667 56.754688) scale(0.1 -0.1)">
      <use xlink:href="#DejaVuSans-39"/>
     </g>
    </g>
   </g>
  </g>
 </g>
 <defs>
  <clipPath id="p57856f4a03">
   <rect x="66.62" y="10.8" width="314.086667" height="307.24"/>
  </clipPath>
  <clipPath id="p7dab3337a1">
   <rect x="441.026667" y="10.8" width="628.173333" height="307.24"/>
  </clipPath>
 </defs>
</svg>
