<?xml version="1.0" encoding="utf-8" standalone="no"?>
<!DOCTYPE svg PUBLIC "-//W3C//DTD SVG 1.1//EN"
  "http://www.w3.org/Graphics/SVG/1.1/DTD/svg11.dtd">
<svg xmlns:xlink="http://www.w3.org/1999/xlink" width="648pt" height="216pt" viewBox="0 0 648 216" xmlns="http://www.w3.org/2000/svg" version="1.1">
 <metadata>
  <rdf:RDF xmlns:dc="http://purl.org/dc/elements/1.1/" xmlns:cc="http://creativecommons.org/ns#" xmlns:rdf="http://www.w3.org/1999/02/22-rdf-syntax-ns#">
   <cc:Work>
    <dc:type rdf:resource="http://purl.org/dc/dcmitype/StillImage"/>
    <dc:date>2024-05-05T16:04:57.248799</dc:date>
    <dc:format>image/svg+xml</dc:format>
    <dc:creator>
     <cc:Agent>
      <dc:title>Matplotlib v3.8.4, https://matplotlib.org/</dc:title>
     </cc:Agent>
    </dc:creator>
   </cc:Work>
  </rdf:RDF>
 </metadata>
 <defs>
  <style type="text/css">*{stroke-linejoin: round; stroke-linecap: butt}</style>
 </defs>
 <g id="figure_1">
  <g id="patch_1">
   <path d="M 0 216 
L 648 216 
L 648 0 
L 0 0 
z
" style="fill: #ffffff"/>
  </g>
  <g id="axes_1">
   <g id="patch_2">
    <path d="M 66.62 174.04 
L 234.559285 174.04 
L 234.559285 11.16 
L 66.62 11.16 
z
" style="fill: #ffffff"/>
   </g>
   <g id="PathCollection_1">
    <defs>
     <path id="me602b54e4c" d="M 0 3 
C 0.795609 3 1.55874 2.683901 2.12132 2.12132 
C 2.683901 1.55874 3 0.795609 3 0 
C 3 -0.795609 2.683901 -1.55874 2.12132 -2.12132 
C 1.55874 -2.683901 0.795609 -3 0 -3 
C -0.795609 -3 -1.55874 -2.683901 -2.12132 -2.12132 
C -2.683901 -1.55874 -3 -0.795609 -3 0 
C -3 0.795609 -2.683901 1.55874 -2.12132 2.12132 
C -1.55874 2.683901 -0.795609 3 0 3 
z
" style="stroke: #1b9e77"/>
    </defs>
    <g clip-path="url(#pe5158c68f2)">
     <use xlink:href="#me602b54e4c" x="74.253604" y="166.636364" style="fill: #1b9e77; stroke: #1b9e77"/>
    </g>
   </g>
   <g id="PathCollection_2">
    <defs>
     <path id="m98bd12fd51" d="M 0 3 
C 0.795609 3 1.55874 2.683901 2.12132 2.12132 
C 2.683901 1.55874 3 0.795609 3 0 
C 3 -0.795609 2.683901 -1.55874 2.12132 -2.12132 
C 1.55874 -2.683901 0.795609 -3 0 -3 
C -0.795609 -3 -1.55874 -2.683901 -2.12132 -2.12132 
C -2.683901 -1.55874 -3 -0.795609 -3 0 
C -3 0.795609 -2.683901 1.55874 -2.12132 2.12132 
C -1.55874 2.683901 -0.795609 3 0 3 
z
" style="stroke: #d95f02"/>
    </defs>
    <g clip-path="url(#pe5158c68f2)">
     <use xlink:href="#m98bd12fd51" x="82.4626" y="153.48757" style="fill: #d95f02; stroke: #d95f02"/>
    </g>
   </g>
   <g id="PathCollection_3">
    <defs>
     <path id="md5bb3532ba" d="M 0 3 
C 0.795609 3 1.55874 2.683901 2.12132 2.12132 
C 2.683901 1.55874 3 0.795609 3 0 
C 3 -0.795609 2.683901 -1.55874 2.12132 -2.12132 
C 1.55874 -2.683901 0.795609 -3 0 -3 
C -0.795609 -3 -1.55874 -2.683901 -2.12132 -2.12132 
C -2.683901 -1.55874 -3 -0.795609 -3 0 
C -3 0.795609 -2.683901 1.55874 -2.12132 2.12132 
C -1.55874 2.683901 -0.795609 3 0 3 
z
" style="stroke: #7570b3"/>
    </defs>
    <g clip-path="url(#pe5158c68f2)">
     <use xlink:href="#md5bb3532ba" x="90.791355" y="138.634304" style="fill: #7570b3; stroke: #7570b3"/>
    </g>
   </g>
   <g id="PathCollection_4">
    <defs>
     <path id="m52817c7aab" d="M 0 3 
C 0.795609 3 1.55874 2.683901 2.12132 2.12132 
C 2.683901 1.55874 3 0.795609 3 0 
C 3 -0.795609 2.683901 -1.55874 2.12132 -2.12132 
C 1.55874 -2.683901 0.795609 -3 0 -3 
C -0.795609 -3 -1.55874 -2.683901 -2.12132 -2.12132 
C -2.683901 -1.55874 -3 -0.795609 -3 0 
C -3 0.795609 -2.683901 1.55874 -2.12132 2.12132 
C -1.55874 2.683901 -0.795609 3 0 3 
z
" style="stroke: #e7298a"/>
    </defs>
    <g clip-path="url(#pe5158c68f2)">
     <use xlink:href="#m52817c7aab" x="109.049294" y="109.928811" style="fill: #e7298a; stroke: #e7298a"/>
    </g>
   </g>
   <g id="PathCollection_5">
    <defs>
     <path id="mde61bcfc04" d="M 0 3 
C 0.795609 3 1.55874 2.683901 2.12132 2.12132 
C 2.683901 1.55874 3 0.795609 3 0 
C 3 -0.795609 2.683901 -1.55874 2.12132 -2.12132 
C 1.55874 -2.683901 0.795609 -3 0 -3 
C -0.795609 -3 -1.55874 -2.683901 -2.12132 -2.12132 
C -2.683901 -1.55874 -3 -0.795609 -3 0 
C -3 0.795609 -2.683901 1.55874 -2.12132 2.12132 
C -1.55874 2.683901 -0.795609 3 0 3 
z
" style="stroke: #66a61e"/>
    </defs>
    <g clip-path="url(#pe5158c68f2)">
     <use xlink:href="#mde61bcfc04" x="118.00951" y="96.752962" style="fill: #66a61e; stroke: #66a61e"/>
    </g>
   </g>
   <g id="PathCollection_6">
    <defs>
     <path id="mb72a61cc5a" d="M 0 3 
C 0.795609 3 1.55874 2.683901 2.12132 2.12132 
C 2.683901 1.55874 3 0.795609 3 0 
C 3 -0.795609 2.683901 -1.55874 2.12132 -2.12132 
C 1.55874 -2.683901 0.795609 -3 0 -3 
C -0.795609 -3 -1.55874 -2.683901 -2.12132 -2.12132 
C -2.683901 -1.55874 -3 -0.795609 -3 0 
C -3 0.795609 -2.683901 1.55874 -2.12132 2.12132 
C -1.55874 2.683901 -0.795609 3 0 3 
z
" style="stroke: #e6ab02"/>
    </defs>
    <g clip-path="url(#pe5158c68f2)">
     <use xlink:href="#mb72a61cc5a" x="136.006155" y="70.238935" style="fill: #e6ab02; stroke: #e6ab02"/>
    </g>
   </g>
   <g id="PathCollection_7">
    <defs>
     <path id="mcd956b3fa2" d="M 0 3 
C 0.795609 3 1.55874 2.683901 2.12132 2.12132 
C 2.683901 1.55874 3 0.795609 3 0 
C 3 -0.795609 2.683901 -1.55874 2.12132 -2.12132 
C 1.55874 -2.683901 0.795609 -3 0 -3 
C -0.795609 -3 -1.55874 -2.683901 -2.12132 -2.12132 
C -2.683901 -1.55874 -3 -0.795609 -3 0 
C -3 0.795609 -2.683901 1.55874 -2.12132 2.12132 
C -1.55874 2.683901 -0.795609 3 0 3 
z
" style="stroke: #a6761d"/>
    </defs>
    <g clip-path="url(#pe5158c68f2)">
     <use xlink:href="#mcd956b3fa2" x="148.482957" y="51.760281" style="fill: #a6761d; stroke: #a6761d"/>
    </g>
   </g>
   <g id="PathCollection_8">
    <defs>
     <path id="m57840217ea" d="M 0 3 
C 0.795609 3 1.55874 2.683901 2.12132 2.12132 
C 2.683901 1.55874 3 0.795609 3 0 
C 3 -0.795609 2.683901 -1.55874 2.12132 -2.12132 
C 1.55874 -2.683901 0.795609 -3 0 -3 
C -0.795609 -3 -1.55874 -2.683901 -2.12132 -2.12132 
C -2.683901 -1.55874 -3 -0.795609 -3 0 
C -3 0.795609 -2.683901 1.55874 -2.12132 2.12132 
C -1.55874 2.683901 -0.795609 3 0 3 
z
" style="stroke: #666666"/>
    </defs>
    <g clip-path="url(#pe5158c68f2)">
     <use xlink:href="#m57840217ea" x="163.354957" y="40.532402" style="fill: #666666; stroke: #666666"/>
    </g>
   </g>
   <g id="PathCollection_9">
    <defs>
     <path id="mbbb3c09b5e" d="M 0 3 
C 0.795609 3 1.55874 2.683901 2.12132 2.12132 
C 2.683901 1.55874 3 0.795609 3 0 
C 3 -0.795609 2.683901 -1.55874 2.12132 -2.12132 
C 1.55874 -2.683901 0.795609 -3 0 -3 
C -0.795609 -3 -1.55874 -2.683901 -2.12132 -2.12132 
C -2.683901 -1.55874 -3 -0.795609 -3 0 
C -3 0.795609 -2.683901 1.55874 -2.12132 2.12132 
C -1.55874 2.683901 -0.795609 3 0 3 
z
" style="stroke: #e41a1c"/>
    </defs>
    <g clip-path="url(#pe5158c68f2)">
     <use xlink:href="#mbbb3c09b5e" x="180.872562" y="34.174446" style="fill: #e41a1c; stroke: #e41a1c"/>
    </g>
   </g>
   <g id="PathCollection_10">
    <defs>
     <path id="m20cc5d4931" d="M 0 3 
C 0.795609 3 1.55874 2.683901 2.12132 2.12132 
C 2.683901 1.55874 3 0.795609 3 0 
C 3 -0.795609 2.683901 -1.55874 2.12132 -2.12132 
C 1.55874 -2.683901 0.795609 -3 0 -3 
C -0.795609 -3 -1.55874 -2.683901 -2.12132 -2.12132 
C -2.683901 -1.55874 -3 -0.795609 -3 0 
C -3 0.795609 -2.683901 1.55874 -2.12132 2.12132 
C -1.55874 2.683901 -0.795609 3 0 3 
z
" style="stroke: #377eb8"/>
    </defs>
    <g clip-path="url(#pe5158c68f2)">
     <use xlink:href="#m20cc5d4931" x="200.545845" y="28.574035" style="fill: #377eb8; stroke: #377eb8"/>
    </g>
   </g>
   <g id="PathCollection_11">
    <defs>
     <path id="m62ac8bbe14" d="M 0 3 
C 0.795609 3 1.55874 2.683901 2.12132 2.12132 
C 2.683901 1.55874 3 0.795609 3 0 
C 3 -0.795609 2.683901 -1.55874 2.12132 -2.12132 
C 1.55874 -2.683901 0.795609 -3 0 -3 
C -0.795609 -3 -1.55874 -2.683901 -2.12132 -2.12132 
C -2.683901 -1.55874 -3 -0.795609 -3 0 
C -3 0.795609 -2.683901 1.55874 -2.12132 2.12132 
C -1.55874 2.683901 -0.795609 3 0 3 
z
" style="stroke: #4daf4a"/>
    </defs>
    <g clip-path="url(#pe5158c68f2)">
     <use xlink:href="#m62ac8bbe14" x="223.583292" y="20.32222" style="fill: #4daf4a; stroke: #4daf4a"/>
    </g>
   </g>
   <g id="PathCollection_12">
    <defs>
     <path id="mb228f24868" d="M 0 3 
C 0.795609 3 1.55874 2.683901 2.12132 2.12132 
C 2.683901 1.55874 3 0.795609 3 0 
C 3 -0.795609 2.683901 -1.55874 2.12132 -2.12132 
C 1.55874 -2.683901 0.795609 -3 0 -3 
C -0.795609 -3 -1.55874 -2.683901 -2.12132 -2.12132 
C -2.683901 -1.55874 -3 -0.795609 -3 0 
C -3 0.795609 -2.683901 1.55874 -2.12132 2.12132 
C -1.55874 2.683901 -0.795609 3 0 3 
z
" style="stroke: #984ea3"/>
    </defs>
    <g clip-path="url(#pe5158c68f2)">
     <use xlink:href="#mb228f24868" x="226.925681" y="18.563636" style="fill: #984ea3; stroke: #984ea3"/>
    </g>
   </g>
   <g id="matplotlib.axis_1">
    <g id="xtick_1">
     <g id="line2d_1">
      <path d="M 118.934928 174.04 
L 118.934928 11.16 
" clip-path="url(#pe5158c68f2)" style="fill: none; stroke: #b0b0b0; stroke-width: 0.8; stroke-linecap: square"/>
     </g>
     <g id="line2d_2">
      <defs>
       <path id="mb6f564565c" d="M 0 0 
L 0 3.5 
" style="stroke: #000000; stroke-width: 0.8"/>
      </defs>
      <g>
       <use xlink:href="#mb6f564565c" x="118.934928" y="174.04" style="stroke: #000000; stroke-width: 0.8"/>
      </g>
     </g>
     <g id="text_1">
      <!-- 14.535 -->
      <g transform="translate(101.439615 188.638438) scale(0.1 -0.1)">
       <defs>
        <path id="DejaVuSans-31" d="M 794 531 
L 1825 531 
L 1825 4091 
L 703 3866 
L 703 4441 
L 1819 4666 
L 2450 4666 
L 2450 531 
L 3481 531 
L 3481 0 
L 794 0 
L 794 531 
z
" transform="scale(0.015625)"/>
        <path id="DejaVuSans-34" d="M 2419 4116 
L 825 1625 
L 2419 1625 
L 2419 4116 
z
M 2253 4666 
L 3047 4666 
L 3047 1625 
L 3713 1625 
L 3713 1100 
L 3047 1100 
L 3047 0 
L 2419 0 
L 2419 1100 
L 313 1100 
L 313 1709 
L 2253 4666 
z
" transform="scale(0.015625)"/>
        <path id="DejaVuSans-2e" d="M 684 794 
L 1344 794 
L 1344 0 
L 684 0 
L 684 794 
z
" transform="scale(0.015625)"/>
        <path id="DejaVuSans-35" d="M 691 4666 
L 3169 4666 
L 3169 4134 
L 1269 4134 
L 1269 2991 
Q 1406 3038 1543 3061 
Q 1681 3084 1819 3084 
Q 2600 3084 3056 2656 
Q 3513 2228 3513 1497 
Q 3513 744 3044 326 
Q 2575 -91 1722 -91 
Q 1428 -91 1123 -41 
Q 819 9 494 109 
L 494 744 
Q 775 591 1075 516 
Q 1375 441 1709 441 
Q 2250 441 2565 725 
Q 2881 1009 2881 1497 
Q 2881 1984 2565 2268 
Q 2250 2553 1709 2553 
Q 1456 2553 1204 2497 
Q 953 2441 691 2322 
L 691 4666 
z
" transform="scale(0.015625)"/>
        <path id="DejaVuSans-33" d="M 2597 2516 
Q 3050 2419 3304 2112 
Q 3559 1806 3559 1356 
Q 3559 666 3084 287 
Q 2609 -91 1734 -91 
Q 1441 -91 1130 -33 
Q 819 25 488 141 
L 488 750 
Q 750 597 1062 519 
Q 1375 441 1716 441 
Q 2309 441 2620 675 
Q 2931 909 2931 1356 
Q 2931 1769 2642 2001 
Q 2353 2234 1838 2234 
L 1294 2234 
L 1294 2753 
L 1863 2753 
Q 2328 2753 2575 2939 
Q 2822 3125 2822 3475 
Q 2822 3834 2567 4026 
Q 2313 4219 1838 4219 
Q 1578 4219 1281 4162 
Q 984 4106 628 3988 
L 628 4550 
Q 988 4650 1302 4700 
Q 1616 4750 1894 4750 
Q 2613 4750 3031 4423 
Q 3450 4097 3450 3541 
Q 3450 3153 3228 2886 
Q 3006 2619 2597 2516 
z
" transform="scale(0.015625)"/>
       </defs>
       <use xlink:href="#DejaVuSans-31"/>
       <use xlink:href="#DejaVuSans-34" x="63.623047"/>
       <use xlink:href="#DejaVuSans-2e" x="127.246094"/>
       <use xlink:href="#DejaVuSans-35" x="159.033203"/>
       <use xlink:href="#DejaVuSans-33" x="222.65625"/>
       <use xlink:href="#DejaVuSans-35" x="286.279297"/>
      </g>
     </g>
    </g>
    <g id="xtick_2">
     <g id="line2d_3">
      <path d="M 173.371239 174.04 
L 173.371239 11.16 
" clip-path="url(#pe5158c68f2)" style="fill: none; stroke: #b0b0b0; stroke-width: 0.8; stroke-linecap: square"/>
     </g>
     <g id="line2d_4">
      <g>
       <use xlink:href="#mb6f564565c" x="173.371239" y="174.04" style="stroke: #000000; stroke-width: 0.8"/>
      </g>
     </g>
     <g id="text_2">
      <!-- 14.540 -->
      <g transform="translate(155.875926 188.638438) scale(0.1 -0.1)">
       <defs>
        <path id="DejaVuSans-30" d="M 2034 4250 
Q 1547 4250 1301 3770 
Q 1056 3291 1056 2328 
Q 1056 1369 1301 889 
Q 1547 409 2034 409 
Q 2525 409 2770 889 
Q 3016 1369 3016 2328 
Q 3016 3291 2770 3770 
Q 2525 4250 2034 4250 
z
M 2034 4750 
Q 2819 4750 3233 4129 
Q 3647 3509 3647 2328 
Q 3647 1150 3233 529 
Q 2819 -91 2034 -91 
Q 1250 -91 836 529 
Q 422 1150 422 2328 
Q 422 3509 836 4129 
Q 1250 4750 2034 4750 
z
" transform="scale(0.015625)"/>
       </defs>
       <use xlink:href="#DejaVuSans-31"/>
       <use xlink:href="#DejaVuSans-34" x="63.623047"/>
       <use xlink:href="#DejaVuSans-2e" x="127.246094"/>
       <use xlink:href="#DejaVuSans-35" x="159.033203"/>
       <use xlink:href="#DejaVuSans-34" x="222.65625"/>
       <use xlink:href="#DejaVuSans-30" x="286.279297"/>
      </g>
     </g>
    </g>
    <g id="xtick_3">
     <g id="line2d_5">
      <path d="M 227.807549 174.04 
L 227.807549 11.16 
" clip-path="url(#pe5158c68f2)" style="fill: none; stroke: #b0b0b0; stroke-width: 0.8; stroke-linecap: square"/>
     </g>
     <g id="line2d_6">
      <g>
       <use xlink:href="#mb6f564565c" x="227.807549" y="174.04" style="stroke: #000000; stroke-width: 0.8"/>
      </g>
     </g>
     <g id="text_3">
      <!-- 14.545 -->
      <g transform="translate(210.312237 188.638438) scale(0.1 -0.1)">
       <use xlink:href="#DejaVuSans-31"/>
       <use xlink:href="#DejaVuSans-34" x="63.623047"/>
       <use xlink:href="#DejaVuSans-2e" x="127.246094"/>
       <use xlink:href="#DejaVuSans-35" x="159.033203"/>
       <use xlink:href="#DejaVuSans-34" x="222.65625"/>
       <use xlink:href="#DejaVuSans-35" x="286.279297"/>
      </g>
     </g>
    </g>
    <g id="text_4">
     <!-- Longitude [°] -->
     <g transform="translate(117.729486 202.316563) scale(0.1 -0.1)">
      <defs>
       <path id="DejaVuSans-4c" d="M 628 4666 
L 1259 4666 
L 1259 531 
L 3531 531 
L 3531 0 
L 628 0 
L 628 4666 
z
" transform="scale(0.015625)"/>
       <path id="DejaVuSans-6f" d="M 1959 3097 
Q 1497 3097 1228 2736 
Q 959 2375 959 1747 
Q 959 1119 1226 758 
Q 1494 397 1959 397 
Q 2419 397 2687 759 
Q 2956 1122 2956 1747 
Q 2956 2369 2687 2733 
Q 2419 3097 1959 3097 
z
M 1959 3584 
Q 2709 3584 3137 3096 
Q 3566 2609 3566 1747 
Q 3566 888 3137 398 
Q 2709 -91 1959 -91 
Q 1206 -91 779 398 
Q 353 888 353 1747 
Q 353 2609 779 3096 
Q 1206 3584 1959 3584 
z
" transform="scale(0.015625)"/>
       <path id="DejaVuSans-6e" d="M 3513 2113 
L 3513 0 
L 2938 0 
L 2938 2094 
Q 2938 2591 2744 2837 
Q 2550 3084 2163 3084 
Q 1697 3084 1428 2787 
Q 1159 2491 1159 1978 
L 1159 0 
L 581 0 
L 581 3500 
L 1159 3500 
L 1159 2956 
Q 1366 3272 1645 3428 
Q 1925 3584 2291 3584 
Q 2894 3584 3203 3211 
Q 3513 2838 3513 2113 
z
" transform="scale(0.015625)"/>
       <path id="DejaVuSans-67" d="M 2906 1791 
Q 2906 2416 2648 2759 
Q 2391 3103 1925 3103 
Q 1463 3103 1205 2759 
Q 947 2416 947 1791 
Q 947 1169 1205 825 
Q 1463 481 1925 481 
Q 2391 481 2648 825 
Q 2906 1169 2906 1791 
z
M 3481 434 
Q 3481 -459 3084 -895 
Q 2688 -1331 1869 -1331 
Q 1566 -1331 1297 -1286 
Q 1028 -1241 775 -1147 
L 775 -588 
Q 1028 -725 1275 -790 
Q 1522 -856 1778 -856 
Q 2344 -856 2625 -561 
Q 2906 -266 2906 331 
L 2906 616 
Q 2728 306 2450 153 
Q 2172 0 1784 0 
Q 1141 0 747 490 
Q 353 981 353 1791 
Q 353 2603 747 3093 
Q 1141 3584 1784 3584 
Q 2172 3584 2450 3431 
Q 2728 3278 2906 2969 
L 2906 3500 
L 3481 3500 
L 3481 434 
z
" transform="scale(0.015625)"/>
       <path id="DejaVuSans-69" d="M 603 3500 
L 1178 3500 
L 1178 0 
L 603 0 
L 603 3500 
z
M 603 4863 
L 1178 4863 
L 1178 4134 
L 603 4134 
L 603 4863 
z
" transform="scale(0.015625)"/>
       <path id="DejaVuSans-74" d="M 1172 4494 
L 1172 3500 
L 2356 3500 
L 2356 3053 
L 1172 3053 
L 1172 1153 
Q 1172 725 1289 603 
Q 1406 481 1766 481 
L 2356 481 
L 2356 0 
L 1766 0 
Q 1100 0 847 248 
Q 594 497 594 1153 
L 594 3053 
L 172 3053 
L 172 3500 
L 594 3500 
L 594 4494 
L 1172 4494 
z
" transform="scale(0.015625)"/>
       <path id="DejaVuSans-75" d="M 544 1381 
L 544 3500 
L 1119 3500 
L 1119 1403 
Q 1119 906 1312 657 
Q 1506 409 1894 409 
Q 2359 409 2629 706 
Q 2900 1003 2900 1516 
L 2900 3500 
L 3475 3500 
L 3475 0 
L 2900 0 
L 2900 538 
Q 2691 219 2414 64 
Q 2138 -91 1772 -91 
Q 1169 -91 856 284 
Q 544 659 544 1381 
z
M 1991 3584 
L 1991 3584 
z
" transform="scale(0.015625)"/>
       <path id="DejaVuSans-64" d="M 2906 2969 
L 2906 4863 
L 3481 4863 
L 3481 0 
L 2906 0 
L 2906 525 
Q 2725 213 2448 61 
Q 2172 -91 1784 -91 
Q 1150 -91 751 415 
Q 353 922 353 1747 
Q 353 2572 751 3078 
Q 1150 3584 1784 3584 
Q 2172 3584 2448 3432 
Q 2725 3281 2906 2969 
z
M 947 1747 
Q 947 1113 1208 752 
Q 1469 391 1925 391 
Q 2381 391 2643 752 
Q 2906 1113 2906 1747 
Q 2906 2381 2643 2742 
Q 2381 3103 1925 3103 
Q 1469 3103 1208 2742 
Q 947 2381 947 1747 
z
" transform="scale(0.015625)"/>
       <path id="DejaVuSans-65" d="M 3597 1894 
L 3597 1613 
L 953 1613 
Q 991 1019 1311 708 
Q 1631 397 2203 397 
Q 2534 397 2845 478 
Q 3156 559 3463 722 
L 3463 178 
Q 3153 47 2828 -22 
Q 2503 -91 2169 -91 
Q 1331 -91 842 396 
Q 353 884 353 1716 
Q 353 2575 817 3079 
Q 1281 3584 2069 3584 
Q 2775 3584 3186 3129 
Q 3597 2675 3597 1894 
z
M 3022 2063 
Q 3016 2534 2758 2815 
Q 2500 3097 2075 3097 
Q 1594 3097 1305 2825 
Q 1016 2553 972 2059 
L 3022 2063 
z
" transform="scale(0.015625)"/>
       <path id="DejaVuSans-20" transform="scale(0.015625)"/>
       <path id="DejaVuSans-5b" d="M 550 4863 
L 1875 4863 
L 1875 4416 
L 1125 4416 
L 1125 -397 
L 1875 -397 
L 1875 -844 
L 550 -844 
L 550 4863 
z
" transform="scale(0.015625)"/>
       <path id="DejaVuSans-b0" d="M 1600 4347 
Q 1350 4347 1178 4173 
Q 1006 4000 1006 3750 
Q 1006 3503 1178 3333 
Q 1350 3163 1600 3163 
Q 1850 3163 2022 3333 
Q 2194 3503 2194 3750 
Q 2194 3997 2020 4172 
Q 1847 4347 1600 4347 
z
M 1600 4750 
Q 1800 4750 1984 4673 
Q 2169 4597 2303 4453 
Q 2447 4313 2519 4134 
Q 2591 3956 2591 3750 
Q 2591 3338 2302 3052 
Q 2013 2766 1594 2766 
Q 1172 2766 890 3047 
Q 609 3328 609 3750 
Q 609 4169 896 4459 
Q 1184 4750 1600 4750 
z
" transform="scale(0.015625)"/>
       <path id="DejaVuSans-5d" d="M 1947 4863 
L 1947 -844 
L 622 -844 
L 622 -397 
L 1369 -397 
L 1369 4416 
L 622 4416 
L 622 4863 
L 1947 4863 
z
" transform="scale(0.015625)"/>
      </defs>
      <use xlink:href="#DejaVuSans-4c"/>
      <use xlink:href="#DejaVuSans-6f" x="53.962891"/>
      <use xlink:href="#DejaVuSans-6e" x="115.144531"/>
      <use xlink:href="#DejaVuSans-67" x="178.523438"/>
      <use xlink:href="#DejaVuSans-69" x="242"/>
      <use xlink:href="#DejaVuSans-74" x="269.783203"/>
      <use xlink:href="#DejaVuSans-75" x="308.992188"/>
      <use xlink:href="#DejaVuSans-64" x="372.371094"/>
      <use xlink:href="#DejaVuSans-65" x="435.847656"/>
      <use xlink:href="#DejaVuSans-20" x="497.371094"/>
      <use xlink:href="#DejaVuSans-5b" x="529.158203"/>
      <use xlink:href="#DejaVuSans-b0" x="568.171875"/>
      <use xlink:href="#DejaVuSans-5d" x="618.171875"/>
     </g>
    </g>
   </g>
   <g id="matplotlib.axis_2">
    <g id="ytick_1">
     <g id="line2d_7">
      <path d="M 66.62 172.074445 
L 234.559285 172.074445 
" clip-path="url(#pe5158c68f2)" style="fill: none; stroke: #b0b0b0; stroke-width: 0.8; stroke-linecap: square"/>
     </g>
     <g id="line2d_8">
      <defs>
       <path id="mf9e1ceabec" d="M 0 0 
L -3.5 0 
" style="stroke: #000000; stroke-width: 0.8"/>
      </defs>
      <g>
       <use xlink:href="#mf9e1ceabec" x="66.62" y="172.074445" style="stroke: #000000; stroke-width: 0.8"/>
      </g>
     </g>
     <g id="text_5">
      <!-- 50.001 -->
      <g transform="translate(24.629375 175.873664) scale(0.1 -0.1)">
       <use xlink:href="#DejaVuSans-35"/>
       <use xlink:href="#DejaVuSans-30" x="63.623047"/>
       <use xlink:href="#DejaVuSans-2e" x="127.246094"/>
       <use xlink:href="#DejaVuSans-30" x="159.033203"/>
       <use xlink:href="#DejaVuSans-30" x="222.65625"/>
       <use xlink:href="#DejaVuSans-31" x="286.279297"/>
      </g>
     </g>
    </g>
    <g id="ytick_2">
     <g id="line2d_9">
      <path d="M 66.62 145.019315 
L 234.559285 145.019315 
" clip-path="url(#pe5158c68f2)" style="fill: none; stroke: #b0b0b0; stroke-width: 0.8; stroke-linecap: square"/>
     </g>
     <g id="line2d_10">
      <g>
       <use xlink:href="#mf9e1ceabec" x="66.62" y="145.019315" style="stroke: #000000; stroke-width: 0.8"/>
      </g>
     </g>
     <g id="text_6">
      <!-- 50.002 -->
      <g transform="translate(24.629375 148.818533) scale(0.1 -0.1)">
       <defs>
        <path id="DejaVuSans-32" d="M 1228 531 
L 3431 531 
L 3431 0 
L 469 0 
L 469 531 
Q 828 903 1448 1529 
Q 2069 2156 2228 2338 
Q 2531 2678 2651 2914 
Q 2772 3150 2772 3378 
Q 2772 3750 2511 3984 
Q 2250 4219 1831 4219 
Q 1534 4219 1204 4116 
Q 875 4013 500 3803 
L 500 4441 
Q 881 4594 1212 4672 
Q 1544 4750 1819 4750 
Q 2544 4750 2975 4387 
Q 3406 4025 3406 3419 
Q 3406 3131 3298 2873 
Q 3191 2616 2906 2266 
Q 2828 2175 2409 1742 
Q 1991 1309 1228 531 
z
" transform="scale(0.015625)"/>
       </defs>
       <use xlink:href="#DejaVuSans-35"/>
       <use xlink:href="#DejaVuSans-30" x="63.623047"/>
       <use xlink:href="#DejaVuSans-2e" x="127.246094"/>
       <use xlink:href="#DejaVuSans-30" x="159.033203"/>
       <use xlink:href="#DejaVuSans-30" x="222.65625"/>
       <use xlink:href="#DejaVuSans-32" x="286.279297"/>
      </g>
     </g>
    </g>
    <g id="ytick_3">
     <g id="line2d_11">
      <path d="M 66.62 117.964185 
L 234.559285 117.964185 
" clip-path="url(#pe5158c68f2)" style="fill: none; stroke: #b0b0b0; stroke-width: 0.8; stroke-linecap: square"/>
     </g>
     <g id="line2d_12">
      <g>
       <use xlink:href="#mf9e1ceabec" x="66.62" y="117.964185" style="stroke: #000000; stroke-width: 0.8"/>
      </g>
     </g>
     <g id="text_7">
      <!-- 50.003 -->
      <g transform="translate(24.629375 121.763403) scale(0.1 -0.1)">
       <use xlink:href="#DejaVuSans-35"/>
       <use xlink:href="#DejaVuSans-30" x="63.623047"/>
       <use xlink:href="#DejaVuSans-2e" x="127.246094"/>
       <use xlink:href="#DejaVuSans-30" x="159.033203"/>
       <use xlink:href="#DejaVuSans-30" x="222.65625"/>
       <use xlink:href="#DejaVuSans-33" x="286.279297"/>
      </g>
     </g>
    </g>
    <g id="ytick_4">
     <g id="line2d_13">
      <path d="M 66.62 90.909054 
L 234.559285 90.909054 
" clip-path="url(#pe5158c68f2)" style="fill: none; stroke: #b0b0b0; stroke-width: 0.8; stroke-linecap: square"/>
     </g>
     <g id="line2d_14">
      <g>
       <use xlink:href="#mf9e1ceabec" x="66.62" y="90.909054" style="stroke: #000000; stroke-width: 0.8"/>
      </g>
     </g>
     <g id="text_8">
      <!-- 50.004 -->
      <g transform="translate(24.629375 94.708273) scale(0.1 -0.1)">
       <use xlink:href="#DejaVuSans-35"/>
       <use xlink:href="#DejaVuSans-30" x="63.623047"/>
       <use xlink:href="#DejaVuSans-2e" x="127.246094"/>
       <use xlink:href="#DejaVuSans-30" x="159.033203"/>
       <use xlink:href="#DejaVuSans-30" x="222.65625"/>
       <use xlink:href="#DejaVuSans-34" x="286.279297"/>
      </g>
     </g>
    </g>
    <g id="ytick_5">
     <g id="line2d_15">
      <path d="M 66.62 63.853924 
L 234.559285 63.853924 
" clip-path="url(#pe5158c68f2)" style="fill: none; stroke: #b0b0b0; stroke-width: 0.8; stroke-linecap: square"/>
     </g>
     <g id="line2d_16">
      <g>
       <use xlink:href="#mf9e1ceabec" x="66.62" y="63.853924" style="stroke: #000000; stroke-width: 0.8"/>
      </g>
     </g>
     <g id="text_9">
      <!-- 50.005 -->
      <g transform="translate(24.629375 67.653143) scale(0.1 -0.1)">
       <use xlink:href="#DejaVuSans-35"/>
       <use xlink:href="#DejaVuSans-30" x="63.623047"/>
       <use xlink:href="#DejaVuSans-2e" x="127.246094"/>
       <use xlink:href="#DejaVuSans-30" x="159.033203"/>
       <use xlink:href="#DejaVuSans-30" x="222.65625"/>
       <use xlink:href="#DejaVuSans-35" x="286.279297"/>
      </g>
     </g>
    </g>
    <g id="ytick_6">
     <g id="line2d_17">
      <path d="M 66.62 36.798794 
L 234.559285 36.798794 
" clip-path="url(#pe5158c68f2)" style="fill: none; stroke: #b0b0b0; stroke-width: 0.8; stroke-linecap: square"/>
     </g>
     <g id="line2d_18">
      <g>
       <use xlink:href="#mf9e1ceabec" x="66.62" y="36.798794" style="stroke: #000000; stroke-width: 0.8"/>
      </g>
     </g>
     <g id="text_10">
      <!-- 50.006 -->
      <g transform="translate(24.629375 40.598013) scale(0.1 -0.1)">
       <defs>
        <path id="DejaVuSans-36" d="M 2113 2584 
Q 1688 2584 1439 2293 
Q 1191 2003 1191 1497 
Q 1191 994 1439 701 
Q 1688 409 2113 409 
Q 2538 409 2786 701 
Q 3034 994 3034 1497 
Q 3034 2003 2786 2293 
Q 2538 2584 2113 2584 
z
M 3366 4563 
L 3366 3988 
Q 3128 4100 2886 4159 
Q 2644 4219 2406 4219 
Q 1781 4219 1451 3797 
Q 1122 3375 1075 2522 
Q 1259 2794 1537 2939 
Q 1816 3084 2150 3084 
Q 2853 3084 3261 2657 
Q 3669 2231 3669 1497 
Q 3669 778 3244 343 
Q 2819 -91 2113 -91 
Q 1303 -91 875 529 
Q 447 1150 447 2328 
Q 447 3434 972 4092 
Q 1497 4750 2381 4750 
Q 2619 4750 2861 4703 
Q 3103 4656 3366 4563 
z
" transform="scale(0.015625)"/>
       </defs>
       <use xlink:href="#DejaVuSans-35"/>
       <use xlink:href="#DejaVuSans-30" x="63.623047"/>
       <use xlink:href="#DejaVuSans-2e" x="127.246094"/>
       <use xlink:href="#DejaVuSans-30" x="159.033203"/>
       <use xlink:href="#DejaVuSans-30" x="222.65625"/>
       <use xlink:href="#DejaVuSans-36" x="286.279297"/>
      </g>
     </g>
    </g>
    <g id="text_11">
     <!-- Latitude [°] -->
     <g transform="translate(18.549688 121.169531) rotate(-90) scale(0.1 -0.1)">
      <defs>
       <path id="DejaVuSans-61" d="M 2194 1759 
Q 1497 1759 1228 1600 
Q 959 1441 959 1056 
Q 959 750 1161 570 
Q 1363 391 1709 391 
Q 2188 391 2477 730 
Q 2766 1069 2766 1631 
L 2766 1759 
L 2194 1759 
z
M 3341 1997 
L 3341 0 
L 2766 0 
L 2766 531 
Q 2569 213 2275 61 
Q 1981 -91 1556 -91 
Q 1019 -91 701 211 
Q 384 513 384 1019 
Q 384 1609 779 1909 
Q 1175 2209 1959 2209 
L 2766 2209 
L 2766 2266 
Q 2766 2663 2505 2880 
Q 2244 3097 1772 3097 
Q 1472 3097 1187 3025 
Q 903 2953 641 2809 
L 641 3341 
Q 956 3463 1253 3523 
Q 1550 3584 1831 3584 
Q 2591 3584 2966 3190 
Q 3341 2797 3341 1997 
z
" transform="scale(0.015625)"/>
      </defs>
      <use xlink:href="#DejaVuSans-4c"/>
      <use xlink:href="#DejaVuSans-61" x="55.712891"/>
      <use xlink:href="#DejaVuSans-74" x="116.992188"/>
      <use xlink:href="#DejaVuSans-69" x="156.201172"/>
      <use xlink:href="#DejaVuSans-74" x="183.984375"/>
      <use xlink:href="#DejaVuSans-75" x="223.193359"/>
      <use xlink:href="#DejaVuSans-64" x="286.572266"/>
      <use xlink:href="#DejaVuSans-65" x="350.048828"/>
      <use xlink:href="#DejaVuSans-20" x="411.572266"/>
      <use xlink:href="#DejaVuSans-5b" x="443.359375"/>
      <use xlink:href="#DejaVuSans-b0" x="482.373047"/>
      <use xlink:href="#DejaVuSans-5d" x="532.373047"/>
     </g>
    </g>
   </g>
   <g id="patch_3">
    <path d="M 66.62 174.04 
L 66.62 11.16 
" style="fill: none; stroke: #000000; stroke-width: 0.8; stroke-linejoin: miter; stroke-linecap: square"/>
   </g>
   <g id="patch_4">
    <path d="M 234.559285 174.04 
L 234.559285 11.16 
" style="fill: none; stroke: #000000; stroke-width: 0.8; stroke-linejoin: miter; stroke-linecap: square"/>
   </g>
   <g id="patch_5">
    <path d="M 66.62 174.04 
L 234.559285 174.04 
" style="fill: none; stroke: #000000; stroke-width: 0.8; stroke-linejoin: miter; stroke-linecap: square"/>
   </g>
   <g id="patch_6">
    <path d="M 66.62 11.16 
L 234.559285 11.16 
" style="fill: none; stroke: #000000; stroke-width: 0.8; stroke-linejoin: miter; stroke-linecap: square"/>
   </g>
   <g id="text_12">
    <!-- 0 -->
    <g transform="translate(74.253604 166.636364) scale(0.1 -0.1)">
     <use xlink:href="#DejaVuSans-30"/>
    </g>
   </g>
   <g id="text_13">
    <!-- 1 -->
    <g transform="translate(82.4626 153.48757) scale(0.1 -0.1)">
     <use xlink:href="#DejaVuSans-31"/>
    </g>
   </g>
   <g id="text_14">
    <!-- 2 -->
    <g transform="translate(90.791355 138.634304) scale(0.1 -0.1)">
     <use xlink:href="#DejaVuSans-32"/>
    </g>
   </g>
   <g id="text_15">
    <!-- 3 -->
    <g transform="translate(109.049294 109.928811) scale(0.1 -0.1)">
     <use xlink:href="#DejaVuSans-33"/>
    </g>
   </g>
   <g id="text_16">
    <!-- 4 -->
    <g transform="translate(118.00951 96.752962) scale(0.1 -0.1)">
     <use xlink:href="#DejaVuSans-34"/>
    </g>
   </g>
   <g id="text_17">
    <!-- 5 -->
    <g transform="translate(136.006155 70.238935) scale(0.1 -0.1)">
     <use xlink:href="#DejaVuSans-35"/>
    </g>
   </g>
   <g id="text_18">
    <!-- 6 -->
    <g transform="translate(148.482957 51.760281) scale(0.1 -0.1)">
     <use xlink:href="#DejaVuSans-36"/>
    </g>
   </g>
   <g id="text_19">
    <!-- 7 -->
    <g transform="translate(163.354957 40.532402) scale(0.1 -0.1)">
     <defs>
      <path id="DejaVuSans-37" d="M 525 4666 
L 3525 4666 
L 3525 4397 
L 1831 0 
L 1172 0 
L 2766 4134 
L 525 4134 
L 525 4666 
z
" transform="scale(0.015625)"/>
     </defs>
     <use xlink:href="#DejaVuSans-37"/>
    </g>
   </g>
   <g id="text_20">
    <!-- 8 -->
    <g transform="translate(180.872562 34.174446) scale(0.1 -0.1)">
     <defs>
      <path id="DejaVuSans-38" d="M 2034 2216 
Q 1584 2216 1326 1975 
Q 1069 1734 1069 1313 
Q 1069 891 1326 650 
Q 1584 409 2034 409 
Q 2484 409 2743 651 
Q 3003 894 3003 1313 
Q 3003 1734 2745 1975 
Q 2488 2216 2034 2216 
z
M 1403 2484 
Q 997 2584 770 2862 
Q 544 3141 544 3541 
Q 544 4100 942 4425 
Q 1341 4750 2034 4750 
Q 2731 4750 3128 4425 
Q 3525 4100 3525 3541 
Q 3525 3141 3298 2862 
Q 3072 2584 2669 2484 
Q 3125 2378 3379 2068 
Q 3634 1759 3634 1313 
Q 3634 634 3220 271 
Q 2806 -91 2034 -91 
Q 1263 -91 848 271 
Q 434 634 434 1313 
Q 434 1759 690 2068 
Q 947 2378 1403 2484 
z
M 1172 3481 
Q 1172 3119 1398 2916 
Q 1625 2713 2034 2713 
Q 2441 2713 2670 2916 
Q 2900 3119 2900 3481 
Q 2900 3844 2670 4047 
Q 2441 4250 2034 4250 
Q 1625 4250 1398 4047 
Q 1172 3844 1172 3481 
z
" transform="scale(0.015625)"/>
     </defs>
     <use xlink:href="#DejaVuSans-38"/>
    </g>
   </g>
   <g id="text_21">
    <!-- 9 -->
    <g transform="translate(200.545845 28.574035) scale(0.1 -0.1)">
     <defs>
      <path id="DejaVuSans-39" d="M 703 97 
L 703 672 
Q 941 559 1184 500 
Q 1428 441 1663 441 
Q 2288 441 2617 861 
Q 2947 1281 2994 2138 
Q 2813 1869 2534 1725 
Q 2256 1581 1919 1581 
Q 1219 1581 811 2004 
Q 403 2428 403 3163 
Q 403 3881 828 4315 
Q 1253 4750 1959 4750 
Q 2769 4750 3195 4129 
Q 3622 3509 3622 2328 
Q 3622 1225 3098 567 
Q 2575 -91 1691 -91 
Q 1453 -91 1209 -44 
Q 966 3 703 97 
z
M 1959 2075 
Q 2384 2075 2632 2365 
Q 2881 2656 2881 3163 
Q 2881 3666 2632 3958 
Q 2384 4250 1959 4250 
Q 1534 4250 1286 3958 
Q 1038 3666 1038 3163 
Q 1038 2656 1286 2365 
Q 1534 2075 1959 2075 
z
" transform="scale(0.015625)"/>
     </defs>
     <use xlink:href="#DejaVuSans-39"/>
    </g>
   </g>
   <g id="text_22">
    <!-- 10 -->
    <g transform="translate(223.583292 20.32222) scale(0.1 -0.1)">
     <use xlink:href="#DejaVuSans-31"/>
     <use xlink:href="#DejaVuSans-30" x="63.623047"/>
    </g>
   </g>
   <g id="text_23">
    <!-- 11 -->
    <g transform="translate(226.925681 18.563636) scale(0.1 -0.1)">
     <use xlink:href="#DejaVuSans-31"/>
     <use xlink:href="#DejaVuSans-31" x="63.623047"/>
    </g>
   </g>
  </g>
  <g id="axes_2">
   <g id="patch_7">
    <path d="M 296.681054 174.04 
L 632.559624 174.04 
L 632.559624 11.16 
L 296.681054 11.16 
z
" style="fill: #ffffff"/>
   </g>
   <g id="PathCollection_13">
    <defs>
     <path id="maf33d97fcf" d="M -6.123724 0 
L 6.123724 0 
M 0 6.123724 
L 0 -6.123724 
" style="stroke: #000000; stroke-width: 1.5"/>
    </defs>
    <g clip-path="url(#pdde6bb8887)">
     <use xlink:href="#maf33d97fcf" x="311.948261" y="23.592521" style="stroke: #000000; stroke-width: 1.5"/>
    </g>
   </g>
   <g id="PathCollection_14">
    <g clip-path="url(#pdde6bb8887)">
     <use xlink:href="#maf33d97fcf" x="311.948261" y="20.718873" style="stroke: #000000; stroke-width: 1.5"/>
    </g>
   </g>
   <g id="PathCollection_15">
    <g clip-path="url(#pdde6bb8887)">
     <use xlink:href="#maf33d97fcf" x="311.948261" y="18.563636" style="stroke: #000000; stroke-width: 1.5"/>
    </g>
   </g>
   <g id="PathCollection_16">
    <g clip-path="url(#pdde6bb8887)">
     <use xlink:href="#maf33d97fcf" x="331.819148" y="26.067052" style="stroke: #000000; stroke-width: 1.5"/>
    </g>
   </g>
   <g id="PathCollection_17">
    <defs>
     <path id="m0ad6799aef" d="M 0 3.535534 
C 0.937635 3.535534 1.836992 3.163008 2.5 2.5 
C 3.163008 1.836992 3.535534 0.937635 3.535534 0 
C 3.535534 -0.937635 3.163008 -1.836992 2.5 -2.5 
C 1.836992 -3.163008 0.937635 -3.535534 0 -3.535534 
C -0.937635 -3.535534 -1.836992 -3.163008 -2.5 -2.5 
C -3.163008 -1.836992 -3.535534 -0.937635 -3.535534 0 
C -3.535534 0.937635 -3.163008 1.836992 -2.5 2.5 
C -1.836992 3.163008 -0.937635 3.535534 0 3.535534 
z
" style="stroke: #000000"/>
    </defs>
    <g clip-path="url(#pdde6bb8887)">
     <use xlink:href="#m0ad6799aef" x="331.819148" y="39.237942" style="stroke: #000000"/>
    </g>
   </g>
   <g id="PathCollection_18">
    <g clip-path="url(#pdde6bb8887)">
     <use xlink:href="#maf33d97fcf" x="353.13245" y="41.473002" style="stroke: #000000; stroke-width: 1.5"/>
    </g>
   </g>
   <g id="PathCollection_19">
    <g clip-path="url(#pdde6bb8887)">
     <use xlink:href="#m0ad6799aef" x="353.13245" y="54.643891" style="stroke: #000000"/>
    </g>
   </g>
   <g id="PathCollection_20">
    <g clip-path="url(#pdde6bb8887)">
     <use xlink:href="#maf33d97fcf" x="396.872904" y="53.28689" style="stroke: #000000; stroke-width: 1.5"/>
    </g>
   </g>
   <g id="PathCollection_21">
    <g clip-path="url(#pdde6bb8887)">
     <use xlink:href="#m0ad6799aef" x="396.872904" y="66.45778" style="stroke: #000000"/>
    </g>
   </g>
   <g id="PathCollection_22">
    <g clip-path="url(#pdde6bb8887)">
     <use xlink:href="#maf33d97fcf" x="417.661694" y="55.28248" style="stroke: #000000; stroke-width: 1.5"/>
    </g>
   </g>
   <g id="PathCollection_23">
    <g clip-path="url(#pdde6bb8887)">
     <use xlink:href="#m0ad6799aef" x="417.661694" y="68.453369" style="stroke: #000000"/>
    </g>
   </g>
   <g id="PathCollection_24">
    <g clip-path="url(#pdde6bb8887)">
     <use xlink:href="#maf33d97fcf" x="459.475895" y="53.366714" style="stroke: #000000; stroke-width: 1.5"/>
    </g>
   </g>
   <g id="PathCollection_25">
    <g clip-path="url(#pdde6bb8887)">
     <use xlink:href="#m0ad6799aef" x="459.475895" y="66.537604" style="stroke: #000000"/>
    </g>
   </g>
   <g id="PathCollection_26">
    <g clip-path="url(#pdde6bb8887)">
     <use xlink:href="#maf33d97fcf" x="488.535842" y="69.650723" style="stroke: #000000; stroke-width: 1.5"/>
    </g>
   </g>
   <g id="PathCollection_27">
    <g clip-path="url(#pdde6bb8887)">
     <use xlink:href="#m0ad6799aef" x="488.535842" y="82.821612" style="stroke: #000000"/>
    </g>
   </g>
   <g id="PathCollection_28">
    <g clip-path="url(#pdde6bb8887)">
     <use xlink:href="#maf33d97fcf" x="515.367161" y="87.611027" style="stroke: #000000; stroke-width: 1.5"/>
    </g>
   </g>
   <g id="PathCollection_29">
    <g clip-path="url(#pdde6bb8887)">
     <use xlink:href="#m0ad6799aef" x="515.367161" y="100.781916" style="stroke: #000000"/>
    </g>
   </g>
   <g id="PathCollection_30">
    <g clip-path="url(#pdde6bb8887)">
     <use xlink:href="#maf33d97fcf" x="542.802928" y="101.10121" style="stroke: #000000; stroke-width: 1.5"/>
    </g>
   </g>
   <g id="PathCollection_31">
    <g clip-path="url(#pdde6bb8887)">
     <use xlink:href="#m0ad6799aef" x="542.802928" y="114.2721" style="stroke: #000000"/>
    </g>
   </g>
   <g id="PathCollection_32">
    <g clip-path="url(#pdde6bb8887)">
     <use xlink:href="#maf33d97fcf" x="573.54875" y="113.872982" style="stroke: #000000; stroke-width: 1.5"/>
    </g>
   </g>
   <g id="PathCollection_33">
    <g clip-path="url(#pdde6bb8887)">
     <use xlink:href="#m0ad6799aef" x="573.54875" y="127.043872" style="stroke: #000000"/>
    </g>
   </g>
   <g id="PathCollection_34">
    <g clip-path="url(#pdde6bb8887)">
     <use xlink:href="#maf33d97fcf" x="611.428278" y="149.155001" style="stroke: #000000; stroke-width: 1.5"/>
    </g>
   </g>
   <g id="PathCollection_35">
    <g clip-path="url(#pdde6bb8887)">
     <use xlink:href="#m0ad6799aef" x="611.428278" y="162.325891" style="stroke: #000000"/>
    </g>
   </g>
   <g id="PathCollection_36">
    <g clip-path="url(#pdde6bb8887)">
     <use xlink:href="#maf33d97fcf" x="617.292416" y="153.465474" style="stroke: #000000; stroke-width: 1.5"/>
    </g>
   </g>
   <g id="PathCollection_37">
    <g clip-path="url(#pdde6bb8887)">
     <use xlink:href="#m0ad6799aef" x="617.292416" y="166.636364" style="stroke: #000000"/>
    </g>
   </g>
   <g id="matplotlib.axis_3">
    <g id="xtick_4">
     <g id="line2d_19">
      <path d="M 311.948261 174.04 
L 311.948261 11.16 
" clip-path="url(#pdde6bb8887)" style="fill: none; stroke: #b0b0b0; stroke-width: 0.8; stroke-linecap: square"/>
     </g>
     <g id="line2d_20">
      <g>
       <use xlink:href="#mb6f564565c" x="311.948261" y="174.04" style="stroke: #000000; stroke-width: 0.8"/>
      </g>
     </g>
     <g id="text_24">
      <!-- 0 -->
      <g transform="translate(308.767011 188.638438) scale(0.1 -0.1)">
       <use xlink:href="#DejaVuSans-30"/>
      </g>
     </g>
    </g>
    <g id="xtick_5">
     <g id="line2d_21">
      <path d="M 363.911246 174.04 
L 363.911246 11.16 
" clip-path="url(#pdde6bb8887)" style="fill: none; stroke: #b0b0b0; stroke-width: 0.8; stroke-linecap: square"/>
     </g>
     <g id="line2d_22">
      <g>
       <use xlink:href="#mb6f564565c" x="363.911246" y="174.04" style="stroke: #000000; stroke-width: 0.8"/>
      </g>
     </g>
     <g id="text_25">
      <!-- 200 -->
      <g transform="translate(354.367496 188.638438) scale(0.1 -0.1)">
       <use xlink:href="#DejaVuSans-32"/>
       <use xlink:href="#DejaVuSans-30" x="63.623047"/>
       <use xlink:href="#DejaVuSans-30" x="127.246094"/>
      </g>
     </g>
    </g>
    <g id="xtick_6">
     <g id="line2d_23">
      <path d="M 415.874231 174.04 
L 415.874231 11.16 
" clip-path="url(#pdde6bb8887)" style="fill: none; stroke: #b0b0b0; stroke-width: 0.8; stroke-linecap: square"/>
     </g>
     <g id="line2d_24">
      <g>
       <use xlink:href="#mb6f564565c" x="415.874231" y="174.04" style="stroke: #000000; stroke-width: 0.8"/>
      </g>
     </g>
     <g id="text_26">
      <!-- 400 -->
      <g transform="translate(406.330481 188.638438) scale(0.1 -0.1)">
       <use xlink:href="#DejaVuSans-34"/>
       <use xlink:href="#DejaVuSans-30" x="63.623047"/>
       <use xlink:href="#DejaVuSans-30" x="127.246094"/>
      </g>
     </g>
    </g>
    <g id="xtick_7">
     <g id="line2d_25">
      <path d="M 467.837217 174.04 
L 467.837217 11.16 
" clip-path="url(#pdde6bb8887)" style="fill: none; stroke: #b0b0b0; stroke-width: 0.8; stroke-linecap: square"/>
     </g>
     <g id="line2d_26">
      <g>
       <use xlink:href="#mb6f564565c" x="467.837217" y="174.04" style="stroke: #000000; stroke-width: 0.8"/>
      </g>
     </g>
     <g id="text_27">
      <!-- 600 -->
      <g transform="translate(458.293467 188.638438) scale(0.1 -0.1)">
       <use xlink:href="#DejaVuSans-36"/>
       <use xlink:href="#DejaVuSans-30" x="63.623047"/>
       <use xlink:href="#DejaVuSans-30" x="127.246094"/>
      </g>
     </g>
    </g>
    <g id="xtick_8">
     <g id="line2d_27">
      <path d="M 519.800202 174.04 
L 519.800202 11.16 
" clip-path="url(#pdde6bb8887)" style="fill: none; stroke: #b0b0b0; stroke-width: 0.8; stroke-linecap: square"/>
     </g>
     <g id="line2d_28">
      <g>
       <use xlink:href="#mb6f564565c" x="519.800202" y="174.04" style="stroke: #000000; stroke-width: 0.8"/>
      </g>
     </g>
     <g id="text_28">
      <!-- 800 -->
      <g transform="translate(510.256452 188.638438) scale(0.1 -0.1)">
       <use xlink:href="#DejaVuSans-38"/>
       <use xlink:href="#DejaVuSans-30" x="63.623047"/>
       <use xlink:href="#DejaVuSans-30" x="127.246094"/>
      </g>
     </g>
    </g>
    <g id="xtick_9">
     <g id="line2d_29">
      <path d="M 571.763187 174.04 
L 571.763187 11.16 
" clip-path="url(#pdde6bb8887)" style="fill: none; stroke: #b0b0b0; stroke-width: 0.8; stroke-linecap: square"/>
     </g>
     <g id="line2d_30">
      <g>
       <use xlink:href="#mb6f564565c" x="571.763187" y="174.04" style="stroke: #000000; stroke-width: 0.8"/>
      </g>
     </g>
     <g id="text_29">
      <!-- 1000 -->
      <g transform="translate(559.038187 188.638438) scale(0.1 -0.1)">
       <use xlink:href="#DejaVuSans-31"/>
       <use xlink:href="#DejaVuSans-30" x="63.623047"/>
       <use xlink:href="#DejaVuSans-30" x="127.246094"/>
       <use xlink:href="#DejaVuSans-30" x="190.869141"/>
      </g>
     </g>
    </g>
    <g id="xtick_10">
     <g id="line2d_31">
      <path d="M 623.726172 174.04 
L 623.726172 11.16 
" clip-path="url(#pdde6bb8887)" style="fill: none; stroke: #b0b0b0; stroke-width: 0.8; stroke-linecap: square"/>
     </g>
     <g id="line2d_32">
      <g>
       <use xlink:href="#mb6f564565c" x="623.726172" y="174.04" style="stroke: #000000; stroke-width: 0.8"/>
      </g>
     </g>
     <g id="text_30">
      <!-- 1200 -->
      <g transform="translate(611.001172 188.638438) scale(0.1 -0.1)">
       <use xlink:href="#DejaVuSans-31"/>
       <use xlink:href="#DejaVuSans-32" x="63.623047"/>
       <use xlink:href="#DejaVuSans-30" x="127.246094"/>
       <use xlink:href="#DejaVuSans-30" x="190.869141"/>
      </g>
     </g>
    </g>
    <g id="text_31">
     <!-- Transmitting distance [m] -->
     <g transform="translate(400.362526 202.316563) scale(0.1 -0.1)">
      <defs>
       <path id="DejaVuSans-54" d="M -19 4666 
L 3928 4666 
L 3928 4134 
L 2272 4134 
L 2272 0 
L 1638 0 
L 1638 4134 
L -19 4134 
L -19 4666 
z
" transform="scale(0.015625)"/>
       <path id="DejaVuSans-72" d="M 2631 2963 
Q 2534 3019 2420 3045 
Q 2306 3072 2169 3072 
Q 1681 3072 1420 2755 
Q 1159 2438 1159 1844 
L 1159 0 
L 581 0 
L 581 3500 
L 1159 3500 
L 1159 2956 
Q 1341 3275 1631 3429 
Q 1922 3584 2338 3584 
Q 2397 3584 2469 3576 
Q 2541 3569 2628 3553 
L 2631 2963 
z
" transform="scale(0.015625)"/>
       <path id="DejaVuSans-73" d="M 2834 3397 
L 2834 2853 
Q 2591 2978 2328 3040 
Q 2066 3103 1784 3103 
Q 1356 3103 1142 2972 
Q 928 2841 928 2578 
Q 928 2378 1081 2264 
Q 1234 2150 1697 2047 
L 1894 2003 
Q 2506 1872 2764 1633 
Q 3022 1394 3022 966 
Q 3022 478 2636 193 
Q 2250 -91 1575 -91 
Q 1294 -91 989 -36 
Q 684 19 347 128 
L 347 722 
Q 666 556 975 473 
Q 1284 391 1588 391 
Q 1994 391 2212 530 
Q 2431 669 2431 922 
Q 2431 1156 2273 1281 
Q 2116 1406 1581 1522 
L 1381 1569 
Q 847 1681 609 1914 
Q 372 2147 372 2553 
Q 372 3047 722 3315 
Q 1072 3584 1716 3584 
Q 2034 3584 2315 3537 
Q 2597 3491 2834 3397 
z
" transform="scale(0.015625)"/>
       <path id="DejaVuSans-6d" d="M 3328 2828 
Q 3544 3216 3844 3400 
Q 4144 3584 4550 3584 
Q 5097 3584 5394 3201 
Q 5691 2819 5691 2113 
L 5691 0 
L 5113 0 
L 5113 2094 
Q 5113 2597 4934 2840 
Q 4756 3084 4391 3084 
Q 3944 3084 3684 2787 
Q 3425 2491 3425 1978 
L 3425 0 
L 2847 0 
L 2847 2094 
Q 2847 2600 2669 2842 
Q 2491 3084 2119 3084 
Q 1678 3084 1418 2786 
Q 1159 2488 1159 1978 
L 1159 0 
L 581 0 
L 581 3500 
L 1159 3500 
L 1159 2956 
Q 1356 3278 1631 3431 
Q 1906 3584 2284 3584 
Q 2666 3584 2933 3390 
Q 3200 3197 3328 2828 
z
" transform="scale(0.015625)"/>
       <path id="DejaVuSans-63" d="M 3122 3366 
L 3122 2828 
Q 2878 2963 2633 3030 
Q 2388 3097 2138 3097 
Q 1578 3097 1268 2742 
Q 959 2388 959 1747 
Q 959 1106 1268 751 
Q 1578 397 2138 397 
Q 2388 397 2633 464 
Q 2878 531 3122 666 
L 3122 134 
Q 2881 22 2623 -34 
Q 2366 -91 2075 -91 
Q 1284 -91 818 406 
Q 353 903 353 1747 
Q 353 2603 823 3093 
Q 1294 3584 2113 3584 
Q 2378 3584 2631 3529 
Q 2884 3475 3122 3366 
z
" transform="scale(0.015625)"/>
      </defs>
      <use xlink:href="#DejaVuSans-54"/>
      <use xlink:href="#DejaVuSans-72" x="46.333984"/>
      <use xlink:href="#DejaVuSans-61" x="87.447266"/>
      <use xlink:href="#DejaVuSans-6e" x="148.726562"/>
      <use xlink:href="#DejaVuSans-73" x="212.105469"/>
      <use xlink:href="#DejaVuSans-6d" x="264.205078"/>
      <use xlink:href="#DejaVuSans-69" x="361.617188"/>
      <use xlink:href="#DejaVuSans-74" x="389.400391"/>
      <use xlink:href="#DejaVuSans-74" x="428.609375"/>
      <use xlink:href="#DejaVuSans-69" x="467.818359"/>
      <use xlink:href="#DejaVuSans-6e" x="495.601562"/>
      <use xlink:href="#DejaVuSans-67" x="558.980469"/>
      <use xlink:href="#DejaVuSans-20" x="622.457031"/>
      <use xlink:href="#DejaVuSans-64" x="654.244141"/>
      <use xlink:href="#DejaVuSans-69" x="717.720703"/>
      <use xlink:href="#DejaVuSans-73" x="745.503906"/>
      <use xlink:href="#DejaVuSans-74" x="797.603516"/>
      <use xlink:href="#DejaVuSans-61" x="836.8125"/>
      <use xlink:href="#DejaVuSans-6e" x="898.091797"/>
      <use xlink:href="#DejaVuSans-63" x="961.470703"/>
      <use xlink:href="#DejaVuSans-65" x="1016.451172"/>
      <use xlink:href="#DejaVuSans-20" x="1077.974609"/>
      <use xlink:href="#DejaVuSans-5b" x="1109.761719"/>
      <use xlink:href="#DejaVuSans-6d" x="1148.775391"/>
      <use xlink:href="#DejaVuSans-5d" x="1246.1875"/>
     </g>
    </g>
   </g>
   <g id="matplotlib.axis_4">
    <g id="ytick_7">
     <g id="line2d_33">
      <path d="M 296.681054 155.940005 
L 632.559624 155.940005 
" clip-path="url(#pdde6bb8887)" style="fill: none; stroke: #b0b0b0; stroke-width: 0.8; stroke-linecap: square"/>
     </g>
     <g id="line2d_34">
      <g>
       <use xlink:href="#mf9e1ceabec" x="296.681054" y="155.940005" style="stroke: #000000; stroke-width: 0.8"/>
      </g>
     </g>
     <g id="text_32">
      <!-- 290 -->
      <g transform="translate(270.593554 159.739224) scale(0.1 -0.1)">
       <use xlink:href="#DejaVuSans-32"/>
       <use xlink:href="#DejaVuSans-39" x="63.623047"/>
       <use xlink:href="#DejaVuSans-30" x="127.246094"/>
      </g>
     </g>
    </g>
    <g id="ytick_8">
     <g id="line2d_35">
      <path d="M 296.681054 116.028219 
L 632.559624 116.028219 
" clip-path="url(#pdde6bb8887)" style="fill: none; stroke: #b0b0b0; stroke-width: 0.8; stroke-linecap: square"/>
     </g>
     <g id="line2d_36">
      <g>
       <use xlink:href="#mf9e1ceabec" x="296.681054" y="116.028219" style="stroke: #000000; stroke-width: 0.8"/>
      </g>
     </g>
     <g id="text_33">
      <!-- 295 -->
      <g transform="translate(270.593554 119.827437) scale(0.1 -0.1)">
       <use xlink:href="#DejaVuSans-32"/>
       <use xlink:href="#DejaVuSans-39" x="63.623047"/>
       <use xlink:href="#DejaVuSans-35" x="127.246094"/>
      </g>
     </g>
    </g>
    <g id="ytick_9">
     <g id="line2d_37">
      <path d="M 296.681054 76.116432 
L 632.559624 76.116432 
" clip-path="url(#pdde6bb8887)" style="fill: none; stroke: #b0b0b0; stroke-width: 0.8; stroke-linecap: square"/>
     </g>
     <g id="line2d_38">
      <g>
       <use xlink:href="#mf9e1ceabec" x="296.681054" y="76.116432" style="stroke: #000000; stroke-width: 0.8"/>
      </g>
     </g>
     <g id="text_34">
      <!-- 300 -->
      <g transform="translate(270.593554 79.915651) scale(0.1 -0.1)">
       <use xlink:href="#DejaVuSans-33"/>
       <use xlink:href="#DejaVuSans-30" x="63.623047"/>
       <use xlink:href="#DejaVuSans-30" x="127.246094"/>
      </g>
     </g>
    </g>
    <g id="ytick_10">
     <g id="line2d_39">
      <path d="M 296.681054 36.204646 
L 632.559624 36.204646 
" clip-path="url(#pdde6bb8887)" style="fill: none; stroke: #b0b0b0; stroke-width: 0.8; stroke-linecap: square"/>
     </g>
     <g id="line2d_40">
      <g>
       <use xlink:href="#mf9e1ceabec" x="296.681054" y="36.204646" style="stroke: #000000; stroke-width: 0.8"/>
      </g>
     </g>
     <g id="text_35">
      <!-- 305 -->
      <g transform="translate(270.593554 40.003865) scale(0.1 -0.1)">
       <use xlink:href="#DejaVuSans-33"/>
       <use xlink:href="#DejaVuSans-30" x="63.623047"/>
       <use xlink:href="#DejaVuSans-35" x="127.246094"/>
      </g>
     </g>
    </g>
    <g id="text_36">
     <!-- Elevation [m] -->
     <g transform="translate(264.513866 126.186719) rotate(-90) scale(0.1 -0.1)">
      <defs>
       <path id="DejaVuSans-45" d="M 628 4666 
L 3578 4666 
L 3578 4134 
L 1259 4134 
L 1259 2753 
L 3481 2753 
L 3481 2222 
L 1259 2222 
L 1259 531 
L 3634 531 
L 3634 0 
L 628 0 
L 628 4666 
z
" transform="scale(0.015625)"/>
       <path id="DejaVuSans-6c" d="M 603 4863 
L 1178 4863 
L 1178 0 
L 603 0 
L 603 4863 
z
" transform="scale(0.015625)"/>
       <path id="DejaVuSans-76" d="M 191 3500 
L 800 3500 
L 1894 563 
L 2988 3500 
L 3597 3500 
L 2284 0 
L 1503 0 
L 191 3500 
z
" transform="scale(0.015625)"/>
      </defs>
      <use xlink:href="#DejaVuSans-45"/>
      <use xlink:href="#DejaVuSans-6c" x="63.183594"/>
      <use xlink:href="#DejaVuSans-65" x="90.966797"/>
      <use xlink:href="#DejaVuSans-76" x="152.490234"/>
      <use xlink:href="#DejaVuSans-61" x="211.669922"/>
      <use xlink:href="#DejaVuSans-74" x="272.949219"/>
      <use xlink:href="#DejaVuSans-69" x="312.158203"/>
      <use xlink:href="#DejaVuSans-6f" x="339.941406"/>
      <use xlink:href="#DejaVuSans-6e" x="401.123047"/>
      <use xlink:href="#DejaVuSans-20" x="464.501953"/>
      <use xlink:href="#DejaVuSans-5b" x="496.289062"/>
      <use xlink:href="#DejaVuSans-6d" x="535.302734"/>
      <use xlink:href="#DejaVuSans-5d" x="632.714844"/>
     </g>
    </g>
   </g>
   <g id="line2d_41">
    <path d="M 311.948261 25.109169 
L 313.36761 26.306523 
L 314.786959 27.5837 
L 316.206308 28.621407 
L 317.625658 29.81876 
L 319.045007 31.095937 
L 320.464356 32.373114 
L 321.883705 33.809939 
L 323.303054 34.927469 
L 324.722403 36.044999 
L 326.141752 36.923058 
L 327.561101 37.721294 
L 328.98045 38.439706 
L 330.399799 38.838824 
L 331.819148 39.237942 
" clip-path="url(#pdde6bb8887)" style="fill: none; stroke: #d95f02; stroke-width: 1.5; stroke-linecap: square"/>
   </g>
   <g id="line2d_42">
    <path d="M 331.819148 174.04 
L 331.819148 11.16 
" clip-path="url(#pdde6bb8887)" style="fill: none; stroke-dasharray: 5.55,2.4; stroke-dashoffset: 0; stroke: #808080; stroke-opacity: 0.5; stroke-width: 1.5"/>
   </g>
   <g id="line2d_43">
    <path d="M 311.948261 25.109169 
L 313.321068 26.306523 
L 314.693874 27.424053 
L 316.06668 28.461759 
L 317.439487 29.659113 
L 318.812293 30.776643 
L 320.185099 32.05382 
L 321.557905 33.410821 
L 322.930712 34.528351 
L 324.303518 35.645881 
L 325.676324 36.52394 
L 327.049131 37.402 
L 328.421937 38.120412 
L 329.794743 38.759 
L 331.16755 39.158118 
L 332.540356 39.557236 
L 333.913162 40.116001 
L 335.285968 40.834413 
L 336.658775 41.712472 
L 338.031581 42.590532 
L 339.404387 43.468591 
L 340.777194 44.426474 
L 342.15 45.144886 
L 343.522806 46.422063 
L 344.895613 47.779064 
L 346.268419 49.295712 
L 347.641225 50.732536 
L 349.014031 51.92989 
L 350.386838 52.887773 
L 351.759644 53.765832 
L 353.13245 54.643891 
" clip-path="url(#pdde6bb8887)" style="fill: none; stroke: #7570b3; stroke-width: 1.5; stroke-linecap: square"/>
   </g>
   <g id="line2d_44">
    <path d="M 353.13245 174.04 
L 353.13245 11.16 
" clip-path="url(#pdde6bb8887)" style="fill: none; stroke-dasharray: 5.55,2.4; stroke-dashoffset: 0; stroke: #808080; stroke-opacity: 0.5; stroke-width: 1.5"/>
   </g>
   <g id="line2d_45">
    <path d="M 311.948261 25.109169 
L 313.275209 26.226699 
L 314.602156 27.424053 
L 315.929104 28.381936 
L 317.256052 29.499466 
L 318.582999 30.616996 
L 319.909947 31.894173 
L 321.236894 33.17135 
L 322.563842 34.368704 
L 323.890789 35.40641 
L 325.217737 36.284469 
L 326.544684 37.162529 
L 327.871632 37.801117 
L 329.198579 38.51953 
L 330.525527 38.918647 
L 331.852474 39.317765 
L 333.179422 39.63706 
L 334.50637 40.275648 
L 335.833317 41.073884 
L 337.160265 41.951943 
L 338.487212 42.830002 
L 339.81416 43.628238 
L 341.141107 44.426474 
L 342.468055 45.22471 
L 343.795002 46.34224 
L 345.12195 47.779064 
L 346.448897 49.295712 
L 347.775845 50.81236 
L 349.102792 52.009713 
L 350.42974 52.967596 
L 351.756688 53.845655 
L 353.083635 54.723715 
L 354.410583 55.601774 
L 355.73753 56.240363 
L 357.064478 56.878951 
L 358.391425 57.437716 
L 359.718373 58.076305 
L 361.04532 58.714893 
L 362.372268 59.353482 
L 363.699215 59.672776 
L 365.026163 60.151718 
L 366.35311 60.790306 
L 367.680058 61.349071 
L 369.007006 61.98766 
L 370.333953 62.386778 
L 371.660901 62.945543 
L 372.987848 63.344661 
L 374.314796 63.743778 
L 375.641743 63.983249 
L 376.968691 64.22272 
L 378.295638 64.621838 
L 379.622586 64.861309 
L 380.949533 65.260426 
L 382.276481 65.260426 
L 383.603428 65.499897 
L 384.930376 65.499897 
L 386.257324 65.659544 
L 387.584271 65.899015 
L 388.911219 65.899015 
L 390.238166 66.777074 
L 391.565114 67.495486 
L 392.892061 67.814781 
L 394.219009 67.016545 
L 395.545956 66.777074 
L 396.872904 66.45778 
" clip-path="url(#pdde6bb8887)" style="fill: none; stroke: #e7298a; stroke-width: 1.5; stroke-linecap: square"/>
   </g>
   <g id="line2d_46">
    <path d="M 396.872904 174.04 
L 396.872904 11.16 
" clip-path="url(#pdde6bb8887)" style="fill: none; stroke-dasharray: 5.55,2.4; stroke-dashoffset: 0; stroke: #808080; stroke-opacity: 0.5; stroke-width: 1.5"/>
   </g>
   <g id="line2d_47">
    <path d="M 311.948261 25.109169 
L 313.269679 26.226699 
L 314.591097 27.424053 
L 315.912515 28.381936 
L 317.233933 29.499466 
L 318.555351 30.616996 
L 319.876769 31.894173 
L 321.198187 33.17135 
L 322.519605 34.28888 
L 323.841023 35.40641 
L 325.16244 36.284469 
L 326.483858 37.162529 
L 327.805276 37.801117 
L 329.126694 38.51953 
L 330.448112 38.838824 
L 331.76953 39.237942 
L 333.090948 39.557236 
L 334.412366 40.195825 
L 335.733784 40.914237 
L 337.055202 41.792296 
L 338.37662 42.670355 
L 339.698038 43.468591 
L 341.019455 44.266827 
L 342.340873 45.065062 
L 343.662291 46.182593 
L 344.983709 47.619417 
L 346.305127 49.136065 
L 347.626545 50.652713 
L 348.947963 51.92989 
L 350.269381 52.887773 
L 351.590799 53.845655 
L 352.912217 54.723715 
L 354.233635 55.681598 
L 355.555052 56.40001 
L 356.87647 57.038598 
L 358.197888 57.677187 
L 359.519306 58.315776 
L 360.840724 59.114011 
L 362.162142 59.672776 
L 363.48356 60.151718 
L 364.804978 60.550836 
L 366.126396 61.109601 
L 367.447814 61.748189 
L 368.769232 62.306954 
L 370.09065 62.865719 
L 371.412067 63.424484 
L 372.733485 63.983249 
L 374.054903 64.382367 
L 375.376321 64.621838 
L 376.697739 64.941132 
L 378.019157 65.34025 
L 379.340575 65.659544 
L 380.661993 65.899015 
L 381.983411 66.058662 
L 383.304829 66.218309 
L 384.626247 66.298133 
L 385.947664 66.377956 
L 387.269082 66.537604 
L 388.5905 66.777074 
L 389.911918 67.335839 
L 391.233336 68.453369 
L 392.554754 69.251605 
L 393.876172 68.613016 
L 395.19759 68.134075 
L 396.519008 67.734957 
L 397.840426 67.495486 
L 399.161844 67.176192 
L 400.483262 67.096369 
L 401.804679 66.936721 
L 403.126097 67.096369 
L 404.447515 67.096369 
L 405.768933 67.176192 
L 407.090351 67.016545 
L 408.411769 67.176192 
L 409.733187 67.256016 
L 411.054605 67.415663 
L 412.376023 67.734957 
L 413.697441 67.814781 
L 415.018859 68.134075 
L 416.340277 68.134075 
L 417.661694 68.453369 
" clip-path="url(#pdde6bb8887)" style="fill: none; stroke: #66a61e; stroke-width: 1.5; stroke-linecap: square"/>
   </g>
   <g id="line2d_48">
    <path d="M 417.661694 174.04 
L 417.661694 11.16 
" clip-path="url(#pdde6bb8887)" style="fill: none; stroke-dasharray: 5.55,2.4; stroke-dashoffset: 0; stroke: #808080; stroke-opacity: 0.5; stroke-width: 1.5"/>
   </g>
   <g id="line2d_49">
    <path d="M 311.948261 25.109169 
L 313.265472 26.306523 
L 314.582683 27.424053 
L 315.899894 28.381936 
L 317.217105 29.499466 
L 318.534316 30.616996 
L 319.851527 31.894173 
L 321.168738 33.091527 
L 322.485949 34.28888 
L 323.80316 35.40641 
L 325.120371 36.284469 
L 326.437582 37.162529 
L 327.754794 37.801117 
L 329.072005 38.439706 
L 330.389216 38.838824 
L 331.706427 39.158118 
L 333.023638 39.477412 
L 334.340849 40.036177 
L 335.65806 40.75459 
L 336.975271 41.632649 
L 338.292482 42.510708 
L 339.609693 43.388767 
L 340.926904 44.187003 
L 342.244115 44.985239 
L 343.561326 45.943122 
L 344.878537 47.379946 
L 346.195748 48.976418 
L 347.512959 50.493065 
L 348.83017 51.850066 
L 350.147381 52.807949 
L 351.464592 53.765832 
L 352.781803 54.803538 
L 354.099014 55.761421 
L 355.416225 56.719304 
L 356.733436 57.357893 
L 358.050647 58.076305 
L 359.367858 58.714893 
L 360.685069 59.672776 
L 362.00228 60.231541 
L 363.319491 60.710483 
L 364.636702 61.109601 
L 365.953913 61.668366 
L 367.271124 62.306954 
L 368.588335 62.865719 
L 369.905546 63.504308 
L 371.222757 64.063073 
L 372.539968 64.701661 
L 373.857179 65.100779 
L 375.17439 65.579721 
L 376.491601 65.899015 
L 377.808812 66.298133 
L 379.126023 66.617427 
L 380.443234 66.856898 
L 381.760445 67.096369 
L 383.077656 67.256016 
L 384.394867 67.495486 
L 385.712078 67.495486 
L 387.029289 67.734957 
L 388.3465 67.974428 
L 389.663711 68.533193 
L 390.980922 69.81037 
L 392.298133 70.688429 
L 393.615344 70.369135 
L 394.932555 69.650723 
L 396.249766 69.171781 
L 397.566977 68.932311 
L 398.884188 68.772664 
L 400.201399 68.613016 
L 401.51861 68.533193 
L 402.835821 68.69284 
L 404.153032 68.772664 
L 405.470243 69.012134 
L 406.787454 69.012134 
L 408.104665 69.091958 
L 409.421876 69.012134 
L 410.739087 69.012134 
L 412.056298 69.012134 
L 413.373509 69.091958 
L 414.69072 69.091958 
L 416.007931 69.251605 
L 417.325142 69.331429 
L 418.642353 69.570899 
L 419.959564 69.650723 
L 421.276775 69.970017 
L 422.593986 69.970017 
L 423.911197 70.049841 
L 425.228408 70.049841 
L 426.545619 69.970017 
L 427.86283 69.970017 
L 429.180042 69.730546 
L 430.497253 69.730546 
L 431.814464 69.331429 
L 433.131675 69.251605 
L 434.448886 68.852487 
L 435.766097 68.533193 
L 437.083308 68.054251 
L 438.400519 67.495486 
L 439.71773 67.096369 
L 441.034941 66.45778 
L 442.352152 66.058662 
L 443.669363 65.34025 
L 444.986574 64.941132 
L 446.303785 64.382367 
L 447.620996 64.063073 
L 448.938207 63.743778 
L 450.255418 63.504308 
L 451.572629 63.504308 
L 452.88984 63.424484 
L 454.207051 63.743778 
L 455.524262 64.063073 
L 456.841473 64.861309 
L 458.158684 65.659544 
L 459.475895 66.537604 
" clip-path="url(#pdde6bb8887)" style="fill: none; stroke: #e6ab02; stroke-width: 1.5; stroke-linecap: square"/>
   </g>
   <g id="line2d_50">
    <path d="M 459.475895 174.04 
L 459.475895 11.16 
" clip-path="url(#pdde6bb8887)" style="fill: none; stroke-dasharray: 5.55,2.4; stroke-dashoffset: 0; stroke: #808080; stroke-opacity: 0.5; stroke-width: 1.5"/>
   </g>
   <g id="line2d_51">
    <path d="M 311.948261 25.109169 
L 314.583897 27.424053 
L 318.53735 30.616996 
L 322.490803 34.368704 
L 323.808621 35.40641 
L 326.444257 37.162529 
L 329.079892 38.439706 
L 331.715528 39.158118 
L 333.033346 39.477412 
L 334.351163 39.956354 
L 338.304617 42.430885 
L 340.940252 44.187003 
L 342.25807 44.905415 
L 343.575888 45.943122 
L 346.211523 48.976418 
L 348.847159 51.850066 
L 352.800612 54.883362 
L 355.436248 56.799128 
L 359.389701 59.034188 
L 360.707519 59.912247 
L 363.343154 60.949953 
L 364.660972 61.349071 
L 367.296608 62.546425 
L 369.932243 63.743778 
L 371.250061 64.302543 
L 372.567879 65.020956 
L 379.156967 66.936721 
L 381.792603 67.495486 
L 387.063874 68.213899 
L 388.381692 68.453369 
L 389.69951 69.091958 
L 391.017327 70.369135 
L 392.335145 71.087547 
L 393.652963 70.848076 
L 394.970781 70.049841 
L 397.606416 69.411252 
L 400.242052 69.171781 
L 402.877687 69.251605 
L 408.148958 69.81037 
L 409.466776 69.81037 
L 410.784594 69.650723 
L 416.055865 69.730546 
L 417.373683 69.81037 
L 421.327136 70.448959 
L 423.962771 70.608606 
L 429.234042 70.209488 
L 431.869678 69.81037 
L 433.187496 69.570899 
L 435.823131 68.772664 
L 439.776585 67.176192 
L 447.683491 64.302543 
L 449.001309 63.983249 
L 451.636944 63.584131 
L 454.27258 63.823602 
L 456.908216 64.941132 
L 460.861669 67.734957 
L 462.179487 68.613016 
L 464.815122 70.129664 
L 466.13294 70.528782 
L 467.450758 71.406841 
L 472.722029 73.402431 
L 474.039846 74.041019 
L 475.357664 74.519961 
L 476.675482 75.318197 
L 477.9933 75.956785 
L 479.311118 76.834844 
L 481.946753 78.351492 
L 484.582389 79.947964 
L 485.900206 80.905847 
L 487.218024 81.704082 
L 488.535842 82.821612 
L 488.535842 82.821612 
" clip-path="url(#pdde6bb8887)" style="fill: none; stroke: #a6761d; stroke-width: 1.5; stroke-linecap: square"/>
   </g>
   <g id="line2d_52">
    <path d="M 488.535842 174.04 
L 488.535842 11.16 
" clip-path="url(#pdde6bb8887)" style="fill: none; stroke-dasharray: 5.55,2.4; stroke-dashoffset: 0; stroke: #808080; stroke-opacity: 0.5; stroke-width: 1.5"/>
   </g>
   <g id="line2d_53">
    <path d="M 311.948261 25.109169 
L 314.573021 27.503877 
L 315.885401 28.461759 
L 319.822541 31.894173 
L 322.447301 34.368704 
L 323.759681 35.486234 
L 325.072061 36.364293 
L 327.696821 37.721294 
L 329.009201 38.280059 
L 330.321581 38.679177 
L 332.946341 39.158118 
L 334.258721 39.63706 
L 335.571101 40.275648 
L 338.195861 41.951943 
L 340.820621 43.867709 
L 342.133001 44.665945 
L 343.445381 45.623827 
L 346.070141 48.81677 
L 347.382521 50.572889 
L 348.694901 52.009713 
L 350.007281 53.207067 
L 352.632041 55.202656 
L 355.256801 57.836834 
L 357.881561 59.832423 
L 359.193941 60.790306 
L 360.506321 61.907836 
L 361.818701 62.706072 
L 364.443461 63.424484 
L 365.755841 63.903426 
L 368.380601 65.100779 
L 369.692981 65.499897 
L 374.942501 68.054251 
L 378.879641 69.411252 
L 384.129161 70.768253 
L 386.753921 71.486665 
L 388.066301 71.805959 
L 389.378681 72.444548 
L 392.003441 74.759432 
L 393.315821 74.839255 
L 394.628201 73.881372 
L 395.940581 73.242784 
L 397.252961 72.923489 
L 398.565341 72.843666 
L 399.877721 73.003313 
L 402.502481 72.843666 
L 403.814861 73.083136 
L 407.752001 74.759432 
L 409.064381 74.679608 
L 410.376761 74.440137 
L 411.689141 73.881372 
L 414.313901 73.16296 
L 416.938661 73.402431 
L 422.188181 75.238373 
L 423.500561 75.477844 
L 424.812941 75.557667 
L 427.437701 75.318197 
L 430.062461 74.759432 
L 432.687221 74.041019 
L 435.311981 72.843666 
L 439.249121 70.768253 
L 441.873881 69.890194 
L 444.498641 69.331429 
L 448.435781 68.932311 
L 449.748161 68.852487 
L 452.372921 69.171781 
L 453.685301 69.491076 
L 456.310061 70.528782 
L 461.559581 73.16296 
L 465.496721 75.39802 
L 468.121481 76.914668 
L 472.058621 78.271669 
L 474.683381 79.149728 
L 475.995761 79.628669 
L 478.620521 81.065494 
L 487.807181 87.132085 
L 489.119561 87.930321 
L 491.744321 89.287322 
L 499.618601 94.076736 
L 502.243361 95.27409 
L 511.430021 98.62668 
L 512.742401 99.345092 
L 514.054781 99.903857 
L 515.367161 100.781916 
L 515.367161 100.781916 
" clip-path="url(#pdde6bb8887)" style="fill: none; stroke: #666666; stroke-width: 1.5; stroke-linecap: square"/>
   </g>
   <g id="line2d_54">
    <path d="M 515.367161 174.04 
L 515.367161 11.16 
" clip-path="url(#pdde6bb8887)" style="fill: none; stroke-dasharray: 5.55,2.4; stroke-dashoffset: 0; stroke: #808080; stroke-opacity: 0.5; stroke-width: 1.5"/>
   </g>
   <g id="line2d_55">
    <path d="M 311.948261 25.109169 
L 314.57161 27.5837 
L 318.506633 30.776643 
L 322.441655 34.28888 
L 323.75333 35.326587 
L 325.065004 36.204646 
L 326.376678 36.923058 
L 329.000027 37.960765 
L 334.246724 39.158118 
L 336.870072 40.355472 
L 342.116769 44.266827 
L 343.428443 45.384357 
L 344.740117 46.821181 
L 347.363466 50.81236 
L 348.67514 52.488655 
L 349.986814 53.765832 
L 352.610163 55.921068 
L 356.545186 59.912247 
L 357.85686 60.949953 
L 359.168534 62.147307 
L 360.480208 63.185013 
L 361.791883 63.903426 
L 364.415231 64.701661 
L 365.726905 65.260426 
L 367.03858 65.978839 
L 370.973602 67.176192 
L 377.531974 70.369135 
L 380.155322 71.087547 
L 382.778671 71.805959 
L 385.402019 72.763842 
L 388.025368 73.402431 
L 389.337042 73.881372 
L 390.648716 74.998902 
L 391.96039 76.355903 
L 393.272064 76.834844 
L 395.895413 75.318197 
L 397.207087 74.839255 
L 401.14211 74.599784 
L 402.453784 74.28049 
L 403.765458 74.200667 
L 405.077133 74.519961 
L 407.700481 75.39802 
L 409.012155 75.238373 
L 411.635504 74.599784 
L 414.258852 74.360314 
L 415.570527 74.599784 
L 418.193875 75.637491 
L 423.440572 78.112022 
L 424.752246 78.590963 
L 426.063921 78.830434 
L 427.375595 78.910257 
L 429.998943 78.670787 
L 432.622292 78.112022 
L 433.933966 77.792727 
L 436.557315 76.755021 
L 441.804012 74.519961 
L 444.42736 73.801549 
L 445.739034 73.641901 
L 448.362383 73.721725 
L 450.985731 73.881372 
L 453.60908 74.440137 
L 457.544102 75.717314 
L 461.479125 77.074315 
L 464.102474 78.590963 
L 466.725822 80.267258 
L 469.349171 81.544435 
L 477.219216 84.497907 
L 481.154239 86.254026 
L 492.959307 92.081147 
L 496.89433 94.236383 
L 499.517678 96.072325 
L 502.141027 97.828444 
L 503.452701 98.546856 
L 508.699398 100.86174 
L 511.322746 102.538035 
L 515.257769 105.970448 
L 517.881118 108.285332 
L 520.504466 110.440568 
L 521.81614 111.478275 
L 524.439489 112.994923 
L 527.062837 113.713335 
L 529.686186 114.032629 
L 533.621209 113.952806 
L 536.244557 113.713335 
L 537.556231 113.553688 
L 540.17958 113.633511 
L 541.491254 113.872982 
L 542.802928 114.2721 
L 542.802928 114.2721 
" clip-path="url(#pdde6bb8887)" style="fill: none; stroke: #e41a1c; stroke-width: 1.5; stroke-linecap: square"/>
   </g>
   <g id="line2d_56">
    <path d="M 542.802928 174.04 
L 542.802928 11.16 
" clip-path="url(#pdde6bb8887)" style="fill: none; stroke-dasharray: 5.55,2.4; stroke-dashoffset: 0; stroke: #808080; stroke-opacity: 0.5; stroke-width: 1.5"/>
   </g>
   <g id="line2d_57">
    <path d="M 311.948261 25.109169 
L 314.564266 27.663524 
L 317.180271 29.659113 
L 323.720283 35.166939 
L 325.028286 35.965175 
L 327.644291 37.162529 
L 330.260296 37.960765 
L 334.184303 38.759 
L 336.800308 39.796707 
L 339.416313 41.632649 
L 343.34032 44.905415 
L 344.648322 46.501887 
L 347.264327 50.572889 
L 348.57233 52.408831 
L 349.880332 53.925479 
L 353.80434 57.437716 
L 355.112342 58.874541 
L 357.728347 61.189424 
L 360.344352 63.424484 
L 361.652354 64.142896 
L 366.884364 66.138486 
L 368.192366 66.697251 
L 369.500369 67.016545 
L 370.808371 67.495486 
L 377.348383 71.167371 
L 382.580393 72.524371 
L 383.888396 73.083136 
L 387.812403 75.158549 
L 389.120405 75.797138 
L 390.428408 76.675197 
L 391.73641 77.952374 
L 393.044413 78.431316 
L 394.352415 77.872551 
L 395.660418 77.154139 
L 396.96842 76.675197 
L 398.276423 76.51555 
L 399.584425 76.675197 
L 400.892427 76.675197 
L 403.508432 75.797138 
L 404.816435 75.717314 
L 406.124437 75.876962 
L 407.43244 76.196256 
L 408.740442 76.276079 
L 411.356447 76.196256 
L 413.972452 76.595374 
L 416.588457 77.473433 
L 417.896459 78.032198 
L 421.820467 80.107611 
L 427.052476 82.342671 
L 428.360479 82.661965 
L 430.976484 82.901436 
L 434.900491 82.342671 
L 441.440503 80.426905 
L 444.056508 79.86814 
L 446.672513 79.548846 
L 458.444535 79.469022 
L 459.752537 79.389199 
L 462.368542 79.628669 
L 463.676545 79.947964 
L 466.29255 80.905847 
L 467.600552 81.544435 
L 472.832562 83.540025 
L 474.140564 84.178613 
L 478.064572 86.493497 
L 485.912586 90.724146 
L 495.068603 95.27409 
L 496.376606 96.231973 
L 498.992611 98.86615 
L 501.608616 102.059093 
L 505.532623 107.487096 
L 508.148628 111.398451 
L 510.764633 114.990512 
L 513.380637 117.544866 
L 514.68864 118.662396 
L 517.304645 120.498339 
L 521.228652 122.573752 
L 526.460662 125.048282 
L 527.768664 125.4474 
L 529.076667 125.686871 
L 530.384669 125.766694 
L 531.692672 125.686871 
L 535.616679 124.888635 
L 538.232684 124.090399 
L 542.156691 122.493928 
L 543.464694 122.09481 
L 546.080699 121.775516 
L 548.696703 122.014987 
L 551.312708 122.733399 
L 555.236716 124.569341 
L 557.852721 125.287753 
L 560.468725 125.527224 
L 563.08473 125.4474 
L 565.700735 125.287753 
L 568.31674 125.527224 
L 569.624743 125.686871 
L 573.54875 127.043872 
L 573.54875 127.043872 
" clip-path="url(#pdde6bb8887)" style="fill: none; stroke: #377eb8; stroke-width: 1.5; stroke-linecap: square"/>
   </g>
   <g id="line2d_58">
    <path d="M 573.54875 174.04 
L 573.54875 11.16 
" clip-path="url(#pdde6bb8887)" style="fill: none; stroke-dasharray: 5.55,2.4; stroke-dashoffset: 0; stroke: #808080; stroke-opacity: 0.5; stroke-width: 1.5"/>
   </g>
   <g id="line2d_59">
    <path d="M 311.948261 25.109169 
L 314.563807 27.663524 
L 323.718218 34.927469 
L 325.025991 35.725704 
L 326.333764 36.364293 
L 328.94931 37.242352 
L 334.180402 38.51953 
L 336.795948 39.716883 
L 338.103721 40.435295 
L 339.411494 41.552825 
L 342.02704 43.548415 
L 343.334813 44.665945 
L 344.642586 46.262416 
L 347.258132 50.413242 
L 348.565905 52.249184 
L 349.873678 53.845655 
L 351.181451 55.122833 
L 353.796997 57.437716 
L 355.10477 58.874541 
L 359.028089 62.386778 
L 360.335862 63.504308 
L 361.643635 64.382367 
L 364.259181 65.260426 
L 365.566954 65.819191 
L 366.874727 66.537604 
L 368.1825 67.096369 
L 370.798046 67.894604 
L 372.105819 68.533193 
L 376.029138 70.848076 
L 377.336911 71.486665 
L 382.568003 72.843666 
L 383.875776 73.562078 
L 386.491322 75.797138 
L 389.106868 77.393609 
L 390.414641 78.032198 
L 391.722414 78.910257 
L 393.030187 79.548846 
L 394.33796 79.229552 
L 395.645733 78.670787 
L 396.953506 78.351492 
L 398.261279 78.431316 
L 400.876825 79.309375 
L 402.184598 79.309375 
L 403.492371 78.990081 
L 404.800144 78.830434 
L 410.031236 79.708493 
L 412.646782 79.788317 
L 415.262328 80.347082 
L 417.877874 81.145317 
L 420.49342 82.262847 
L 424.416739 84.33826 
L 425.724512 84.976849 
L 427.032285 85.45579 
L 429.647831 86.653144 
L 430.955604 87.211909 
L 432.263377 87.531203 
L 433.57115 87.611027 
L 436.186696 87.371556 
L 440.110015 86.812791 
L 444.033334 85.775085 
L 446.64888 85.056672 
L 449.264426 84.657555 
L 455.803291 84.178613 
L 458.418837 83.779495 
L 459.72661 83.699672 
L 462.342156 84.09879 
L 466.265475 85.136496 
L 470.188794 86.413673 
L 472.80434 87.45138 
L 478.035432 89.606616 
L 480.650978 90.484675 
L 483.266524 91.362735 
L 485.88207 92.400441 
L 487.189843 93.03903 
L 489.805389 94.715325 
L 492.420935 96.710914 
L 495.036481 99.185445 
L 497.652027 101.97927 
L 502.883119 107.886214 
L 505.498665 110.839686 
L 508.114211 114.112453 
L 513.345303 120.97728 
L 514.653076 122.334281 
L 515.960849 123.451811 
L 522.499714 128.241225 
L 526.423033 130.556109 
L 530.346352 132.471875 
L 532.961898 133.349934 
L 534.269671 133.669228 
L 536.885217 133.988522 
L 542.116309 134.068346 
L 546.039628 134.866582 
L 548.655174 135.744641 
L 552.578493 137.261289 
L 555.194039 138.298995 
L 556.501812 138.61829 
L 557.809585 138.777937 
L 560.425131 138.698113 
L 565.656223 137.979701 
L 573.502861 136.542877 
L 574.810634 136.6227 
L 576.118407 136.862171 
L 578.733953 137.899877 
L 583.965045 140.214761 
L 586.580591 141.731409 
L 587.888364 142.689292 
L 593.119456 147.718177 
L 594.427229 148.596236 
L 597.042775 150.112884 
L 602.273867 153.305827 
L 604.889413 155.301416 
L 607.504959 158.175065 
L 608.812732 159.85136 
L 610.120505 161.208361 
L 611.428278 162.325891 
L 611.428278 162.325891 
" clip-path="url(#pdde6bb8887)" style="fill: none; stroke: #4daf4a; stroke-width: 1.5; stroke-linecap: square"/>
   </g>
   <g id="line2d_60">
    <path d="M 611.428278 174.04 
L 611.428278 11.16 
" clip-path="url(#pdde6bb8887)" style="fill: none; stroke-dasharray: 5.55,2.4; stroke-dashoffset: 0; stroke: #808080; stroke-opacity: 0.5; stroke-width: 1.5"/>
   </g>
   <g id="line2d_61">
    <path d="M 311.948261 25.109169 
L 314.55804 27.663524 
L 323.692267 34.847645 
L 324.997157 35.645881 
L 326.302046 36.284469 
L 328.911826 37.242352 
L 334.131384 38.51953 
L 335.436273 38.998471 
L 336.741163 39.63706 
L 338.046052 40.435295 
L 343.265611 44.586121 
L 344.5705 46.102769 
L 348.485169 52.16936 
L 349.790058 53.765832 
L 351.094948 55.043009 
L 353.704727 57.357893 
L 355.009616 58.794717 
L 358.924285 62.306954 
L 360.229175 63.424484 
L 361.534064 64.302543 
L 365.448733 65.739368 
L 368.058512 67.096369 
L 370.668291 67.814781 
L 371.973181 68.453369 
L 375.887849 70.768253 
L 377.192739 71.406841 
L 379.802518 72.125254 
L 382.412297 72.843666 
L 383.717187 73.482254 
L 385.022076 74.519961 
L 386.326966 75.717314 
L 388.936745 77.393609 
L 390.241634 78.032198 
L 392.851413 79.708493 
L 394.156303 79.469022 
L 395.461193 78.910257 
L 396.766082 78.511139 
L 398.070972 78.511139 
L 400.680751 79.389199 
L 401.98564 79.548846 
L 404.595419 79.069904 
L 407.205198 79.628669 
L 408.510088 79.947964 
L 411.119867 80.027787 
L 412.424757 80.027787 
L 415.034536 80.586552 
L 416.339425 80.905847 
L 420.254094 82.422494 
L 424.168763 84.577731 
L 431.9981 87.930321 
L 433.302989 88.089968 
L 434.607879 88.089968 
L 439.827437 87.371556 
L 441.132327 87.132085 
L 446.351885 85.535614 
L 448.961664 85.136496 
L 455.486112 84.657555 
L 459.40078 84.178613 
L 460.70567 84.178613 
L 463.315449 84.737378 
L 467.230118 85.775085 
L 469.839897 86.57332 
L 477.669234 89.846087 
L 478.974124 90.325028 
L 481.583903 91.04344 
L 485.498571 92.480265 
L 488.108351 93.837265 
L 490.71813 95.753031 
L 493.327909 97.988091 
L 495.937688 100.542445 
L 505.071915 110.759863 
L 507.681694 113.872982 
L 512.901252 120.578162 
L 515.511031 123.292164 
L 516.815921 124.32987 
L 524.645258 129.598226 
L 529.864816 132.392051 
L 531.169706 132.950816 
L 535.084374 134.068346 
L 540.303933 134.786758 
L 542.913712 135.2657 
L 546.82838 136.463053 
L 554.657718 139.73582 
L 557.267497 140.294585 
L 558.572386 140.374408 
L 561.182165 140.214761 
L 567.706613 138.937584 
L 572.926171 137.580583 
L 574.231061 137.50076 
L 575.53595 137.580583 
L 576.84084 137.820054 
L 579.450619 138.777937 
L 580.755509 139.416525 
L 583.365288 140.454232 
L 585.975067 141.651585 
L 588.584846 143.647175 
L 592.499514 147.398883 
L 595.109294 149.075178 
L 600.328852 152.02865 
L 601.633741 152.826886 
L 604.24352 154.822475 
L 606.8533 157.696123 
L 609.463079 160.889066 
L 610.767968 162.166244 
L 612.072858 163.20395 
L 615.987526 165.678481 
L 617.292416 166.636364 
L 617.292416 166.636364 
" clip-path="url(#pdde6bb8887)" style="fill: none; stroke: #984ea3; stroke-width: 1.5; stroke-linecap: square"/>
   </g>
   <g id="line2d_62">
    <path d="M 617.292416 174.04 
L 617.292416 11.16 
" clip-path="url(#pdde6bb8887)" style="fill: none; stroke-dasharray: 5.55,2.4; stroke-dashoffset: 0; stroke: #808080; stroke-opacity: 0.5; stroke-width: 1.5"/>
   </g>
   <g id="patch_8">
    <path d="M 296.681054 174.04 
L 296.681054 11.16 
" style="fill: none; stroke: #000000; stroke-width: 0.8; stroke-linejoin: miter; stroke-linecap: square"/>
   </g>
   <g id="patch_9">
    <path d="M 632.559624 174.04 
L 632.559624 11.16 
" style="fill: none; stroke: #000000; stroke-width: 0.8; stroke-linejoin: miter; stroke-linecap: square"/>
   </g>
   <g id="patch_10">
    <path d="M 296.681054 174.04 
L 632.559624 174.04 
" style="fill: none; stroke: #000000; stroke-width: 0.8; stroke-linejoin: miter; stroke-linecap: square"/>
   </g>
   <g id="patch_11">
    <path d="M 296.681054 11.16 
L 632.559624 11.16 
" style="fill: none; stroke: #000000; stroke-width: 0.8; stroke-linejoin: miter; stroke-linecap: square"/>
   </g>
   <g id="text_37">
    <!-- 1 -->
    <g transform="translate(333.118223 25.268816) scale(0.1 -0.1)">
     <use xlink:href="#DejaVuSans-31"/>
    </g>
   </g>
   <g id="text_38">
    <!-- 2 -->
    <g transform="translate(354.431525 40.674766) scale(0.1 -0.1)">
     <use xlink:href="#DejaVuSans-32"/>
    </g>
   </g>
   <g id="text_39">
    <!-- 3 -->
    <g transform="translate(398.171978 52.488655) scale(0.1 -0.1)">
     <use xlink:href="#DejaVuSans-33"/>
    </g>
   </g>
   <g id="text_40">
    <!-- 4 -->
    <g transform="translate(418.960769 54.484244) scale(0.1 -0.1)">
     <use xlink:href="#DejaVuSans-34"/>
    </g>
   </g>
   <g id="text_41">
    <!-- 5 -->
    <g transform="translate(460.774969 52.568478) scale(0.1 -0.1)">
     <use xlink:href="#DejaVuSans-35"/>
    </g>
   </g>
   <g id="text_42">
    <!-- 6 -->
    <g transform="translate(489.834917 68.852487) scale(0.1 -0.1)">
     <use xlink:href="#DejaVuSans-36"/>
    </g>
   </g>
   <g id="text_43">
    <!-- 7 -->
    <g transform="translate(516.666235 86.812791) scale(0.1 -0.1)">
     <use xlink:href="#DejaVuSans-37"/>
    </g>
   </g>
   <g id="text_44">
    <!-- 8 -->
    <g transform="translate(544.102003 100.302975) scale(0.1 -0.1)">
     <use xlink:href="#DejaVuSans-38"/>
    </g>
   </g>
   <g id="text_45">
    <!-- 9 -->
    <g transform="translate(574.847824 113.074746) scale(0.1 -0.1)">
     <use xlink:href="#DejaVuSans-39"/>
    </g>
   </g>
   <g id="text_46">
    <!-- 10 -->
    <g transform="translate(612.727352 148.356765) scale(0.1 -0.1)">
     <use xlink:href="#DejaVuSans-31"/>
     <use xlink:href="#DejaVuSans-30" x="63.623047"/>
    </g>
   </g>
   <g id="text_47">
    <!-- 11 -->
    <g transform="translate(618.591491 152.667238) scale(0.1 -0.1)">
     <use xlink:href="#DejaVuSans-31"/>
     <use xlink:href="#DejaVuSans-31" x="63.623047"/>
    </g>
   </g>
  </g>
 </g>
 <defs>
  <clipPath id="pe5158c68f2">
   <rect x="66.62" y="11.16" width="167.939285" height="162.88"/>
  </clipPath>
  <clipPath id="pdde6bb8887">
   <rect x="296.681054" y="11.16" width="335.87857" height="162.88"/>
  </clipPath>
 </defs>
</svg>
