<?xml version="1.0" encoding="utf-8" standalone="no"?>
<!DOCTYPE svg PUBLIC "-//W3C//DTD SVG 1.1//EN"
  "http://www.w3.org/Graphics/SVG/1.1/DTD/svg11.dtd">
<svg xmlns:xlink="http://www.w3.org/1999/xlink" width="1080pt" height="360pt" viewBox="0 0 1080 360" xmlns="http://www.w3.org/2000/svg" version="1.1">
 <metadata>
  <rdf:RDF xmlns:dc="http://purl.org/dc/elements/1.1/" xmlns:cc="http://creativecommons.org/ns#" xmlns:rdf="http://www.w3.org/1999/02/22-rdf-syntax-ns#">
   <cc:Work>
    <dc:type rdf:resource="http://purl.org/dc/dcmitype/StillImage"/>
    <dc:date>2024-05-04T16:18:41.709415</dc:date>
    <dc:format>image/svg+xml</dc:format>
    <dc:creator>
     <cc:Agent>
      <dc:title>Matplotlib v3.8.4, https://matplotlib.org/</dc:title>
     </cc:Agent>
    </dc:creator>
   </cc:Work>
  </rdf:RDF>
 </metadata>
 <defs>
  <style type="text/css">*{stroke-linejoin: round; stroke-linecap: butt}</style>
 </defs>
 <g id="figure_1">
  <g id="patch_1">
   <path d="M 0 360 
L 1080 360 
L 1080 0 
L 0 0 
z
" style="fill: #ffffff"/>
  </g>
  <g id="axes_1">
   <g id="patch_2">
    <path d="M 66.62 318.04 
L 380.289642 318.04 
L 380.289642 10.8 
L 66.62 10.8 
z
" style="fill: #ffffff"/>
   </g>
   <g id="PathCollection_1">
    <defs>
     <path id="m9f91b15344" d="M 0 3 
C 0.795609 3 1.55874 2.683901 2.12132 2.12132 
C 2.683901 1.55874 3 0.795609 3 0 
C 3 -0.795609 2.683901 -1.55874 2.12132 -2.12132 
C 1.55874 -2.683901 0.795609 -3 0 -3 
C -0.795609 -3 -1.55874 -2.683901 -2.12132 -2.12132 
C -2.683901 -1.55874 -3 -0.795609 -3 0 
C -3 0.795609 -2.683901 1.55874 -2.12132 2.12132 
C -1.55874 2.683901 -0.795609 3 0 3 
z
" style="stroke: #1b9e77"/>
    </defs>
    <g clip-path="url(#p7f7304347c)">
     <use xlink:href="#m9f91b15344" x="80.877711" y="304.074545" style="fill: #1b9e77; stroke: #1b9e77"/>
    </g>
   </g>
   <g id="PathCollection_2">
    <defs>
     <path id="m14199cb5a4" d="M 0 3 
C 0.795609 3 1.55874 2.683901 2.12132 2.12132 
C 2.683901 1.55874 3 0.795609 3 0 
C 3 -0.795609 2.683901 -1.55874 2.12132 -2.12132 
C 1.55874 -2.683901 0.795609 -3 0 -3 
C -0.795609 -3 -1.55874 -2.683901 -2.12132 -2.12132 
C -2.683901 -1.55874 -3 -0.795609 -3 0 
C -3 0.795609 -2.683901 1.55874 -2.12132 2.12132 
C -1.55874 2.683901 -0.795609 3 0 3 
z
" style="stroke: #d95f02"/>
    </defs>
    <g clip-path="url(#p7f7304347c)">
     <use xlink:href="#m14199cb5a4" x="96.210114" y="279.272021" style="fill: #d95f02; stroke: #d95f02"/>
    </g>
   </g>
   <g id="PathCollection_3">
    <defs>
     <path id="medb3dda935" d="M 0 3 
C 0.795609 3 1.55874 2.683901 2.12132 2.12132 
C 2.683901 1.55874 3 0.795609 3 0 
C 3 -0.795609 2.683901 -1.55874 2.12132 -2.12132 
C 1.55874 -2.683901 0.795609 -3 0 -3 
C -0.795609 -3 -1.55874 -2.683901 -2.12132 -2.12132 
C -2.683901 -1.55874 -3 -0.795609 -3 0 
C -3 0.795609 -2.683901 1.55874 -2.12132 2.12132 
C -1.55874 2.683901 -0.795609 3 0 3 
z
" style="stroke: #7570b3"/>
    </defs>
    <g clip-path="url(#p7f7304347c)">
     <use xlink:href="#medb3dda935" x="111.766198" y="251.254354" style="fill: #7570b3; stroke: #7570b3"/>
    </g>
   </g>
   <g id="PathCollection_4">
    <defs>
     <path id="mfb163883f2" d="M 0 3 
C 0.795609 3 1.55874 2.683901 2.12132 2.12132 
C 2.683901 1.55874 3 0.795609 3 0 
C 3 -0.795609 2.683901 -1.55874 2.12132 -2.12132 
C 1.55874 -2.683901 0.795609 -3 0 -3 
C -0.795609 -3 -1.55874 -2.683901 -2.12132 -2.12132 
C -2.683901 -1.55874 -3 -0.795609 -3 0 
C -3 0.795609 -2.683901 1.55874 -2.12132 2.12132 
C -1.55874 2.683901 -0.795609 3 0 3 
z
" style="stroke: #e7298a"/>
    </defs>
    <g clip-path="url(#p7f7304347c)">
     <use xlink:href="#mfb163883f2" x="145.867577" y="197.107278" style="fill: #e7298a; stroke: #e7298a"/>
    </g>
   </g>
   <g id="PathCollection_5">
    <defs>
     <path id="m0daf8a2fc6" d="M 0 3 
C 0.795609 3 1.55874 2.683901 2.12132 2.12132 
C 2.683901 1.55874 3 0.795609 3 0 
C 3 -0.795609 2.683901 -1.55874 2.12132 -2.12132 
C 1.55874 -2.683901 0.795609 -3 0 -3 
C -0.795609 -3 -1.55874 -2.683901 -2.12132 -2.12132 
C -2.683901 -1.55874 -3 -0.795609 -3 0 
C -3 0.795609 -2.683901 1.55874 -2.12132 2.12132 
C -1.55874 2.683901 -0.795609 3 0 3 
z
" style="stroke: #66a61e"/>
    </defs>
    <g clip-path="url(#p7f7304347c)">
     <use xlink:href="#m0daf8a2fc6" x="162.603077" y="172.253719" style="fill: #66a61e; stroke: #66a61e"/>
    </g>
   </g>
   <g id="PathCollection_6">
    <defs>
     <path id="mcc7d3fc44c" d="M 0 3 
C 0.795609 3 1.55874 2.683901 2.12132 2.12132 
C 2.683901 1.55874 3 0.795609 3 0 
C 3 -0.795609 2.683901 -1.55874 2.12132 -2.12132 
C 1.55874 -2.683901 0.795609 -3 0 -3 
C -0.795609 -3 -1.55874 -2.683901 -2.12132 -2.12132 
C -2.683901 -1.55874 -3 -0.795609 -3 0 
C -3 0.795609 -2.683901 1.55874 -2.12132 2.12132 
C -1.55874 2.683901 -0.795609 3 0 3 
z
" style="stroke: #e6ab02"/>
    </defs>
    <g clip-path="url(#p7f7304347c)">
     <use xlink:href="#mcc7d3fc44c" x="196.216421" y="122.240398" style="fill: #e6ab02; stroke: #e6ab02"/>
    </g>
   </g>
   <g id="PathCollection_7">
    <defs>
     <path id="m2979c73203" d="M 0 3 
C 0.795609 3 1.55874 2.683901 2.12132 2.12132 
C 2.683901 1.55874 3 0.795609 3 0 
C 3 -0.795609 2.683901 -1.55874 2.12132 -2.12132 
C 1.55874 -2.683901 0.795609 -3 0 -3 
C -0.795609 -3 -1.55874 -2.683901 -2.12132 -2.12132 
C -2.683901 -1.55874 -3 -0.795609 -3 0 
C -3 0.795609 -2.683901 1.55874 -2.12132 2.12132 
C -1.55874 2.683901 -0.795609 3 0 3 
z
" style="stroke: #a6761d"/>
    </defs>
    <g clip-path="url(#p7f7304347c)">
     <use xlink:href="#m2979c73203" x="219.520047" y="87.384175" style="fill: #a6761d; stroke: #a6761d"/>
    </g>
   </g>
   <g id="PathCollection_8">
    <defs>
     <path id="m1b5751f2b4" d="M 0 3 
C 0.795609 3 1.55874 2.683901 2.12132 2.12132 
C 2.683901 1.55874 3 0.795609 3 0 
C 3 -0.795609 2.683901 -1.55874 2.12132 -2.12132 
C 1.55874 -2.683901 0.795609 -3 0 -3 
C -0.795609 -3 -1.55874 -2.683901 -2.12132 -2.12132 
C -2.683901 -1.55874 -3 -0.795609 -3 0 
C -3 0.795609 -2.683901 1.55874 -2.12132 2.12132 
C -1.55874 2.683901 -0.795609 3 0 3 
z
" style="stroke: #666666"/>
    </defs>
    <g clip-path="url(#p7f7304347c)">
     <use xlink:href="#m1b5751f2b4" x="247.297317" y="66.205064" style="fill: #666666; stroke: #666666"/>
    </g>
   </g>
   <g id="PathCollection_9">
    <defs>
     <path id="mfe1b0104eb" d="M 0 3 
C 0.795609 3 1.55874 2.683901 2.12132 2.12132 
C 2.683901 1.55874 3 0.795609 3 0 
C 3 -0.795609 2.683901 -1.55874 2.12132 -2.12132 
C 1.55874 -2.683901 0.795609 -3 0 -3 
C -0.795609 -3 -1.55874 -2.683901 -2.12132 -2.12132 
C -2.683901 -1.55874 -3 -0.795609 -3 0 
C -3 0.795609 -2.683901 1.55874 -2.12132 2.12132 
C -1.55874 2.683901 -0.795609 3 0 3 
z
" style="stroke: #e41a1c"/>
    </defs>
    <g clip-path="url(#p7f7304347c)">
     <use xlink:href="#mfe1b0104eb" x="280.015932" y="54.212073" style="fill: #e41a1c; stroke: #e41a1c"/>
    </g>
   </g>
   <g id="PathCollection_10">
    <defs>
     <path id="m3448641cf5" d="M 0 3 
C 0.795609 3 1.55874 2.683901 2.12132 2.12132 
C 2.683901 1.55874 3 0.795609 3 0 
C 3 -0.795609 2.683901 -1.55874 2.12132 -2.12132 
C 1.55874 -2.683901 0.795609 -3 0 -3 
C -0.795609 -3 -1.55874 -2.683901 -2.12132 -2.12132 
C -2.683901 -1.55874 -3 -0.795609 -3 0 
C -3 0.795609 -2.683901 1.55874 -2.12132 2.12132 
C -1.55874 2.683901 -0.795609 3 0 3 
z
" style="stroke: #377eb8"/>
    </defs>
    <g clip-path="url(#p7f7304347c)">
     <use xlink:href="#m3448641cf5" x="316.760828" y="43.648035" style="fill: #377eb8; stroke: #377eb8"/>
    </g>
   </g>
   <g id="PathCollection_11">
    <defs>
     <path id="mb534ab434c" d="M 0 3 
C 0.795609 3 1.55874 2.683901 2.12132 2.12132 
C 2.683901 1.55874 3 0.795609 3 0 
C 3 -0.795609 2.683901 -1.55874 2.12132 -2.12132 
C 1.55874 -2.683901 0.795609 -3 0 -3 
C -0.795609 -3 -1.55874 -2.683901 -2.12132 -2.12132 
C -2.683901 -1.55874 -3 -0.795609 -3 0 
C -3 0.795609 -2.683901 1.55874 -2.12132 2.12132 
C -1.55874 2.683901 -0.795609 3 0 3 
z
" style="stroke: #4daf4a"/>
    </defs>
    <g clip-path="url(#p7f7304347c)">
     <use xlink:href="#mb534ab434c" x="359.789162" y="28.082665" style="fill: #4daf4a; stroke: #4daf4a"/>
    </g>
   </g>
   <g id="PathCollection_12">
    <defs>
     <path id="m6fbdee9b18" d="M 0 3 
C 0.795609 3 1.55874 2.683901 2.12132 2.12132 
C 2.683901 1.55874 3 0.795609 3 0 
C 3 -0.795609 2.683901 -1.55874 2.12132 -2.12132 
C 1.55874 -2.683901 0.795609 -3 0 -3 
C -0.795609 -3 -1.55874 -2.683901 -2.12132 -2.12132 
C -2.683901 -1.55874 -3 -0.795609 -3 0 
C -3 0.795609 -2.683901 1.55874 -2.12132 2.12132 
C -1.55874 2.683901 -0.795609 3 0 3 
z
" style="stroke: #984ea3"/>
    </defs>
    <g clip-path="url(#p7f7304347c)">
     <use xlink:href="#m6fbdee9b18" x="366.031931" y="24.765455" style="fill: #984ea3; stroke: #984ea3"/>
    </g>
   </g>
   <g id="matplotlib.axis_1">
    <g id="xtick_1">
     <g id="line2d_1">
      <path d="M 103.327277 318.04 
L 103.327277 10.8 
" clip-path="url(#p7f7304347c)" style="fill: none; stroke: #b0b0b0; stroke-width: 0.8; stroke-linecap: square"/>
     </g>
     <g id="line2d_2">
      <defs>
       <path id="m1bb1cf9009" d="M 0 0 
L 0 3.5 
" style="stroke: #000000; stroke-width: 0.8"/>
      </defs>
      <g>
       <use xlink:href="#m1bb1cf9009" x="103.327277" y="318.04" style="stroke: #000000; stroke-width: 0.8"/>
      </g>
     </g>
     <g id="text_1">
      <!-- 14.532 -->
      <g transform="translate(85.831964 332.638438) scale(0.1 -0.1)">
       <defs>
        <path id="DejaVuSans-31" d="M 794 531 
L 1825 531 
L 1825 4091 
L 703 3866 
L 703 4441 
L 1819 4666 
L 2450 4666 
L 2450 531 
L 3481 531 
L 3481 0 
L 794 0 
L 794 531 
z
" transform="scale(0.015625)"/>
        <path id="DejaVuSans-34" d="M 2419 4116 
L 825 1625 
L 2419 1625 
L 2419 4116 
z
M 2253 4666 
L 3047 4666 
L 3047 1625 
L 3713 1625 
L 3713 1100 
L 3047 1100 
L 3047 0 
L 2419 0 
L 2419 1100 
L 313 1100 
L 313 1709 
L 2253 4666 
z
" transform="scale(0.015625)"/>
        <path id="DejaVuSans-2e" d="M 684 794 
L 1344 794 
L 1344 0 
L 684 0 
L 684 794 
z
" transform="scale(0.015625)"/>
        <path id="DejaVuSans-35" d="M 691 4666 
L 3169 4666 
L 3169 4134 
L 1269 4134 
L 1269 2991 
Q 1406 3038 1543 3061 
Q 1681 3084 1819 3084 
Q 2600 3084 3056 2656 
Q 3513 2228 3513 1497 
Q 3513 744 3044 326 
Q 2575 -91 1722 -91 
Q 1428 -91 1123 -41 
Q 819 9 494 109 
L 494 744 
Q 775 591 1075 516 
Q 1375 441 1709 441 
Q 2250 441 2565 725 
Q 2881 1009 2881 1497 
Q 2881 1984 2565 2268 
Q 2250 2553 1709 2553 
Q 1456 2553 1204 2497 
Q 953 2441 691 2322 
L 691 4666 
z
" transform="scale(0.015625)"/>
        <path id="DejaVuSans-33" d="M 2597 2516 
Q 3050 2419 3304 2112 
Q 3559 1806 3559 1356 
Q 3559 666 3084 287 
Q 2609 -91 1734 -91 
Q 1441 -91 1130 -33 
Q 819 25 488 141 
L 488 750 
Q 750 597 1062 519 
Q 1375 441 1716 441 
Q 2309 441 2620 675 
Q 2931 909 2931 1356 
Q 2931 1769 2642 2001 
Q 2353 2234 1838 2234 
L 1294 2234 
L 1294 2753 
L 1863 2753 
Q 2328 2753 2575 2939 
Q 2822 3125 2822 3475 
Q 2822 3834 2567 4026 
Q 2313 4219 1838 4219 
Q 1578 4219 1281 4162 
Q 984 4106 628 3988 
L 628 4550 
Q 988 4650 1302 4700 
Q 1616 4750 1894 4750 
Q 2613 4750 3031 4423 
Q 3450 4097 3450 3541 
Q 3450 3153 3228 2886 
Q 3006 2619 2597 2516 
z
" transform="scale(0.015625)"/>
        <path id="DejaVuSans-32" d="M 1228 531 
L 3431 531 
L 3431 0 
L 469 0 
L 469 531 
Q 828 903 1448 1529 
Q 2069 2156 2228 2338 
Q 2531 2678 2651 2914 
Q 2772 3150 2772 3378 
Q 2772 3750 2511 3984 
Q 2250 4219 1831 4219 
Q 1534 4219 1204 4116 
Q 875 4013 500 3803 
L 500 4441 
Q 881 4594 1212 4672 
Q 1544 4750 1819 4750 
Q 2544 4750 2975 4387 
Q 3406 4025 3406 3419 
Q 3406 3131 3298 2873 
Q 3191 2616 2906 2266 
Q 2828 2175 2409 1742 
Q 1991 1309 1228 531 
z
" transform="scale(0.015625)"/>
       </defs>
       <use xlink:href="#DejaVuSans-31"/>
       <use xlink:href="#DejaVuSans-34" x="63.623047"/>
       <use xlink:href="#DejaVuSans-2e" x="127.246094"/>
       <use xlink:href="#DejaVuSans-35" x="159.033203"/>
       <use xlink:href="#DejaVuSans-33" x="222.65625"/>
       <use xlink:href="#DejaVuSans-32" x="286.279297"/>
      </g>
     </g>
    </g>
    <g id="xtick_2">
     <g id="line2d_3">
      <path d="M 143.99678 318.04 
L 143.99678 10.8 
" clip-path="url(#p7f7304347c)" style="fill: none; stroke: #b0b0b0; stroke-width: 0.8; stroke-linecap: square"/>
     </g>
     <g id="line2d_4">
      <g>
       <use xlink:href="#m1bb1cf9009" x="143.99678" y="318.04" style="stroke: #000000; stroke-width: 0.8"/>
      </g>
     </g>
     <g id="text_2">
      <!-- 14.534 -->
      <g transform="translate(126.501467 332.638438) scale(0.1 -0.1)">
       <use xlink:href="#DejaVuSans-31"/>
       <use xlink:href="#DejaVuSans-34" x="63.623047"/>
       <use xlink:href="#DejaVuSans-2e" x="127.246094"/>
       <use xlink:href="#DejaVuSans-35" x="159.033203"/>
       <use xlink:href="#DejaVuSans-33" x="222.65625"/>
       <use xlink:href="#DejaVuSans-34" x="286.279297"/>
      </g>
     </g>
    </g>
    <g id="xtick_3">
     <g id="line2d_5">
      <path d="M 184.666283 318.04 
L 184.666283 10.8 
" clip-path="url(#p7f7304347c)" style="fill: none; stroke: #b0b0b0; stroke-width: 0.8; stroke-linecap: square"/>
     </g>
     <g id="line2d_6">
      <g>
       <use xlink:href="#m1bb1cf9009" x="184.666283" y="318.04" style="stroke: #000000; stroke-width: 0.8"/>
      </g>
     </g>
     <g id="text_3">
      <!-- 14.536 -->
      <g transform="translate(167.17097 332.638438) scale(0.1 -0.1)">
       <defs>
        <path id="DejaVuSans-36" d="M 2113 2584 
Q 1688 2584 1439 2293 
Q 1191 2003 1191 1497 
Q 1191 994 1439 701 
Q 1688 409 2113 409 
Q 2538 409 2786 701 
Q 3034 994 3034 1497 
Q 3034 2003 2786 2293 
Q 2538 2584 2113 2584 
z
M 3366 4563 
L 3366 3988 
Q 3128 4100 2886 4159 
Q 2644 4219 2406 4219 
Q 1781 4219 1451 3797 
Q 1122 3375 1075 2522 
Q 1259 2794 1537 2939 
Q 1816 3084 2150 3084 
Q 2853 3084 3261 2657 
Q 3669 2231 3669 1497 
Q 3669 778 3244 343 
Q 2819 -91 2113 -91 
Q 1303 -91 875 529 
Q 447 1150 447 2328 
Q 447 3434 972 4092 
Q 1497 4750 2381 4750 
Q 2619 4750 2861 4703 
Q 3103 4656 3366 4563 
z
" transform="scale(0.015625)"/>
       </defs>
       <use xlink:href="#DejaVuSans-31"/>
       <use xlink:href="#DejaVuSans-34" x="63.623047"/>
       <use xlink:href="#DejaVuSans-2e" x="127.246094"/>
       <use xlink:href="#DejaVuSans-35" x="159.033203"/>
       <use xlink:href="#DejaVuSans-33" x="222.65625"/>
       <use xlink:href="#DejaVuSans-36" x="286.279297"/>
      </g>
     </g>
    </g>
    <g id="xtick_4">
     <g id="line2d_7">
      <path d="M 225.335785 318.04 
L 225.335785 10.8 
" clip-path="url(#p7f7304347c)" style="fill: none; stroke: #b0b0b0; stroke-width: 0.8; stroke-linecap: square"/>
     </g>
     <g id="line2d_8">
      <g>
       <use xlink:href="#m1bb1cf9009" x="225.335785" y="318.04" style="stroke: #000000; stroke-width: 0.8"/>
      </g>
     </g>
     <g id="text_4">
      <!-- 14.538 -->
      <g transform="translate(207.840473 332.638438) scale(0.1 -0.1)">
       <defs>
        <path id="DejaVuSans-38" d="M 2034 2216 
Q 1584 2216 1326 1975 
Q 1069 1734 1069 1313 
Q 1069 891 1326 650 
Q 1584 409 2034 409 
Q 2484 409 2743 651 
Q 3003 894 3003 1313 
Q 3003 1734 2745 1975 
Q 2488 2216 2034 2216 
z
M 1403 2484 
Q 997 2584 770 2862 
Q 544 3141 544 3541 
Q 544 4100 942 4425 
Q 1341 4750 2034 4750 
Q 2731 4750 3128 4425 
Q 3525 4100 3525 3541 
Q 3525 3141 3298 2862 
Q 3072 2584 2669 2484 
Q 3125 2378 3379 2068 
Q 3634 1759 3634 1313 
Q 3634 634 3220 271 
Q 2806 -91 2034 -91 
Q 1263 -91 848 271 
Q 434 634 434 1313 
Q 434 1759 690 2068 
Q 947 2378 1403 2484 
z
M 1172 3481 
Q 1172 3119 1398 2916 
Q 1625 2713 2034 2713 
Q 2441 2713 2670 2916 
Q 2900 3119 2900 3481 
Q 2900 3844 2670 4047 
Q 2441 4250 2034 4250 
Q 1625 4250 1398 4047 
Q 1172 3844 1172 3481 
z
" transform="scale(0.015625)"/>
       </defs>
       <use xlink:href="#DejaVuSans-31"/>
       <use xlink:href="#DejaVuSans-34" x="63.623047"/>
       <use xlink:href="#DejaVuSans-2e" x="127.246094"/>
       <use xlink:href="#DejaVuSans-35" x="159.033203"/>
       <use xlink:href="#DejaVuSans-33" x="222.65625"/>
       <use xlink:href="#DejaVuSans-38" x="286.279297"/>
      </g>
     </g>
    </g>
    <g id="xtick_5">
     <g id="line2d_9">
      <path d="M 266.005288 318.04 
L 266.005288 10.8 
" clip-path="url(#p7f7304347c)" style="fill: none; stroke: #b0b0b0; stroke-width: 0.8; stroke-linecap: square"/>
     </g>
     <g id="line2d_10">
      <g>
       <use xlink:href="#m1bb1cf9009" x="266.005288" y="318.04" style="stroke: #000000; stroke-width: 0.8"/>
      </g>
     </g>
     <g id="text_5">
      <!-- 14.540 -->
      <g transform="translate(248.509976 332.638438) scale(0.1 -0.1)">
       <defs>
        <path id="DejaVuSans-30" d="M 2034 4250 
Q 1547 4250 1301 3770 
Q 1056 3291 1056 2328 
Q 1056 1369 1301 889 
Q 1547 409 2034 409 
Q 2525 409 2770 889 
Q 3016 1369 3016 2328 
Q 3016 3291 2770 3770 
Q 2525 4250 2034 4250 
z
M 2034 4750 
Q 2819 4750 3233 4129 
Q 3647 3509 3647 2328 
Q 3647 1150 3233 529 
Q 2819 -91 2034 -91 
Q 1250 -91 836 529 
Q 422 1150 422 2328 
Q 422 3509 836 4129 
Q 1250 4750 2034 4750 
z
" transform="scale(0.015625)"/>
       </defs>
       <use xlink:href="#DejaVuSans-31"/>
       <use xlink:href="#DejaVuSans-34" x="63.623047"/>
       <use xlink:href="#DejaVuSans-2e" x="127.246094"/>
       <use xlink:href="#DejaVuSans-35" x="159.033203"/>
       <use xlink:href="#DejaVuSans-34" x="222.65625"/>
       <use xlink:href="#DejaVuSans-30" x="286.279297"/>
      </g>
     </g>
    </g>
    <g id="xtick_6">
     <g id="line2d_11">
      <path d="M 306.674791 318.04 
L 306.674791 10.8 
" clip-path="url(#p7f7304347c)" style="fill: none; stroke: #b0b0b0; stroke-width: 0.8; stroke-linecap: square"/>
     </g>
     <g id="line2d_12">
      <g>
       <use xlink:href="#m1bb1cf9009" x="306.674791" y="318.04" style="stroke: #000000; stroke-width: 0.8"/>
      </g>
     </g>
     <g id="text_6">
      <!-- 14.542 -->
      <g transform="translate(289.179479 332.638438) scale(0.1 -0.1)">
       <use xlink:href="#DejaVuSans-31"/>
       <use xlink:href="#DejaVuSans-34" x="63.623047"/>
       <use xlink:href="#DejaVuSans-2e" x="127.246094"/>
       <use xlink:href="#DejaVuSans-35" x="159.033203"/>
       <use xlink:href="#DejaVuSans-34" x="222.65625"/>
       <use xlink:href="#DejaVuSans-32" x="286.279297"/>
      </g>
     </g>
    </g>
    <g id="xtick_7">
     <g id="line2d_13">
      <path d="M 347.344294 318.04 
L 347.344294 10.8 
" clip-path="url(#p7f7304347c)" style="fill: none; stroke: #b0b0b0; stroke-width: 0.8; stroke-linecap: square"/>
     </g>
     <g id="line2d_14">
      <g>
       <use xlink:href="#m1bb1cf9009" x="347.344294" y="318.04" style="stroke: #000000; stroke-width: 0.8"/>
      </g>
     </g>
     <g id="text_7">
      <!-- 14.544 -->
      <g transform="translate(329.848982 332.638438) scale(0.1 -0.1)">
       <use xlink:href="#DejaVuSans-31"/>
       <use xlink:href="#DejaVuSans-34" x="63.623047"/>
       <use xlink:href="#DejaVuSans-2e" x="127.246094"/>
       <use xlink:href="#DejaVuSans-35" x="159.033203"/>
       <use xlink:href="#DejaVuSans-34" x="222.65625"/>
       <use xlink:href="#DejaVuSans-34" x="286.279297"/>
      </g>
     </g>
    </g>
    <g id="text_8">
     <!-- Longitude [°] -->
     <g transform="translate(190.594665 346.316563) scale(0.1 -0.1)">
      <defs>
       <path id="DejaVuSans-4c" d="M 628 4666 
L 1259 4666 
L 1259 531 
L 3531 531 
L 3531 0 
L 628 0 
L 628 4666 
z
" transform="scale(0.015625)"/>
       <path id="DejaVuSans-6f" d="M 1959 3097 
Q 1497 3097 1228 2736 
Q 959 2375 959 1747 
Q 959 1119 1226 758 
Q 1494 397 1959 397 
Q 2419 397 2687 759 
Q 2956 1122 2956 1747 
Q 2956 2369 2687 2733 
Q 2419 3097 1959 3097 
z
M 1959 3584 
Q 2709 3584 3137 3096 
Q 3566 2609 3566 1747 
Q 3566 888 3137 398 
Q 2709 -91 1959 -91 
Q 1206 -91 779 398 
Q 353 888 353 1747 
Q 353 2609 779 3096 
Q 1206 3584 1959 3584 
z
" transform="scale(0.015625)"/>
       <path id="DejaVuSans-6e" d="M 3513 2113 
L 3513 0 
L 2938 0 
L 2938 2094 
Q 2938 2591 2744 2837 
Q 2550 3084 2163 3084 
Q 1697 3084 1428 2787 
Q 1159 2491 1159 1978 
L 1159 0 
L 581 0 
L 581 3500 
L 1159 3500 
L 1159 2956 
Q 1366 3272 1645 3428 
Q 1925 3584 2291 3584 
Q 2894 3584 3203 3211 
Q 3513 2838 3513 2113 
z
" transform="scale(0.015625)"/>
       <path id="DejaVuSans-67" d="M 2906 1791 
Q 2906 2416 2648 2759 
Q 2391 3103 1925 3103 
Q 1463 3103 1205 2759 
Q 947 2416 947 1791 
Q 947 1169 1205 825 
Q 1463 481 1925 481 
Q 2391 481 2648 825 
Q 2906 1169 2906 1791 
z
M 3481 434 
Q 3481 -459 3084 -895 
Q 2688 -1331 1869 -1331 
Q 1566 -1331 1297 -1286 
Q 1028 -1241 775 -1147 
L 775 -588 
Q 1028 -725 1275 -790 
Q 1522 -856 1778 -856 
Q 2344 -856 2625 -561 
Q 2906 -266 2906 331 
L 2906 616 
Q 2728 306 2450 153 
Q 2172 0 1784 0 
Q 1141 0 747 490 
Q 353 981 353 1791 
Q 353 2603 747 3093 
Q 1141 3584 1784 3584 
Q 2172 3584 2450 3431 
Q 2728 3278 2906 2969 
L 2906 3500 
L 3481 3500 
L 3481 434 
z
" transform="scale(0.015625)"/>
       <path id="DejaVuSans-69" d="M 603 3500 
L 1178 3500 
L 1178 0 
L 603 0 
L 603 3500 
z
M 603 4863 
L 1178 4863 
L 1178 4134 
L 603 4134 
L 603 4863 
z
" transform="scale(0.015625)"/>
       <path id="DejaVuSans-74" d="M 1172 4494 
L 1172 3500 
L 2356 3500 
L 2356 3053 
L 1172 3053 
L 1172 1153 
Q 1172 725 1289 603 
Q 1406 481 1766 481 
L 2356 481 
L 2356 0 
L 1766 0 
Q 1100 0 847 248 
Q 594 497 594 1153 
L 594 3053 
L 172 3053 
L 172 3500 
L 594 3500 
L 594 4494 
L 1172 4494 
z
" transform="scale(0.015625)"/>
       <path id="DejaVuSans-75" d="M 544 1381 
L 544 3500 
L 1119 3500 
L 1119 1403 
Q 1119 906 1312 657 
Q 1506 409 1894 409 
Q 2359 409 2629 706 
Q 2900 1003 2900 1516 
L 2900 3500 
L 3475 3500 
L 3475 0 
L 2900 0 
L 2900 538 
Q 2691 219 2414 64 
Q 2138 -91 1772 -91 
Q 1169 -91 856 284 
Q 544 659 544 1381 
z
M 1991 3584 
L 1991 3584 
z
" transform="scale(0.015625)"/>
       <path id="DejaVuSans-64" d="M 2906 2969 
L 2906 4863 
L 3481 4863 
L 3481 0 
L 2906 0 
L 2906 525 
Q 2725 213 2448 61 
Q 2172 -91 1784 -91 
Q 1150 -91 751 415 
Q 353 922 353 1747 
Q 353 2572 751 3078 
Q 1150 3584 1784 3584 
Q 2172 3584 2448 3432 
Q 2725 3281 2906 2969 
z
M 947 1747 
Q 947 1113 1208 752 
Q 1469 391 1925 391 
Q 2381 391 2643 752 
Q 2906 1113 2906 1747 
Q 2906 2381 2643 2742 
Q 2381 3103 1925 3103 
Q 1469 3103 1208 2742 
Q 947 2381 947 1747 
z
" transform="scale(0.015625)"/>
       <path id="DejaVuSans-65" d="M 3597 1894 
L 3597 1613 
L 953 1613 
Q 991 1019 1311 708 
Q 1631 397 2203 397 
Q 2534 397 2845 478 
Q 3156 559 3463 722 
L 3463 178 
Q 3153 47 2828 -22 
Q 2503 -91 2169 -91 
Q 1331 -91 842 396 
Q 353 884 353 1716 
Q 353 2575 817 3079 
Q 1281 3584 2069 3584 
Q 2775 3584 3186 3129 
Q 3597 2675 3597 1894 
z
M 3022 2063 
Q 3016 2534 2758 2815 
Q 2500 3097 2075 3097 
Q 1594 3097 1305 2825 
Q 1016 2553 972 2059 
L 3022 2063 
z
" transform="scale(0.015625)"/>
       <path id="DejaVuSans-20" transform="scale(0.015625)"/>
       <path id="DejaVuSans-5b" d="M 550 4863 
L 1875 4863 
L 1875 4416 
L 1125 4416 
L 1125 -397 
L 1875 -397 
L 1875 -844 
L 550 -844 
L 550 4863 
z
" transform="scale(0.015625)"/>
       <path id="DejaVuSans-b0" d="M 1600 4347 
Q 1350 4347 1178 4173 
Q 1006 4000 1006 3750 
Q 1006 3503 1178 3333 
Q 1350 3163 1600 3163 
Q 1850 3163 2022 3333 
Q 2194 3503 2194 3750 
Q 2194 3997 2020 4172 
Q 1847 4347 1600 4347 
z
M 1600 4750 
Q 1800 4750 1984 4673 
Q 2169 4597 2303 4453 
Q 2447 4313 2519 4134 
Q 2591 3956 2591 3750 
Q 2591 3338 2302 3052 
Q 2013 2766 1594 2766 
Q 1172 2766 890 3047 
Q 609 3328 609 3750 
Q 609 4169 896 4459 
Q 1184 4750 1600 4750 
z
" transform="scale(0.015625)"/>
       <path id="DejaVuSans-5d" d="M 1947 4863 
L 1947 -844 
L 622 -844 
L 622 -397 
L 1369 -397 
L 1369 4416 
L 622 4416 
L 622 4863 
L 1947 4863 
z
" transform="scale(0.015625)"/>
      </defs>
      <use xlink:href="#DejaVuSans-4c"/>
      <use xlink:href="#DejaVuSans-6f" x="53.962891"/>
      <use xlink:href="#DejaVuSans-6e" x="115.144531"/>
      <use xlink:href="#DejaVuSans-67" x="178.523438"/>
      <use xlink:href="#DejaVuSans-69" x="242"/>
      <use xlink:href="#DejaVuSans-74" x="269.783203"/>
      <use xlink:href="#DejaVuSans-75" x="308.992188"/>
      <use xlink:href="#DejaVuSans-64" x="372.371094"/>
      <use xlink:href="#DejaVuSans-65" x="435.847656"/>
      <use xlink:href="#DejaVuSans-20" x="497.371094"/>
      <use xlink:href="#DejaVuSans-5b" x="529.158203"/>
      <use xlink:href="#DejaVuSans-b0" x="568.171875"/>
      <use xlink:href="#DejaVuSans-5d" x="618.171875"/>
     </g>
    </g>
   </g>
   <g id="matplotlib.axis_2">
    <g id="ytick_1">
     <g id="line2d_15">
      <path d="M 66.62 314.33238 
L 380.289642 314.33238 
" clip-path="url(#p7f7304347c)" style="fill: none; stroke: #b0b0b0; stroke-width: 0.8; stroke-linecap: square"/>
     </g>
     <g id="line2d_16">
      <defs>
       <path id="mc457f74809" d="M 0 0 
L -3.5 0 
" style="stroke: #000000; stroke-width: 0.8"/>
      </defs>
      <g>
       <use xlink:href="#mc457f74809" x="66.62" y="314.33238" style="stroke: #000000; stroke-width: 0.8"/>
      </g>
     </g>
     <g id="text_9">
      <!-- 50.001 -->
      <g transform="translate(24.629375 318.131599) scale(0.1 -0.1)">
       <use xlink:href="#DejaVuSans-35"/>
       <use xlink:href="#DejaVuSans-30" x="63.623047"/>
       <use xlink:href="#DejaVuSans-2e" x="127.246094"/>
       <use xlink:href="#DejaVuSans-30" x="159.033203"/>
       <use xlink:href="#DejaVuSans-30" x="222.65625"/>
       <use xlink:href="#DejaVuSans-31" x="286.279297"/>
      </g>
     </g>
    </g>
    <g id="ytick_2">
     <g id="line2d_17">
      <path d="M 66.62 263.298378 
L 380.289642 263.298378 
" clip-path="url(#p7f7304347c)" style="fill: none; stroke: #b0b0b0; stroke-width: 0.8; stroke-linecap: square"/>
     </g>
     <g id="line2d_18">
      <g>
       <use xlink:href="#mc457f74809" x="66.62" y="263.298378" style="stroke: #000000; stroke-width: 0.8"/>
      </g>
     </g>
     <g id="text_10">
      <!-- 50.002 -->
      <g transform="translate(24.629375 267.097597) scale(0.1 -0.1)">
       <use xlink:href="#DejaVuSans-35"/>
       <use xlink:href="#DejaVuSans-30" x="63.623047"/>
       <use xlink:href="#DejaVuSans-2e" x="127.246094"/>
       <use xlink:href="#DejaVuSans-30" x="159.033203"/>
       <use xlink:href="#DejaVuSans-30" x="222.65625"/>
       <use xlink:href="#DejaVuSans-32" x="286.279297"/>
      </g>
     </g>
    </g>
    <g id="ytick_3">
     <g id="line2d_19">
      <path d="M 66.62 212.264377 
L 380.289642 212.264377 
" clip-path="url(#p7f7304347c)" style="fill: none; stroke: #b0b0b0; stroke-width: 0.8; stroke-linecap: square"/>
     </g>
     <g id="line2d_20">
      <g>
       <use xlink:href="#mc457f74809" x="66.62" y="212.264377" style="stroke: #000000; stroke-width: 0.8"/>
      </g>
     </g>
     <g id="text_11">
      <!-- 50.003 -->
      <g transform="translate(24.629375 216.063595) scale(0.1 -0.1)">
       <use xlink:href="#DejaVuSans-35"/>
       <use xlink:href="#DejaVuSans-30" x="63.623047"/>
       <use xlink:href="#DejaVuSans-2e" x="127.246094"/>
       <use xlink:href="#DejaVuSans-30" x="159.033203"/>
       <use xlink:href="#DejaVuSans-30" x="222.65625"/>
       <use xlink:href="#DejaVuSans-33" x="286.279297"/>
      </g>
     </g>
    </g>
    <g id="ytick_4">
     <g id="line2d_21">
      <path d="M 66.62 161.230375 
L 380.289642 161.230375 
" clip-path="url(#p7f7304347c)" style="fill: none; stroke: #b0b0b0; stroke-width: 0.8; stroke-linecap: square"/>
     </g>
     <g id="line2d_22">
      <g>
       <use xlink:href="#mc457f74809" x="66.62" y="161.230375" style="stroke: #000000; stroke-width: 0.8"/>
      </g>
     </g>
     <g id="text_12">
      <!-- 50.004 -->
      <g transform="translate(24.629375 165.029594) scale(0.1 -0.1)">
       <use xlink:href="#DejaVuSans-35"/>
       <use xlink:href="#DejaVuSans-30" x="63.623047"/>
       <use xlink:href="#DejaVuSans-2e" x="127.246094"/>
       <use xlink:href="#DejaVuSans-30" x="159.033203"/>
       <use xlink:href="#DejaVuSans-30" x="222.65625"/>
       <use xlink:href="#DejaVuSans-34" x="286.279297"/>
      </g>
     </g>
    </g>
    <g id="ytick_5">
     <g id="line2d_23">
      <path d="M 66.62 110.196373 
L 380.289642 110.196373 
" clip-path="url(#p7f7304347c)" style="fill: none; stroke: #b0b0b0; stroke-width: 0.8; stroke-linecap: square"/>
     </g>
     <g id="line2d_24">
      <g>
       <use xlink:href="#mc457f74809" x="66.62" y="110.196373" style="stroke: #000000; stroke-width: 0.8"/>
      </g>
     </g>
     <g id="text_13">
      <!-- 50.005 -->
      <g transform="translate(24.629375 113.995592) scale(0.1 -0.1)">
       <use xlink:href="#DejaVuSans-35"/>
       <use xlink:href="#DejaVuSans-30" x="63.623047"/>
       <use xlink:href="#DejaVuSans-2e" x="127.246094"/>
       <use xlink:href="#DejaVuSans-30" x="159.033203"/>
       <use xlink:href="#DejaVuSans-30" x="222.65625"/>
       <use xlink:href="#DejaVuSans-35" x="286.279297"/>
      </g>
     </g>
    </g>
    <g id="ytick_6">
     <g id="line2d_25">
      <path d="M 66.62 59.162372 
L 380.289642 59.162372 
" clip-path="url(#p7f7304347c)" style="fill: none; stroke: #b0b0b0; stroke-width: 0.8; stroke-linecap: square"/>
     </g>
     <g id="line2d_26">
      <g>
       <use xlink:href="#mc457f74809" x="66.62" y="59.162372" style="stroke: #000000; stroke-width: 0.8"/>
      </g>
     </g>
     <g id="text_14">
      <!-- 50.006 -->
      <g transform="translate(24.629375 62.96159) scale(0.1 -0.1)">
       <use xlink:href="#DejaVuSans-35"/>
       <use xlink:href="#DejaVuSans-30" x="63.623047"/>
       <use xlink:href="#DejaVuSans-2e" x="127.246094"/>
       <use xlink:href="#DejaVuSans-30" x="159.033203"/>
       <use xlink:href="#DejaVuSans-30" x="222.65625"/>
       <use xlink:href="#DejaVuSans-36" x="286.279297"/>
      </g>
     </g>
    </g>
    <g id="text_15">
     <!-- Latitude [°] -->
     <g transform="translate(18.549688 192.989531) rotate(-90) scale(0.1 -0.1)">
      <defs>
       <path id="DejaVuSans-61" d="M 2194 1759 
Q 1497 1759 1228 1600 
Q 959 1441 959 1056 
Q 959 750 1161 570 
Q 1363 391 1709 391 
Q 2188 391 2477 730 
Q 2766 1069 2766 1631 
L 2766 1759 
L 2194 1759 
z
M 3341 1997 
L 3341 0 
L 2766 0 
L 2766 531 
Q 2569 213 2275 61 
Q 1981 -91 1556 -91 
Q 1019 -91 701 211 
Q 384 513 384 1019 
Q 384 1609 779 1909 
Q 1175 2209 1959 2209 
L 2766 2209 
L 2766 2266 
Q 2766 2663 2505 2880 
Q 2244 3097 1772 3097 
Q 1472 3097 1187 3025 
Q 903 2953 641 2809 
L 641 3341 
Q 956 3463 1253 3523 
Q 1550 3584 1831 3584 
Q 2591 3584 2966 3190 
Q 3341 2797 3341 1997 
z
" transform="scale(0.015625)"/>
      </defs>
      <use xlink:href="#DejaVuSans-4c"/>
      <use xlink:href="#DejaVuSans-61" x="55.712891"/>
      <use xlink:href="#DejaVuSans-74" x="116.992188"/>
      <use xlink:href="#DejaVuSans-69" x="156.201172"/>
      <use xlink:href="#DejaVuSans-74" x="183.984375"/>
      <use xlink:href="#DejaVuSans-75" x="223.193359"/>
      <use xlink:href="#DejaVuSans-64" x="286.572266"/>
      <use xlink:href="#DejaVuSans-65" x="350.048828"/>
      <use xlink:href="#DejaVuSans-20" x="411.572266"/>
      <use xlink:href="#DejaVuSans-5b" x="443.359375"/>
      <use xlink:href="#DejaVuSans-b0" x="482.373047"/>
      <use xlink:href="#DejaVuSans-5d" x="532.373047"/>
     </g>
    </g>
   </g>
   <g id="patch_3">
    <path d="M 66.62 318.04 
L 66.62 10.8 
" style="fill: none; stroke: #000000; stroke-width: 0.8; stroke-linejoin: miter; stroke-linecap: square"/>
   </g>
   <g id="patch_4">
    <path d="M 380.289642 318.04 
L 380.289642 10.8 
" style="fill: none; stroke: #000000; stroke-width: 0.8; stroke-linejoin: miter; stroke-linecap: square"/>
   </g>
   <g id="patch_5">
    <path d="M 66.62 318.04 
L 380.289642 318.04 
" style="fill: none; stroke: #000000; stroke-width: 0.8; stroke-linejoin: miter; stroke-linecap: square"/>
   </g>
   <g id="patch_6">
    <path d="M 66.62 10.8 
L 380.289642 10.8 
" style="fill: none; stroke: #000000; stroke-width: 0.8; stroke-linejoin: miter; stroke-linecap: square"/>
   </g>
   <g id="text_16">
    <!-- 0 -->
    <g transform="translate(80.877711 304.074545) scale(0.1 -0.1)">
     <use xlink:href="#DejaVuSans-30"/>
    </g>
   </g>
   <g id="text_17">
    <!-- 1 -->
    <g transform="translate(96.210114 279.272021) scale(0.1 -0.1)">
     <use xlink:href="#DejaVuSans-31"/>
    </g>
   </g>
   <g id="text_18">
    <!-- 2 -->
    <g transform="translate(111.766198 251.254354) scale(0.1 -0.1)">
     <use xlink:href="#DejaVuSans-32"/>
    </g>
   </g>
   <g id="text_19">
    <!-- 3 -->
    <g transform="translate(145.867577 197.107278) scale(0.1 -0.1)">
     <use xlink:href="#DejaVuSans-33"/>
    </g>
   </g>
   <g id="text_20">
    <!-- 4 -->
    <g transform="translate(162.603077 172.253719) scale(0.1 -0.1)">
     <use xlink:href="#DejaVuSans-34"/>
    </g>
   </g>
   <g id="text_21">
    <!-- 5 -->
    <g transform="translate(196.216421 122.240398) scale(0.1 -0.1)">
     <use xlink:href="#DejaVuSans-35"/>
    </g>
   </g>
   <g id="text_22">
    <!-- 6 -->
    <g transform="translate(219.520047 87.384175) scale(0.1 -0.1)">
     <use xlink:href="#DejaVuSans-36"/>
    </g>
   </g>
   <g id="text_23">
    <!-- 7 -->
    <g transform="translate(247.297317 66.205064) scale(0.1 -0.1)">
     <defs>
      <path id="DejaVuSans-37" d="M 525 4666 
L 3525 4666 
L 3525 4397 
L 1831 0 
L 1172 0 
L 2766 4134 
L 525 4134 
L 525 4666 
z
" transform="scale(0.015625)"/>
     </defs>
     <use xlink:href="#DejaVuSans-37"/>
    </g>
   </g>
   <g id="text_24">
    <!-- 8 -->
    <g transform="translate(280.015932 54.212073) scale(0.1 -0.1)">
     <use xlink:href="#DejaVuSans-38"/>
    </g>
   </g>
   <g id="text_25">
    <!-- 9 -->
    <g transform="translate(316.760828 43.648035) scale(0.1 -0.1)">
     <defs>
      <path id="DejaVuSans-39" d="M 703 97 
L 703 672 
Q 941 559 1184 500 
Q 1428 441 1663 441 
Q 2288 441 2617 861 
Q 2947 1281 2994 2138 
Q 2813 1869 2534 1725 
Q 2256 1581 1919 1581 
Q 1219 1581 811 2004 
Q 403 2428 403 3163 
Q 403 3881 828 4315 
Q 1253 4750 1959 4750 
Q 2769 4750 3195 4129 
Q 3622 3509 3622 2328 
Q 3622 1225 3098 567 
Q 2575 -91 1691 -91 
Q 1453 -91 1209 -44 
Q 966 3 703 97 
z
M 1959 2075 
Q 2384 2075 2632 2365 
Q 2881 2656 2881 3163 
Q 2881 3666 2632 3958 
Q 2384 4250 1959 4250 
Q 1534 4250 1286 3958 
Q 1038 3666 1038 3163 
Q 1038 2656 1286 2365 
Q 1534 2075 1959 2075 
z
" transform="scale(0.015625)"/>
     </defs>
     <use xlink:href="#DejaVuSans-39"/>
    </g>
   </g>
   <g id="text_26">
    <!-- 10 -->
    <g transform="translate(359.789162 28.082665) scale(0.1 -0.1)">
     <use xlink:href="#DejaVuSans-31"/>
     <use xlink:href="#DejaVuSans-30" x="63.623047"/>
    </g>
   </g>
   <g id="text_27">
    <!-- 11 -->
    <g transform="translate(366.031931 24.765455) scale(0.1 -0.1)">
     <use xlink:href="#DejaVuSans-31"/>
     <use xlink:href="#DejaVuSans-31" x="63.623047"/>
    </g>
   </g>
  </g>
  <g id="axes_2">
   <g id="patch_7">
    <path d="M 441.860716 318.04 
L 1069.2 318.04 
L 1069.2 10.8 
L 441.860716 10.8 
z
" style="fill: #ffffff"/>
   </g>
   <g id="PathCollection_13">
    <defs>
     <path id="m80263d3c09" d="M -6.123724 0 
L 6.123724 0 
M 0 6.123724 
L 0 -6.123724 
" style="stroke: #000000; stroke-width: 1.5"/>
    </defs>
    <g clip-path="url(#p14dfab4c36)">
     <use xlink:href="#m80263d3c09" x="470.376138" y="38.186607" style="stroke: #000000; stroke-width: 1.5"/>
    </g>
   </g>
   <g id="PathCollection_14">
    <g clip-path="url(#p14dfab4c36)">
     <use xlink:href="#m80263d3c09" x="470.376138" y="32.22165" style="stroke: #000000; stroke-width: 1.5"/>
    </g>
   </g>
   <g id="PathCollection_15">
    <g clip-path="url(#p14dfab4c36)">
     <use xlink:href="#m80263d3c09" x="470.376138" y="24.765455" style="stroke: #000000; stroke-width: 1.5"/>
    </g>
   </g>
   <g id="PathCollection_16">
    <g clip-path="url(#p14dfab4c36)">
     <use xlink:href="#m80263d3c09" x="507.49011" y="41.467333" style="stroke: #000000; stroke-width: 1.5"/>
    </g>
   </g>
   <g id="PathCollection_17">
    <defs>
     <path id="m9ba72b8890" d="M 0 3.535534 
C 0.937635 3.535534 1.836992 3.163008 2.5 2.5 
C 3.163008 1.836992 3.535534 0.937635 3.535534 0 
C 3.535534 -0.937635 3.163008 -1.836992 2.5 -2.5 
C 1.836992 -3.163008 0.937635 -3.535534 0 -3.535534 
C -0.937635 -3.535534 -1.836992 -3.163008 -2.5 -2.5 
C -3.163008 -1.836992 -3.535534 -0.937635 -3.535534 0 
C -3.535534 0.937635 -3.163008 1.836992 -2.5 2.5 
C -1.836992 3.163008 -0.937635 3.535534 0 3.535534 
z
" style="stroke: #000000"/>
    </defs>
    <g clip-path="url(#p14dfab4c36)">
     <use xlink:href="#m9ba72b8890" x="507.49011" y="66.072779" style="stroke: #000000"/>
    </g>
   </g>
   <g id="PathCollection_18">
    <g clip-path="url(#p14dfab4c36)">
     <use xlink:href="#m80263d3c09" x="547.298163" y="70.248248" style="stroke: #000000; stroke-width: 1.5"/>
    </g>
   </g>
   <g id="PathCollection_19">
    <g clip-path="url(#p14dfab4c36)">
     <use xlink:href="#m9ba72b8890" x="547.298163" y="94.853694" style="stroke: #000000"/>
    </g>
   </g>
   <g id="PathCollection_20">
    <g clip-path="url(#p14dfab4c36)">
     <use xlink:href="#m80263d3c09" x="628.994666" y="92.318588" style="stroke: #000000; stroke-width: 1.5"/>
    </g>
   </g>
   <g id="PathCollection_21">
    <g clip-path="url(#p14dfab4c36)">
     <use xlink:href="#m9ba72b8890" x="628.994666" y="116.924033" style="stroke: #000000"/>
    </g>
   </g>
   <g id="PathCollection_22">
    <g clip-path="url(#p14dfab4c36)">
     <use xlink:href="#m80263d3c09" x="667.823059" y="96.046685" style="stroke: #000000; stroke-width: 1.5"/>
    </g>
   </g>
   <g id="PathCollection_23">
    <g clip-path="url(#p14dfab4c36)">
     <use xlink:href="#m9ba72b8890" x="667.823059" y="120.652131" style="stroke: #000000"/>
    </g>
   </g>
   <g id="PathCollection_24">
    <g clip-path="url(#p14dfab4c36)">
     <use xlink:href="#m80263d3c09" x="745.921791" y="92.467711" style="stroke: #000000; stroke-width: 1.5"/>
    </g>
   </g>
   <g id="PathCollection_25">
    <g clip-path="url(#p14dfab4c36)">
     <use xlink:href="#m9ba72b8890" x="745.921791" y="117.073157" style="stroke: #000000"/>
    </g>
   </g>
   <g id="PathCollection_26">
    <g clip-path="url(#p14dfab4c36)">
     <use xlink:href="#m80263d3c09" x="800.198688" y="122.88899" style="stroke: #000000; stroke-width: 1.5"/>
    </g>
   </g>
   <g id="PathCollection_27">
    <g clip-path="url(#p14dfab4c36)">
     <use xlink:href="#m9ba72b8890" x="800.198688" y="147.494436" style="stroke: #000000"/>
    </g>
   </g>
   <g id="PathCollection_28">
    <g clip-path="url(#p14dfab4c36)">
     <use xlink:href="#m80263d3c09" x="850.31305" y="156.441871" style="stroke: #000000; stroke-width: 1.5"/>
    </g>
   </g>
   <g id="PathCollection_29">
    <g clip-path="url(#p14dfab4c36)">
     <use xlink:href="#m9ba72b8890" x="850.31305" y="181.047316" style="stroke: #000000"/>
    </g>
   </g>
   <g id="PathCollection_30">
    <g clip-path="url(#p14dfab4c36)">
     <use xlink:href="#m80263d3c09" x="901.556375" y="181.643812" style="stroke: #000000; stroke-width: 1.5"/>
    </g>
   </g>
   <g id="PathCollection_31">
    <g clip-path="url(#p14dfab4c36)">
     <use xlink:href="#m9ba72b8890" x="901.556375" y="206.249258" style="stroke: #000000"/>
    </g>
   </g>
   <g id="PathCollection_32">
    <g clip-path="url(#p14dfab4c36)">
     <use xlink:href="#m80263d3c09" x="958.982074" y="205.503638" style="stroke: #000000; stroke-width: 1.5"/>
    </g>
   </g>
   <g id="PathCollection_33">
    <g clip-path="url(#p14dfab4c36)">
     <use xlink:href="#m9ba72b8890" x="958.982074" y="230.109084" style="stroke: #000000"/>
    </g>
   </g>
   <g id="PathCollection_34">
    <g clip-path="url(#p14dfab4c36)">
     <use xlink:href="#m80263d3c09" x="1029.731797" y="271.416408" style="stroke: #000000; stroke-width: 1.5"/>
    </g>
   </g>
   <g id="PathCollection_35">
    <g clip-path="url(#p14dfab4c36)">
     <use xlink:href="#m9ba72b8890" x="1029.731797" y="296.021854" style="stroke: #000000"/>
    </g>
   </g>
   <g id="PathCollection_36">
    <g clip-path="url(#p14dfab4c36)">
     <use xlink:href="#m80263d3c09" x="1040.684578" y="279.4691" style="stroke: #000000; stroke-width: 1.5"/>
    </g>
   </g>
   <g id="PathCollection_37">
    <g clip-path="url(#p14dfab4c36)">
     <use xlink:href="#m9ba72b8890" x="1040.684578" y="304.074545" style="stroke: #000000"/>
    </g>
   </g>
   <g id="matplotlib.axis_3">
    <g id="xtick_8">
     <g id="line2d_27">
      <path d="M 470.376138 318.04 
L 470.376138 10.8 
" clip-path="url(#p14dfab4c36)" style="fill: none; stroke: #b0b0b0; stroke-width: 0.8; stroke-linecap: square"/>
     </g>
     <g id="line2d_28">
      <g>
       <use xlink:href="#m1bb1cf9009" x="470.376138" y="318.04" style="stroke: #000000; stroke-width: 0.8"/>
      </g>
     </g>
     <g id="text_28">
      <!-- 0 -->
      <g transform="translate(467.194888 332.638438) scale(0.1 -0.1)">
       <use xlink:href="#DejaVuSans-30"/>
      </g>
     </g>
    </g>
    <g id="xtick_9">
     <g id="line2d_29">
      <path d="M 567.430326 318.04 
L 567.430326 10.8 
" clip-path="url(#p14dfab4c36)" style="fill: none; stroke: #b0b0b0; stroke-width: 0.8; stroke-linecap: square"/>
     </g>
     <g id="line2d_30">
      <g>
       <use xlink:href="#m1bb1cf9009" x="567.430326" y="318.04" style="stroke: #000000; stroke-width: 0.8"/>
      </g>
     </g>
     <g id="text_29">
      <!-- 200 -->
      <g transform="translate(557.886576 332.638438) scale(0.1 -0.1)">
       <use xlink:href="#DejaVuSans-32"/>
       <use xlink:href="#DejaVuSans-30" x="63.623047"/>
       <use xlink:href="#DejaVuSans-30" x="127.246094"/>
      </g>
     </g>
    </g>
    <g id="xtick_10">
     <g id="line2d_31">
      <path d="M 664.484514 318.04 
L 664.484514 10.8 
" clip-path="url(#p14dfab4c36)" style="fill: none; stroke: #b0b0b0; stroke-width: 0.8; stroke-linecap: square"/>
     </g>
     <g id="line2d_32">
      <g>
       <use xlink:href="#m1bb1cf9009" x="664.484514" y="318.04" style="stroke: #000000; stroke-width: 0.8"/>
      </g>
     </g>
     <g id="text_30">
      <!-- 400 -->
      <g transform="translate(654.940764 332.638438) scale(0.1 -0.1)">
       <use xlink:href="#DejaVuSans-34"/>
       <use xlink:href="#DejaVuSans-30" x="63.623047"/>
       <use xlink:href="#DejaVuSans-30" x="127.246094"/>
      </g>
     </g>
    </g>
    <g id="xtick_11">
     <g id="line2d_33">
      <path d="M 761.538702 318.04 
L 761.538702 10.8 
" clip-path="url(#p14dfab4c36)" style="fill: none; stroke: #b0b0b0; stroke-width: 0.8; stroke-linecap: square"/>
     </g>
     <g id="line2d_34">
      <g>
       <use xlink:href="#m1bb1cf9009" x="761.538702" y="318.04" style="stroke: #000000; stroke-width: 0.8"/>
      </g>
     </g>
     <g id="text_31">
      <!-- 600 -->
      <g transform="translate(751.994952 332.638438) scale(0.1 -0.1)">
       <use xlink:href="#DejaVuSans-36"/>
       <use xlink:href="#DejaVuSans-30" x="63.623047"/>
       <use xlink:href="#DejaVuSans-30" x="127.246094"/>
      </g>
     </g>
    </g>
    <g id="xtick_12">
     <g id="line2d_35">
      <path d="M 858.59289 318.04 
L 858.59289 10.8 
" clip-path="url(#p14dfab4c36)" style="fill: none; stroke: #b0b0b0; stroke-width: 0.8; stroke-linecap: square"/>
     </g>
     <g id="line2d_36">
      <g>
       <use xlink:href="#m1bb1cf9009" x="858.59289" y="318.04" style="stroke: #000000; stroke-width: 0.8"/>
      </g>
     </g>
     <g id="text_32">
      <!-- 800 -->
      <g transform="translate(849.04914 332.638438) scale(0.1 -0.1)">
       <use xlink:href="#DejaVuSans-38"/>
       <use xlink:href="#DejaVuSans-30" x="63.623047"/>
       <use xlink:href="#DejaVuSans-30" x="127.246094"/>
      </g>
     </g>
    </g>
    <g id="xtick_13">
     <g id="line2d_37">
      <path d="M 955.647078 318.04 
L 955.647078 10.8 
" clip-path="url(#p14dfab4c36)" style="fill: none; stroke: #b0b0b0; stroke-width: 0.8; stroke-linecap: square"/>
     </g>
     <g id="line2d_38">
      <g>
       <use xlink:href="#m1bb1cf9009" x="955.647078" y="318.04" style="stroke: #000000; stroke-width: 0.8"/>
      </g>
     </g>
     <g id="text_33">
      <!-- 1000 -->
      <g transform="translate(942.922078 332.638438) scale(0.1 -0.1)">
       <use xlink:href="#DejaVuSans-31"/>
       <use xlink:href="#DejaVuSans-30" x="63.623047"/>
       <use xlink:href="#DejaVuSans-30" x="127.246094"/>
       <use xlink:href="#DejaVuSans-30" x="190.869141"/>
      </g>
     </g>
    </g>
    <g id="xtick_14">
     <g id="line2d_39">
      <path d="M 1052.701265 318.04 
L 1052.701265 10.8 
" clip-path="url(#p14dfab4c36)" style="fill: none; stroke: #b0b0b0; stroke-width: 0.8; stroke-linecap: square"/>
     </g>
     <g id="line2d_40">
      <g>
       <use xlink:href="#m1bb1cf9009" x="1052.701265" y="318.04" style="stroke: #000000; stroke-width: 0.8"/>
      </g>
     </g>
     <g id="text_34">
      <!-- 1200 -->
      <g transform="translate(1039.976265 332.638438) scale(0.1 -0.1)">
       <use xlink:href="#DejaVuSans-31"/>
       <use xlink:href="#DejaVuSans-32" x="63.623047"/>
       <use xlink:href="#DejaVuSans-30" x="127.246094"/>
       <use xlink:href="#DejaVuSans-30" x="190.869141"/>
      </g>
     </g>
    </g>
    <g id="text_35">
     <!-- Transmitting distance [m] -->
     <g transform="translate(691.272546 346.316563) scale(0.1 -0.1)">
      <defs>
       <path id="DejaVuSans-54" d="M -19 4666 
L 3928 4666 
L 3928 4134 
L 2272 4134 
L 2272 0 
L 1638 0 
L 1638 4134 
L -19 4134 
L -19 4666 
z
" transform="scale(0.015625)"/>
       <path id="DejaVuSans-72" d="M 2631 2963 
Q 2534 3019 2420 3045 
Q 2306 3072 2169 3072 
Q 1681 3072 1420 2755 
Q 1159 2438 1159 1844 
L 1159 0 
L 581 0 
L 581 3500 
L 1159 3500 
L 1159 2956 
Q 1341 3275 1631 3429 
Q 1922 3584 2338 3584 
Q 2397 3584 2469 3576 
Q 2541 3569 2628 3553 
L 2631 2963 
z
" transform="scale(0.015625)"/>
       <path id="DejaVuSans-73" d="M 2834 3397 
L 2834 2853 
Q 2591 2978 2328 3040 
Q 2066 3103 1784 3103 
Q 1356 3103 1142 2972 
Q 928 2841 928 2578 
Q 928 2378 1081 2264 
Q 1234 2150 1697 2047 
L 1894 2003 
Q 2506 1872 2764 1633 
Q 3022 1394 3022 966 
Q 3022 478 2636 193 
Q 2250 -91 1575 -91 
Q 1294 -91 989 -36 
Q 684 19 347 128 
L 347 722 
Q 666 556 975 473 
Q 1284 391 1588 391 
Q 1994 391 2212 530 
Q 2431 669 2431 922 
Q 2431 1156 2273 1281 
Q 2116 1406 1581 1522 
L 1381 1569 
Q 847 1681 609 1914 
Q 372 2147 372 2553 
Q 372 3047 722 3315 
Q 1072 3584 1716 3584 
Q 2034 3584 2315 3537 
Q 2597 3491 2834 3397 
z
" transform="scale(0.015625)"/>
       <path id="DejaVuSans-6d" d="M 3328 2828 
Q 3544 3216 3844 3400 
Q 4144 3584 4550 3584 
Q 5097 3584 5394 3201 
Q 5691 2819 5691 2113 
L 5691 0 
L 5113 0 
L 5113 2094 
Q 5113 2597 4934 2840 
Q 4756 3084 4391 3084 
Q 3944 3084 3684 2787 
Q 3425 2491 3425 1978 
L 3425 0 
L 2847 0 
L 2847 2094 
Q 2847 2600 2669 2842 
Q 2491 3084 2119 3084 
Q 1678 3084 1418 2786 
Q 1159 2488 1159 1978 
L 1159 0 
L 581 0 
L 581 3500 
L 1159 3500 
L 1159 2956 
Q 1356 3278 1631 3431 
Q 1906 3584 2284 3584 
Q 2666 3584 2933 3390 
Q 3200 3197 3328 2828 
z
" transform="scale(0.015625)"/>
       <path id="DejaVuSans-63" d="M 3122 3366 
L 3122 2828 
Q 2878 2963 2633 3030 
Q 2388 3097 2138 3097 
Q 1578 3097 1268 2742 
Q 959 2388 959 1747 
Q 959 1106 1268 751 
Q 1578 397 2138 397 
Q 2388 397 2633 464 
Q 2878 531 3122 666 
L 3122 134 
Q 2881 22 2623 -34 
Q 2366 -91 2075 -91 
Q 1284 -91 818 406 
Q 353 903 353 1747 
Q 353 2603 823 3093 
Q 1294 3584 2113 3584 
Q 2378 3584 2631 3529 
Q 2884 3475 3122 3366 
z
" transform="scale(0.015625)"/>
      </defs>
      <use xlink:href="#DejaVuSans-54"/>
      <use xlink:href="#DejaVuSans-72" x="46.333984"/>
      <use xlink:href="#DejaVuSans-61" x="87.447266"/>
      <use xlink:href="#DejaVuSans-6e" x="148.726562"/>
      <use xlink:href="#DejaVuSans-73" x="212.105469"/>
      <use xlink:href="#DejaVuSans-6d" x="264.205078"/>
      <use xlink:href="#DejaVuSans-69" x="361.617188"/>
      <use xlink:href="#DejaVuSans-74" x="389.400391"/>
      <use xlink:href="#DejaVuSans-74" x="428.609375"/>
      <use xlink:href="#DejaVuSans-69" x="467.818359"/>
      <use xlink:href="#DejaVuSans-6e" x="495.601562"/>
      <use xlink:href="#DejaVuSans-67" x="558.980469"/>
      <use xlink:href="#DejaVuSans-20" x="622.457031"/>
      <use xlink:href="#DejaVuSans-64" x="654.244141"/>
      <use xlink:href="#DejaVuSans-69" x="717.720703"/>
      <use xlink:href="#DejaVuSans-73" x="745.503906"/>
      <use xlink:href="#DejaVuSans-74" x="797.603516"/>
      <use xlink:href="#DejaVuSans-61" x="836.8125"/>
      <use xlink:href="#DejaVuSans-6e" x="898.091797"/>
      <use xlink:href="#DejaVuSans-63" x="961.470703"/>
      <use xlink:href="#DejaVuSans-65" x="1016.451172"/>
      <use xlink:href="#DejaVuSans-20" x="1077.974609"/>
      <use xlink:href="#DejaVuSans-5b" x="1109.761719"/>
      <use xlink:href="#DejaVuSans-6d" x="1148.775391"/>
      <use xlink:href="#DejaVuSans-5d" x="1246.1875"/>
     </g>
    </g>
   </g>
   <g id="matplotlib.axis_4">
    <g id="ytick_7">
     <g id="line2d_41">
      <path d="M 441.860716 284.091941 
L 1069.2 284.091941 
" clip-path="url(#p14dfab4c36)" style="fill: none; stroke: #b0b0b0; stroke-width: 0.8; stroke-linecap: square"/>
     </g>
     <g id="line2d_42">
      <g>
       <use xlink:href="#mc457f74809" x="441.860716" y="284.091941" style="stroke: #000000; stroke-width: 0.8"/>
      </g>
     </g>
     <g id="text_36">
      <!-- 290.0 -->
      <g transform="translate(406.232591 287.89116) scale(0.1 -0.1)">
       <use xlink:href="#DejaVuSans-32"/>
       <use xlink:href="#DejaVuSans-39" x="63.623047"/>
       <use xlink:href="#DejaVuSans-30" x="127.246094"/>
       <use xlink:href="#DejaVuSans-2e" x="190.869141"/>
       <use xlink:href="#DejaVuSans-30" x="222.65625"/>
      </g>
     </g>
    </g>
    <g id="ytick_8">
     <g id="line2d_43">
      <path d="M 441.860716 246.810962 
L 1069.2 246.810962 
" clip-path="url(#p14dfab4c36)" style="fill: none; stroke: #b0b0b0; stroke-width: 0.8; stroke-linecap: square"/>
     </g>
     <g id="line2d_44">
      <g>
       <use xlink:href="#mc457f74809" x="441.860716" y="246.810962" style="stroke: #000000; stroke-width: 0.8"/>
      </g>
     </g>
     <g id="text_37">
      <!-- 292.5 -->
      <g transform="translate(406.232591 250.610181) scale(0.1 -0.1)">
       <use xlink:href="#DejaVuSans-32"/>
       <use xlink:href="#DejaVuSans-39" x="63.623047"/>
       <use xlink:href="#DejaVuSans-32" x="127.246094"/>
       <use xlink:href="#DejaVuSans-2e" x="190.869141"/>
       <use xlink:href="#DejaVuSans-35" x="222.65625"/>
      </g>
     </g>
    </g>
    <g id="ytick_9">
     <g id="line2d_45">
      <path d="M 441.860716 209.529984 
L 1069.2 209.529984 
" clip-path="url(#p14dfab4c36)" style="fill: none; stroke: #b0b0b0; stroke-width: 0.8; stroke-linecap: square"/>
     </g>
     <g id="line2d_46">
      <g>
       <use xlink:href="#mc457f74809" x="441.860716" y="209.529984" style="stroke: #000000; stroke-width: 0.8"/>
      </g>
     </g>
     <g id="text_38">
      <!-- 295.0 -->
      <g transform="translate(406.232591 213.329203) scale(0.1 -0.1)">
       <use xlink:href="#DejaVuSans-32"/>
       <use xlink:href="#DejaVuSans-39" x="63.623047"/>
       <use xlink:href="#DejaVuSans-35" x="127.246094"/>
       <use xlink:href="#DejaVuSans-2e" x="190.869141"/>
       <use xlink:href="#DejaVuSans-30" x="222.65625"/>
      </g>
     </g>
    </g>
    <g id="ytick_10">
     <g id="line2d_47">
      <path d="M 441.860716 172.249005 
L 1069.2 172.249005 
" clip-path="url(#p14dfab4c36)" style="fill: none; stroke: #b0b0b0; stroke-width: 0.8; stroke-linecap: square"/>
     </g>
     <g id="line2d_48">
      <g>
       <use xlink:href="#mc457f74809" x="441.860716" y="172.249005" style="stroke: #000000; stroke-width: 0.8"/>
      </g>
     </g>
     <g id="text_39">
      <!-- 297.5 -->
      <g transform="translate(406.232591 176.048224) scale(0.1 -0.1)">
       <use xlink:href="#DejaVuSans-32"/>
       <use xlink:href="#DejaVuSans-39" x="63.623047"/>
       <use xlink:href="#DejaVuSans-37" x="127.246094"/>
       <use xlink:href="#DejaVuSans-2e" x="190.869141"/>
       <use xlink:href="#DejaVuSans-35" x="222.65625"/>
      </g>
     </g>
    </g>
    <g id="ytick_11">
     <g id="line2d_49">
      <path d="M 441.860716 134.968027 
L 1069.2 134.968027 
" clip-path="url(#p14dfab4c36)" style="fill: none; stroke: #b0b0b0; stroke-width: 0.8; stroke-linecap: square"/>
     </g>
     <g id="line2d_50">
      <g>
       <use xlink:href="#mc457f74809" x="441.860716" y="134.968027" style="stroke: #000000; stroke-width: 0.8"/>
      </g>
     </g>
     <g id="text_40">
      <!-- 300.0 -->
      <g transform="translate(406.232591 138.767246) scale(0.1 -0.1)">
       <use xlink:href="#DejaVuSans-33"/>
       <use xlink:href="#DejaVuSans-30" x="63.623047"/>
       <use xlink:href="#DejaVuSans-30" x="127.246094"/>
       <use xlink:href="#DejaVuSans-2e" x="190.869141"/>
       <use xlink:href="#DejaVuSans-30" x="222.65625"/>
      </g>
     </g>
    </g>
    <g id="ytick_12">
     <g id="line2d_51">
      <path d="M 441.860716 97.687048 
L 1069.2 97.687048 
" clip-path="url(#p14dfab4c36)" style="fill: none; stroke: #b0b0b0; stroke-width: 0.8; stroke-linecap: square"/>
     </g>
     <g id="line2d_52">
      <g>
       <use xlink:href="#mc457f74809" x="441.860716" y="97.687048" style="stroke: #000000; stroke-width: 0.8"/>
      </g>
     </g>
     <g id="text_41">
      <!-- 302.5 -->
      <g transform="translate(406.232591 101.486267) scale(0.1 -0.1)">
       <use xlink:href="#DejaVuSans-33"/>
       <use xlink:href="#DejaVuSans-30" x="63.623047"/>
       <use xlink:href="#DejaVuSans-32" x="127.246094"/>
       <use xlink:href="#DejaVuSans-2e" x="190.869141"/>
       <use xlink:href="#DejaVuSans-35" x="222.65625"/>
      </g>
     </g>
    </g>
    <g id="ytick_13">
     <g id="line2d_53">
      <path d="M 441.860716 60.40607 
L 1069.2 60.40607 
" clip-path="url(#p14dfab4c36)" style="fill: none; stroke: #b0b0b0; stroke-width: 0.8; stroke-linecap: square"/>
     </g>
     <g id="line2d_54">
      <g>
       <use xlink:href="#mc457f74809" x="441.860716" y="60.40607" style="stroke: #000000; stroke-width: 0.8"/>
      </g>
     </g>
     <g id="text_42">
      <!-- 305.0 -->
      <g transform="translate(406.232591 64.205289) scale(0.1 -0.1)">
       <use xlink:href="#DejaVuSans-33"/>
       <use xlink:href="#DejaVuSans-30" x="63.623047"/>
       <use xlink:href="#DejaVuSans-35" x="127.246094"/>
       <use xlink:href="#DejaVuSans-2e" x="190.869141"/>
       <use xlink:href="#DejaVuSans-30" x="222.65625"/>
      </g>
     </g>
    </g>
    <g id="ytick_14">
     <g id="line2d_55">
      <path d="M 441.860716 23.125091 
L 1069.2 23.125091 
" clip-path="url(#p14dfab4c36)" style="fill: none; stroke: #b0b0b0; stroke-width: 0.8; stroke-linecap: square"/>
     </g>
     <g id="line2d_56">
      <g>
       <use xlink:href="#mc457f74809" x="441.860716" y="23.125091" style="stroke: #000000; stroke-width: 0.8"/>
      </g>
     </g>
     <g id="text_43">
      <!-- 307.5 -->
      <g transform="translate(406.232591 26.92431) scale(0.1 -0.1)">
       <use xlink:href="#DejaVuSans-33"/>
       <use xlink:href="#DejaVuSans-30" x="63.623047"/>
       <use xlink:href="#DejaVuSans-37" x="127.246094"/>
       <use xlink:href="#DejaVuSans-2e" x="190.869141"/>
       <use xlink:href="#DejaVuSans-35" x="222.65625"/>
      </g>
     </g>
    </g>
    <g id="text_44">
     <!-- Elevation [m] -->
     <g transform="translate(400.152904 198.006719) rotate(-90) scale(0.1 -0.1)">
      <defs>
       <path id="DejaVuSans-45" d="M 628 4666 
L 3578 4666 
L 3578 4134 
L 1259 4134 
L 1259 2753 
L 3481 2753 
L 3481 2222 
L 1259 2222 
L 1259 531 
L 3634 531 
L 3634 0 
L 628 0 
L 628 4666 
z
" transform="scale(0.015625)"/>
       <path id="DejaVuSans-6c" d="M 603 4863 
L 1178 4863 
L 1178 0 
L 603 0 
L 603 4863 
z
" transform="scale(0.015625)"/>
       <path id="DejaVuSans-76" d="M 191 3500 
L 800 3500 
L 1894 563 
L 2988 3500 
L 3597 3500 
L 2284 0 
L 1503 0 
L 191 3500 
z
" transform="scale(0.015625)"/>
      </defs>
      <use xlink:href="#DejaVuSans-45"/>
      <use xlink:href="#DejaVuSans-6c" x="63.183594"/>
      <use xlink:href="#DejaVuSans-65" x="90.966797"/>
      <use xlink:href="#DejaVuSans-76" x="152.490234"/>
      <use xlink:href="#DejaVuSans-61" x="211.669922"/>
      <use xlink:href="#DejaVuSans-74" x="272.949219"/>
      <use xlink:href="#DejaVuSans-69" x="312.158203"/>
      <use xlink:href="#DejaVuSans-6f" x="339.941406"/>
      <use xlink:href="#DejaVuSans-6e" x="401.123047"/>
      <use xlink:href="#DejaVuSans-20" x="464.501953"/>
      <use xlink:href="#DejaVuSans-5b" x="496.289062"/>
      <use xlink:href="#DejaVuSans-6d" x="535.302734"/>
      <use xlink:href="#DejaVuSans-5d" x="632.714844"/>
     </g>
    </g>
   </g>
   <g id="line2d_57">
    <path d="M 470.376138 39.677846 
L 473.027136 41.914705 
L 475.678134 44.300687 
L 478.329132 46.239298 
L 480.98013 48.476157 
L 483.631128 50.862139 
L 486.282126 53.248122 
L 488.933124 55.932353 
L 491.584122 58.020087 
L 494.23512 60.107822 
L 496.886118 61.748185 
L 499.537116 63.239424 
L 502.188114 64.58154 
L 504.839112 65.327159 
L 507.49011 66.072779 
" clip-path="url(#p14dfab4c36)" style="fill: none; stroke: #d95f02; stroke-width: 1.5; stroke-linecap: square"/>
   </g>
   <g id="line2d_58">
    <path d="M 507.49011 318.04 
L 507.49011 10.8 
" clip-path="url(#p14dfab4c36)" style="fill: none; stroke-dasharray: 5.55,2.4; stroke-dashoffset: 0; stroke: #808080; stroke-opacity: 0.5; stroke-width: 1.5"/>
   </g>
   <g id="line2d_59">
    <path d="M 470.376138 39.677846 
L 472.940206 41.914705 
L 475.504273 44.002439 
L 478.068341 45.94105 
L 480.632408 48.177909 
L 483.196476 50.265644 
L 485.760543 52.651626 
L 488.324611 55.186733 
L 490.888678 57.274468 
L 493.452746 59.362203 
L 496.016813 61.002566 
L 498.580881 62.642929 
L 501.144948 63.985044 
L 503.709016 65.178035 
L 506.273083 65.923655 
L 508.837151 66.669274 
L 511.401218 67.713142 
L 513.965286 69.055257 
L 516.529353 70.69562 
L 519.09342 72.335983 
L 521.657488 73.976346 
L 524.221555 75.765833 
L 526.785623 77.107948 
L 529.34969 79.493931 
L 531.913758 82.029038 
L 534.477825 84.862392 
L 537.041893 87.546622 
L 539.60596 89.783481 
L 542.170028 91.572968 
L 544.734095 93.213331 
L 547.298163 94.853694 
" clip-path="url(#p14dfab4c36)" style="fill: none; stroke: #7570b3; stroke-width: 1.5; stroke-linecap: square"/>
   </g>
   <g id="line2d_60">
    <path d="M 547.298163 318.04 
L 547.298163 10.8 
" clip-path="url(#p14dfab4c36)" style="fill: none; stroke-dasharray: 5.55,2.4; stroke-dashoffset: 0; stroke: #808080; stroke-opacity: 0.5; stroke-width: 1.5"/>
   </g>
   <g id="line2d_61">
    <path d="M 470.376138 39.677846 
L 472.854553 41.765581 
L 475.332967 44.002439 
L 477.811382 45.791926 
L 480.289796 47.879661 
L 482.768211 49.967396 
L 485.246625 52.353379 
L 487.72504 54.739361 
L 490.203454 56.97622 
L 492.681869 58.914831 
L 495.160283 60.555194 
L 497.638698 62.195557 
L 500.117112 63.388548 
L 502.595527 64.730663 
L 505.073941 65.476283 
L 507.552356 66.221903 
L 510.03077 66.818398 
L 512.509185 68.01139 
L 514.987599 69.502629 
L 517.466014 71.142992 
L 519.944428 72.783355 
L 522.422843 74.274594 
L 524.901257 75.765833 
L 527.379672 77.257072 
L 529.858086 79.344807 
L 532.336501 82.029038 
L 534.814915 84.862392 
L 537.29333 87.695746 
L 539.771744 89.932605 
L 542.250159 91.722092 
L 544.728573 93.362455 
L 547.206988 95.002818 
L 549.685402 96.643181 
L 552.163817 97.836172 
L 554.642231 99.029164 
L 557.120646 100.073031 
L 559.59906 101.266022 
L 562.077475 102.459014 
L 564.555889 103.652005 
L 567.034304 104.248501 
L 569.512718 105.143244 
L 571.991133 106.336235 
L 574.469547 107.380103 
L 576.947962 108.573094 
L 579.426376 109.318714 
L 581.904791 110.362581 
L 584.383205 111.108201 
L 586.86162 111.85382 
L 589.340034 112.301192 
L 591.818449 112.748564 
L 594.296863 113.494183 
L 596.775278 113.941555 
L 599.253692 114.687175 
L 601.732107 114.687175 
L 604.210521 115.134546 
L 606.688936 115.134546 
L 609.16735 115.432794 
L 611.645765 115.880166 
L 614.124179 115.880166 
L 616.602594 117.520529 
L 619.081008 118.862644 
L 621.559423 119.45914 
L 624.037837 117.967901 
L 626.516252 117.520529 
L 628.994666 116.924033 
" clip-path="url(#p14dfab4c36)" style="fill: none; stroke: #e7298a; stroke-width: 1.5; stroke-linecap: square"/>
   </g>
   <g id="line2d_62">
    <path d="M 628.994666 318.04 
L 628.994666 10.8 
" clip-path="url(#p14dfab4c36)" style="fill: none; stroke-dasharray: 5.55,2.4; stroke-dashoffset: 0; stroke: #808080; stroke-opacity: 0.5; stroke-width: 1.5"/>
   </g>
   <g id="line2d_63">
    <path d="M 470.376138 39.677846 
L 472.844225 41.765581 
L 475.312311 44.002439 
L 477.780398 45.791926 
L 480.248484 47.879661 
L 482.716571 49.967396 
L 485.184657 52.353379 
L 487.652744 54.739361 
L 490.12083 56.827096 
L 492.588917 58.914831 
L 495.057003 60.555194 
L 497.52509 62.195557 
L 499.993176 63.388548 
L 502.461263 64.730663 
L 504.929349 65.327159 
L 507.397436 66.072779 
L 509.865522 66.669274 
L 512.333609 67.862266 
L 514.801695 69.204381 
L 517.269782 70.844744 
L 519.737868 72.485107 
L 522.205955 73.976346 
L 524.674041 75.467585 
L 527.142128 76.958824 
L 529.610214 79.046559 
L 532.078301 81.73079 
L 534.546387 84.564144 
L 537.014474 87.397498 
L 539.48256 89.783481 
L 541.950647 91.572968 
L 544.418733 93.362455 
L 546.88682 95.002818 
L 549.354907 96.792305 
L 551.822993 98.13442 
L 554.29108 99.327412 
L 556.759166 100.520403 
L 559.227253 101.713394 
L 561.695339 103.204633 
L 564.163426 104.248501 
L 566.631512 105.143244 
L 569.099599 105.888864 
L 571.567685 106.932731 
L 574.035772 108.125722 
L 576.503858 109.16959 
L 578.971945 110.213457 
L 581.440031 111.257325 
L 583.908118 112.301192 
L 586.376204 113.046812 
L 588.844291 113.494183 
L 591.312377 114.090679 
L 593.780464 114.836299 
L 596.24855 115.432794 
L 598.716637 115.880166 
L 601.184723 116.178414 
L 603.65281 116.476662 
L 606.120896 116.625786 
L 608.588983 116.774909 
L 611.057069 117.073157 
L 613.525156 117.520529 
L 615.993242 118.564396 
L 618.461329 120.652131 
L 620.929415 122.14337 
L 623.397502 120.950379 
L 625.865588 120.055636 
L 628.333675 119.310016 
L 630.801761 118.862644 
L 633.269848 118.266149 
L 635.737934 118.117025 
L 638.206021 117.818777 
L 640.674107 118.117025 
L 643.142194 118.117025 
L 645.61028 118.266149 
L 648.078367 117.967901 
L 650.546453 118.266149 
L 653.01454 118.415273 
L 655.482626 118.71352 
L 657.950713 119.310016 
L 660.418799 119.45914 
L 662.886886 120.055636 
L 665.354972 120.055636 
L 667.823059 120.652131 
" clip-path="url(#p14dfab4c36)" style="fill: none; stroke: #66a61e; stroke-width: 1.5; stroke-linecap: square"/>
   </g>
   <g id="line2d_64">
    <path d="M 667.823059 318.04 
L 667.823059 10.8 
" clip-path="url(#p14dfab4c36)" style="fill: none; stroke-dasharray: 5.55,2.4; stroke-dashoffset: 0; stroke: #808080; stroke-opacity: 0.5; stroke-width: 1.5"/>
   </g>
   <g id="line2d_65">
    <path d="M 470.376138 39.677846 
L 472.836367 41.914705 
L 475.296596 44.002439 
L 477.756825 45.791926 
L 480.217054 47.879661 
L 482.677283 49.967396 
L 485.137513 52.353379 
L 487.597742 54.590237 
L 490.057971 56.827096 
L 492.5182 58.914831 
L 494.978429 60.555194 
L 497.438658 62.195557 
L 499.898887 63.388548 
L 502.359116 64.58154 
L 504.819345 65.327159 
L 507.279574 65.923655 
L 509.739803 66.52015 
L 512.200032 67.564018 
L 514.660261 68.906133 
L 517.12049 70.546496 
L 519.580719 72.186859 
L 522.040948 73.827222 
L 524.501177 75.318461 
L 526.961406 76.809701 
L 529.421635 78.599187 
L 531.881864 81.283418 
L 534.342093 84.265896 
L 536.802322 87.099251 
L 539.262551 89.634357 
L 541.722781 91.423844 
L 544.18301 93.213331 
L 546.643239 95.151942 
L 549.103468 96.941429 
L 551.563697 98.730916 
L 554.023926 99.923907 
L 556.484155 101.266022 
L 558.944384 102.459014 
L 561.404613 104.248501 
L 563.864842 105.292368 
L 566.325071 106.187112 
L 568.7853 106.932731 
L 571.245529 107.976599 
L 573.705758 109.16959 
L 576.165987 110.213457 
L 578.626216 111.406449 
L 581.086445 112.450316 
L 583.546674 113.643307 
L 586.006903 114.388927 
L 588.467132 115.28367 
L 590.927361 115.880166 
L 593.38759 116.625786 
L 595.84782 117.222281 
L 598.308049 117.669653 
L 600.768278 118.117025 
L 603.228507 118.415273 
L 605.688736 118.862644 
L 608.148965 118.862644 
L 610.609194 119.310016 
L 613.069423 119.757388 
L 615.529652 120.801255 
L 617.989881 123.187238 
L 620.45011 124.827601 
L 622.910339 124.231105 
L 625.370568 122.88899 
L 627.830797 121.994246 
L 630.291026 121.546875 
L 632.751255 121.248627 
L 635.211484 120.950379 
L 637.671713 120.801255 
L 640.131942 121.099503 
L 642.592171 121.248627 
L 645.0524 121.695999 
L 647.512629 121.695999 
L 649.972858 121.845123 
L 652.433088 121.695999 
L 654.893317 121.695999 
L 657.353546 121.695999 
L 659.813775 121.845123 
L 662.274004 121.845123 
L 664.734233 122.14337 
L 667.194462 122.292494 
L 669.654691 122.739866 
L 672.11492 122.88899 
L 674.575149 123.485486 
L 677.035378 123.485486 
L 679.495607 123.63461 
L 681.955836 123.63461 
L 684.416065 123.485486 
L 686.876294 123.485486 
L 689.336523 123.038114 
L 691.796752 123.038114 
L 694.256981 122.292494 
L 696.71721 122.14337 
L 699.177439 121.397751 
L 701.637668 120.801255 
L 704.097897 119.906512 
L 706.558127 118.862644 
L 709.018356 118.117025 
L 711.478585 116.924033 
L 713.938814 116.178414 
L 716.399043 114.836299 
L 718.859272 114.090679 
L 721.319501 113.046812 
L 723.77973 112.450316 
L 726.239959 111.85382 
L 728.700188 111.406449 
L 731.160417 111.406449 
L 733.620646 111.257325 
L 736.080875 111.85382 
L 738.541104 112.450316 
L 741.001333 113.941555 
L 743.461562 115.432794 
L 745.921791 117.073157 
" clip-path="url(#p14dfab4c36)" style="fill: none; stroke: #e6ab02; stroke-width: 1.5; stroke-linecap: square"/>
   </g>
   <g id="line2d_66">
    <path d="M 745.921791 318.04 
L 745.921791 10.8 
" clip-path="url(#p14dfab4c36)" style="fill: none; stroke-dasharray: 5.55,2.4; stroke-dashoffset: 0; stroke: #808080; stroke-opacity: 0.5; stroke-width: 1.5"/>
   </g>
   <g id="line2d_67">
    <path d="M 470.376138 39.677846 
L 475.298863 44.002439 
L 477.760225 45.94105 
L 480.221587 48.028785 
L 482.68295 49.967396 
L 490.067037 56.97622 
L 492.528399 58.914831 
L 497.451124 62.195557 
L 502.373848 64.58154 
L 504.835211 65.327159 
L 509.757935 66.52015 
L 512.219298 67.414894 
L 517.142022 70.397372 
L 524.526109 75.318461 
L 526.987471 76.660577 
L 529.448834 78.599187 
L 531.910196 81.283418 
L 536.832921 87.099251 
L 539.294283 89.634357 
L 541.755645 91.572968 
L 544.217008 93.362455 
L 546.67837 95.301066 
L 551.601094 98.88004 
L 554.062457 100.222155 
L 556.523819 101.713394 
L 558.985181 103.055509 
L 561.446544 104.695872 
L 563.907906 105.73974 
L 566.369268 106.634483 
L 568.830631 107.380103 
L 571.291993 108.42397 
L 576.214718 110.809953 
L 581.137442 112.897688 
L 583.598805 114.239803 
L 586.060167 114.985423 
L 588.521529 115.880166 
L 590.982891 116.476662 
L 593.444254 117.222281 
L 598.366978 118.415273 
L 600.828341 118.862644 
L 603.289703 119.160892 
L 605.751065 119.608264 
L 608.212428 119.757388 
L 613.135152 120.652131 
L 615.596515 121.845123 
L 618.057877 124.231105 
L 620.519239 125.57322 
L 622.980601 125.125849 
L 625.441964 123.63461 
L 630.364688 122.441618 
L 632.826051 122.14337 
L 635.287413 121.994246 
L 637.748775 121.994246 
L 640.210138 122.14337 
L 642.6715 122.441618 
L 645.132862 122.88899 
L 647.594225 123.187238 
L 652.516949 123.187238 
L 654.978311 122.88899 
L 657.439674 122.88899 
L 659.901036 122.739866 
L 667.285123 123.187238 
L 669.746485 123.63461 
L 672.207848 123.932857 
L 674.66921 124.380229 
L 679.591935 124.678477 
L 686.976022 124.231105 
L 691.898746 123.63461 
L 696.821471 122.739866 
L 701.744195 121.248627 
L 704.205558 120.20476 
L 706.66692 119.310016 
L 709.128282 118.266149 
L 711.589645 117.371405 
L 714.051007 116.327538 
L 721.435094 113.643307 
L 723.896456 112.897688 
L 726.357818 112.301192 
L 728.819181 112.002944 
L 731.280543 111.555572 
L 733.741905 111.85382 
L 736.203268 112.002944 
L 741.125992 114.090679 
L 743.587355 115.880166 
L 746.048717 117.520529 
L 748.510079 119.310016 
L 750.971442 120.950379 
L 753.432804 122.292494 
L 755.894166 123.783733 
L 758.355529 124.529353 
L 760.816891 126.169716 
L 763.278253 127.06446 
L 765.739615 128.108327 
L 770.66234 129.897814 
L 773.123702 131.090805 
L 775.585065 131.985549 
L 778.046427 133.476788 
L 780.507789 134.669779 
L 782.969152 136.310142 
L 785.430514 137.652257 
L 792.814601 142.125975 
L 795.275963 143.915462 
L 797.737325 145.406701 
L 800.198688 147.494436 
L 800.198688 147.494436 
" clip-path="url(#p14dfab4c36)" style="fill: none; stroke: #a6761d; stroke-width: 1.5; stroke-linecap: square"/>
   </g>
   <g id="line2d_68">
    <path d="M 800.198688 318.04 
L 800.198688 10.8 
" clip-path="url(#p14dfab4c36)" style="fill: none; stroke-dasharray: 5.55,2.4; stroke-dashoffset: 0; stroke: #808080; stroke-opacity: 0.5; stroke-width: 1.5"/>
   </g>
   <g id="line2d_69">
    <path d="M 470.376138 39.677846 
L 475.27855 44.151563 
L 477.729756 45.94105 
L 482.632168 50.11652 
L 492.436991 59.063955 
L 494.888197 60.704318 
L 497.339403 62.046433 
L 499.790609 63.239424 
L 502.241815 64.283292 
L 504.693021 65.028911 
L 509.595432 65.923655 
L 512.046638 66.818398 
L 514.497844 68.01139 
L 516.94905 69.502629 
L 519.400256 71.142992 
L 524.302668 74.721966 
L 526.753873 76.213205 
L 529.205079 78.002692 
L 531.656285 80.836046 
L 536.558697 87.248375 
L 539.009903 89.932605 
L 541.461109 92.169464 
L 543.912315 93.958951 
L 546.363521 95.897562 
L 551.265932 100.818651 
L 553.717138 102.757262 
L 558.61955 106.336235 
L 561.070756 108.42397 
L 563.521962 109.915209 
L 565.973168 110.511705 
L 568.424373 111.257325 
L 570.875579 112.152068 
L 573.326785 113.345059 
L 575.777991 114.388927 
L 578.229197 115.134546 
L 588.034021 119.906512 
L 590.485226 120.801255 
L 592.936432 121.845123 
L 597.838844 123.038114 
L 600.29005 123.485486 
L 607.643668 125.722344 
L 612.546079 126.915336 
L 614.997285 128.108327 
L 619.899697 132.43292 
L 622.350903 132.582044 
L 624.802109 130.792557 
L 627.253315 129.599566 
L 629.70452 129.00307 
L 632.155726 128.853947 
L 634.606932 129.152194 
L 639.509344 128.853947 
L 641.96055 129.301318 
L 644.411756 130.345186 
L 646.862962 131.538177 
L 649.314168 132.43292 
L 651.765373 132.283797 
L 654.216579 131.836425 
L 656.667785 130.792557 
L 659.118991 130.196062 
L 661.570197 129.450442 
L 664.021403 129.599566 
L 666.472609 129.897814 
L 673.826226 132.582044 
L 676.277432 133.327664 
L 678.728638 133.775036 
L 681.179844 133.92416 
L 683.63105 133.775036 
L 686.082256 133.476788 
L 688.533462 133.029416 
L 693.435873 131.836425 
L 695.887079 131.090805 
L 698.338285 130.046938 
L 700.789491 128.853947 
L 703.240697 127.511831 
L 705.691903 126.31884 
L 708.143109 124.976725 
L 710.594315 124.081981 
L 713.04552 123.336362 
L 715.496726 122.739866 
L 717.947932 122.292494 
L 720.399138 121.994246 
L 722.850344 121.546875 
L 725.30155 121.546875 
L 727.752756 121.397751 
L 732.655167 121.994246 
L 735.106373 122.590742 
L 737.557579 123.485486 
L 740.008785 124.529353 
L 744.911197 126.915336 
L 747.362403 128.257451 
L 749.813609 129.450442 
L 754.71602 132.134673 
L 759.618432 135.117151 
L 762.069638 136.459266 
L 766.97205 138.248753 
L 771.874462 139.739992 
L 776.776873 141.529479 
L 781.679285 144.21371 
L 796.38652 154.055888 
L 801.288932 157.038366 
L 803.740138 158.231358 
L 806.191344 159.573473 
L 811.093756 162.555951 
L 813.544962 164.196314 
L 818.447373 167.178792 
L 820.898579 168.520908 
L 823.349785 169.713899 
L 825.800991 170.757766 
L 833.154609 173.441997 
L 835.605814 174.187616 
L 838.05702 175.231484 
L 842.959432 177.020971 
L 845.410638 178.363086 
L 847.861844 179.406953 
L 850.31305 181.047316 
L 850.31305 181.047316 
" clip-path="url(#p14dfab4c36)" style="fill: none; stroke: #666666; stroke-width: 1.5; stroke-linecap: square"/>
   </g>
   <g id="line2d_70">
    <path d="M 850.31305 318.04 
L 850.31305 10.8 
" clip-path="url(#p14dfab4c36)" style="fill: none; stroke-dasharray: 5.55,2.4; stroke-dashoffset: 0; stroke: #808080; stroke-opacity: 0.5; stroke-width: 1.5"/>
   </g>
   <g id="line2d_71">
    <path d="M 470.376138 39.677846 
L 475.275914 44.300687 
L 480.175689 48.177909 
L 482.625577 50.265644 
L 489.97524 56.827096 
L 492.425128 58.765707 
L 494.875015 60.40607 
L 497.324903 61.748185 
L 499.774791 62.792053 
L 502.224678 63.686796 
L 507.124454 64.879787 
L 509.574342 65.327159 
L 512.024229 65.923655 
L 514.474117 66.967522 
L 516.924005 68.160514 
L 521.82378 71.739487 
L 524.273668 73.678098 
L 526.723556 75.467585 
L 529.173443 77.55532 
L 531.623331 80.239551 
L 536.523106 87.695746 
L 538.972994 90.827348 
L 541.422882 93.213331 
L 543.87277 95.151942 
L 546.322657 97.239677 
L 553.67232 104.695872 
L 556.122208 106.634483 
L 558.572096 108.871342 
L 561.021984 110.809953 
L 563.471871 112.152068 
L 568.371647 113.643307 
L 570.821534 114.687175 
L 573.271422 116.02929 
L 575.72131 116.774909 
L 578.171197 117.371405 
L 580.621085 118.266149 
L 587.970748 121.845123 
L 590.420636 123.187238 
L 592.870524 124.231105 
L 595.320411 124.976725 
L 600.220187 126.169716 
L 602.670075 126.915336 
L 607.56985 128.704823 
L 612.469625 129.897814 
L 614.919513 130.792557 
L 617.369401 132.880292 
L 619.819289 135.415399 
L 622.269176 136.310142 
L 624.719064 134.968027 
L 627.168952 133.476788 
L 629.618839 132.582044 
L 632.068727 132.43292 
L 634.518615 132.43292 
L 636.968503 132.134673 
L 639.41839 131.538177 
L 641.868278 131.389053 
L 644.318166 131.985549 
L 646.768053 132.880292 
L 649.217941 133.625912 
L 651.667829 133.327664 
L 656.567604 132.134673 
L 659.017492 131.836425 
L 661.46738 131.687301 
L 663.917267 132.134673 
L 666.367155 133.029416 
L 668.817043 134.073284 
L 676.166706 137.652257 
L 678.616594 138.696125 
L 681.066481 139.590868 
L 683.516369 140.03824 
L 685.966257 140.187364 
L 688.416144 140.03824 
L 690.866032 139.739992 
L 693.31592 139.29262 
L 698.215695 138.099629 
L 700.665583 137.204886 
L 712.915022 131.985549 
L 715.364909 131.239929 
L 717.814797 130.643433 
L 720.264685 130.345186 
L 722.714572 130.345186 
L 730.064235 130.792557 
L 732.514123 131.239929 
L 734.964011 131.836425 
L 737.413899 132.582044 
L 739.863786 133.476788 
L 742.313674 134.222407 
L 744.763562 135.117151 
L 747.213449 135.86277 
L 749.663337 136.757514 
L 752.113225 138.099629 
L 754.563113 139.590868 
L 757.013 141.231231 
L 759.462888 142.722471 
L 764.362663 145.108453 
L 774.162214 148.687427 
L 776.612102 149.731294 
L 779.06199 150.626038 
L 783.961765 152.713773 
L 788.861541 155.099755 
L 791.311428 156.441871 
L 808.460642 164.79281 
L 815.810305 168.819155 
L 818.260193 170.608642 
L 825.609856 175.529732 
L 828.059744 176.871847 
L 830.509632 177.915714 
L 832.959519 179.108706 
L 835.409407 180.003449 
L 837.859295 181.19644 
L 840.309182 182.687679 
L 842.75907 184.328043 
L 847.658846 188.503512 
L 855.008509 195.064964 
L 857.458396 197.152699 
L 862.358172 201.029921 
L 864.80806 202.52116 
L 867.257947 203.863275 
L 869.707835 204.608895 
L 872.157723 205.20539 
L 877.057498 205.801886 
L 881.957273 205.801886 
L 886.857049 205.503638 
L 891.756824 204.907143 
L 894.206712 204.907143 
L 896.6566 205.056267 
L 899.106487 205.503638 
L 901.556375 206.249258 
L 901.556375 206.249258 
" clip-path="url(#p14dfab4c36)" style="fill: none; stroke: #e41a1c; stroke-width: 1.5; stroke-linecap: square"/>
   </g>
   <g id="line2d_72">
    <path d="M 901.556375 318.04 
L 901.556375 10.8 
" clip-path="url(#p14dfab4c36)" style="fill: none; stroke-dasharray: 5.55,2.4; stroke-dashoffset: 0; stroke: #808080; stroke-opacity: 0.5; stroke-width: 1.5"/>
   </g>
   <g id="line2d_73">
    <path d="M 470.376138 39.677846 
L 475.262198 44.449811 
L 477.705227 46.239298 
L 480.148257 48.177909 
L 487.477346 54.441113 
L 489.920376 56.677972 
L 492.363405 58.467459 
L 494.806435 59.958698 
L 497.249465 61.15169 
L 499.692494 62.195557 
L 504.578554 63.686796 
L 509.464613 64.58154 
L 511.907643 65.178035 
L 514.350672 66.072779 
L 516.793702 67.116646 
L 519.236732 68.757009 
L 521.679762 70.546496 
L 524.122791 72.634231 
L 526.565821 74.572842 
L 529.008851 76.660577 
L 531.45188 79.643055 
L 536.33794 87.248375 
L 538.780969 90.678225 
L 541.223999 93.511579 
L 548.553088 100.073031 
L 550.996118 102.757262 
L 555.882177 107.081855 
L 560.768236 111.257325 
L 563.211266 112.59944 
L 565.654296 113.494183 
L 568.097325 114.239803 
L 570.540355 115.134546 
L 572.983385 116.327538 
L 575.426414 117.371405 
L 577.869444 117.967901 
L 580.312474 118.862644 
L 585.198533 121.546875 
L 587.641563 123.038114 
L 592.527622 125.722344 
L 594.970652 126.31884 
L 597.413682 127.06446 
L 602.299741 128.257451 
L 604.742771 129.301318 
L 609.62883 131.985549 
L 614.514889 134.371531 
L 616.957919 136.011894 
L 619.400949 138.397877 
L 621.843978 139.29262 
L 624.287008 138.248753 
L 626.730038 136.906638 
L 629.173067 136.011894 
L 631.616097 135.713647 
L 634.059127 136.011894 
L 636.502156 136.011894 
L 638.945186 135.266275 
L 641.388216 134.371531 
L 643.831245 134.222407 
L 646.274275 134.520655 
L 648.717305 135.117151 
L 651.160335 135.266275 
L 653.603364 135.117151 
L 656.046394 135.117151 
L 658.489424 135.415399 
L 660.932453 135.86277 
L 663.375483 136.60839 
L 665.818513 137.503134 
L 668.261542 138.547001 
L 673.147602 141.231231 
L 675.590631 142.424223 
L 678.033661 143.46809 
L 680.476691 144.661081 
L 682.91972 145.704949 
L 685.36275 146.599692 
L 687.80578 147.196188 
L 690.248809 147.494436 
L 692.691839 147.64356 
L 697.577898 147.047064 
L 700.020928 146.599692 
L 702.463958 145.854073 
L 704.906987 145.257577 
L 707.350017 144.362834 
L 709.793047 143.766338 
L 712.236077 143.020718 
L 714.679106 142.424223 
L 717.122136 141.976851 
L 722.008195 141.380355 
L 724.451225 141.380355 
L 726.894255 141.231231 
L 731.780314 141.529479 
L 736.666373 141.529479 
L 739.109403 141.380355 
L 741.552433 141.380355 
L 746.438492 141.082107 
L 748.881522 141.231231 
L 751.324551 141.529479 
L 753.767581 142.125975 
L 758.65364 143.915462 
L 761.09667 145.108453 
L 763.5397 146.003197 
L 765.982729 146.748816 
L 770.868789 148.836551 
L 773.311819 150.029542 
L 775.754848 151.520781 
L 778.197878 152.862897 
L 780.640908 154.354136 
L 792.856056 161.064712 
L 805.071204 167.029668 
L 807.514234 168.073536 
L 809.957264 169.266527 
L 812.400293 170.757766 
L 814.843323 172.547253 
L 819.729382 177.468342 
L 822.172412 180.301697 
L 827.058471 186.714025 
L 831.944531 193.573725 
L 836.83059 200.880797 
L 841.71665 207.591373 
L 846.602709 212.363338 
L 849.045739 214.451073 
L 851.488768 216.24056 
L 853.931798 217.880923 
L 858.817857 220.565154 
L 868.589976 225.337119 
L 871.033006 226.380986 
L 873.476035 227.126606 
L 875.919065 227.573978 
L 878.362095 227.723101 
L 880.805124 227.573978 
L 883.248154 227.126606 
L 885.691184 226.53011 
L 888.134213 226.082738 
L 893.020273 224.591499 
L 897.906332 222.503765 
L 900.349362 221.609021 
L 902.792392 220.863401 
L 907.678451 220.266906 
L 910.121481 220.41603 
L 912.56451 220.714278 
L 915.00754 221.310773 
L 917.45057 222.056393 
L 919.893599 223.249384 
L 922.336629 224.293251 
L 924.779659 225.486243 
L 927.222688 226.231862 
L 929.665718 226.828358 
L 932.108748 227.126606 
L 934.551777 227.27573 
L 936.994807 227.27573 
L 944.323896 226.828358 
L 946.766926 226.977482 
L 951.652985 227.573978 
L 954.096015 228.468721 
L 956.539045 229.214341 
L 958.982074 230.109084 
L 958.982074 230.109084 
" clip-path="url(#p14dfab4c36)" style="fill: none; stroke: #377eb8; stroke-width: 1.5; stroke-linecap: square"/>
   </g>
   <g id="line2d_74">
    <path d="M 958.982074 318.04 
L 958.982074 10.8 
" clip-path="url(#p14dfab4c36)" style="fill: none; stroke-dasharray: 5.55,2.4; stroke-dashoffset: 0; stroke: #808080; stroke-opacity: 0.5; stroke-width: 1.5"/>
   </g>
   <g id="line2d_75">
    <path d="M 470.376138 39.677846 
L 472.818739 42.212952 
L 475.261341 44.449811 
L 477.703942 46.388422 
L 480.146543 48.177909 
L 482.589144 50.11652 
L 487.474346 54.29199 
L 489.916947 56.2306 
L 492.359548 58.020087 
L 494.80215 59.511327 
L 497.244751 60.704318 
L 499.687352 61.599061 
L 502.129953 62.344681 
L 504.572554 62.941177 
L 507.015155 63.686796 
L 509.457756 64.134168 
L 511.900357 64.730663 
L 514.342959 65.774531 
L 516.78556 66.967522 
L 519.228161 68.309637 
L 521.670762 70.397372 
L 524.113363 72.186859 
L 526.555964 74.12547 
L 528.998565 76.213205 
L 531.441167 79.195683 
L 536.326369 86.950127 
L 538.76897 90.379977 
L 541.211571 93.362455 
L 543.654172 95.748438 
L 546.096773 97.836172 
L 548.539374 100.073031 
L 550.981976 102.757262 
L 558.309779 109.318714 
L 560.75238 111.406449 
L 563.194981 113.046812 
L 565.637582 113.792431 
L 568.080183 114.687175 
L 570.522785 115.731042 
L 572.965386 117.073157 
L 575.407987 118.117025 
L 580.293189 119.608264 
L 582.73579 120.801255 
L 585.178391 122.292494 
L 587.620993 123.63461 
L 590.063594 125.125849 
L 592.506195 126.31884 
L 594.948796 126.915336 
L 597.391397 127.660955 
L 602.276599 128.853947 
L 604.7192 130.196062 
L 609.604403 134.371531 
L 614.489605 137.35401 
L 616.932206 138.547001 
L 619.374807 140.187364 
L 621.817408 141.380355 
L 624.260009 140.78386 
L 626.702611 139.739992 
L 629.145212 139.143497 
L 631.587813 139.29262 
L 634.030414 140.03824 
L 636.473015 140.932984 
L 638.915616 140.932984 
L 641.358217 140.336488 
L 643.800819 140.03824 
L 646.24342 140.485612 
L 648.686021 141.082107 
L 651.128622 141.529479 
L 653.571223 141.678603 
L 656.013824 141.678603 
L 658.456425 141.827727 
L 660.899026 142.275099 
L 663.341628 142.871594 
L 668.22683 144.362834 
L 673.112032 146.450568 
L 677.997234 149.134799 
L 682.882437 151.520781 
L 685.325038 152.415525 
L 687.767639 153.608516 
L 692.652841 155.696251 
L 695.095442 156.292747 
L 697.538043 156.441871 
L 699.980645 156.292747 
L 704.865847 155.696251 
L 707.308448 155.248879 
L 709.751049 154.950631 
L 714.636251 153.75764 
L 719.521454 152.266401 
L 721.964055 151.669905 
L 724.406656 151.222534 
L 726.849257 150.924286 
L 729.291858 150.775162 
L 731.734459 150.775162 
L 734.17706 150.626038 
L 739.062263 150.029542 
L 741.504864 149.582171 
L 743.947465 149.283923 
L 746.390066 149.134799 
L 748.832667 149.433047 
L 751.275268 149.880418 
L 753.717869 150.476914 
L 756.160471 151.222534 
L 758.603072 151.819029 
L 763.488274 153.310268 
L 768.373476 155.099755 
L 773.258678 157.18749 
L 775.70128 158.380481 
L 783.029083 161.064712 
L 787.914285 162.555951 
L 792.799488 164.345438 
L 795.242089 165.389305 
L 797.68469 166.582297 
L 800.127291 168.073536 
L 802.569892 169.713899 
L 805.012493 171.503386 
L 807.455094 173.441997 
L 812.340297 178.064838 
L 817.225499 183.284175 
L 824.553302 191.635114 
L 831.881106 199.83693 
L 836.766308 205.95101 
L 844.094111 215.793188 
L 846.536712 218.775667 
L 848.979314 221.310773 
L 851.421915 223.398508 
L 856.307117 226.977482 
L 858.749718 228.617845 
L 861.192319 230.407332 
L 863.63492 232.345943 
L 868.520123 235.328421 
L 870.962724 236.670536 
L 878.290527 240.24951 
L 880.733128 241.144254 
L 883.175729 241.889873 
L 885.61833 242.486369 
L 890.503533 243.082865 
L 892.946134 243.082865 
L 895.388735 243.231989 
L 900.273937 243.231989 
L 905.15914 244.126732 
L 907.601741 244.723228 
L 910.044342 245.468847 
L 917.372145 248.153078 
L 922.257347 250.240813 
L 924.699949 251.135556 
L 927.14255 251.732052 
L 929.585151 252.030299 
L 932.027752 252.030299 
L 934.470353 251.881176 
L 939.355555 251.28468 
L 941.798156 250.837308 
L 944.240758 250.53906 
L 951.568561 249.196945 
L 954.011162 248.600449 
L 956.453763 248.153078 
L 958.896364 247.85483 
L 961.338966 248.003954 
L 963.781567 248.451326 
L 966.224168 249.346069 
L 971.10937 251.433804 
L 973.551971 252.626795 
L 978.437173 254.71453 
L 980.879775 256.056645 
L 983.322376 257.547884 
L 985.764977 259.337371 
L 995.535381 268.732178 
L 997.977982 270.372541 
L 1000.420584 271.714656 
L 1012.633589 279.170852 
L 1015.07619 280.960339 
L 1017.518792 282.89895 
L 1019.961393 285.434056 
L 1022.403994 288.267411 
L 1024.846595 291.399013 
L 1027.289196 293.934119 
L 1029.731797 296.021854 
L 1029.731797 296.021854 
" clip-path="url(#p14dfab4c36)" style="fill: none; stroke: #4daf4a; stroke-width: 1.5; stroke-linecap: square"/>
   </g>
   <g id="line2d_76">
    <path d="M 1029.731797 318.04 
L 1029.731797 10.8 
" clip-path="url(#p14dfab4c36)" style="fill: none; stroke-dasharray: 5.55,2.4; stroke-dashoffset: 0; stroke: #808080; stroke-opacity: 0.5; stroke-width: 1.5"/>
   </g>
   <g id="line2d_77">
    <path d="M 470.376138 39.677846 
L 472.813354 42.212952 
L 475.250569 44.449811 
L 477.687785 46.388422 
L 480.125 48.177909 
L 484.999432 52.055131 
L 489.873863 56.2306 
L 492.311078 57.870963 
L 494.748294 59.362203 
L 497.185509 60.555194 
L 502.05994 62.344681 
L 511.808803 64.730663 
L 514.246018 65.625407 
L 516.683234 66.818398 
L 519.120449 68.309637 
L 523.99488 72.186859 
L 526.432096 73.976346 
L 528.869312 76.064081 
L 531.306527 78.897435 
L 536.180958 86.651879 
L 538.618174 90.230853 
L 541.055389 93.213331 
L 543.492605 95.599314 
L 545.92982 97.687048 
L 548.367036 99.923907 
L 550.804252 102.608138 
L 558.115898 109.16959 
L 560.553114 111.257325 
L 562.990329 112.897688 
L 570.301976 115.581918 
L 572.739192 116.924033 
L 575.176407 118.117025 
L 577.613623 118.862644 
L 580.050838 119.45914 
L 582.488054 120.652131 
L 584.925269 122.14337 
L 587.362485 123.485486 
L 589.7997 124.976725 
L 592.236916 126.169716 
L 594.674132 126.915336 
L 599.548563 128.108327 
L 601.985778 128.853947 
L 604.422994 130.046938 
L 606.860209 131.985549 
L 609.297425 134.222407 
L 611.73464 135.86277 
L 614.171856 137.35401 
L 616.609072 138.547001 
L 619.046287 140.187364 
L 621.483503 141.678603 
L 623.920718 141.231231 
L 626.357934 140.187364 
L 628.795149 139.441744 
L 631.232365 139.441744 
L 633.66958 140.187364 
L 636.106796 141.082107 
L 638.544012 141.380355 
L 643.418443 140.485612 
L 645.855658 140.932984 
L 650.730089 142.125975 
L 653.167305 142.275099 
L 658.041736 142.275099 
L 660.478951 142.722471 
L 665.353383 143.915462 
L 670.227814 145.704949 
L 672.665029 146.748816 
L 675.102245 148.090931 
L 677.53946 149.582171 
L 679.976676 150.775162 
L 684.851107 152.862897 
L 687.288323 154.055888 
L 692.162754 156.143623 
L 694.599969 157.038366 
L 697.037185 157.336614 
L 699.4744 157.336614 
L 706.786047 156.441871 
L 711.660478 155.547127 
L 721.40934 152.564649 
L 723.846556 152.117277 
L 726.283771 151.819029 
L 728.720987 151.669905 
L 731.158203 151.669905 
L 736.032634 151.371658 
L 738.469849 150.924286 
L 740.907065 150.626038 
L 743.34428 150.178666 
L 745.781496 150.029542 
L 748.218711 150.029542 
L 750.655927 150.476914 
L 755.530358 151.669905 
L 757.967574 152.415525 
L 760.404789 153.012021 
L 765.27922 154.50326 
L 772.590867 157.634862 
L 775.028083 158.827853 
L 782.339729 161.512084 
L 784.776945 162.108579 
L 787.21416 162.854199 
L 789.651376 163.748942 
L 792.088591 164.494562 
L 794.525807 165.538429 
L 796.963023 166.731421 
L 799.400238 168.073536 
L 804.274669 171.65251 
L 809.1491 175.827979 
L 814.023531 180.599945 
L 818.897963 186.117529 
L 823.772394 191.635114 
L 833.521256 202.52116 
L 838.395687 208.63524 
L 845.707334 218.030047 
L 848.144549 220.714278 
L 850.581765 223.10026 
L 853.01898 225.038871 
L 860.330627 229.95996 
L 862.767843 231.749447 
L 865.205058 233.38981 
L 867.642274 234.881049 
L 874.95392 238.907395 
L 877.391136 240.100386 
L 879.828351 241.144254 
L 884.702783 242.635493 
L 887.139998 243.231989 
L 889.577214 243.530236 
L 892.014429 243.977608 
L 896.88886 244.574104 
L 901.763291 245.468847 
L 909.074938 247.705706 
L 911.512154 248.749573 
L 913.949369 249.644317 
L 923.698231 253.819786 
L 926.135447 254.416282 
L 928.572663 254.863654 
L 931.009878 255.012778 
L 935.884309 254.71453 
L 940.75874 253.819786 
L 943.195956 253.521539 
L 955.382034 250.53906 
L 957.819249 249.793441 
L 960.256465 249.644317 
L 962.69368 249.793441 
L 965.130896 250.240813 
L 970.005327 252.030299 
L 972.442542 253.223291 
L 974.879758 254.118034 
L 979.754189 256.205769 
L 982.191405 257.39876 
L 984.62862 259.188247 
L 987.065836 261.126858 
L 994.377482 268.135682 
L 996.814698 269.776045 
L 999.251914 271.267284 
L 1004.126345 273.951515 
L 1006.56356 275.442754 
L 1009.000776 276.784869 
L 1011.437991 278.276108 
L 1013.875207 280.065595 
L 1016.312422 282.004206 
L 1018.749638 284.539313 
L 1023.624069 290.355145 
L 1026.061285 293.337624 
L 1028.4985 295.723606 
L 1030.935716 297.662217 
L 1035.810147 300.644695 
L 1038.247362 302.285058 
L 1040.684578 304.074545 
L 1040.684578 304.074545 
" clip-path="url(#p14dfab4c36)" style="fill: none; stroke: #984ea3; stroke-width: 1.5; stroke-linecap: square"/>
   </g>
   <g id="line2d_78">
    <path d="M 1040.684578 318.04 
L 1040.684578 10.8 
" clip-path="url(#p14dfab4c36)" style="fill: none; stroke-dasharray: 5.55,2.4; stroke-dashoffset: 0; stroke: #808080; stroke-opacity: 0.5; stroke-width: 1.5"/>
   </g>
   <g id="patch_8">
    <path d="M 441.860716 318.04 
L 441.860716 10.8 
" style="fill: none; stroke: #000000; stroke-width: 0.8; stroke-linejoin: miter; stroke-linecap: square"/>
   </g>
   <g id="patch_9">
    <path d="M 1069.2 318.04 
L 1069.2 10.8 
" style="fill: none; stroke: #000000; stroke-width: 0.8; stroke-linejoin: miter; stroke-linecap: square"/>
   </g>
   <g id="patch_10">
    <path d="M 441.860716 318.04 
L 1069.2 318.04 
" style="fill: none; stroke: #000000; stroke-width: 0.8; stroke-linejoin: miter; stroke-linecap: square"/>
   </g>
   <g id="patch_11">
    <path d="M 441.860716 10.8 
L 1069.2 10.8 
" style="fill: none; stroke: #000000; stroke-width: 0.8; stroke-linejoin: miter; stroke-linecap: square"/>
   </g>
   <g id="text_45">
    <!-- 1 -->
    <g transform="translate(509.916465 39.976094) scale(0.1 -0.1)">
     <use xlink:href="#DejaVuSans-31"/>
    </g>
   </g>
   <g id="text_46">
    <!-- 2 -->
    <g transform="translate(549.724518 68.757009) scale(0.1 -0.1)">
     <use xlink:href="#DejaVuSans-32"/>
    </g>
   </g>
   <g id="text_47">
    <!-- 3 -->
    <g transform="translate(631.421021 90.827348) scale(0.1 -0.1)">
     <use xlink:href="#DejaVuSans-33"/>
    </g>
   </g>
   <g id="text_48">
    <!-- 4 -->
    <g transform="translate(670.249414 94.555446) scale(0.1 -0.1)">
     <use xlink:href="#DejaVuSans-34"/>
    </g>
   </g>
   <g id="text_49">
    <!-- 5 -->
    <g transform="translate(748.348146 90.976472) scale(0.1 -0.1)">
     <use xlink:href="#DejaVuSans-35"/>
    </g>
   </g>
   <g id="text_50">
    <!-- 6 -->
    <g transform="translate(802.625042 121.397751) scale(0.1 -0.1)">
     <use xlink:href="#DejaVuSans-36"/>
    </g>
   </g>
   <g id="text_51">
    <!-- 7 -->
    <g transform="translate(852.739404 154.950631) scale(0.1 -0.1)">
     <use xlink:href="#DejaVuSans-37"/>
    </g>
   </g>
   <g id="text_52">
    <!-- 8 -->
    <g transform="translate(903.98273 180.152573) scale(0.1 -0.1)">
     <use xlink:href="#DejaVuSans-38"/>
    </g>
   </g>
   <g id="text_53">
    <!-- 9 -->
    <g transform="translate(961.408429 204.012399) scale(0.1 -0.1)">
     <use xlink:href="#DejaVuSans-39"/>
    </g>
   </g>
   <g id="text_54">
    <!-- 10 -->
    <g transform="translate(1032.158152 269.925169) scale(0.1 -0.1)">
     <use xlink:href="#DejaVuSans-31"/>
     <use xlink:href="#DejaVuSans-30" x="63.623047"/>
    </g>
   </g>
   <g id="text_55">
    <!-- 11 -->
    <g transform="translate(1043.110933 277.977861) scale(0.1 -0.1)">
     <use xlink:href="#DejaVuSans-31"/>
     <use xlink:href="#DejaVuSans-31" x="63.623047"/>
    </g>
   </g>
   <g id="legend_1">
    <g id="patch_12">
     <path d="M 448.860716 77.5125 
L 602.310716 77.5125 
Q 604.310716 77.5125 604.310716 75.5125 
L 604.310716 17.8 
Q 604.310716 15.8 602.310716 15.8 
L 448.860716 15.8 
Q 446.860716 15.8 446.860716 17.8 
L 446.860716 75.5125 
Q 446.860716 77.5125 448.860716 77.5125 
z
" style="fill: #ffffff; opacity: 0.8; stroke: #cccccc; stroke-linejoin: miter"/>
    </g>
    <g id="line2d_79">
     <path d="M 450.860716 23.898438 
L 460.860716 23.898438 
L 470.860716 23.898438 
" style="fill: none; stroke: #d95f02; stroke-width: 1.5; stroke-linecap: square"/>
    </g>
    <g id="text_56">
     <!-- 1 -->
     <g transform="translate(478.860716 27.398438) scale(0.1 -0.1)">
      <use xlink:href="#DejaVuSans-31"/>
     </g>
    </g>
    <g id="line2d_80">
     <path d="M 450.860716 38.576563 
L 460.860716 38.576563 
L 470.860716 38.576563 
" style="fill: none; stroke: #7570b3; stroke-width: 1.5; stroke-linecap: square"/>
    </g>
    <g id="text_57">
     <!-- 2 -->
     <g transform="translate(478.860716 42.076563) scale(0.1 -0.1)">
      <use xlink:href="#DejaVuSans-32"/>
     </g>
    </g>
    <g id="line2d_81">
     <path d="M 450.860716 53.254687 
L 460.860716 53.254687 
L 470.860716 53.254687 
" style="fill: none; stroke: #e7298a; stroke-width: 1.5; stroke-linecap: square"/>
    </g>
    <g id="text_58">
     <!-- 3 -->
     <g transform="translate(478.860716 56.754687) scale(0.1 -0.1)">
      <use xlink:href="#DejaVuSans-33"/>
     </g>
    </g>
    <g id="line2d_82">
     <path d="M 450.860716 67.932813 
L 460.860716 67.932813 
L 470.860716 67.932813 
" style="fill: none; stroke: #66a61e; stroke-width: 1.5; stroke-linecap: square"/>
    </g>
    <g id="text_59">
     <!-- 4 -->
     <g transform="translate(478.860716 71.432813) scale(0.1 -0.1)">
      <use xlink:href="#DejaVuSans-34"/>
     </g>
    </g>
    <g id="line2d_83">
     <path d="M 505.223216 23.898438 
L 515.223216 23.898438 
L 525.223216 23.898438 
" style="fill: none; stroke: #e6ab02; stroke-width: 1.5; stroke-linecap: square"/>
    </g>
    <g id="text_60">
     <!-- 5 -->
     <g transform="translate(533.223216 27.398438) scale(0.1 -0.1)">
      <use xlink:href="#DejaVuSans-35"/>
     </g>
    </g>
    <g id="line2d_84">
     <path d="M 505.223216 38.576563 
L 515.223216 38.576563 
L 525.223216 38.576563 
" style="fill: none; stroke: #a6761d; stroke-width: 1.5; stroke-linecap: square"/>
    </g>
    <g id="text_61">
     <!-- 6 -->
     <g transform="translate(533.223216 42.076563) scale(0.1 -0.1)">
      <use xlink:href="#DejaVuSans-36"/>
     </g>
    </g>
    <g id="line2d_85">
     <path d="M 505.223216 53.254687 
L 515.223216 53.254687 
L 525.223216 53.254687 
" style="fill: none; stroke: #666666; stroke-width: 1.5; stroke-linecap: square"/>
    </g>
    <g id="text_62">
     <!-- 7 -->
     <g transform="translate(533.223216 56.754687) scale(0.1 -0.1)">
      <use xlink:href="#DejaVuSans-37"/>
     </g>
    </g>
    <g id="line2d_86">
     <path d="M 505.223216 67.932813 
L 515.223216 67.932813 
L 525.223216 67.932813 
" style="fill: none; stroke: #e41a1c; stroke-width: 1.5; stroke-linecap: square"/>
    </g>
    <g id="text_63">
     <!-- 8 -->
     <g transform="translate(533.223216 71.432813) scale(0.1 -0.1)">
      <use xlink:href="#DejaVuSans-38"/>
     </g>
    </g>
    <g id="line2d_87">
     <path d="M 559.585716 23.898438 
L 569.585716 23.898438 
L 579.585716 23.898438 
" style="fill: none; stroke: #377eb8; stroke-width: 1.5; stroke-linecap: square"/>
    </g>
    <g id="text_64">
     <!-- 9 -->
     <g transform="translate(587.585716 27.398438) scale(0.1 -0.1)">
      <use xlink:href="#DejaVuSans-39"/>
     </g>
    </g>
    <g id="line2d_88">
     <path d="M 559.585716 38.576563 
L 569.585716 38.576563 
L 579.585716 38.576563 
" style="fill: none; stroke: #4daf4a; stroke-width: 1.5; stroke-linecap: square"/>
    </g>
    <g id="text_65">
     <!-- 10 -->
     <g transform="translate(587.585716 42.076563) scale(0.1 -0.1)">
      <use xlink:href="#DejaVuSans-31"/>
      <use xlink:href="#DejaVuSans-30" x="63.623047"/>
     </g>
    </g>
    <g id="line2d_89">
     <path d="M 559.585716 53.254687 
L 569.585716 53.254687 
L 579.585716 53.254687 
" style="fill: none; stroke: #984ea3; stroke-width: 1.5; stroke-linecap: square"/>
    </g>
    <g id="text_66">
     <!-- 11 -->
     <g transform="translate(587.585716 56.754687) scale(0.1 -0.1)">
      <use xlink:href="#DejaVuSans-31"/>
      <use xlink:href="#DejaVuSans-31" x="63.623047"/>
     </g>
    </g>
   </g>
  </g>
 </g>
 <defs>
  <clipPath id="p7f7304347c">
   <rect x="66.62" y="10.8" width="313.669642" height="307.24"/>
  </clipPath>
  <clipPath id="p14dfab4c36">
   <rect x="441.860716" y="10.8" width="627.339284" height="307.24"/>
  </clipPath>
 </defs>
</svg>
