<?xml version="1.0" encoding="utf-8" standalone="no"?>
<!DOCTYPE svg PUBLIC "-//W3C//DTD SVG 1.1//EN"
  "http://www.w3.org/Graphics/SVG/1.1/DTD/svg11.dtd">
<svg xmlns:xlink="http://www.w3.org/1999/xlink" width="648pt" height="216pt" viewBox="0 0 648 216" xmlns="http://www.w3.org/2000/svg" version="1.1">
 <metadata>
  <rdf:RDF xmlns:dc="http://purl.org/dc/elements/1.1/" xmlns:cc="http://creativecommons.org/ns#" xmlns:rdf="http://www.w3.org/1999/02/22-rdf-syntax-ns#">
   <cc:Work>
    <dc:type rdf:resource="http://purl.org/dc/dcmitype/StillImage"/>
    <dc:date>2024-05-05T16:04:45.162815</dc:date>
    <dc:format>image/svg+xml</dc:format>
    <dc:creator>
     <cc:Agent>
      <dc:title>Matplotlib v3.8.4, https://matplotlib.org/</dc:title>
     </cc:Agent>
    </dc:creator>
   </cc:Work>
  </rdf:RDF>
 </metadata>
 <defs>
  <style type="text/css">*{stroke-linejoin: round; stroke-linecap: butt}</style>
 </defs>
 <g id="figure_1">
  <g id="patch_1">
   <path d="M 0 216 
L 648 216 
L 648 0 
L 0 0 
z
" style="fill: #ffffff"/>
  </g>
  <g id="axes_1">
   <g id="patch_2">
    <path d="M 66.62 174.04 
L 238.47869 174.04 
L 238.47869 11.16 
L 66.62 11.16 
z
" style="fill: #ffffff"/>
   </g>
   <g id="PathCollection_1">
    <defs>
     <path id="m10cb2286aa" d="M 0 3 
C 0.795609 3 1.55874 2.683901 2.12132 2.12132 
C 2.683901 1.55874 3 0.795609 3 0 
C 3 -0.795609 2.683901 -1.55874 2.12132 -2.12132 
C 1.55874 -2.683901 0.795609 -3 0 -3 
C -0.795609 -3 -1.55874 -2.683901 -2.12132 -2.12132 
C -2.683901 -1.55874 -3 -0.795609 -3 0 
C -3 0.795609 -2.683901 1.55874 -2.12132 2.12132 
C -1.55874 2.683901 -0.795609 3 0 3 
z
" style="stroke: #1b9e77"/>
    </defs>
    <g clip-path="url(#pb335690754)">
     <use xlink:href="#m10cb2286aa" x="74.431759" y="166.636364" style="fill: #1b9e77; stroke: #1b9e77"/>
    </g>
   </g>
   <g id="PathCollection_2">
    <defs>
     <path id="ma8f111bfdf" d="M 0 3 
C 0.795609 3 1.55874 2.683901 2.12132 2.12132 
C 2.683901 1.55874 3 0.795609 3 0 
C 3 -0.795609 2.683901 -1.55874 2.12132 -2.12132 
C 1.55874 -2.683901 0.795609 -3 0 -3 
C -0.795609 -3 -1.55874 -2.683901 -2.12132 -2.12132 
C -2.683901 -1.55874 -3 -0.795609 -3 0 
C -3 0.795609 -2.683901 1.55874 -2.12132 2.12132 
C -1.55874 2.683901 -0.795609 3 0 3 
z
" style="stroke: #d95f02"/>
    </defs>
    <g clip-path="url(#pb335690754)">
     <use xlink:href="#ma8f111bfdf" x="82.000903" y="153.550617" style="fill: #d95f02; stroke: #d95f02"/>
    </g>
   </g>
   <g id="PathCollection_3">
    <defs>
     <path id="m00f7526194" d="M 0 3 
C 0.795609 3 1.55874 2.683901 2.12132 2.12132 
C 2.683901 1.55874 3 0.795609 3 0 
C 3 -0.795609 2.683901 -1.55874 2.12132 -2.12132 
C 1.55874 -2.683901 0.795609 -3 0 -3 
C -0.795609 -3 -1.55874 -2.683901 -2.12132 -2.12132 
C -2.683901 -1.55874 -3 -0.795609 -3 0 
C -3 0.795609 -2.683901 1.55874 -2.12132 2.12132 
C -1.55874 2.683901 -0.795609 3 0 3 
z
" style="stroke: #7570b3"/>
    </defs>
    <g clip-path="url(#pb335690754)">
     <use xlink:href="#m00f7526194" x="90.246619" y="139.660419" style="fill: #7570b3; stroke: #7570b3"/>
    </g>
   </g>
   <g id="PathCollection_4">
    <defs>
     <path id="mc964946b25" d="M 0 3 
C 0.795609 3 1.55874 2.683901 2.12132 2.12132 
C 2.683901 1.55874 3 0.795609 3 0 
C 3 -0.795609 2.683901 -1.55874 2.12132 -2.12132 
C 1.55874 -2.683901 0.795609 -3 0 -3 
C -0.795609 -3 -1.55874 -2.683901 -2.12132 -2.12132 
C -2.683901 -1.55874 -3 -0.795609 -3 0 
C -3 0.795609 -2.683901 1.55874 -2.12132 2.12132 
C -1.55874 2.683901 -0.795609 3 0 3 
z
" style="stroke: #e7298a"/>
    </defs>
    <g clip-path="url(#pb335690754)">
     <use xlink:href="#mc964946b25" x="107.055194" y="112.33588" style="fill: #e7298a; stroke: #e7298a"/>
    </g>
   </g>
   <g id="PathCollection_5">
    <defs>
     <path id="md597183667" d="M 0 3 
C 0.795609 3 1.55874 2.683901 2.12132 2.12132 
C 2.683901 1.55874 3 0.795609 3 0 
C 3 -0.795609 2.683901 -1.55874 2.12132 -2.12132 
C 1.55874 -2.683901 0.795609 -3 0 -3 
C -0.795609 -3 -1.55874 -2.683901 -2.12132 -2.12132 
C -2.683901 -1.55874 -3 -0.795609 -3 0 
C -3 0.795609 -2.683901 1.55874 -2.12132 2.12132 
C -1.55874 2.683901 -0.795609 3 0 3 
z
" style="stroke: #66a61e"/>
    </defs>
    <g clip-path="url(#pb335690754)">
     <use xlink:href="#md597183667" x="117.563196" y="96.273662" style="fill: #66a61e; stroke: #66a61e"/>
    </g>
   </g>
   <g id="PathCollection_6">
    <defs>
     <path id="mc704b2f254" d="M 0 3 
C 0.795609 3 1.55874 2.683901 2.12132 2.12132 
C 2.683901 1.55874 3 0.795609 3 0 
C 3 -0.795609 2.683901 -1.55874 2.12132 -2.12132 
C 1.55874 -2.683901 0.795609 -3 0 -3 
C -0.795609 -3 -1.55874 -2.683901 -2.12132 -2.12132 
C -2.683901 -1.55874 -3 -0.795609 -3 0 
C -3 0.795609 -2.683901 1.55874 -2.12132 2.12132 
C -1.55874 2.683901 -0.795609 3 0 3 
z
" style="stroke: #e6ab02"/>
    </defs>
    <g clip-path="url(#pb335690754)">
     <use xlink:href="#mc704b2f254" x="131.993198" y="74.687544" style="fill: #e6ab02; stroke: #e6ab02"/>
    </g>
   </g>
   <g id="PathCollection_7">
    <defs>
     <path id="m70294cb74b" d="M 0 3 
C 0.795609 3 1.55874 2.683901 2.12132 2.12132 
C 2.683901 1.55874 3 0.795609 3 0 
C 3 -0.795609 2.683901 -1.55874 2.12132 -2.12132 
C 1.55874 -2.683901 0.795609 -3 0 -3 
C -0.795609 -3 -1.55874 -2.683901 -2.12132 -2.12132 
C -2.683901 -1.55874 -3 -0.795609 -3 0 
C -3 0.795609 -2.683901 1.55874 -2.12132 2.12132 
C -1.55874 2.683901 -0.795609 3 0 3 
z
" style="stroke: #a6761d"/>
    </defs>
    <g clip-path="url(#pb335690754)">
     <use xlink:href="#m70294cb74b" x="140.735771" y="61.387277" style="fill: #a6761d; stroke: #a6761d"/>
    </g>
   </g>
   <g id="PathCollection_8">
    <defs>
     <path id="mc2b9a3c3bd" d="M 0 3 
C 0.795609 3 1.55874 2.683901 2.12132 2.12132 
C 2.683901 1.55874 3 0.795609 3 0 
C 3 -0.795609 2.683901 -1.55874 2.12132 -2.12132 
C 1.55874 -2.683901 0.795609 -3 0 -3 
C -0.795609 -3 -1.55874 -2.683901 -2.12132 -2.12132 
C -2.683901 -1.55874 -3 -0.795609 -3 0 
C -3 0.795609 -2.683901 1.55874 -2.12132 2.12132 
C -1.55874 2.683901 -0.795609 3 0 3 
z
" style="stroke: #666666"/>
    </defs>
    <g clip-path="url(#pb335690754)">
     <use xlink:href="#mc2b9a3c3bd" x="173.211206" y="36.931948" style="fill: #666666; stroke: #666666"/>
    </g>
   </g>
   <g id="PathCollection_9">
    <defs>
     <path id="m0d890cf46c" d="M 0 3 
C 0.795609 3 1.55874 2.683901 2.12132 2.12132 
C 2.683901 1.55874 3 0.795609 3 0 
C 3 -0.795609 2.683901 -1.55874 2.12132 -2.12132 
C 1.55874 -2.683901 0.795609 -3 0 -3 
C -0.795609 -3 -1.55874 -2.683901 -2.12132 -2.12132 
C -2.683901 -1.55874 -3 -0.795609 -3 0 
C -3 0.795609 -2.683901 1.55874 -2.12132 2.12132 
C -1.55874 2.683901 -0.795609 3 0 3 
z
" style="stroke: #e41a1c"/>
    </defs>
    <g clip-path="url(#pb335690754)">
     <use xlink:href="#m0d890cf46c" x="197.32464" y="28.887432" style="fill: #e41a1c; stroke: #e41a1c"/>
    </g>
   </g>
   <g id="PathCollection_10">
    <defs>
     <path id="mebedee2c63" d="M 0 3 
C 0.795609 3 1.55874 2.683901 2.12132 2.12132 
C 2.683901 1.55874 3 0.795609 3 0 
C 3 -0.795609 2.683901 -1.55874 2.12132 -2.12132 
C 1.55874 -2.683901 0.795609 -3 0 -3 
C -0.795609 -3 -1.55874 -2.683901 -2.12132 -2.12132 
C -2.683901 -1.55874 -3 -0.795609 -3 0 
C -3 0.795609 -2.683901 1.55874 -2.12132 2.12132 
C -1.55874 2.683901 -0.795609 3 0 3 
z
" style="stroke: #377eb8"/>
    </defs>
    <g clip-path="url(#pb335690754)">
     <use xlink:href="#mebedee2c63" x="230.666932" y="18.563636" style="fill: #377eb8; stroke: #377eb8"/>
    </g>
   </g>
   <g id="matplotlib.axis_1">
    <g id="xtick_1">
     <g id="line2d_1">
      <path d="M 117.81691 174.04 
L 117.81691 11.16 
" clip-path="url(#pb335690754)" style="fill: none; stroke: #b0b0b0; stroke-width: 0.8; stroke-linecap: square"/>
     </g>
     <g id="line2d_2">
      <defs>
       <path id="mfedd5cf1f3" d="M 0 0 
L 0 3.5 
" style="stroke: #000000; stroke-width: 0.8"/>
      </defs>
      <g>
       <use xlink:href="#mfedd5cf1f3" x="117.81691" y="174.04" style="stroke: #000000; stroke-width: 0.8"/>
      </g>
     </g>
     <g id="text_1">
      <!-- 14.535 -->
      <g transform="translate(100.321597 188.638438) scale(0.1 -0.1)">
       <defs>
        <path id="DejaVuSans-31" d="M 794 531 
L 1825 531 
L 1825 4091 
L 703 3866 
L 703 4441 
L 1819 4666 
L 2450 4666 
L 2450 531 
L 3481 531 
L 3481 0 
L 794 0 
L 794 531 
z
" transform="scale(0.015625)"/>
        <path id="DejaVuSans-34" d="M 2419 4116 
L 825 1625 
L 2419 1625 
L 2419 4116 
z
M 2253 4666 
L 3047 4666 
L 3047 1625 
L 3713 1625 
L 3713 1100 
L 3047 1100 
L 3047 0 
L 2419 0 
L 2419 1100 
L 313 1100 
L 313 1709 
L 2253 4666 
z
" transform="scale(0.015625)"/>
        <path id="DejaVuSans-2e" d="M 684 794 
L 1344 794 
L 1344 0 
L 684 0 
L 684 794 
z
" transform="scale(0.015625)"/>
        <path id="DejaVuSans-35" d="M 691 4666 
L 3169 4666 
L 3169 4134 
L 1269 4134 
L 1269 2991 
Q 1406 3038 1543 3061 
Q 1681 3084 1819 3084 
Q 2600 3084 3056 2656 
Q 3513 2228 3513 1497 
Q 3513 744 3044 326 
Q 2575 -91 1722 -91 
Q 1428 -91 1123 -41 
Q 819 9 494 109 
L 494 744 
Q 775 591 1075 516 
Q 1375 441 1709 441 
Q 2250 441 2565 725 
Q 2881 1009 2881 1497 
Q 2881 1984 2565 2268 
Q 2250 2553 1709 2553 
Q 1456 2553 1204 2497 
Q 953 2441 691 2322 
L 691 4666 
z
" transform="scale(0.015625)"/>
        <path id="DejaVuSans-33" d="M 2597 2516 
Q 3050 2419 3304 2112 
Q 3559 1806 3559 1356 
Q 3559 666 3084 287 
Q 2609 -91 1734 -91 
Q 1441 -91 1130 -33 
Q 819 25 488 141 
L 488 750 
Q 750 597 1062 519 
Q 1375 441 1716 441 
Q 2309 441 2620 675 
Q 2931 909 2931 1356 
Q 2931 1769 2642 2001 
Q 2353 2234 1838 2234 
L 1294 2234 
L 1294 2753 
L 1863 2753 
Q 2328 2753 2575 2939 
Q 2822 3125 2822 3475 
Q 2822 3834 2567 4026 
Q 2313 4219 1838 4219 
Q 1578 4219 1281 4162 
Q 984 4106 628 3988 
L 628 4550 
Q 988 4650 1302 4700 
Q 1616 4750 1894 4750 
Q 2613 4750 3031 4423 
Q 3450 4097 3450 3541 
Q 3450 3153 3228 2886 
Q 3006 2619 2597 2516 
z
" transform="scale(0.015625)"/>
       </defs>
       <use xlink:href="#DejaVuSans-31"/>
       <use xlink:href="#DejaVuSans-34" x="63.623047"/>
       <use xlink:href="#DejaVuSans-2e" x="127.246094"/>
       <use xlink:href="#DejaVuSans-35" x="159.033203"/>
       <use xlink:href="#DejaVuSans-33" x="222.65625"/>
       <use xlink:href="#DejaVuSans-35" x="286.279297"/>
      </g>
     </g>
    </g>
    <g id="xtick_2">
     <g id="line2d_3">
      <path d="M 170.674063 174.04 
L 170.674063 11.16 
" clip-path="url(#pb335690754)" style="fill: none; stroke: #b0b0b0; stroke-width: 0.8; stroke-linecap: square"/>
     </g>
     <g id="line2d_4">
      <g>
       <use xlink:href="#mfedd5cf1f3" x="170.674063" y="174.04" style="stroke: #000000; stroke-width: 0.8"/>
      </g>
     </g>
     <g id="text_2">
      <!-- 14.540 -->
      <g transform="translate(153.17875 188.638438) scale(0.1 -0.1)">
       <defs>
        <path id="DejaVuSans-30" d="M 2034 4250 
Q 1547 4250 1301 3770 
Q 1056 3291 1056 2328 
Q 1056 1369 1301 889 
Q 1547 409 2034 409 
Q 2525 409 2770 889 
Q 3016 1369 3016 2328 
Q 3016 3291 2770 3770 
Q 2525 4250 2034 4250 
z
M 2034 4750 
Q 2819 4750 3233 4129 
Q 3647 3509 3647 2328 
Q 3647 1150 3233 529 
Q 2819 -91 2034 -91 
Q 1250 -91 836 529 
Q 422 1150 422 2328 
Q 422 3509 836 4129 
Q 1250 4750 2034 4750 
z
" transform="scale(0.015625)"/>
       </defs>
       <use xlink:href="#DejaVuSans-31"/>
       <use xlink:href="#DejaVuSans-34" x="63.623047"/>
       <use xlink:href="#DejaVuSans-2e" x="127.246094"/>
       <use xlink:href="#DejaVuSans-35" x="159.033203"/>
       <use xlink:href="#DejaVuSans-34" x="222.65625"/>
       <use xlink:href="#DejaVuSans-30" x="286.279297"/>
      </g>
     </g>
    </g>
    <g id="xtick_3">
     <g id="line2d_5">
      <path d="M 223.531216 174.04 
L 223.531216 11.16 
" clip-path="url(#pb335690754)" style="fill: none; stroke: #b0b0b0; stroke-width: 0.8; stroke-linecap: square"/>
     </g>
     <g id="line2d_6">
      <g>
       <use xlink:href="#mfedd5cf1f3" x="223.531216" y="174.04" style="stroke: #000000; stroke-width: 0.8"/>
      </g>
     </g>
     <g id="text_3">
      <!-- 14.545 -->
      <g transform="translate(206.035904 188.638438) scale(0.1 -0.1)">
       <use xlink:href="#DejaVuSans-31"/>
       <use xlink:href="#DejaVuSans-34" x="63.623047"/>
       <use xlink:href="#DejaVuSans-2e" x="127.246094"/>
       <use xlink:href="#DejaVuSans-35" x="159.033203"/>
       <use xlink:href="#DejaVuSans-34" x="222.65625"/>
       <use xlink:href="#DejaVuSans-35" x="286.279297"/>
      </g>
     </g>
    </g>
    <g id="text_4">
     <!-- Longitude [°] -->
     <g transform="translate(119.689189 202.316563) scale(0.1 -0.1)">
      <defs>
       <path id="DejaVuSans-4c" d="M 628 4666 
L 1259 4666 
L 1259 531 
L 3531 531 
L 3531 0 
L 628 0 
L 628 4666 
z
" transform="scale(0.015625)"/>
       <path id="DejaVuSans-6f" d="M 1959 3097 
Q 1497 3097 1228 2736 
Q 959 2375 959 1747 
Q 959 1119 1226 758 
Q 1494 397 1959 397 
Q 2419 397 2687 759 
Q 2956 1122 2956 1747 
Q 2956 2369 2687 2733 
Q 2419 3097 1959 3097 
z
M 1959 3584 
Q 2709 3584 3137 3096 
Q 3566 2609 3566 1747 
Q 3566 888 3137 398 
Q 2709 -91 1959 -91 
Q 1206 -91 779 398 
Q 353 888 353 1747 
Q 353 2609 779 3096 
Q 1206 3584 1959 3584 
z
" transform="scale(0.015625)"/>
       <path id="DejaVuSans-6e" d="M 3513 2113 
L 3513 0 
L 2938 0 
L 2938 2094 
Q 2938 2591 2744 2837 
Q 2550 3084 2163 3084 
Q 1697 3084 1428 2787 
Q 1159 2491 1159 1978 
L 1159 0 
L 581 0 
L 581 3500 
L 1159 3500 
L 1159 2956 
Q 1366 3272 1645 3428 
Q 1925 3584 2291 3584 
Q 2894 3584 3203 3211 
Q 3513 2838 3513 2113 
z
" transform="scale(0.015625)"/>
       <path id="DejaVuSans-67" d="M 2906 1791 
Q 2906 2416 2648 2759 
Q 2391 3103 1925 3103 
Q 1463 3103 1205 2759 
Q 947 2416 947 1791 
Q 947 1169 1205 825 
Q 1463 481 1925 481 
Q 2391 481 2648 825 
Q 2906 1169 2906 1791 
z
M 3481 434 
Q 3481 -459 3084 -895 
Q 2688 -1331 1869 -1331 
Q 1566 -1331 1297 -1286 
Q 1028 -1241 775 -1147 
L 775 -588 
Q 1028 -725 1275 -790 
Q 1522 -856 1778 -856 
Q 2344 -856 2625 -561 
Q 2906 -266 2906 331 
L 2906 616 
Q 2728 306 2450 153 
Q 2172 0 1784 0 
Q 1141 0 747 490 
Q 353 981 353 1791 
Q 353 2603 747 3093 
Q 1141 3584 1784 3584 
Q 2172 3584 2450 3431 
Q 2728 3278 2906 2969 
L 2906 3500 
L 3481 3500 
L 3481 434 
z
" transform="scale(0.015625)"/>
       <path id="DejaVuSans-69" d="M 603 3500 
L 1178 3500 
L 1178 0 
L 603 0 
L 603 3500 
z
M 603 4863 
L 1178 4863 
L 1178 4134 
L 603 4134 
L 603 4863 
z
" transform="scale(0.015625)"/>
       <path id="DejaVuSans-74" d="M 1172 4494 
L 1172 3500 
L 2356 3500 
L 2356 3053 
L 1172 3053 
L 1172 1153 
Q 1172 725 1289 603 
Q 1406 481 1766 481 
L 2356 481 
L 2356 0 
L 1766 0 
Q 1100 0 847 248 
Q 594 497 594 1153 
L 594 3053 
L 172 3053 
L 172 3500 
L 594 3500 
L 594 4494 
L 1172 4494 
z
" transform="scale(0.015625)"/>
       <path id="DejaVuSans-75" d="M 544 1381 
L 544 3500 
L 1119 3500 
L 1119 1403 
Q 1119 906 1312 657 
Q 1506 409 1894 409 
Q 2359 409 2629 706 
Q 2900 1003 2900 1516 
L 2900 3500 
L 3475 3500 
L 3475 0 
L 2900 0 
L 2900 538 
Q 2691 219 2414 64 
Q 2138 -91 1772 -91 
Q 1169 -91 856 284 
Q 544 659 544 1381 
z
M 1991 3584 
L 1991 3584 
z
" transform="scale(0.015625)"/>
       <path id="DejaVuSans-64" d="M 2906 2969 
L 2906 4863 
L 3481 4863 
L 3481 0 
L 2906 0 
L 2906 525 
Q 2725 213 2448 61 
Q 2172 -91 1784 -91 
Q 1150 -91 751 415 
Q 353 922 353 1747 
Q 353 2572 751 3078 
Q 1150 3584 1784 3584 
Q 2172 3584 2448 3432 
Q 2725 3281 2906 2969 
z
M 947 1747 
Q 947 1113 1208 752 
Q 1469 391 1925 391 
Q 2381 391 2643 752 
Q 2906 1113 2906 1747 
Q 2906 2381 2643 2742 
Q 2381 3103 1925 3103 
Q 1469 3103 1208 2742 
Q 947 2381 947 1747 
z
" transform="scale(0.015625)"/>
       <path id="DejaVuSans-65" d="M 3597 1894 
L 3597 1613 
L 953 1613 
Q 991 1019 1311 708 
Q 1631 397 2203 397 
Q 2534 397 2845 478 
Q 3156 559 3463 722 
L 3463 178 
Q 3153 47 2828 -22 
Q 2503 -91 2169 -91 
Q 1331 -91 842 396 
Q 353 884 353 1716 
Q 353 2575 817 3079 
Q 1281 3584 2069 3584 
Q 2775 3584 3186 3129 
Q 3597 2675 3597 1894 
z
M 3022 2063 
Q 3016 2534 2758 2815 
Q 2500 3097 2075 3097 
Q 1594 3097 1305 2825 
Q 1016 2553 972 2059 
L 3022 2063 
z
" transform="scale(0.015625)"/>
       <path id="DejaVuSans-20" transform="scale(0.015625)"/>
       <path id="DejaVuSans-5b" d="M 550 4863 
L 1875 4863 
L 1875 4416 
L 1125 4416 
L 1125 -397 
L 1875 -397 
L 1875 -844 
L 550 -844 
L 550 4863 
z
" transform="scale(0.015625)"/>
       <path id="DejaVuSans-b0" d="M 1600 4347 
Q 1350 4347 1178 4173 
Q 1006 4000 1006 3750 
Q 1006 3503 1178 3333 
Q 1350 3163 1600 3163 
Q 1850 3163 2022 3333 
Q 2194 3503 2194 3750 
Q 2194 3997 2020 4172 
Q 1847 4347 1600 4347 
z
M 1600 4750 
Q 1800 4750 1984 4673 
Q 2169 4597 2303 4453 
Q 2447 4313 2519 4134 
Q 2591 3956 2591 3750 
Q 2591 3338 2302 3052 
Q 2013 2766 1594 2766 
Q 1172 2766 890 3047 
Q 609 3328 609 3750 
Q 609 4169 896 4459 
Q 1184 4750 1600 4750 
z
" transform="scale(0.015625)"/>
       <path id="DejaVuSans-5d" d="M 1947 4863 
L 1947 -844 
L 622 -844 
L 622 -397 
L 1369 -397 
L 1369 4416 
L 622 4416 
L 622 4863 
L 1947 4863 
z
" transform="scale(0.015625)"/>
      </defs>
      <use xlink:href="#DejaVuSans-4c"/>
      <use xlink:href="#DejaVuSans-6f" x="53.962891"/>
      <use xlink:href="#DejaVuSans-6e" x="115.144531"/>
      <use xlink:href="#DejaVuSans-67" x="178.523438"/>
      <use xlink:href="#DejaVuSans-69" x="242"/>
      <use xlink:href="#DejaVuSans-74" x="269.783203"/>
      <use xlink:href="#DejaVuSans-75" x="308.992188"/>
      <use xlink:href="#DejaVuSans-64" x="372.371094"/>
      <use xlink:href="#DejaVuSans-65" x="435.847656"/>
      <use xlink:href="#DejaVuSans-20" x="497.371094"/>
      <use xlink:href="#DejaVuSans-5b" x="529.158203"/>
      <use xlink:href="#DejaVuSans-b0" x="568.171875"/>
      <use xlink:href="#DejaVuSans-5d" x="618.171875"/>
     </g>
    </g>
   </g>
   <g id="matplotlib.axis_2">
    <g id="ytick_1">
     <g id="line2d_7">
      <path d="M 66.62 172.026189 
L 238.47869 172.026189 
" clip-path="url(#pb335690754)" style="fill: none; stroke: #b0b0b0; stroke-width: 0.8; stroke-linecap: square"/>
     </g>
     <g id="line2d_8">
      <defs>
       <path id="m89a5aa09c0" d="M 0 0 
L -3.5 0 
" style="stroke: #000000; stroke-width: 0.8"/>
      </defs>
      <g>
       <use xlink:href="#m89a5aa09c0" x="66.62" y="172.026189" style="stroke: #000000; stroke-width: 0.8"/>
      </g>
     </g>
     <g id="text_5">
      <!-- 50.001 -->
      <g transform="translate(24.629375 175.825408) scale(0.1 -0.1)">
       <use xlink:href="#DejaVuSans-35"/>
       <use xlink:href="#DejaVuSans-30" x="63.623047"/>
       <use xlink:href="#DejaVuSans-2e" x="127.246094"/>
       <use xlink:href="#DejaVuSans-30" x="159.033203"/>
       <use xlink:href="#DejaVuSans-30" x="222.65625"/>
       <use xlink:href="#DejaVuSans-31" x="286.279297"/>
      </g>
     </g>
    </g>
    <g id="ytick_2">
     <g id="line2d_9">
      <path d="M 66.62 145.211136 
L 238.47869 145.211136 
" clip-path="url(#pb335690754)" style="fill: none; stroke: #b0b0b0; stroke-width: 0.8; stroke-linecap: square"/>
     </g>
     <g id="line2d_10">
      <g>
       <use xlink:href="#m89a5aa09c0" x="66.62" y="145.211136" style="stroke: #000000; stroke-width: 0.8"/>
      </g>
     </g>
     <g id="text_6">
      <!-- 50.002 -->
      <g transform="translate(24.629375 149.010354) scale(0.1 -0.1)">
       <defs>
        <path id="DejaVuSans-32" d="M 1228 531 
L 3431 531 
L 3431 0 
L 469 0 
L 469 531 
Q 828 903 1448 1529 
Q 2069 2156 2228 2338 
Q 2531 2678 2651 2914 
Q 2772 3150 2772 3378 
Q 2772 3750 2511 3984 
Q 2250 4219 1831 4219 
Q 1534 4219 1204 4116 
Q 875 4013 500 3803 
L 500 4441 
Q 881 4594 1212 4672 
Q 1544 4750 1819 4750 
Q 2544 4750 2975 4387 
Q 3406 4025 3406 3419 
Q 3406 3131 3298 2873 
Q 3191 2616 2906 2266 
Q 2828 2175 2409 1742 
Q 1991 1309 1228 531 
z
" transform="scale(0.015625)"/>
       </defs>
       <use xlink:href="#DejaVuSans-35"/>
       <use xlink:href="#DejaVuSans-30" x="63.623047"/>
       <use xlink:href="#DejaVuSans-2e" x="127.246094"/>
       <use xlink:href="#DejaVuSans-30" x="159.033203"/>
       <use xlink:href="#DejaVuSans-30" x="222.65625"/>
       <use xlink:href="#DejaVuSans-32" x="286.279297"/>
      </g>
     </g>
    </g>
    <g id="ytick_3">
     <g id="line2d_11">
      <path d="M 66.62 118.396082 
L 238.47869 118.396082 
" clip-path="url(#pb335690754)" style="fill: none; stroke: #b0b0b0; stroke-width: 0.8; stroke-linecap: square"/>
     </g>
     <g id="line2d_12">
      <g>
       <use xlink:href="#m89a5aa09c0" x="66.62" y="118.396082" style="stroke: #000000; stroke-width: 0.8"/>
      </g>
     </g>
     <g id="text_7">
      <!-- 50.003 -->
      <g transform="translate(24.629375 122.195301) scale(0.1 -0.1)">
       <use xlink:href="#DejaVuSans-35"/>
       <use xlink:href="#DejaVuSans-30" x="63.623047"/>
       <use xlink:href="#DejaVuSans-2e" x="127.246094"/>
       <use xlink:href="#DejaVuSans-30" x="159.033203"/>
       <use xlink:href="#DejaVuSans-30" x="222.65625"/>
       <use xlink:href="#DejaVuSans-33" x="286.279297"/>
      </g>
     </g>
    </g>
    <g id="ytick_4">
     <g id="line2d_13">
      <path d="M 66.62 91.581028 
L 238.47869 91.581028 
" clip-path="url(#pb335690754)" style="fill: none; stroke: #b0b0b0; stroke-width: 0.8; stroke-linecap: square"/>
     </g>
     <g id="line2d_14">
      <g>
       <use xlink:href="#m89a5aa09c0" x="66.62" y="91.581028" style="stroke: #000000; stroke-width: 0.8"/>
      </g>
     </g>
     <g id="text_8">
      <!-- 50.004 -->
      <g transform="translate(24.629375 95.380247) scale(0.1 -0.1)">
       <use xlink:href="#DejaVuSans-35"/>
       <use xlink:href="#DejaVuSans-30" x="63.623047"/>
       <use xlink:href="#DejaVuSans-2e" x="127.246094"/>
       <use xlink:href="#DejaVuSans-30" x="159.033203"/>
       <use xlink:href="#DejaVuSans-30" x="222.65625"/>
       <use xlink:href="#DejaVuSans-34" x="286.279297"/>
      </g>
     </g>
    </g>
    <g id="ytick_5">
     <g id="line2d_15">
      <path d="M 66.62 64.765974 
L 238.47869 64.765974 
" clip-path="url(#pb335690754)" style="fill: none; stroke: #b0b0b0; stroke-width: 0.8; stroke-linecap: square"/>
     </g>
     <g id="line2d_16">
      <g>
       <use xlink:href="#m89a5aa09c0" x="66.62" y="64.765974" style="stroke: #000000; stroke-width: 0.8"/>
      </g>
     </g>
     <g id="text_9">
      <!-- 50.005 -->
      <g transform="translate(24.629375 68.565193) scale(0.1 -0.1)">
       <use xlink:href="#DejaVuSans-35"/>
       <use xlink:href="#DejaVuSans-30" x="63.623047"/>
       <use xlink:href="#DejaVuSans-2e" x="127.246094"/>
       <use xlink:href="#DejaVuSans-30" x="159.033203"/>
       <use xlink:href="#DejaVuSans-30" x="222.65625"/>
       <use xlink:href="#DejaVuSans-35" x="286.279297"/>
      </g>
     </g>
    </g>
    <g id="ytick_6">
     <g id="line2d_17">
      <path d="M 66.62 37.95092 
L 238.47869 37.95092 
" clip-path="url(#pb335690754)" style="fill: none; stroke: #b0b0b0; stroke-width: 0.8; stroke-linecap: square"/>
     </g>
     <g id="line2d_18">
      <g>
       <use xlink:href="#m89a5aa09c0" x="66.62" y="37.95092" style="stroke: #000000; stroke-width: 0.8"/>
      </g>
     </g>
     <g id="text_10">
      <!-- 50.006 -->
      <g transform="translate(24.629375 41.750139) scale(0.1 -0.1)">
       <defs>
        <path id="DejaVuSans-36" d="M 2113 2584 
Q 1688 2584 1439 2293 
Q 1191 2003 1191 1497 
Q 1191 994 1439 701 
Q 1688 409 2113 409 
Q 2538 409 2786 701 
Q 3034 994 3034 1497 
Q 3034 2003 2786 2293 
Q 2538 2584 2113 2584 
z
M 3366 4563 
L 3366 3988 
Q 3128 4100 2886 4159 
Q 2644 4219 2406 4219 
Q 1781 4219 1451 3797 
Q 1122 3375 1075 2522 
Q 1259 2794 1537 2939 
Q 1816 3084 2150 3084 
Q 2853 3084 3261 2657 
Q 3669 2231 3669 1497 
Q 3669 778 3244 343 
Q 2819 -91 2113 -91 
Q 1303 -91 875 529 
Q 447 1150 447 2328 
Q 447 3434 972 4092 
Q 1497 4750 2381 4750 
Q 2619 4750 2861 4703 
Q 3103 4656 3366 4563 
z
" transform="scale(0.015625)"/>
       </defs>
       <use xlink:href="#DejaVuSans-35"/>
       <use xlink:href="#DejaVuSans-30" x="63.623047"/>
       <use xlink:href="#DejaVuSans-2e" x="127.246094"/>
       <use xlink:href="#DejaVuSans-30" x="159.033203"/>
       <use xlink:href="#DejaVuSans-30" x="222.65625"/>
       <use xlink:href="#DejaVuSans-36" x="286.279297"/>
      </g>
     </g>
    </g>
    <g id="text_11">
     <!-- Latitude [°] -->
     <g transform="translate(18.549688 121.169531) rotate(-90) scale(0.1 -0.1)">
      <defs>
       <path id="DejaVuSans-61" d="M 2194 1759 
Q 1497 1759 1228 1600 
Q 959 1441 959 1056 
Q 959 750 1161 570 
Q 1363 391 1709 391 
Q 2188 391 2477 730 
Q 2766 1069 2766 1631 
L 2766 1759 
L 2194 1759 
z
M 3341 1997 
L 3341 0 
L 2766 0 
L 2766 531 
Q 2569 213 2275 61 
Q 1981 -91 1556 -91 
Q 1019 -91 701 211 
Q 384 513 384 1019 
Q 384 1609 779 1909 
Q 1175 2209 1959 2209 
L 2766 2209 
L 2766 2266 
Q 2766 2663 2505 2880 
Q 2244 3097 1772 3097 
Q 1472 3097 1187 3025 
Q 903 2953 641 2809 
L 641 3341 
Q 956 3463 1253 3523 
Q 1550 3584 1831 3584 
Q 2591 3584 2966 3190 
Q 3341 2797 3341 1997 
z
" transform="scale(0.015625)"/>
      </defs>
      <use xlink:href="#DejaVuSans-4c"/>
      <use xlink:href="#DejaVuSans-61" x="55.712891"/>
      <use xlink:href="#DejaVuSans-74" x="116.992188"/>
      <use xlink:href="#DejaVuSans-69" x="156.201172"/>
      <use xlink:href="#DejaVuSans-74" x="183.984375"/>
      <use xlink:href="#DejaVuSans-75" x="223.193359"/>
      <use xlink:href="#DejaVuSans-64" x="286.572266"/>
      <use xlink:href="#DejaVuSans-65" x="350.048828"/>
      <use xlink:href="#DejaVuSans-20" x="411.572266"/>
      <use xlink:href="#DejaVuSans-5b" x="443.359375"/>
      <use xlink:href="#DejaVuSans-b0" x="482.373047"/>
      <use xlink:href="#DejaVuSans-5d" x="532.373047"/>
     </g>
    </g>
   </g>
   <g id="patch_3">
    <path d="M 66.62 174.04 
L 66.62 11.16 
" style="fill: none; stroke: #000000; stroke-width: 0.8; stroke-linejoin: miter; stroke-linecap: square"/>
   </g>
   <g id="patch_4">
    <path d="M 238.47869 174.04 
L 238.47869 11.16 
" style="fill: none; stroke: #000000; stroke-width: 0.8; stroke-linejoin: miter; stroke-linecap: square"/>
   </g>
   <g id="patch_5">
    <path d="M 66.62 174.04 
L 238.47869 174.04 
" style="fill: none; stroke: #000000; stroke-width: 0.8; stroke-linejoin: miter; stroke-linecap: square"/>
   </g>
   <g id="patch_6">
    <path d="M 66.62 11.16 
L 238.47869 11.16 
" style="fill: none; stroke: #000000; stroke-width: 0.8; stroke-linejoin: miter; stroke-linecap: square"/>
   </g>
   <g id="text_12">
    <!-- 0 -->
    <g transform="translate(74.431759 166.636364) scale(0.1 -0.1)">
     <use xlink:href="#DejaVuSans-30"/>
    </g>
   </g>
   <g id="text_13">
    <!-- 1 -->
    <g transform="translate(82.000903 153.550617) scale(0.1 -0.1)">
     <use xlink:href="#DejaVuSans-31"/>
    </g>
   </g>
   <g id="text_14">
    <!-- 2 -->
    <g transform="translate(90.246619 139.660419) scale(0.1 -0.1)">
     <use xlink:href="#DejaVuSans-32"/>
    </g>
   </g>
   <g id="text_15">
    <!-- 3 -->
    <g transform="translate(107.055194 112.33588) scale(0.1 -0.1)">
     <use xlink:href="#DejaVuSans-33"/>
    </g>
   </g>
   <g id="text_16">
    <!-- 4 -->
    <g transform="translate(117.563196 96.273662) scale(0.1 -0.1)">
     <use xlink:href="#DejaVuSans-34"/>
    </g>
   </g>
   <g id="text_17">
    <!-- 5 -->
    <g transform="translate(131.993198 74.687544) scale(0.1 -0.1)">
     <use xlink:href="#DejaVuSans-35"/>
    </g>
   </g>
   <g id="text_18">
    <!-- 6 -->
    <g transform="translate(140.735771 61.387277) scale(0.1 -0.1)">
     <use xlink:href="#DejaVuSans-36"/>
    </g>
   </g>
   <g id="text_19">
    <!-- 7 -->
    <g transform="translate(173.211206 36.931948) scale(0.1 -0.1)">
     <defs>
      <path id="DejaVuSans-37" d="M 525 4666 
L 3525 4666 
L 3525 4397 
L 1831 0 
L 1172 0 
L 2766 4134 
L 525 4134 
L 525 4666 
z
" transform="scale(0.015625)"/>
     </defs>
     <use xlink:href="#DejaVuSans-37"/>
    </g>
   </g>
   <g id="text_20">
    <!-- 8 -->
    <g transform="translate(197.32464 28.887432) scale(0.1 -0.1)">
     <defs>
      <path id="DejaVuSans-38" d="M 2034 2216 
Q 1584 2216 1326 1975 
Q 1069 1734 1069 1313 
Q 1069 891 1326 650 
Q 1584 409 2034 409 
Q 2484 409 2743 651 
Q 3003 894 3003 1313 
Q 3003 1734 2745 1975 
Q 2488 2216 2034 2216 
z
M 1403 2484 
Q 997 2584 770 2862 
Q 544 3141 544 3541 
Q 544 4100 942 4425 
Q 1341 4750 2034 4750 
Q 2731 4750 3128 4425 
Q 3525 4100 3525 3541 
Q 3525 3141 3298 2862 
Q 3072 2584 2669 2484 
Q 3125 2378 3379 2068 
Q 3634 1759 3634 1313 
Q 3634 634 3220 271 
Q 2806 -91 2034 -91 
Q 1263 -91 848 271 
Q 434 634 434 1313 
Q 434 1759 690 2068 
Q 947 2378 1403 2484 
z
M 1172 3481 
Q 1172 3119 1398 2916 
Q 1625 2713 2034 2713 
Q 2441 2713 2670 2916 
Q 2900 3119 2900 3481 
Q 2900 3844 2670 4047 
Q 2441 4250 2034 4250 
Q 1625 4250 1398 4047 
Q 1172 3844 1172 3481 
z
" transform="scale(0.015625)"/>
     </defs>
     <use xlink:href="#DejaVuSans-38"/>
    </g>
   </g>
   <g id="text_21">
    <!-- 9 -->
    <g transform="translate(230.666932 18.563636) scale(0.1 -0.1)">
     <defs>
      <path id="DejaVuSans-39" d="M 703 97 
L 703 672 
Q 941 559 1184 500 
Q 1428 441 1663 441 
Q 2288 441 2617 861 
Q 2947 1281 2994 2138 
Q 2813 1869 2534 1725 
Q 2256 1581 1919 1581 
Q 1219 1581 811 2004 
Q 403 2428 403 3163 
Q 403 3881 828 4315 
Q 1253 4750 1959 4750 
Q 2769 4750 3195 4129 
Q 3622 3509 3622 2328 
Q 3622 1225 3098 567 
Q 2575 -91 1691 -91 
Q 1453 -91 1209 -44 
Q 966 3 703 97 
z
M 1959 2075 
Q 2384 2075 2632 2365 
Q 2881 2656 2881 3163 
Q 2881 3666 2632 3958 
Q 2384 4250 1959 4250 
Q 1534 4250 1286 3958 
Q 1038 3666 1038 3163 
Q 1038 2656 1286 2365 
Q 1534 2075 1959 2075 
z
" transform="scale(0.015625)"/>
     </defs>
     <use xlink:href="#DejaVuSans-39"/>
    </g>
   </g>
  </g>
  <g id="axes_2">
   <g id="patch_7">
    <path d="M 293.482619 174.04 
L 637.2 174.04 
L 637.2 11.16 
L 293.482619 11.16 
z
" style="fill: #ffffff"/>
   </g>
   <g id="PathCollection_11">
    <defs>
     <path id="m26f6f3cdec" d="M -6.123724 0 
L 6.123724 0 
M 0 6.123724 
L 0 -6.123724 
" style="stroke: #000000; stroke-width: 1.5"/>
    </defs>
    <g clip-path="url(#pe043b8d53e)">
     <use xlink:href="#m26f6f3cdec" x="309.106137" y="23.399604" style="stroke: #000000; stroke-width: 1.5"/>
    </g>
   </g>
   <g id="PathCollection_12">
    <g clip-path="url(#pe043b8d53e)">
     <use xlink:href="#m26f6f3cdec" x="309.106137" y="20.636194" style="stroke: #000000; stroke-width: 1.5"/>
    </g>
   </g>
   <g id="PathCollection_13">
    <g clip-path="url(#pe043b8d53e)">
     <use xlink:href="#m26f6f3cdec" x="309.106137" y="18.563636" style="stroke: #000000; stroke-width: 1.5"/>
    </g>
   </g>
   <g id="PathCollection_14">
    <g clip-path="url(#pe043b8d53e)">
     <use xlink:href="#m26f6f3cdec" x="328.159063" y="25.779207" style="stroke: #000000; stroke-width: 1.5"/>
    </g>
   </g>
   <g id="PathCollection_15">
    <defs>
     <path id="mdd2ebfe710" d="M 0 3.535534 
C 0.937635 3.535534 1.836992 3.163008 2.5 2.5 
C 3.163008 1.836992 3.535534 0.937635 3.535534 0 
C 3.535534 -0.937635 3.163008 -1.836992 2.5 -2.5 
C 1.836992 -3.163008 0.937635 -3.535534 0 -3.535534 
C -0.937635 -3.535534 -1.836992 -3.163008 -2.5 -2.5 
C -3.163008 -1.836992 -3.535534 -0.937635 -3.535534 0 
C -3.535534 0.937635 -3.163008 1.836992 -2.5 2.5 
C -1.836992 3.163008 -0.937635 3.535534 0 3.535534 
z
" style="stroke: #000000"/>
    </defs>
    <g clip-path="url(#pe043b8d53e)">
     <use xlink:href="#mdd2ebfe710" x="328.159063" y="38.444837" style="stroke: #000000"/>
    </g>
   </g>
   <g id="PathCollection_16">
    <g clip-path="url(#pe043b8d53e)">
     <use xlink:href="#m26f6f3cdec" x="348.664555" y="40.133588" style="stroke: #000000; stroke-width: 1.5"/>
    </g>
   </g>
   <g id="PathCollection_17">
    <g clip-path="url(#pe043b8d53e)">
     <use xlink:href="#mdd2ebfe710" x="348.664555" y="52.799218" style="stroke: #000000"/>
    </g>
   </g>
   <g id="PathCollection_18">
    <g clip-path="url(#pe043b8d53e)">
     <use xlink:href="#m26f6f3cdec" x="389.673934" y="52.492172" style="stroke: #000000; stroke-width: 1.5"/>
    </g>
   </g>
   <g id="PathCollection_19">
    <g clip-path="url(#pe043b8d53e)">
     <use xlink:href="#mdd2ebfe710" x="389.673934" y="65.157802" style="stroke: #000000"/>
    </g>
   </g>
   <g id="PathCollection_20">
    <g clip-path="url(#pe043b8d53e)">
     <use xlink:href="#m26f6f3cdec" x="414.534489" y="54.0274" style="stroke: #000000; stroke-width: 1.5"/>
    </g>
   </g>
   <g id="PathCollection_21">
    <g clip-path="url(#pe043b8d53e)">
     <use xlink:href="#mdd2ebfe710" x="414.534489" y="66.69303" style="stroke: #000000"/>
    </g>
   </g>
   <g id="PathCollection_22">
    <g clip-path="url(#pe043b8d53e)">
     <use xlink:href="#m26f6f3cdec" x="448.348606" y="49.268194" style="stroke: #000000; stroke-width: 1.5"/>
    </g>
   </g>
   <g id="PathCollection_23">
    <g clip-path="url(#pe043b8d53e)">
     <use xlink:href="#mdd2ebfe710" x="448.348606" y="61.933823" style="stroke: #000000"/>
    </g>
   </g>
   <g id="PathCollection_24">
    <g clip-path="url(#pe043b8d53e)">
     <use xlink:href="#m26f6f3cdec" x="469.019156" y="59.477459" style="stroke: #000000; stroke-width: 1.5"/>
    </g>
   </g>
   <g id="PathCollection_25">
    <g clip-path="url(#pe043b8d53e)">
     <use xlink:href="#mdd2ebfe710" x="469.019156" y="72.143089" style="stroke: #000000"/>
    </g>
   </g>
   <g id="PathCollection_26">
    <g clip-path="url(#pe043b8d53e)">
     <use xlink:href="#m26f6f3cdec" x="528.33303" y="95.325029" style="stroke: #000000; stroke-width: 1.5"/>
    </g>
   </g>
   <g id="PathCollection_27">
    <g clip-path="url(#pe043b8d53e)">
     <use xlink:href="#mdd2ebfe710" x="528.33303" y="107.990659" style="stroke: #000000"/>
    </g>
   </g>
   <g id="PathCollection_28">
    <g clip-path="url(#pe043b8d53e)">
     <use xlink:href="#m26f6f3cdec" x="566.919959" y="110.370263" style="stroke: #000000; stroke-width: 1.5"/>
    </g>
   </g>
   <g id="PathCollection_29">
    <g clip-path="url(#pe043b8d53e)">
     <use xlink:href="#mdd2ebfe710" x="566.919959" y="123.035892" style="stroke: #000000"/>
    </g>
   </g>
   <g id="PathCollection_30">
    <g clip-path="url(#pe043b8d53e)">
     <use xlink:href="#m26f6f3cdec" x="621.576483" y="153.970734" style="stroke: #000000; stroke-width: 1.5"/>
    </g>
   </g>
   <g id="PathCollection_31">
    <g clip-path="url(#pe043b8d53e)">
     <use xlink:href="#mdd2ebfe710" x="621.576483" y="166.636364" style="stroke: #000000"/>
    </g>
   </g>
   <g id="matplotlib.axis_3">
    <g id="xtick_4">
     <g id="line2d_19">
      <path d="M 309.106137 174.04 
L 309.106137 11.16 
" clip-path="url(#pe043b8d53e)" style="fill: none; stroke: #b0b0b0; stroke-width: 0.8; stroke-linecap: square"/>
     </g>
     <g id="line2d_20">
      <g>
       <use xlink:href="#mfedd5cf1f3" x="309.106137" y="174.04" style="stroke: #000000; stroke-width: 0.8"/>
      </g>
     </g>
     <g id="text_22">
      <!-- 0 -->
      <g transform="translate(305.924887 188.638438) scale(0.1 -0.1)">
       <use xlink:href="#DejaVuSans-30"/>
      </g>
     </g>
    </g>
    <g id="xtick_5">
     <g id="line2d_21">
      <path d="M 360.134643 174.04 
L 360.134643 11.16 
" clip-path="url(#pe043b8d53e)" style="fill: none; stroke: #b0b0b0; stroke-width: 0.8; stroke-linecap: square"/>
     </g>
     <g id="line2d_22">
      <g>
       <use xlink:href="#mfedd5cf1f3" x="360.134643" y="174.04" style="stroke: #000000; stroke-width: 0.8"/>
      </g>
     </g>
     <g id="text_23">
      <!-- 200 -->
      <g transform="translate(350.590893 188.638438) scale(0.1 -0.1)">
       <use xlink:href="#DejaVuSans-32"/>
       <use xlink:href="#DejaVuSans-30" x="63.623047"/>
       <use xlink:href="#DejaVuSans-30" x="127.246094"/>
      </g>
     </g>
    </g>
    <g id="xtick_6">
     <g id="line2d_23">
      <path d="M 411.163149 174.04 
L 411.163149 11.16 
" clip-path="url(#pe043b8d53e)" style="fill: none; stroke: #b0b0b0; stroke-width: 0.8; stroke-linecap: square"/>
     </g>
     <g id="line2d_24">
      <g>
       <use xlink:href="#mfedd5cf1f3" x="411.163149" y="174.04" style="stroke: #000000; stroke-width: 0.8"/>
      </g>
     </g>
     <g id="text_24">
      <!-- 400 -->
      <g transform="translate(401.619399 188.638438) scale(0.1 -0.1)">
       <use xlink:href="#DejaVuSans-34"/>
       <use xlink:href="#DejaVuSans-30" x="63.623047"/>
       <use xlink:href="#DejaVuSans-30" x="127.246094"/>
      </g>
     </g>
    </g>
    <g id="xtick_7">
     <g id="line2d_25">
      <path d="M 462.191655 174.04 
L 462.191655 11.16 
" clip-path="url(#pe043b8d53e)" style="fill: none; stroke: #b0b0b0; stroke-width: 0.8; stroke-linecap: square"/>
     </g>
     <g id="line2d_26">
      <g>
       <use xlink:href="#mfedd5cf1f3" x="462.191655" y="174.04" style="stroke: #000000; stroke-width: 0.8"/>
      </g>
     </g>
     <g id="text_25">
      <!-- 600 -->
      <g transform="translate(452.647905 188.638438) scale(0.1 -0.1)">
       <use xlink:href="#DejaVuSans-36"/>
       <use xlink:href="#DejaVuSans-30" x="63.623047"/>
       <use xlink:href="#DejaVuSans-30" x="127.246094"/>
      </g>
     </g>
    </g>
    <g id="xtick_8">
     <g id="line2d_27">
      <path d="M 513.220161 174.04 
L 513.220161 11.16 
" clip-path="url(#pe043b8d53e)" style="fill: none; stroke: #b0b0b0; stroke-width: 0.8; stroke-linecap: square"/>
     </g>
     <g id="line2d_28">
      <g>
       <use xlink:href="#mfedd5cf1f3" x="513.220161" y="174.04" style="stroke: #000000; stroke-width: 0.8"/>
      </g>
     </g>
     <g id="text_26">
      <!-- 800 -->
      <g transform="translate(503.676411 188.638438) scale(0.1 -0.1)">
       <use xlink:href="#DejaVuSans-38"/>
       <use xlink:href="#DejaVuSans-30" x="63.623047"/>
       <use xlink:href="#DejaVuSans-30" x="127.246094"/>
      </g>
     </g>
    </g>
    <g id="xtick_9">
     <g id="line2d_29">
      <path d="M 564.248667 174.04 
L 564.248667 11.16 
" clip-path="url(#pe043b8d53e)" style="fill: none; stroke: #b0b0b0; stroke-width: 0.8; stroke-linecap: square"/>
     </g>
     <g id="line2d_30">
      <g>
       <use xlink:href="#mfedd5cf1f3" x="564.248667" y="174.04" style="stroke: #000000; stroke-width: 0.8"/>
      </g>
     </g>
     <g id="text_27">
      <!-- 1000 -->
      <g transform="translate(551.523667 188.638438) scale(0.1 -0.1)">
       <use xlink:href="#DejaVuSans-31"/>
       <use xlink:href="#DejaVuSans-30" x="63.623047"/>
       <use xlink:href="#DejaVuSans-30" x="127.246094"/>
       <use xlink:href="#DejaVuSans-30" x="190.869141"/>
      </g>
     </g>
    </g>
    <g id="xtick_10">
     <g id="line2d_31">
      <path d="M 615.277173 174.04 
L 615.277173 11.16 
" clip-path="url(#pe043b8d53e)" style="fill: none; stroke: #b0b0b0; stroke-width: 0.8; stroke-linecap: square"/>
     </g>
     <g id="line2d_32">
      <g>
       <use xlink:href="#mfedd5cf1f3" x="615.277173" y="174.04" style="stroke: #000000; stroke-width: 0.8"/>
      </g>
     </g>
     <g id="text_28">
      <!-- 1200 -->
      <g transform="translate(602.552173 188.638438) scale(0.1 -0.1)">
       <use xlink:href="#DejaVuSans-31"/>
       <use xlink:href="#DejaVuSans-32" x="63.623047"/>
       <use xlink:href="#DejaVuSans-30" x="127.246094"/>
       <use xlink:href="#DejaVuSans-30" x="190.869141"/>
      </g>
     </g>
    </g>
    <g id="text_29">
     <!-- Transmitting distance [m] -->
     <g transform="translate(401.083497 202.316563) scale(0.1 -0.1)">
      <defs>
       <path id="DejaVuSans-54" d="M -19 4666 
L 3928 4666 
L 3928 4134 
L 2272 4134 
L 2272 0 
L 1638 0 
L 1638 4134 
L -19 4134 
L -19 4666 
z
" transform="scale(0.015625)"/>
       <path id="DejaVuSans-72" d="M 2631 2963 
Q 2534 3019 2420 3045 
Q 2306 3072 2169 3072 
Q 1681 3072 1420 2755 
Q 1159 2438 1159 1844 
L 1159 0 
L 581 0 
L 581 3500 
L 1159 3500 
L 1159 2956 
Q 1341 3275 1631 3429 
Q 1922 3584 2338 3584 
Q 2397 3584 2469 3576 
Q 2541 3569 2628 3553 
L 2631 2963 
z
" transform="scale(0.015625)"/>
       <path id="DejaVuSans-73" d="M 2834 3397 
L 2834 2853 
Q 2591 2978 2328 3040 
Q 2066 3103 1784 3103 
Q 1356 3103 1142 2972 
Q 928 2841 928 2578 
Q 928 2378 1081 2264 
Q 1234 2150 1697 2047 
L 1894 2003 
Q 2506 1872 2764 1633 
Q 3022 1394 3022 966 
Q 3022 478 2636 193 
Q 2250 -91 1575 -91 
Q 1294 -91 989 -36 
Q 684 19 347 128 
L 347 722 
Q 666 556 975 473 
Q 1284 391 1588 391 
Q 1994 391 2212 530 
Q 2431 669 2431 922 
Q 2431 1156 2273 1281 
Q 2116 1406 1581 1522 
L 1381 1569 
Q 847 1681 609 1914 
Q 372 2147 372 2553 
Q 372 3047 722 3315 
Q 1072 3584 1716 3584 
Q 2034 3584 2315 3537 
Q 2597 3491 2834 3397 
z
" transform="scale(0.015625)"/>
       <path id="DejaVuSans-6d" d="M 3328 2828 
Q 3544 3216 3844 3400 
Q 4144 3584 4550 3584 
Q 5097 3584 5394 3201 
Q 5691 2819 5691 2113 
L 5691 0 
L 5113 0 
L 5113 2094 
Q 5113 2597 4934 2840 
Q 4756 3084 4391 3084 
Q 3944 3084 3684 2787 
Q 3425 2491 3425 1978 
L 3425 0 
L 2847 0 
L 2847 2094 
Q 2847 2600 2669 2842 
Q 2491 3084 2119 3084 
Q 1678 3084 1418 2786 
Q 1159 2488 1159 1978 
L 1159 0 
L 581 0 
L 581 3500 
L 1159 3500 
L 1159 2956 
Q 1356 3278 1631 3431 
Q 1906 3584 2284 3584 
Q 2666 3584 2933 3390 
Q 3200 3197 3328 2828 
z
" transform="scale(0.015625)"/>
       <path id="DejaVuSans-63" d="M 3122 3366 
L 3122 2828 
Q 2878 2963 2633 3030 
Q 2388 3097 2138 3097 
Q 1578 3097 1268 2742 
Q 959 2388 959 1747 
Q 959 1106 1268 751 
Q 1578 397 2138 397 
Q 2388 397 2633 464 
Q 2878 531 3122 666 
L 3122 134 
Q 2881 22 2623 -34 
Q 2366 -91 2075 -91 
Q 1284 -91 818 406 
Q 353 903 353 1747 
Q 353 2603 823 3093 
Q 1294 3584 2113 3584 
Q 2378 3584 2631 3529 
Q 2884 3475 3122 3366 
z
" transform="scale(0.015625)"/>
      </defs>
      <use xlink:href="#DejaVuSans-54"/>
      <use xlink:href="#DejaVuSans-72" x="46.333984"/>
      <use xlink:href="#DejaVuSans-61" x="87.447266"/>
      <use xlink:href="#DejaVuSans-6e" x="148.726562"/>
      <use xlink:href="#DejaVuSans-73" x="212.105469"/>
      <use xlink:href="#DejaVuSans-6d" x="264.205078"/>
      <use xlink:href="#DejaVuSans-69" x="361.617188"/>
      <use xlink:href="#DejaVuSans-74" x="389.400391"/>
      <use xlink:href="#DejaVuSans-74" x="428.609375"/>
      <use xlink:href="#DejaVuSans-69" x="467.818359"/>
      <use xlink:href="#DejaVuSans-6e" x="495.601562"/>
      <use xlink:href="#DejaVuSans-67" x="558.980469"/>
      <use xlink:href="#DejaVuSans-20" x="622.457031"/>
      <use xlink:href="#DejaVuSans-64" x="654.244141"/>
      <use xlink:href="#DejaVuSans-69" x="717.720703"/>
      <use xlink:href="#DejaVuSans-73" x="745.503906"/>
      <use xlink:href="#DejaVuSans-74" x="797.603516"/>
      <use xlink:href="#DejaVuSans-61" x="836.8125"/>
      <use xlink:href="#DejaVuSans-6e" x="898.091797"/>
      <use xlink:href="#DejaVuSans-63" x="961.470703"/>
      <use xlink:href="#DejaVuSans-65" x="1016.451172"/>
      <use xlink:href="#DejaVuSans-20" x="1077.974609"/>
      <use xlink:href="#DejaVuSans-5b" x="1109.761719"/>
      <use xlink:href="#DejaVuSans-6d" x="1148.775391"/>
      <use xlink:href="#DejaVuSans-5d" x="1246.1875"/>
     </g>
    </g>
   </g>
   <g id="matplotlib.axis_4">
    <g id="ytick_7">
     <g id="line2d_33">
      <path d="M 293.482619 150.669994 
L 637.2 150.669994 
" clip-path="url(#pe043b8d53e)" style="fill: none; stroke: #b0b0b0; stroke-width: 0.8; stroke-linecap: square"/>
     </g>
     <g id="line2d_34">
      <g>
       <use xlink:href="#m89a5aa09c0" x="293.482619" y="150.669994" style="stroke: #000000; stroke-width: 0.8"/>
      </g>
     </g>
     <g id="text_30">
      <!-- 290 -->
      <g transform="translate(267.395119 154.469213) scale(0.1 -0.1)">
       <use xlink:href="#DejaVuSans-32"/>
       <use xlink:href="#DejaVuSans-39" x="63.623047"/>
       <use xlink:href="#DejaVuSans-30" x="127.246094"/>
      </g>
     </g>
    </g>
    <g id="ytick_8">
     <g id="line2d_35">
      <path d="M 293.482619 112.289297 
L 637.2 112.289297 
" clip-path="url(#pe043b8d53e)" style="fill: none; stroke: #b0b0b0; stroke-width: 0.8; stroke-linecap: square"/>
     </g>
     <g id="line2d_36">
      <g>
       <use xlink:href="#m89a5aa09c0" x="293.482619" y="112.289297" style="stroke: #000000; stroke-width: 0.8"/>
      </g>
     </g>
     <g id="text_31">
      <!-- 295 -->
      <g transform="translate(267.395119 116.088516) scale(0.1 -0.1)">
       <use xlink:href="#DejaVuSans-32"/>
       <use xlink:href="#DejaVuSans-39" x="63.623047"/>
       <use xlink:href="#DejaVuSans-35" x="127.246094"/>
      </g>
     </g>
    </g>
    <g id="ytick_9">
     <g id="line2d_37">
      <path d="M 293.482619 73.908601 
L 637.2 73.908601 
" clip-path="url(#pe043b8d53e)" style="fill: none; stroke: #b0b0b0; stroke-width: 0.8; stroke-linecap: square"/>
     </g>
     <g id="line2d_38">
      <g>
       <use xlink:href="#m89a5aa09c0" x="293.482619" y="73.908601" style="stroke: #000000; stroke-width: 0.8"/>
      </g>
     </g>
     <g id="text_32">
      <!-- 300 -->
      <g transform="translate(267.395119 77.70782) scale(0.1 -0.1)">
       <use xlink:href="#DejaVuSans-33"/>
       <use xlink:href="#DejaVuSans-30" x="63.623047"/>
       <use xlink:href="#DejaVuSans-30" x="127.246094"/>
      </g>
     </g>
    </g>
    <g id="ytick_10">
     <g id="line2d_39">
      <path d="M 293.482619 35.527904 
L 637.2 35.527904 
" clip-path="url(#pe043b8d53e)" style="fill: none; stroke: #b0b0b0; stroke-width: 0.8; stroke-linecap: square"/>
     </g>
     <g id="line2d_40">
      <g>
       <use xlink:href="#m89a5aa09c0" x="293.482619" y="35.527904" style="stroke: #000000; stroke-width: 0.8"/>
      </g>
     </g>
     <g id="text_33">
      <!-- 305 -->
      <g transform="translate(267.395119 39.327123) scale(0.1 -0.1)">
       <use xlink:href="#DejaVuSans-33"/>
       <use xlink:href="#DejaVuSans-30" x="63.623047"/>
       <use xlink:href="#DejaVuSans-35" x="127.246094"/>
      </g>
     </g>
    </g>
    <g id="text_34">
     <!-- Elevation [m] -->
     <g transform="translate(261.315432 126.186719) rotate(-90) scale(0.1 -0.1)">
      <defs>
       <path id="DejaVuSans-45" d="M 628 4666 
L 3578 4666 
L 3578 4134 
L 1259 4134 
L 1259 2753 
L 3481 2753 
L 3481 2222 
L 1259 2222 
L 1259 531 
L 3634 531 
L 3634 0 
L 628 0 
L 628 4666 
z
" transform="scale(0.015625)"/>
       <path id="DejaVuSans-6c" d="M 603 4863 
L 1178 4863 
L 1178 0 
L 603 0 
L 603 4863 
z
" transform="scale(0.015625)"/>
       <path id="DejaVuSans-76" d="M 191 3500 
L 800 3500 
L 1894 563 
L 2988 3500 
L 3597 3500 
L 2284 0 
L 1503 0 
L 191 3500 
z
" transform="scale(0.015625)"/>
      </defs>
      <use xlink:href="#DejaVuSans-45"/>
      <use xlink:href="#DejaVuSans-6c" x="63.183594"/>
      <use xlink:href="#DejaVuSans-65" x="90.966797"/>
      <use xlink:href="#DejaVuSans-76" x="152.490234"/>
      <use xlink:href="#DejaVuSans-61" x="211.669922"/>
      <use xlink:href="#DejaVuSans-74" x="272.949219"/>
      <use xlink:href="#DejaVuSans-69" x="312.158203"/>
      <use xlink:href="#DejaVuSans-6f" x="339.941406"/>
      <use xlink:href="#DejaVuSans-6e" x="401.123047"/>
      <use xlink:href="#DejaVuSans-20" x="464.501953"/>
      <use xlink:href="#DejaVuSans-5b" x="496.289062"/>
      <use xlink:href="#DejaVuSans-6d" x="535.302734"/>
      <use xlink:href="#DejaVuSans-5d" x="632.714844"/>
     </g>
    </g>
   </g>
   <g id="line2d_41">
    <path d="M 309.106137 24.858071 
L 310.571746 26.086253 
L 312.037356 27.314435 
L 313.502966 28.312333 
L 314.968576 29.540516 
L 316.434185 30.845459 
L 317.899795 32.227164 
L 319.365405 33.532108 
L 320.831014 34.683529 
L 322.296624 35.681427 
L 323.762234 36.602564 
L 325.227844 37.293416 
L 326.693453 37.984269 
L 328.159063 38.444837 
" clip-path="url(#pe043b8d53e)" style="fill: none; stroke: #d95f02; stroke-width: 1.5; stroke-linecap: square"/>
   </g>
   <g id="line2d_42">
    <path d="M 328.159063 174.04 
L 328.159063 11.16 
" clip-path="url(#pe043b8d53e)" style="fill: none; stroke-dasharray: 5.55,2.4; stroke-dashoffset: 0; stroke: #808080; stroke-opacity: 0.5; stroke-width: 1.5"/>
   </g>
   <g id="line2d_43">
    <path d="M 309.106137 24.858071 
L 310.424751 25.93273 
L 311.743365 27.084151 
L 313.061979 28.005288 
L 314.380592 29.079947 
L 315.699206 30.154607 
L 317.01782 31.45955 
L 318.336434 32.687733 
L 319.655048 33.762392 
L 320.973662 34.837052 
L 322.292276 35.681427 
L 323.61089 36.525802 
L 324.929504 37.139893 
L 326.248118 37.830746 
L 327.566732 38.214553 
L 328.885346 38.59836 
L 330.20396 39.058928 
L 331.522574 39.673019 
L 332.841188 40.517395 
L 334.159802 41.285009 
L 335.478416 42.129384 
L 336.79703 42.973759 
L 338.115644 43.741373 
L 339.434257 44.66251 
L 340.752871 45.813931 
L 342.071485 47.272397 
L 343.390099 48.654102 
L 344.708713 49.959046 
L 346.027327 51.033706 
L 347.345941 51.878081 
L 348.664555 52.799218 
" clip-path="url(#pe043b8d53e)" style="fill: none; stroke: #7570b3; stroke-width: 1.5; stroke-linecap: square"/>
   </g>
   <g id="line2d_44">
    <path d="M 348.664555 174.04 
L 348.664555 11.16 
" clip-path="url(#pe043b8d53e)" style="fill: none; stroke-dasharray: 5.55,2.4; stroke-dashoffset: 0; stroke: #808080; stroke-opacity: 0.5; stroke-width: 1.5"/>
   </g>
   <g id="line2d_45">
    <path d="M 309.106137 24.858071 
L 310.405617 25.93273 
L 311.705098 27.084151 
L 313.004578 28.005288 
L 314.304059 29.079947 
L 315.60354 30.154607 
L 316.90302 31.382789 
L 318.202501 32.53421 
L 319.501981 33.685631 
L 320.801462 34.76029 
L 322.100943 35.604666 
L 323.400423 36.449041 
L 324.699904 37.063132 
L 325.999384 37.753985 
L 327.298865 38.137792 
L 328.598346 38.521599 
L 329.897826 38.828644 
L 331.197307 39.442735 
L 332.496788 40.210349 
L 333.796268 40.977963 
L 335.095749 41.822338 
L 336.395229 42.666714 
L 337.69471 43.434328 
L 338.994191 44.12518 
L 340.293671 45.19984 
L 341.593152 46.581545 
L 342.892632 48.040011 
L 344.192113 49.498478 
L 345.491594 50.649899 
L 346.791074 51.571035 
L 348.090555 52.415411 
L 349.390035 53.336547 
L 350.689516 54.104161 
L 351.988997 54.718253 
L 353.288477 55.332344 
L 354.587958 55.792912 
L 355.887438 56.483765 
L 357.186919 57.097856 
L 358.4864 57.711947 
L 359.78588 58.018992 
L 361.085361 58.556322 
L 362.384841 59.093652 
L 363.684322 59.630982 
L 364.983803 60.245073 
L 366.283283 60.62888 
L 367.582764 61.16621 
L 368.882244 61.550016 
L 370.181725 61.933823 
L 371.481206 62.087346 
L 372.780686 62.471153 
L 374.080167 62.778199 
L 375.379647 63.008483 
L 376.679128 63.39229 
L 377.978609 63.39229 
L 379.278089 63.699336 
L 380.57757 63.622574 
L 381.87705 63.92962 
L 383.176531 63.92962 
L 384.476012 64.083142 
L 385.775492 64.773995 
L 387.074973 65.388086 
L 388.374453 65.925416 
L 389.673934 65.157802 
" clip-path="url(#pe043b8d53e)" style="fill: none; stroke: #e7298a; stroke-width: 1.5; stroke-linecap: square"/>
   </g>
   <g id="line2d_46">
    <path d="M 389.673934 174.04 
L 389.673934 11.16 
" clip-path="url(#pe043b8d53e)" style="fill: none; stroke-dasharray: 5.55,2.4; stroke-dashoffset: 0; stroke: #808080; stroke-opacity: 0.5; stroke-width: 1.5"/>
   </g>
   <g id="line2d_47">
    <path d="M 309.106137 24.858071 
L 310.407721 26.009491 
L 311.709306 27.084151 
L 313.01089 28.005288 
L 314.312475 29.079947 
L 315.61406 30.154607 
L 316.915644 31.382789 
L 318.217229 32.610971 
L 319.518813 33.762392 
L 320.820398 34.837052 
L 322.121983 35.604666 
L 323.423567 36.525802 
L 324.725152 37.063132 
L 326.026736 37.753985 
L 327.328321 38.06103 
L 328.629906 38.444837 
L 329.93149 38.751883 
L 331.233075 39.365974 
L 332.534659 40.133588 
L 333.836244 40.901202 
L 335.137828 41.745577 
L 336.439413 42.589952 
L 337.740998 43.357566 
L 339.042582 44.12518 
L 340.344167 45.19984 
L 341.645751 46.581545 
L 342.947336 48.116773 
L 344.248921 49.498478 
L 345.550505 50.72666 
L 346.85209 51.647797 
L 348.153674 52.568934 
L 349.455259 53.49007 
L 350.756844 54.334446 
L 352.058428 55.025298 
L 353.360013 55.639389 
L 354.661597 56.25348 
L 355.963182 56.867572 
L 357.264767 57.635185 
L 358.566351 58.095754 
L 359.867936 58.556322 
L 361.16952 59.016891 
L 362.471105 59.55422 
L 363.77269 60.168311 
L 365.074274 60.705641 
L 366.375859 61.242971 
L 367.677443 61.780301 
L 368.979028 62.240869 
L 370.280612 62.624676 
L 371.582197 62.931722 
L 372.883782 63.238767 
L 374.185366 63.545813 
L 375.486951 63.852858 
L 376.788535 64.083142 
L 378.09012 64.313427 
L 379.391705 64.390188 
L 380.693289 64.543711 
L 381.994874 64.620472 
L 383.296458 64.697234 
L 384.598043 65.004279 
L 385.899628 65.541609 
L 387.201212 66.69303 
L 388.502797 67.307121 
L 389.804381 66.539507 
L 391.105966 66.078939 
L 392.407551 65.695132 
L 393.709135 65.541609 
L 395.01072 65.234563 
L 396.312304 65.157802 
L 397.613889 65.081041 
L 398.915473 65.234563 
L 400.217058 65.157802 
L 401.518643 65.234563 
L 402.820227 65.157802 
L 404.121812 65.234563 
L 405.423396 65.464848 
L 406.724981 65.541609 
L 408.026566 65.848655 
L 409.32815 65.925416 
L 410.629735 66.232461 
L 411.931319 66.309223 
L 413.232904 66.539507 
L 414.534489 66.69303 
" clip-path="url(#pe043b8d53e)" style="fill: none; stroke: #66a61e; stroke-width: 1.5; stroke-linecap: square"/>
   </g>
   <g id="line2d_48">
    <path d="M 414.534489 174.04 
L 414.534489 11.16 
" clip-path="url(#pe043b8d53e)" style="fill: none; stroke-dasharray: 5.55,2.4; stroke-dashoffset: 0; stroke: #808080; stroke-opacity: 0.5; stroke-width: 1.5"/>
   </g>
   <g id="line2d_49">
    <path d="M 309.106137 24.858071 
L 310.395419 26.009491 
L 311.684701 27.084151 
L 312.973983 28.005288 
L 314.263265 29.079947 
L 315.552547 30.154607 
L 316.841829 31.382789 
L 318.131112 32.53421 
L 319.420394 33.685631 
L 320.709676 34.76029 
L 321.998958 35.604666 
L 323.28824 36.449041 
L 324.577522 37.063132 
L 325.866804 37.677223 
L 327.156086 38.06103 
L 328.445368 38.368076 
L 329.734651 38.675121 
L 331.023933 39.13569 
L 332.313215 39.903304 
L 333.602497 40.670918 
L 334.891779 41.515293 
L 336.181061 42.359668 
L 337.470343 43.127282 
L 338.759625 43.894896 
L 340.048908 44.816033 
L 341.33819 46.197738 
L 342.627472 47.656204 
L 343.916754 49.191432 
L 345.206036 50.496376 
L 346.495318 51.417513 
L 347.7846 52.338649 
L 349.073882 53.336547 
L 350.363164 54.180923 
L 351.652447 55.102059 
L 352.941729 55.792912 
L 354.231011 56.483765 
L 355.520293 57.097856 
L 356.809575 57.942231 
L 358.098857 58.479561 
L 359.388139 58.940129 
L 360.677421 59.323936 
L 361.966704 59.861266 
L 363.255986 60.475357 
L 364.545268 61.012687 
L 365.83455 61.550016 
L 367.123832 62.164108 
L 368.413114 62.778199 
L 369.702396 63.238767 
L 370.991678 63.622574 
L 372.280961 63.92962 
L 373.570243 64.313427 
L 374.859525 64.543711 
L 376.148807 64.927518 
L 377.438089 65.081041 
L 378.727371 65.234563 
L 380.016653 65.464848 
L 381.305935 65.464848 
L 382.595217 65.695132 
L 383.8845 65.848655 
L 385.173782 66.385984 
L 386.463064 67.383882 
L 387.752346 68.535303 
L 389.041628 68.305019 
L 390.33091 67.690928 
L 391.620192 67.23036 
L 392.909474 66.846553 
L 394.198757 66.69303 
L 395.488039 66.539507 
L 396.777321 66.462746 
L 398.066603 66.539507 
L 399.355885 66.69303 
L 400.645167 66.846553 
L 401.934449 66.846553 
L 403.223731 66.923314 
L 404.513014 66.923314 
L 405.802296 66.846553 
L 407.091578 66.923314 
L 408.38086 66.923314 
L 409.670142 67.000075 
L 410.959424 67.076837 
L 412.248706 67.23036 
L 413.537988 67.383882 
L 414.82727 67.537405 
L 416.116553 67.767689 
L 417.405835 67.844451 
L 418.695117 67.997974 
L 419.984399 67.844451 
L 421.273681 67.921212 
L 422.562963 67.844451 
L 423.852245 67.767689 
L 425.141527 67.690928 
L 426.43081 67.460644 
L 427.720092 67.23036 
L 429.009374 66.846553 
L 430.298656 66.69303 
L 431.587938 66.1557 
L 432.87722 65.771893 
L 434.166502 65.311325 
L 435.455784 64.773995 
L 436.745067 64.313427 
L 438.034349 63.699336 
L 439.323631 63.315529 
L 440.612913 62.624676 
L 441.902195 62.471153 
L 443.191477 61.933823 
L 444.480759 61.857062 
L 445.770041 61.703539 
L 447.059323 61.780301 
L 448.348606 61.933823 
" clip-path="url(#pe043b8d53e)" style="fill: none; stroke: #e6ab02; stroke-width: 1.5; stroke-linecap: square"/>
   </g>
   <g id="line2d_50">
    <path d="M 448.348606 174.04 
L 448.348606 11.16 
" clip-path="url(#pe043b8d53e)" style="fill: none; stroke-dasharray: 5.55,2.4; stroke-dashoffset: 0; stroke: #808080; stroke-opacity: 0.5; stroke-width: 1.5"/>
   </g>
   <g id="line2d_51">
    <path d="M 309.106137 24.858071 
L 310.395758 26.009491 
L 311.685379 27.084151 
L 312.975 28.005288 
L 314.264621 29.079947 
L 315.554242 30.154607 
L 316.843863 31.382789 
L 318.133485 32.53421 
L 319.423106 33.685631 
L 320.712727 34.76029 
L 322.002348 35.604666 
L 323.291969 36.449041 
L 324.58159 37.063132 
L 325.871211 37.677223 
L 327.160832 37.984269 
L 328.450453 38.368076 
L 329.740075 38.675121 
L 331.029696 39.13569 
L 332.319317 39.903304 
L 333.608938 40.670918 
L 334.898559 41.515293 
L 336.18818 42.359668 
L 337.477801 43.127282 
L 338.767422 43.894896 
L 340.057044 44.739271 
L 341.346665 46.197738 
L 342.636286 47.656204 
L 343.925907 49.191432 
L 345.215528 50.496376 
L 346.505149 51.494274 
L 347.79477 52.338649 
L 349.084391 53.336547 
L 350.374013 54.257684 
L 351.663634 55.178821 
L 352.953255 55.869673 
L 354.242876 56.560526 
L 355.532497 57.251378 
L 356.822118 58.095754 
L 358.111739 58.709845 
L 359.40136 59.170413 
L 360.690981 59.477459 
L 361.980603 60.014789 
L 363.270224 60.62888 
L 364.559845 61.242971 
L 365.849466 61.780301 
L 367.139087 62.31763 
L 368.428708 62.931722 
L 369.718329 63.39229 
L 371.00795 63.852858 
L 372.297572 64.159904 
L 373.587193 64.543711 
L 374.876814 64.850756 
L 376.166435 65.157802 
L 377.456056 65.388086 
L 378.745677 65.541609 
L 380.035298 65.695132 
L 381.324919 65.848655 
L 382.614541 66.002177 
L 383.904162 66.232461 
L 385.193783 66.69303 
L 386.483404 67.767689 
L 387.773025 68.842349 
L 389.062646 68.688826 
L 390.352267 67.997974 
L 391.641888 67.537405 
L 392.931509 67.23036 
L 394.221131 67.076837 
L 395.510752 66.923314 
L 396.800373 66.923314 
L 398.089994 66.923314 
L 399.379615 67.076837 
L 400.669236 67.307121 
L 401.958857 67.383882 
L 403.248478 67.460644 
L 404.5381 67.460644 
L 405.827721 67.383882 
L 407.117342 67.307121 
L 408.406963 67.307121 
L 409.696584 67.383882 
L 410.986205 67.460644 
L 412.275826 67.537405 
L 413.565447 67.690928 
L 414.855069 67.844451 
L 416.14469 68.151496 
L 417.434311 68.151496 
L 418.723932 68.305019 
L 420.013553 68.228258 
L 421.303174 68.228258 
L 422.592795 68.151496 
L 423.882416 68.074735 
L 425.172037 67.921212 
L 426.461659 67.690928 
L 427.75128 67.460644 
L 429.040901 67.153598 
L 430.330522 66.846553 
L 431.620143 66.309223 
L 432.909764 65.848655 
L 434.199385 65.311325 
L 435.489006 64.850756 
L 436.778628 64.390188 
L 438.068249 63.852858 
L 439.35787 63.39229 
L 440.647491 62.85496 
L 441.937112 62.547915 
L 443.226733 62.164108 
L 444.516354 61.933823 
L 445.805975 61.780301 
L 447.095597 61.780301 
L 448.385218 61.933823 
L 449.674839 62.31763 
L 450.96446 62.85496 
L 452.254081 63.622574 
L 453.543702 64.466949 
L 454.833323 65.388086 
L 456.122944 66.232461 
L 457.412566 67.000075 
L 458.702187 67.690928 
L 459.991808 68.305019 
L 461.281429 68.995872 
L 462.57105 69.533201 
L 463.860671 70.147293 
L 465.150292 70.531099 
L 466.439913 71.068429 
L 467.729534 71.528998 
L 469.019156 72.143089 
" clip-path="url(#pe043b8d53e)" style="fill: none; stroke: #a6761d; stroke-width: 1.5; stroke-linecap: square"/>
   </g>
   <g id="line2d_52">
    <path d="M 469.019156 174.04 
L 469.019156 11.16 
" clip-path="url(#pe043b8d53e)" style="fill: none; stroke-dasharray: 5.55,2.4; stroke-dashoffset: 0; stroke: #808080; stroke-opacity: 0.5; stroke-width: 1.5"/>
   </g>
   <g id="line2d_53">
    <path d="M 309.106137 24.858071 
L 311.685277 27.237674 
L 312.974847 28.15881 
L 316.843556 31.382789 
L 319.422696 33.762392 
L 320.712266 34.76029 
L 322.001836 35.604666 
L 324.580976 36.909609 
L 327.160116 37.677223 
L 329.739256 38.137792 
L 331.028826 38.521599 
L 332.318396 39.058928 
L 333.607966 39.749781 
L 334.897536 40.594156 
L 337.476676 42.513191 
L 338.766246 43.357566 
L 340.055816 44.432226 
L 341.345386 45.813931 
L 343.924526 49.575239 
L 345.214096 51.110467 
L 346.503666 52.338649 
L 349.082805 54.411207 
L 352.951515 58.172515 
L 354.241085 59.170413 
L 355.530655 60.321834 
L 356.820225 61.319732 
L 358.109795 62.010585 
L 360.688935 62.778199 
L 364.557645 64.466949 
L 365.847215 64.697234 
L 367.136785 65.157802 
L 368.426355 65.848655 
L 371.005495 67.000075 
L 372.295065 67.690928 
L 374.874205 68.535303 
L 378.742915 69.533201 
L 380.032485 70.070531 
L 381.322055 70.454338 
L 383.901194 70.991668 
L 385.190764 71.452236 
L 386.480334 72.680418 
L 387.769904 74.215646 
L 389.059474 74.138885 
L 391.638614 72.680418 
L 392.928184 72.21985 
L 394.217754 72.066327 
L 395.507324 72.143089 
L 398.086464 71.605759 
L 399.376034 71.759282 
L 403.244744 72.833941 
L 404.534314 72.680418 
L 407.113454 71.836043 
L 408.403024 71.528998 
L 409.692594 71.528998 
L 410.982164 71.68252 
L 412.271734 72.143089 
L 417.430013 74.522692 
L 420.009153 75.367067 
L 421.298723 75.52059 
L 423.877863 75.290306 
L 426.457003 74.906499 
L 429.036143 74.215646 
L 430.325713 73.678317 
L 434.194423 71.68252 
L 436.773563 70.684622 
L 439.352703 70.070531 
L 440.642273 69.917008 
L 443.221413 69.917008 
L 447.090123 70.454338 
L 448.379693 70.838145 
L 456.117112 74.138885 
L 457.406682 74.906499 
L 461.275392 77.593148 
L 466.433672 79.972751 
L 471.591952 81.58474 
L 472.881522 82.045308 
L 475.460662 83.273491 
L 478.039802 84.731957 
L 480.618942 86.036901 
L 487.066791 88.800311 
L 496.093781 93.022188 
L 499.962491 93.943324 
L 501.252061 94.403893 
L 502.541631 95.094745 
L 503.831201 95.939121 
L 506.410341 98.165201 
L 508.989481 100.468043 
L 514.147761 104.382874 
L 515.437331 105.304011 
L 516.726901 105.994863 
L 518.016471 106.532193 
L 519.30604 106.839238 
L 528.33303 107.990659 
L 528.33303 107.990659 
" clip-path="url(#pe043b8d53e)" style="fill: none; stroke: #666666; stroke-width: 1.5; stroke-linecap: square"/>
   </g>
   <g id="line2d_54">
    <path d="M 528.33303 174.04 
L 528.33303 11.16 
" clip-path="url(#pe043b8d53e)" style="fill: none; stroke-dasharray: 5.55,2.4; stroke-dashoffset: 0; stroke: #808080; stroke-opacity: 0.5; stroke-width: 1.5"/>
   </g>
   <g id="line2d_55">
    <path d="M 309.106137 24.858071 
L 311.671448 27.314435 
L 314.23676 29.23347 
L 316.802072 31.306028 
L 319.367383 33.532108 
L 320.650039 34.530006 
L 321.932695 35.29762 
L 324.498007 36.449041 
L 325.780662 36.909609 
L 328.345974 37.446939 
L 330.911286 37.984269 
L 333.476597 38.982167 
L 336.041909 40.747679 
L 337.324565 41.822338 
L 338.607221 42.743475 
L 339.889877 43.894896 
L 341.172532 45.430124 
L 345.0205 51.033706 
L 346.303156 52.492172 
L 350.151123 55.946435 
L 352.716435 58.479561 
L 355.281747 60.552118 
L 356.564402 61.626778 
L 357.847058 62.394392 
L 361.695026 63.622574 
L 362.977682 64.313427 
L 368.108305 66.232461 
L 373.238928 69.072633 
L 378.369552 70.377577 
L 379.652207 70.914906 
L 382.217519 72.296612 
L 384.782831 73.448032 
L 386.065487 74.292408 
L 387.348142 75.597351 
L 388.630798 76.05792 
L 389.913454 75.674113 
L 391.19611 74.906499 
L 392.478766 74.445931 
L 393.761422 74.215646 
L 395.044077 74.369169 
L 396.326733 74.369169 
L 397.609389 74.062124 
L 398.892045 73.524794 
L 400.174701 73.448032 
L 404.022668 73.985362 
L 406.58798 73.908601 
L 407.870636 73.985362 
L 409.153291 74.215646 
L 411.718603 75.060022 
L 414.283915 76.211443 
L 416.849226 77.516386 
L 420.697194 79.281898 
L 423.262506 79.972751 
L 425.827817 80.203035 
L 428.393129 79.972751 
L 429.675785 79.742467 
L 436.089064 77.900193 
L 438.654376 77.362863 
L 439.937031 77.132579 
L 443.784999 76.979057 
L 447.632966 77.132579 
L 452.76359 77.055818 
L 455.328901 76.979057 
L 456.611557 77.132579 
L 459.176869 77.823432 
L 463.024836 79.35866 
L 466.872804 80.817126 
L 472.003427 83.657298 
L 474.568739 85.115764 
L 479.699362 87.802413 
L 484.829986 90.182016 
L 487.395297 91.333437 
L 488.677953 92.02429 
L 491.243265 93.943324 
L 493.808576 96.783496 
L 496.373888 100.007474 
L 498.9392 103.538499 
L 502.787167 108.988557 
L 504.069823 110.600547 
L 506.635135 113.056911 
L 509.200446 115.129469 
L 510.483102 115.973844 
L 514.33107 117.96964 
L 518.179037 119.811914 
L 520.744349 120.733051 
L 522.027005 120.963335 
L 524.592316 121.040096 
L 528.440284 120.272482 
L 532.288251 119.121061 
L 534.853563 118.123163 
L 536.136219 117.816118 
L 538.70153 117.585833 
L 541.266842 117.739356 
L 542.549498 118.046402 
L 545.11481 118.967539 
L 547.680121 120.118959 
L 548.962777 120.579528 
L 550.245433 120.886573 
L 552.810745 121.040096 
L 557.941368 120.733051 
L 560.50668 120.886573 
L 561.789335 121.116858 
L 566.919959 123.035892 
L 566.919959 123.035892 
" clip-path="url(#pe043b8d53e)" style="fill: none; stroke: #e41a1c; stroke-width: 1.5; stroke-linecap: square"/>
   </g>
   <g id="line2d_56">
    <path d="M 566.919959 174.04 
L 566.919959 11.16 
" clip-path="url(#pe043b8d53e)" style="fill: none; stroke-dasharray: 5.55,2.4; stroke-dashoffset: 0; stroke: #808080; stroke-opacity: 0.5; stroke-width: 1.5"/>
   </g>
   <g id="line2d_57">
    <path d="M 309.106137 24.858071 
L 311.677909 27.391197 
L 315.535568 30.231368 
L 320.679112 34.222961 
L 323.250885 35.527904 
L 325.822657 36.37228 
L 328.39443 37.063132 
L 330.966202 37.753985 
L 332.252088 38.214553 
L 334.823861 39.673019 
L 337.395633 41.592054 
L 339.967405 43.587851 
L 341.253292 45.123078 
L 345.11095 51.033706 
L 346.396836 52.568934 
L 352.826267 58.633084 
L 355.39804 60.705641 
L 356.683926 61.857062 
L 357.969812 62.624676 
L 361.827471 64.083142 
L 364.399243 65.388086 
L 366.971016 66.078939 
L 368.256902 66.616268 
L 372.11456 68.688826 
L 374.686333 69.686724 
L 378.543991 70.761384 
L 379.829878 71.452236 
L 382.40165 73.831839 
L 383.687536 74.829737 
L 387.545195 77.132579 
L 388.831081 77.74667 
L 390.116967 77.669909 
L 391.402853 77.132579 
L 392.68874 76.825534 
L 393.974626 76.902295 
L 396.546398 77.900193 
L 397.832284 78.053716 
L 399.118171 77.823432 
L 400.404057 77.823432 
L 402.975829 78.514284 
L 404.261715 78.898091 
L 405.547601 79.051614 
L 406.833488 79.051614 
L 409.40526 79.435421 
L 410.691146 79.665705 
L 413.262919 80.433319 
L 414.548805 80.970649 
L 419.69235 83.657298 
L 422.264122 84.655196 
L 427.407667 86.804515 
L 428.693553 87.034799 
L 429.979439 87.11156 
L 432.551212 86.881276 
L 438.980643 85.269287 
L 441.552415 84.578434 
L 444.124187 84.194627 
L 446.69596 84.117866 
L 449.267732 83.964343 
L 453.125391 83.273491 
L 455.697163 83.350252 
L 464.698367 85.499571 
L 467.270139 86.650992 
L 468.556025 87.265083 
L 471.127798 88.18622 
L 476.271342 89.414402 
L 478.843115 90.258778 
L 481.414887 91.717244 
L 482.700773 92.638381 
L 489.130204 98.08844 
L 490.416091 99.239861 
L 499.417294 108.527989 
L 509.704384 120.118959 
L 510.99027 121.27038 
L 512.276156 122.191517 
L 514.847928 123.649984 
L 521.277359 127.104246 
L 523.849132 128.178906 
L 526.420904 129.023281 
L 528.992676 129.867656 
L 531.564449 130.712032 
L 532.850335 131.249361 
L 536.707994 133.39868 
L 539.279766 135.01067 
L 541.851538 136.622659 
L 545.709197 139.155785 
L 548.280969 140.460729 
L 550.852742 141.381865 
L 553.424514 141.612149 
L 554.7104 141.612149 
L 555.996287 141.458627 
L 558.568059 140.844536 
L 559.853945 140.383967 
L 566.283376 137.390273 
L 567.569262 137.23675 
L 570.141035 137.620557 
L 575.28458 138.848739 
L 577.856352 139.232546 
L 580.428124 140.00016 
L 582.999897 141.151581 
L 585.571669 142.149479 
L 586.857555 142.76357 
L 592.0011 146.141072 
L 593.286986 147.13897 
L 594.572873 148.290391 
L 601.002304 154.815109 
L 602.28819 155.736246 
L 603.574076 156.427098 
L 606.145848 157.424996 
L 607.431735 157.962326 
L 608.717621 158.806702 
L 611.289393 160.725736 
L 615.147052 163.412385 
L 617.718824 164.947613 
L 620.290597 166.175795 
L 621.576483 166.636364 
L 621.576483 166.636364 
" clip-path="url(#pe043b8d53e)" style="fill: none; stroke: #377eb8; stroke-width: 1.5; stroke-linecap: square"/>
   </g>
   <g id="line2d_58">
    <path d="M 621.576483 174.04 
L 621.576483 11.16 
" clip-path="url(#pe043b8d53e)" style="fill: none; stroke-dasharray: 5.55,2.4; stroke-dashoffset: 0; stroke: #808080; stroke-opacity: 0.5; stroke-width: 1.5"/>
   </g>
   <g id="patch_8">
    <path d="M 293.482619 174.04 
L 293.482619 11.16 
" style="fill: none; stroke: #000000; stroke-width: 0.8; stroke-linejoin: miter; stroke-linecap: square"/>
   </g>
   <g id="patch_9">
    <path d="M 637.2 174.04 
L 637.2 11.16 
" style="fill: none; stroke: #000000; stroke-width: 0.8; stroke-linejoin: miter; stroke-linecap: square"/>
   </g>
   <g id="patch_10">
    <path d="M 293.482619 174.04 
L 637.2 174.04 
" style="fill: none; stroke: #000000; stroke-width: 0.8; stroke-linejoin: miter; stroke-linecap: square"/>
   </g>
   <g id="patch_11">
    <path d="M 293.482619 11.16 
L 637.2 11.16 
" style="fill: none; stroke: #000000; stroke-width: 0.8; stroke-linejoin: miter; stroke-linecap: square"/>
   </g>
   <g id="text_35">
    <!-- 1 -->
    <g transform="translate(329.434776 25.011593) scale(0.1 -0.1)">
     <use xlink:href="#DejaVuSans-31"/>
    </g>
   </g>
   <g id="text_36">
    <!-- 2 -->
    <g transform="translate(349.940268 39.365974) scale(0.1 -0.1)">
     <use xlink:href="#DejaVuSans-32"/>
    </g>
   </g>
   <g id="text_37">
    <!-- 3 -->
    <g transform="translate(390.949647 51.724558) scale(0.1 -0.1)">
     <use xlink:href="#DejaVuSans-33"/>
    </g>
   </g>
   <g id="text_38">
    <!-- 4 -->
    <g transform="translate(415.810201 53.259786) scale(0.1 -0.1)">
     <use xlink:href="#DejaVuSans-34"/>
    </g>
   </g>
   <g id="text_39">
    <!-- 5 -->
    <g transform="translate(449.624318 48.50058) scale(0.1 -0.1)">
     <use xlink:href="#DejaVuSans-35"/>
    </g>
   </g>
   <g id="text_40">
    <!-- 6 -->
    <g transform="translate(470.294868 58.709845) scale(0.1 -0.1)">
     <use xlink:href="#DejaVuSans-36"/>
    </g>
   </g>
   <g id="text_41">
    <!-- 7 -->
    <g transform="translate(529.608743 94.557416) scale(0.1 -0.1)">
     <use xlink:href="#DejaVuSans-37"/>
    </g>
   </g>
   <g id="text_42">
    <!-- 8 -->
    <g transform="translate(568.195671 109.602649) scale(0.1 -0.1)">
     <use xlink:href="#DejaVuSans-38"/>
    </g>
   </g>
   <g id="text_43">
    <!-- 9 -->
    <g transform="translate(622.852195 153.20312) scale(0.1 -0.1)">
     <use xlink:href="#DejaVuSans-39"/>
    </g>
   </g>
  </g>
 </g>
 <defs>
  <clipPath id="pb335690754">
   <rect x="66.62" y="11.16" width="171.85869" height="162.88"/>
  </clipPath>
  <clipPath id="pe043b8d53e">
   <rect x="293.482619" y="11.16" width="343.717381" height="162.88"/>
  </clipPath>
 </defs>
</svg>
