<?xml version="1.0" encoding="utf-8" standalone="no"?>
<!DOCTYPE svg PUBLIC "-//W3C//DTD SVG 1.1//EN"
  "http://www.w3.org/Graphics/SVG/1.1/DTD/svg11.dtd">
<svg xmlns:xlink="http://www.w3.org/1999/xlink" width="648pt" height="216pt" viewBox="0 0 648 216" xmlns="http://www.w3.org/2000/svg" version="1.1">
 <metadata>
  <rdf:RDF xmlns:dc="http://purl.org/dc/elements/1.1/" xmlns:cc="http://creativecommons.org/ns#" xmlns:rdf="http://www.w3.org/1999/02/22-rdf-syntax-ns#">
   <cc:Work>
    <dc:type rdf:resource="http://purl.org/dc/dcmitype/StillImage"/>
    <dc:date>2024-05-07T14:04:39.754881</dc:date>
    <dc:format>image/svg+xml</dc:format>
    <dc:creator>
     <cc:Agent>
      <dc:title>Matplotlib v3.8.4, https://matplotlib.org/</dc:title>
     </cc:Agent>
    </dc:creator>
   </cc:Work>
  </rdf:RDF>
 </metadata>
 <defs>
  <style type="text/css">*{stroke-linejoin: round; stroke-linecap: butt}</style>
 </defs>
 <g id="figure_1">
  <g id="patch_1">
   <path d="M 0 216 
L 648 216 
L 648 0 
L 0 0 
z
" style="fill: #ffffff"/>
  </g>
  <g id="axes_1">
   <g id="patch_2">
    <path d="M 66.62 174.04 
L 239.562394 174.04 
L 239.562394 10.8 
L 66.62 10.8 
z
" style="fill: #ffffff"/>
   </g>
   <g id="PathCollection_1">
    <defs>
     <path id="mb736f8e90c" d="M 0 3 
C 0.795609 3 1.55874 2.683901 2.12132 2.12132 
C 2.683901 1.55874 3 0.795609 3 0 
C 3 -0.795609 2.683901 -1.55874 2.12132 -2.12132 
C 1.55874 -2.683901 0.795609 -3 0 -3 
C -0.795609 -3 -1.55874 -2.683901 -2.12132 -2.12132 
C -2.683901 -1.55874 -3 -0.795609 -3 0 
C -3 0.795609 -2.683901 1.55874 -2.12132 2.12132 
C -1.55874 2.683901 -0.795609 3 0 3 
z
" style="stroke: #000000"/>
    </defs>
    <g clip-path="url(#pc186416fef)">
     <use xlink:href="#mb736f8e90c" x="78.547062" y="162.782069" style="stroke: #000000"/>
    </g>
   </g>
   <g id="PathCollection_2">
    <defs>
     <path id="m0d3f75d0d7" d="M 0 3 
C 0.795609 3 1.55874 2.683901 2.12132 2.12132 
C 2.683901 1.55874 3 0.795609 3 0 
C 3 -0.795609 2.683901 -1.55874 2.12132 -2.12132 
C 1.55874 -2.683901 0.795609 -3 0 -3 
C -0.795609 -3 -1.55874 -2.683901 -2.12132 -2.12132 
C -2.683901 -1.55874 -3 -0.795609 -3 0 
C -3 0.795609 -2.683901 1.55874 -2.12132 2.12132 
C -1.55874 2.683901 -0.795609 3 0 3 
z
" style="stroke: #1b9e77"/>
    </defs>
    <g clip-path="url(#pc186416fef)">
     <use xlink:href="#m0d3f75d0d7" x="85.769959" y="150.345745" style="fill: #1b9e77; stroke: #1b9e77"/>
    </g>
   </g>
   <g id="PathCollection_3">
    <defs>
     <path id="m957c49d79b" d="M 0 3 
C 0.795609 3 1.55874 2.683901 2.12132 2.12132 
C 2.683901 1.55874 3 0.795609 3 0 
C 3 -0.795609 2.683901 -1.55874 2.12132 -2.12132 
C 1.55874 -2.683901 0.795609 -3 0 -3 
C -0.795609 -3 -1.55874 -2.683901 -2.12132 -2.12132 
C -2.683901 -1.55874 -3 -0.795609 -3 0 
C -3 0.795609 -2.683901 1.55874 -2.12132 2.12132 
C -1.55874 2.683901 -0.795609 3 0 3 
z
" style="stroke: #d95f02"/>
    </defs>
    <g clip-path="url(#pc186416fef)">
     <use xlink:href="#m957c49d79b" x="93.638479" y="137.144894" style="fill: #d95f02; stroke: #d95f02"/>
    </g>
   </g>
   <g id="PathCollection_4">
    <defs>
     <path id="mce9086eefb" d="M 0 3 
C 0.795609 3 1.55874 2.683901 2.12132 2.12132 
C 2.683901 1.55874 3 0.795609 3 0 
C 3 -0.795609 2.683901 -1.55874 2.12132 -2.12132 
C 1.55874 -2.683901 0.795609 -3 0 -3 
C -0.795609 -3 -1.55874 -2.683901 -2.12132 -2.12132 
C -2.683901 -1.55874 -3 -0.795609 -3 0 
C -3 0.795609 -2.683901 1.55874 -2.12132 2.12132 
C -1.55874 2.683901 -0.795609 3 0 3 
z
" style="stroke: #7570b3"/>
    </defs>
    <g clip-path="url(#pc186416fef)">
     <use xlink:href="#mce9086eefb" x="109.678153" y="111.176423" style="fill: #7570b3; stroke: #7570b3"/>
    </g>
   </g>
   <g id="PathCollection_5">
    <defs>
     <path id="m8c1ecd40c6" d="M 0 3 
C 0.795609 3 1.55874 2.683901 2.12132 2.12132 
C 2.683901 1.55874 3 0.795609 3 0 
C 3 -0.795609 2.683901 -1.55874 2.12132 -2.12132 
C 1.55874 -2.683901 0.795609 -3 0 -3 
C -0.795609 -3 -1.55874 -2.683901 -2.12132 -2.12132 
C -2.683901 -1.55874 -3 -0.795609 -3 0 
C -3 0.795609 -2.683901 1.55874 -2.12132 2.12132 
C -1.55874 2.683901 -0.795609 3 0 3 
z
" style="stroke: #e7298a"/>
    </defs>
    <g clip-path="url(#pc186416fef)">
     <use xlink:href="#m8c1ecd40c6" x="119.705472" y="95.911345" style="fill: #e7298a; stroke: #e7298a"/>
    </g>
   </g>
   <g id="PathCollection_6">
    <defs>
     <path id="mdb3a195f31" d="M 0 3 
C 0.795609 3 1.55874 2.683901 2.12132 2.12132 
C 2.683901 1.55874 3 0.795609 3 0 
C 3 -0.795609 2.683901 -1.55874 2.12132 -2.12132 
C 1.55874 -2.683901 0.795609 -3 0 -3 
C -0.795609 -3 -1.55874 -2.683901 -2.12132 -2.12132 
C -2.683901 -1.55874 -3 -0.795609 -3 0 
C -3 0.795609 -2.683901 1.55874 -2.12132 2.12132 
C -1.55874 2.683901 -0.795609 3 0 3 
z
" style="stroke: #66a61e"/>
    </defs>
    <g clip-path="url(#pc186416fef)">
     <use xlink:href="#mdb3a195f31" x="133.475381" y="75.396508" style="fill: #66a61e; stroke: #66a61e"/>
    </g>
   </g>
   <g id="PathCollection_7">
    <defs>
     <path id="mde84a52e11" d="M 0 3 
C 0.795609 3 1.55874 2.683901 2.12132 2.12132 
C 2.683901 1.55874 3 0.795609 3 0 
C 3 -0.795609 2.683901 -1.55874 2.12132 -2.12132 
C 1.55874 -2.683901 0.795609 -3 0 -3 
C -0.795609 -3 -1.55874 -2.683901 -2.12132 -2.12132 
C -2.683901 -1.55874 -3 -0.795609 -3 0 
C -3 0.795609 -2.683901 1.55874 -2.12132 2.12132 
C -1.55874 2.683901 -0.795609 3 0 3 
z
" style="stroke: #e6ab02"/>
    </defs>
    <g clip-path="url(#pc186416fef)">
     <use xlink:href="#mde84a52e11" x="141.81803" y="62.75631" style="fill: #e6ab02; stroke: #e6ab02"/>
    </g>
   </g>
   <g id="PathCollection_8">
    <defs>
     <path id="m6c73575aba" d="M 0 3 
C 0.795609 3 1.55874 2.683901 2.12132 2.12132 
C 2.683901 1.55874 3 0.795609 3 0 
C 3 -0.795609 2.683901 -1.55874 2.12132 -2.12132 
C 1.55874 -2.683901 0.795609 -3 0 -3 
C -0.795609 -3 -1.55874 -2.683901 -2.12132 -2.12132 
C -2.683901 -1.55874 -3 -0.795609 -3 0 
C -3 0.795609 -2.683901 1.55874 -2.12132 2.12132 
C -1.55874 2.683901 -0.795609 3 0 3 
z
" style="stroke: #a6761d"/>
    </defs>
    <g clip-path="url(#pc186416fef)">
     <use xlink:href="#m6c73575aba" x="172.807892" y="39.514656" style="fill: #a6761d; stroke: #a6761d"/>
    </g>
   </g>
   <g id="PathCollection_9">
    <defs>
     <path id="m5faae188ac" d="M 0 3 
C 0.795609 3 1.55874 2.683901 2.12132 2.12132 
C 2.683901 1.55874 3 0.795609 3 0 
C 3 -0.795609 2.683901 -1.55874 2.12132 -2.12132 
C 1.55874 -2.683901 0.795609 -3 0 -3 
C -0.795609 -3 -1.55874 -2.683901 -2.12132 -2.12132 
C -2.683901 -1.55874 -3 -0.795609 -3 0 
C -3 0.795609 -2.683901 1.55874 -2.12132 2.12132 
C -1.55874 2.683901 -0.795609 3 0 3 
z
" style="stroke: #666666"/>
    </defs>
    <g clip-path="url(#pc186416fef)">
     <use xlink:href="#m5faae188ac" x="195.818268" y="31.869375" style="fill: #666666; stroke: #666666"/>
    </g>
   </g>
   <g id="PathCollection_10">
    <defs>
     <path id="mb9ec3506b4" d="M 0 3 
C 0.795609 3 1.55874 2.683901 2.12132 2.12132 
C 2.683901 1.55874 3 0.795609 3 0 
C 3 -0.795609 2.683901 -1.55874 2.12132 -2.12132 
C 1.55874 -2.683901 0.795609 -3 0 -3 
C -0.795609 -3 -1.55874 -2.683901 -2.12132 -2.12132 
C -2.683901 -1.55874 -3 -0.795609 -3 0 
C -3 0.795609 -2.683901 1.55874 -2.12132 2.12132 
C -1.55874 2.683901 -0.795609 3 0 3 
z
" style="stroke: #e41a1c"/>
    </defs>
    <g clip-path="url(#pc186416fef)">
     <use xlink:href="#mb9ec3506b4" x="227.635333" y="22.057931" style="fill: #e41a1c; stroke: #e41a1c"/>
    </g>
   </g>
   <g id="matplotlib.axis_1">
    <g id="xtick_1">
     <g id="line2d_1">
      <path d="M 69.508352 174.04 
L 69.508352 10.8 
" clip-path="url(#pc186416fef)" style="fill: none; stroke: #b0b0b0; stroke-width: 0.8; stroke-linecap: square"/>
     </g>
     <g id="line2d_2">
      <defs>
       <path id="md0f6b0a2c7" d="M 0 0 
L 0 3.5 
" style="stroke: #000000; stroke-width: 0.8"/>
      </defs>
      <g>
       <use xlink:href="#md0f6b0a2c7" x="69.508352" y="174.04" style="stroke: #000000; stroke-width: 0.8"/>
      </g>
     </g>
     <g id="text_1">
      <!-- 14.530 -->
      <g transform="translate(52.013039 188.638438) scale(0.1 -0.1)">
       <defs>
        <path id="DejaVuSans-31" d="M 794 531 
L 1825 531 
L 1825 4091 
L 703 3866 
L 703 4441 
L 1819 4666 
L 2450 4666 
L 2450 531 
L 3481 531 
L 3481 0 
L 794 0 
L 794 531 
z
" transform="scale(0.015625)"/>
        <path id="DejaVuSans-34" d="M 2419 4116 
L 825 1625 
L 2419 1625 
L 2419 4116 
z
M 2253 4666 
L 3047 4666 
L 3047 1625 
L 3713 1625 
L 3713 1100 
L 3047 1100 
L 3047 0 
L 2419 0 
L 2419 1100 
L 313 1100 
L 313 1709 
L 2253 4666 
z
" transform="scale(0.015625)"/>
        <path id="DejaVuSans-2e" d="M 684 794 
L 1344 794 
L 1344 0 
L 684 0 
L 684 794 
z
" transform="scale(0.015625)"/>
        <path id="DejaVuSans-35" d="M 691 4666 
L 3169 4666 
L 3169 4134 
L 1269 4134 
L 1269 2991 
Q 1406 3038 1543 3061 
Q 1681 3084 1819 3084 
Q 2600 3084 3056 2656 
Q 3513 2228 3513 1497 
Q 3513 744 3044 326 
Q 2575 -91 1722 -91 
Q 1428 -91 1123 -41 
Q 819 9 494 109 
L 494 744 
Q 775 591 1075 516 
Q 1375 441 1709 441 
Q 2250 441 2565 725 
Q 2881 1009 2881 1497 
Q 2881 1984 2565 2268 
Q 2250 2553 1709 2553 
Q 1456 2553 1204 2497 
Q 953 2441 691 2322 
L 691 4666 
z
" transform="scale(0.015625)"/>
        <path id="DejaVuSans-33" d="M 2597 2516 
Q 3050 2419 3304 2112 
Q 3559 1806 3559 1356 
Q 3559 666 3084 287 
Q 2609 -91 1734 -91 
Q 1441 -91 1130 -33 
Q 819 25 488 141 
L 488 750 
Q 750 597 1062 519 
Q 1375 441 1716 441 
Q 2309 441 2620 675 
Q 2931 909 2931 1356 
Q 2931 1769 2642 2001 
Q 2353 2234 1838 2234 
L 1294 2234 
L 1294 2753 
L 1863 2753 
Q 2328 2753 2575 2939 
Q 2822 3125 2822 3475 
Q 2822 3834 2567 4026 
Q 2313 4219 1838 4219 
Q 1578 4219 1281 4162 
Q 984 4106 628 3988 
L 628 4550 
Q 988 4650 1302 4700 
Q 1616 4750 1894 4750 
Q 2613 4750 3031 4423 
Q 3450 4097 3450 3541 
Q 3450 3153 3228 2886 
Q 3006 2619 2597 2516 
z
" transform="scale(0.015625)"/>
        <path id="DejaVuSans-30" d="M 2034 4250 
Q 1547 4250 1301 3770 
Q 1056 3291 1056 2328 
Q 1056 1369 1301 889 
Q 1547 409 2034 409 
Q 2525 409 2770 889 
Q 3016 1369 3016 2328 
Q 3016 3291 2770 3770 
Q 2525 4250 2034 4250 
z
M 2034 4750 
Q 2819 4750 3233 4129 
Q 3647 3509 3647 2328 
Q 3647 1150 3233 529 
Q 2819 -91 2034 -91 
Q 1250 -91 836 529 
Q 422 1150 422 2328 
Q 422 3509 836 4129 
Q 1250 4750 2034 4750 
z
" transform="scale(0.015625)"/>
       </defs>
       <use xlink:href="#DejaVuSans-31"/>
       <use xlink:href="#DejaVuSans-34" x="63.623047"/>
       <use xlink:href="#DejaVuSans-2e" x="127.246094"/>
       <use xlink:href="#DejaVuSans-35" x="159.033203"/>
       <use xlink:href="#DejaVuSans-33" x="222.65625"/>
       <use xlink:href="#DejaVuSans-30" x="286.279297"/>
      </g>
     </g>
    </g>
    <g id="xtick_2">
     <g id="line2d_3">
      <path d="M 119.94758 174.04 
L 119.94758 10.8 
" clip-path="url(#pc186416fef)" style="fill: none; stroke: #b0b0b0; stroke-width: 0.8; stroke-linecap: square"/>
     </g>
     <g id="line2d_4">
      <g>
       <use xlink:href="#md0f6b0a2c7" x="119.94758" y="174.04" style="stroke: #000000; stroke-width: 0.8"/>
      </g>
     </g>
     <g id="text_2">
      <!-- 14.535 -->
      <g transform="translate(102.452268 188.638438) scale(0.1 -0.1)">
       <use xlink:href="#DejaVuSans-31"/>
       <use xlink:href="#DejaVuSans-34" x="63.623047"/>
       <use xlink:href="#DejaVuSans-2e" x="127.246094"/>
       <use xlink:href="#DejaVuSans-35" x="159.033203"/>
       <use xlink:href="#DejaVuSans-33" x="222.65625"/>
       <use xlink:href="#DejaVuSans-35" x="286.279297"/>
      </g>
     </g>
    </g>
    <g id="xtick_3">
     <g id="line2d_5">
      <path d="M 170.386809 174.04 
L 170.386809 10.8 
" clip-path="url(#pc186416fef)" style="fill: none; stroke: #b0b0b0; stroke-width: 0.8; stroke-linecap: square"/>
     </g>
     <g id="line2d_6">
      <g>
       <use xlink:href="#md0f6b0a2c7" x="170.386809" y="174.04" style="stroke: #000000; stroke-width: 0.8"/>
      </g>
     </g>
     <g id="text_3">
      <!-- 14.540 -->
      <g transform="translate(152.891496 188.638438) scale(0.1 -0.1)">
       <use xlink:href="#DejaVuSans-31"/>
       <use xlink:href="#DejaVuSans-34" x="63.623047"/>
       <use xlink:href="#DejaVuSans-2e" x="127.246094"/>
       <use xlink:href="#DejaVuSans-35" x="159.033203"/>
       <use xlink:href="#DejaVuSans-34" x="222.65625"/>
       <use xlink:href="#DejaVuSans-30" x="286.279297"/>
      </g>
     </g>
    </g>
    <g id="xtick_4">
     <g id="line2d_7">
      <path d="M 220.826037 174.04 
L 220.826037 10.8 
" clip-path="url(#pc186416fef)" style="fill: none; stroke: #b0b0b0; stroke-width: 0.8; stroke-linecap: square"/>
     </g>
     <g id="line2d_8">
      <g>
       <use xlink:href="#md0f6b0a2c7" x="220.826037" y="174.04" style="stroke: #000000; stroke-width: 0.8"/>
      </g>
     </g>
     <g id="text_4">
      <!-- 14.545 -->
      <g transform="translate(203.330724 188.638438) scale(0.1 -0.1)">
       <use xlink:href="#DejaVuSans-31"/>
       <use xlink:href="#DejaVuSans-34" x="63.623047"/>
       <use xlink:href="#DejaVuSans-2e" x="127.246094"/>
       <use xlink:href="#DejaVuSans-35" x="159.033203"/>
       <use xlink:href="#DejaVuSans-34" x="222.65625"/>
       <use xlink:href="#DejaVuSans-35" x="286.279297"/>
      </g>
     </g>
    </g>
    <g id="text_5">
     <!-- Longitude [°] -->
     <g transform="translate(120.231041 202.316563) scale(0.1 -0.1)">
      <defs>
       <path id="DejaVuSans-4c" d="M 628 4666 
L 1259 4666 
L 1259 531 
L 3531 531 
L 3531 0 
L 628 0 
L 628 4666 
z
" transform="scale(0.015625)"/>
       <path id="DejaVuSans-6f" d="M 1959 3097 
Q 1497 3097 1228 2736 
Q 959 2375 959 1747 
Q 959 1119 1226 758 
Q 1494 397 1959 397 
Q 2419 397 2687 759 
Q 2956 1122 2956 1747 
Q 2956 2369 2687 2733 
Q 2419 3097 1959 3097 
z
M 1959 3584 
Q 2709 3584 3137 3096 
Q 3566 2609 3566 1747 
Q 3566 888 3137 398 
Q 2709 -91 1959 -91 
Q 1206 -91 779 398 
Q 353 888 353 1747 
Q 353 2609 779 3096 
Q 1206 3584 1959 3584 
z
" transform="scale(0.015625)"/>
       <path id="DejaVuSans-6e" d="M 3513 2113 
L 3513 0 
L 2938 0 
L 2938 2094 
Q 2938 2591 2744 2837 
Q 2550 3084 2163 3084 
Q 1697 3084 1428 2787 
Q 1159 2491 1159 1978 
L 1159 0 
L 581 0 
L 581 3500 
L 1159 3500 
L 1159 2956 
Q 1366 3272 1645 3428 
Q 1925 3584 2291 3584 
Q 2894 3584 3203 3211 
Q 3513 2838 3513 2113 
z
" transform="scale(0.015625)"/>
       <path id="DejaVuSans-67" d="M 2906 1791 
Q 2906 2416 2648 2759 
Q 2391 3103 1925 3103 
Q 1463 3103 1205 2759 
Q 947 2416 947 1791 
Q 947 1169 1205 825 
Q 1463 481 1925 481 
Q 2391 481 2648 825 
Q 2906 1169 2906 1791 
z
M 3481 434 
Q 3481 -459 3084 -895 
Q 2688 -1331 1869 -1331 
Q 1566 -1331 1297 -1286 
Q 1028 -1241 775 -1147 
L 775 -588 
Q 1028 -725 1275 -790 
Q 1522 -856 1778 -856 
Q 2344 -856 2625 -561 
Q 2906 -266 2906 331 
L 2906 616 
Q 2728 306 2450 153 
Q 2172 0 1784 0 
Q 1141 0 747 490 
Q 353 981 353 1791 
Q 353 2603 747 3093 
Q 1141 3584 1784 3584 
Q 2172 3584 2450 3431 
Q 2728 3278 2906 2969 
L 2906 3500 
L 3481 3500 
L 3481 434 
z
" transform="scale(0.015625)"/>
       <path id="DejaVuSans-69" d="M 603 3500 
L 1178 3500 
L 1178 0 
L 603 0 
L 603 3500 
z
M 603 4863 
L 1178 4863 
L 1178 4134 
L 603 4134 
L 603 4863 
z
" transform="scale(0.015625)"/>
       <path id="DejaVuSans-74" d="M 1172 4494 
L 1172 3500 
L 2356 3500 
L 2356 3053 
L 1172 3053 
L 1172 1153 
Q 1172 725 1289 603 
Q 1406 481 1766 481 
L 2356 481 
L 2356 0 
L 1766 0 
Q 1100 0 847 248 
Q 594 497 594 1153 
L 594 3053 
L 172 3053 
L 172 3500 
L 594 3500 
L 594 4494 
L 1172 4494 
z
" transform="scale(0.015625)"/>
       <path id="DejaVuSans-75" d="M 544 1381 
L 544 3500 
L 1119 3500 
L 1119 1403 
Q 1119 906 1312 657 
Q 1506 409 1894 409 
Q 2359 409 2629 706 
Q 2900 1003 2900 1516 
L 2900 3500 
L 3475 3500 
L 3475 0 
L 2900 0 
L 2900 538 
Q 2691 219 2414 64 
Q 2138 -91 1772 -91 
Q 1169 -91 856 284 
Q 544 659 544 1381 
z
M 1991 3584 
L 1991 3584 
z
" transform="scale(0.015625)"/>
       <path id="DejaVuSans-64" d="M 2906 2969 
L 2906 4863 
L 3481 4863 
L 3481 0 
L 2906 0 
L 2906 525 
Q 2725 213 2448 61 
Q 2172 -91 1784 -91 
Q 1150 -91 751 415 
Q 353 922 353 1747 
Q 353 2572 751 3078 
Q 1150 3584 1784 3584 
Q 2172 3584 2448 3432 
Q 2725 3281 2906 2969 
z
M 947 1747 
Q 947 1113 1208 752 
Q 1469 391 1925 391 
Q 2381 391 2643 752 
Q 2906 1113 2906 1747 
Q 2906 2381 2643 2742 
Q 2381 3103 1925 3103 
Q 1469 3103 1208 2742 
Q 947 2381 947 1747 
z
" transform="scale(0.015625)"/>
       <path id="DejaVuSans-65" d="M 3597 1894 
L 3597 1613 
L 953 1613 
Q 991 1019 1311 708 
Q 1631 397 2203 397 
Q 2534 397 2845 478 
Q 3156 559 3463 722 
L 3463 178 
Q 3153 47 2828 -22 
Q 2503 -91 2169 -91 
Q 1331 -91 842 396 
Q 353 884 353 1716 
Q 353 2575 817 3079 
Q 1281 3584 2069 3584 
Q 2775 3584 3186 3129 
Q 3597 2675 3597 1894 
z
M 3022 2063 
Q 3016 2534 2758 2815 
Q 2500 3097 2075 3097 
Q 1594 3097 1305 2825 
Q 1016 2553 972 2059 
L 3022 2063 
z
" transform="scale(0.015625)"/>
       <path id="DejaVuSans-20" transform="scale(0.015625)"/>
       <path id="DejaVuSans-5b" d="M 550 4863 
L 1875 4863 
L 1875 4416 
L 1125 4416 
L 1125 -397 
L 1875 -397 
L 1875 -844 
L 550 -844 
L 550 4863 
z
" transform="scale(0.015625)"/>
       <path id="DejaVuSans-b0" d="M 1600 4347 
Q 1350 4347 1178 4173 
Q 1006 4000 1006 3750 
Q 1006 3503 1178 3333 
Q 1350 3163 1600 3163 
Q 1850 3163 2022 3333 
Q 2194 3503 2194 3750 
Q 2194 3997 2020 4172 
Q 1847 4347 1600 4347 
z
M 1600 4750 
Q 1800 4750 1984 4673 
Q 2169 4597 2303 4453 
Q 2447 4313 2519 4134 
Q 2591 3956 2591 3750 
Q 2591 3338 2302 3052 
Q 2013 2766 1594 2766 
Q 1172 2766 890 3047 
Q 609 3328 609 3750 
Q 609 4169 896 4459 
Q 1184 4750 1600 4750 
z
" transform="scale(0.015625)"/>
       <path id="DejaVuSans-5d" d="M 1947 4863 
L 1947 -844 
L 622 -844 
L 622 -397 
L 1369 -397 
L 1369 4416 
L 622 4416 
L 622 4863 
L 1947 4863 
z
" transform="scale(0.015625)"/>
      </defs>
      <use xlink:href="#DejaVuSans-4c"/>
      <use xlink:href="#DejaVuSans-6f" x="53.962891"/>
      <use xlink:href="#DejaVuSans-6e" x="115.144531"/>
      <use xlink:href="#DejaVuSans-67" x="178.523438"/>
      <use xlink:href="#DejaVuSans-69" x="242"/>
      <use xlink:href="#DejaVuSans-74" x="269.783203"/>
      <use xlink:href="#DejaVuSans-75" x="308.992188"/>
      <use xlink:href="#DejaVuSans-64" x="372.371094"/>
      <use xlink:href="#DejaVuSans-65" x="435.847656"/>
      <use xlink:href="#DejaVuSans-20" x="497.371094"/>
      <use xlink:href="#DejaVuSans-5b" x="529.158203"/>
      <use xlink:href="#DejaVuSans-b0" x="568.171875"/>
      <use xlink:href="#DejaVuSans-5d" x="618.171875"/>
     </g>
    </g>
   </g>
   <g id="matplotlib.axis_2">
    <g id="ytick_1">
     <g id="line2d_9">
      <path d="M 66.62 167.904407 
L 239.562394 167.904407 
" clip-path="url(#pc186416fef)" style="fill: none; stroke: #b0b0b0; stroke-width: 0.8; stroke-linecap: square"/>
     </g>
     <g id="line2d_10">
      <defs>
       <path id="m993190f41c" d="M 0 0 
L -3.5 0 
" style="stroke: #000000; stroke-width: 0.8"/>
      </defs>
      <g>
       <use xlink:href="#m993190f41c" x="66.62" y="167.904407" style="stroke: #000000; stroke-width: 0.8"/>
      </g>
     </g>
     <g id="text_6">
      <!-- 50.001 -->
      <g transform="translate(24.629375 171.703626) scale(0.1 -0.1)">
       <use xlink:href="#DejaVuSans-35"/>
       <use xlink:href="#DejaVuSans-30" x="63.623047"/>
       <use xlink:href="#DejaVuSans-2e" x="127.246094"/>
       <use xlink:href="#DejaVuSans-30" x="159.033203"/>
       <use xlink:href="#DejaVuSans-30" x="222.65625"/>
       <use xlink:href="#DejaVuSans-31" x="286.279297"/>
      </g>
     </g>
    </g>
    <g id="ytick_2">
     <g id="line2d_11">
      <path d="M 66.62 142.420137 
L 239.562394 142.420137 
" clip-path="url(#pc186416fef)" style="fill: none; stroke: #b0b0b0; stroke-width: 0.8; stroke-linecap: square"/>
     </g>
     <g id="line2d_12">
      <g>
       <use xlink:href="#m993190f41c" x="66.62" y="142.420137" style="stroke: #000000; stroke-width: 0.8"/>
      </g>
     </g>
     <g id="text_7">
      <!-- 50.002 -->
      <g transform="translate(24.629375 146.219356) scale(0.1 -0.1)">
       <defs>
        <path id="DejaVuSans-32" d="M 1228 531 
L 3431 531 
L 3431 0 
L 469 0 
L 469 531 
Q 828 903 1448 1529 
Q 2069 2156 2228 2338 
Q 2531 2678 2651 2914 
Q 2772 3150 2772 3378 
Q 2772 3750 2511 3984 
Q 2250 4219 1831 4219 
Q 1534 4219 1204 4116 
Q 875 4013 500 3803 
L 500 4441 
Q 881 4594 1212 4672 
Q 1544 4750 1819 4750 
Q 2544 4750 2975 4387 
Q 3406 4025 3406 3419 
Q 3406 3131 3298 2873 
Q 3191 2616 2906 2266 
Q 2828 2175 2409 1742 
Q 1991 1309 1228 531 
z
" transform="scale(0.015625)"/>
       </defs>
       <use xlink:href="#DejaVuSans-35"/>
       <use xlink:href="#DejaVuSans-30" x="63.623047"/>
       <use xlink:href="#DejaVuSans-2e" x="127.246094"/>
       <use xlink:href="#DejaVuSans-30" x="159.033203"/>
       <use xlink:href="#DejaVuSans-30" x="222.65625"/>
       <use xlink:href="#DejaVuSans-32" x="286.279297"/>
      </g>
     </g>
    </g>
    <g id="ytick_3">
     <g id="line2d_13">
      <path d="M 66.62 116.935868 
L 239.562394 116.935868 
" clip-path="url(#pc186416fef)" style="fill: none; stroke: #b0b0b0; stroke-width: 0.8; stroke-linecap: square"/>
     </g>
     <g id="line2d_14">
      <g>
       <use xlink:href="#m993190f41c" x="66.62" y="116.935868" style="stroke: #000000; stroke-width: 0.8"/>
      </g>
     </g>
     <g id="text_8">
      <!-- 50.003 -->
      <g transform="translate(24.629375 120.735086) scale(0.1 -0.1)">
       <use xlink:href="#DejaVuSans-35"/>
       <use xlink:href="#DejaVuSans-30" x="63.623047"/>
       <use xlink:href="#DejaVuSans-2e" x="127.246094"/>
       <use xlink:href="#DejaVuSans-30" x="159.033203"/>
       <use xlink:href="#DejaVuSans-30" x="222.65625"/>
       <use xlink:href="#DejaVuSans-33" x="286.279297"/>
      </g>
     </g>
    </g>
    <g id="ytick_4">
     <g id="line2d_15">
      <path d="M 66.62 91.451598 
L 239.562394 91.451598 
" clip-path="url(#pc186416fef)" style="fill: none; stroke: #b0b0b0; stroke-width: 0.8; stroke-linecap: square"/>
     </g>
     <g id="line2d_16">
      <g>
       <use xlink:href="#m993190f41c" x="66.62" y="91.451598" style="stroke: #000000; stroke-width: 0.8"/>
      </g>
     </g>
     <g id="text_9">
      <!-- 50.004 -->
      <g transform="translate(24.629375 95.250816) scale(0.1 -0.1)">
       <use xlink:href="#DejaVuSans-35"/>
       <use xlink:href="#DejaVuSans-30" x="63.623047"/>
       <use xlink:href="#DejaVuSans-2e" x="127.246094"/>
       <use xlink:href="#DejaVuSans-30" x="159.033203"/>
       <use xlink:href="#DejaVuSans-30" x="222.65625"/>
       <use xlink:href="#DejaVuSans-34" x="286.279297"/>
      </g>
     </g>
    </g>
    <g id="ytick_5">
     <g id="line2d_17">
      <path d="M 66.62 65.967328 
L 239.562394 65.967328 
" clip-path="url(#pc186416fef)" style="fill: none; stroke: #b0b0b0; stroke-width: 0.8; stroke-linecap: square"/>
     </g>
     <g id="line2d_18">
      <g>
       <use xlink:href="#m993190f41c" x="66.62" y="65.967328" style="stroke: #000000; stroke-width: 0.8"/>
      </g>
     </g>
     <g id="text_10">
      <!-- 50.005 -->
      <g transform="translate(24.629375 69.766547) scale(0.1 -0.1)">
       <use xlink:href="#DejaVuSans-35"/>
       <use xlink:href="#DejaVuSans-30" x="63.623047"/>
       <use xlink:href="#DejaVuSans-2e" x="127.246094"/>
       <use xlink:href="#DejaVuSans-30" x="159.033203"/>
       <use xlink:href="#DejaVuSans-30" x="222.65625"/>
       <use xlink:href="#DejaVuSans-35" x="286.279297"/>
      </g>
     </g>
    </g>
    <g id="ytick_6">
     <g id="line2d_19">
      <path d="M 66.62 40.483058 
L 239.562394 40.483058 
" clip-path="url(#pc186416fef)" style="fill: none; stroke: #b0b0b0; stroke-width: 0.8; stroke-linecap: square"/>
     </g>
     <g id="line2d_20">
      <g>
       <use xlink:href="#m993190f41c" x="66.62" y="40.483058" style="stroke: #000000; stroke-width: 0.8"/>
      </g>
     </g>
     <g id="text_11">
      <!-- 50.006 -->
      <g transform="translate(24.629375 44.282277) scale(0.1 -0.1)">
       <defs>
        <path id="DejaVuSans-36" d="M 2113 2584 
Q 1688 2584 1439 2293 
Q 1191 2003 1191 1497 
Q 1191 994 1439 701 
Q 1688 409 2113 409 
Q 2538 409 2786 701 
Q 3034 994 3034 1497 
Q 3034 2003 2786 2293 
Q 2538 2584 2113 2584 
z
M 3366 4563 
L 3366 3988 
Q 3128 4100 2886 4159 
Q 2644 4219 2406 4219 
Q 1781 4219 1451 3797 
Q 1122 3375 1075 2522 
Q 1259 2794 1537 2939 
Q 1816 3084 2150 3084 
Q 2853 3084 3261 2657 
Q 3669 2231 3669 1497 
Q 3669 778 3244 343 
Q 2819 -91 2113 -91 
Q 1303 -91 875 529 
Q 447 1150 447 2328 
Q 447 3434 972 4092 
Q 1497 4750 2381 4750 
Q 2619 4750 2861 4703 
Q 3103 4656 3366 4563 
z
" transform="scale(0.015625)"/>
       </defs>
       <use xlink:href="#DejaVuSans-35"/>
       <use xlink:href="#DejaVuSans-30" x="63.623047"/>
       <use xlink:href="#DejaVuSans-2e" x="127.246094"/>
       <use xlink:href="#DejaVuSans-30" x="159.033203"/>
       <use xlink:href="#DejaVuSans-30" x="222.65625"/>
       <use xlink:href="#DejaVuSans-36" x="286.279297"/>
      </g>
     </g>
    </g>
    <g id="ytick_7">
     <g id="line2d_21">
      <path d="M 66.62 14.998788 
L 239.562394 14.998788 
" clip-path="url(#pc186416fef)" style="fill: none; stroke: #b0b0b0; stroke-width: 0.8; stroke-linecap: square"/>
     </g>
     <g id="line2d_22">
      <g>
       <use xlink:href="#m993190f41c" x="66.62" y="14.998788" style="stroke: #000000; stroke-width: 0.8"/>
      </g>
     </g>
     <g id="text_12">
      <!-- 50.007 -->
      <g transform="translate(24.629375 18.798007) scale(0.1 -0.1)">
       <defs>
        <path id="DejaVuSans-37" d="M 525 4666 
L 3525 4666 
L 3525 4397 
L 1831 0 
L 1172 0 
L 2766 4134 
L 525 4134 
L 525 4666 
z
" transform="scale(0.015625)"/>
       </defs>
       <use xlink:href="#DejaVuSans-35"/>
       <use xlink:href="#DejaVuSans-30" x="63.623047"/>
       <use xlink:href="#DejaVuSans-2e" x="127.246094"/>
       <use xlink:href="#DejaVuSans-30" x="159.033203"/>
       <use xlink:href="#DejaVuSans-30" x="222.65625"/>
       <use xlink:href="#DejaVuSans-37" x="286.279297"/>
      </g>
     </g>
    </g>
    <g id="text_13">
     <!-- Latitude [°] -->
     <g transform="translate(18.549688 120.989531) rotate(-90) scale(0.1 -0.1)">
      <defs>
       <path id="DejaVuSans-61" d="M 2194 1759 
Q 1497 1759 1228 1600 
Q 959 1441 959 1056 
Q 959 750 1161 570 
Q 1363 391 1709 391 
Q 2188 391 2477 730 
Q 2766 1069 2766 1631 
L 2766 1759 
L 2194 1759 
z
M 3341 1997 
L 3341 0 
L 2766 0 
L 2766 531 
Q 2569 213 2275 61 
Q 1981 -91 1556 -91 
Q 1019 -91 701 211 
Q 384 513 384 1019 
Q 384 1609 779 1909 
Q 1175 2209 1959 2209 
L 2766 2209 
L 2766 2266 
Q 2766 2663 2505 2880 
Q 2244 3097 1772 3097 
Q 1472 3097 1187 3025 
Q 903 2953 641 2809 
L 641 3341 
Q 956 3463 1253 3523 
Q 1550 3584 1831 3584 
Q 2591 3584 2966 3190 
Q 3341 2797 3341 1997 
z
" transform="scale(0.015625)"/>
      </defs>
      <use xlink:href="#DejaVuSans-4c"/>
      <use xlink:href="#DejaVuSans-61" x="55.712891"/>
      <use xlink:href="#DejaVuSans-74" x="116.992188"/>
      <use xlink:href="#DejaVuSans-69" x="156.201172"/>
      <use xlink:href="#DejaVuSans-74" x="183.984375"/>
      <use xlink:href="#DejaVuSans-75" x="223.193359"/>
      <use xlink:href="#DejaVuSans-64" x="286.572266"/>
      <use xlink:href="#DejaVuSans-65" x="350.048828"/>
      <use xlink:href="#DejaVuSans-20" x="411.572266"/>
      <use xlink:href="#DejaVuSans-5b" x="443.359375"/>
      <use xlink:href="#DejaVuSans-b0" x="482.373047"/>
      <use xlink:href="#DejaVuSans-5d" x="532.373047"/>
     </g>
    </g>
   </g>
   <g id="patch_3">
    <path d="M 66.62 174.04 
L 66.62 10.8 
" style="fill: none; stroke: #000000; stroke-width: 0.8; stroke-linejoin: miter; stroke-linecap: square"/>
   </g>
   <g id="patch_4">
    <path d="M 239.562394 174.04 
L 239.562394 10.8 
" style="fill: none; stroke: #000000; stroke-width: 0.8; stroke-linejoin: miter; stroke-linecap: square"/>
   </g>
   <g id="patch_5">
    <path d="M 66.62 174.04 
L 239.562394 174.04 
" style="fill: none; stroke: #000000; stroke-width: 0.8; stroke-linejoin: miter; stroke-linecap: square"/>
   </g>
   <g id="patch_6">
    <path d="M 66.62 10.8 
L 239.562394 10.8 
" style="fill: none; stroke: #000000; stroke-width: 0.8; stroke-linejoin: miter; stroke-linecap: square"/>
   </g>
   <g id="text_14">
    <!-- 0 -->
    <g transform="translate(78.547062 162.782069) scale(0.1 -0.1)">
     <use xlink:href="#DejaVuSans-30"/>
    </g>
   </g>
   <g id="text_15">
    <!-- 1 -->
    <g transform="translate(85.769959 150.345745) scale(0.1 -0.1)">
     <use xlink:href="#DejaVuSans-31"/>
    </g>
   </g>
   <g id="text_16">
    <!-- 2 -->
    <g transform="translate(93.638479 137.144894) scale(0.1 -0.1)">
     <use xlink:href="#DejaVuSans-32"/>
    </g>
   </g>
   <g id="text_17">
    <!-- 3 -->
    <g transform="translate(109.678153 111.176423) scale(0.1 -0.1)">
     <use xlink:href="#DejaVuSans-33"/>
    </g>
   </g>
   <g id="text_18">
    <!-- 4 -->
    <g transform="translate(119.705472 95.911345) scale(0.1 -0.1)">
     <use xlink:href="#DejaVuSans-34"/>
    </g>
   </g>
   <g id="text_19">
    <!-- 5 -->
    <g transform="translate(133.475381 75.396508) scale(0.1 -0.1)">
     <use xlink:href="#DejaVuSans-35"/>
    </g>
   </g>
   <g id="text_20">
    <!-- 6 -->
    <g transform="translate(141.81803 62.75631) scale(0.1 -0.1)">
     <use xlink:href="#DejaVuSans-36"/>
    </g>
   </g>
   <g id="text_21">
    <!-- 7 -->
    <g transform="translate(172.807892 39.514656) scale(0.1 -0.1)">
     <use xlink:href="#DejaVuSans-37"/>
    </g>
   </g>
   <g id="text_22">
    <!-- 8 -->
    <g transform="translate(195.818268 31.869375) scale(0.1 -0.1)">
     <defs>
      <path id="DejaVuSans-38" d="M 2034 2216 
Q 1584 2216 1326 1975 
Q 1069 1734 1069 1313 
Q 1069 891 1326 650 
Q 1584 409 2034 409 
Q 2484 409 2743 651 
Q 3003 894 3003 1313 
Q 3003 1734 2745 1975 
Q 2488 2216 2034 2216 
z
M 1403 2484 
Q 997 2584 770 2862 
Q 544 3141 544 3541 
Q 544 4100 942 4425 
Q 1341 4750 2034 4750 
Q 2731 4750 3128 4425 
Q 3525 4100 3525 3541 
Q 3525 3141 3298 2862 
Q 3072 2584 2669 2484 
Q 3125 2378 3379 2068 
Q 3634 1759 3634 1313 
Q 3634 634 3220 271 
Q 2806 -91 2034 -91 
Q 1263 -91 848 271 
Q 434 634 434 1313 
Q 434 1759 690 2068 
Q 947 2378 1403 2484 
z
M 1172 3481 
Q 1172 3119 1398 2916 
Q 1625 2713 2034 2713 
Q 2441 2713 2670 2916 
Q 2900 3119 2900 3481 
Q 2900 3844 2670 4047 
Q 2441 4250 2034 4250 
Q 1625 4250 1398 4047 
Q 1172 3844 1172 3481 
z
" transform="scale(0.015625)"/>
     </defs>
     <use xlink:href="#DejaVuSans-38"/>
    </g>
   </g>
   <g id="text_23">
    <!-- 9 -->
    <g transform="translate(227.635333 22.057931) scale(0.1 -0.1)">
     <defs>
      <path id="DejaVuSans-39" d="M 703 97 
L 703 672 
Q 941 559 1184 500 
Q 1428 441 1663 441 
Q 2288 441 2617 861 
Q 2947 1281 2994 2138 
Q 2813 1869 2534 1725 
Q 2256 1581 1919 1581 
Q 1219 1581 811 2004 
Q 403 2428 403 3163 
Q 403 3881 828 4315 
Q 1253 4750 1959 4750 
Q 2769 4750 3195 4129 
Q 3622 3509 3622 2328 
Q 3622 1225 3098 567 
Q 2575 -91 1691 -91 
Q 1453 -91 1209 -44 
Q 966 3 703 97 
z
M 1959 2075 
Q 2384 2075 2632 2365 
Q 2881 2656 2881 3163 
Q 2881 3666 2632 3958 
Q 2384 4250 1959 4250 
Q 1534 4250 1286 3958 
Q 1038 3666 1038 3163 
Q 1038 2656 1286 2365 
Q 1534 2075 1959 2075 
z
" transform="scale(0.015625)"/>
     </defs>
     <use xlink:href="#DejaVuSans-39"/>
    </g>
   </g>
  </g>
  <g id="axes_2">
   <g id="patch_7">
    <path d="M 291.315211 174.04 
L 637.2 174.04 
L 637.2 10.8 
L 291.315211 10.8 
z
" style="fill: #ffffff"/>
   </g>
   <g id="PathCollection_11">
    <defs>
     <path id="m5921913f6c" d="M -6.123724 0 
L 6.123724 0 
M 0 6.123724 
L 0 -6.123724 
" style="stroke: #000000; stroke-width: 1.5"/>
    </defs>
    <g clip-path="url(#pcc193e28c6)">
     <use xlink:href="#m5921913f6c" x="315.169335" y="26.653898" style="stroke: #000000; stroke-width: 1.5"/>
    </g>
   </g>
   <g id="PathCollection_12">
    <g clip-path="url(#pcc193e28c6)">
     <use xlink:href="#m5921913f6c" x="315.169335" y="24.027631" style="stroke: #000000; stroke-width: 1.5"/>
    </g>
   </g>
   <g id="PathCollection_13">
    <g clip-path="url(#pcc193e28c6)">
     <use xlink:href="#m5921913f6c" x="315.169335" y="22.057931" style="stroke: #000000; stroke-width: 1.5"/>
    </g>
   </g>
   <g id="PathCollection_14">
    <g clip-path="url(#pcc193e28c6)">
     <use xlink:href="#m5921913f6c" x="333.350694" y="28.915406" style="stroke: #000000; stroke-width: 1.5"/>
    </g>
   </g>
   <g id="PathCollection_15">
    <defs>
     <path id="mc052d51984" d="M 0 3.535534 
C 0.937635 3.535534 1.836992 3.163008 2.5 2.5 
C 3.163008 1.836992 3.535534 0.937635 3.535534 0 
C 3.535534 -0.937635 3.163008 -1.836992 2.5 -2.5 
C 1.836992 -3.163008 0.937635 -3.535534 0 -3.535534 
C -0.937635 -3.535534 -1.836992 -3.163008 -2.5 -2.5 
C -3.163008 -1.836992 -3.535534 -0.937635 -3.535534 0 
C -3.535534 0.937635 -3.163008 1.836992 -2.5 2.5 
C -1.836992 3.163008 -0.937635 3.535534 0 3.535534 
z
" style="stroke: #000000"/>
    </defs>
    <g clip-path="url(#pcc193e28c6)">
     <use xlink:href="#mc052d51984" x="333.350694" y="40.952463" style="stroke: #000000"/>
    </g>
   </g>
   <g id="PathCollection_16">
    <g clip-path="url(#pcc193e28c6)">
     <use xlink:href="#m5921913f6c" x="352.918172" y="42.557404" style="stroke: #000000; stroke-width: 1.5"/>
    </g>
   </g>
   <g id="PathCollection_17">
    <g clip-path="url(#pcc193e28c6)">
     <use xlink:href="#mc052d51984" x="352.918172" y="54.594461" style="stroke: #000000"/>
    </g>
   </g>
   <g id="PathCollection_18">
    <g clip-path="url(#pcc193e28c6)">
     <use xlink:href="#m5921913f6c" x="392.051597" y="54.302653" style="stroke: #000000; stroke-width: 1.5"/>
    </g>
   </g>
   <g id="PathCollection_19">
    <g clip-path="url(#pcc193e28c6)">
     <use xlink:href="#mc052d51984" x="392.051597" y="66.33971" style="stroke: #000000"/>
    </g>
   </g>
   <g id="PathCollection_20">
    <g clip-path="url(#pcc193e28c6)">
     <use xlink:href="#m5921913f6c" x="415.774918" y="55.76169" style="stroke: #000000; stroke-width: 1.5"/>
    </g>
   </g>
   <g id="PathCollection_21">
    <g clip-path="url(#pcc193e28c6)">
     <use xlink:href="#mc052d51984" x="415.774918" y="67.798747" style="stroke: #000000"/>
    </g>
   </g>
   <g id="PathCollection_22">
    <g clip-path="url(#pcc193e28c6)">
     <use xlink:href="#m5921913f6c" x="448.042224" y="51.238675" style="stroke: #000000; stroke-width: 1.5"/>
    </g>
   </g>
   <g id="PathCollection_23">
    <g clip-path="url(#pcc193e28c6)">
     <use xlink:href="#mc052d51984" x="448.042224" y="63.275732" style="stroke: #000000"/>
    </g>
   </g>
   <g id="PathCollection_24">
    <g clip-path="url(#pcc193e28c6)">
     <use xlink:href="#m5921913f6c" x="467.76721" y="60.941272" style="stroke: #000000; stroke-width: 1.5"/>
    </g>
   </g>
   <g id="PathCollection_25">
    <g clip-path="url(#pcc193e28c6)">
     <use xlink:href="#mc052d51984" x="467.76721" y="72.978329" style="stroke: #000000"/>
    </g>
   </g>
   <g id="PathCollection_26">
    <g clip-path="url(#pcc193e28c6)">
     <use xlink:href="#m5921913f6c" x="524.367801" y="95.009791" style="stroke: #000000; stroke-width: 1.5"/>
    </g>
   </g>
   <g id="PathCollection_27">
    <g clip-path="url(#pcc193e28c6)">
     <use xlink:href="#mc052d51984" x="524.367801" y="107.046848" style="stroke: #000000"/>
    </g>
   </g>
   <g id="PathCollection_28">
    <g clip-path="url(#pcc193e28c6)">
     <use xlink:href="#m5921913f6c" x="561.189589" y="109.308356" style="stroke: #000000; stroke-width: 1.5"/>
    </g>
   </g>
   <g id="PathCollection_29">
    <g clip-path="url(#pcc193e28c6)">
     <use xlink:href="#mc052d51984" x="561.189589" y="121.345412" style="stroke: #000000"/>
    </g>
   </g>
   <g id="PathCollection_30">
    <g clip-path="url(#pcc193e28c6)">
     <use xlink:href="#m5921913f6c" x="613.345877" y="150.745012" style="stroke: #000000; stroke-width: 1.5"/>
    </g>
   </g>
   <g id="PathCollection_31">
    <g clip-path="url(#pcc193e28c6)">
     <use xlink:href="#mc052d51984" x="613.345877" y="162.782069" style="stroke: #000000"/>
    </g>
   </g>
   <g id="matplotlib.axis_3">
    <g id="xtick_5">
     <g id="line2d_23">
      <path d="M 315.169335 174.04 
L 315.169335 10.8 
" clip-path="url(#pcc193e28c6)" style="fill: none; stroke: #b0b0b0; stroke-width: 0.8; stroke-linecap: square"/>
     </g>
     <g id="line2d_24">
      <g>
       <use xlink:href="#md0f6b0a2c7" x="315.169335" y="174.04" style="stroke: #000000; stroke-width: 0.8"/>
      </g>
     </g>
     <g id="text_24">
      <!-- 0 -->
      <g transform="translate(311.988085 188.638438) scale(0.1 -0.1)">
       <use xlink:href="#DejaVuSans-30"/>
      </g>
     </g>
    </g>
    <g id="xtick_6">
     <g id="line2d_25">
      <path d="M 363.863566 174.04 
L 363.863566 10.8 
" clip-path="url(#pcc193e28c6)" style="fill: none; stroke: #b0b0b0; stroke-width: 0.8; stroke-linecap: square"/>
     </g>
     <g id="line2d_26">
      <g>
       <use xlink:href="#md0f6b0a2c7" x="363.863566" y="174.04" style="stroke: #000000; stroke-width: 0.8"/>
      </g>
     </g>
     <g id="text_25">
      <!-- 200 -->
      <g transform="translate(354.319816 188.638438) scale(0.1 -0.1)">
       <use xlink:href="#DejaVuSans-32"/>
       <use xlink:href="#DejaVuSans-30" x="63.623047"/>
       <use xlink:href="#DejaVuSans-30" x="127.246094"/>
      </g>
     </g>
    </g>
    <g id="xtick_7">
     <g id="line2d_27">
      <path d="M 412.557798 174.04 
L 412.557798 10.8 
" clip-path="url(#pcc193e28c6)" style="fill: none; stroke: #b0b0b0; stroke-width: 0.8; stroke-linecap: square"/>
     </g>
     <g id="line2d_28">
      <g>
       <use xlink:href="#md0f6b0a2c7" x="412.557798" y="174.04" style="stroke: #000000; stroke-width: 0.8"/>
      </g>
     </g>
     <g id="text_26">
      <!-- 400 -->
      <g transform="translate(403.014048 188.638438) scale(0.1 -0.1)">
       <use xlink:href="#DejaVuSans-34"/>
       <use xlink:href="#DejaVuSans-30" x="63.623047"/>
       <use xlink:href="#DejaVuSans-30" x="127.246094"/>
      </g>
     </g>
    </g>
    <g id="xtick_8">
     <g id="line2d_29">
      <path d="M 461.25203 174.04 
L 461.25203 10.8 
" clip-path="url(#pcc193e28c6)" style="fill: none; stroke: #b0b0b0; stroke-width: 0.8; stroke-linecap: square"/>
     </g>
     <g id="line2d_30">
      <g>
       <use xlink:href="#md0f6b0a2c7" x="461.25203" y="174.04" style="stroke: #000000; stroke-width: 0.8"/>
      </g>
     </g>
     <g id="text_27">
      <!-- 600 -->
      <g transform="translate(451.70828 188.638438) scale(0.1 -0.1)">
       <use xlink:href="#DejaVuSans-36"/>
       <use xlink:href="#DejaVuSans-30" x="63.623047"/>
       <use xlink:href="#DejaVuSans-30" x="127.246094"/>
      </g>
     </g>
    </g>
    <g id="xtick_9">
     <g id="line2d_31">
      <path d="M 509.946262 174.04 
L 509.946262 10.8 
" clip-path="url(#pcc193e28c6)" style="fill: none; stroke: #b0b0b0; stroke-width: 0.8; stroke-linecap: square"/>
     </g>
     <g id="line2d_32">
      <g>
       <use xlink:href="#md0f6b0a2c7" x="509.946262" y="174.04" style="stroke: #000000; stroke-width: 0.8"/>
      </g>
     </g>
     <g id="text_28">
      <!-- 800 -->
      <g transform="translate(500.402512 188.638438) scale(0.1 -0.1)">
       <use xlink:href="#DejaVuSans-38"/>
       <use xlink:href="#DejaVuSans-30" x="63.623047"/>
       <use xlink:href="#DejaVuSans-30" x="127.246094"/>
      </g>
     </g>
    </g>
    <g id="xtick_10">
     <g id="line2d_33">
      <path d="M 558.640494 174.04 
L 558.640494 10.8 
" clip-path="url(#pcc193e28c6)" style="fill: none; stroke: #b0b0b0; stroke-width: 0.8; stroke-linecap: square"/>
     </g>
     <g id="line2d_34">
      <g>
       <use xlink:href="#md0f6b0a2c7" x="558.640494" y="174.04" style="stroke: #000000; stroke-width: 0.8"/>
      </g>
     </g>
     <g id="text_29">
      <!-- 1000 -->
      <g transform="translate(545.915494 188.638438) scale(0.1 -0.1)">
       <use xlink:href="#DejaVuSans-31"/>
       <use xlink:href="#DejaVuSans-30" x="63.623047"/>
       <use xlink:href="#DejaVuSans-30" x="127.246094"/>
       <use xlink:href="#DejaVuSans-30" x="190.869141"/>
      </g>
     </g>
    </g>
    <g id="xtick_11">
     <g id="line2d_35">
      <path d="M 607.334726 174.04 
L 607.334726 10.8 
" clip-path="url(#pcc193e28c6)" style="fill: none; stroke: #b0b0b0; stroke-width: 0.8; stroke-linecap: square"/>
     </g>
     <g id="line2d_36">
      <g>
       <use xlink:href="#md0f6b0a2c7" x="607.334726" y="174.04" style="stroke: #000000; stroke-width: 0.8"/>
      </g>
     </g>
     <g id="text_30">
      <!-- 1200 -->
      <g transform="translate(594.609726 188.638438) scale(0.1 -0.1)">
       <use xlink:href="#DejaVuSans-31"/>
       <use xlink:href="#DejaVuSans-32" x="63.623047"/>
       <use xlink:href="#DejaVuSans-30" x="127.246094"/>
       <use xlink:href="#DejaVuSans-30" x="190.869141"/>
      </g>
     </g>
    </g>
    <g id="text_31">
     <!-- Transmitting distance [m] -->
     <g transform="translate(399.999793 202.316563) scale(0.1 -0.1)">
      <defs>
       <path id="DejaVuSans-54" d="M -19 4666 
L 3928 4666 
L 3928 4134 
L 2272 4134 
L 2272 0 
L 1638 0 
L 1638 4134 
L -19 4134 
L -19 4666 
z
" transform="scale(0.015625)"/>
       <path id="DejaVuSans-72" d="M 2631 2963 
Q 2534 3019 2420 3045 
Q 2306 3072 2169 3072 
Q 1681 3072 1420 2755 
Q 1159 2438 1159 1844 
L 1159 0 
L 581 0 
L 581 3500 
L 1159 3500 
L 1159 2956 
Q 1341 3275 1631 3429 
Q 1922 3584 2338 3584 
Q 2397 3584 2469 3576 
Q 2541 3569 2628 3553 
L 2631 2963 
z
" transform="scale(0.015625)"/>
       <path id="DejaVuSans-73" d="M 2834 3397 
L 2834 2853 
Q 2591 2978 2328 3040 
Q 2066 3103 1784 3103 
Q 1356 3103 1142 2972 
Q 928 2841 928 2578 
Q 928 2378 1081 2264 
Q 1234 2150 1697 2047 
L 1894 2003 
Q 2506 1872 2764 1633 
Q 3022 1394 3022 966 
Q 3022 478 2636 193 
Q 2250 -91 1575 -91 
Q 1294 -91 989 -36 
Q 684 19 347 128 
L 347 722 
Q 666 556 975 473 
Q 1284 391 1588 391 
Q 1994 391 2212 530 
Q 2431 669 2431 922 
Q 2431 1156 2273 1281 
Q 2116 1406 1581 1522 
L 1381 1569 
Q 847 1681 609 1914 
Q 372 2147 372 2553 
Q 372 3047 722 3315 
Q 1072 3584 1716 3584 
Q 2034 3584 2315 3537 
Q 2597 3491 2834 3397 
z
" transform="scale(0.015625)"/>
       <path id="DejaVuSans-6d" d="M 3328 2828 
Q 3544 3216 3844 3400 
Q 4144 3584 4550 3584 
Q 5097 3584 5394 3201 
Q 5691 2819 5691 2113 
L 5691 0 
L 5113 0 
L 5113 2094 
Q 5113 2597 4934 2840 
Q 4756 3084 4391 3084 
Q 3944 3084 3684 2787 
Q 3425 2491 3425 1978 
L 3425 0 
L 2847 0 
L 2847 2094 
Q 2847 2600 2669 2842 
Q 2491 3084 2119 3084 
Q 1678 3084 1418 2786 
Q 1159 2488 1159 1978 
L 1159 0 
L 581 0 
L 581 3500 
L 1159 3500 
L 1159 2956 
Q 1356 3278 1631 3431 
Q 1906 3584 2284 3584 
Q 2666 3584 2933 3390 
Q 3200 3197 3328 2828 
z
" transform="scale(0.015625)"/>
       <path id="DejaVuSans-63" d="M 3122 3366 
L 3122 2828 
Q 2878 2963 2633 3030 
Q 2388 3097 2138 3097 
Q 1578 3097 1268 2742 
Q 959 2388 959 1747 
Q 959 1106 1268 751 
Q 1578 397 2138 397 
Q 2388 397 2633 464 
Q 2878 531 3122 666 
L 3122 134 
Q 2881 22 2623 -34 
Q 2366 -91 2075 -91 
Q 1284 -91 818 406 
Q 353 903 353 1747 
Q 353 2603 823 3093 
Q 1294 3584 2113 3584 
Q 2378 3584 2631 3529 
Q 2884 3475 3122 3366 
z
" transform="scale(0.015625)"/>
      </defs>
      <use xlink:href="#DejaVuSans-54"/>
      <use xlink:href="#DejaVuSans-72" x="46.333984"/>
      <use xlink:href="#DejaVuSans-61" x="87.447266"/>
      <use xlink:href="#DejaVuSans-6e" x="148.726562"/>
      <use xlink:href="#DejaVuSans-73" x="212.105469"/>
      <use xlink:href="#DejaVuSans-6d" x="264.205078"/>
      <use xlink:href="#DejaVuSans-69" x="361.617188"/>
      <use xlink:href="#DejaVuSans-74" x="389.400391"/>
      <use xlink:href="#DejaVuSans-74" x="428.609375"/>
      <use xlink:href="#DejaVuSans-69" x="467.818359"/>
      <use xlink:href="#DejaVuSans-6e" x="495.601562"/>
      <use xlink:href="#DejaVuSans-67" x="558.980469"/>
      <use xlink:href="#DejaVuSans-20" x="622.457031"/>
      <use xlink:href="#DejaVuSans-64" x="654.244141"/>
      <use xlink:href="#DejaVuSans-69" x="717.720703"/>
      <use xlink:href="#DejaVuSans-73" x="745.503906"/>
      <use xlink:href="#DejaVuSans-74" x="797.603516"/>
      <use xlink:href="#DejaVuSans-61" x="836.8125"/>
      <use xlink:href="#DejaVuSans-6e" x="898.091797"/>
      <use xlink:href="#DejaVuSans-63" x="961.470703"/>
      <use xlink:href="#DejaVuSans-65" x="1016.451172"/>
      <use xlink:href="#DejaVuSans-20" x="1077.974609"/>
      <use xlink:href="#DejaVuSans-5b" x="1109.761719"/>
      <use xlink:href="#DejaVuSans-6d" x="1148.775391"/>
      <use xlink:href="#DejaVuSans-5d" x="1246.1875"/>
     </g>
    </g>
   </g>
   <g id="matplotlib.axis_4">
    <g id="ytick_8">
     <g id="line2d_37">
      <path d="M 291.315211 147.608082 
L 637.2 147.608082 
" clip-path="url(#pcc193e28c6)" style="fill: none; stroke: #b0b0b0; stroke-width: 0.8; stroke-linecap: square"/>
     </g>
     <g id="line2d_38">
      <g>
       <use xlink:href="#m993190f41c" x="291.315211" y="147.608082" style="stroke: #000000; stroke-width: 0.8"/>
      </g>
     </g>
     <g id="text_32">
      <!-- 290 -->
      <g transform="translate(265.227711 151.407301) scale(0.1 -0.1)">
       <use xlink:href="#DejaVuSans-32"/>
       <use xlink:href="#DejaVuSans-39" x="63.623047"/>
       <use xlink:href="#DejaVuSans-30" x="127.246094"/>
      </g>
     </g>
    </g>
    <g id="ytick_9">
     <g id="line2d_39">
      <path d="M 291.315211 111.132152 
L 637.2 111.132152 
" clip-path="url(#pcc193e28c6)" style="fill: none; stroke: #b0b0b0; stroke-width: 0.8; stroke-linecap: square"/>
     </g>
     <g id="line2d_40">
      <g>
       <use xlink:href="#m993190f41c" x="291.315211" y="111.132152" style="stroke: #000000; stroke-width: 0.8"/>
      </g>
     </g>
     <g id="text_33">
      <!-- 295 -->
      <g transform="translate(265.227711 114.931371) scale(0.1 -0.1)">
       <use xlink:href="#DejaVuSans-32"/>
       <use xlink:href="#DejaVuSans-39" x="63.623047"/>
       <use xlink:href="#DejaVuSans-35" x="127.246094"/>
      </g>
     </g>
    </g>
    <g id="ytick_10">
     <g id="line2d_41">
      <path d="M 291.315211 74.656222 
L 637.2 74.656222 
" clip-path="url(#pcc193e28c6)" style="fill: none; stroke: #b0b0b0; stroke-width: 0.8; stroke-linecap: square"/>
     </g>
     <g id="line2d_42">
      <g>
       <use xlink:href="#m993190f41c" x="291.315211" y="74.656222" style="stroke: #000000; stroke-width: 0.8"/>
      </g>
     </g>
     <g id="text_34">
      <!-- 300 -->
      <g transform="translate(265.227711 78.455441) scale(0.1 -0.1)">
       <use xlink:href="#DejaVuSans-33"/>
       <use xlink:href="#DejaVuSans-30" x="63.623047"/>
       <use xlink:href="#DejaVuSans-30" x="127.246094"/>
      </g>
     </g>
    </g>
    <g id="ytick_11">
     <g id="line2d_43">
      <path d="M 291.315211 38.180292 
L 637.2 38.180292 
" clip-path="url(#pcc193e28c6)" style="fill: none; stroke: #b0b0b0; stroke-width: 0.8; stroke-linecap: square"/>
     </g>
     <g id="line2d_44">
      <g>
       <use xlink:href="#m993190f41c" x="291.315211" y="38.180292" style="stroke: #000000; stroke-width: 0.8"/>
      </g>
     </g>
     <g id="text_35">
      <!-- 305 -->
      <g transform="translate(265.227711 41.979511) scale(0.1 -0.1)">
       <use xlink:href="#DejaVuSans-33"/>
       <use xlink:href="#DejaVuSans-30" x="63.623047"/>
       <use xlink:href="#DejaVuSans-35" x="127.246094"/>
      </g>
     </g>
    </g>
    <g id="text_36">
     <!-- Elevation [m] -->
     <g transform="translate(259.148024 126.006719) rotate(-90) scale(0.1 -0.1)">
      <defs>
       <path id="DejaVuSans-45" d="M 628 4666 
L 3578 4666 
L 3578 4134 
L 1259 4134 
L 1259 2753 
L 3481 2753 
L 3481 2222 
L 1259 2222 
L 1259 531 
L 3634 531 
L 3634 0 
L 628 0 
L 628 4666 
z
" transform="scale(0.015625)"/>
       <path id="DejaVuSans-6c" d="M 603 4863 
L 1178 4863 
L 1178 0 
L 603 0 
L 603 4863 
z
" transform="scale(0.015625)"/>
       <path id="DejaVuSans-76" d="M 191 3500 
L 800 3500 
L 1894 563 
L 2988 3500 
L 3597 3500 
L 2284 0 
L 1503 0 
L 191 3500 
z
" transform="scale(0.015625)"/>
      </defs>
      <use xlink:href="#DejaVuSans-45"/>
      <use xlink:href="#DejaVuSans-6c" x="63.183594"/>
      <use xlink:href="#DejaVuSans-65" x="90.966797"/>
      <use xlink:href="#DejaVuSans-76" x="152.490234"/>
      <use xlink:href="#DejaVuSans-61" x="211.669922"/>
      <use xlink:href="#DejaVuSans-74" x="272.949219"/>
      <use xlink:href="#DejaVuSans-69" x="312.158203"/>
      <use xlink:href="#DejaVuSans-6f" x="339.941406"/>
      <use xlink:href="#DejaVuSans-6e" x="401.123047"/>
      <use xlink:href="#DejaVuSans-20" x="464.501953"/>
      <use xlink:href="#DejaVuSans-5b" x="496.289062"/>
      <use xlink:href="#DejaVuSans-6d" x="535.302734"/>
      <use xlink:href="#DejaVuSans-5d" x="632.714844"/>
     </g>
    </g>
   </g>
   <g id="line2d_45">
    <path d="M 315.169335 28.039984 
L 316.567901 29.207213 
L 317.966467 30.374443 
L 319.365033 31.322817 
L 320.763599 32.490047 
L 322.162165 33.730229 
L 323.560731 35.043362 
L 324.959297 36.283544 
L 326.357863 37.377822 
L 327.75643 38.326196 
L 329.154996 39.201618 
L 330.553562 39.858185 
L 331.952128 40.514752 
L 333.350694 40.952463 
" clip-path="url(#pcc193e28c6)" style="fill: none; stroke: #1b9e77; stroke-width: 1.5; stroke-linecap: square"/>
   </g>
   <g id="line2d_46">
    <path d="M 333.350694 174.04 
L 333.350694 10.8 
" clip-path="url(#pcc193e28c6)" style="fill: none; stroke-dasharray: 5.55,2.4; stroke-dashoffset: 0; stroke: #808080; stroke-opacity: 0.5; stroke-width: 1.5"/>
   </g>
   <g id="line2d_47">
    <path d="M 315.169335 28.039984 
L 316.427629 29.06131 
L 317.685924 30.155587 
L 318.944218 31.03101 
L 320.202513 32.052336 
L 321.460808 33.073662 
L 322.719102 34.313844 
L 323.977397 35.481073 
L 325.235691 36.502399 
L 326.493986 37.523725 
L 327.75228 38.326196 
L 329.010575 39.128666 
L 330.26887 39.712281 
L 331.527164 40.368848 
L 332.785459 40.733607 
L 334.043753 41.098366 
L 335.302048 41.536078 
L 336.560343 42.119693 
L 337.818637 42.922163 
L 339.076932 43.651682 
L 340.335226 44.454152 
L 341.593521 45.256623 
L 342.851816 45.986141 
L 344.11011 46.861563 
L 345.368405 47.955841 
L 346.626699 49.341927 
L 347.884994 50.65506 
L 349.143289 51.895242 
L 350.401583 52.916568 
L 351.659878 53.719038 
L 352.918172 54.594461 
" clip-path="url(#pcc193e28c6)" style="fill: none; stroke: #d95f02; stroke-width: 1.5; stroke-linecap: square"/>
   </g>
   <g id="line2d_48">
    <path d="M 352.918172 174.04 
L 352.918172 10.8 
" clip-path="url(#pcc193e28c6)" style="fill: none; stroke-dasharray: 5.55,2.4; stroke-dashoffset: 0; stroke: #808080; stroke-opacity: 0.5; stroke-width: 1.5"/>
   </g>
   <g id="line2d_49">
    <path d="M 315.169335 28.039984 
L 316.409371 29.06131 
L 317.649408 30.155587 
L 318.889444 31.03101 
L 320.129481 32.052336 
L 321.369517 33.073662 
L 322.609553 34.240892 
L 323.84959 35.33517 
L 325.089626 36.429447 
L 326.329663 37.450773 
L 327.569699 38.253244 
L 328.809736 39.055714 
L 330.049772 39.639329 
L 331.289809 40.295896 
L 332.529845 40.660655 
L 333.769882 41.025415 
L 335.009918 41.317222 
L 336.249955 41.900837 
L 337.489991 42.630356 
L 338.730028 43.359874 
L 339.970064 44.162345 
L 341.210101 44.964815 
L 342.450137 45.694334 
L 343.690174 46.3509 
L 344.93021 47.372226 
L 346.170247 48.68536 
L 347.410283 50.071445 
L 348.65032 51.457531 
L 349.890356 52.551809 
L 351.130393 53.427231 
L 352.370429 54.229701 
L 353.610466 55.105124 
L 354.850502 55.834642 
L 356.090539 56.418257 
L 357.330575 57.001872 
L 358.570612 57.439583 
L 359.810648 58.09615 
L 361.050685 58.679765 
L 362.290721 59.26338 
L 363.530758 59.555187 
L 364.770794 60.06585 
L 366.010831 60.576513 
L 367.250867 61.087176 
L 368.490904 61.670791 
L 369.73094 62.03555 
L 370.970977 62.546213 
L 372.211013 62.910973 
L 373.45105 63.275732 
L 374.691086 63.421636 
L 375.931123 63.786395 
L 377.171159 64.078202 
L 378.411196 64.297058 
L 379.651232 64.661817 
L 380.891269 64.661817 
L 382.131305 64.953625 
L 383.371342 64.880673 
L 384.611378 65.17248 
L 385.851415 65.17248 
L 387.091451 65.318384 
L 388.331488 65.974951 
L 389.571524 66.558566 
L 390.811561 67.069229 
L 392.051597 66.33971 
" clip-path="url(#pcc193e28c6)" style="fill: none; stroke: #7570b3; stroke-width: 1.5; stroke-linecap: square"/>
   </g>
   <g id="line2d_50">
    <path d="M 392.051597 174.04 
L 392.051597 10.8 
" clip-path="url(#pcc193e28c6)" style="fill: none; stroke-dasharray: 5.55,2.4; stroke-dashoffset: 0; stroke: #808080; stroke-opacity: 0.5; stroke-width: 1.5"/>
   </g>
   <g id="line2d_51">
    <path d="M 315.169335 28.039984 
L 316.411379 29.134261 
L 317.653423 30.155587 
L 318.895467 31.03101 
L 320.137511 32.052336 
L 321.379556 33.073662 
L 322.6216 34.240892 
L 323.863644 35.408121 
L 325.105688 36.502399 
L 326.347733 37.523725 
L 327.589777 38.253244 
L 328.831821 39.128666 
L 330.073865 39.639329 
L 331.31591 40.295896 
L 332.557954 40.587703 
L 333.799998 40.952463 
L 335.042042 41.24427 
L 336.284087 41.827885 
L 337.526131 42.557404 
L 338.768175 43.286922 
L 340.010219 44.089393 
L 341.252264 44.891863 
L 342.494308 45.621382 
L 343.736352 46.3509 
L 344.978396 47.372226 
L 346.22044 48.68536 
L 347.462485 50.144397 
L 348.704529 51.457531 
L 349.946573 52.62476 
L 351.188617 53.500183 
L 352.430662 54.375605 
L 353.672706 55.251027 
L 354.91475 56.053498 
L 356.156794 56.710065 
L 357.398839 57.293679 
L 358.640883 57.877294 
L 359.882927 58.460909 
L 361.124971 59.190428 
L 362.367016 59.628139 
L 363.60906 60.06585 
L 364.851104 60.503561 
L 366.093148 61.014224 
L 367.335193 61.597839 
L 368.577237 62.108502 
L 369.819281 62.619165 
L 371.061325 63.129828 
L 372.303369 63.567539 
L 373.545414 63.932299 
L 374.787458 64.224106 
L 376.029502 64.515914 
L 377.271546 64.807721 
L 378.513591 65.099528 
L 379.755635 65.318384 
L 380.997679 65.53724 
L 382.239723 65.610191 
L 383.481768 65.756095 
L 384.723812 65.829047 
L 385.965856 65.901999 
L 387.2079 66.193806 
L 388.449945 66.704469 
L 389.691989 67.798747 
L 390.934033 68.382362 
L 392.176077 67.652844 
L 393.418121 67.215132 
L 394.660166 66.850373 
L 395.90221 66.704469 
L 397.144254 66.412662 
L 398.386298 66.33971 
L 399.628343 66.266758 
L 400.870387 66.412662 
L 402.112431 66.33971 
L 403.354475 66.412662 
L 404.59652 66.33971 
L 405.838564 66.412662 
L 407.080608 66.631517 
L 408.322652 66.704469 
L 409.564697 66.996277 
L 410.806741 67.069229 
L 412.048785 67.361036 
L 413.290829 67.433988 
L 414.532874 67.652844 
L 415.774918 67.798747 
" clip-path="url(#pcc193e28c6)" style="fill: none; stroke: #e7298a; stroke-width: 1.5; stroke-linecap: square"/>
   </g>
   <g id="line2d_52">
    <path d="M 415.774918 174.04 
L 415.774918 10.8 
" clip-path="url(#pcc193e28c6)" style="fill: none; stroke-dasharray: 5.55,2.4; stroke-dashoffset: 0; stroke: #808080; stroke-opacity: 0.5; stroke-width: 1.5"/>
   </g>
   <g id="line2d_53">
    <path d="M 315.169335 28.039984 
L 316.399639 29.134261 
L 317.629944 30.155587 
L 318.860248 31.03101 
L 320.090553 32.052336 
L 321.320857 33.073662 
L 322.551162 34.240892 
L 323.781466 35.33517 
L 325.011771 36.429447 
L 326.242075 37.450773 
L 327.47238 38.253244 
L 328.702684 39.055714 
L 329.932989 39.639329 
L 331.163293 40.222944 
L 332.393598 40.587703 
L 333.623903 40.879511 
L 334.854207 41.171318 
L 336.084512 41.60903 
L 337.314816 42.338548 
L 338.545121 43.068067 
L 339.775425 43.870537 
L 341.00573 44.673008 
L 342.236034 45.402526 
L 343.466339 46.132045 
L 344.696643 47.007467 
L 345.926948 48.320601 
L 347.157252 49.706686 
L 348.387557 51.165723 
L 349.617862 52.405905 
L 350.848166 53.281327 
L 352.078471 54.156749 
L 353.308775 55.105124 
L 354.53908 55.907594 
L 355.769384 56.783016 
L 356.999689 57.439583 
L 358.229993 58.09615 
L 359.460298 58.679765 
L 360.690602 59.482235 
L 361.920907 59.992898 
L 363.151211 60.430609 
L 364.381516 60.795369 
L 365.611821 61.306032 
L 366.842125 61.889647 
L 368.07243 62.40031 
L 369.302734 62.910973 
L 370.533039 63.494588 
L 371.763343 64.078202 
L 372.993648 64.515914 
L 374.223952 64.880673 
L 375.454257 65.17248 
L 376.684561 65.53724 
L 377.914866 65.756095 
L 379.14517 66.120854 
L 380.375475 66.266758 
L 381.605779 66.412662 
L 382.836084 66.631517 
L 384.066389 66.631517 
L 385.296693 66.850373 
L 386.526998 66.996277 
L 387.757302 67.50694 
L 388.987607 68.455314 
L 390.217911 69.549592 
L 391.448216 69.330736 
L 392.67852 68.747121 
L 393.908825 68.30941 
L 395.139129 67.944651 
L 396.369434 67.798747 
L 397.599738 67.652844 
L 398.830043 67.579892 
L 400.060348 67.652844 
L 401.290652 67.798747 
L 402.520957 67.944651 
L 403.751261 67.944651 
L 404.981566 68.017603 
L 406.21187 68.017603 
L 407.442175 67.944651 
L 408.672479 68.017603 
L 409.902784 68.017603 
L 411.133088 68.090555 
L 412.363393 68.163507 
L 413.593697 68.30941 
L 414.824002 68.455314 
L 416.054307 68.601218 
L 417.284611 68.820073 
L 418.514916 68.893025 
L 419.74522 69.038929 
L 420.975525 68.893025 
L 422.205829 68.965977 
L 423.436134 68.893025 
L 424.666438 68.820073 
L 425.896743 68.747121 
L 427.127047 68.528266 
L 428.357352 68.30941 
L 429.587656 67.944651 
L 430.817961 67.798747 
L 432.048265 67.288084 
L 433.27857 66.923325 
L 434.508875 66.485614 
L 435.739179 65.974951 
L 436.969484 65.53724 
L 438.199788 64.953625 
L 439.430093 64.588865 
L 440.660397 63.932299 
L 441.890702 63.786395 
L 443.121006 63.275732 
L 444.351311 63.20278 
L 445.581615 63.056876 
L 446.81192 63.129828 
L 448.042224 63.275732 
" clip-path="url(#pcc193e28c6)" style="fill: none; stroke: #66a61e; stroke-width: 1.5; stroke-linecap: square"/>
   </g>
   <g id="line2d_54">
    <path d="M 448.042224 174.04 
L 448.042224 10.8 
" clip-path="url(#pcc193e28c6)" style="fill: none; stroke-dasharray: 5.55,2.4; stroke-dashoffset: 0; stroke: #808080; stroke-opacity: 0.5; stroke-width: 1.5"/>
   </g>
   <g id="line2d_55">
    <path d="M 315.169335 28.039984 
L 316.399963 29.134261 
L 317.630591 30.155587 
L 318.861219 31.03101 
L 320.091847 32.052336 
L 321.322475 33.073662 
L 322.553103 34.240892 
L 323.783731 35.33517 
L 325.014359 36.429447 
L 326.244987 37.450773 
L 327.475615 38.253244 
L 328.706243 39.055714 
L 329.936871 39.639329 
L 331.167499 40.222944 
L 332.398127 40.514752 
L 333.628755 40.879511 
L 334.859383 41.171318 
L 336.090011 41.60903 
L 337.320639 42.338548 
L 338.551267 43.068067 
L 339.781895 43.870537 
L 341.012523 44.673008 
L 342.243151 45.402526 
L 343.473779 46.132045 
L 344.704407 46.934515 
L 345.935035 48.320601 
L 347.165663 49.706686 
L 348.396291 51.165723 
L 349.626919 52.405905 
L 350.857547 53.354279 
L 352.088175 54.156749 
L 353.318803 55.105124 
L 354.549431 55.980546 
L 355.78006 56.855968 
L 357.010688 57.512535 
L 358.241316 58.169102 
L 359.471944 58.825668 
L 360.702572 59.628139 
L 361.9332 60.211754 
L 363.163828 60.649465 
L 364.394456 60.941272 
L 365.625084 61.451935 
L 366.855712 62.03555 
L 368.08634 62.619165 
L 369.316968 63.129828 
L 370.547596 63.640491 
L 371.778224 64.224106 
L 373.008852 64.661817 
L 374.23948 65.099528 
L 375.470108 65.391336 
L 376.700736 65.756095 
L 377.931364 66.047903 
L 379.161992 66.33971 
L 380.39262 66.558566 
L 381.623248 66.704469 
L 382.853876 66.850373 
L 384.084504 66.996277 
L 385.315132 67.142181 
L 386.54576 67.361036 
L 387.776388 67.798747 
L 389.007016 68.820073 
L 390.237644 69.841399 
L 391.468272 69.695496 
L 392.6989 69.038929 
L 393.929528 68.601218 
L 395.160156 68.30941 
L 396.390784 68.163507 
L 397.621413 68.017603 
L 398.852041 68.017603 
L 400.082669 68.017603 
L 401.313297 68.163507 
L 402.543925 68.382362 
L 403.774553 68.455314 
L 405.005181 68.528266 
L 406.235809 68.528266 
L 407.466437 68.455314 
L 408.697065 68.382362 
L 409.927693 68.382362 
L 411.158321 68.455314 
L 412.388949 68.528266 
L 413.619577 68.601218 
L 414.850205 68.747121 
L 416.080833 68.893025 
L 417.311461 69.184833 
L 418.542089 69.184833 
L 419.772717 69.330736 
L 421.003345 69.257784 
L 422.233973 69.257784 
L 423.464601 69.184833 
L 424.695229 69.111881 
L 425.925857 68.965977 
L 427.156485 68.747121 
L 428.387113 68.528266 
L 429.617741 68.236458 
L 430.848369 67.944651 
L 432.078997 67.433988 
L 433.309625 66.996277 
L 434.540253 66.485614 
L 435.770881 66.047903 
L 437.001509 65.610191 
L 438.232137 65.099528 
L 439.462766 64.661817 
L 440.693394 64.151154 
L 441.924022 63.859347 
L 443.15465 63.494588 
L 444.385278 63.275732 
L 445.615906 63.129828 
L 446.846534 63.129828 
L 448.077162 63.275732 
L 449.30779 63.640491 
L 450.538418 64.151154 
L 451.769046 64.880673 
L 452.999674 65.683143 
L 454.230302 66.558566 
L 455.46093 67.361036 
L 456.691558 68.090555 
L 457.922186 68.747121 
L 459.152814 69.330736 
L 460.383442 69.987303 
L 461.61407 70.497966 
L 462.844698 71.081581 
L 464.075326 71.44634 
L 465.305954 71.957003 
L 466.536582 72.394714 
L 467.76721 72.978329 
" clip-path="url(#pcc193e28c6)" style="fill: none; stroke: #e6ab02; stroke-width: 1.5; stroke-linecap: square"/>
   </g>
   <g id="line2d_56">
    <path d="M 467.76721 174.04 
L 467.76721 10.8 
" clip-path="url(#pcc193e28c6)" style="fill: none; stroke-dasharray: 5.55,2.4; stroke-dashoffset: 0; stroke: #808080; stroke-opacity: 0.5; stroke-width: 1.5"/>
   </g>
   <g id="line2d_57">
    <path d="M 315.169335 28.039984 
L 317.630493 30.301491 
L 318.861072 31.176914 
L 322.55281 34.240892 
L 325.013968 36.502399 
L 326.244547 37.450773 
L 327.475127 38.253244 
L 329.936285 39.493426 
L 332.397443 40.222944 
L 334.858602 40.660655 
L 336.089181 41.025415 
L 337.31976 41.536078 
L 338.55034 42.192644 
L 339.780919 42.995115 
L 342.242077 44.818911 
L 343.472656 45.621382 
L 344.703236 46.642708 
L 345.933815 47.955841 
L 348.394973 51.530482 
L 349.625552 52.98952 
L 350.856132 54.156749 
L 353.31729 56.12645 
L 357.009028 59.701091 
L 358.239607 60.649465 
L 360.700765 62.692117 
L 361.931345 63.348684 
L 364.392503 64.078202 
L 368.084241 65.683143 
L 369.31482 65.901999 
L 370.545399 66.33971 
L 371.775978 66.996277 
L 374.237137 68.090555 
L 375.467716 68.747121 
L 377.928874 69.549592 
L 381.620612 70.497966 
L 382.851191 71.008629 
L 384.08177 71.373388 
L 386.542929 71.884051 
L 387.773508 72.321763 
L 389.004087 73.488992 
L 390.234666 74.94803 
L 391.465246 74.875078 
L 393.926404 73.488992 
L 395.156983 73.051281 
L 396.387562 72.905377 
L 397.618142 72.978329 
L 400.0793 72.467666 
L 401.309879 72.61357 
L 405.001617 73.634896 
L 406.232196 73.488992 
L 408.693355 72.686522 
L 409.923934 72.394714 
L 411.154513 72.394714 
L 412.385092 72.540618 
L 413.615671 72.978329 
L 418.537988 75.239837 
L 420.999147 76.042307 
L 422.229726 76.188211 
L 424.690884 75.969356 
L 427.152043 75.604596 
L 429.613201 74.94803 
L 430.84378 74.437367 
L 434.535518 72.540618 
L 436.996676 71.592244 
L 439.457835 71.008629 
L 440.688414 70.862725 
L 443.149573 70.862725 
L 446.84131 71.373388 
L 448.071889 71.738148 
L 455.455365 74.875078 
L 456.685944 75.604596 
L 460.377682 78.157911 
L 465.299998 80.419419 
L 470.222315 81.951408 
L 471.452894 82.389119 
L 473.914053 83.556349 
L 476.375211 84.942434 
L 478.83637 86.182616 
L 484.989266 88.808883 
L 493.60332 92.821235 
L 497.295058 93.696658 
L 498.525637 94.134369 
L 499.756216 94.790935 
L 500.986795 95.593406 
L 503.447954 97.70901 
L 507.139692 100.84594 
L 510.831429 103.618111 
L 512.062008 104.493533 
L 513.292588 105.1501 
L 514.523167 105.660763 
L 515.753746 105.95257 
L 524.367801 107.046848 
L 524.367801 107.046848 
" clip-path="url(#pcc193e28c6)" style="fill: none; stroke: #a6761d; stroke-width: 1.5; stroke-linecap: square"/>
   </g>
   <g id="line2d_58">
    <path d="M 524.367801 174.04 
L 524.367801 10.8 
" clip-path="url(#pcc193e28c6)" style="fill: none; stroke-dasharray: 5.55,2.4; stroke-dashoffset: 0; stroke: #808080; stroke-opacity: 0.5; stroke-width: 1.5"/>
   </g>
   <g id="line2d_59">
    <path d="M 315.169335 28.039984 
L 317.617297 30.374443 
L 320.06526 32.19824 
L 322.513223 34.16794 
L 324.961185 36.283544 
L 326.185167 37.231918 
L 327.409148 37.961437 
L 329.857111 39.055714 
L 331.081092 39.493426 
L 333.529055 40.004089 
L 335.977018 40.514752 
L 338.42498 41.463126 
L 340.872943 43.141019 
L 342.096925 44.162345 
L 343.320906 45.037767 
L 344.544887 46.132045 
L 345.768869 47.591082 
L 349.440813 52.916568 
L 350.664794 54.302653 
L 355.56072 58.825668 
L 356.784701 59.992898 
L 359.232664 61.962598 
L 360.456645 62.983924 
L 361.680626 63.713443 
L 365.35257 64.880673 
L 366.576552 65.53724 
L 371.472477 67.361036 
L 376.368403 70.060255 
L 381.264328 71.300437 
L 382.48831 71.8111 
L 384.936272 73.124233 
L 387.384235 74.218511 
L 388.608216 75.020981 
L 389.832198 76.261163 
L 391.056179 76.698874 
L 392.28016 76.334115 
L 393.504142 75.604596 
L 394.728123 75.166885 
L 395.952105 74.94803 
L 397.176086 75.093933 
L 398.400067 75.093933 
L 399.624049 74.802126 
L 400.84803 74.291463 
L 402.072011 74.218511 
L 405.743955 74.729174 
L 408.191918 74.656222 
L 409.4159 74.729174 
L 410.639881 74.94803 
L 413.087844 75.7505 
L 415.535806 76.844778 
L 417.983769 78.08496 
L 421.655713 79.762852 
L 424.103676 80.419419 
L 426.551639 80.638275 
L 428.999601 80.419419 
L 430.223583 80.200563 
L 436.34349 78.449719 
L 438.791452 77.939056 
L 440.015434 77.7202 
L 443.687378 77.574296 
L 447.359322 77.7202 
L 452.255247 77.647248 
L 454.70321 77.574296 
L 455.927191 77.7202 
L 458.375154 78.376767 
L 462.047098 79.835804 
L 465.719042 81.221889 
L 470.614968 83.921108 
L 473.062931 85.307194 
L 477.958856 87.860509 
L 482.854781 90.122016 
L 485.302744 91.216294 
L 486.526726 91.872861 
L 488.974688 93.696658 
L 491.422651 96.395876 
L 493.870614 99.459854 
L 496.318576 102.81564 
L 499.990521 107.995222 
L 501.214502 109.527211 
L 503.662465 111.861671 
L 506.110427 113.831371 
L 507.334409 114.633841 
L 511.006353 116.53059 
L 514.678297 118.281434 
L 517.12626 119.156857 
L 518.350241 119.375712 
L 520.798204 119.448664 
L 524.470148 118.719146 
L 528.142092 117.624868 
L 530.590055 116.676493 
L 531.814036 116.384686 
L 534.261999 116.16583 
L 536.709961 116.311734 
L 537.933943 116.603542 
L 540.381906 117.478964 
L 542.829868 118.573242 
L 544.05385 119.010953 
L 545.277831 119.30276 
L 547.725794 119.448664 
L 552.621719 119.156857 
L 555.069682 119.30276 
L 556.293663 119.521616 
L 561.189589 121.345412 
L 561.189589 121.345412 
" clip-path="url(#pcc193e28c6)" style="fill: none; stroke: #666666; stroke-width: 1.5; stroke-linecap: square"/>
   </g>
   <g id="line2d_60">
    <path d="M 561.189589 174.04 
L 561.189589 10.8 
" clip-path="url(#pcc193e28c6)" style="fill: none; stroke-dasharray: 5.55,2.4; stroke-dashoffset: 0; stroke: #808080; stroke-opacity: 0.5; stroke-width: 1.5"/>
   </g>
   <g id="line2d_61">
    <path d="M 315.169335 28.039984 
L 317.623462 30.447395 
L 321.304654 33.146614 
L 326.21291 36.94011 
L 328.667038 38.180292 
L 331.121166 38.982763 
L 333.575294 39.639329 
L 336.029422 40.295896 
L 337.256486 40.733607 
L 339.710614 42.119693 
L 342.164742 43.943489 
L 344.61887 45.840237 
L 345.845934 47.299275 
L 349.527125 52.916568 
L 350.754189 54.375605 
L 356.889509 60.138802 
L 359.343637 62.108502 
L 360.570701 63.20278 
L 361.797765 63.932299 
L 365.478957 65.318384 
L 367.933085 66.558566 
L 370.387213 67.215132 
L 371.614277 67.725795 
L 375.295469 69.695496 
L 377.749596 70.64387 
L 381.430788 71.665196 
L 382.657852 72.321763 
L 385.11198 74.58327 
L 386.339044 75.531644 
L 390.020236 77.7202 
L 391.2473 78.303815 
L 392.474364 78.230863 
L 393.701428 77.7202 
L 394.928492 77.428393 
L 396.155556 77.501345 
L 398.609684 78.449719 
L 399.836748 78.595623 
L 401.063812 78.376767 
L 402.290876 78.376767 
L 404.745004 79.033334 
L 405.972068 79.398093 
L 407.199131 79.543997 
L 408.426195 79.543997 
L 410.880323 79.908756 
L 412.107387 80.127612 
L 414.561515 80.85713 
L 415.788579 81.367793 
L 420.696835 83.921108 
L 423.150963 84.869482 
L 428.059219 86.912135 
L 429.286283 87.13099 
L 430.513347 87.203942 
L 432.967475 86.985086 
L 439.102794 85.453097 
L 441.556922 84.796531 
L 444.01105 84.431771 
L 446.465178 84.358819 
L 448.919306 84.212916 
L 452.600498 83.556349 
L 455.054626 83.629301 
L 463.644074 85.671953 
L 466.098202 86.766231 
L 467.325265 87.349846 
L 469.779393 88.225268 
L 474.687649 89.392498 
L 477.141777 90.194968 
L 479.595905 91.581054 
L 480.822969 92.456476 
L 486.958289 97.636058 
L 489.412417 99.970518 
L 493.093609 103.618111 
L 500.455992 111.642815 
L 505.364248 117.33306 
L 507.818376 119.66752 
L 509.04544 120.542942 
L 511.499568 121.929027 
L 517.634888 125.211861 
L 520.089016 126.233187 
L 522.543144 127.035658 
L 524.997272 127.838128 
L 527.451399 128.640598 
L 528.678463 129.151262 
L 532.359655 131.193914 
L 534.813783 132.725903 
L 537.267911 134.257892 
L 540.949103 136.665303 
L 543.403231 137.905485 
L 545.857359 138.780907 
L 548.311487 138.999763 
L 549.538551 138.999763 
L 550.765615 138.853859 
L 553.219743 138.270244 
L 554.446807 137.832533 
L 560.582126 134.98741 
L 561.80919 134.841507 
L 564.263318 135.206266 
L 569.171574 136.373496 
L 571.625702 136.738255 
L 574.07983 137.467774 
L 576.533958 138.562051 
L 578.988086 139.510426 
L 580.21515 140.094041 
L 585.123406 143.303922 
L 586.35047 144.252297 
L 588.804597 146.586756 
L 593.712853 151.547483 
L 594.939917 152.422905 
L 596.166981 153.079472 
L 598.621109 154.027846 
L 599.848173 154.538509 
L 601.075237 155.340979 
L 603.529365 157.164776 
L 607.210557 159.718091 
L 609.664685 161.177128 
L 612.118813 162.344358 
L 613.345877 162.782069 
L 613.345877 162.782069 
" clip-path="url(#pcc193e28c6)" style="fill: none; stroke: #e41a1c; stroke-width: 1.5; stroke-linecap: square"/>
   </g>
   <g id="line2d_62">
    <path d="M 613.345877 174.04 
L 613.345877 10.8 
" clip-path="url(#pcc193e28c6)" style="fill: none; stroke-dasharray: 5.55,2.4; stroke-dashoffset: 0; stroke: #808080; stroke-opacity: 0.5; stroke-width: 1.5"/>
   </g>
   <g id="patch_8">
    <path d="M 291.315211 174.04 
L 291.315211 10.8 
" style="fill: none; stroke: #000000; stroke-width: 0.8; stroke-linejoin: miter; stroke-linecap: square"/>
   </g>
   <g id="patch_9">
    <path d="M 637.2 174.04 
L 637.2 10.8 
" style="fill: none; stroke: #000000; stroke-width: 0.8; stroke-linejoin: miter; stroke-linecap: square"/>
   </g>
   <g id="patch_10">
    <path d="M 291.315211 174.04 
L 637.2 174.04 
" style="fill: none; stroke: #000000; stroke-width: 0.8; stroke-linejoin: miter; stroke-linecap: square"/>
   </g>
   <g id="patch_11">
    <path d="M 291.315211 10.8 
L 637.2 10.8 
" style="fill: none; stroke: #000000; stroke-width: 0.8; stroke-linejoin: miter; stroke-linecap: square"/>
   </g>
   <g id="text_37">
    <!-- 1 -->
    <g transform="translate(334.56805 28.185887) scale(0.1 -0.1)">
     <use xlink:href="#DejaVuSans-31"/>
    </g>
   </g>
   <g id="text_38">
    <!-- 2 -->
    <g transform="translate(354.135528 41.827885) scale(0.1 -0.1)">
     <use xlink:href="#DejaVuSans-32"/>
    </g>
   </g>
   <g id="text_39">
    <!-- 3 -->
    <g transform="translate(393.268953 53.573135) scale(0.1 -0.1)">
     <use xlink:href="#DejaVuSans-33"/>
    </g>
   </g>
   <g id="text_40">
    <!-- 4 -->
    <g transform="translate(416.992274 55.032172) scale(0.1 -0.1)">
     <use xlink:href="#DejaVuSans-34"/>
    </g>
   </g>
   <g id="text_41">
    <!-- 5 -->
    <g transform="translate(449.25958 50.509156) scale(0.1 -0.1)">
     <use xlink:href="#DejaVuSans-35"/>
    </g>
   </g>
   <g id="text_42">
    <!-- 6 -->
    <g transform="translate(468.984566 60.211754) scale(0.1 -0.1)">
     <use xlink:href="#DejaVuSans-36"/>
    </g>
   </g>
   <g id="text_43">
    <!-- 7 -->
    <g transform="translate(525.585156 94.280272) scale(0.1 -0.1)">
     <use xlink:href="#DejaVuSans-37"/>
    </g>
   </g>
   <g id="text_44">
    <!-- 8 -->
    <g transform="translate(562.406945 108.578837) scale(0.1 -0.1)">
     <use xlink:href="#DejaVuSans-38"/>
    </g>
   </g>
   <g id="text_45">
    <!-- 9 -->
    <g transform="translate(614.563232 150.015493) scale(0.1 -0.1)">
     <use xlink:href="#DejaVuSans-39"/>
    </g>
   </g>
  </g>
 </g>
 <defs>
  <clipPath id="pc186416fef">
   <rect x="66.62" y="10.8" width="172.942394" height="163.24"/>
  </clipPath>
  <clipPath id="pcc193e28c6">
   <rect x="291.315211" y="10.8" width="345.884789" height="163.24"/>
  </clipPath>
 </defs>
</svg>
