<?xml version="1.0" encoding="utf-8" standalone="no"?>
<!DOCTYPE svg PUBLIC "-//W3C//DTD SVG 1.1//EN"
  "http://www.w3.org/Graphics/SVG/1.1/DTD/svg11.dtd">
<svg xmlns:xlink="http://www.w3.org/1999/xlink" width="648pt" height="216pt" viewBox="0 0 648 216" xmlns="http://www.w3.org/2000/svg" version="1.1">
 <metadata>
  <rdf:RDF xmlns:dc="http://purl.org/dc/elements/1.1/" xmlns:cc="http://creativecommons.org/ns#" xmlns:rdf="http://www.w3.org/1999/02/22-rdf-syntax-ns#">
   <cc:Work>
    <dc:type rdf:resource="http://purl.org/dc/dcmitype/StillImage"/>
    <dc:date>2024-05-12T10:46:19.023138</dc:date>
    <dc:format>image/svg+xml</dc:format>
    <dc:creator>
     <cc:Agent>
      <dc:title>Matplotlib v3.8.4, https://matplotlib.org/</dc:title>
     </cc:Agent>
    </dc:creator>
   </cc:Work>
  </rdf:RDF>
 </metadata>
 <defs>
  <style type="text/css">*{stroke-linejoin: round; stroke-linecap: butt}</style>
 </defs>
 <g id="figure_1">
  <g id="patch_1">
   <path d="M 0 216 
L 648 216 
L 648 0 
L 0 0 
z
" style="fill: #ffffff"/>
  </g>
  <g id="axes_1">
   <g id="patch_2">
    <path d="M 66.62 174.04 
L 237.312503 174.04 
L 237.312503 11.830064 
L 66.62 11.830064 
z
" style="fill: #ffffff"/>
   </g>
   <g id="PathCollection_1">
    <defs>
     <path id="m21de2a76a1" d="M 0 3 
C 0.795609 3 1.55874 2.683901 2.12132 2.12132 
C 2.683901 1.55874 3 0.795609 3 0 
C 3 -0.795609 2.683901 -1.55874 2.12132 -2.12132 
C 1.55874 -2.683901 0.795609 -3 0 -3 
C -0.795609 -3 -1.55874 -2.683901 -2.12132 -2.12132 
C -2.683901 -1.55874 -3 -0.795609 -3 0 
C -3 0.795609 -2.683901 1.55874 -2.12132 2.12132 
C -1.55874 2.683901 -0.795609 3 0 3 
z
" style="stroke: #000000"/>
    </defs>
    <g clip-path="url(#pa3de085afd)">
     <use xlink:href="#m21de2a76a1" x="78.391897" y="162.853108" style="stroke: #000000"/>
    </g>
   </g>
   <g id="PathCollection_2">
    <defs>
     <path id="me33942f9c3" d="M 0 3 
C 0.795609 3 1.55874 2.683901 2.12132 2.12132 
C 2.683901 1.55874 3 0.795609 3 0 
C 3 -0.795609 2.683901 -1.55874 2.12132 -2.12132 
C 1.55874 -2.683901 0.795609 -3 0 -3 
C -0.795609 -3 -1.55874 -2.683901 -2.12132 -2.12132 
C -2.683901 -1.55874 -3 -0.795609 -3 0 
C -3 0.795609 -2.683901 1.55874 -2.12132 2.12132 
C -1.55874 2.683901 -0.795609 3 0 3 
z
" style="stroke: #1b9e77"/>
    </defs>
    <g clip-path="url(#pa3de085afd)">
     <use xlink:href="#me33942f9c3" x="86.303907" y="150.435719" style="fill: #1b9e77; stroke: #1b9e77"/>
    </g>
   </g>
   <g id="PathCollection_3">
    <defs>
     <path id="m2ff6011914" d="M 0 3 
C 0.795609 3 1.55874 2.683901 2.12132 2.12132 
C 2.683901 1.55874 3 0.795609 3 0 
C 3 -0.795609 2.683901 -1.55874 2.12132 -2.12132 
C 1.55874 -2.683901 0.795609 -3 0 -3 
C -0.795609 -3 -1.55874 -2.683901 -2.12132 -2.12132 
C -2.683901 -1.55874 -3 -0.795609 -3 0 
C -3 0.795609 -2.683901 1.55874 -2.12132 2.12132 
C -1.55874 2.683901 -0.795609 3 0 3 
z
" style="stroke: #d95f02"/>
    </defs>
    <g clip-path="url(#pa3de085afd)">
     <use xlink:href="#m2ff6011914" x="94.331345" y="136.408668" style="fill: #d95f02; stroke: #d95f02"/>
    </g>
   </g>
   <g id="PathCollection_4">
    <defs>
     <path id="m233281ebaf" d="M 0 3 
C 0.795609 3 1.55874 2.683901 2.12132 2.12132 
C 2.683901 1.55874 3 0.795609 3 0 
C 3 -0.795609 2.683901 -1.55874 2.12132 -2.12132 
C 1.55874 -2.683901 0.795609 -3 0 -3 
C -0.795609 -3 -1.55874 -2.683901 -2.12132 -2.12132 
C -2.683901 -1.55874 -3 -0.795609 -3 0 
C -3 0.795609 -2.683901 1.55874 -2.12132 2.12132 
C -1.55874 2.683901 -0.795609 3 0 3 
z
" style="stroke: #7570b3"/>
    </defs>
    <g clip-path="url(#pa3de085afd)">
     <use xlink:href="#m233281ebaf" x="111.928749" y="109.299924" style="fill: #7570b3; stroke: #7570b3"/>
    </g>
   </g>
   <g id="PathCollection_5">
    <defs>
     <path id="m0214b523a5" d="M 0 3 
C 0.795609 3 1.55874 2.683901 2.12132 2.12132 
C 2.683901 1.55874 3 0.795609 3 0 
C 3 -0.795609 2.683901 -1.55874 2.12132 -2.12132 
C 1.55874 -2.683901 0.795609 -3 0 -3 
C -0.795609 -3 -1.55874 -2.683901 -2.12132 -2.12132 
C -2.683901 -1.55874 -3 -0.795609 -3 0 
C -3 0.795609 -2.683901 1.55874 -2.12132 2.12132 
C -1.55874 2.683901 -0.795609 3 0 3 
z
" style="stroke: #e7298a"/>
    </defs>
    <g clip-path="url(#pa3de085afd)">
     <use xlink:href="#m0214b523a5" x="120.564803" y="96.856985" style="fill: #e7298a; stroke: #e7298a"/>
    </g>
   </g>
   <g id="PathCollection_6">
    <defs>
     <path id="m1354f2bc21" d="M 0 3 
C 0.795609 3 1.55874 2.683901 2.12132 2.12132 
C 2.683901 1.55874 3 0.795609 3 0 
C 3 -0.795609 2.683901 -1.55874 2.12132 -2.12132 
C 1.55874 -2.683901 0.795609 -3 0 -3 
C -0.795609 -3 -1.55874 -2.683901 -2.12132 -2.12132 
C -2.683901 -1.55874 -3 -0.795609 -3 0 
C -3 0.795609 -2.683901 1.55874 -2.12132 2.12132 
C -1.55874 2.683901 -0.795609 3 0 3 
z
" style="stroke: #66a61e"/>
    </defs>
    <g clip-path="url(#pa3de085afd)">
     <use xlink:href="#m1354f2bc21" x="137.910365" y="71.817805" style="fill: #66a61e; stroke: #66a61e"/>
    </g>
   </g>
   <g id="PathCollection_7">
    <defs>
     <path id="mcf64a9bb93" d="M 0 3 
C 0.795609 3 1.55874 2.683901 2.12132 2.12132 
C 2.683901 1.55874 3 0.795609 3 0 
C 3 -0.795609 2.683901 -1.55874 2.12132 -2.12132 
C 1.55874 -2.683901 0.795609 -3 0 -3 
C -0.795609 -3 -1.55874 -2.683901 -2.12132 -2.12132 
C -2.683901 -1.55874 -3 -0.795609 -3 0 
C -3 0.795609 -2.683901 1.55874 -2.12132 2.12132 
C -1.55874 2.683901 -0.795609 3 0 3 
z
" style="stroke: #e6ab02"/>
    </defs>
    <g clip-path="url(#pa3de085afd)">
     <use xlink:href="#mcf64a9bb93" x="149.935782" y="54.36703" style="fill: #e6ab02; stroke: #e6ab02"/>
    </g>
   </g>
   <g id="PathCollection_8">
    <defs>
     <path id="mfe30e570e4" d="M 0 3 
C 0.795609 3 1.55874 2.683901 2.12132 2.12132 
C 2.683901 1.55874 3 0.795609 3 0 
C 3 -0.795609 2.683901 -1.55874 2.12132 -2.12132 
C 1.55874 -2.683901 0.795609 -3 0 -3 
C -0.795609 -3 -1.55874 -2.683901 -2.12132 -2.12132 
C -2.683901 -1.55874 -3 -0.795609 -3 0 
C -3 0.795609 -2.683901 1.55874 -2.12132 2.12132 
C -1.55874 2.683901 -0.795609 3 0 3 
z
" style="stroke: #a6761d"/>
    </defs>
    <g clip-path="url(#pa3de085afd)">
     <use xlink:href="#mfe30e570e4" x="164.269743" y="43.763704" style="fill: #a6761d; stroke: #a6761d"/>
    </g>
   </g>
   <g id="PathCollection_9">
    <defs>
     <path id="m337d95dd5a" d="M 0 3 
C 0.795609 3 1.55874 2.683901 2.12132 2.12132 
C 2.683901 1.55874 3 0.795609 3 0 
C 3 -0.795609 2.683901 -1.55874 2.12132 -2.12132 
C 1.55874 -2.683901 0.795609 -3 0 -3 
C -0.795609 -3 -1.55874 -2.683901 -2.12132 -2.12132 
C -2.683901 -1.55874 -3 -0.795609 -3 0 
C -3 0.795609 -2.683901 1.55874 -2.12132 2.12132 
C -1.55874 2.683901 -0.795609 3 0 3 
z
" style="stroke: #666666"/>
    </defs>
    <g clip-path="url(#pa3de085afd)">
     <use xlink:href="#m337d95dd5a" x="181.153596" y="37.759411" style="fill: #666666; stroke: #666666"/>
    </g>
   </g>
   <g id="PathCollection_10">
    <defs>
     <path id="m98e9af70e6" d="M 0 3 
C 0.795609 3 1.55874 2.683901 2.12132 2.12132 
C 2.683901 1.55874 3 0.795609 3 0 
C 3 -0.795609 2.683901 -1.55874 2.12132 -2.12132 
C 1.55874 -2.683901 0.795609 -3 0 -3 
C -0.795609 -3 -1.55874 -2.683901 -2.12132 -2.12132 
C -2.683901 -1.55874 -3 -0.795609 -3 0 
C -3 0.795609 -2.683901 1.55874 -2.12132 2.12132 
C -1.55874 2.683901 -0.795609 3 0 3 
z
" style="stroke: #e41a1c"/>
    </defs>
    <g clip-path="url(#pa3de085afd)">
     <use xlink:href="#m98e9af70e6" x="200.115139" y="32.470523" style="fill: #e41a1c; stroke: #e41a1c"/>
    </g>
   </g>
   <g id="PathCollection_11">
    <defs>
     <path id="m7f20a2bc41" d="M 0 3 
C 0.795609 3 1.55874 2.683901 2.12132 2.12132 
C 2.683901 1.55874 3 0.795609 3 0 
C 3 -0.795609 2.683901 -1.55874 2.12132 -2.12132 
C 1.55874 -2.683901 0.795609 -3 0 -3 
C -0.795609 -3 -1.55874 -2.683901 -2.12132 -2.12132 
C -2.683901 -1.55874 -3 -0.795609 -3 0 
C -3 0.795609 -2.683901 1.55874 -2.12132 2.12132 
C -1.55874 2.683901 -0.795609 3 0 3 
z
" style="stroke: #377eb8"/>
    </defs>
    <g clip-path="url(#pa3de085afd)">
     <use xlink:href="#m7f20a2bc41" x="222.319137" y="24.677718" style="fill: #377eb8; stroke: #377eb8"/>
    </g>
   </g>
   <g id="PathCollection_12">
    <defs>
     <path id="m715c7d50fa" d="M 0 3 
C 0.795609 3 1.55874 2.683901 2.12132 2.12132 
C 2.683901 1.55874 3 0.795609 3 0 
C 3 -0.795609 2.683901 -1.55874 2.12132 -2.12132 
C 1.55874 -2.683901 0.795609 -3 0 -3 
C -0.795609 -3 -1.55874 -2.683901 -2.12132 -2.12132 
C -2.683901 -1.55874 -3 -0.795609 -3 0 
C -3 0.795609 -2.683901 1.55874 -2.12132 2.12132 
C -1.55874 2.683901 -0.795609 3 0 3 
z
" style="stroke: #4daf4a"/>
    </defs>
    <g clip-path="url(#pa3de085afd)">
     <use xlink:href="#m715c7d50fa" x="225.540606" y="23.016956" style="fill: #4daf4a; stroke: #4daf4a"/>
    </g>
   </g>
   <g id="matplotlib.axis_1">
    <g id="xtick_1">
     <g id="line2d_1">
      <path d="M 68.989826 174.04 
L 68.989826 11.830064 
" clip-path="url(#pa3de085afd)" style="fill: none; stroke: #b0b0b0; stroke-width: 0.8; stroke-linecap: square"/>
     </g>
     <g id="line2d_2">
      <defs>
       <path id="mf621b34cc6" d="M 0 0 
L 0 3.5 
" style="stroke: #000000; stroke-width: 0.8"/>
      </defs>
      <g>
       <use xlink:href="#mf621b34cc6" x="68.989826" y="174.04" style="stroke: #000000; stroke-width: 0.8"/>
      </g>
     </g>
     <g id="text_1">
      <!-- 14.530 -->
      <g transform="translate(51.494513 188.638438) scale(0.1 -0.1)">
       <defs>
        <path id="DejaVuSans-31" d="M 794 531 
L 1825 531 
L 1825 4091 
L 703 3866 
L 703 4441 
L 1819 4666 
L 2450 4666 
L 2450 531 
L 3481 531 
L 3481 0 
L 794 0 
L 794 531 
z
" transform="scale(0.015625)"/>
        <path id="DejaVuSans-34" d="M 2419 4116 
L 825 1625 
L 2419 1625 
L 2419 4116 
z
M 2253 4666 
L 3047 4666 
L 3047 1625 
L 3713 1625 
L 3713 1100 
L 3047 1100 
L 3047 0 
L 2419 0 
L 2419 1100 
L 313 1100 
L 313 1709 
L 2253 4666 
z
" transform="scale(0.015625)"/>
        <path id="DejaVuSans-2e" d="M 684 794 
L 1344 794 
L 1344 0 
L 684 0 
L 684 794 
z
" transform="scale(0.015625)"/>
        <path id="DejaVuSans-35" d="M 691 4666 
L 3169 4666 
L 3169 4134 
L 1269 4134 
L 1269 2991 
Q 1406 3038 1543 3061 
Q 1681 3084 1819 3084 
Q 2600 3084 3056 2656 
Q 3513 2228 3513 1497 
Q 3513 744 3044 326 
Q 2575 -91 1722 -91 
Q 1428 -91 1123 -41 
Q 819 9 494 109 
L 494 744 
Q 775 591 1075 516 
Q 1375 441 1709 441 
Q 2250 441 2565 725 
Q 2881 1009 2881 1497 
Q 2881 1984 2565 2268 
Q 2250 2553 1709 2553 
Q 1456 2553 1204 2497 
Q 953 2441 691 2322 
L 691 4666 
z
" transform="scale(0.015625)"/>
        <path id="DejaVuSans-33" d="M 2597 2516 
Q 3050 2419 3304 2112 
Q 3559 1806 3559 1356 
Q 3559 666 3084 287 
Q 2609 -91 1734 -91 
Q 1441 -91 1130 -33 
Q 819 25 488 141 
L 488 750 
Q 750 597 1062 519 
Q 1375 441 1716 441 
Q 2309 441 2620 675 
Q 2931 909 2931 1356 
Q 2931 1769 2642 2001 
Q 2353 2234 1838 2234 
L 1294 2234 
L 1294 2753 
L 1863 2753 
Q 2328 2753 2575 2939 
Q 2822 3125 2822 3475 
Q 2822 3834 2567 4026 
Q 2313 4219 1838 4219 
Q 1578 4219 1281 4162 
Q 984 4106 628 3988 
L 628 4550 
Q 988 4650 1302 4700 
Q 1616 4750 1894 4750 
Q 2613 4750 3031 4423 
Q 3450 4097 3450 3541 
Q 3450 3153 3228 2886 
Q 3006 2619 2597 2516 
z
" transform="scale(0.015625)"/>
        <path id="DejaVuSans-30" d="M 2034 4250 
Q 1547 4250 1301 3770 
Q 1056 3291 1056 2328 
Q 1056 1369 1301 889 
Q 1547 409 2034 409 
Q 2525 409 2770 889 
Q 3016 1369 3016 2328 
Q 3016 3291 2770 3770 
Q 2525 4250 2034 4250 
z
M 2034 4750 
Q 2819 4750 3233 4129 
Q 3647 3509 3647 2328 
Q 3647 1150 3233 529 
Q 2819 -91 2034 -91 
Q 1250 -91 836 529 
Q 422 1150 422 2328 
Q 422 3509 836 4129 
Q 1250 4750 2034 4750 
z
" transform="scale(0.015625)"/>
       </defs>
       <use xlink:href="#DejaVuSans-31"/>
       <use xlink:href="#DejaVuSans-34" x="63.623047"/>
       <use xlink:href="#DejaVuSans-2e" x="127.246094"/>
       <use xlink:href="#DejaVuSans-35" x="159.033203"/>
       <use xlink:href="#DejaVuSans-33" x="222.65625"/>
       <use xlink:href="#DejaVuSans-30" x="286.279297"/>
      </g>
     </g>
    </g>
    <g id="xtick_2">
     <g id="line2d_3">
      <path d="M 121.45674 174.04 
L 121.45674 11.830064 
" clip-path="url(#pa3de085afd)" style="fill: none; stroke: #b0b0b0; stroke-width: 0.8; stroke-linecap: square"/>
     </g>
     <g id="line2d_4">
      <g>
       <use xlink:href="#mf621b34cc6" x="121.45674" y="174.04" style="stroke: #000000; stroke-width: 0.8"/>
      </g>
     </g>
     <g id="text_2">
      <!-- 14.535 -->
      <g transform="translate(103.961428 188.638438) scale(0.1 -0.1)">
       <use xlink:href="#DejaVuSans-31"/>
       <use xlink:href="#DejaVuSans-34" x="63.623047"/>
       <use xlink:href="#DejaVuSans-2e" x="127.246094"/>
       <use xlink:href="#DejaVuSans-35" x="159.033203"/>
       <use xlink:href="#DejaVuSans-33" x="222.65625"/>
       <use xlink:href="#DejaVuSans-35" x="286.279297"/>
      </g>
     </g>
    </g>
    <g id="xtick_3">
     <g id="line2d_5">
      <path d="M 173.923655 174.04 
L 173.923655 11.830064 
" clip-path="url(#pa3de085afd)" style="fill: none; stroke: #b0b0b0; stroke-width: 0.8; stroke-linecap: square"/>
     </g>
     <g id="line2d_6">
      <g>
       <use xlink:href="#mf621b34cc6" x="173.923655" y="174.04" style="stroke: #000000; stroke-width: 0.8"/>
      </g>
     </g>
     <g id="text_3">
      <!-- 14.540 -->
      <g transform="translate(156.428343 188.638438) scale(0.1 -0.1)">
       <use xlink:href="#DejaVuSans-31"/>
       <use xlink:href="#DejaVuSans-34" x="63.623047"/>
       <use xlink:href="#DejaVuSans-2e" x="127.246094"/>
       <use xlink:href="#DejaVuSans-35" x="159.033203"/>
       <use xlink:href="#DejaVuSans-34" x="222.65625"/>
       <use xlink:href="#DejaVuSans-30" x="286.279297"/>
      </g>
     </g>
    </g>
    <g id="xtick_4">
     <g id="line2d_7">
      <path d="M 226.39057 174.04 
L 226.39057 11.830064 
" clip-path="url(#pa3de085afd)" style="fill: none; stroke: #b0b0b0; stroke-width: 0.8; stroke-linecap: square"/>
     </g>
     <g id="line2d_8">
      <g>
       <use xlink:href="#mf621b34cc6" x="226.39057" y="174.04" style="stroke: #000000; stroke-width: 0.8"/>
      </g>
     </g>
     <g id="text_4">
      <!-- 14.545 -->
      <g transform="translate(208.895257 188.638438) scale(0.1 -0.1)">
       <use xlink:href="#DejaVuSans-31"/>
       <use xlink:href="#DejaVuSans-34" x="63.623047"/>
       <use xlink:href="#DejaVuSans-2e" x="127.246094"/>
       <use xlink:href="#DejaVuSans-35" x="159.033203"/>
       <use xlink:href="#DejaVuSans-34" x="222.65625"/>
       <use xlink:href="#DejaVuSans-35" x="286.279297"/>
      </g>
     </g>
    </g>
    <g id="text_5">
     <!-- Longitude [°] -->
     <g transform="translate(119.106095 202.316563) scale(0.1 -0.1)">
      <defs>
       <path id="DejaVuSans-4c" d="M 628 4666 
L 1259 4666 
L 1259 531 
L 3531 531 
L 3531 0 
L 628 0 
L 628 4666 
z
" transform="scale(0.015625)"/>
       <path id="DejaVuSans-6f" d="M 1959 3097 
Q 1497 3097 1228 2736 
Q 959 2375 959 1747 
Q 959 1119 1226 758 
Q 1494 397 1959 397 
Q 2419 397 2687 759 
Q 2956 1122 2956 1747 
Q 2956 2369 2687 2733 
Q 2419 3097 1959 3097 
z
M 1959 3584 
Q 2709 3584 3137 3096 
Q 3566 2609 3566 1747 
Q 3566 888 3137 398 
Q 2709 -91 1959 -91 
Q 1206 -91 779 398 
Q 353 888 353 1747 
Q 353 2609 779 3096 
Q 1206 3584 1959 3584 
z
" transform="scale(0.015625)"/>
       <path id="DejaVuSans-6e" d="M 3513 2113 
L 3513 0 
L 2938 0 
L 2938 2094 
Q 2938 2591 2744 2837 
Q 2550 3084 2163 3084 
Q 1697 3084 1428 2787 
Q 1159 2491 1159 1978 
L 1159 0 
L 581 0 
L 581 3500 
L 1159 3500 
L 1159 2956 
Q 1366 3272 1645 3428 
Q 1925 3584 2291 3584 
Q 2894 3584 3203 3211 
Q 3513 2838 3513 2113 
z
" transform="scale(0.015625)"/>
       <path id="DejaVuSans-67" d="M 2906 1791 
Q 2906 2416 2648 2759 
Q 2391 3103 1925 3103 
Q 1463 3103 1205 2759 
Q 947 2416 947 1791 
Q 947 1169 1205 825 
Q 1463 481 1925 481 
Q 2391 481 2648 825 
Q 2906 1169 2906 1791 
z
M 3481 434 
Q 3481 -459 3084 -895 
Q 2688 -1331 1869 -1331 
Q 1566 -1331 1297 -1286 
Q 1028 -1241 775 -1147 
L 775 -588 
Q 1028 -725 1275 -790 
Q 1522 -856 1778 -856 
Q 2344 -856 2625 -561 
Q 2906 -266 2906 331 
L 2906 616 
Q 2728 306 2450 153 
Q 2172 0 1784 0 
Q 1141 0 747 490 
Q 353 981 353 1791 
Q 353 2603 747 3093 
Q 1141 3584 1784 3584 
Q 2172 3584 2450 3431 
Q 2728 3278 2906 2969 
L 2906 3500 
L 3481 3500 
L 3481 434 
z
" transform="scale(0.015625)"/>
       <path id="DejaVuSans-69" d="M 603 3500 
L 1178 3500 
L 1178 0 
L 603 0 
L 603 3500 
z
M 603 4863 
L 1178 4863 
L 1178 4134 
L 603 4134 
L 603 4863 
z
" transform="scale(0.015625)"/>
       <path id="DejaVuSans-74" d="M 1172 4494 
L 1172 3500 
L 2356 3500 
L 2356 3053 
L 1172 3053 
L 1172 1153 
Q 1172 725 1289 603 
Q 1406 481 1766 481 
L 2356 481 
L 2356 0 
L 1766 0 
Q 1100 0 847 248 
Q 594 497 594 1153 
L 594 3053 
L 172 3053 
L 172 3500 
L 594 3500 
L 594 4494 
L 1172 4494 
z
" transform="scale(0.015625)"/>
       <path id="DejaVuSans-75" d="M 544 1381 
L 544 3500 
L 1119 3500 
L 1119 1403 
Q 1119 906 1312 657 
Q 1506 409 1894 409 
Q 2359 409 2629 706 
Q 2900 1003 2900 1516 
L 2900 3500 
L 3475 3500 
L 3475 0 
L 2900 0 
L 2900 538 
Q 2691 219 2414 64 
Q 2138 -91 1772 -91 
Q 1169 -91 856 284 
Q 544 659 544 1381 
z
M 1991 3584 
L 1991 3584 
z
" transform="scale(0.015625)"/>
       <path id="DejaVuSans-64" d="M 2906 2969 
L 2906 4863 
L 3481 4863 
L 3481 0 
L 2906 0 
L 2906 525 
Q 2725 213 2448 61 
Q 2172 -91 1784 -91 
Q 1150 -91 751 415 
Q 353 922 353 1747 
Q 353 2572 751 3078 
Q 1150 3584 1784 3584 
Q 2172 3584 2448 3432 
Q 2725 3281 2906 2969 
z
M 947 1747 
Q 947 1113 1208 752 
Q 1469 391 1925 391 
Q 2381 391 2643 752 
Q 2906 1113 2906 1747 
Q 2906 2381 2643 2742 
Q 2381 3103 1925 3103 
Q 1469 3103 1208 2742 
Q 947 2381 947 1747 
z
" transform="scale(0.015625)"/>
       <path id="DejaVuSans-65" d="M 3597 1894 
L 3597 1613 
L 953 1613 
Q 991 1019 1311 708 
Q 1631 397 2203 397 
Q 2534 397 2845 478 
Q 3156 559 3463 722 
L 3463 178 
Q 3153 47 2828 -22 
Q 2503 -91 2169 -91 
Q 1331 -91 842 396 
Q 353 884 353 1716 
Q 353 2575 817 3079 
Q 1281 3584 2069 3584 
Q 2775 3584 3186 3129 
Q 3597 2675 3597 1894 
z
M 3022 2063 
Q 3016 2534 2758 2815 
Q 2500 3097 2075 3097 
Q 1594 3097 1305 2825 
Q 1016 2553 972 2059 
L 3022 2063 
z
" transform="scale(0.015625)"/>
       <path id="DejaVuSans-20" transform="scale(0.015625)"/>
       <path id="DejaVuSans-5b" d="M 550 4863 
L 1875 4863 
L 1875 4416 
L 1125 4416 
L 1125 -397 
L 1875 -397 
L 1875 -844 
L 550 -844 
L 550 4863 
z
" transform="scale(0.015625)"/>
       <path id="DejaVuSans-b0" d="M 1600 4347 
Q 1350 4347 1178 4173 
Q 1006 4000 1006 3750 
Q 1006 3503 1178 3333 
Q 1350 3163 1600 3163 
Q 1850 3163 2022 3333 
Q 2194 3503 2194 3750 
Q 2194 3997 2020 4172 
Q 1847 4347 1600 4347 
z
M 1600 4750 
Q 1800 4750 1984 4673 
Q 2169 4597 2303 4453 
Q 2447 4313 2519 4134 
Q 2591 3956 2591 3750 
Q 2591 3338 2302 3052 
Q 2013 2766 1594 2766 
Q 1172 2766 890 3047 
Q 609 3328 609 3750 
Q 609 4169 896 4459 
Q 1184 4750 1600 4750 
z
" transform="scale(0.015625)"/>
       <path id="DejaVuSans-5d" d="M 1947 4863 
L 1947 -844 
L 622 -844 
L 622 -397 
L 1369 -397 
L 1369 4416 
L 622 4416 
L 622 4863 
L 1947 4863 
z
" transform="scale(0.015625)"/>
      </defs>
      <use xlink:href="#DejaVuSans-4c"/>
      <use xlink:href="#DejaVuSans-6f" x="53.962891"/>
      <use xlink:href="#DejaVuSans-6e" x="115.144531"/>
      <use xlink:href="#DejaVuSans-67" x="178.523438"/>
      <use xlink:href="#DejaVuSans-69" x="242"/>
      <use xlink:href="#DejaVuSans-74" x="269.783203"/>
      <use xlink:href="#DejaVuSans-75" x="308.992188"/>
      <use xlink:href="#DejaVuSans-64" x="372.371094"/>
      <use xlink:href="#DejaVuSans-65" x="435.847656"/>
      <use xlink:href="#DejaVuSans-20" x="497.371094"/>
      <use xlink:href="#DejaVuSans-5b" x="529.158203"/>
      <use xlink:href="#DejaVuSans-b0" x="568.171875"/>
      <use xlink:href="#DejaVuSans-5d" x="618.171875"/>
     </g>
    </g>
   </g>
   <g id="matplotlib.axis_2">
    <g id="ytick_1">
     <g id="line2d_9">
      <path d="M 66.62 167.988695 
L 237.312503 167.988695 
" clip-path="url(#pa3de085afd)" style="fill: none; stroke: #b0b0b0; stroke-width: 0.8; stroke-linecap: square"/>
     </g>
     <g id="line2d_10">
      <defs>
       <path id="m0139c68858" d="M 0 0 
L -3.5 0 
" style="stroke: #000000; stroke-width: 0.8"/>
      </defs>
      <g>
       <use xlink:href="#m0139c68858" x="66.62" y="167.988695" style="stroke: #000000; stroke-width: 0.8"/>
      </g>
     </g>
     <g id="text_6">
      <!-- 50.001 -->
      <g transform="translate(24.629375 171.787913) scale(0.1 -0.1)">
       <use xlink:href="#DejaVuSans-35"/>
       <use xlink:href="#DejaVuSans-30" x="63.623047"/>
       <use xlink:href="#DejaVuSans-2e" x="127.246094"/>
       <use xlink:href="#DejaVuSans-30" x="159.033203"/>
       <use xlink:href="#DejaVuSans-30" x="222.65625"/>
       <use xlink:href="#DejaVuSans-31" x="286.279297"/>
      </g>
     </g>
    </g>
    <g id="ytick_2">
     <g id="line2d_11">
      <path d="M 66.62 142.438512 
L 237.312503 142.438512 
" clip-path="url(#pa3de085afd)" style="fill: none; stroke: #b0b0b0; stroke-width: 0.8; stroke-linecap: square"/>
     </g>
     <g id="line2d_12">
      <g>
       <use xlink:href="#m0139c68858" x="66.62" y="142.438512" style="stroke: #000000; stroke-width: 0.8"/>
      </g>
     </g>
     <g id="text_7">
      <!-- 50.002 -->
      <g transform="translate(24.629375 146.23773) scale(0.1 -0.1)">
       <defs>
        <path id="DejaVuSans-32" d="M 1228 531 
L 3431 531 
L 3431 0 
L 469 0 
L 469 531 
Q 828 903 1448 1529 
Q 2069 2156 2228 2338 
Q 2531 2678 2651 2914 
Q 2772 3150 2772 3378 
Q 2772 3750 2511 3984 
Q 2250 4219 1831 4219 
Q 1534 4219 1204 4116 
Q 875 4013 500 3803 
L 500 4441 
Q 881 4594 1212 4672 
Q 1544 4750 1819 4750 
Q 2544 4750 2975 4387 
Q 3406 4025 3406 3419 
Q 3406 3131 3298 2873 
Q 3191 2616 2906 2266 
Q 2828 2175 2409 1742 
Q 1991 1309 1228 531 
z
" transform="scale(0.015625)"/>
       </defs>
       <use xlink:href="#DejaVuSans-35"/>
       <use xlink:href="#DejaVuSans-30" x="63.623047"/>
       <use xlink:href="#DejaVuSans-2e" x="127.246094"/>
       <use xlink:href="#DejaVuSans-30" x="159.033203"/>
       <use xlink:href="#DejaVuSans-30" x="222.65625"/>
       <use xlink:href="#DejaVuSans-32" x="286.279297"/>
      </g>
     </g>
    </g>
    <g id="ytick_3">
     <g id="line2d_13">
      <path d="M 66.62 116.888328 
L 237.312503 116.888328 
" clip-path="url(#pa3de085afd)" style="fill: none; stroke: #b0b0b0; stroke-width: 0.8; stroke-linecap: square"/>
     </g>
     <g id="line2d_14">
      <g>
       <use xlink:href="#m0139c68858" x="66.62" y="116.888328" style="stroke: #000000; stroke-width: 0.8"/>
      </g>
     </g>
     <g id="text_8">
      <!-- 50.003 -->
      <g transform="translate(24.629375 120.687547) scale(0.1 -0.1)">
       <use xlink:href="#DejaVuSans-35"/>
       <use xlink:href="#DejaVuSans-30" x="63.623047"/>
       <use xlink:href="#DejaVuSans-2e" x="127.246094"/>
       <use xlink:href="#DejaVuSans-30" x="159.033203"/>
       <use xlink:href="#DejaVuSans-30" x="222.65625"/>
       <use xlink:href="#DejaVuSans-33" x="286.279297"/>
      </g>
     </g>
    </g>
    <g id="ytick_4">
     <g id="line2d_15">
      <path d="M 66.62 91.338145 
L 237.312503 91.338145 
" clip-path="url(#pa3de085afd)" style="fill: none; stroke: #b0b0b0; stroke-width: 0.8; stroke-linecap: square"/>
     </g>
     <g id="line2d_16">
      <g>
       <use xlink:href="#m0139c68858" x="66.62" y="91.338145" style="stroke: #000000; stroke-width: 0.8"/>
      </g>
     </g>
     <g id="text_9">
      <!-- 50.004 -->
      <g transform="translate(24.629375 95.137364) scale(0.1 -0.1)">
       <use xlink:href="#DejaVuSans-35"/>
       <use xlink:href="#DejaVuSans-30" x="63.623047"/>
       <use xlink:href="#DejaVuSans-2e" x="127.246094"/>
       <use xlink:href="#DejaVuSans-30" x="159.033203"/>
       <use xlink:href="#DejaVuSans-30" x="222.65625"/>
       <use xlink:href="#DejaVuSans-34" x="286.279297"/>
      </g>
     </g>
    </g>
    <g id="ytick_5">
     <g id="line2d_17">
      <path d="M 66.62 65.787962 
L 237.312503 65.787962 
" clip-path="url(#pa3de085afd)" style="fill: none; stroke: #b0b0b0; stroke-width: 0.8; stroke-linecap: square"/>
     </g>
     <g id="line2d_18">
      <g>
       <use xlink:href="#m0139c68858" x="66.62" y="65.787962" style="stroke: #000000; stroke-width: 0.8"/>
      </g>
     </g>
     <g id="text_10">
      <!-- 50.005 -->
      <g transform="translate(24.629375 69.587181) scale(0.1 -0.1)">
       <use xlink:href="#DejaVuSans-35"/>
       <use xlink:href="#DejaVuSans-30" x="63.623047"/>
       <use xlink:href="#DejaVuSans-2e" x="127.246094"/>
       <use xlink:href="#DejaVuSans-30" x="159.033203"/>
       <use xlink:href="#DejaVuSans-30" x="222.65625"/>
       <use xlink:href="#DejaVuSans-35" x="286.279297"/>
      </g>
     </g>
    </g>
    <g id="ytick_6">
     <g id="line2d_19">
      <path d="M 66.62 40.237779 
L 237.312503 40.237779 
" clip-path="url(#pa3de085afd)" style="fill: none; stroke: #b0b0b0; stroke-width: 0.8; stroke-linecap: square"/>
     </g>
     <g id="line2d_20">
      <g>
       <use xlink:href="#m0139c68858" x="66.62" y="40.237779" style="stroke: #000000; stroke-width: 0.8"/>
      </g>
     </g>
     <g id="text_11">
      <!-- 50.006 -->
      <g transform="translate(24.629375 44.036998) scale(0.1 -0.1)">
       <defs>
        <path id="DejaVuSans-36" d="M 2113 2584 
Q 1688 2584 1439 2293 
Q 1191 2003 1191 1497 
Q 1191 994 1439 701 
Q 1688 409 2113 409 
Q 2538 409 2786 701 
Q 3034 994 3034 1497 
Q 3034 2003 2786 2293 
Q 2538 2584 2113 2584 
z
M 3366 4563 
L 3366 3988 
Q 3128 4100 2886 4159 
Q 2644 4219 2406 4219 
Q 1781 4219 1451 3797 
Q 1122 3375 1075 2522 
Q 1259 2794 1537 2939 
Q 1816 3084 2150 3084 
Q 2853 3084 3261 2657 
Q 3669 2231 3669 1497 
Q 3669 778 3244 343 
Q 2819 -91 2113 -91 
Q 1303 -91 875 529 
Q 447 1150 447 2328 
Q 447 3434 972 4092 
Q 1497 4750 2381 4750 
Q 2619 4750 2861 4703 
Q 3103 4656 3366 4563 
z
" transform="scale(0.015625)"/>
       </defs>
       <use xlink:href="#DejaVuSans-35"/>
       <use xlink:href="#DejaVuSans-30" x="63.623047"/>
       <use xlink:href="#DejaVuSans-2e" x="127.246094"/>
       <use xlink:href="#DejaVuSans-30" x="159.033203"/>
       <use xlink:href="#DejaVuSans-30" x="222.65625"/>
       <use xlink:href="#DejaVuSans-36" x="286.279297"/>
      </g>
     </g>
    </g>
    <g id="ytick_7">
     <g id="line2d_21">
      <path d="M 66.62 14.687596 
L 237.312503 14.687596 
" clip-path="url(#pa3de085afd)" style="fill: none; stroke: #b0b0b0; stroke-width: 0.8; stroke-linecap: square"/>
     </g>
     <g id="line2d_22">
      <g>
       <use xlink:href="#m0139c68858" x="66.62" y="14.687596" style="stroke: #000000; stroke-width: 0.8"/>
      </g>
     </g>
     <g id="text_12">
      <!-- 50.007 -->
      <g transform="translate(24.629375 18.486815) scale(0.1 -0.1)">
       <defs>
        <path id="DejaVuSans-37" d="M 525 4666 
L 3525 4666 
L 3525 4397 
L 1831 0 
L 1172 0 
L 2766 4134 
L 525 4134 
L 525 4666 
z
" transform="scale(0.015625)"/>
       </defs>
       <use xlink:href="#DejaVuSans-35"/>
       <use xlink:href="#DejaVuSans-30" x="63.623047"/>
       <use xlink:href="#DejaVuSans-2e" x="127.246094"/>
       <use xlink:href="#DejaVuSans-30" x="159.033203"/>
       <use xlink:href="#DejaVuSans-30" x="222.65625"/>
       <use xlink:href="#DejaVuSans-37" x="286.279297"/>
      </g>
     </g>
    </g>
    <g id="text_13">
     <!-- Latitude [°] -->
     <g transform="translate(18.549688 121.504563) rotate(-90) scale(0.1 -0.1)">
      <defs>
       <path id="DejaVuSans-61" d="M 2194 1759 
Q 1497 1759 1228 1600 
Q 959 1441 959 1056 
Q 959 750 1161 570 
Q 1363 391 1709 391 
Q 2188 391 2477 730 
Q 2766 1069 2766 1631 
L 2766 1759 
L 2194 1759 
z
M 3341 1997 
L 3341 0 
L 2766 0 
L 2766 531 
Q 2569 213 2275 61 
Q 1981 -91 1556 -91 
Q 1019 -91 701 211 
Q 384 513 384 1019 
Q 384 1609 779 1909 
Q 1175 2209 1959 2209 
L 2766 2209 
L 2766 2266 
Q 2766 2663 2505 2880 
Q 2244 3097 1772 3097 
Q 1472 3097 1187 3025 
Q 903 2953 641 2809 
L 641 3341 
Q 956 3463 1253 3523 
Q 1550 3584 1831 3584 
Q 2591 3584 2966 3190 
Q 3341 2797 3341 1997 
z
" transform="scale(0.015625)"/>
      </defs>
      <use xlink:href="#DejaVuSans-4c"/>
      <use xlink:href="#DejaVuSans-61" x="55.712891"/>
      <use xlink:href="#DejaVuSans-74" x="116.992188"/>
      <use xlink:href="#DejaVuSans-69" x="156.201172"/>
      <use xlink:href="#DejaVuSans-74" x="183.984375"/>
      <use xlink:href="#DejaVuSans-75" x="223.193359"/>
      <use xlink:href="#DejaVuSans-64" x="286.572266"/>
      <use xlink:href="#DejaVuSans-65" x="350.048828"/>
      <use xlink:href="#DejaVuSans-20" x="411.572266"/>
      <use xlink:href="#DejaVuSans-5b" x="443.359375"/>
      <use xlink:href="#DejaVuSans-b0" x="482.373047"/>
      <use xlink:href="#DejaVuSans-5d" x="532.373047"/>
     </g>
    </g>
   </g>
   <g id="patch_3">
    <path d="M 66.62 174.04 
L 66.62 11.830064 
" style="fill: none; stroke: #000000; stroke-width: 0.8; stroke-linejoin: miter; stroke-linecap: square"/>
   </g>
   <g id="patch_4">
    <path d="M 237.312503 174.04 
L 237.312503 11.830064 
" style="fill: none; stroke: #000000; stroke-width: 0.8; stroke-linejoin: miter; stroke-linecap: square"/>
   </g>
   <g id="patch_5">
    <path d="M 66.62 174.04 
L 237.312503 174.04 
" style="fill: none; stroke: #000000; stroke-width: 0.8; stroke-linejoin: miter; stroke-linecap: square"/>
   </g>
   <g id="patch_6">
    <path d="M 66.62 11.830064 
L 237.312503 11.830064 
" style="fill: none; stroke: #000000; stroke-width: 0.8; stroke-linejoin: miter; stroke-linecap: square"/>
   </g>
   <g id="text_14">
    <!-- 0 -->
    <g transform="translate(78.391897 162.853108) scale(0.1 -0.1)">
     <use xlink:href="#DejaVuSans-30"/>
    </g>
   </g>
   <g id="text_15">
    <!-- 1 -->
    <g transform="translate(86.303907 150.435719) scale(0.1 -0.1)">
     <use xlink:href="#DejaVuSans-31"/>
    </g>
   </g>
   <g id="text_16">
    <!-- 2 -->
    <g transform="translate(94.331345 136.408668) scale(0.1 -0.1)">
     <use xlink:href="#DejaVuSans-32"/>
    </g>
   </g>
   <g id="text_17">
    <!-- 3 -->
    <g transform="translate(111.928749 109.299924) scale(0.1 -0.1)">
     <use xlink:href="#DejaVuSans-33"/>
    </g>
   </g>
   <g id="text_18">
    <!-- 4 -->
    <g transform="translate(120.564803 96.856985) scale(0.1 -0.1)">
     <use xlink:href="#DejaVuSans-34"/>
    </g>
   </g>
   <g id="text_19">
    <!-- 5 -->
    <g transform="translate(137.910365 71.817805) scale(0.1 -0.1)">
     <use xlink:href="#DejaVuSans-35"/>
    </g>
   </g>
   <g id="text_20">
    <!-- 6 -->
    <g transform="translate(149.935782 54.36703) scale(0.1 -0.1)">
     <use xlink:href="#DejaVuSans-36"/>
    </g>
   </g>
   <g id="text_21">
    <!-- 7 -->
    <g transform="translate(164.269743 43.763704) scale(0.1 -0.1)">
     <use xlink:href="#DejaVuSans-37"/>
    </g>
   </g>
   <g id="text_22">
    <!-- 8 -->
    <g transform="translate(181.153596 37.759411) scale(0.1 -0.1)">
     <defs>
      <path id="DejaVuSans-38" d="M 2034 2216 
Q 1584 2216 1326 1975 
Q 1069 1734 1069 1313 
Q 1069 891 1326 650 
Q 1584 409 2034 409 
Q 2484 409 2743 651 
Q 3003 894 3003 1313 
Q 3003 1734 2745 1975 
Q 2488 2216 2034 2216 
z
M 1403 2484 
Q 997 2584 770 2862 
Q 544 3141 544 3541 
Q 544 4100 942 4425 
Q 1341 4750 2034 4750 
Q 2731 4750 3128 4425 
Q 3525 4100 3525 3541 
Q 3525 3141 3298 2862 
Q 3072 2584 2669 2484 
Q 3125 2378 3379 2068 
Q 3634 1759 3634 1313 
Q 3634 634 3220 271 
Q 2806 -91 2034 -91 
Q 1263 -91 848 271 
Q 434 634 434 1313 
Q 434 1759 690 2068 
Q 947 2378 1403 2484 
z
M 1172 3481 
Q 1172 3119 1398 2916 
Q 1625 2713 2034 2713 
Q 2441 2713 2670 2916 
Q 2900 3119 2900 3481 
Q 2900 3844 2670 4047 
Q 2441 4250 2034 4250 
Q 1625 4250 1398 4047 
Q 1172 3844 1172 3481 
z
" transform="scale(0.015625)"/>
     </defs>
     <use xlink:href="#DejaVuSans-38"/>
    </g>
   </g>
   <g id="text_23">
    <!-- 9 -->
    <g transform="translate(200.115139 32.470523) scale(0.1 -0.1)">
     <defs>
      <path id="DejaVuSans-39" d="M 703 97 
L 703 672 
Q 941 559 1184 500 
Q 1428 441 1663 441 
Q 2288 441 2617 861 
Q 2947 1281 2994 2138 
Q 2813 1869 2534 1725 
Q 2256 1581 1919 1581 
Q 1219 1581 811 2004 
Q 403 2428 403 3163 
Q 403 3881 828 4315 
Q 1253 4750 1959 4750 
Q 2769 4750 3195 4129 
Q 3622 3509 3622 2328 
Q 3622 1225 3098 567 
Q 2575 -91 1691 -91 
Q 1453 -91 1209 -44 
Q 966 3 703 97 
z
M 1959 2075 
Q 2384 2075 2632 2365 
Q 2881 2656 2881 3163 
Q 2881 3666 2632 3958 
Q 2384 4250 1959 4250 
Q 1534 4250 1286 3958 
Q 1038 3666 1038 3163 
Q 1038 2656 1286 2365 
Q 1534 2075 1959 2075 
z
" transform="scale(0.015625)"/>
     </defs>
     <use xlink:href="#DejaVuSans-39"/>
    </g>
   </g>
   <g id="text_24">
    <!-- 10 -->
    <g transform="translate(222.319137 24.677718) scale(0.1 -0.1)">
     <use xlink:href="#DejaVuSans-31"/>
     <use xlink:href="#DejaVuSans-30" x="63.623047"/>
    </g>
   </g>
   <g id="text_25">
    <!-- 11 -->
    <g transform="translate(225.540606 23.016956) scale(0.1 -0.1)">
     <use xlink:href="#DejaVuSans-31"/>
     <use xlink:href="#DejaVuSans-31" x="63.623047"/>
    </g>
   </g>
  </g>
  <g id="axes_2">
   <g id="patch_7">
    <path d="M 295.814995 174.04 
L 637.2 174.04 
L 637.2 11.830064 
L 295.814995 11.830064 
z
" style="fill: #ffffff"/>
   </g>
   <g id="PathCollection_13">
    <defs>
     <path id="m5edb020d0f" d="M -6.123724 0 
L 6.123724 0 
M 0 6.123724 
L 0 -6.123724 
" style="stroke: #000000; stroke-width: 1.5"/>
    </defs>
    <g clip-path="url(#pc18e37f14e)">
     <use xlink:href="#m5edb020d0f" x="319.358788" y="27.766108" style="stroke: #000000; stroke-width: 1.5"/>
    </g>
   </g>
   <g id="PathCollection_14">
    <g clip-path="url(#pc18e37f14e)">
     <use xlink:href="#m5edb020d0f" x="319.358788" y="25.052307" style="stroke: #000000; stroke-width: 1.5"/>
    </g>
   </g>
   <g id="PathCollection_15">
    <g clip-path="url(#pc18e37f14e)">
     <use xlink:href="#m5edb020d0f" x="319.358788" y="23.016956" style="stroke: #000000; stroke-width: 1.5"/>
    </g>
   </g>
   <g id="PathCollection_16">
    <g clip-path="url(#pc18e37f14e)">
     <use xlink:href="#m5edb020d0f" x="338.510786" y="30.102993" style="stroke: #000000; stroke-width: 1.5"/>
    </g>
   </g>
   <g id="PathCollection_17">
    <defs>
     <path id="mb58f7c18d3" d="M 0 3.535534 
C 0.937635 3.535534 1.836992 3.163008 2.5 2.5 
C 3.163008 1.836992 3.535534 0.937635 3.535534 0 
C 3.535534 -0.937635 3.163008 -1.836992 2.5 -2.5 
C 1.836992 -3.163008 0.937635 -3.535534 0 -3.535534 
C -0.937635 -3.535534 -1.836992 -3.163008 -2.5 -2.5 
C -3.163008 -1.836992 -3.535534 -0.937635 -3.535534 0 
C -3.535534 0.937635 -3.163008 1.836992 -2.5 2.5 
C -1.836992 3.163008 -0.937635 3.535534 0 3.535534 
z
" style="stroke: #000000"/>
    </defs>
    <g clip-path="url(#pc18e37f14e)">
     <use xlink:href="#mb58f7c18d3" x="338.510786" y="42.541249" style="stroke: #000000"/>
    </g>
   </g>
   <g id="PathCollection_18">
    <g clip-path="url(#pc18e37f14e)">
     <use xlink:href="#m5edb020d0f" x="359.053016" y="44.651983" style="stroke: #000000; stroke-width: 1.5"/>
    </g>
   </g>
   <g id="PathCollection_19">
    <g clip-path="url(#pc18e37f14e)">
     <use xlink:href="#mb58f7c18d3" x="359.053016" y="57.090239" style="stroke: #000000"/>
    </g>
   </g>
   <g id="PathCollection_20">
    <g clip-path="url(#pc18e37f14e)">
     <use xlink:href="#m5edb020d0f" x="401.211028" y="55.808722" style="stroke: #000000; stroke-width: 1.5"/>
    </g>
   </g>
   <g id="PathCollection_21">
    <g clip-path="url(#pc18e37f14e)">
     <use xlink:href="#mb58f7c18d3" x="401.211028" y="68.246978" style="stroke: #000000"/>
    </g>
   </g>
   <g id="PathCollection_22">
    <g clip-path="url(#pc18e37f14e)">
     <use xlink:href="#m5edb020d0f" x="421.247722" y="57.693306" style="stroke: #000000; stroke-width: 1.5"/>
    </g>
   </g>
   <g id="PathCollection_23">
    <g clip-path="url(#pc18e37f14e)">
     <use xlink:href="#mb58f7c18d3" x="421.247722" y="70.131562" style="stroke: #000000"/>
    </g>
   </g>
   <g id="PathCollection_24">
    <g clip-path="url(#pc18e37f14e)">
     <use xlink:href="#m5edb020d0f" x="461.549169" y="55.884105" style="stroke: #000000; stroke-width: 1.5"/>
    </g>
   </g>
   <g id="PathCollection_25">
    <g clip-path="url(#pc18e37f14e)">
     <use xlink:href="#mb58f7c18d3" x="461.549169" y="68.322361" style="stroke: #000000"/>
    </g>
   </g>
   <g id="PathCollection_26">
    <g clip-path="url(#pc18e37f14e)">
     <use xlink:href="#m5edb020d0f" x="489.557786" y="71.262313" style="stroke: #000000; stroke-width: 1.5"/>
    </g>
   </g>
   <g id="PathCollection_27">
    <g clip-path="url(#pc18e37f14e)">
     <use xlink:href="#mb58f7c18d3" x="489.557786" y="83.700569" style="stroke: #000000"/>
    </g>
   </g>
   <g id="PathCollection_28">
    <g clip-path="url(#pc18e37f14e)">
     <use xlink:href="#m5edb020d0f" x="515.418402" y="88.223571" style="stroke: #000000; stroke-width: 1.5"/>
    </g>
   </g>
   <g id="PathCollection_29">
    <g clip-path="url(#pc18e37f14e)">
     <use xlink:href="#mb58f7c18d3" x="515.418402" y="100.661827" style="stroke: #000000"/>
    </g>
   </g>
   <g id="PathCollection_30">
    <g clip-path="url(#pc18e37f14e)">
     <use xlink:href="#m5edb020d0f" x="541.861598" y="100.963361" style="stroke: #000000; stroke-width: 1.5"/>
    </g>
   </g>
   <g id="PathCollection_31">
    <g clip-path="url(#pc18e37f14e)">
     <use xlink:href="#mb58f7c18d3" x="541.861598" y="113.401617" style="stroke: #000000"/>
    </g>
   </g>
   <g id="PathCollection_32">
    <g clip-path="url(#pc18e37f14e)">
     <use xlink:href="#m5edb020d0f" x="571.495098" y="113.0247" style="stroke: #000000; stroke-width: 1.5"/>
    </g>
   </g>
   <g id="PathCollection_33">
    <g clip-path="url(#pc18e37f14e)">
     <use xlink:href="#mb58f7c18d3" x="571.495098" y="125.462956" style="stroke: #000000"/>
    </g>
   </g>
   <g id="PathCollection_34">
    <g clip-path="url(#pc18e37f14e)">
     <use xlink:href="#m5edb020d0f" x="608.004221" y="146.34415" style="stroke: #000000; stroke-width: 1.5"/>
    </g>
   </g>
   <g id="PathCollection_35">
    <g clip-path="url(#pc18e37f14e)">
     <use xlink:href="#mb58f7c18d3" x="608.004221" y="158.782406" style="stroke: #000000"/>
    </g>
   </g>
   <g id="PathCollection_36">
    <g clip-path="url(#pc18e37f14e)">
     <use xlink:href="#m5edb020d0f" x="613.656207" y="150.414852" style="stroke: #000000; stroke-width: 1.5"/>
    </g>
   </g>
   <g id="PathCollection_37">
    <g clip-path="url(#pc18e37f14e)">
     <use xlink:href="#mb58f7c18d3" x="613.656207" y="162.853108" style="stroke: #000000"/>
    </g>
   </g>
   <g id="matplotlib.axis_3">
    <g id="xtick_5">
     <g id="line2d_23">
      <path d="M 319.358788 174.04 
L 319.358788 11.830064 
" clip-path="url(#pc18e37f14e)" style="fill: none; stroke: #b0b0b0; stroke-width: 0.8; stroke-linecap: square"/>
     </g>
     <g id="line2d_24">
      <g>
       <use xlink:href="#mf621b34cc6" x="319.358788" y="174.04" style="stroke: #000000; stroke-width: 0.8"/>
      </g>
     </g>
     <g id="text_26">
      <!-- 0 -->
      <g transform="translate(316.177538 188.638438) scale(0.1 -0.1)">
       <use xlink:href="#DejaVuSans-30"/>
      </g>
     </g>
    </g>
    <g id="xtick_6">
     <g id="line2d_25">
      <path d="M 369.441857 174.04 
L 369.441857 11.830064 
" clip-path="url(#pc18e37f14e)" style="fill: none; stroke: #b0b0b0; stroke-width: 0.8; stroke-linecap: square"/>
     </g>
     <g id="line2d_26">
      <g>
       <use xlink:href="#mf621b34cc6" x="369.441857" y="174.04" style="stroke: #000000; stroke-width: 0.8"/>
      </g>
     </g>
     <g id="text_27">
      <!-- 200 -->
      <g transform="translate(359.898107 188.638438) scale(0.1 -0.1)">
       <use xlink:href="#DejaVuSans-32"/>
       <use xlink:href="#DejaVuSans-30" x="63.623047"/>
       <use xlink:href="#DejaVuSans-30" x="127.246094"/>
      </g>
     </g>
    </g>
    <g id="xtick_7">
     <g id="line2d_27">
      <path d="M 419.524926 174.04 
L 419.524926 11.830064 
" clip-path="url(#pc18e37f14e)" style="fill: none; stroke: #b0b0b0; stroke-width: 0.8; stroke-linecap: square"/>
     </g>
     <g id="line2d_28">
      <g>
       <use xlink:href="#mf621b34cc6" x="419.524926" y="174.04" style="stroke: #000000; stroke-width: 0.8"/>
      </g>
     </g>
     <g id="text_28">
      <!-- 400 -->
      <g transform="translate(409.981176 188.638438) scale(0.1 -0.1)">
       <use xlink:href="#DejaVuSans-34"/>
       <use xlink:href="#DejaVuSans-30" x="63.623047"/>
       <use xlink:href="#DejaVuSans-30" x="127.246094"/>
      </g>
     </g>
    </g>
    <g id="xtick_8">
     <g id="line2d_29">
      <path d="M 469.607995 174.04 
L 469.607995 11.830064 
" clip-path="url(#pc18e37f14e)" style="fill: none; stroke: #b0b0b0; stroke-width: 0.8; stroke-linecap: square"/>
     </g>
     <g id="line2d_30">
      <g>
       <use xlink:href="#mf621b34cc6" x="469.607995" y="174.04" style="stroke: #000000; stroke-width: 0.8"/>
      </g>
     </g>
     <g id="text_29">
      <!-- 600 -->
      <g transform="translate(460.064245 188.638438) scale(0.1 -0.1)">
       <use xlink:href="#DejaVuSans-36"/>
       <use xlink:href="#DejaVuSans-30" x="63.623047"/>
       <use xlink:href="#DejaVuSans-30" x="127.246094"/>
      </g>
     </g>
    </g>
    <g id="xtick_9">
     <g id="line2d_31">
      <path d="M 519.691064 174.04 
L 519.691064 11.830064 
" clip-path="url(#pc18e37f14e)" style="fill: none; stroke: #b0b0b0; stroke-width: 0.8; stroke-linecap: square"/>
     </g>
     <g id="line2d_32">
      <g>
       <use xlink:href="#mf621b34cc6" x="519.691064" y="174.04" style="stroke: #000000; stroke-width: 0.8"/>
      </g>
     </g>
     <g id="text_30">
      <!-- 800 -->
      <g transform="translate(510.147314 188.638438) scale(0.1 -0.1)">
       <use xlink:href="#DejaVuSans-38"/>
       <use xlink:href="#DejaVuSans-30" x="63.623047"/>
       <use xlink:href="#DejaVuSans-30" x="127.246094"/>
      </g>
     </g>
    </g>
    <g id="xtick_10">
     <g id="line2d_33">
      <path d="M 569.774133 174.04 
L 569.774133 11.830064 
" clip-path="url(#pc18e37f14e)" style="fill: none; stroke: #b0b0b0; stroke-width: 0.8; stroke-linecap: square"/>
     </g>
     <g id="line2d_34">
      <g>
       <use xlink:href="#mf621b34cc6" x="569.774133" y="174.04" style="stroke: #000000; stroke-width: 0.8"/>
      </g>
     </g>
     <g id="text_31">
      <!-- 1000 -->
      <g transform="translate(557.049133 188.638438) scale(0.1 -0.1)">
       <use xlink:href="#DejaVuSans-31"/>
       <use xlink:href="#DejaVuSans-30" x="63.623047"/>
       <use xlink:href="#DejaVuSans-30" x="127.246094"/>
       <use xlink:href="#DejaVuSans-30" x="190.869141"/>
      </g>
     </g>
    </g>
    <g id="xtick_11">
     <g id="line2d_35">
      <path d="M 619.857202 174.04 
L 619.857202 11.830064 
" clip-path="url(#pc18e37f14e)" style="fill: none; stroke: #b0b0b0; stroke-width: 0.8; stroke-linecap: square"/>
     </g>
     <g id="line2d_36">
      <g>
       <use xlink:href="#mf621b34cc6" x="619.857202" y="174.04" style="stroke: #000000; stroke-width: 0.8"/>
      </g>
     </g>
     <g id="text_32">
      <!-- 1200 -->
      <g transform="translate(607.132202 188.638438) scale(0.1 -0.1)">
       <use xlink:href="#DejaVuSans-31"/>
       <use xlink:href="#DejaVuSans-32" x="63.623047"/>
       <use xlink:href="#DejaVuSans-30" x="127.246094"/>
       <use xlink:href="#DejaVuSans-30" x="190.869141"/>
      </g>
     </g>
    </g>
    <g id="text_33">
     <!-- Transmitting distance [m] -->
     <g transform="translate(402.249685 202.316563) scale(0.1 -0.1)">
      <defs>
       <path id="DejaVuSans-54" d="M -19 4666 
L 3928 4666 
L 3928 4134 
L 2272 4134 
L 2272 0 
L 1638 0 
L 1638 4134 
L -19 4134 
L -19 4666 
z
" transform="scale(0.015625)"/>
       <path id="DejaVuSans-72" d="M 2631 2963 
Q 2534 3019 2420 3045 
Q 2306 3072 2169 3072 
Q 1681 3072 1420 2755 
Q 1159 2438 1159 1844 
L 1159 0 
L 581 0 
L 581 3500 
L 1159 3500 
L 1159 2956 
Q 1341 3275 1631 3429 
Q 1922 3584 2338 3584 
Q 2397 3584 2469 3576 
Q 2541 3569 2628 3553 
L 2631 2963 
z
" transform="scale(0.015625)"/>
       <path id="DejaVuSans-73" d="M 2834 3397 
L 2834 2853 
Q 2591 2978 2328 3040 
Q 2066 3103 1784 3103 
Q 1356 3103 1142 2972 
Q 928 2841 928 2578 
Q 928 2378 1081 2264 
Q 1234 2150 1697 2047 
L 1894 2003 
Q 2506 1872 2764 1633 
Q 3022 1394 3022 966 
Q 3022 478 2636 193 
Q 2250 -91 1575 -91 
Q 1294 -91 989 -36 
Q 684 19 347 128 
L 347 722 
Q 666 556 975 473 
Q 1284 391 1588 391 
Q 1994 391 2212 530 
Q 2431 669 2431 922 
Q 2431 1156 2273 1281 
Q 2116 1406 1581 1522 
L 1381 1569 
Q 847 1681 609 1914 
Q 372 2147 372 2553 
Q 372 3047 722 3315 
Q 1072 3584 1716 3584 
Q 2034 3584 2315 3537 
Q 2597 3491 2834 3397 
z
" transform="scale(0.015625)"/>
       <path id="DejaVuSans-6d" d="M 3328 2828 
Q 3544 3216 3844 3400 
Q 4144 3584 4550 3584 
Q 5097 3584 5394 3201 
Q 5691 2819 5691 2113 
L 5691 0 
L 5113 0 
L 5113 2094 
Q 5113 2597 4934 2840 
Q 4756 3084 4391 3084 
Q 3944 3084 3684 2787 
Q 3425 2491 3425 1978 
L 3425 0 
L 2847 0 
L 2847 2094 
Q 2847 2600 2669 2842 
Q 2491 3084 2119 3084 
Q 1678 3084 1418 2786 
Q 1159 2488 1159 1978 
L 1159 0 
L 581 0 
L 581 3500 
L 1159 3500 
L 1159 2956 
Q 1356 3278 1631 3431 
Q 1906 3584 2284 3584 
Q 2666 3584 2933 3390 
Q 3200 3197 3328 2828 
z
" transform="scale(0.015625)"/>
       <path id="DejaVuSans-63" d="M 3122 3366 
L 3122 2828 
Q 2878 2963 2633 3030 
Q 2388 3097 2138 3097 
Q 1578 3097 1268 2742 
Q 959 2388 959 1747 
Q 959 1106 1268 751 
Q 1578 397 2138 397 
Q 2388 397 2633 464 
Q 2878 531 3122 666 
L 3122 134 
Q 2881 22 2623 -34 
Q 2366 -91 2075 -91 
Q 1284 -91 818 406 
Q 353 903 353 1747 
Q 353 2603 823 3093 
Q 1294 3584 2113 3584 
Q 2378 3584 2631 3529 
Q 2884 3475 3122 3366 
z
" transform="scale(0.015625)"/>
      </defs>
      <use xlink:href="#DejaVuSans-54"/>
      <use xlink:href="#DejaVuSans-72" x="46.333984"/>
      <use xlink:href="#DejaVuSans-61" x="87.447266"/>
      <use xlink:href="#DejaVuSans-6e" x="148.726562"/>
      <use xlink:href="#DejaVuSans-73" x="212.105469"/>
      <use xlink:href="#DejaVuSans-6d" x="264.205078"/>
      <use xlink:href="#DejaVuSans-69" x="361.617188"/>
      <use xlink:href="#DejaVuSans-74" x="389.400391"/>
      <use xlink:href="#DejaVuSans-74" x="428.609375"/>
      <use xlink:href="#DejaVuSans-69" x="467.818359"/>
      <use xlink:href="#DejaVuSans-6e" x="495.601562"/>
      <use xlink:href="#DejaVuSans-67" x="558.980469"/>
      <use xlink:href="#DejaVuSans-20" x="622.457031"/>
      <use xlink:href="#DejaVuSans-64" x="654.244141"/>
      <use xlink:href="#DejaVuSans-69" x="717.720703"/>
      <use xlink:href="#DejaVuSans-73" x="745.503906"/>
      <use xlink:href="#DejaVuSans-74" x="797.603516"/>
      <use xlink:href="#DejaVuSans-61" x="836.8125"/>
      <use xlink:href="#DejaVuSans-6e" x="898.091797"/>
      <use xlink:href="#DejaVuSans-63" x="961.470703"/>
      <use xlink:href="#DejaVuSans-65" x="1016.451172"/>
      <use xlink:href="#DejaVuSans-20" x="1077.974609"/>
      <use xlink:href="#DejaVuSans-5b" x="1109.761719"/>
      <use xlink:href="#DejaVuSans-6d" x="1148.775391"/>
      <use xlink:href="#DejaVuSans-5d" x="1246.1875"/>
     </g>
    </g>
   </g>
   <g id="matplotlib.axis_4">
    <g id="ytick_8">
     <g id="line2d_37">
      <path d="M 295.814995 152.751736 
L 637.2 152.751736 
" clip-path="url(#pc18e37f14e)" style="fill: none; stroke: #b0b0b0; stroke-width: 0.8; stroke-linecap: square"/>
     </g>
     <g id="line2d_38">
      <g>
       <use xlink:href="#m0139c68858" x="295.814995" y="152.751736" style="stroke: #000000; stroke-width: 0.8"/>
      </g>
     </g>
     <g id="text_34">
      <!-- 290 -->
      <g transform="translate(269.727495 156.550955) scale(0.1 -0.1)">
       <use xlink:href="#DejaVuSans-32"/>
       <use xlink:href="#DejaVuSans-39" x="63.623047"/>
       <use xlink:href="#DejaVuSans-30" x="127.246094"/>
      </g>
     </g>
    </g>
    <g id="ytick_9">
     <g id="line2d_39">
      <path d="M 295.814995 115.060051 
L 637.2 115.060051 
" clip-path="url(#pc18e37f14e)" style="fill: none; stroke: #b0b0b0; stroke-width: 0.8; stroke-linecap: square"/>
     </g>
     <g id="line2d_40">
      <g>
       <use xlink:href="#m0139c68858" x="295.814995" y="115.060051" style="stroke: #000000; stroke-width: 0.8"/>
      </g>
     </g>
     <g id="text_35">
      <!-- 295 -->
      <g transform="translate(269.727495 118.85927) scale(0.1 -0.1)">
       <use xlink:href="#DejaVuSans-32"/>
       <use xlink:href="#DejaVuSans-39" x="63.623047"/>
       <use xlink:href="#DejaVuSans-35" x="127.246094"/>
      </g>
     </g>
    </g>
    <g id="ytick_10">
     <g id="line2d_41">
      <path d="M 295.814995 77.368366 
L 637.2 77.368366 
" clip-path="url(#pc18e37f14e)" style="fill: none; stroke: #b0b0b0; stroke-width: 0.8; stroke-linecap: square"/>
     </g>
     <g id="line2d_42">
      <g>
       <use xlink:href="#m0139c68858" x="295.814995" y="77.368366" style="stroke: #000000; stroke-width: 0.8"/>
      </g>
     </g>
     <g id="text_36">
      <!-- 300 -->
      <g transform="translate(269.727495 81.167585) scale(0.1 -0.1)">
       <use xlink:href="#DejaVuSans-33"/>
       <use xlink:href="#DejaVuSans-30" x="63.623047"/>
       <use xlink:href="#DejaVuSans-30" x="127.246094"/>
      </g>
     </g>
    </g>
    <g id="ytick_11">
     <g id="line2d_43">
      <path d="M 295.814995 39.676681 
L 637.2 39.676681 
" clip-path="url(#pc18e37f14e)" style="fill: none; stroke: #b0b0b0; stroke-width: 0.8; stroke-linecap: square"/>
     </g>
     <g id="line2d_44">
      <g>
       <use xlink:href="#m0139c68858" x="295.814995" y="39.676681" style="stroke: #000000; stroke-width: 0.8"/>
      </g>
     </g>
     <g id="text_37">
      <!-- 305 -->
      <g transform="translate(269.727495 43.475899) scale(0.1 -0.1)">
       <use xlink:href="#DejaVuSans-33"/>
       <use xlink:href="#DejaVuSans-30" x="63.623047"/>
       <use xlink:href="#DejaVuSans-35" x="127.246094"/>
      </g>
     </g>
    </g>
    <g id="text_38">
     <!-- Elevation [m] -->
     <g transform="translate(263.647807 126.521751) rotate(-90) scale(0.1 -0.1)">
      <defs>
       <path id="DejaVuSans-45" d="M 628 4666 
L 3578 4666 
L 3578 4134 
L 1259 4134 
L 1259 2753 
L 3481 2753 
L 3481 2222 
L 1259 2222 
L 1259 531 
L 3634 531 
L 3634 0 
L 628 0 
L 628 4666 
z
" transform="scale(0.015625)"/>
       <path id="DejaVuSans-6c" d="M 603 4863 
L 1178 4863 
L 1178 0 
L 603 0 
L 603 4863 
z
" transform="scale(0.015625)"/>
       <path id="DejaVuSans-76" d="M 191 3500 
L 800 3500 
L 1894 563 
L 2988 3500 
L 3597 3500 
L 2284 0 
L 1503 0 
L 191 3500 
z
" transform="scale(0.015625)"/>
      </defs>
      <use xlink:href="#DejaVuSans-45"/>
      <use xlink:href="#DejaVuSans-6c" x="63.183594"/>
      <use xlink:href="#DejaVuSans-65" x="90.966797"/>
      <use xlink:href="#DejaVuSans-76" x="152.490234"/>
      <use xlink:href="#DejaVuSans-61" x="211.669922"/>
      <use xlink:href="#DejaVuSans-74" x="272.949219"/>
      <use xlink:href="#DejaVuSans-69" x="312.158203"/>
      <use xlink:href="#DejaVuSans-6f" x="339.941406"/>
      <use xlink:href="#DejaVuSans-6e" x="401.123047"/>
      <use xlink:href="#DejaVuSans-20" x="464.501953"/>
      <use xlink:href="#DejaVuSans-5b" x="496.289062"/>
      <use xlink:href="#DejaVuSans-6d" x="535.302734"/>
      <use xlink:href="#DejaVuSans-5d" x="632.714844"/>
     </g>
    </g>
   </g>
   <g id="line2d_45">
    <path d="M 319.358788 29.198392 
L 320.726788 30.329143 
L 322.094788 31.535277 
L 323.462788 32.51526 
L 324.830788 33.646011 
L 326.198788 34.852145 
L 327.566787 36.058279 
L 328.934787 37.415179 
L 330.302787 38.470547 
L 331.670787 39.525914 
L 333.038787 40.355131 
L 334.406787 41.108965 
L 335.774787 41.787415 
L 337.142786 42.164332 
L 338.510786 42.541249 
" clip-path="url(#pc18e37f14e)" style="fill: none; stroke: #1b9e77; stroke-width: 1.5; stroke-linecap: square"/>
   </g>
   <g id="line2d_46">
    <path d="M 338.510786 174.04 
L 338.510786 11.830064 
" clip-path="url(#pc18e37f14e)" style="fill: none; stroke-dasharray: 5.55,2.4; stroke-dashoffset: 0; stroke: #808080; stroke-opacity: 0.5; stroke-width: 1.5"/>
   </g>
   <g id="line2d_47">
    <path d="M 319.358788 29.198392 
L 320.681929 30.329143 
L 322.00507 31.38451 
L 323.328211 32.364494 
L 324.651352 33.495244 
L 325.974493 34.550611 
L 327.297634 35.756745 
L 328.620775 37.038263 
L 329.943916 38.09363 
L 331.267057 39.148997 
L 332.590198 39.978214 
L 333.913339 40.807431 
L 335.236479 41.485881 
L 336.55962 42.088948 
L 337.882761 42.465865 
L 339.205902 42.842782 
L 340.529043 43.370466 
L 341.852184 44.048916 
L 343.175325 44.878133 
L 344.498466 45.70735 
L 345.821607 46.536567 
L 347.144748 47.441168 
L 348.467889 48.119618 
L 349.79103 49.325752 
L 351.114171 50.607269 
L 352.437312 52.039553 
L 353.760453 53.396454 
L 355.083593 54.527205 
L 356.406734 55.431805 
L 357.729875 56.261022 
L 359.053016 57.090239 
" clip-path="url(#pc18e37f14e)" style="fill: none; stroke: #d95f02; stroke-width: 1.5; stroke-linecap: square"/>
   </g>
   <g id="line2d_48">
    <path d="M 359.053016 174.04 
L 359.053016 11.830064 
" clip-path="url(#pc18e37f14e)" style="fill: none; stroke-dasharray: 5.55,2.4; stroke-dashoffset: 0; stroke: #808080; stroke-opacity: 0.5; stroke-width: 1.5"/>
   </g>
   <g id="line2d_49">
    <path d="M 319.358788 29.198392 
L 320.63773 30.253759 
L 321.916671 31.38451 
L 323.195612 32.28911 
L 324.474553 33.344477 
L 325.753495 34.399845 
L 327.032436 35.605979 
L 328.311377 36.812113 
L 329.590318 37.942863 
L 330.86926 38.922847 
L 332.148201 39.752064 
L 333.427142 40.581281 
L 334.706083 41.184348 
L 335.985025 41.862798 
L 337.263966 42.239715 
L 338.542907 42.616632 
L 339.821848 42.918166 
L 341.10079 43.521232 
L 342.379731 44.275066 
L 343.658672 45.104283 
L 344.937613 45.9335 
L 346.216555 46.687334 
L 347.495496 47.441168 
L 348.774437 48.195001 
L 350.053378 49.250369 
L 351.33232 50.607269 
L 352.611261 52.039553 
L 353.890202 53.471837 
L 355.169143 54.602588 
L 356.448085 55.507188 
L 357.727026 56.336405 
L 359.005967 57.165623 
L 360.284908 57.99484 
L 361.56385 58.597907 
L 362.842791 59.200974 
L 364.121732 59.728657 
L 365.400673 60.331724 
L 366.679615 60.934791 
L 367.958556 61.537858 
L 369.237497 61.839391 
L 370.516438 62.291692 
L 371.79538 62.894759 
L 373.074321 63.422442 
L 374.353262 64.025509 
L 375.632203 64.402426 
L 376.911145 64.93011 
L 378.190086 65.307027 
L 379.469027 65.683943 
L 380.747968 65.910093 
L 382.02691 66.136244 
L 383.305851 66.51316 
L 384.584792 66.739311 
L 385.863733 67.116227 
L 387.142675 67.116227 
L 388.421616 67.342378 
L 389.700557 67.342378 
L 390.979498 67.493144 
L 392.25844 67.719294 
L 393.537381 67.719294 
L 394.816322 68.548511 
L 396.095263 69.226962 
L 397.374205 69.528495 
L 398.653146 68.774662 
L 399.932087 68.548511 
L 401.211028 68.246978 
" clip-path="url(#pc18e37f14e)" style="fill: none; stroke: #7570b3; stroke-width: 1.5; stroke-linecap: square"/>
   </g>
   <g id="line2d_50">
    <path d="M 401.211028 174.04 
L 401.211028 11.830064 
" clip-path="url(#pc18e37f14e)" style="fill: none; stroke-dasharray: 5.55,2.4; stroke-dashoffset: 0; stroke: #808080; stroke-opacity: 0.5; stroke-width: 1.5"/>
   </g>
   <g id="line2d_51">
    <path d="M 319.358788 29.198392 
L 320.6324 30.253759 
L 321.906012 31.38451 
L 323.179623 32.28911 
L 324.453235 33.344477 
L 325.726847 34.399845 
L 327.000458 35.605979 
L 328.27407 36.812113 
L 329.547682 37.86748 
L 330.821293 38.922847 
L 332.094905 39.752064 
L 333.368517 40.581281 
L 334.642128 41.184348 
L 335.91574 41.862798 
L 337.189352 42.164332 
L 338.462963 42.541249 
L 339.736575 42.842782 
L 341.010187 43.445849 
L 342.283798 44.124299 
L 343.55741 44.953517 
L 344.831022 45.782734 
L 346.104633 46.536567 
L 347.378245 47.290401 
L 348.651857 48.044235 
L 349.925468 49.099602 
L 351.19908 50.456503 
L 352.472692 51.888787 
L 353.746303 53.321071 
L 355.019915 54.527205 
L 356.293527 55.431805 
L 357.567139 56.336405 
L 358.84075 57.165623 
L 360.114362 58.070223 
L 361.387974 58.748673 
L 362.661585 59.35174 
L 363.935197 59.954807 
L 365.208809 60.557874 
L 366.48242 61.311708 
L 367.756032 61.839391 
L 369.029644 62.291692 
L 370.303255 62.668609 
L 371.576867 63.196292 
L 372.850479 63.799359 
L 374.12409 64.327043 
L 375.397702 64.854726 
L 376.671314 65.38241 
L 377.944925 65.910093 
L 379.218537 66.28701 
L 380.492149 66.51316 
L 381.76576 66.814694 
L 383.039372 67.191611 
L 384.312984 67.493144 
L 385.586595 67.719294 
L 386.860207 67.870061 
L 388.133819 68.020828 
L 389.40743 68.096211 
L 390.681042 68.171595 
L 391.954654 68.322361 
L 393.228265 68.548511 
L 394.501877 69.076195 
L 395.775489 70.131562 
L 397.0491 70.885396 
L 398.322712 70.282329 
L 399.596324 69.830029 
L 400.869935 69.453112 
L 402.143547 69.226962 
L 403.417159 68.925428 
L 404.690771 68.850045 
L 405.964382 68.699278 
L 407.237994 68.850045 
L 408.511606 68.850045 
L 409.785217 68.925428 
L 411.058829 68.774662 
L 412.332441 68.925428 
L 413.606052 69.000812 
L 414.879664 69.151578 
L 416.153276 69.453112 
L 417.426887 69.528495 
L 418.700499 69.830029 
L 419.974111 69.830029 
L 421.247722 70.131562 
" clip-path="url(#pc18e37f14e)" style="fill: none; stroke: #e7298a; stroke-width: 1.5; stroke-linecap: square"/>
   </g>
   <g id="line2d_52">
    <path d="M 421.247722 174.04 
L 421.247722 11.830064 
" clip-path="url(#pc18e37f14e)" style="fill: none; stroke-dasharray: 5.55,2.4; stroke-dashoffset: 0; stroke: #808080; stroke-opacity: 0.5; stroke-width: 1.5"/>
   </g>
   <g id="line2d_53">
    <path d="M 319.358788 29.198392 
L 320.628345 30.329143 
L 321.897902 31.38451 
L 323.167459 32.28911 
L 324.437016 33.344477 
L 325.706573 34.399845 
L 326.97613 35.605979 
L 328.245687 36.736729 
L 329.515244 37.86748 
L 330.784801 38.922847 
L 332.054358 39.752064 
L 333.323915 40.581281 
L 334.593472 41.184348 
L 335.863029 41.787415 
L 337.132586 42.164332 
L 338.402143 42.465865 
L 339.6717 42.767399 
L 340.941257 43.295082 
L 342.210814 43.973533 
L 343.480371 44.80275 
L 344.749928 45.631967 
L 346.019485 46.461184 
L 347.289042 47.215018 
L 348.558599 47.968851 
L 349.828156 48.873452 
L 351.097713 50.230352 
L 352.36727 51.73802 
L 353.636827 53.170304 
L 354.906383 54.451821 
L 356.17594 55.356422 
L 357.445497 56.261022 
L 358.715054 57.241006 
L 359.984611 58.145606 
L 361.254168 59.050207 
L 362.523725 59.653274 
L 363.793282 60.331724 
L 365.062839 60.934791 
L 366.332396 61.839391 
L 367.601953 62.367075 
L 368.87151 62.819375 
L 370.141067 63.196292 
L 371.410624 63.723976 
L 372.680181 64.327043 
L 373.949738 64.854726 
L 375.219295 65.457793 
L 376.488852 65.985477 
L 377.758409 66.588544 
L 379.027966 66.965461 
L 380.297523 67.417761 
L 381.56708 67.719294 
L 382.836637 68.096211 
L 384.106194 68.397745 
L 385.375751 68.623895 
L 386.645308 68.850045 
L 387.914865 69.000812 
L 389.184422 69.226962 
L 390.453979 69.226962 
L 391.723536 69.453112 
L 392.993093 69.679262 
L 394.26265 70.206946 
L 395.532207 71.41308 
L 396.801764 72.242297 
L 398.071321 71.940763 
L 399.340878 71.262313 
L 400.610434 70.810013 
L 401.879991 70.583862 
L 403.149548 70.433096 
L 404.419105 70.282329 
L 405.688662 70.206946 
L 406.958219 70.357712 
L 408.227776 70.433096 
L 409.497333 70.659246 
L 410.76689 70.659246 
L 412.036447 70.734629 
L 413.306004 70.659246 
L 414.575561 70.659246 
L 415.845118 70.659246 
L 417.114675 70.734629 
L 418.384232 70.734629 
L 419.653789 70.885396 
L 420.923346 70.960779 
L 422.192903 71.186929 
L 423.46246 71.262313 
L 424.732017 71.563846 
L 426.001574 71.563846 
L 427.271131 71.63923 
L 428.540688 71.63923 
L 429.810245 71.563846 
L 431.079802 71.563846 
L 432.349359 71.337696 
L 433.618916 71.337696 
L 434.888473 70.960779 
L 436.15803 70.885396 
L 437.427587 70.508479 
L 438.697144 70.206946 
L 439.966701 69.754645 
L 441.236258 69.226962 
L 442.505815 68.850045 
L 443.775372 68.246978 
L 445.044929 67.870061 
L 446.314485 67.191611 
L 447.584042 66.814694 
L 448.853599 66.28701 
L 450.123156 65.985477 
L 451.392713 65.683943 
L 452.66227 65.457793 
L 453.931827 65.457793 
L 455.201384 65.38241 
L 456.470941 65.683943 
L 457.740498 65.985477 
L 459.010055 66.739311 
L 460.279612 67.493144 
L 461.549169 68.322361 
" clip-path="url(#pc18e37f14e)" style="fill: none; stroke: #66a61e; stroke-width: 1.5; stroke-linecap: square"/>
   </g>
   <g id="line2d_54">
    <path d="M 461.549169 174.04 
L 461.549169 11.830064 
" clip-path="url(#pc18e37f14e)" style="fill: none; stroke-dasharray: 5.55,2.4; stroke-dashoffset: 0; stroke: #808080; stroke-opacity: 0.5; stroke-width: 1.5"/>
   </g>
   <g id="line2d_55">
    <path d="M 319.358788 29.198392 
L 321.899072 31.38451 
L 325.709497 34.399845 
L 329.519922 37.942863 
L 330.790064 38.922847 
L 333.330348 40.581281 
L 335.870631 41.787415 
L 338.410915 42.465865 
L 339.681057 42.767399 
L 340.951198 43.219699 
L 344.761624 45.556583 
L 347.301907 47.215018 
L 348.572049 47.893468 
L 349.842191 48.873452 
L 352.382474 51.73802 
L 354.922758 54.451821 
L 358.733183 57.316389 
L 361.273467 59.12559 
L 365.083892 61.236325 
L 366.354034 62.065542 
L 368.894317 63.045525 
L 370.164459 63.422442 
L 372.704743 64.553193 
L 375.245026 65.683943 
L 376.515168 66.211627 
L 377.78531 66.890077 
L 384.136019 68.699278 
L 386.676302 69.226962 
L 391.756869 69.905412 
L 393.027011 70.131562 
L 394.297153 70.734629 
L 395.567295 71.940763 
L 396.837436 72.619213 
L 398.107578 72.393063 
L 399.37772 71.63923 
L 401.918004 71.036163 
L 404.458287 70.810013 
L 406.998571 70.885396 
L 412.079138 71.41308 
L 413.34928 71.41308 
L 414.619421 71.262313 
L 419.699988 71.337696 
L 420.97013 71.41308 
L 424.780555 72.016147 
L 427.320839 72.166913 
L 432.401406 71.789996 
L 434.94169 71.41308 
L 436.211831 71.186929 
L 438.752115 70.433096 
L 442.56254 68.925428 
L 450.183391 66.211627 
L 451.453533 65.910093 
L 453.993816 65.533177 
L 456.5341 65.759327 
L 459.074383 66.814694 
L 462.884809 69.453112 
L 464.15495 70.282329 
L 466.695234 71.714613 
L 467.965376 72.09153 
L 469.235518 72.920747 
L 474.316085 74.805331 
L 475.586226 75.408398 
L 476.856368 75.860698 
L 478.12651 76.614532 
L 479.396652 77.217599 
L 480.666794 78.046816 
L 483.207077 79.4791 
L 485.747361 80.986768 
L 487.017502 81.891368 
L 488.287644 82.645202 
L 489.557786 83.700569 
L 489.557786 83.700569 
" clip-path="url(#pc18e37f14e)" style="fill: none; stroke: #e6ab02; stroke-width: 1.5; stroke-linecap: square"/>
   </g>
   <g id="line2d_56">
    <path d="M 489.557786 174.04 
L 489.557786 11.830064 
" clip-path="url(#pc18e37f14e)" style="fill: none; stroke-dasharray: 5.55,2.4; stroke-dashoffset: 0; stroke: #808080; stroke-opacity: 0.5; stroke-width: 1.5"/>
   </g>
   <g id="line2d_57">
    <path d="M 319.358788 29.198392 
L 321.88859 31.459893 
L 323.15349 32.364494 
L 326.948193 35.605979 
L 329.477994 37.942863 
L 330.742895 38.99823 
L 332.007796 39.827447 
L 334.537597 41.108965 
L 335.802498 41.636648 
L 337.067398 42.013565 
L 339.5972 42.465865 
L 340.862101 42.918166 
L 342.127001 43.521232 
L 344.656803 45.104283 
L 347.186604 46.913484 
L 348.451505 47.667318 
L 349.716406 48.571918 
L 352.246207 51.587253 
L 353.511108 53.245687 
L 354.776009 54.602588 
L 356.040909 55.733338 
L 358.570711 57.617923 
L 362.365413 61.085558 
L 364.895215 62.894759 
L 366.160115 63.950126 
L 367.425016 64.70396 
L 369.954817 65.38241 
L 371.219718 65.83471 
L 373.74952 66.965461 
L 375.01442 67.342378 
L 380.074023 69.754645 
L 383.868726 71.036163 
L 388.928328 72.31768 
L 391.45813 72.99613 
L 392.723031 73.297664 
L 393.987931 73.900731 
L 396.517733 76.086849 
L 397.782634 76.162232 
L 399.047534 75.257631 
L 400.312435 74.654564 
L 401.577336 74.353031 
L 402.842237 74.277648 
L 404.107137 74.428414 
L 406.636939 74.277648 
L 407.901839 74.503798 
L 411.696542 76.086849 
L 412.961442 76.011465 
L 414.226343 75.785315 
L 415.491244 75.257631 
L 418.021045 74.579181 
L 420.550847 74.805331 
L 425.61045 76.539149 
L 426.87535 76.765299 
L 428.140251 76.840682 
L 430.670053 76.614532 
L 433.199854 76.086849 
L 435.729656 75.408398 
L 438.259457 74.277648 
L 442.054159 72.31768 
L 444.583961 71.488463 
L 447.113762 70.960779 
L 450.908464 70.583862 
L 452.173365 70.508479 
L 454.703166 70.810013 
L 455.968067 71.111546 
L 458.497869 72.09153 
L 463.557472 74.579181 
L 467.352174 76.689915 
L 469.881975 78.1222 
L 473.676677 79.403717 
L 476.206479 80.232934 
L 477.47138 80.685234 
L 480.001181 82.042135 
L 488.855486 87.771271 
L 490.120387 88.525105 
L 492.650188 89.806622 
L 500.239593 94.329624 
L 502.769394 95.460375 
L 511.623699 98.626476 
L 512.8886 99.304927 
L 514.153501 99.83261 
L 515.418402 100.661827 
L 515.418402 100.661827 
" clip-path="url(#pc18e37f14e)" style="fill: none; stroke: #a6761d; stroke-width: 1.5; stroke-linecap: square"/>
   </g>
   <g id="line2d_58">
    <path d="M 515.418402 174.04 
L 515.418402 11.830064 
" clip-path="url(#pc18e37f14e)" style="fill: none; stroke-dasharray: 5.55,2.4; stroke-dashoffset: 0; stroke: #808080; stroke-opacity: 0.5; stroke-width: 1.5"/>
   </g>
   <g id="line2d_59">
    <path d="M 319.358788 29.198392 
L 321.887229 31.535277 
L 325.679891 34.550611 
L 329.472552 37.86748 
L 330.736773 38.847464 
L 332.000993 39.676681 
L 333.265214 40.355131 
L 335.793655 41.335115 
L 340.850537 42.465865 
L 343.378978 43.596616 
L 348.43586 47.290401 
L 349.700081 48.345768 
L 350.964301 49.702669 
L 353.492742 53.471837 
L 354.756963 55.054888 
L 356.021183 56.261022 
L 358.549624 58.296373 
L 362.342286 62.065542 
L 363.606506 63.045525 
L 364.870727 64.176276 
L 366.134947 65.15626 
L 367.399168 65.83471 
L 369.927609 66.588544 
L 371.191829 67.116227 
L 372.45605 67.794678 
L 376.248711 68.925428 
L 382.569814 71.940763 
L 385.098255 72.619213 
L 387.626696 73.297664 
L 390.155137 74.202264 
L 392.683578 74.805331 
L 393.947798 75.257631 
L 395.212019 76.312999 
L 396.47624 77.594516 
L 397.74046 78.046816 
L 400.268901 76.614532 
L 401.533122 76.162232 
L 405.325783 75.936082 
L 406.590004 75.634548 
L 407.854224 75.559165 
L 409.118445 75.860698 
L 411.646886 76.689915 
L 412.911106 76.539149 
L 415.439547 75.936082 
L 417.967988 75.709932 
L 419.232209 75.936082 
L 421.76065 76.916066 
L 426.817532 79.25295 
L 428.081752 79.70525 
L 429.345973 79.9314 
L 430.610193 80.006784 
L 433.138634 79.780634 
L 435.667075 79.25295 
L 436.931296 78.951417 
L 439.459737 77.971433 
L 444.516619 75.860698 
L 447.04506 75.182248 
L 448.309281 75.031481 
L 450.837722 75.106865 
L 453.366163 75.257631 
L 455.894604 75.785315 
L 459.687265 76.991449 
L 463.479927 78.272966 
L 466.008368 79.70525 
L 468.536809 81.288301 
L 471.06525 82.494435 
L 478.650573 85.28362 
L 482.443234 86.942054 
L 493.821219 92.44504 
L 497.613881 94.480391 
L 500.142322 96.214208 
L 502.670763 97.872643 
L 503.934983 98.551093 
L 508.991865 100.737211 
L 511.520306 102.320261 
L 515.312968 105.561746 
L 517.841409 107.747864 
L 520.36985 109.783215 
L 521.63407 110.763199 
L 524.162511 112.195483 
L 526.690952 112.873933 
L 529.219393 113.175467 
L 533.012055 113.100083 
L 535.540496 112.873933 
L 536.804716 112.723167 
L 539.333157 112.79855 
L 540.597378 113.0247 
L 541.861598 113.401617 
L 541.861598 113.401617 
" clip-path="url(#pc18e37f14e)" style="fill: none; stroke: #666666; stroke-width: 1.5; stroke-linecap: square"/>
   </g>
   <g id="line2d_60">
    <path d="M 541.861598 174.04 
L 541.861598 11.830064 
" clip-path="url(#pc18e37f14e)" style="fill: none; stroke-dasharray: 5.55,2.4; stroke-dashoffset: 0; stroke: #808080; stroke-opacity: 0.5; stroke-width: 1.5"/>
   </g>
   <g id="line2d_61">
    <path d="M 319.358788 29.198392 
L 321.880151 31.61066 
L 324.401514 33.495244 
L 330.704922 38.696697 
L 331.965604 39.45053 
L 334.486967 40.581281 
L 337.00833 41.335115 
L 340.790375 42.088948 
L 343.311738 43.068932 
L 345.833101 44.80275 
L 349.615145 47.893468 
L 350.875827 49.401135 
L 353.39719 53.245687 
L 354.657872 54.979505 
L 355.918553 56.411789 
L 359.700598 59.728657 
L 360.961279 61.085558 
L 363.482642 63.271676 
L 366.004006 65.38241 
L 367.264687 66.06086 
L 372.307413 67.945444 
L 373.568095 68.473128 
L 374.828776 68.774662 
L 376.089458 69.226962 
L 382.392866 72.694597 
L 387.435592 73.976114 
L 388.696273 74.503798 
L 392.478318 76.463765 
L 393.739 77.066832 
L 394.999681 77.896049 
L 396.260363 79.102183 
L 397.521044 79.554484 
L 398.781726 79.0268 
L 400.042407 78.34835 
L 401.303089 77.896049 
L 402.563771 77.745283 
L 403.824452 77.896049 
L 405.085134 77.896049 
L 407.606497 77.066832 
L 408.867178 76.991449 
L 410.12786 77.142216 
L 411.388541 77.443749 
L 412.649223 77.519133 
L 415.170586 77.443749 
L 417.691949 77.820666 
L 420.213312 78.649883 
L 421.473994 79.177567 
L 425.256038 81.137534 
L 430.298765 83.248269 
L 431.559446 83.549802 
L 434.080809 83.775952 
L 437.862854 83.248269 
L 444.166262 81.439068 
L 446.687625 80.911384 
L 449.208988 80.609851 
L 460.555122 80.534467 
L 461.815803 80.459084 
L 464.337166 80.685234 
L 465.597848 80.986768 
L 468.119211 81.891368 
L 469.379893 82.494435 
L 474.422619 84.379019 
L 475.6833 84.982086 
L 479.465345 87.168204 
L 487.029434 91.163523 
L 495.854205 95.460375 
L 497.114887 96.364975 
L 499.63625 98.852626 
L 502.157613 101.867961 
L 505.939658 106.99403 
L 508.461021 110.687816 
L 510.982384 114.080067 
L 514.764428 117.547702 
L 517.285792 119.28152 
L 521.067836 121.241487 
L 526.110562 123.578372 
L 527.371244 123.955289 
L 528.631925 124.181439 
L 529.892607 124.256822 
L 531.153289 124.181439 
L 534.935333 123.427605 
L 537.456696 122.673771 
L 541.238741 121.166104 
L 542.499423 120.789187 
L 545.020786 120.487654 
L 547.542149 120.713804 
L 550.063512 121.392254 
L 553.845556 123.126072 
L 556.36692 123.804522 
L 558.888283 124.030672 
L 561.409646 123.955289 
L 563.931009 123.804522 
L 566.452372 124.030672 
L 567.713053 124.181439 
L 571.495098 125.462956 
L 571.495098 125.462956 
" clip-path="url(#pc18e37f14e)" style="fill: none; stroke: #e41a1c; stroke-width: 1.5; stroke-linecap: square"/>
   </g>
   <g id="line2d_62">
    <path d="M 571.495098 174.04 
L 571.495098 11.830064 
" clip-path="url(#pc18e37f14e)" style="fill: none; stroke-dasharray: 5.55,2.4; stroke-dashoffset: 0; stroke: #808080; stroke-opacity: 0.5; stroke-width: 1.5"/>
   </g>
   <g id="line2d_63">
    <path d="M 319.358788 29.198392 
L 321.879709 31.61066 
L 330.702932 38.470547 
L 331.963392 39.22438 
L 333.223853 39.827447 
L 335.744774 40.656664 
L 340.786615 41.862798 
L 343.307536 42.993549 
L 344.567996 43.671999 
L 345.828457 44.727366 
L 348.349378 46.611951 
L 349.609838 47.667318 
L 350.870298 49.174985 
L 353.391219 53.094921 
L 354.65168 54.828738 
L 355.91214 56.336405 
L 358.433061 58.597907 
L 359.693521 59.728657 
L 360.953982 61.085558 
L 364.735363 64.402426 
L 365.995823 65.457793 
L 367.256284 66.28701 
L 369.777204 67.116227 
L 371.037665 67.643911 
L 372.298125 68.322361 
L 373.558586 68.850045 
L 376.079506 69.603879 
L 377.339967 70.206946 
L 381.121348 72.393063 
L 382.381808 72.99613 
L 387.42365 74.277648 
L 388.68411 74.956098 
L 391.205031 77.066832 
L 393.725952 78.5745 
L 394.986413 79.177567 
L 396.246873 80.006784 
L 397.507333 80.609851 
L 398.767794 80.308317 
L 400.028254 79.780634 
L 401.288715 79.4791 
L 402.549175 79.554484 
L 405.070096 80.383701 
L 406.330556 80.383701 
L 407.591017 80.082167 
L 408.851477 79.9314 
L 413.893319 80.760617 
L 416.414239 80.836001 
L 418.93516 81.363684 
L 421.456081 82.117518 
L 423.977002 83.172885 
L 427.758383 85.132853 
L 429.018843 85.73592 
L 430.279304 86.18822 
L 432.800225 87.318971 
L 434.060685 87.846654 
L 435.321145 88.148188 
L 436.581606 88.223571 
L 439.102527 87.997421 
L 442.883908 87.469737 
L 446.665289 86.489754 
L 449.18621 85.811303 
L 451.707131 85.434386 
L 458.009433 84.982086 
L 460.530354 84.605169 
L 461.790814 84.529786 
L 464.311735 84.906703 
L 468.093116 85.886687 
L 471.874497 87.092821 
L 474.395418 88.072804 
L 479.43726 90.108155 
L 481.95818 90.937372 
L 484.479101 91.76659 
L 487.000022 92.746573 
L 488.260482 93.34964 
L 490.781403 94.932691 
L 493.302324 96.817275 
L 495.823245 99.15416 
L 498.344166 101.792578 
L 503.386007 107.370947 
L 505.906928 110.160132 
L 508.427849 113.25085 
L 513.469691 119.73382 
L 514.730151 121.015337 
L 515.990611 122.070704 
L 522.292913 126.593707 
L 526.074295 128.779824 
L 529.855676 130.589025 
L 532.376597 131.418242 
L 533.637057 131.719776 
L 536.157978 132.021309 
L 541.199819 132.096693 
L 544.981201 132.850526 
L 547.502121 133.679743 
L 551.283503 135.112028 
L 553.804423 136.092011 
L 555.064884 136.393545 
L 556.325344 136.544312 
L 558.846265 136.468928 
L 563.888107 135.790478 
L 571.450869 134.433577 
L 572.71133 134.508961 
L 573.97179 134.735111 
L 576.492711 135.715094 
L 581.534552 137.901212 
L 584.055473 139.333496 
L 585.315934 140.238097 
L 590.357775 144.987249 
L 591.618236 145.816466 
L 594.139156 147.24875 
L 599.180998 150.264085 
L 601.701919 152.148669 
L 604.22284 154.862471 
L 605.4833 156.445521 
L 606.74376 157.727039 
L 608.004221 158.782406 
L 608.004221 158.782406 
" clip-path="url(#pc18e37f14e)" style="fill: none; stroke: #377eb8; stroke-width: 1.5; stroke-linecap: square"/>
   </g>
   <g id="line2d_64">
    <path d="M 608.004221 174.04 
L 608.004221 11.830064 
" clip-path="url(#pc18e37f14e)" style="fill: none; stroke-dasharray: 5.55,2.4; stroke-dashoffset: 0; stroke: #808080; stroke-opacity: 0.5; stroke-width: 1.5"/>
   </g>
   <g id="line2d_65">
    <path d="M 319.358788 29.198392 
L 321.874151 31.61066 
L 330.67792 38.395163 
L 331.935601 39.148997 
L 333.193282 39.752064 
L 335.708645 40.656664 
L 340.73937 41.862798 
L 341.997051 42.315099 
L 343.254732 42.918166 
L 344.512414 43.671999 
L 349.543139 47.591934 
L 350.80082 49.024219 
L 354.573864 54.753355 
L 355.831545 56.261022 
L 358.346908 58.522523 
L 359.604589 59.653274 
L 360.86227 61.010174 
L 364.635314 64.327043 
L 365.892995 65.38241 
L 367.150677 66.211627 
L 370.923721 67.568528 
L 373.439083 68.850045 
L 375.954446 69.528495 
L 377.212127 70.131562 
L 380.985171 72.31768 
L 382.242852 72.920747 
L 384.758215 73.599197 
L 387.273577 74.277648 
L 388.531258 74.880715 
L 389.78894 75.860698 
L 391.046621 76.991449 
L 393.561983 78.5745 
L 394.819665 79.177567 
L 397.335027 80.760617 
L 398.592709 80.534467 
L 399.85039 80.006784 
L 401.108071 79.629867 
L 402.365752 79.629867 
L 404.881115 80.459084 
L 406.138796 80.609851 
L 408.654159 80.157551 
L 411.169521 80.685234 
L 412.427203 80.986768 
L 414.942565 81.062151 
L 416.200246 81.062151 
L 418.715609 81.589835 
L 419.97329 81.891368 
L 423.746334 83.323652 
L 427.519378 85.359003 
L 435.065466 88.525105 
L 436.323147 88.675871 
L 437.580828 88.675871 
L 442.611553 87.997421 
L 443.869234 87.771271 
L 448.89996 86.263604 
L 451.415322 85.886687 
L 457.703728 85.434386 
L 461.476772 84.982086 
L 462.734454 84.982086 
L 465.249816 85.50977 
L 469.02286 86.489754 
L 471.538222 87.243587 
L 479.08431 90.334306 
L 480.341991 90.786606 
L 482.857354 91.465056 
L 486.630398 92.821957 
L 489.14576 94.103474 
L 491.661123 95.912675 
L 494.176485 98.023409 
L 497.949529 101.792578 
L 502.980254 107.370947 
L 506.753298 111.517033 
L 510.526342 116.190802 
L 513.041705 119.356903 
L 515.557067 121.919938 
L 516.814748 122.899922 
L 524.360836 127.875224 
L 529.391561 130.513642 
L 530.649242 131.041326 
L 534.422286 132.096693 
L 539.453011 132.775143 
L 541.968374 133.227443 
L 545.741418 134.358194 
L 553.287505 137.448912 
L 555.802868 137.976596 
L 557.060549 138.051979 
L 559.575912 137.901212 
L 565.864318 136.695078 
L 570.895043 135.413561 
L 572.152724 135.338178 
L 573.410406 135.413561 
L 574.668087 135.639711 
L 577.18345 136.544312 
L 578.441131 137.147379 
L 580.956493 138.127362 
L 583.471856 139.258113 
L 585.987218 141.142697 
L 589.760262 144.685716 
L 592.275625 146.268766 
L 597.30635 149.057951 
L 598.564031 149.811785 
L 601.079394 151.696369 
L 603.594756 154.41017 
L 606.110119 157.425505 
L 607.3678 158.631639 
L 608.625481 159.611623 
L 612.398525 161.948507 
L 613.656207 162.853108 
L 613.656207 162.853108 
" clip-path="url(#pc18e37f14e)" style="fill: none; stroke: #4daf4a; stroke-width: 1.5; stroke-linecap: square"/>
   </g>
   <g id="line2d_66">
    <path d="M 613.656207 174.04 
L 613.656207 11.830064 
" clip-path="url(#pc18e37f14e)" style="fill: none; stroke-dasharray: 5.55,2.4; stroke-dashoffset: 0; stroke: #808080; stroke-opacity: 0.5; stroke-width: 1.5"/>
   </g>
   <g id="patch_8">
    <path d="M 295.814995 174.04 
L 295.814995 11.830064 
" style="fill: none; stroke: #000000; stroke-width: 0.8; stroke-linejoin: miter; stroke-linecap: square"/>
   </g>
   <g id="patch_9">
    <path d="M 637.2 174.04 
L 637.2 11.830064 
" style="fill: none; stroke: #000000; stroke-width: 0.8; stroke-linejoin: miter; stroke-linecap: square"/>
   </g>
   <g id="patch_10">
    <path d="M 295.814995 174.04 
L 637.2 174.04 
" style="fill: none; stroke: #000000; stroke-width: 0.8; stroke-linejoin: miter; stroke-linecap: square"/>
   </g>
   <g id="patch_11">
    <path d="M 295.814995 11.830064 
L 637.2 11.830064 
" style="fill: none; stroke: #000000; stroke-width: 0.8; stroke-linejoin: miter; stroke-linecap: square"/>
   </g>
   <g id="text_39">
    <!-- 1 -->
    <g transform="translate(339.762863 29.349159) scale(0.1 -0.1)">
     <use xlink:href="#DejaVuSans-31"/>
    </g>
   </g>
   <g id="text_40">
    <!-- 2 -->
    <g transform="translate(360.305093 43.898149) scale(0.1 -0.1)">
     <use xlink:href="#DejaVuSans-32"/>
    </g>
   </g>
   <g id="text_41">
    <!-- 3 -->
    <g transform="translate(402.463105 55.054888) scale(0.1 -0.1)">
     <use xlink:href="#DejaVuSans-33"/>
    </g>
   </g>
   <g id="text_42">
    <!-- 4 -->
    <g transform="translate(422.499799 56.939472) scale(0.1 -0.1)">
     <use xlink:href="#DejaVuSans-34"/>
    </g>
   </g>
   <g id="text_43">
    <!-- 5 -->
    <g transform="translate(462.801246 55.130272) scale(0.1 -0.1)">
     <use xlink:href="#DejaVuSans-35"/>
    </g>
   </g>
   <g id="text_44">
    <!-- 6 -->
    <g transform="translate(490.809863 70.508479) scale(0.1 -0.1)">
     <use xlink:href="#DejaVuSans-36"/>
    </g>
   </g>
   <g id="text_45">
    <!-- 7 -->
    <g transform="translate(516.670478 87.469737) scale(0.1 -0.1)">
     <use xlink:href="#DejaVuSans-37"/>
    </g>
   </g>
   <g id="text_46">
    <!-- 8 -->
    <g transform="translate(543.113675 100.209527) scale(0.1 -0.1)">
     <use xlink:href="#DejaVuSans-38"/>
    </g>
   </g>
   <g id="text_47">
    <!-- 9 -->
    <g transform="translate(572.747175 112.270866) scale(0.1 -0.1)">
     <use xlink:href="#DejaVuSans-39"/>
    </g>
   </g>
   <g id="text_48">
    <!-- 10 -->
    <g transform="translate(609.256298 145.590316) scale(0.1 -0.1)">
     <use xlink:href="#DejaVuSans-31"/>
     <use xlink:href="#DejaVuSans-30" x="63.623047"/>
    </g>
   </g>
   <g id="text_49">
    <!-- 11 -->
    <g transform="translate(614.908283 149.661018) scale(0.1 -0.1)">
     <use xlink:href="#DejaVuSans-31"/>
     <use xlink:href="#DejaVuSans-31" x="63.623047"/>
    </g>
   </g>
  </g>
 </g>
 <defs>
  <clipPath id="pa3de085afd">
   <rect x="66.62" y="11.830064" width="170.692503" height="162.209936"/>
  </clipPath>
  <clipPath id="pc18e37f14e">
   <rect x="295.814995" y="11.830064" width="341.385005" height="162.209936"/>
  </clipPath>
 </defs>
</svg>
