<?xml version="1.0" encoding="utf-8" standalone="no"?>
<!DOCTYPE svg PUBLIC "-//W3C//DTD SVG 1.1//EN"
  "http://www.w3.org/Graphics/SVG/1.1/DTD/svg11.dtd">
<svg xmlns:xlink="http://www.w3.org/1999/xlink" width="1080pt" height="360pt" viewBox="0 0 1080 360" xmlns="http://www.w3.org/2000/svg" version="1.1">
 <metadata>
  <rdf:RDF xmlns:dc="http://purl.org/dc/elements/1.1/" xmlns:cc="http://creativecommons.org/ns#" xmlns:rdf="http://www.w3.org/1999/02/22-rdf-syntax-ns#">
   <cc:Work>
    <dc:type rdf:resource="http://purl.org/dc/dcmitype/StillImage"/>
    <dc:date>2024-05-04T16:18:40.241874</dc:date>
    <dc:format>image/svg+xml</dc:format>
    <dc:creator>
     <cc:Agent>
      <dc:title>Matplotlib v3.8.4, https://matplotlib.org/</dc:title>
     </cc:Agent>
    </dc:creator>
   </cc:Work>
  </rdf:RDF>
 </metadata>
 <defs>
  <style type="text/css">*{stroke-linejoin: round; stroke-linecap: butt}</style>
 </defs>
 <g id="figure_1">
  <g id="patch_1">
   <path d="M 0 360 
L 1080 360 
L 1080 0 
L 0 0 
z
" style="fill: #ffffff"/>
  </g>
  <g id="axes_1">
   <g id="patch_2">
    <path d="M 66.62 318.04 
L 384.849642 318.04 
L 384.849642 10.8 
L 66.62 10.8 
z
" style="fill: #ffffff"/>
   </g>
   <g id="PathCollection_1">
    <defs>
     <path id="ma4c822bf66" d="M 0 3 
C 0.795609 3 1.55874 2.683901 2.12132 2.12132 
C 2.683901 1.55874 3 0.795609 3 0 
C 3 -0.795609 2.683901 -1.55874 2.12132 -2.12132 
C 1.55874 -2.683901 0.795609 -3 0 -3 
C -0.795609 -3 -1.55874 -2.683901 -2.12132 -2.12132 
C -2.683901 -1.55874 -3 -0.795609 -3 0 
C -3 0.795609 -2.683901 1.55874 -2.12132 2.12132 
C -1.55874 2.683901 -0.795609 3 0 3 
z
" style="stroke: #1b9e77"/>
    </defs>
    <g clip-path="url(#pb0680453f6)">
     <use xlink:href="#ma4c822bf66" x="81.084984" y="304.074545" style="fill: #1b9e77; stroke: #1b9e77"/>
    </g>
   </g>
   <g id="PathCollection_2">
    <defs>
     <path id="mb8f51e70a5" d="M 0 3 
C 0.795609 3 1.55874 2.683901 2.12132 2.12132 
C 2.683901 1.55874 3 0.795609 3 0 
C 3 -0.795609 2.683901 -1.55874 2.12132 -2.12132 
C 1.55874 -2.683901 0.795609 -3 0 -3 
C -0.795609 -3 -1.55874 -2.683901 -2.12132 -2.12132 
C -2.683901 -1.55874 -3 -0.795609 -3 0 
C -3 0.795609 -2.683901 1.55874 -2.12132 2.12132 
C -1.55874 2.683901 -0.795609 3 0 3 
z
" style="stroke: #d95f02"/>
    </defs>
    <g clip-path="url(#pb0680453f6)">
     <use xlink:href="#mb8f51e70a5" x="96.640282" y="279.272021" style="fill: #d95f02; stroke: #d95f02"/>
    </g>
   </g>
   <g id="PathCollection_3">
    <defs>
     <path id="m1459595319" d="M 0 3 
C 0.795609 3 1.55874 2.683901 2.12132 2.12132 
C 2.683901 1.55874 3 0.795609 3 0 
C 3 -0.795609 2.683901 -1.55874 2.12132 -2.12132 
C 1.55874 -2.683901 0.795609 -3 0 -3 
C -0.795609 -3 -1.55874 -2.683901 -2.12132 -2.12132 
C -2.683901 -1.55874 -3 -0.795609 -3 0 
C -3 0.795609 -2.683901 1.55874 -2.12132 2.12132 
C -1.55874 2.683901 -0.795609 3 0 3 
z
" style="stroke: #7570b3"/>
    </defs>
    <g clip-path="url(#pb0680453f6)">
     <use xlink:href="#m1459595319" x="112.422515" y="251.254354" style="fill: #7570b3; stroke: #7570b3"/>
    </g>
   </g>
   <g id="PathCollection_4">
    <defs>
     <path id="m1e61bcd7d4" d="M 0 3 
C 0.795609 3 1.55874 2.683901 2.12132 2.12132 
C 2.683901 1.55874 3 0.795609 3 0 
C 3 -0.795609 2.683901 -1.55874 2.12132 -2.12132 
C 1.55874 -2.683901 0.795609 -3 0 -3 
C -0.795609 -3 -1.55874 -2.683901 -2.12132 -2.12132 
C -2.683901 -1.55874 -3 -0.795609 -3 0 
C -3 0.795609 -2.683901 1.55874 -2.12132 2.12132 
C -1.55874 2.683901 -0.795609 3 0 3 
z
" style="stroke: #e7298a"/>
    </defs>
    <g clip-path="url(#pb0680453f6)">
     <use xlink:href="#m1e61bcd7d4" x="147.019645" y="197.107278" style="fill: #e7298a; stroke: #e7298a"/>
    </g>
   </g>
   <g id="PathCollection_5">
    <defs>
     <path id="m09c788d917" d="M 0 3 
C 0.795609 3 1.55874 2.683901 2.12132 2.12132 
C 2.683901 1.55874 3 0.795609 3 0 
C 3 -0.795609 2.683901 -1.55874 2.12132 -2.12132 
C 1.55874 -2.683901 0.795609 -3 0 -3 
C -0.795609 -3 -1.55874 -2.683901 -2.12132 -2.12132 
C -2.683901 -1.55874 -3 -0.795609 -3 0 
C -3 0.795609 -2.683901 1.55874 -2.12132 2.12132 
C -1.55874 2.683901 -0.795609 3 0 3 
z
" style="stroke: #66a61e"/>
    </defs>
    <g clip-path="url(#pb0680453f6)">
     <use xlink:href="#m09c788d917" x="163.99844" y="172.253719" style="fill: #66a61e; stroke: #66a61e"/>
    </g>
   </g>
   <g id="PathCollection_6">
    <defs>
     <path id="m1ee8816869" d="M 0 3 
C 0.795609 3 1.55874 2.683901 2.12132 2.12132 
C 2.683901 1.55874 3 0.795609 3 0 
C 3 -0.795609 2.683901 -1.55874 2.12132 -2.12132 
C 1.55874 -2.683901 0.795609 -3 0 -3 
C -0.795609 -3 -1.55874 -2.683901 -2.12132 -2.12132 
C -2.683901 -1.55874 -3 -0.795609 -3 0 
C -3 0.795609 -2.683901 1.55874 -2.12132 2.12132 
C -1.55874 2.683901 -0.795609 3 0 3 
z
" style="stroke: #e6ab02"/>
    </defs>
    <g clip-path="url(#pb0680453f6)">
     <use xlink:href="#m1ee8816869" x="198.100441" y="122.240398" style="fill: #e6ab02; stroke: #e6ab02"/>
    </g>
   </g>
   <g id="PathCollection_7">
    <defs>
     <path id="md54f12c7c4" d="M 0 3 
C 0.795609 3 1.55874 2.683901 2.12132 2.12132 
C 2.683901 1.55874 3 0.795609 3 0 
C 3 -0.795609 2.683901 -1.55874 2.12132 -2.12132 
C 1.55874 -2.683901 0.795609 -3 0 -3 
C -0.795609 -3 -1.55874 -2.683901 -2.12132 -2.12132 
C -2.683901 -1.55874 -3 -0.795609 -3 0 
C -3 0.795609 -2.683901 1.55874 -2.12132 2.12132 
C -1.55874 2.683901 -0.795609 3 0 3 
z
" style="stroke: #a6761d"/>
    </defs>
    <g clip-path="url(#pb0680453f6)">
     <use xlink:href="#md54f12c7c4" x="221.742844" y="87.384175" style="fill: #a6761d; stroke: #a6761d"/>
    </g>
   </g>
   <g id="PathCollection_8">
    <defs>
     <path id="me409263df2" d="M 0 3 
C 0.795609 3 1.55874 2.683901 2.12132 2.12132 
C 2.683901 1.55874 3 0.795609 3 0 
C 3 -0.795609 2.683901 -1.55874 2.12132 -2.12132 
C 1.55874 -2.683901 0.795609 -3 0 -3 
C -0.795609 -3 -1.55874 -2.683901 -2.12132 -2.12132 
C -2.683901 -1.55874 -3 -0.795609 -3 0 
C -3 0.795609 -2.683901 1.55874 -2.12132 2.12132 
C -1.55874 2.683901 -0.795609 3 0 3 
z
" style="stroke: #666666"/>
    </defs>
    <g clip-path="url(#pb0680453f6)">
     <use xlink:href="#me409263df2" x="249.923929" y="66.205064" style="fill: #666666; stroke: #666666"/>
    </g>
   </g>
   <g id="PathCollection_9">
    <defs>
     <path id="m5fa12c5712" d="M 0 3 
C 0.795609 3 1.55874 2.683901 2.12132 2.12132 
C 2.683901 1.55874 3 0.795609 3 0 
C 3 -0.795609 2.683901 -1.55874 2.12132 -2.12132 
C 1.55874 -2.683901 0.795609 -3 0 -3 
C -0.795609 -3 -1.55874 -2.683901 -2.12132 -2.12132 
C -2.683901 -1.55874 -3 -0.795609 -3 0 
C -3 0.795609 -2.683901 1.55874 -2.12132 2.12132 
C -1.55874 2.683901 -0.795609 3 0 3 
z
" style="stroke: #e41a1c"/>
    </defs>
    <g clip-path="url(#pb0680453f6)">
     <use xlink:href="#m5fa12c5712" x="283.118194" y="54.212073" style="fill: #e41a1c; stroke: #e41a1c"/>
    </g>
   </g>
   <g id="PathCollection_10">
    <defs>
     <path id="m695552d8ec" d="M 0 3 
C 0.795609 3 1.55874 2.683901 2.12132 2.12132 
C 2.683901 1.55874 3 0.795609 3 0 
C 3 -0.795609 2.683901 -1.55874 2.12132 -2.12132 
C 1.55874 -2.683901 0.795609 -3 0 -3 
C -0.795609 -3 -1.55874 -2.683901 -2.12132 -2.12132 
C -2.683901 -1.55874 -3 -0.795609 -3 0 
C -3 0.795609 -2.683901 1.55874 -2.12132 2.12132 
C -1.55874 2.683901 -0.795609 3 0 3 
z
" style="stroke: #377eb8"/>
    </defs>
    <g clip-path="url(#pb0680453f6)">
     <use xlink:href="#m695552d8ec" x="320.397272" y="43.648035" style="fill: #377eb8; stroke: #377eb8"/>
    </g>
   </g>
   <g id="PathCollection_11">
    <defs>
     <path id="mc6f6ae9f43" d="M 0 3 
C 0.795609 3 1.55874 2.683901 2.12132 2.12132 
C 2.683901 1.55874 3 0.795609 3 0 
C 3 -0.795609 2.683901 -1.55874 2.12132 -2.12132 
C 1.55874 -2.683901 0.795609 -3 0 -3 
C -0.795609 -3 -1.55874 -2.683901 -2.12132 -2.12132 
C -2.683901 -1.55874 -3 -0.795609 -3 0 
C -3 0.795609 -2.683901 1.55874 -2.12132 2.12132 
C -1.55874 2.683901 -0.795609 3 0 3 
z
" style="stroke: #4daf4a"/>
    </defs>
    <g clip-path="url(#pb0680453f6)">
     <use xlink:href="#mc6f6ae9f43" x="364.051135" y="28.082665" style="fill: #4daf4a; stroke: #4daf4a"/>
    </g>
   </g>
   <g id="PathCollection_12">
    <defs>
     <path id="mc7e0f524cb" d="M 0 3 
C 0.795609 3 1.55874 2.683901 2.12132 2.12132 
C 2.683901 1.55874 3 0.795609 3 0 
C 3 -0.795609 2.683901 -1.55874 2.12132 -2.12132 
C 1.55874 -2.683901 0.795609 -3 0 -3 
C -0.795609 -3 -1.55874 -2.683901 -2.12132 -2.12132 
C -2.683901 -1.55874 -3 -0.795609 -3 0 
C -3 0.795609 -2.683901 1.55874 -2.12132 2.12132 
C -1.55874 2.683901 -0.795609 3 0 3 
z
" style="stroke: #984ea3"/>
    </defs>
    <g clip-path="url(#pb0680453f6)">
     <use xlink:href="#mc7e0f524cb" x="370.384658" y="24.765455" style="fill: #984ea3; stroke: #984ea3"/>
    </g>
   </g>
   <g id="matplotlib.axis_1">
    <g id="xtick_1">
     <g id="line2d_1">
      <path d="M 103.860912 318.04 
L 103.860912 10.8 
" clip-path="url(#pb0680453f6)" style="fill: none; stroke: #b0b0b0; stroke-width: 0.8; stroke-linecap: square"/>
     </g>
     <g id="line2d_2">
      <defs>
       <path id="mba3d86fee1" d="M 0 0 
L 0 3.5 
" style="stroke: #000000; stroke-width: 0.8"/>
      </defs>
      <g>
       <use xlink:href="#mba3d86fee1" x="103.860912" y="318.04" style="stroke: #000000; stroke-width: 0.8"/>
      </g>
     </g>
     <g id="text_1">
      <!-- 14.532 -->
      <g transform="translate(86.365599 332.638438) scale(0.1 -0.1)">
       <defs>
        <path id="DejaVuSans-31" d="M 794 531 
L 1825 531 
L 1825 4091 
L 703 3866 
L 703 4441 
L 1819 4666 
L 2450 4666 
L 2450 531 
L 3481 531 
L 3481 0 
L 794 0 
L 794 531 
z
" transform="scale(0.015625)"/>
        <path id="DejaVuSans-34" d="M 2419 4116 
L 825 1625 
L 2419 1625 
L 2419 4116 
z
M 2253 4666 
L 3047 4666 
L 3047 1625 
L 3713 1625 
L 3713 1100 
L 3047 1100 
L 3047 0 
L 2419 0 
L 2419 1100 
L 313 1100 
L 313 1709 
L 2253 4666 
z
" transform="scale(0.015625)"/>
        <path id="DejaVuSans-2e" d="M 684 794 
L 1344 794 
L 1344 0 
L 684 0 
L 684 794 
z
" transform="scale(0.015625)"/>
        <path id="DejaVuSans-35" d="M 691 4666 
L 3169 4666 
L 3169 4134 
L 1269 4134 
L 1269 2991 
Q 1406 3038 1543 3061 
Q 1681 3084 1819 3084 
Q 2600 3084 3056 2656 
Q 3513 2228 3513 1497 
Q 3513 744 3044 326 
Q 2575 -91 1722 -91 
Q 1428 -91 1123 -41 
Q 819 9 494 109 
L 494 744 
Q 775 591 1075 516 
Q 1375 441 1709 441 
Q 2250 441 2565 725 
Q 2881 1009 2881 1497 
Q 2881 1984 2565 2268 
Q 2250 2553 1709 2553 
Q 1456 2553 1204 2497 
Q 953 2441 691 2322 
L 691 4666 
z
" transform="scale(0.015625)"/>
        <path id="DejaVuSans-33" d="M 2597 2516 
Q 3050 2419 3304 2112 
Q 3559 1806 3559 1356 
Q 3559 666 3084 287 
Q 2609 -91 1734 -91 
Q 1441 -91 1130 -33 
Q 819 25 488 141 
L 488 750 
Q 750 597 1062 519 
Q 1375 441 1716 441 
Q 2309 441 2620 675 
Q 2931 909 2931 1356 
Q 2931 1769 2642 2001 
Q 2353 2234 1838 2234 
L 1294 2234 
L 1294 2753 
L 1863 2753 
Q 2328 2753 2575 2939 
Q 2822 3125 2822 3475 
Q 2822 3834 2567 4026 
Q 2313 4219 1838 4219 
Q 1578 4219 1281 4162 
Q 984 4106 628 3988 
L 628 4550 
Q 988 4650 1302 4700 
Q 1616 4750 1894 4750 
Q 2613 4750 3031 4423 
Q 3450 4097 3450 3541 
Q 3450 3153 3228 2886 
Q 3006 2619 2597 2516 
z
" transform="scale(0.015625)"/>
        <path id="DejaVuSans-32" d="M 1228 531 
L 3431 531 
L 3431 0 
L 469 0 
L 469 531 
Q 828 903 1448 1529 
Q 2069 2156 2228 2338 
Q 2531 2678 2651 2914 
Q 2772 3150 2772 3378 
Q 2772 3750 2511 3984 
Q 2250 4219 1831 4219 
Q 1534 4219 1204 4116 
Q 875 4013 500 3803 
L 500 4441 
Q 881 4594 1212 4672 
Q 1544 4750 1819 4750 
Q 2544 4750 2975 4387 
Q 3406 4025 3406 3419 
Q 3406 3131 3298 2873 
Q 3191 2616 2906 2266 
Q 2828 2175 2409 1742 
Q 1991 1309 1228 531 
z
" transform="scale(0.015625)"/>
       </defs>
       <use xlink:href="#DejaVuSans-31"/>
       <use xlink:href="#DejaVuSans-34" x="63.623047"/>
       <use xlink:href="#DejaVuSans-2e" x="127.246094"/>
       <use xlink:href="#DejaVuSans-35" x="159.033203"/>
       <use xlink:href="#DejaVuSans-33" x="222.65625"/>
       <use xlink:href="#DejaVuSans-32" x="286.279297"/>
      </g>
     </g>
    </g>
    <g id="xtick_2">
     <g id="line2d_3">
      <path d="M 145.121651 318.04 
L 145.121651 10.8 
" clip-path="url(#pb0680453f6)" style="fill: none; stroke: #b0b0b0; stroke-width: 0.8; stroke-linecap: square"/>
     </g>
     <g id="line2d_4">
      <g>
       <use xlink:href="#mba3d86fee1" x="145.121651" y="318.04" style="stroke: #000000; stroke-width: 0.8"/>
      </g>
     </g>
     <g id="text_2">
      <!-- 14.534 -->
      <g transform="translate(127.626339 332.638438) scale(0.1 -0.1)">
       <use xlink:href="#DejaVuSans-31"/>
       <use xlink:href="#DejaVuSans-34" x="63.623047"/>
       <use xlink:href="#DejaVuSans-2e" x="127.246094"/>
       <use xlink:href="#DejaVuSans-35" x="159.033203"/>
       <use xlink:href="#DejaVuSans-33" x="222.65625"/>
       <use xlink:href="#DejaVuSans-34" x="286.279297"/>
      </g>
     </g>
    </g>
    <g id="xtick_3">
     <g id="line2d_5">
      <path d="M 186.382391 318.04 
L 186.382391 10.8 
" clip-path="url(#pb0680453f6)" style="fill: none; stroke: #b0b0b0; stroke-width: 0.8; stroke-linecap: square"/>
     </g>
     <g id="line2d_6">
      <g>
       <use xlink:href="#mba3d86fee1" x="186.382391" y="318.04" style="stroke: #000000; stroke-width: 0.8"/>
      </g>
     </g>
     <g id="text_3">
      <!-- 14.536 -->
      <g transform="translate(168.887078 332.638438) scale(0.1 -0.1)">
       <defs>
        <path id="DejaVuSans-36" d="M 2113 2584 
Q 1688 2584 1439 2293 
Q 1191 2003 1191 1497 
Q 1191 994 1439 701 
Q 1688 409 2113 409 
Q 2538 409 2786 701 
Q 3034 994 3034 1497 
Q 3034 2003 2786 2293 
Q 2538 2584 2113 2584 
z
M 3366 4563 
L 3366 3988 
Q 3128 4100 2886 4159 
Q 2644 4219 2406 4219 
Q 1781 4219 1451 3797 
Q 1122 3375 1075 2522 
Q 1259 2794 1537 2939 
Q 1816 3084 2150 3084 
Q 2853 3084 3261 2657 
Q 3669 2231 3669 1497 
Q 3669 778 3244 343 
Q 2819 -91 2113 -91 
Q 1303 -91 875 529 
Q 447 1150 447 2328 
Q 447 3434 972 4092 
Q 1497 4750 2381 4750 
Q 2619 4750 2861 4703 
Q 3103 4656 3366 4563 
z
" transform="scale(0.015625)"/>
       </defs>
       <use xlink:href="#DejaVuSans-31"/>
       <use xlink:href="#DejaVuSans-34" x="63.623047"/>
       <use xlink:href="#DejaVuSans-2e" x="127.246094"/>
       <use xlink:href="#DejaVuSans-35" x="159.033203"/>
       <use xlink:href="#DejaVuSans-33" x="222.65625"/>
       <use xlink:href="#DejaVuSans-36" x="286.279297"/>
      </g>
     </g>
    </g>
    <g id="xtick_4">
     <g id="line2d_7">
      <path d="M 227.64313 318.04 
L 227.64313 10.8 
" clip-path="url(#pb0680453f6)" style="fill: none; stroke: #b0b0b0; stroke-width: 0.8; stroke-linecap: square"/>
     </g>
     <g id="line2d_8">
      <g>
       <use xlink:href="#mba3d86fee1" x="227.64313" y="318.04" style="stroke: #000000; stroke-width: 0.8"/>
      </g>
     </g>
     <g id="text_4">
      <!-- 14.538 -->
      <g transform="translate(210.147818 332.638438) scale(0.1 -0.1)">
       <defs>
        <path id="DejaVuSans-38" d="M 2034 2216 
Q 1584 2216 1326 1975 
Q 1069 1734 1069 1313 
Q 1069 891 1326 650 
Q 1584 409 2034 409 
Q 2484 409 2743 651 
Q 3003 894 3003 1313 
Q 3003 1734 2745 1975 
Q 2488 2216 2034 2216 
z
M 1403 2484 
Q 997 2584 770 2862 
Q 544 3141 544 3541 
Q 544 4100 942 4425 
Q 1341 4750 2034 4750 
Q 2731 4750 3128 4425 
Q 3525 4100 3525 3541 
Q 3525 3141 3298 2862 
Q 3072 2584 2669 2484 
Q 3125 2378 3379 2068 
Q 3634 1759 3634 1313 
Q 3634 634 3220 271 
Q 2806 -91 2034 -91 
Q 1263 -91 848 271 
Q 434 634 434 1313 
Q 434 1759 690 2068 
Q 947 2378 1403 2484 
z
M 1172 3481 
Q 1172 3119 1398 2916 
Q 1625 2713 2034 2713 
Q 2441 2713 2670 2916 
Q 2900 3119 2900 3481 
Q 2900 3844 2670 4047 
Q 2441 4250 2034 4250 
Q 1625 4250 1398 4047 
Q 1172 3844 1172 3481 
z
" transform="scale(0.015625)"/>
       </defs>
       <use xlink:href="#DejaVuSans-31"/>
       <use xlink:href="#DejaVuSans-34" x="63.623047"/>
       <use xlink:href="#DejaVuSans-2e" x="127.246094"/>
       <use xlink:href="#DejaVuSans-35" x="159.033203"/>
       <use xlink:href="#DejaVuSans-33" x="222.65625"/>
       <use xlink:href="#DejaVuSans-38" x="286.279297"/>
      </g>
     </g>
    </g>
    <g id="xtick_5">
     <g id="line2d_9">
      <path d="M 268.90387 318.04 
L 268.90387 10.8 
" clip-path="url(#pb0680453f6)" style="fill: none; stroke: #b0b0b0; stroke-width: 0.8; stroke-linecap: square"/>
     </g>
     <g id="line2d_10">
      <g>
       <use xlink:href="#mba3d86fee1" x="268.90387" y="318.04" style="stroke: #000000; stroke-width: 0.8"/>
      </g>
     </g>
     <g id="text_5">
      <!-- 14.540 -->
      <g transform="translate(251.408557 332.638438) scale(0.1 -0.1)">
       <defs>
        <path id="DejaVuSans-30" d="M 2034 4250 
Q 1547 4250 1301 3770 
Q 1056 3291 1056 2328 
Q 1056 1369 1301 889 
Q 1547 409 2034 409 
Q 2525 409 2770 889 
Q 3016 1369 3016 2328 
Q 3016 3291 2770 3770 
Q 2525 4250 2034 4250 
z
M 2034 4750 
Q 2819 4750 3233 4129 
Q 3647 3509 3647 2328 
Q 3647 1150 3233 529 
Q 2819 -91 2034 -91 
Q 1250 -91 836 529 
Q 422 1150 422 2328 
Q 422 3509 836 4129 
Q 1250 4750 2034 4750 
z
" transform="scale(0.015625)"/>
       </defs>
       <use xlink:href="#DejaVuSans-31"/>
       <use xlink:href="#DejaVuSans-34" x="63.623047"/>
       <use xlink:href="#DejaVuSans-2e" x="127.246094"/>
       <use xlink:href="#DejaVuSans-35" x="159.033203"/>
       <use xlink:href="#DejaVuSans-34" x="222.65625"/>
       <use xlink:href="#DejaVuSans-30" x="286.279297"/>
      </g>
     </g>
    </g>
    <g id="xtick_6">
     <g id="line2d_11">
      <path d="M 310.164609 318.04 
L 310.164609 10.8 
" clip-path="url(#pb0680453f6)" style="fill: none; stroke: #b0b0b0; stroke-width: 0.8; stroke-linecap: square"/>
     </g>
     <g id="line2d_12">
      <g>
       <use xlink:href="#mba3d86fee1" x="310.164609" y="318.04" style="stroke: #000000; stroke-width: 0.8"/>
      </g>
     </g>
     <g id="text_6">
      <!-- 14.542 -->
      <g transform="translate(292.669296 332.638438) scale(0.1 -0.1)">
       <use xlink:href="#DejaVuSans-31"/>
       <use xlink:href="#DejaVuSans-34" x="63.623047"/>
       <use xlink:href="#DejaVuSans-2e" x="127.246094"/>
       <use xlink:href="#DejaVuSans-35" x="159.033203"/>
       <use xlink:href="#DejaVuSans-34" x="222.65625"/>
       <use xlink:href="#DejaVuSans-32" x="286.279297"/>
      </g>
     </g>
    </g>
    <g id="xtick_7">
     <g id="line2d_13">
      <path d="M 351.425348 318.04 
L 351.425348 10.8 
" clip-path="url(#pb0680453f6)" style="fill: none; stroke: #b0b0b0; stroke-width: 0.8; stroke-linecap: square"/>
     </g>
     <g id="line2d_14">
      <g>
       <use xlink:href="#mba3d86fee1" x="351.425348" y="318.04" style="stroke: #000000; stroke-width: 0.8"/>
      </g>
     </g>
     <g id="text_7">
      <!-- 14.544 -->
      <g transform="translate(333.930036 332.638438) scale(0.1 -0.1)">
       <use xlink:href="#DejaVuSans-31"/>
       <use xlink:href="#DejaVuSans-34" x="63.623047"/>
       <use xlink:href="#DejaVuSans-2e" x="127.246094"/>
       <use xlink:href="#DejaVuSans-35" x="159.033203"/>
       <use xlink:href="#DejaVuSans-34" x="222.65625"/>
       <use xlink:href="#DejaVuSans-34" x="286.279297"/>
      </g>
     </g>
    </g>
    <g id="text_8">
     <!-- Longitude [°] -->
     <g transform="translate(192.874665 346.316563) scale(0.1 -0.1)">
      <defs>
       <path id="DejaVuSans-4c" d="M 628 4666 
L 1259 4666 
L 1259 531 
L 3531 531 
L 3531 0 
L 628 0 
L 628 4666 
z
" transform="scale(0.015625)"/>
       <path id="DejaVuSans-6f" d="M 1959 3097 
Q 1497 3097 1228 2736 
Q 959 2375 959 1747 
Q 959 1119 1226 758 
Q 1494 397 1959 397 
Q 2419 397 2687 759 
Q 2956 1122 2956 1747 
Q 2956 2369 2687 2733 
Q 2419 3097 1959 3097 
z
M 1959 3584 
Q 2709 3584 3137 3096 
Q 3566 2609 3566 1747 
Q 3566 888 3137 398 
Q 2709 -91 1959 -91 
Q 1206 -91 779 398 
Q 353 888 353 1747 
Q 353 2609 779 3096 
Q 1206 3584 1959 3584 
z
" transform="scale(0.015625)"/>
       <path id="DejaVuSans-6e" d="M 3513 2113 
L 3513 0 
L 2938 0 
L 2938 2094 
Q 2938 2591 2744 2837 
Q 2550 3084 2163 3084 
Q 1697 3084 1428 2787 
Q 1159 2491 1159 1978 
L 1159 0 
L 581 0 
L 581 3500 
L 1159 3500 
L 1159 2956 
Q 1366 3272 1645 3428 
Q 1925 3584 2291 3584 
Q 2894 3584 3203 3211 
Q 3513 2838 3513 2113 
z
" transform="scale(0.015625)"/>
       <path id="DejaVuSans-67" d="M 2906 1791 
Q 2906 2416 2648 2759 
Q 2391 3103 1925 3103 
Q 1463 3103 1205 2759 
Q 947 2416 947 1791 
Q 947 1169 1205 825 
Q 1463 481 1925 481 
Q 2391 481 2648 825 
Q 2906 1169 2906 1791 
z
M 3481 434 
Q 3481 -459 3084 -895 
Q 2688 -1331 1869 -1331 
Q 1566 -1331 1297 -1286 
Q 1028 -1241 775 -1147 
L 775 -588 
Q 1028 -725 1275 -790 
Q 1522 -856 1778 -856 
Q 2344 -856 2625 -561 
Q 2906 -266 2906 331 
L 2906 616 
Q 2728 306 2450 153 
Q 2172 0 1784 0 
Q 1141 0 747 490 
Q 353 981 353 1791 
Q 353 2603 747 3093 
Q 1141 3584 1784 3584 
Q 2172 3584 2450 3431 
Q 2728 3278 2906 2969 
L 2906 3500 
L 3481 3500 
L 3481 434 
z
" transform="scale(0.015625)"/>
       <path id="DejaVuSans-69" d="M 603 3500 
L 1178 3500 
L 1178 0 
L 603 0 
L 603 3500 
z
M 603 4863 
L 1178 4863 
L 1178 4134 
L 603 4134 
L 603 4863 
z
" transform="scale(0.015625)"/>
       <path id="DejaVuSans-74" d="M 1172 4494 
L 1172 3500 
L 2356 3500 
L 2356 3053 
L 1172 3053 
L 1172 1153 
Q 1172 725 1289 603 
Q 1406 481 1766 481 
L 2356 481 
L 2356 0 
L 1766 0 
Q 1100 0 847 248 
Q 594 497 594 1153 
L 594 3053 
L 172 3053 
L 172 3500 
L 594 3500 
L 594 4494 
L 1172 4494 
z
" transform="scale(0.015625)"/>
       <path id="DejaVuSans-75" d="M 544 1381 
L 544 3500 
L 1119 3500 
L 1119 1403 
Q 1119 906 1312 657 
Q 1506 409 1894 409 
Q 2359 409 2629 706 
Q 2900 1003 2900 1516 
L 2900 3500 
L 3475 3500 
L 3475 0 
L 2900 0 
L 2900 538 
Q 2691 219 2414 64 
Q 2138 -91 1772 -91 
Q 1169 -91 856 284 
Q 544 659 544 1381 
z
M 1991 3584 
L 1991 3584 
z
" transform="scale(0.015625)"/>
       <path id="DejaVuSans-64" d="M 2906 2969 
L 2906 4863 
L 3481 4863 
L 3481 0 
L 2906 0 
L 2906 525 
Q 2725 213 2448 61 
Q 2172 -91 1784 -91 
Q 1150 -91 751 415 
Q 353 922 353 1747 
Q 353 2572 751 3078 
Q 1150 3584 1784 3584 
Q 2172 3584 2448 3432 
Q 2725 3281 2906 2969 
z
M 947 1747 
Q 947 1113 1208 752 
Q 1469 391 1925 391 
Q 2381 391 2643 752 
Q 2906 1113 2906 1747 
Q 2906 2381 2643 2742 
Q 2381 3103 1925 3103 
Q 1469 3103 1208 2742 
Q 947 2381 947 1747 
z
" transform="scale(0.015625)"/>
       <path id="DejaVuSans-65" d="M 3597 1894 
L 3597 1613 
L 953 1613 
Q 991 1019 1311 708 
Q 1631 397 2203 397 
Q 2534 397 2845 478 
Q 3156 559 3463 722 
L 3463 178 
Q 3153 47 2828 -22 
Q 2503 -91 2169 -91 
Q 1331 -91 842 396 
Q 353 884 353 1716 
Q 353 2575 817 3079 
Q 1281 3584 2069 3584 
Q 2775 3584 3186 3129 
Q 3597 2675 3597 1894 
z
M 3022 2063 
Q 3016 2534 2758 2815 
Q 2500 3097 2075 3097 
Q 1594 3097 1305 2825 
Q 1016 2553 972 2059 
L 3022 2063 
z
" transform="scale(0.015625)"/>
       <path id="DejaVuSans-20" transform="scale(0.015625)"/>
       <path id="DejaVuSans-5b" d="M 550 4863 
L 1875 4863 
L 1875 4416 
L 1125 4416 
L 1125 -397 
L 1875 -397 
L 1875 -844 
L 550 -844 
L 550 4863 
z
" transform="scale(0.015625)"/>
       <path id="DejaVuSans-b0" d="M 1600 4347 
Q 1350 4347 1178 4173 
Q 1006 4000 1006 3750 
Q 1006 3503 1178 3333 
Q 1350 3163 1600 3163 
Q 1850 3163 2022 3333 
Q 2194 3503 2194 3750 
Q 2194 3997 2020 4172 
Q 1847 4347 1600 4347 
z
M 1600 4750 
Q 1800 4750 1984 4673 
Q 2169 4597 2303 4453 
Q 2447 4313 2519 4134 
Q 2591 3956 2591 3750 
Q 2591 3338 2302 3052 
Q 2013 2766 1594 2766 
Q 1172 2766 890 3047 
Q 609 3328 609 3750 
Q 609 4169 896 4459 
Q 1184 4750 1600 4750 
z
" transform="scale(0.015625)"/>
       <path id="DejaVuSans-5d" d="M 1947 4863 
L 1947 -844 
L 622 -844 
L 622 -397 
L 1369 -397 
L 1369 4416 
L 622 4416 
L 622 4863 
L 1947 4863 
z
" transform="scale(0.015625)"/>
      </defs>
      <use xlink:href="#DejaVuSans-4c"/>
      <use xlink:href="#DejaVuSans-6f" x="53.962891"/>
      <use xlink:href="#DejaVuSans-6e" x="115.144531"/>
      <use xlink:href="#DejaVuSans-67" x="178.523438"/>
      <use xlink:href="#DejaVuSans-69" x="242"/>
      <use xlink:href="#DejaVuSans-74" x="269.783203"/>
      <use xlink:href="#DejaVuSans-75" x="308.992188"/>
      <use xlink:href="#DejaVuSans-64" x="372.371094"/>
      <use xlink:href="#DejaVuSans-65" x="435.847656"/>
      <use xlink:href="#DejaVuSans-20" x="497.371094"/>
      <use xlink:href="#DejaVuSans-5b" x="529.158203"/>
      <use xlink:href="#DejaVuSans-b0" x="568.171875"/>
      <use xlink:href="#DejaVuSans-5d" x="618.171875"/>
     </g>
    </g>
   </g>
   <g id="matplotlib.axis_2">
    <g id="ytick_1">
     <g id="line2d_15">
      <path d="M 66.62 314.33238 
L 384.849642 314.33238 
" clip-path="url(#pb0680453f6)" style="fill: none; stroke: #b0b0b0; stroke-width: 0.8; stroke-linecap: square"/>
     </g>
     <g id="line2d_16">
      <defs>
       <path id="m0322c55d53" d="M 0 0 
L -3.5 0 
" style="stroke: #000000; stroke-width: 0.8"/>
      </defs>
      <g>
       <use xlink:href="#m0322c55d53" x="66.62" y="314.33238" style="stroke: #000000; stroke-width: 0.8"/>
      </g>
     </g>
     <g id="text_9">
      <!-- 50.001 -->
      <g transform="translate(24.629375 318.131599) scale(0.1 -0.1)">
       <use xlink:href="#DejaVuSans-35"/>
       <use xlink:href="#DejaVuSans-30" x="63.623047"/>
       <use xlink:href="#DejaVuSans-2e" x="127.246094"/>
       <use xlink:href="#DejaVuSans-30" x="159.033203"/>
       <use xlink:href="#DejaVuSans-30" x="222.65625"/>
       <use xlink:href="#DejaVuSans-31" x="286.279297"/>
      </g>
     </g>
    </g>
    <g id="ytick_2">
     <g id="line2d_17">
      <path d="M 66.62 263.298378 
L 384.849642 263.298378 
" clip-path="url(#pb0680453f6)" style="fill: none; stroke: #b0b0b0; stroke-width: 0.8; stroke-linecap: square"/>
     </g>
     <g id="line2d_18">
      <g>
       <use xlink:href="#m0322c55d53" x="66.62" y="263.298378" style="stroke: #000000; stroke-width: 0.8"/>
      </g>
     </g>
     <g id="text_10">
      <!-- 50.002 -->
      <g transform="translate(24.629375 267.097597) scale(0.1 -0.1)">
       <use xlink:href="#DejaVuSans-35"/>
       <use xlink:href="#DejaVuSans-30" x="63.623047"/>
       <use xlink:href="#DejaVuSans-2e" x="127.246094"/>
       <use xlink:href="#DejaVuSans-30" x="159.033203"/>
       <use xlink:href="#DejaVuSans-30" x="222.65625"/>
       <use xlink:href="#DejaVuSans-32" x="286.279297"/>
      </g>
     </g>
    </g>
    <g id="ytick_3">
     <g id="line2d_19">
      <path d="M 66.62 212.264377 
L 384.849642 212.264377 
" clip-path="url(#pb0680453f6)" style="fill: none; stroke: #b0b0b0; stroke-width: 0.8; stroke-linecap: square"/>
     </g>
     <g id="line2d_20">
      <g>
       <use xlink:href="#m0322c55d53" x="66.62" y="212.264377" style="stroke: #000000; stroke-width: 0.8"/>
      </g>
     </g>
     <g id="text_11">
      <!-- 50.003 -->
      <g transform="translate(24.629375 216.063595) scale(0.1 -0.1)">
       <use xlink:href="#DejaVuSans-35"/>
       <use xlink:href="#DejaVuSans-30" x="63.623047"/>
       <use xlink:href="#DejaVuSans-2e" x="127.246094"/>
       <use xlink:href="#DejaVuSans-30" x="159.033203"/>
       <use xlink:href="#DejaVuSans-30" x="222.65625"/>
       <use xlink:href="#DejaVuSans-33" x="286.279297"/>
      </g>
     </g>
    </g>
    <g id="ytick_4">
     <g id="line2d_21">
      <path d="M 66.62 161.230375 
L 384.849642 161.230375 
" clip-path="url(#pb0680453f6)" style="fill: none; stroke: #b0b0b0; stroke-width: 0.8; stroke-linecap: square"/>
     </g>
     <g id="line2d_22">
      <g>
       <use xlink:href="#m0322c55d53" x="66.62" y="161.230375" style="stroke: #000000; stroke-width: 0.8"/>
      </g>
     </g>
     <g id="text_12">
      <!-- 50.004 -->
      <g transform="translate(24.629375 165.029594) scale(0.1 -0.1)">
       <use xlink:href="#DejaVuSans-35"/>
       <use xlink:href="#DejaVuSans-30" x="63.623047"/>
       <use xlink:href="#DejaVuSans-2e" x="127.246094"/>
       <use xlink:href="#DejaVuSans-30" x="159.033203"/>
       <use xlink:href="#DejaVuSans-30" x="222.65625"/>
       <use xlink:href="#DejaVuSans-34" x="286.279297"/>
      </g>
     </g>
    </g>
    <g id="ytick_5">
     <g id="line2d_23">
      <path d="M 66.62 110.196373 
L 384.849642 110.196373 
" clip-path="url(#pb0680453f6)" style="fill: none; stroke: #b0b0b0; stroke-width: 0.8; stroke-linecap: square"/>
     </g>
     <g id="line2d_24">
      <g>
       <use xlink:href="#m0322c55d53" x="66.62" y="110.196373" style="stroke: #000000; stroke-width: 0.8"/>
      </g>
     </g>
     <g id="text_13">
      <!-- 50.005 -->
      <g transform="translate(24.629375 113.995592) scale(0.1 -0.1)">
       <use xlink:href="#DejaVuSans-35"/>
       <use xlink:href="#DejaVuSans-30" x="63.623047"/>
       <use xlink:href="#DejaVuSans-2e" x="127.246094"/>
       <use xlink:href="#DejaVuSans-30" x="159.033203"/>
       <use xlink:href="#DejaVuSans-30" x="222.65625"/>
       <use xlink:href="#DejaVuSans-35" x="286.279297"/>
      </g>
     </g>
    </g>
    <g id="ytick_6">
     <g id="line2d_25">
      <path d="M 66.62 59.162372 
L 384.849642 59.162372 
" clip-path="url(#pb0680453f6)" style="fill: none; stroke: #b0b0b0; stroke-width: 0.8; stroke-linecap: square"/>
     </g>
     <g id="line2d_26">
      <g>
       <use xlink:href="#m0322c55d53" x="66.62" y="59.162372" style="stroke: #000000; stroke-width: 0.8"/>
      </g>
     </g>
     <g id="text_14">
      <!-- 50.006 -->
      <g transform="translate(24.629375 62.96159) scale(0.1 -0.1)">
       <use xlink:href="#DejaVuSans-35"/>
       <use xlink:href="#DejaVuSans-30" x="63.623047"/>
       <use xlink:href="#DejaVuSans-2e" x="127.246094"/>
       <use xlink:href="#DejaVuSans-30" x="159.033203"/>
       <use xlink:href="#DejaVuSans-30" x="222.65625"/>
       <use xlink:href="#DejaVuSans-36" x="286.279297"/>
      </g>
     </g>
    </g>
    <g id="text_15">
     <!-- Latitude [°] -->
     <g transform="translate(18.549688 192.989531) rotate(-90) scale(0.1 -0.1)">
      <defs>
       <path id="DejaVuSans-61" d="M 2194 1759 
Q 1497 1759 1228 1600 
Q 959 1441 959 1056 
Q 959 750 1161 570 
Q 1363 391 1709 391 
Q 2188 391 2477 730 
Q 2766 1069 2766 1631 
L 2766 1759 
L 2194 1759 
z
M 3341 1997 
L 3341 0 
L 2766 0 
L 2766 531 
Q 2569 213 2275 61 
Q 1981 -91 1556 -91 
Q 1019 -91 701 211 
Q 384 513 384 1019 
Q 384 1609 779 1909 
Q 1175 2209 1959 2209 
L 2766 2209 
L 2766 2266 
Q 2766 2663 2505 2880 
Q 2244 3097 1772 3097 
Q 1472 3097 1187 3025 
Q 903 2953 641 2809 
L 641 3341 
Q 956 3463 1253 3523 
Q 1550 3584 1831 3584 
Q 2591 3584 2966 3190 
Q 3341 2797 3341 1997 
z
" transform="scale(0.015625)"/>
      </defs>
      <use xlink:href="#DejaVuSans-4c"/>
      <use xlink:href="#DejaVuSans-61" x="55.712891"/>
      <use xlink:href="#DejaVuSans-74" x="116.992188"/>
      <use xlink:href="#DejaVuSans-69" x="156.201172"/>
      <use xlink:href="#DejaVuSans-74" x="183.984375"/>
      <use xlink:href="#DejaVuSans-75" x="223.193359"/>
      <use xlink:href="#DejaVuSans-64" x="286.572266"/>
      <use xlink:href="#DejaVuSans-65" x="350.048828"/>
      <use xlink:href="#DejaVuSans-20" x="411.572266"/>
      <use xlink:href="#DejaVuSans-5b" x="443.359375"/>
      <use xlink:href="#DejaVuSans-b0" x="482.373047"/>
      <use xlink:href="#DejaVuSans-5d" x="532.373047"/>
     </g>
    </g>
   </g>
   <g id="patch_3">
    <path d="M 66.62 318.04 
L 66.62 10.8 
" style="fill: none; stroke: #000000; stroke-width: 0.8; stroke-linejoin: miter; stroke-linecap: square"/>
   </g>
   <g id="patch_4">
    <path d="M 384.849642 318.04 
L 384.849642 10.8 
" style="fill: none; stroke: #000000; stroke-width: 0.8; stroke-linejoin: miter; stroke-linecap: square"/>
   </g>
   <g id="patch_5">
    <path d="M 66.62 318.04 
L 384.849642 318.04 
" style="fill: none; stroke: #000000; stroke-width: 0.8; stroke-linejoin: miter; stroke-linecap: square"/>
   </g>
   <g id="patch_6">
    <path d="M 66.62 10.8 
L 384.849642 10.8 
" style="fill: none; stroke: #000000; stroke-width: 0.8; stroke-linejoin: miter; stroke-linecap: square"/>
   </g>
   <g id="text_16">
    <!-- 0 -->
    <g transform="translate(81.084984 304.074545) scale(0.1 -0.1)">
     <use xlink:href="#DejaVuSans-30"/>
    </g>
   </g>
   <g id="text_17">
    <!-- 1 -->
    <g transform="translate(96.640282 279.272021) scale(0.1 -0.1)">
     <use xlink:href="#DejaVuSans-31"/>
    </g>
   </g>
   <g id="text_18">
    <!-- 2 -->
    <g transform="translate(112.422515 251.254354) scale(0.1 -0.1)">
     <use xlink:href="#DejaVuSans-32"/>
    </g>
   </g>
   <g id="text_19">
    <!-- 3 -->
    <g transform="translate(147.019645 197.107278) scale(0.1 -0.1)">
     <use xlink:href="#DejaVuSans-33"/>
    </g>
   </g>
   <g id="text_20">
    <!-- 4 -->
    <g transform="translate(163.99844 172.253719) scale(0.1 -0.1)">
     <use xlink:href="#DejaVuSans-34"/>
    </g>
   </g>
   <g id="text_21">
    <!-- 5 -->
    <g transform="translate(198.100441 122.240398) scale(0.1 -0.1)">
     <use xlink:href="#DejaVuSans-35"/>
    </g>
   </g>
   <g id="text_22">
    <!-- 6 -->
    <g transform="translate(221.742844 87.384175) scale(0.1 -0.1)">
     <use xlink:href="#DejaVuSans-36"/>
    </g>
   </g>
   <g id="text_23">
    <!-- 7 -->
    <g transform="translate(249.923929 66.205064) scale(0.1 -0.1)">
     <defs>
      <path id="DejaVuSans-37" d="M 525 4666 
L 3525 4666 
L 3525 4397 
L 1831 0 
L 1172 0 
L 2766 4134 
L 525 4134 
L 525 4666 
z
" transform="scale(0.015625)"/>
     </defs>
     <use xlink:href="#DejaVuSans-37"/>
    </g>
   </g>
   <g id="text_24">
    <!-- 8 -->
    <g transform="translate(283.118194 54.212073) scale(0.1 -0.1)">
     <use xlink:href="#DejaVuSans-38"/>
    </g>
   </g>
   <g id="text_25">
    <!-- 9 -->
    <g transform="translate(320.397272 43.648035) scale(0.1 -0.1)">
     <defs>
      <path id="DejaVuSans-39" d="M 703 97 
L 703 672 
Q 941 559 1184 500 
Q 1428 441 1663 441 
Q 2288 441 2617 861 
Q 2947 1281 2994 2138 
Q 2813 1869 2534 1725 
Q 2256 1581 1919 1581 
Q 1219 1581 811 2004 
Q 403 2428 403 3163 
Q 403 3881 828 4315 
Q 1253 4750 1959 4750 
Q 2769 4750 3195 4129 
Q 3622 3509 3622 2328 
Q 3622 1225 3098 567 
Q 2575 -91 1691 -91 
Q 1453 -91 1209 -44 
Q 966 3 703 97 
z
M 1959 2075 
Q 2384 2075 2632 2365 
Q 2881 2656 2881 3163 
Q 2881 3666 2632 3958 
Q 2384 4250 1959 4250 
Q 1534 4250 1286 3958 
Q 1038 3666 1038 3163 
Q 1038 2656 1286 2365 
Q 1534 2075 1959 2075 
z
" transform="scale(0.015625)"/>
     </defs>
     <use xlink:href="#DejaVuSans-39"/>
    </g>
   </g>
   <g id="text_26">
    <!-- 10 -->
    <g transform="translate(364.051135 28.082665) scale(0.1 -0.1)">
     <use xlink:href="#DejaVuSans-31"/>
     <use xlink:href="#DejaVuSans-30" x="63.623047"/>
    </g>
   </g>
   <g id="text_27">
    <!-- 11 -->
    <g transform="translate(370.384658 24.765455) scale(0.1 -0.1)">
     <use xlink:href="#DejaVuSans-31"/>
     <use xlink:href="#DejaVuSans-31" x="63.623047"/>
    </g>
   </g>
  </g>
  <g id="axes_2">
   <g id="patch_7">
    <path d="M 432.740716 318.04 
L 1069.2 318.04 
L 1069.2 10.8 
L 432.740716 10.8 
z
" style="fill: #ffffff"/>
   </g>
   <g id="PathCollection_13">
    <defs>
     <path id="md50b84caf0" d="M -6.123724 0 
L 6.123724 0 
M 0 6.123724 
L 0 -6.123724 
" style="stroke: #000000; stroke-width: 1.5"/>
    </defs>
    <g clip-path="url(#p1225f06c5c)">
     <use xlink:href="#md50b84caf0" x="461.670684" y="215.720123" style="stroke: #000000; stroke-width: 1.5"/>
    </g>
   </g>
   <g id="PathCollection_14">
    <g clip-path="url(#p1225f06c5c)">
     <use xlink:href="#md50b84caf0" x="461.670684" y="199.958786" style="stroke: #000000; stroke-width: 1.5"/>
    </g>
   </g>
   <g id="PathCollection_15">
    <g clip-path="url(#p1225f06c5c)">
     <use xlink:href="#md50b84caf0" x="461.670684" y="180.257113" style="stroke: #000000; stroke-width: 1.5"/>
    </g>
   </g>
   <g id="PathCollection_16">
    <g clip-path="url(#p1225f06c5c)">
     <use xlink:href="#md50b84caf0" x="499.324203" y="182.591004" style="stroke: #000000; stroke-width: 1.5"/>
    </g>
   </g>
   <g id="PathCollection_17">
    <defs>
     <path id="m8fdb470b33" d="M 0 3.535534 
C 0.937635 3.535534 1.836992 3.163008 2.5 2.5 
C 3.163008 1.836992 3.535534 0.937635 3.535534 0 
C 3.535534 -0.937635 3.163008 -1.836992 2.5 -2.5 
C 1.836992 -3.163008 0.937635 -3.535534 0 -3.535534 
C -0.937635 -3.535534 -1.836992 -3.163008 -2.5 -2.5 
C -3.163008 -1.836992 -3.535534 -0.937635 -3.535534 0 
C -3.535534 0.937635 -3.163008 1.836992 -2.5 2.5 
C -1.836992 3.163008 -0.937635 3.535534 0 3.535534 
z
" style="stroke: #000000"/>
    </defs>
    <g clip-path="url(#p1225f06c5c)">
     <use xlink:href="#m8fdb470b33" x="499.324203" y="247.606522" style="stroke: #000000"/>
    </g>
   </g>
   <g id="PathCollection_18">
    <g clip-path="url(#p1225f06c5c)">
     <use xlink:href="#md50b84caf0" x="539.710969" y="210.870481" style="stroke: #000000; stroke-width: 1.5"/>
    </g>
   </g>
   <g id="PathCollection_19">
    <g clip-path="url(#p1225f06c5c)">
     <use xlink:href="#m8fdb470b33" x="539.710969" y="275.885999" style="stroke: #000000"/>
    </g>
   </g>
   <g id="PathCollection_20">
    <g clip-path="url(#p1225f06c5c)">
     <use xlink:href="#md50b84caf0" x="622.595143" y="167.678353" style="stroke: #000000; stroke-width: 1.5"/>
    </g>
   </g>
   <g id="PathCollection_21">
    <g clip-path="url(#p1225f06c5c)">
     <use xlink:href="#m8fdb470b33" x="622.595143" y="232.693872" style="stroke: #000000"/>
    </g>
   </g>
   <g id="PathCollection_22">
    <g clip-path="url(#p1225f06c5c)">
     <use xlink:href="#md50b84caf0" x="661.988006" y="129.760212" style="stroke: #000000; stroke-width: 1.5"/>
    </g>
   </g>
   <g id="PathCollection_23">
    <g clip-path="url(#p1225f06c5c)">
     <use xlink:href="#m8fdb470b33" x="661.988006" y="194.77573" style="stroke: #000000"/>
    </g>
   </g>
   <g id="PathCollection_24">
    <g clip-path="url(#p1225f06c5c)">
     <use xlink:href="#md50b84caf0" x="741.222106" y="24.765455" style="stroke: #000000; stroke-width: 1.5"/>
    </g>
   </g>
   <g id="PathCollection_25">
    <g clip-path="url(#p1225f06c5c)">
     <use xlink:href="#m8fdb470b33" x="741.222106" y="89.780973" style="stroke: #000000"/>
    </g>
   </g>
   <g id="PathCollection_26">
    <g clip-path="url(#p1225f06c5c)">
     <use xlink:href="#md50b84caf0" x="796.288058" y="39.465933" style="stroke: #000000; stroke-width: 1.5"/>
    </g>
   </g>
   <g id="PathCollection_27">
    <g clip-path="url(#p1225f06c5c)">
     <use xlink:href="#m8fdb470b33" x="796.288058" y="104.481451" style="stroke: #000000"/>
    </g>
   </g>
   <g id="PathCollection_28">
    <g clip-path="url(#p1225f06c5c)">
     <use xlink:href="#md50b84caf0" x="847.130961" y="65.426675" style="stroke: #000000; stroke-width: 1.5"/>
    </g>
   </g>
   <g id="PathCollection_29">
    <g clip-path="url(#p1225f06c5c)">
     <use xlink:href="#m8fdb470b33" x="847.130961" y="130.442193" style="stroke: #000000"/>
    </g>
   </g>
   <g id="PathCollection_30">
    <g clip-path="url(#p1225f06c5c)">
     <use xlink:href="#md50b84caf0" x="899.119241" y="69.321544" style="stroke: #000000; stroke-width: 1.5"/>
    </g>
   </g>
   <g id="PathCollection_31">
    <g clip-path="url(#p1225f06c5c)">
     <use xlink:href="#m8fdb470b33" x="899.119241" y="134.337062" style="stroke: #000000"/>
    </g>
   </g>
   <g id="PathCollection_32">
    <g clip-path="url(#p1225f06c5c)">
     <use xlink:href="#md50b84caf0" x="957.379771" y="60.713429" style="stroke: #000000; stroke-width: 1.5"/>
    </g>
   </g>
   <g id="PathCollection_33">
    <g clip-path="url(#p1225f06c5c)">
     <use xlink:href="#m8fdb470b33" x="957.379771" y="125.728947" style="stroke: #000000"/>
    </g>
   </g>
   <g id="PathCollection_34">
    <g clip-path="url(#p1225f06c5c)">
     <use xlink:href="#md50b84caf0" x="1029.158025" y="148.294939" style="stroke: #000000; stroke-width: 1.5"/>
    </g>
   </g>
   <g id="PathCollection_35">
    <g clip-path="url(#p1225f06c5c)">
     <use xlink:href="#m8fdb470b33" x="1029.158025" y="213.310457" style="stroke: #000000"/>
    </g>
   </g>
   <g id="PathCollection_36">
    <g clip-path="url(#p1225f06c5c)">
     <use xlink:href="#md50b84caf0" x="1040.270033" y="154.64494" style="stroke: #000000; stroke-width: 1.5"/>
    </g>
   </g>
   <g id="PathCollection_37">
    <g clip-path="url(#p1225f06c5c)">
     <use xlink:href="#m8fdb470b33" x="1040.270033" y="219.660458" style="stroke: #000000"/>
    </g>
   </g>
   <g id="matplotlib.axis_3">
    <g id="xtick_8">
     <g id="line2d_27">
      <path d="M 461.670684 318.04 
L 461.670684 10.8 
" clip-path="url(#p1225f06c5c)" style="fill: none; stroke: #b0b0b0; stroke-width: 0.8; stroke-linecap: square"/>
     </g>
     <g id="line2d_28">
      <g>
       <use xlink:href="#mba3d86fee1" x="461.670684" y="318.04" style="stroke: #000000; stroke-width: 0.8"/>
      </g>
     </g>
     <g id="text_28">
      <!-- 0 -->
      <g transform="translate(458.489434 332.638438) scale(0.1 -0.1)">
       <use xlink:href="#DejaVuSans-30"/>
      </g>
     </g>
    </g>
    <g id="xtick_9">
     <g id="line2d_29">
      <path d="M 560.135805 318.04 
L 560.135805 10.8 
" clip-path="url(#p1225f06c5c)" style="fill: none; stroke: #b0b0b0; stroke-width: 0.8; stroke-linecap: square"/>
     </g>
     <g id="line2d_30">
      <g>
       <use xlink:href="#mba3d86fee1" x="560.135805" y="318.04" style="stroke: #000000; stroke-width: 0.8"/>
      </g>
     </g>
     <g id="text_29">
      <!-- 200 -->
      <g transform="translate(550.592055 332.638438) scale(0.1 -0.1)">
       <use xlink:href="#DejaVuSans-32"/>
       <use xlink:href="#DejaVuSans-30" x="63.623047"/>
       <use xlink:href="#DejaVuSans-30" x="127.246094"/>
      </g>
     </g>
    </g>
    <g id="xtick_10">
     <g id="line2d_31">
      <path d="M 658.600927 318.04 
L 658.600927 10.8 
" clip-path="url(#p1225f06c5c)" style="fill: none; stroke: #b0b0b0; stroke-width: 0.8; stroke-linecap: square"/>
     </g>
     <g id="line2d_32">
      <g>
       <use xlink:href="#mba3d86fee1" x="658.600927" y="318.04" style="stroke: #000000; stroke-width: 0.8"/>
      </g>
     </g>
     <g id="text_30">
      <!-- 400 -->
      <g transform="translate(649.057177 332.638438) scale(0.1 -0.1)">
       <use xlink:href="#DejaVuSans-34"/>
       <use xlink:href="#DejaVuSans-30" x="63.623047"/>
       <use xlink:href="#DejaVuSans-30" x="127.246094"/>
      </g>
     </g>
    </g>
    <g id="xtick_11">
     <g id="line2d_33">
      <path d="M 757.066049 318.04 
L 757.066049 10.8 
" clip-path="url(#p1225f06c5c)" style="fill: none; stroke: #b0b0b0; stroke-width: 0.8; stroke-linecap: square"/>
     </g>
     <g id="line2d_34">
      <g>
       <use xlink:href="#mba3d86fee1" x="757.066049" y="318.04" style="stroke: #000000; stroke-width: 0.8"/>
      </g>
     </g>
     <g id="text_31">
      <!-- 600 -->
      <g transform="translate(747.522299 332.638438) scale(0.1 -0.1)">
       <use xlink:href="#DejaVuSans-36"/>
       <use xlink:href="#DejaVuSans-30" x="63.623047"/>
       <use xlink:href="#DejaVuSans-30" x="127.246094"/>
      </g>
     </g>
    </g>
    <g id="xtick_12">
     <g id="line2d_35">
      <path d="M 855.53117 318.04 
L 855.53117 10.8 
" clip-path="url(#p1225f06c5c)" style="fill: none; stroke: #b0b0b0; stroke-width: 0.8; stroke-linecap: square"/>
     </g>
     <g id="line2d_36">
      <g>
       <use xlink:href="#mba3d86fee1" x="855.53117" y="318.04" style="stroke: #000000; stroke-width: 0.8"/>
      </g>
     </g>
     <g id="text_32">
      <!-- 800 -->
      <g transform="translate(845.98742 332.638438) scale(0.1 -0.1)">
       <use xlink:href="#DejaVuSans-38"/>
       <use xlink:href="#DejaVuSans-30" x="63.623047"/>
       <use xlink:href="#DejaVuSans-30" x="127.246094"/>
      </g>
     </g>
    </g>
    <g id="xtick_13">
     <g id="line2d_37">
      <path d="M 953.996292 318.04 
L 953.996292 10.8 
" clip-path="url(#p1225f06c5c)" style="fill: none; stroke: #b0b0b0; stroke-width: 0.8; stroke-linecap: square"/>
     </g>
     <g id="line2d_38">
      <g>
       <use xlink:href="#mba3d86fee1" x="953.996292" y="318.04" style="stroke: #000000; stroke-width: 0.8"/>
      </g>
     </g>
     <g id="text_33">
      <!-- 1000 -->
      <g transform="translate(941.271292 332.638438) scale(0.1 -0.1)">
       <use xlink:href="#DejaVuSans-31"/>
       <use xlink:href="#DejaVuSans-30" x="63.623047"/>
       <use xlink:href="#DejaVuSans-30" x="127.246094"/>
       <use xlink:href="#DejaVuSans-30" x="190.869141"/>
      </g>
     </g>
    </g>
    <g id="xtick_14">
     <g id="line2d_39">
      <path d="M 1052.461414 318.04 
L 1052.461414 10.8 
" clip-path="url(#p1225f06c5c)" style="fill: none; stroke: #b0b0b0; stroke-width: 0.8; stroke-linecap: square"/>
     </g>
     <g id="line2d_40">
      <g>
       <use xlink:href="#mba3d86fee1" x="1052.461414" y="318.04" style="stroke: #000000; stroke-width: 0.8"/>
      </g>
     </g>
     <g id="text_34">
      <!-- 1200 -->
      <g transform="translate(1039.736414 332.638438) scale(0.1 -0.1)">
       <use xlink:href="#DejaVuSans-31"/>
       <use xlink:href="#DejaVuSans-32" x="63.623047"/>
       <use xlink:href="#DejaVuSans-30" x="127.246094"/>
       <use xlink:href="#DejaVuSans-30" x="190.869141"/>
      </g>
     </g>
    </g>
    <g id="text_35">
     <!-- Transmitting distance [m] -->
     <g transform="translate(686.712546 346.316563) scale(0.1 -0.1)">
      <defs>
       <path id="DejaVuSans-54" d="M -19 4666 
L 3928 4666 
L 3928 4134 
L 2272 4134 
L 2272 0 
L 1638 0 
L 1638 4134 
L -19 4134 
L -19 4666 
z
" transform="scale(0.015625)"/>
       <path id="DejaVuSans-72" d="M 2631 2963 
Q 2534 3019 2420 3045 
Q 2306 3072 2169 3072 
Q 1681 3072 1420 2755 
Q 1159 2438 1159 1844 
L 1159 0 
L 581 0 
L 581 3500 
L 1159 3500 
L 1159 2956 
Q 1341 3275 1631 3429 
Q 1922 3584 2338 3584 
Q 2397 3584 2469 3576 
Q 2541 3569 2628 3553 
L 2631 2963 
z
" transform="scale(0.015625)"/>
       <path id="DejaVuSans-73" d="M 2834 3397 
L 2834 2853 
Q 2591 2978 2328 3040 
Q 2066 3103 1784 3103 
Q 1356 3103 1142 2972 
Q 928 2841 928 2578 
Q 928 2378 1081 2264 
Q 1234 2150 1697 2047 
L 1894 2003 
Q 2506 1872 2764 1633 
Q 3022 1394 3022 966 
Q 3022 478 2636 193 
Q 2250 -91 1575 -91 
Q 1294 -91 989 -36 
Q 684 19 347 128 
L 347 722 
Q 666 556 975 473 
Q 1284 391 1588 391 
Q 1994 391 2212 530 
Q 2431 669 2431 922 
Q 2431 1156 2273 1281 
Q 2116 1406 1581 1522 
L 1381 1569 
Q 847 1681 609 1914 
Q 372 2147 372 2553 
Q 372 3047 722 3315 
Q 1072 3584 1716 3584 
Q 2034 3584 2315 3537 
Q 2597 3491 2834 3397 
z
" transform="scale(0.015625)"/>
       <path id="DejaVuSans-6d" d="M 3328 2828 
Q 3544 3216 3844 3400 
Q 4144 3584 4550 3584 
Q 5097 3584 5394 3201 
Q 5691 2819 5691 2113 
L 5691 0 
L 5113 0 
L 5113 2094 
Q 5113 2597 4934 2840 
Q 4756 3084 4391 3084 
Q 3944 3084 3684 2787 
Q 3425 2491 3425 1978 
L 3425 0 
L 2847 0 
L 2847 2094 
Q 2847 2600 2669 2842 
Q 2491 3084 2119 3084 
Q 1678 3084 1418 2786 
Q 1159 2488 1159 1978 
L 1159 0 
L 581 0 
L 581 3500 
L 1159 3500 
L 1159 2956 
Q 1356 3278 1631 3431 
Q 1906 3584 2284 3584 
Q 2666 3584 2933 3390 
Q 3200 3197 3328 2828 
z
" transform="scale(0.015625)"/>
       <path id="DejaVuSans-63" d="M 3122 3366 
L 3122 2828 
Q 2878 2963 2633 3030 
Q 2388 3097 2138 3097 
Q 1578 3097 1268 2742 
Q 959 2388 959 1747 
Q 959 1106 1268 751 
Q 1578 397 2138 397 
Q 2388 397 2633 464 
Q 2878 531 3122 666 
L 3122 134 
Q 2881 22 2623 -34 
Q 2366 -91 2075 -91 
Q 1284 -91 818 406 
Q 353 903 353 1747 
Q 353 2603 823 3093 
Q 1294 3584 2113 3584 
Q 2378 3584 2631 3529 
Q 2884 3475 3122 3366 
z
" transform="scale(0.015625)"/>
      </defs>
      <use xlink:href="#DejaVuSans-54"/>
      <use xlink:href="#DejaVuSans-72" x="46.333984"/>
      <use xlink:href="#DejaVuSans-61" x="87.447266"/>
      <use xlink:href="#DejaVuSans-6e" x="148.726562"/>
      <use xlink:href="#DejaVuSans-73" x="212.105469"/>
      <use xlink:href="#DejaVuSans-6d" x="264.205078"/>
      <use xlink:href="#DejaVuSans-69" x="361.617188"/>
      <use xlink:href="#DejaVuSans-74" x="389.400391"/>
      <use xlink:href="#DejaVuSans-74" x="428.609375"/>
      <use xlink:href="#DejaVuSans-69" x="467.818359"/>
      <use xlink:href="#DejaVuSans-6e" x="495.601562"/>
      <use xlink:href="#DejaVuSans-67" x="558.980469"/>
      <use xlink:href="#DejaVuSans-20" x="622.457031"/>
      <use xlink:href="#DejaVuSans-64" x="654.244141"/>
      <use xlink:href="#DejaVuSans-69" x="717.720703"/>
      <use xlink:href="#DejaVuSans-73" x="745.503906"/>
      <use xlink:href="#DejaVuSans-74" x="797.603516"/>
      <use xlink:href="#DejaVuSans-61" x="836.8125"/>
      <use xlink:href="#DejaVuSans-6e" x="898.091797"/>
      <use xlink:href="#DejaVuSans-63" x="961.470703"/>
      <use xlink:href="#DejaVuSans-65" x="1016.451172"/>
      <use xlink:href="#DejaVuSans-20" x="1077.974609"/>
      <use xlink:href="#DejaVuSans-5b" x="1109.761719"/>
      <use xlink:href="#DejaVuSans-6d" x="1148.775391"/>
      <use xlink:href="#DejaVuSans-5d" x="1246.1875"/>
     </g>
    </g>
   </g>
   <g id="matplotlib.axis_4">
    <g id="ytick_7">
     <g id="line2d_41">
      <path d="M 432.740716 298.467146 
L 1069.2 298.467146 
" clip-path="url(#p1225f06c5c)" style="fill: none; stroke: #b0b0b0; stroke-width: 0.8; stroke-linecap: square"/>
     </g>
     <g id="line2d_42">
      <g>
       <use xlink:href="#m0322c55d53" x="432.740716" y="298.467146" style="stroke: #000000; stroke-width: 0.8"/>
      </g>
     </g>
     <g id="text_36">
      <!-- −2 -->
      <g transform="translate(410.998529 302.266365) scale(0.1 -0.1)">
       <defs>
        <path id="DejaVuSans-2212" d="M 678 2272 
L 4684 2272 
L 4684 1741 
L 678 1741 
L 678 2272 
z
" transform="scale(0.015625)"/>
       </defs>
       <use xlink:href="#DejaVuSans-2212"/>
       <use xlink:href="#DejaVuSans-32" x="83.789062"/>
      </g>
     </g>
    </g>
    <g id="ytick_8">
     <g id="line2d_43">
      <path d="M 432.740716 259.063802 
L 1069.2 259.063802 
" clip-path="url(#p1225f06c5c)" style="fill: none; stroke: #b0b0b0; stroke-width: 0.8; stroke-linecap: square"/>
     </g>
     <g id="line2d_44">
      <g>
       <use xlink:href="#m0322c55d53" x="432.740716" y="259.063802" style="stroke: #000000; stroke-width: 0.8"/>
      </g>
     </g>
     <g id="text_37">
      <!-- −1 -->
      <g transform="translate(410.998529 262.863021) scale(0.1 -0.1)">
       <use xlink:href="#DejaVuSans-2212"/>
       <use xlink:href="#DejaVuSans-31" x="83.789062"/>
      </g>
     </g>
    </g>
    <g id="ytick_9">
     <g id="line2d_45">
      <path d="M 432.740716 219.660458 
L 1069.2 219.660458 
" clip-path="url(#p1225f06c5c)" style="fill: none; stroke: #b0b0b0; stroke-width: 0.8; stroke-linecap: square"/>
     </g>
     <g id="line2d_46">
      <g>
       <use xlink:href="#m0322c55d53" x="432.740716" y="219.660458" style="stroke: #000000; stroke-width: 0.8"/>
      </g>
     </g>
     <g id="text_38">
      <!-- 0 -->
      <g transform="translate(419.378216 223.459677) scale(0.1 -0.1)">
       <use xlink:href="#DejaVuSans-30"/>
      </g>
     </g>
    </g>
    <g id="ytick_10">
     <g id="line2d_47">
      <path d="M 432.740716 180.257113 
L 1069.2 180.257113 
" clip-path="url(#p1225f06c5c)" style="fill: none; stroke: #b0b0b0; stroke-width: 0.8; stroke-linecap: square"/>
     </g>
     <g id="line2d_48">
      <g>
       <use xlink:href="#m0322c55d53" x="432.740716" y="180.257113" style="stroke: #000000; stroke-width: 0.8"/>
      </g>
     </g>
     <g id="text_39">
      <!-- 1 -->
      <g transform="translate(419.378216 184.056332) scale(0.1 -0.1)">
       <use xlink:href="#DejaVuSans-31"/>
      </g>
     </g>
    </g>
    <g id="ytick_11">
     <g id="line2d_49">
      <path d="M 432.740716 140.853769 
L 1069.2 140.853769 
" clip-path="url(#p1225f06c5c)" style="fill: none; stroke: #b0b0b0; stroke-width: 0.8; stroke-linecap: square"/>
     </g>
     <g id="line2d_50">
      <g>
       <use xlink:href="#m0322c55d53" x="432.740716" y="140.853769" style="stroke: #000000; stroke-width: 0.8"/>
      </g>
     </g>
     <g id="text_40">
      <!-- 2 -->
      <g transform="translate(419.378216 144.652988) scale(0.1 -0.1)">
       <use xlink:href="#DejaVuSans-32"/>
      </g>
     </g>
    </g>
    <g id="ytick_12">
     <g id="line2d_51">
      <path d="M 432.740716 101.450425 
L 1069.2 101.450425 
" clip-path="url(#p1225f06c5c)" style="fill: none; stroke: #b0b0b0; stroke-width: 0.8; stroke-linecap: square"/>
     </g>
     <g id="line2d_52">
      <g>
       <use xlink:href="#m0322c55d53" x="432.740716" y="101.450425" style="stroke: #000000; stroke-width: 0.8"/>
      </g>
     </g>
     <g id="text_41">
      <!-- 3 -->
      <g transform="translate(419.378216 105.249643) scale(0.1 -0.1)">
       <use xlink:href="#DejaVuSans-33"/>
      </g>
     </g>
    </g>
    <g id="ytick_13">
     <g id="line2d_53">
      <path d="M 432.740716 62.04708 
L 1069.2 62.04708 
" clip-path="url(#p1225f06c5c)" style="fill: none; stroke: #b0b0b0; stroke-width: 0.8; stroke-linecap: square"/>
     </g>
     <g id="line2d_54">
      <g>
       <use xlink:href="#m0322c55d53" x="432.740716" y="62.04708" style="stroke: #000000; stroke-width: 0.8"/>
      </g>
     </g>
     <g id="text_42">
      <!-- 4 -->
      <g transform="translate(419.378216 65.846299) scale(0.1 -0.1)">
       <use xlink:href="#DejaVuSans-34"/>
      </g>
     </g>
    </g>
    <g id="ytick_14">
     <g id="line2d_55">
      <path d="M 432.740716 22.643736 
L 1069.2 22.643736 
" clip-path="url(#p1225f06c5c)" style="fill: none; stroke: #b0b0b0; stroke-width: 0.8; stroke-linecap: square"/>
     </g>
     <g id="line2d_56">
      <g>
       <use xlink:href="#m0322c55d53" x="432.740716" y="22.643736" style="stroke: #000000; stroke-width: 0.8"/>
      </g>
     </g>
     <g id="text_43">
      <!-- 5 -->
      <g transform="translate(419.378216 26.442955) scale(0.1 -0.1)">
       <use xlink:href="#DejaVuSans-35"/>
      </g>
     </g>
    </g>
    <g id="text_44">
     <!-- Relief -->
     <g transform="translate(404.918841 178.360625) rotate(-90) scale(0.1 -0.1)">
      <defs>
       <path id="DejaVuSans-52" d="M 2841 2188 
Q 3044 2119 3236 1894 
Q 3428 1669 3622 1275 
L 4263 0 
L 3584 0 
L 2988 1197 
Q 2756 1666 2539 1819 
Q 2322 1972 1947 1972 
L 1259 1972 
L 1259 0 
L 628 0 
L 628 4666 
L 2053 4666 
Q 2853 4666 3247 4331 
Q 3641 3997 3641 3322 
Q 3641 2881 3436 2590 
Q 3231 2300 2841 2188 
z
M 1259 4147 
L 1259 2491 
L 2053 2491 
Q 2509 2491 2742 2702 
Q 2975 2913 2975 3322 
Q 2975 3731 2742 3939 
Q 2509 4147 2053 4147 
L 1259 4147 
z
" transform="scale(0.015625)"/>
       <path id="DejaVuSans-6c" d="M 603 4863 
L 1178 4863 
L 1178 0 
L 603 0 
L 603 4863 
z
" transform="scale(0.015625)"/>
       <path id="DejaVuSans-66" d="M 2375 4863 
L 2375 4384 
L 1825 4384 
Q 1516 4384 1395 4259 
Q 1275 4134 1275 3809 
L 1275 3500 
L 2222 3500 
L 2222 3053 
L 1275 3053 
L 1275 0 
L 697 0 
L 697 3053 
L 147 3053 
L 147 3500 
L 697 3500 
L 697 3744 
Q 697 4328 969 4595 
Q 1241 4863 1831 4863 
L 2375 4863 
z
" transform="scale(0.015625)"/>
      </defs>
      <use xlink:href="#DejaVuSans-52"/>
      <use xlink:href="#DejaVuSans-65" x="64.982422"/>
      <use xlink:href="#DejaVuSans-6c" x="126.505859"/>
      <use xlink:href="#DejaVuSans-69" x="154.289062"/>
      <use xlink:href="#DejaVuSans-65" x="182.072266"/>
      <use xlink:href="#DejaVuSans-66" x="243.595703"/>
     </g>
    </g>
   </g>
   <g id="line2d_57">
    <path d="M 461.670684 219.660458 
L 464.360221 222.585398 
L 467.049758 225.904372 
L 469.739295 228.041246 
L 472.428832 230.966187 
L 475.118369 234.285161 
L 477.807906 237.604135 
L 480.497443 241.711175 
L 483.186981 244.242083 
L 485.876518 246.77299 
L 488.566055 248.121796 
L 491.255592 249.07657 
L 493.945129 249.63731 
L 496.634666 248.621916 
L 499.324203 247.606522 
" clip-path="url(#p1225f06c5c)" style="fill: none; stroke: #d95f02; stroke-width: 1.5; stroke-linecap: square"/>
   </g>
   <g id="line2d_58">
    <path d="M 499.324203 318.04 
L 499.324203 10.8 
" clip-path="url(#p1225f06c5c)" style="fill: none; stroke-dasharray: 5.55,2.4; stroke-dashoffset: 0; stroke: #808080; stroke-opacity: 0.5; stroke-width: 1.5"/>
   </g>
   <g id="line2d_59">
    <path d="M 461.670684 219.660458 
L 464.272027 222.585398 
L 466.873369 225.116305 
L 469.474712 227.253179 
L 472.076055 230.17812 
L 474.677398 232.709027 
L 477.278741 236.028001 
L 479.880084 239.741008 
L 482.481426 242.271915 
L 485.082769 244.802822 
L 487.684112 246.151629 
L 490.285455 247.500436 
L 492.886798 248.061176 
L 495.488141 248.227882 
L 498.089484 247.212489 
L 500.690826 246.197095 
L 503.292169 245.969768 
L 505.893512 246.530508 
L 508.494855 247.879314 
L 511.096198 249.228121 
L 513.697541 250.576928 
L 516.298883 252.319768 
L 518.900226 252.880508 
L 521.501569 256.199482 
L 524.102912 259.91249 
L 526.704255 264.413564 
L 529.305598 268.520605 
L 531.90694 271.445545 
L 534.508283 273.188386 
L 537.109626 274.537192 
L 539.710969 275.885999 
" clip-path="url(#p1225f06c5c)" style="fill: none; stroke: #7570b3; stroke-width: 1.5; stroke-linecap: square"/>
   </g>
   <g id="line2d_60">
    <path d="M 539.710969 318.04 
L 539.710969 10.8 
" clip-path="url(#p1225f06c5c)" style="fill: none; stroke-dasharray: 5.55,2.4; stroke-dashoffset: 0; stroke: #808080; stroke-opacity: 0.5; stroke-width: 1.5"/>
   </g>
   <g id="line2d_61">
    <path d="M 461.670684 219.660458 
L 464.185128 222.191365 
L 466.699573 225.116305 
L 469.214018 226.859146 
L 471.728462 229.390053 
L 474.242907 231.92096 
L 476.757352 235.239934 
L 479.271796 238.558908 
L 481.786241 241.483848 
L 484.300686 243.620722 
L 486.81513 244.969529 
L 489.329575 246.318336 
L 491.84402 246.485042 
L 494.358464 247.045782 
L 496.872909 246.030388 
L 499.387354 245.014994 
L 501.901798 243.605567 
L 504.416243 243.772273 
L 506.930688 244.727047 
L 509.445132 246.075854 
L 511.959577 247.42466 
L 514.474022 248.379434 
L 516.988466 249.334207 
L 519.502911 250.28898 
L 522.017356 252.819888 
L 524.5318 256.926928 
L 527.046245 261.428003 
L 529.56069 265.929077 
L 532.075134 268.854018 
L 534.589579 270.596858 
L 537.104024 271.945665 
L 539.618468 273.294471 
L 542.132913 274.643278 
L 544.647358 274.809985 
L 547.161802 274.976691 
L 549.676247 274.749364 
L 552.190692 274.916071 
L 554.705136 275.082777 
L 557.219581 275.249484 
L 559.734026 273.840056 
L 562.24847 273.218696 
L 564.762915 273.385402 
L 567.27736 273.158075 
L 569.791804 273.324782 
L 572.306249 272.309388 
L 574.820694 272.082061 
L 577.335138 271.066667 
L 579.849583 270.051273 
L 582.364028 268.247812 
L 584.878473 266.444352 
L 587.392917 265.428958 
L 589.907362 263.625497 
L 592.421807 262.610103 
L 594.936251 259.624542 
L 597.450696 257.821081 
L 599.965141 254.83552 
L 602.479585 252.638026 
L 604.99403 250.834565 
L 607.508475 247.849004 
L 610.022919 249.197811 
L 612.537364 249.758551 
L 615.051809 248.349123 
L 617.566253 241.423228 
L 620.080698 237.255567 
L 622.595143 232.693872 
" clip-path="url(#p1225f06c5c)" style="fill: none; stroke: #e7298a; stroke-width: 1.5; stroke-linecap: square"/>
   </g>
   <g id="line2d_62">
    <path d="M 622.595143 318.04 
L 622.595143 10.8 
" clip-path="url(#p1225f06c5c)" style="fill: none; stroke-dasharray: 5.55,2.4; stroke-dashoffset: 0; stroke: #808080; stroke-opacity: 0.5; stroke-width: 1.5"/>
   </g>
   <g id="line2d_63">
    <path d="M 461.670684 219.660458 
L 464.17465 222.191365 
L 466.678617 225.116305 
L 469.182583 226.859146 
L 471.68655 229.390053 
L 474.190516 231.92096 
L 476.694483 235.239934 
L 479.198449 238.558908 
L 481.702416 241.089815 
L 484.206382 243.620722 
L 486.710349 244.969529 
L 489.214316 246.318336 
L 491.718282 246.485042 
L 494.222249 247.045782 
L 496.726215 245.636355 
L 499.230182 244.620961 
L 501.734148 243.211534 
L 504.238115 243.37824 
L 506.742081 243.93898 
L 509.246048 245.287787 
L 511.750014 246.636593 
L 514.253981 247.591367 
L 516.757947 248.54614 
L 519.261914 249.500914 
L 521.76588 252.031821 
L 524.269847 256.138862 
L 526.773814 260.639936 
L 529.27778 265.14101 
L 531.781747 268.459984 
L 534.285713 270.202824 
L 536.78968 271.945665 
L 539.293646 273.294471 
L 541.797613 275.037312 
L 544.301579 275.598052 
L 546.805546 275.764758 
L 549.309512 275.931465 
L 551.813479 276.098171 
L 554.317445 277.052944 
L 556.821412 276.825617 
L 559.325378 276.204257 
L 561.829345 275.188863 
L 564.333312 274.961536 
L 566.837278 275.128242 
L 569.341245 274.900916 
L 571.845211 274.673589 
L 574.349178 274.446262 
L 576.853144 274.218935 
L 579.357111 273.203541 
L 581.861077 271.40008 
L 584.365044 269.990653 
L 586.86901 268.975259 
L 589.372977 267.565831 
L 591.876943 265.762371 
L 594.38091 263.564876 
L 596.884876 261.367382 
L 599.388843 258.775855 
L 601.89281 256.184327 
L 604.396776 253.986833 
L 606.900743 252.183372 
L 609.404709 251.956045 
L 611.908676 254.486952 
L 614.412642 255.441725 
L 616.916609 249.303897 
L 619.420575 243.954135 
L 621.924542 238.998407 
L 624.428508 234.830745 
L 626.932475 230.26905 
L 629.436441 226.889456 
L 631.940408 223.115828 
L 634.444374 220.918334 
L 636.948341 217.932773 
L 639.452308 215.341245 
L 641.956274 211.567617 
L 644.460241 209.370123 
L 646.964207 206.778595 
L 649.468174 204.581101 
L 651.97214 203.171674 
L 654.476107 200.580146 
L 656.980073 199.170719 
L 659.48404 196.185158 
L 661.988006 194.77573 
" clip-path="url(#p1225f06c5c)" style="fill: none; stroke: #66a61e; stroke-width: 1.5; stroke-linecap: square"/>
   </g>
   <g id="line2d_64">
    <path d="M 661.988006 318.04 
L 661.988006 10.8 
" clip-path="url(#p1225f06c5c)" style="fill: none; stroke-dasharray: 5.55,2.4; stroke-dashoffset: 0; stroke: #808080; stroke-opacity: 0.5; stroke-width: 1.5"/>
   </g>
   <g id="line2d_65">
    <path d="M 461.670684 219.660458 
L 464.166679 222.585398 
L 466.662673 225.116305 
L 469.158668 226.859146 
L 471.654663 229.390053 
L 474.150658 231.92096 
L 476.646653 235.239934 
L 479.142648 238.164874 
L 481.638642 241.089815 
L 484.134637 243.620722 
L 486.630632 244.969529 
L 489.126627 246.318336 
L 491.622622 246.485042 
L 494.118617 246.651749 
L 496.614611 245.636355 
L 499.110606 244.226927 
L 501.606601 242.8175 
L 504.102596 242.590173 
L 506.598591 243.150913 
L 509.094586 244.49972 
L 511.590581 245.848527 
L 514.086575 247.197333 
L 516.58257 248.152107 
L 519.078565 249.10688 
L 521.57456 250.84972 
L 524.070555 254.956761 
L 526.56655 259.851869 
L 529.062544 264.352943 
L 531.558539 268.065951 
L 534.054534 269.808791 
L 536.550529 271.551631 
L 539.046524 273.688505 
L 541.542519 275.431345 
L 544.038513 277.174185 
L 546.534508 277.340892 
L 549.030503 277.901632 
L 551.526498 278.068338 
L 554.022493 279.811178 
L 556.518488 279.583851 
L 559.014482 278.962491 
L 561.510477 277.947097 
L 564.006472 277.71977 
L 566.502467 277.886477 
L 568.998462 277.65915 
L 571.494457 277.825856 
L 573.990452 277.598529 
L 576.486446 277.765236 
L 578.982441 276.749842 
L 581.478436 276.128481 
L 583.974431 274.719054 
L 586.470426 273.70366 
L 588.966421 272.294233 
L 591.462415 270.490772 
L 593.95841 268.687311 
L 596.454405 266.489817 
L 598.9504 264.686356 
L 601.446395 261.700795 
L 603.94239 259.897334 
L 606.438384 258.093874 
L 608.934379 257.866547 
L 611.430374 261.185521 
L 613.926369 262.534327 
L 616.422364 257.972633 
L 618.918359 251.44077 
L 621.414353 246.091009 
L 623.910348 241.923347 
L 626.406343 238.149719 
L 628.902338 234.376091 
L 631.398333 230.996497 
L 633.894328 228.799003 
L 636.390323 226.207475 
L 638.886317 224.404014 
L 641.382312 221.418453 
L 643.878307 218.826925 
L 646.374302 215.447331 
L 648.870297 212.46177 
L 651.366292 209.476209 
L 653.862286 206.884681 
L 656.358281 203.89912 
L 658.854276 201.701626 
L 661.350271 199.110098 
L 663.846266 197.306637 
L 666.342261 194.71511 
L 668.838255 193.305682 
L 671.33425 190.320121 
L 673.830245 187.728594 
L 676.32624 184.743033 
L 678.822235 181.363438 
L 681.31823 178.377877 
L 683.814224 174.210216 
L 686.310219 171.224654 
L 688.806214 166.268926 
L 691.302209 162.889332 
L 693.798204 157.933603 
L 696.294199 153.371908 
L 698.790194 148.022147 
L 701.286188 142.278352 
L 703.782183 137.322623 
L 706.278178 131.184795 
L 708.774173 126.229066 
L 711.270168 119.697204 
L 713.766163 114.741476 
L 716.262157 108.997681 
L 718.758152 104.435986 
L 721.254147 99.874291 
L 723.750142 95.70663 
L 726.246137 92.721068 
L 728.742132 89.341474 
L 731.238126 87.932047 
L 733.734121 86.522619 
L 736.230116 87.477393 
L 738.726111 88.432166 
L 741.222106 89.780973 
" clip-path="url(#p1225f06c5c)" style="fill: none; stroke: #e6ab02; stroke-width: 1.5; stroke-linecap: square"/>
   </g>
   <g id="line2d_66">
    <path d="M 741.222106 318.04 
L 741.222106 10.8 
" clip-path="url(#p1225f06c5c)" style="fill: none; stroke-dasharray: 5.55,2.4; stroke-dashoffset: 0; stroke: #808080; stroke-opacity: 0.5; stroke-width: 1.5"/>
   </g>
   <g id="line2d_67">
    <path d="M 461.670684 219.660458 
L 464.167828 222.585398 
L 466.664973 225.116305 
L 469.162117 227.253179 
L 471.659262 229.784086 
L 474.156407 231.92096 
L 476.653551 235.239934 
L 479.150696 238.164874 
L 481.64784 241.483848 
L 484.144985 243.620722 
L 489.139274 246.318336 
L 494.133563 246.651749 
L 496.630708 245.636355 
L 501.624997 242.8175 
L 504.122142 242.19614 
L 509.116431 244.105686 
L 516.607864 248.152107 
L 519.105009 248.712847 
L 521.602154 250.84972 
L 524.099298 254.956761 
L 526.596443 259.851869 
L 529.093587 264.352943 
L 531.590732 268.065951 
L 534.087877 270.202824 
L 536.585021 271.945665 
L 539.082166 274.082538 
L 544.076455 277.568219 
L 546.573599 278.128959 
L 549.070744 279.083732 
L 551.567889 279.644472 
L 554.065033 280.993279 
L 556.562178 280.765952 
L 559.059322 280.144591 
L 561.556467 279.129197 
L 564.053612 278.90187 
L 569.047901 279.235283 
L 574.04219 278.780629 
L 576.539334 279.341369 
L 579.036479 278.325975 
L 581.533624 277.704615 
L 584.030768 276.295188 
L 586.527913 275.279794 
L 591.522202 272.460939 
L 594.019346 270.657478 
L 596.516491 268.459984 
L 599.013636 266.656523 
L 601.51078 264.064996 
L 606.505069 260.458074 
L 609.002214 260.624781 
L 611.499359 263.943755 
L 613.996503 264.504495 
L 616.493648 260.336833 
L 618.990792 253.410938 
L 623.985081 244.287548 
L 626.482226 240.51392 
L 628.979371 237.134325 
L 631.476515 234.148764 
L 633.97366 231.557237 
L 636.470804 229.359743 
L 638.967949 227.556282 
L 641.465094 225.358788 
L 646.459383 219.387665 
L 648.956527 215.614037 
L 651.453672 212.628476 
L 653.950816 209.248882 
L 661.44225 201.474299 
L 663.939395 199.670838 
L 666.436539 197.473344 
L 668.933684 195.669883 
L 673.927973 190.486828 
L 681.419407 180.348044 
L 686.413696 172.800788 
L 691.407985 164.465465 
L 696.402274 154.554009 
L 698.899419 148.810214 
L 701.396563 143.460452 
L 703.893708 137.716657 
L 706.390853 132.366895 
L 708.887997 126.6231 
L 716.379431 110.573814 
L 718.876576 105.618086 
L 721.37372 101.056391 
L 723.870865 97.282763 
L 726.368009 93.115102 
L 728.865154 90.917608 
L 731.362298 88.32608 
L 736.356588 87.871426 
L 738.853732 89.614266 
L 741.350877 90.963073 
L 743.848021 92.705913 
L 746.345166 94.05472 
L 748.842311 94.61546 
L 751.339455 95.570233 
L 753.8366 94.554839 
L 756.333744 95.903646 
L 758.830889 95.282286 
L 761.328033 95.054959 
L 766.322323 93.812238 
L 768.819467 93.978944 
L 771.316612 93.357584 
L 773.813756 94.312357 
L 776.310901 94.479064 
L 778.808045 95.827871 
L 781.30519 96.38861 
L 788.796624 99.25293 
L 791.293768 100.995771 
L 793.790913 101.950544 
L 796.288058 104.481451 
L 796.288058 104.481451 
" clip-path="url(#p1225f06c5c)" style="fill: none; stroke: #a6761d; stroke-width: 1.5; stroke-linecap: square"/>
   </g>
   <g id="line2d_68">
    <path d="M 796.288058 318.04 
L 796.288058 10.8 
" clip-path="url(#p1225f06c5c)" style="fill: none; stroke-dasharray: 5.55,2.4; stroke-dashoffset: 0; stroke: #808080; stroke-opacity: 0.5; stroke-width: 1.5"/>
   </g>
   <g id="line2d_69">
    <path d="M 461.670684 219.660458 
L 466.644365 225.510339 
L 469.131205 227.253179 
L 474.104886 232.314993 
L 476.591727 235.239934 
L 479.078567 238.558908 
L 481.565408 241.483848 
L 484.052248 244.014756 
L 486.539089 245.363562 
L 489.025929 245.924302 
L 491.51277 246.091009 
L 493.99961 245.863682 
L 496.486451 244.848288 
L 501.460132 241.241366 
L 503.946972 240.620006 
L 506.433813 240.786712 
L 508.920653 241.741486 
L 511.407494 243.090293 
L 516.381175 246.575973 
L 518.868015 247.530746 
L 521.354856 249.273587 
L 523.841696 253.774661 
L 526.328537 259.063802 
L 528.815377 264.746977 
L 531.302218 268.854018 
L 533.789058 271.778958 
L 536.275899 273.521798 
L 538.762739 275.658672 
L 541.24958 278.977646 
L 543.73642 282.690654 
L 546.223261 284.827527 
L 551.196942 288.313208 
L 553.683782 290.844115 
L 556.170623 291.798888 
L 558.657463 290.389461 
L 561.144304 289.374067 
L 563.631144 288.752707 
L 566.117985 288.919413 
L 568.604825 288.692086 
L 571.091666 287.676692 
L 581.039028 288.343518 
L 583.525868 287.722158 
L 586.012709 287.494831 
L 590.98639 284.675976 
L 593.47323 282.872515 
L 600.933752 279.826334 
L 605.907433 277.007479 
L 608.394273 277.174185 
L 610.881114 280.099126 
L 613.367954 282.630033 
L 615.854795 280.038505 
L 618.341635 272.324543 
L 620.828476 266.186714 
L 623.315316 261.625019 
L 625.802157 258.245425 
L 628.288997 256.047931 
L 633.262678 249.288742 
L 635.749519 247.485281 
L 638.236359 247.257954 
L 640.7232 247.42466 
L 643.21004 246.8033 
L 645.696881 243.423705 
L 648.183721 239.256044 
L 650.670562 233.512249 
L 653.157402 228.950554 
L 655.644243 223.994826 
L 658.131083 221.403298 
L 660.617924 219.205804 
L 668.078445 217.341722 
L 670.565286 216.326329 
L 673.052126 214.522868 
L 675.538967 211.93134 
L 678.025807 208.551746 
L 680.512648 204.778118 
L 682.999488 200.610456 
L 687.973169 191.487067 
L 690.46001 186.531338 
L 692.94685 180.787543 
L 695.433691 174.649714 
L 697.920531 168.117852 
L 700.407372 161.980024 
L 702.894212 155.448162 
L 705.381053 150.0984 
L 707.867893 145.142672 
L 710.354734 140.580977 
L 712.841574 136.413315 
L 715.328415 132.639687 
L 717.815255 128.472026 
L 720.302096 125.486465 
L 722.788936 122.10687 
L 727.762617 117.711882 
L 730.249458 116.302454 
L 732.736298 115.681094 
L 735.223139 115.453767 
L 740.19682 115.78718 
L 742.68366 116.34792 
L 745.170501 116.514626 
L 750.144182 117.636106 
L 755.117863 119.545653 
L 757.604703 120.106393 
L 762.578384 118.863672 
L 767.552065 116.832884 
L 772.525746 115.590163 
L 777.499427 116.711643 
L 792.42047 124.804484 
L 797.394151 126.71403 
L 799.880992 126.880737 
L 802.367832 127.441477 
L 807.341513 129.351024 
L 809.828354 130.69983 
L 814.802035 132.609377 
L 817.288875 133.170117 
L 819.775716 133.336823 
L 822.262556 133.109496 
L 829.723078 131.245415 
L 832.209918 130.230021 
L 834.696759 130.002694 
L 839.67044 128.759973 
L 842.15728 129.320713 
L 844.644121 129.093386 
L 847.130961 130.442193 
L 847.130961 130.442193 
" clip-path="url(#p1225f06c5c)" style="fill: none; stroke: #666666; stroke-width: 1.5; stroke-linecap: square"/>
   </g>
   <g id="line2d_70">
    <path d="M 847.130961 318.04 
L 847.130961 10.8 
" clip-path="url(#p1225f06c5c)" style="fill: none; stroke-dasharray: 5.55,2.4; stroke-dashoffset: 0; stroke: #808080; stroke-opacity: 0.5; stroke-width: 1.5"/>
   </g>
   <g id="line2d_71">
    <path d="M 461.670684 219.660458 
L 464.156187 222.979432 
L 466.64169 225.904372 
L 471.612696 230.17812 
L 474.0982 232.709027 
L 479.069206 238.558908 
L 481.554709 241.089815 
L 484.040212 243.226689 
L 486.525715 244.575495 
L 489.011219 245.136235 
L 491.496722 244.908908 
L 493.982225 244.287548 
L 498.953231 241.468693 
L 501.438734 239.665233 
L 503.924238 238.255805 
L 506.409741 238.028478 
L 508.895244 238.195185 
L 513.86625 241.680865 
L 516.351753 243.817739 
L 518.837257 245.560579 
L 521.32276 248.091486 
L 523.808263 252.198527 
L 528.779269 265.929077 
L 531.264772 271.218218 
L 533.750276 274.537192 
L 536.235779 276.674066 
L 538.721282 279.204973 
L 541.206785 282.917981 
L 543.692288 287.025021 
L 546.177791 289.949962 
L 548.663295 292.086836 
L 551.148798 295.011776 
L 553.634301 297.14865 
L 556.119804 297.70939 
L 561.09081 295.678602 
L 563.576314 295.451275 
L 566.061817 296.012015 
L 568.54732 294.996621 
L 571.032823 293.587194 
L 573.518326 292.965833 
L 580.974836 293.465953 
L 583.460339 294.026693 
L 585.945842 293.799366 
L 588.431345 292.783972 
L 593.402352 289.965117 
L 595.887855 288.949723 
L 600.858861 287.707002 
L 605.829867 284.888148 
L 608.315371 284.266787 
L 610.800874 286.797694 
L 613.286377 290.510702 
L 615.77188 289.889341 
L 618.257383 283.357479 
L 620.742886 276.431584 
L 623.22839 271.081822 
L 625.713893 267.702228 
L 628.199396 264.716667 
L 630.684899 260.943039 
L 633.170402 256.381344 
L 635.655905 253.001749 
L 638.141409 251.592322 
L 640.626912 250.970961 
L 643.112415 249.955568 
L 645.597918 246.18194 
L 650.568924 237.05855 
L 653.054428 233.284922 
L 655.539931 229.905327 
L 658.025434 228.101867 
L 660.510937 227.480506 
L 662.99644 227.253179 
L 670.45295 227.753298 
L 672.938453 227.525971 
L 675.423956 226.904611 
L 677.909459 225.10115 
L 680.394962 222.509623 
L 682.880466 219.130028 
L 685.365969 215.3564 
L 687.851472 211.188739 
L 692.822478 202.065349 
L 695.307981 196.715587 
L 707.735497 167.996611 
L 710.221 163.040883 
L 712.706504 158.479188 
L 715.192007 154.70556 
L 717.67751 151.719999 
L 725.134019 143.945416 
L 727.619523 142.141955 
L 730.105026 140.732528 
L 732.590529 139.717134 
L 735.076032 139.095774 
L 737.561535 138.08038 
L 740.047038 137.459019 
L 742.532542 136.443626 
L 745.018045 135.822265 
L 747.503548 136.383005 
L 749.989051 137.337778 
L 752.474554 138.686585 
L 754.960057 139.641358 
L 759.931064 139.974771 
L 769.873076 137.48933 
L 772.35858 137.262003 
L 774.844083 136.640642 
L 779.815089 136.185988 
L 784.786095 136.519401 
L 787.271599 137.080141 
L 804.670121 138.247086 
L 812.12663 139.929306 
L 814.612134 141.672146 
L 822.068643 145.718567 
L 824.554146 146.279306 
L 827.039649 146.051979 
L 829.525153 146.218686 
L 832.010656 145.597326 
L 834.496159 145.764032 
L 836.981662 146.718805 
L 839.467165 148.067612 
L 844.438172 153.129426 
L 849.409178 158.979307 
L 854.380184 164.041122 
L 859.351191 168.314869 
L 861.836694 169.269642 
L 864.322197 169.830382 
L 866.8077 168.814988 
L 869.293203 167.405561 
L 874.26421 163.010573 
L 879.235216 157.039451 
L 884.206222 150.280261 
L 889.177229 142.733005 
L 891.662732 139.747444 
L 894.148235 137.155917 
L 896.633738 135.352456 
L 899.119241 134.337062 
L 899.119241 134.337062 
" clip-path="url(#p1225f06c5c)" style="fill: none; stroke: #e41a1c; stroke-width: 1.5; stroke-linecap: square"/>
   </g>
   <g id="line2d_72">
    <path d="M 899.119241 318.04 
L 899.119241 10.8 
" clip-path="url(#p1225f06c5c)" style="fill: none; stroke-dasharray: 5.55,2.4; stroke-dashoffset: 0; stroke: #808080; stroke-opacity: 0.5; stroke-width: 1.5"/>
   </g>
   <g id="line2d_73">
    <path d="M 461.670684 219.660458 
L 466.627775 226.298406 
L 469.10632 228.041246 
L 471.584865 230.17812 
L 479.020502 237.770841 
L 481.499047 240.695782 
L 483.977593 242.438622 
L 486.456138 243.393395 
L 488.934684 243.560102 
L 491.413229 243.332775 
L 496.37032 241.301987 
L 501.327411 237.695065 
L 503.805956 236.285638 
L 506.284502 235.664278 
L 508.763047 235.436951 
L 511.241592 236.785757 
L 513.720138 238.528598 
L 516.198683 241.059505 
L 518.677229 243.196378 
L 521.155774 245.727286 
L 523.63432 250.622393 
L 526.112865 257.881702 
L 528.591411 264.746977 
L 531.069956 270.824185 
L 533.548501 275.325259 
L 536.027047 278.2502 
L 538.505592 280.781107 
L 540.984138 283.706047 
L 543.462683 287.813088 
L 545.941229 290.738029 
L 553.376865 298.33075 
L 555.85541 298.89149 
L 558.333956 298.27013 
L 560.812501 297.254736 
L 563.291047 296.633375 
L 565.769592 296.800082 
L 568.248138 296.572755 
L 570.726683 295.163328 
L 573.205228 294.541967 
L 578.162319 295.663447 
L 580.640865 296.61822 
L 585.597956 297.7397 
L 588.076501 296.330273 
L 590.555046 295.314879 
L 595.512137 292.496024 
L 597.990683 292.268697 
L 602.947774 293.390177 
L 607.904865 293.72359 
L 610.38341 295.072397 
L 612.861955 298.391371 
L 615.340501 297.77001 
L 617.819046 292.026215 
L 620.297592 285.494353 
L 622.776137 280.144591 
L 625.254683 276.370963 
L 627.733228 274.173469 
L 630.211774 271.187908 
L 632.690319 266.23218 
L 635.168864 260.882418 
L 637.64741 257.502823 
L 640.125955 255.305329 
L 642.604501 253.895902 
L 645.083046 251.304374 
L 647.561592 247.92478 
L 650.040137 244.939219 
L 652.518682 242.741724 
L 654.997228 240.938264 
L 657.475773 239.92287 
L 659.954319 239.301509 
L 662.432864 239.074182 
L 667.389955 240.195662 
L 669.868501 240.362369 
L 672.347046 240.135042 
L 674.825591 240.301748 
L 677.304137 240.074421 
L 679.782682 239.453061 
L 682.261228 238.043633 
L 684.739773 235.846139 
L 687.218319 233.254612 
L 692.175409 225.707356 
L 694.653955 221.539694 
L 697.1325 216.583966 
L 699.611046 212.022271 
L 702.089591 206.672509 
L 704.568137 202.110814 
L 707.046682 197.155086 
L 709.525228 192.593391 
L 712.003773 188.42573 
L 716.960864 180.878474 
L 719.439409 177.892913 
L 721.917955 174.513318 
L 726.875046 169.330263 
L 731.832136 163.359141 
L 734.310682 159.979546 
L 736.789227 156.993985 
L 741.746318 150.234796 
L 744.224864 147.643268 
L 746.703409 145.445774 
L 749.181955 144.036347 
L 754.139045 142.793626 
L 756.617591 142.960332 
L 759.096136 142.338972 
L 761.574682 141.323578 
L 766.531773 140.868924 
L 769.010318 141.035631 
L 771.488864 141.990404 
L 773.967409 142.551144 
L 776.445954 143.505917 
L 788.838682 146.309617 
L 801.231409 147.143149 
L 803.709954 146.915822 
L 806.1885 147.082528 
L 808.667045 148.037302 
L 811.145591 149.780142 
L 813.624136 153.099116 
L 816.102681 156.812124 
L 818.581227 161.313198 
L 821.059772 166.602339 
L 823.538318 172.285514 
L 828.495409 184.43993 
L 830.973954 191.305205 
L 833.452499 197.776447 
L 835.931045 203.853655 
L 838.40959 209.536829 
L 843.366681 216.174777 
L 845.845227 218.705684 
L 848.323772 220.448525 
L 850.802318 221.797331 
L 855.759408 222.918811 
L 865.67359 223.585637 
L 868.152136 223.35831 
L 870.630681 222.342916 
L 873.109226 220.539455 
L 875.587772 217.947928 
L 878.066317 214.568333 
L 880.544863 210.400672 
L 883.023408 205.838977 
L 885.501954 201.671316 
L 890.459045 191.759859 
L 895.416135 180.272269 
L 897.894681 174.922507 
L 900.373226 169.966778 
L 905.330317 162.419523 
L 907.808863 159.827995 
L 910.287408 157.630501 
L 912.765953 156.221073 
L 915.244499 155.205679 
L 917.723044 155.372386 
L 920.20159 155.145059 
L 922.680135 155.311765 
L 925.158681 154.296372 
L 927.637226 152.886944 
L 930.115772 150.68945 
L 932.594317 148.097922 
L 935.072862 145.112361 
L 942.508499 134.973578 
L 944.987044 132.38205 
L 949.944135 127.987062 
L 952.422681 127.365701 
L 954.901226 126.350307 
L 957.379771 125.728947 
L 957.379771 125.728947 
" clip-path="url(#p1225f06c5c)" style="fill: none; stroke: #377eb8; stroke-width: 1.5; stroke-linecap: square"/>
   </g>
   <g id="line2d_74">
    <path d="M 957.379771 318.04 
L 957.379771 10.8 
" clip-path="url(#p1225f06c5c)" style="fill: none; stroke-dasharray: 5.55,2.4; stroke-dashoffset: 0; stroke: #808080; stroke-opacity: 0.5; stroke-width: 1.5"/>
   </g>
   <g id="line2d_75">
    <path d="M 461.670684 219.660458 
L 464.148794 223.373465 
L 466.626905 226.298406 
L 469.105016 228.435279 
L 471.583126 230.17812 
L 474.061237 232.314993 
L 479.017458 237.376808 
L 481.495569 239.513681 
L 483.97368 241.256521 
L 486.45179 242.211295 
L 488.929901 242.378001 
L 491.408012 241.756641 
L 493.886122 240.741247 
L 496.364233 239.33182 
L 498.842344 238.316426 
L 501.320454 236.512965 
L 503.798565 235.103538 
L 506.276676 234.876211 
L 508.754786 235.042917 
L 511.232897 235.603657 
L 513.711008 238.134564 
L 516.189118 239.877404 
L 518.667229 242.014278 
L 521.14534 244.545185 
L 523.62345 249.440293 
L 528.579672 263.95891 
L 531.057782 270.036118 
L 533.535893 274.931226 
L 536.014003 278.2502 
L 538.492114 280.781107 
L 540.970225 283.706047 
L 543.448335 287.813088 
L 545.926446 290.738029 
L 548.404557 293.268936 
L 550.882667 296.193877 
L 553.360778 298.724784 
L 555.838889 300.07359 
L 558.316999 299.058197 
L 560.79511 298.436836 
L 563.273221 298.209509 
L 565.751331 298.770249 
L 568.229442 298.542922 
L 573.185663 296.512134 
L 575.663774 296.678841 
L 578.141885 297.633614 
L 580.619995 298.194354 
L 583.098106 299.149127 
L 585.576217 299.315834 
L 588.054327 297.906407 
L 590.532438 296.891013 
L 595.488659 294.072158 
L 597.96677 294.632898 
L 602.922991 299.694712 
L 607.879213 301.604259 
L 610.357323 301.770965 
L 612.835434 303.119772 
L 615.313545 303.286479 
L 617.791655 298.724784 
L 620.269766 292.980989 
L 622.747877 288.419294 
L 625.225987 285.827766 
L 627.704098 284.812372 
L 630.182209 284.191012 
L 632.660319 281.205451 
L 635.13843 276.643756 
L 637.616541 272.870128 
L 640.094651 271.066667 
L 642.572762 269.65724 
L 645.050872 267.853779 
L 647.528983 265.262251 
L 650.007094 262.27669 
L 652.485204 259.685163 
L 654.963315 257.881702 
L 657.441426 256.472274 
L 662.397647 254.441487 
L 667.353868 253.986833 
L 672.31009 255.108313 
L 677.266311 255.441725 
L 679.744422 254.820365 
L 682.222532 254.987071 
L 687.178754 254.532418 
L 689.656864 253.12299 
L 692.134975 250.531463 
L 694.613086 247.151868 
L 699.569307 239.604612 
L 702.047418 235.436951 
L 704.525528 231.663323 
L 709.48175 222.539933 
L 714.437971 212.628476 
L 716.916082 208.066781 
L 719.394192 203.89912 
L 721.872303 200.125492 
L 724.350414 196.745897 
L 726.828524 193.760336 
L 729.306635 190.380742 
L 734.262856 182.833486 
L 736.740967 178.665824 
L 739.219078 174.892197 
L 741.697188 171.512602 
L 744.175299 169.315108 
L 746.65341 167.511647 
L 749.13152 166.10222 
L 751.609631 165.086826 
L 754.087742 163.677399 
L 759.043963 161.646611 
L 764.000184 160.40389 
L 768.956405 159.949236 
L 771.434516 160.115942 
L 778.868848 158.251861 
L 783.825069 156.221073 
L 788.781291 154.978352 
L 791.259401 154.751026 
L 793.737512 154.917732 
L 796.215623 155.872505 
L 798.693733 157.221312 
L 801.171844 158.964152 
L 803.649955 161.101026 
L 806.128065 164.025967 
L 808.606176 167.344941 
L 811.084287 171.057948 
L 813.562397 175.164989 
L 818.518619 184.167138 
L 825.952951 196.48826 
L 828.431061 200.989335 
L 830.909172 205.884442 
L 833.387283 211.173584 
L 840.821615 228.223108 
L 843.299725 233.118215 
L 845.777836 236.831223 
L 848.255947 239.36213 
L 853.212168 242.84781 
L 855.690279 244.196617 
L 858.168389 245.939457 
L 860.6465 248.076331 
L 865.602721 249.985878 
L 868.080832 250.546618 
L 875.515164 251.046737 
L 877.993274 250.425377 
L 880.471385 249.409983 
L 882.949496 248.000555 
L 887.905717 243.605567 
L 890.383828 240.620006 
L 892.861938 238.028478 
L 897.81816 232.057356 
L 902.774381 228.450435 
L 905.252492 227.041007 
L 907.730602 226.025613 
L 915.164934 224.161532 
L 920.121156 223.706878 
L 922.599266 223.085518 
L 925.077377 221.67609 
L 927.555488 219.478596 
L 930.033598 216.493035 
L 932.511709 213.113441 
L 937.46793 205.566185 
L 939.946041 201.398523 
L 942.424152 197.624895 
L 949.858484 185.121911 
L 952.336594 180.560216 
L 954.814705 176.392555 
L 957.292816 172.618927 
L 959.770926 170.027399 
L 962.249037 168.223938 
L 964.727148 167.602578 
L 969.683369 167.147924 
L 972.16148 167.31463 
L 977.117701 166.859976 
L 979.595812 167.420716 
L 982.073922 168.37549 
L 984.552033 170.11833 
L 987.030144 173.437304 
L 989.508254 177.150311 
L 991.986365 180.469285 
L 994.464475 183.000192 
L 996.942586 184.348999 
L 999.420697 184.909739 
L 1011.81125 189.683606 
L 1014.289361 191.426446 
L 1016.767471 193.56332 
L 1019.245582 197.276327 
L 1021.723693 201.777401 
L 1024.201803 207.066543 
L 1026.679914 210.77955 
L 1029.158025 213.310457 
L 1029.158025 213.310457 
" clip-path="url(#p1225f06c5c)" style="fill: none; stroke: #4daf4a; stroke-width: 1.5; stroke-linecap: square"/>
   </g>
   <g id="line2d_76">
    <path d="M 1029.158025 318.04 
L 1029.158025 10.8 
" clip-path="url(#p1225f06c5c)" style="fill: none; stroke-dasharray: 5.55,2.4; stroke-dashoffset: 0; stroke: #808080; stroke-opacity: 0.5; stroke-width: 1.5"/>
   </g>
   <g id="line2d_77">
    <path d="M 461.670684 219.660458 
L 464.14333 223.373465 
L 466.615977 226.298406 
L 469.088624 228.435279 
L 471.561271 230.17812 
L 476.506564 234.451867 
L 481.451858 239.513681 
L 483.924505 240.862488 
L 486.397152 241.817261 
L 488.869798 241.983968 
L 493.815092 240.741247 
L 503.705679 235.103538 
L 506.178326 234.482177 
L 508.650973 234.648884 
L 511.123619 235.603657 
L 516.068913 239.877404 
L 518.54156 241.620245 
L 521.014207 244.151152 
L 523.486853 248.652226 
L 528.432147 263.170843 
L 530.904794 269.642085 
L 533.377441 274.537192 
L 535.850087 277.856166 
L 538.322734 280.387073 
L 540.795381 283.312014 
L 543.268028 287.419055 
L 545.740675 290.343995 
L 548.213321 292.874903 
L 550.685968 295.799843 
L 553.158615 298.33075 
L 555.631262 299.679557 
L 563.049202 297.815476 
L 565.521849 298.376216 
L 567.994496 298.542922 
L 570.467142 297.527528 
L 572.939789 296.118101 
L 575.412436 296.284807 
L 577.885083 297.239581 
L 580.35773 297.800321 
L 582.830376 298.755094 
L 585.303023 298.9218 
L 587.77567 297.906407 
L 592.720964 295.087552 
L 595.19361 294.072158 
L 597.666257 294.238864 
L 600.138904 296.375738 
L 602.611551 299.300679 
L 605.084198 300.649486 
L 607.556844 301.604259 
L 610.029491 301.770965 
L 612.502138 303.119772 
L 614.974785 304.074545 
L 617.447431 299.906884 
L 619.920078 294.163089 
L 622.392725 289.207361 
L 624.865372 286.221799 
L 627.338019 285.206406 
L 629.810665 284.585045 
L 632.283312 282.387551 
L 637.228606 274.052228 
L 639.701253 272.248767 
L 644.646546 269.429913 
L 647.119193 266.838385 
L 652.064487 260.867263 
L 654.537133 259.063802 
L 659.482427 256.244947 
L 664.42772 255.002227 
L 666.900367 254.7749 
L 669.373014 255.33564 
L 671.845661 256.290413 
L 674.318308 256.457119 
L 679.263601 256.002465 
L 681.736248 256.169172 
L 686.681542 255.714518 
L 689.154188 255.093157 
L 691.626835 252.895663 
L 694.099482 249.910102 
L 701.517422 238.589218 
L 706.462716 230.253895 
L 716.353303 210.430982 
L 718.82595 206.263321 
L 721.298597 202.489693 
L 723.771243 199.110098 
L 726.24389 196.124537 
L 731.189184 189.365348 
L 733.661831 185.197687 
L 736.134477 181.424059 
L 738.607124 177.256397 
L 741.079771 173.876803 
L 743.552418 170.891242 
L 746.025065 169.087781 
L 750.970358 166.268926 
L 753.443005 165.253532 
L 755.915652 163.844105 
L 760.860945 161.813317 
L 768.278886 161.131336 
L 770.751532 161.298043 
L 778.169473 159.433961 
L 780.64212 158.024534 
L 783.114766 157.00914 
L 785.587413 156.38778 
L 788.06006 155.372386 
L 790.532707 155.145059 
L 793.005354 155.311765 
L 795.478 155.872505 
L 800.423294 159.358186 
L 805.368588 164.42 
L 810.313881 171.057948 
L 812.786528 175.164989 
L 817.731821 184.167138 
L 827.622409 200.595301 
L 830.095055 205.096375 
L 832.567702 209.991483 
L 842.458289 231.148048 
L 844.930936 235.255089 
L 847.403583 238.574063 
L 849.87623 240.710937 
L 857.29417 244.757357 
L 859.766817 246.500197 
L 862.239464 247.849004 
L 864.71211 248.803777 
L 872.130051 250.485997 
L 874.602698 250.652704 
L 877.075344 250.425377 
L 882.020638 248.394589 
L 884.493285 246.985162 
L 886.965932 244.787667 
L 889.438578 242.984207 
L 894.383872 238.589218 
L 899.329166 234.982297 
L 906.747106 231.936115 
L 909.219753 231.708788 
L 911.692399 231.087428 
L 921.582987 230.17812 
L 924.055633 228.768692 
L 926.52828 226.965232 
L 929.000927 224.373704 
L 933.946221 217.614515 
L 938.891514 209.279192 
L 941.364161 205.505564 
L 953.727395 182.69709 
L 956.200042 177.741361 
L 958.672688 174.361767 
L 961.145335 171.770239 
L 963.617982 169.966778 
L 968.563276 168.724058 
L 971.035922 168.890764 
L 973.508569 168.269404 
L 978.453863 167.81475 
L 980.92651 167.981456 
L 983.399156 169.724296 
L 985.871803 171.86117 
L 990.817097 178.499118 
L 993.289744 181.424059 
L 995.76239 182.772865 
L 998.235037 183.727639 
L 1003.180331 184.849119 
L 1005.652977 185.803892 
L 1008.125624 186.364632 
L 1010.598271 187.319405 
L 1013.070918 189.062245 
L 1015.543565 191.199119 
L 1018.016211 194.912126 
L 1020.488858 199.413201 
L 1025.434152 209.203416 
L 1027.906799 212.52239 
L 1030.379445 214.659264 
L 1035.324739 216.568811 
L 1037.797386 217.917618 
L 1040.270033 219.660458 
L 1040.270033 219.660458 
" clip-path="url(#p1225f06c5c)" style="fill: none; stroke: #984ea3; stroke-width: 1.5; stroke-linecap: square"/>
   </g>
   <g id="line2d_78">
    <path d="M 1040.270033 318.04 
L 1040.270033 10.8 
" clip-path="url(#p1225f06c5c)" style="fill: none; stroke-dasharray: 5.55,2.4; stroke-dashoffset: 0; stroke: #808080; stroke-opacity: 0.5; stroke-width: 1.5"/>
   </g>
   <g id="patch_8">
    <path d="M 432.740716 318.04 
L 432.740716 10.8 
" style="fill: none; stroke: #000000; stroke-width: 0.8; stroke-linejoin: miter; stroke-linecap: square"/>
   </g>
   <g id="patch_9">
    <path d="M 1069.2 318.04 
L 1069.2 10.8 
" style="fill: none; stroke: #000000; stroke-width: 0.8; stroke-linejoin: miter; stroke-linecap: square"/>
   </g>
   <g id="patch_10">
    <path d="M 432.740716 318.04 
L 1069.2 318.04 
" style="fill: none; stroke: #000000; stroke-width: 0.8; stroke-linejoin: miter; stroke-linecap: square"/>
   </g>
   <g id="patch_11">
    <path d="M 432.740716 10.8 
L 1069.2 10.8 
" style="fill: none; stroke: #000000; stroke-width: 0.8; stroke-linejoin: miter; stroke-linecap: square"/>
   </g>
   <g id="text_45">
    <!-- 1 -->
    <g transform="translate(501.785831 178.650669) scale(0.1 -0.1)">
     <use xlink:href="#DejaVuSans-31"/>
    </g>
   </g>
   <g id="text_46">
    <!-- 2 -->
    <g transform="translate(542.172597 206.930147) scale(0.1 -0.1)">
     <use xlink:href="#DejaVuSans-32"/>
    </g>
   </g>
   <g id="text_47">
    <!-- 3 -->
    <g transform="translate(625.056771 163.738019) scale(0.1 -0.1)">
     <use xlink:href="#DejaVuSans-33"/>
    </g>
   </g>
   <g id="text_48">
    <!-- 4 -->
    <g transform="translate(664.449634 125.819878) scale(0.1 -0.1)">
     <use xlink:href="#DejaVuSans-34"/>
    </g>
   </g>
   <g id="text_49">
    <!-- 5 -->
    <g transform="translate(743.683734 20.82512) scale(0.1 -0.1)">
     <use xlink:href="#DejaVuSans-35"/>
    </g>
   </g>
   <g id="text_50">
    <!-- 6 -->
    <g transform="translate(798.749686 35.525599) scale(0.1 -0.1)">
     <use xlink:href="#DejaVuSans-36"/>
    </g>
   </g>
   <g id="text_51">
    <!-- 7 -->
    <g transform="translate(849.59259 61.48634) scale(0.1 -0.1)">
     <use xlink:href="#DejaVuSans-37"/>
    </g>
   </g>
   <g id="text_52">
    <!-- 8 -->
    <g transform="translate(901.580869 65.381209) scale(0.1 -0.1)">
     <use xlink:href="#DejaVuSans-38"/>
    </g>
   </g>
   <g id="text_53">
    <!-- 9 -->
    <g transform="translate(959.841399 56.773094) scale(0.1 -0.1)">
     <use xlink:href="#DejaVuSans-39"/>
    </g>
   </g>
   <g id="text_54">
    <!-- 10 -->
    <g transform="translate(1031.619653 144.354605) scale(0.1 -0.1)">
     <use xlink:href="#DejaVuSans-31"/>
     <use xlink:href="#DejaVuSans-30" x="63.623047"/>
    </g>
   </g>
   <g id="text_55">
    <!-- 11 -->
    <g transform="translate(1042.731661 150.704605) scale(0.1 -0.1)">
     <use xlink:href="#DejaVuSans-31"/>
     <use xlink:href="#DejaVuSans-31" x="63.623047"/>
    </g>
   </g>
   <g id="legend_1">
    <g id="patch_12">
     <path d="M 439.740716 77.5125 
L 593.190716 77.5125 
Q 595.190716 77.5125 595.190716 75.5125 
L 595.190716 17.8 
Q 595.190716 15.8 593.190716 15.8 
L 439.740716 15.8 
Q 437.740716 15.8 437.740716 17.8 
L 437.740716 75.5125 
Q 437.740716 77.5125 439.740716 77.5125 
z
" style="fill: #ffffff; opacity: 0.8; stroke: #cccccc; stroke-linejoin: miter"/>
    </g>
    <g id="line2d_79">
     <path d="M 441.740716 23.898438 
L 451.740716 23.898438 
L 461.740716 23.898438 
" style="fill: none; stroke: #d95f02; stroke-width: 1.5; stroke-linecap: square"/>
    </g>
    <g id="text_56">
     <!-- 1 -->
     <g transform="translate(469.740716 27.398438) scale(0.1 -0.1)">
      <use xlink:href="#DejaVuSans-31"/>
     </g>
    </g>
    <g id="line2d_80">
     <path d="M 441.740716 38.576563 
L 451.740716 38.576563 
L 461.740716 38.576563 
" style="fill: none; stroke: #7570b3; stroke-width: 1.5; stroke-linecap: square"/>
    </g>
    <g id="text_57">
     <!-- 2 -->
     <g transform="translate(469.740716 42.076563) scale(0.1 -0.1)">
      <use xlink:href="#DejaVuSans-32"/>
     </g>
    </g>
    <g id="line2d_81">
     <path d="M 441.740716 53.254688 
L 451.740716 53.254688 
L 461.740716 53.254688 
" style="fill: none; stroke: #e7298a; stroke-width: 1.5; stroke-linecap: square"/>
    </g>
    <g id="text_58">
     <!-- 3 -->
     <g transform="translate(469.740716 56.754688) scale(0.1 -0.1)">
      <use xlink:href="#DejaVuSans-33"/>
     </g>
    </g>
    <g id="line2d_82">
     <path d="M 441.740716 67.932813 
L 451.740716 67.932813 
L 461.740716 67.932813 
" style="fill: none; stroke: #66a61e; stroke-width: 1.5; stroke-linecap: square"/>
    </g>
    <g id="text_59">
     <!-- 4 -->
     <g transform="translate(469.740716 71.432813) scale(0.1 -0.1)">
      <use xlink:href="#DejaVuSans-34"/>
     </g>
    </g>
    <g id="line2d_83">
     <path d="M 496.103216 23.898438 
L 506.103216 23.898438 
L 516.103216 23.898438 
" style="fill: none; stroke: #e6ab02; stroke-width: 1.5; stroke-linecap: square"/>
    </g>
    <g id="text_60">
     <!-- 5 -->
     <g transform="translate(524.103216 27.398438) scale(0.1 -0.1)">
      <use xlink:href="#DejaVuSans-35"/>
     </g>
    </g>
    <g id="line2d_84">
     <path d="M 496.103216 38.576563 
L 506.103216 38.576563 
L 516.103216 38.576563 
" style="fill: none; stroke: #a6761d; stroke-width: 1.5; stroke-linecap: square"/>
    </g>
    <g id="text_61">
     <!-- 6 -->
     <g transform="translate(524.103216 42.076563) scale(0.1 -0.1)">
      <use xlink:href="#DejaVuSans-36"/>
     </g>
    </g>
    <g id="line2d_85">
     <path d="M 496.103216 53.254688 
L 506.103216 53.254688 
L 516.103216 53.254688 
" style="fill: none; stroke: #666666; stroke-width: 1.5; stroke-linecap: square"/>
    </g>
    <g id="text_62">
     <!-- 7 -->
     <g transform="translate(524.103216 56.754688) scale(0.1 -0.1)">
      <use xlink:href="#DejaVuSans-37"/>
     </g>
    </g>
    <g id="line2d_86">
     <path d="M 496.103216 67.932813 
L 506.103216 67.932813 
L 516.103216 67.932813 
" style="fill: none; stroke: #e41a1c; stroke-width: 1.5; stroke-linecap: square"/>
    </g>
    <g id="text_63">
     <!-- 8 -->
     <g transform="translate(524.103216 71.432813) scale(0.1 -0.1)">
      <use xlink:href="#DejaVuSans-38"/>
     </g>
    </g>
    <g id="line2d_87">
     <path d="M 550.465716 23.898438 
L 560.465716 23.898438 
L 570.465716 23.898438 
" style="fill: none; stroke: #377eb8; stroke-width: 1.5; stroke-linecap: square"/>
    </g>
    <g id="text_64">
     <!-- 9 -->
     <g transform="translate(578.465716 27.398438) scale(0.1 -0.1)">
      <use xlink:href="#DejaVuSans-39"/>
     </g>
    </g>
    <g id="line2d_88">
     <path d="M 550.465716 38.576563 
L 560.465716 38.576563 
L 570.465716 38.576563 
" style="fill: none; stroke: #4daf4a; stroke-width: 1.5; stroke-linecap: square"/>
    </g>
    <g id="text_65">
     <!-- 10 -->
     <g transform="translate(578.465716 42.076563) scale(0.1 -0.1)">
      <use xlink:href="#DejaVuSans-31"/>
      <use xlink:href="#DejaVuSans-30" x="63.623047"/>
     </g>
    </g>
    <g id="line2d_89">
     <path d="M 550.465716 53.254688 
L 560.465716 53.254688 
L 570.465716 53.254688 
" style="fill: none; stroke: #984ea3; stroke-width: 1.5; stroke-linecap: square"/>
    </g>
    <g id="text_66">
     <!-- 11 -->
     <g transform="translate(578.465716 56.754688) scale(0.1 -0.1)">
      <use xlink:href="#DejaVuSans-31"/>
      <use xlink:href="#DejaVuSans-31" x="63.623047"/>
     </g>
    </g>
   </g>
  </g>
 </g>
 <defs>
  <clipPath id="pb0680453f6">
   <rect x="66.62" y="10.8" width="318.229642" height="307.24"/>
  </clipPath>
  <clipPath id="p1225f06c5c">
   <rect x="432.740716" y="10.8" width="636.459284" height="307.24"/>
  </clipPath>
 </defs>
</svg>
