<?xml version="1.0" encoding="utf-8" standalone="no"?>
<!DOCTYPE svg PUBLIC "-//W3C//DTD SVG 1.1//EN"
  "http://www.w3.org/Graphics/SVG/1.1/DTD/svg11.dtd">
<svg xmlns:xlink="http://www.w3.org/1999/xlink" width="1080pt" height="360pt" viewBox="0 0 1080 360" xmlns="http://www.w3.org/2000/svg" version="1.1">
 <metadata>
  <rdf:RDF xmlns:dc="http://purl.org/dc/elements/1.1/" xmlns:cc="http://creativecommons.org/ns#" xmlns:rdf="http://www.w3.org/1999/02/22-rdf-syntax-ns#">
   <cc:Work>
    <dc:type rdf:resource="http://purl.org/dc/dcmitype/StillImage"/>
    <dc:date>2024-05-04T16:18:28.905848</dc:date>
    <dc:format>image/svg+xml</dc:format>
    <dc:creator>
     <cc:Agent>
      <dc:title>Matplotlib v3.8.4, https://matplotlib.org/</dc:title>
     </cc:Agent>
    </dc:creator>
   </cc:Work>
  </rdf:RDF>
 </metadata>
 <defs>
  <style type="text/css">*{stroke-linejoin: round; stroke-linecap: butt}</style>
 </defs>
 <g id="figure_1">
  <g id="patch_1">
   <path d="M 0 360 
L 1080 360 
L 1080 0 
L 0 0 
z
" style="fill: #ffffff"/>
  </g>
  <g id="axes_1">
   <g id="patch_2">
    <path d="M 66.62 318.04 
L 385.266667 318.04 
L 385.266667 10.8 
L 66.62 10.8 
z
" style="fill: #ffffff"/>
   </g>
   <g id="PathCollection_1">
    <defs>
     <path id="maf83c18f11" d="M 0 3 
C 0.795609 3 1.55874 2.683901 2.12132 2.12132 
C 2.683901 1.55874 3 0.795609 3 0 
C 3 -0.795609 2.683901 -1.55874 2.12132 -2.12132 
C 1.55874 -2.683901 0.795609 -3 0 -3 
C -0.795609 -3 -1.55874 -2.683901 -2.12132 -2.12132 
C -2.683901 -1.55874 -3 -0.795609 -3 0 
C -3 0.795609 -2.683901 1.55874 -2.12132 2.12132 
C -1.55874 2.683901 -0.795609 3 0 3 
z
" style="stroke: #1b9e77"/>
    </defs>
    <g clip-path="url(#pdf1fb1daa3)">
     <use xlink:href="#maf83c18f11" x="81.103939" y="304.074545" style="fill: #1b9e77; stroke: #1b9e77"/>
    </g>
   </g>
   <g id="PathCollection_2">
    <defs>
     <path id="m591615180c" d="M 0 3 
C 0.795609 3 1.55874 2.683901 2.12132 2.12132 
C 2.683901 1.55874 3 0.795609 3 0 
C 3 -0.795609 2.683901 -1.55874 2.12132 -2.12132 
C 1.55874 -2.683901 0.795609 -3 0 -3 
C -0.795609 -3 -1.55874 -2.683901 -2.12132 -2.12132 
C -2.683901 -1.55874 -3 -0.795609 -3 0 
C -3 0.795609 -2.683901 1.55874 -2.12132 2.12132 
C -1.55874 2.683901 -0.795609 3 0 3 
z
" style="stroke: #d95f02"/>
    </defs>
    <g clip-path="url(#pdf1fb1daa3)">
     <use xlink:href="#m591615180c" x="95.138043" y="279.390946" style="fill: #d95f02; stroke: #d95f02"/>
    </g>
   </g>
   <g id="PathCollection_3">
    <defs>
     <path id="mf4d4305711" d="M 0 3 
C 0.795609 3 1.55874 2.683901 2.12132 2.12132 
C 2.683901 1.55874 3 0.795609 3 0 
C 3 -0.795609 2.683901 -1.55874 2.12132 -2.12132 
C 1.55874 -2.683901 0.795609 -3 0 -3 
C -0.795609 -3 -1.55874 -2.683901 -2.12132 -2.12132 
C -2.683901 -1.55874 -3 -0.795609 -3 0 
C -3 0.795609 -2.683901 1.55874 -2.12132 2.12132 
C -1.55874 2.683901 -0.795609 3 0 3 
z
" style="stroke: #7570b3"/>
    </defs>
    <g clip-path="url(#pdf1fb1daa3)">
     <use xlink:href="#mf4d4305711" x="110.426591" y="253.189912" style="fill: #7570b3; stroke: #7570b3"/>
    </g>
   </g>
   <g id="PathCollection_4">
    <defs>
     <path id="m5fab176a99" d="M 0 3 
C 0.795609 3 1.55874 2.683901 2.12132 2.12132 
C 2.683901 1.55874 3 0.795609 3 0 
C 3 -0.795609 2.683901 -1.55874 2.12132 -2.12132 
C 1.55874 -2.683901 0.795609 -3 0 -3 
C -0.795609 -3 -1.55874 -2.683901 -2.12132 -2.12132 
C -2.683901 -1.55874 -3 -0.795609 -3 0 
C -3 0.795609 -2.683901 1.55874 -2.12132 2.12132 
C -1.55874 2.683901 -0.795609 3 0 3 
z
" style="stroke: #e7298a"/>
    </defs>
    <g clip-path="url(#pdf1fb1daa3)">
     <use xlink:href="#m5fab176a99" x="141.591708" y="201.647724" style="fill: #e7298a; stroke: #e7298a"/>
    </g>
   </g>
   <g id="PathCollection_5">
    <defs>
     <path id="me1ca3d04c6" d="M 0 3 
C 0.795609 3 1.55874 2.683901 2.12132 2.12132 
C 2.683901 1.55874 3 0.795609 3 0 
C 3 -0.795609 2.683901 -1.55874 2.12132 -2.12132 
C 1.55874 -2.683901 0.795609 -3 0 -3 
C -0.795609 -3 -1.55874 -2.683901 -2.12132 -2.12132 
C -2.683901 -1.55874 -3 -0.795609 -3 0 
C -3 0.795609 -2.683901 1.55874 -2.12132 2.12132 
C -1.55874 2.683901 -0.795609 3 0 3 
z
" style="stroke: #66a61e"/>
    </defs>
    <g clip-path="url(#pdf1fb1daa3)">
     <use xlink:href="#me1ca3d04c6" x="161.074807" y="171.349617" style="fill: #66a61e; stroke: #66a61e"/>
    </g>
   </g>
   <g id="PathCollection_6">
    <defs>
     <path id="mdd3e0d28f7" d="M 0 3 
C 0.795609 3 1.55874 2.683901 2.12132 2.12132 
C 2.683901 1.55874 3 0.795609 3 0 
C 3 -0.795609 2.683901 -1.55874 2.12132 -2.12132 
C 1.55874 -2.683901 0.795609 -3 0 -3 
C -0.795609 -3 -1.55874 -2.683901 -2.12132 -2.12132 
C -2.683901 -1.55874 -3 -0.795609 -3 0 
C -3 0.795609 -2.683901 1.55874 -2.12132 2.12132 
C -1.55874 2.683901 -0.795609 3 0 3 
z
" style="stroke: #e6ab02"/>
    </defs>
    <g clip-path="url(#pdf1fb1daa3)">
     <use xlink:href="#mdd3e0d28f7" x="187.829767" y="130.631794" style="fill: #e6ab02; stroke: #e6ab02"/>
    </g>
   </g>
   <g id="PathCollection_7">
    <defs>
     <path id="mf2cc307688" d="M 0 3 
C 0.795609 3 1.55874 2.683901 2.12132 2.12132 
C 2.683901 1.55874 3 0.795609 3 0 
C 3 -0.795609 2.683901 -1.55874 2.12132 -2.12132 
C 1.55874 -2.683901 0.795609 -3 0 -3 
C -0.795609 -3 -1.55874 -2.683901 -2.12132 -2.12132 
C -2.683901 -1.55874 -3 -0.795609 -3 0 
C -3 0.795609 -2.683901 1.55874 -2.12132 2.12132 
C -1.55874 2.683901 -0.795609 3 0 3 
z
" style="stroke: #a6761d"/>
    </defs>
    <g clip-path="url(#pdf1fb1daa3)">
     <use xlink:href="#mf2cc307688" x="204.039548" y="105.543545" style="fill: #a6761d; stroke: #a6761d"/>
    </g>
   </g>
   <g id="PathCollection_8">
    <defs>
     <path id="ma750fe923c" d="M 0 3 
C 0.795609 3 1.55874 2.683901 2.12132 2.12132 
C 2.683901 1.55874 3 0.795609 3 0 
C 3 -0.795609 2.683901 -1.55874 2.12132 -2.12132 
C 1.55874 -2.683901 0.795609 -3 0 -3 
C -0.795609 -3 -1.55874 -2.683901 -2.12132 -2.12132 
C -2.683901 -1.55874 -3 -0.795609 -3 0 
C -3 0.795609 -2.683901 1.55874 -2.12132 2.12132 
C -1.55874 2.683901 -0.795609 3 0 3 
z
" style="stroke: #666666"/>
    </defs>
    <g clip-path="url(#pdf1fb1daa3)">
     <use xlink:href="#ma750fe923c" x="264.252907" y="59.41354" style="fill: #666666; stroke: #666666"/>
    </g>
   </g>
   <g id="PathCollection_9">
    <defs>
     <path id="m0678d150d2" d="M 0 3 
C 0.795609 3 1.55874 2.683901 2.12132 2.12132 
C 2.683901 1.55874 3 0.795609 3 0 
C 3 -0.795609 2.683901 -1.55874 2.12132 -2.12132 
C 1.55874 -2.683901 0.795609 -3 0 -3 
C -0.795609 -3 -1.55874 -2.683901 -2.12132 -2.12132 
C -2.683901 -1.55874 -3 -0.795609 -3 0 
C -3 0.795609 -2.683901 1.55874 -2.12132 2.12132 
C -1.55874 2.683901 -0.795609 3 0 3 
z
" style="stroke: #e41a1c"/>
    </defs>
    <g clip-path="url(#pdf1fb1daa3)">
     <use xlink:href="#m0678d150d2" x="308.96211" y="44.239196" style="fill: #e41a1c; stroke: #e41a1c"/>
    </g>
   </g>
   <g id="PathCollection_10">
    <defs>
     <path id="m183ff15d10" d="M 0 3 
C 0.795609 3 1.55874 2.683901 2.12132 2.12132 
C 2.683901 1.55874 3 0.795609 3 0 
C 3 -0.795609 2.683901 -1.55874 2.12132 -2.12132 
C 1.55874 -2.683901 0.795609 -3 0 -3 
C -0.795609 -3 -1.55874 -2.683901 -2.12132 -2.12132 
C -2.683901 -1.55874 -3 -0.795609 -3 0 
C -3 0.795609 -2.683901 1.55874 -2.12132 2.12132 
C -1.55874 2.683901 -0.795609 3 0 3 
z
" style="stroke: #377eb8"/>
    </defs>
    <g clip-path="url(#pdf1fb1daa3)">
     <use xlink:href="#m183ff15d10" x="370.782727" y="24.765455" style="fill: #377eb8; stroke: #377eb8"/>
    </g>
   </g>
   <g id="matplotlib.axis_1">
    <g id="xtick_1">
     <g id="line2d_1">
      <path d="M 102.743115 318.04 
L 102.743115 10.8 
" clip-path="url(#pdf1fb1daa3)" style="fill: none; stroke: #b0b0b0; stroke-width: 0.8; stroke-linecap: square"/>
     </g>
     <g id="line2d_2">
      <defs>
       <path id="mfcdf5b752a" d="M 0 0 
L 0 3.5 
" style="stroke: #000000; stroke-width: 0.8"/>
      </defs>
      <g>
       <use xlink:href="#mfcdf5b752a" x="102.743115" y="318.04" style="stroke: #000000; stroke-width: 0.8"/>
      </g>
     </g>
     <g id="text_1">
      <!-- 14.532 -->
      <g transform="translate(85.247803 332.638438) scale(0.1 -0.1)">
       <defs>
        <path id="DejaVuSans-31" d="M 794 531 
L 1825 531 
L 1825 4091 
L 703 3866 
L 703 4441 
L 1819 4666 
L 2450 4666 
L 2450 531 
L 3481 531 
L 3481 0 
L 794 0 
L 794 531 
z
" transform="scale(0.015625)"/>
        <path id="DejaVuSans-34" d="M 2419 4116 
L 825 1625 
L 2419 1625 
L 2419 4116 
z
M 2253 4666 
L 3047 4666 
L 3047 1625 
L 3713 1625 
L 3713 1100 
L 3047 1100 
L 3047 0 
L 2419 0 
L 2419 1100 
L 313 1100 
L 313 1709 
L 2253 4666 
z
" transform="scale(0.015625)"/>
        <path id="DejaVuSans-2e" d="M 684 794 
L 1344 794 
L 1344 0 
L 684 0 
L 684 794 
z
" transform="scale(0.015625)"/>
        <path id="DejaVuSans-35" d="M 691 4666 
L 3169 4666 
L 3169 4134 
L 1269 4134 
L 1269 2991 
Q 1406 3038 1543 3061 
Q 1681 3084 1819 3084 
Q 2600 3084 3056 2656 
Q 3513 2228 3513 1497 
Q 3513 744 3044 326 
Q 2575 -91 1722 -91 
Q 1428 -91 1123 -41 
Q 819 9 494 109 
L 494 744 
Q 775 591 1075 516 
Q 1375 441 1709 441 
Q 2250 441 2565 725 
Q 2881 1009 2881 1497 
Q 2881 1984 2565 2268 
Q 2250 2553 1709 2553 
Q 1456 2553 1204 2497 
Q 953 2441 691 2322 
L 691 4666 
z
" transform="scale(0.015625)"/>
        <path id="DejaVuSans-33" d="M 2597 2516 
Q 3050 2419 3304 2112 
Q 3559 1806 3559 1356 
Q 3559 666 3084 287 
Q 2609 -91 1734 -91 
Q 1441 -91 1130 -33 
Q 819 25 488 141 
L 488 750 
Q 750 597 1062 519 
Q 1375 441 1716 441 
Q 2309 441 2620 675 
Q 2931 909 2931 1356 
Q 2931 1769 2642 2001 
Q 2353 2234 1838 2234 
L 1294 2234 
L 1294 2753 
L 1863 2753 
Q 2328 2753 2575 2939 
Q 2822 3125 2822 3475 
Q 2822 3834 2567 4026 
Q 2313 4219 1838 4219 
Q 1578 4219 1281 4162 
Q 984 4106 628 3988 
L 628 4550 
Q 988 4650 1302 4700 
Q 1616 4750 1894 4750 
Q 2613 4750 3031 4423 
Q 3450 4097 3450 3541 
Q 3450 3153 3228 2886 
Q 3006 2619 2597 2516 
z
" transform="scale(0.015625)"/>
        <path id="DejaVuSans-32" d="M 1228 531 
L 3431 531 
L 3431 0 
L 469 0 
L 469 531 
Q 828 903 1448 1529 
Q 2069 2156 2228 2338 
Q 2531 2678 2651 2914 
Q 2772 3150 2772 3378 
Q 2772 3750 2511 3984 
Q 2250 4219 1831 4219 
Q 1534 4219 1204 4116 
Q 875 4013 500 3803 
L 500 4441 
Q 881 4594 1212 4672 
Q 1544 4750 1819 4750 
Q 2544 4750 2975 4387 
Q 3406 4025 3406 3419 
Q 3406 3131 3298 2873 
Q 3191 2616 2906 2266 
Q 2828 2175 2409 1742 
Q 1991 1309 1228 531 
z
" transform="scale(0.015625)"/>
       </defs>
       <use xlink:href="#DejaVuSans-31"/>
       <use xlink:href="#DejaVuSans-34" x="63.623047"/>
       <use xlink:href="#DejaVuSans-2e" x="127.246094"/>
       <use xlink:href="#DejaVuSans-35" x="159.033203"/>
       <use xlink:href="#DejaVuSans-33" x="222.65625"/>
       <use xlink:href="#DejaVuSans-32" x="286.279297"/>
      </g>
     </g>
    </g>
    <g id="xtick_2">
     <g id="line2d_3">
      <path d="M 141.944521 318.04 
L 141.944521 10.8 
" clip-path="url(#pdf1fb1daa3)" style="fill: none; stroke: #b0b0b0; stroke-width: 0.8; stroke-linecap: square"/>
     </g>
     <g id="line2d_4">
      <g>
       <use xlink:href="#mfcdf5b752a" x="141.944521" y="318.04" style="stroke: #000000; stroke-width: 0.8"/>
      </g>
     </g>
     <g id="text_2">
      <!-- 14.534 -->
      <g transform="translate(124.449209 332.638438) scale(0.1 -0.1)">
       <use xlink:href="#DejaVuSans-31"/>
       <use xlink:href="#DejaVuSans-34" x="63.623047"/>
       <use xlink:href="#DejaVuSans-2e" x="127.246094"/>
       <use xlink:href="#DejaVuSans-35" x="159.033203"/>
       <use xlink:href="#DejaVuSans-33" x="222.65625"/>
       <use xlink:href="#DejaVuSans-34" x="286.279297"/>
      </g>
     </g>
    </g>
    <g id="xtick_3">
     <g id="line2d_5">
      <path d="M 181.145927 318.04 
L 181.145927 10.8 
" clip-path="url(#pdf1fb1daa3)" style="fill: none; stroke: #b0b0b0; stroke-width: 0.8; stroke-linecap: square"/>
     </g>
     <g id="line2d_6">
      <g>
       <use xlink:href="#mfcdf5b752a" x="181.145927" y="318.04" style="stroke: #000000; stroke-width: 0.8"/>
      </g>
     </g>
     <g id="text_3">
      <!-- 14.536 -->
      <g transform="translate(163.650614 332.638438) scale(0.1 -0.1)">
       <defs>
        <path id="DejaVuSans-36" d="M 2113 2584 
Q 1688 2584 1439 2293 
Q 1191 2003 1191 1497 
Q 1191 994 1439 701 
Q 1688 409 2113 409 
Q 2538 409 2786 701 
Q 3034 994 3034 1497 
Q 3034 2003 2786 2293 
Q 2538 2584 2113 2584 
z
M 3366 4563 
L 3366 3988 
Q 3128 4100 2886 4159 
Q 2644 4219 2406 4219 
Q 1781 4219 1451 3797 
Q 1122 3375 1075 2522 
Q 1259 2794 1537 2939 
Q 1816 3084 2150 3084 
Q 2853 3084 3261 2657 
Q 3669 2231 3669 1497 
Q 3669 778 3244 343 
Q 2819 -91 2113 -91 
Q 1303 -91 875 529 
Q 447 1150 447 2328 
Q 447 3434 972 4092 
Q 1497 4750 2381 4750 
Q 2619 4750 2861 4703 
Q 3103 4656 3366 4563 
z
" transform="scale(0.015625)"/>
       </defs>
       <use xlink:href="#DejaVuSans-31"/>
       <use xlink:href="#DejaVuSans-34" x="63.623047"/>
       <use xlink:href="#DejaVuSans-2e" x="127.246094"/>
       <use xlink:href="#DejaVuSans-35" x="159.033203"/>
       <use xlink:href="#DejaVuSans-33" x="222.65625"/>
       <use xlink:href="#DejaVuSans-36" x="286.279297"/>
      </g>
     </g>
    </g>
    <g id="xtick_4">
     <g id="line2d_7">
      <path d="M 220.347333 318.04 
L 220.347333 10.8 
" clip-path="url(#pdf1fb1daa3)" style="fill: none; stroke: #b0b0b0; stroke-width: 0.8; stroke-linecap: square"/>
     </g>
     <g id="line2d_8">
      <g>
       <use xlink:href="#mfcdf5b752a" x="220.347333" y="318.04" style="stroke: #000000; stroke-width: 0.8"/>
      </g>
     </g>
     <g id="text_4">
      <!-- 14.538 -->
      <g transform="translate(202.85202 332.638438) scale(0.1 -0.1)">
       <defs>
        <path id="DejaVuSans-38" d="M 2034 2216 
Q 1584 2216 1326 1975 
Q 1069 1734 1069 1313 
Q 1069 891 1326 650 
Q 1584 409 2034 409 
Q 2484 409 2743 651 
Q 3003 894 3003 1313 
Q 3003 1734 2745 1975 
Q 2488 2216 2034 2216 
z
M 1403 2484 
Q 997 2584 770 2862 
Q 544 3141 544 3541 
Q 544 4100 942 4425 
Q 1341 4750 2034 4750 
Q 2731 4750 3128 4425 
Q 3525 4100 3525 3541 
Q 3525 3141 3298 2862 
Q 3072 2584 2669 2484 
Q 3125 2378 3379 2068 
Q 3634 1759 3634 1313 
Q 3634 634 3220 271 
Q 2806 -91 2034 -91 
Q 1263 -91 848 271 
Q 434 634 434 1313 
Q 434 1759 690 2068 
Q 947 2378 1403 2484 
z
M 1172 3481 
Q 1172 3119 1398 2916 
Q 1625 2713 2034 2713 
Q 2441 2713 2670 2916 
Q 2900 3119 2900 3481 
Q 2900 3844 2670 4047 
Q 2441 4250 2034 4250 
Q 1625 4250 1398 4047 
Q 1172 3844 1172 3481 
z
" transform="scale(0.015625)"/>
       </defs>
       <use xlink:href="#DejaVuSans-31"/>
       <use xlink:href="#DejaVuSans-34" x="63.623047"/>
       <use xlink:href="#DejaVuSans-2e" x="127.246094"/>
       <use xlink:href="#DejaVuSans-35" x="159.033203"/>
       <use xlink:href="#DejaVuSans-33" x="222.65625"/>
       <use xlink:href="#DejaVuSans-38" x="286.279297"/>
      </g>
     </g>
    </g>
    <g id="xtick_5">
     <g id="line2d_9">
      <path d="M 259.548738 318.04 
L 259.548738 10.8 
" clip-path="url(#pdf1fb1daa3)" style="fill: none; stroke: #b0b0b0; stroke-width: 0.8; stroke-linecap: square"/>
     </g>
     <g id="line2d_10">
      <g>
       <use xlink:href="#mfcdf5b752a" x="259.548738" y="318.04" style="stroke: #000000; stroke-width: 0.8"/>
      </g>
     </g>
     <g id="text_5">
      <!-- 14.540 -->
      <g transform="translate(242.053426 332.638438) scale(0.1 -0.1)">
       <defs>
        <path id="DejaVuSans-30" d="M 2034 4250 
Q 1547 4250 1301 3770 
Q 1056 3291 1056 2328 
Q 1056 1369 1301 889 
Q 1547 409 2034 409 
Q 2525 409 2770 889 
Q 3016 1369 3016 2328 
Q 3016 3291 2770 3770 
Q 2525 4250 2034 4250 
z
M 2034 4750 
Q 2819 4750 3233 4129 
Q 3647 3509 3647 2328 
Q 3647 1150 3233 529 
Q 2819 -91 2034 -91 
Q 1250 -91 836 529 
Q 422 1150 422 2328 
Q 422 3509 836 4129 
Q 1250 4750 2034 4750 
z
" transform="scale(0.015625)"/>
       </defs>
       <use xlink:href="#DejaVuSans-31"/>
       <use xlink:href="#DejaVuSans-34" x="63.623047"/>
       <use xlink:href="#DejaVuSans-2e" x="127.246094"/>
       <use xlink:href="#DejaVuSans-35" x="159.033203"/>
       <use xlink:href="#DejaVuSans-34" x="222.65625"/>
       <use xlink:href="#DejaVuSans-30" x="286.279297"/>
      </g>
     </g>
    </g>
    <g id="xtick_6">
     <g id="line2d_11">
      <path d="M 298.750144 318.04 
L 298.750144 10.8 
" clip-path="url(#pdf1fb1daa3)" style="fill: none; stroke: #b0b0b0; stroke-width: 0.8; stroke-linecap: square"/>
     </g>
     <g id="line2d_12">
      <g>
       <use xlink:href="#mfcdf5b752a" x="298.750144" y="318.04" style="stroke: #000000; stroke-width: 0.8"/>
      </g>
     </g>
     <g id="text_6">
      <!-- 14.542 -->
      <g transform="translate(281.254832 332.638438) scale(0.1 -0.1)">
       <use xlink:href="#DejaVuSans-31"/>
       <use xlink:href="#DejaVuSans-34" x="63.623047"/>
       <use xlink:href="#DejaVuSans-2e" x="127.246094"/>
       <use xlink:href="#DejaVuSans-35" x="159.033203"/>
       <use xlink:href="#DejaVuSans-34" x="222.65625"/>
       <use xlink:href="#DejaVuSans-32" x="286.279297"/>
      </g>
     </g>
    </g>
    <g id="xtick_7">
     <g id="line2d_13">
      <path d="M 337.95155 318.04 
L 337.95155 10.8 
" clip-path="url(#pdf1fb1daa3)" style="fill: none; stroke: #b0b0b0; stroke-width: 0.8; stroke-linecap: square"/>
     </g>
     <g id="line2d_14">
      <g>
       <use xlink:href="#mfcdf5b752a" x="337.95155" y="318.04" style="stroke: #000000; stroke-width: 0.8"/>
      </g>
     </g>
     <g id="text_7">
      <!-- 14.544 -->
      <g transform="translate(320.456237 332.638438) scale(0.1 -0.1)">
       <use xlink:href="#DejaVuSans-31"/>
       <use xlink:href="#DejaVuSans-34" x="63.623047"/>
       <use xlink:href="#DejaVuSans-2e" x="127.246094"/>
       <use xlink:href="#DejaVuSans-35" x="159.033203"/>
       <use xlink:href="#DejaVuSans-34" x="222.65625"/>
       <use xlink:href="#DejaVuSans-34" x="286.279297"/>
      </g>
     </g>
    </g>
    <g id="xtick_8">
     <g id="line2d_15">
      <path d="M 377.152956 318.04 
L 377.152956 10.8 
" clip-path="url(#pdf1fb1daa3)" style="fill: none; stroke: #b0b0b0; stroke-width: 0.8; stroke-linecap: square"/>
     </g>
     <g id="line2d_16">
      <g>
       <use xlink:href="#mfcdf5b752a" x="377.152956" y="318.04" style="stroke: #000000; stroke-width: 0.8"/>
      </g>
     </g>
     <g id="text_8">
      <!-- 14.546 -->
      <g transform="translate(359.657643 332.638438) scale(0.1 -0.1)">
       <use xlink:href="#DejaVuSans-31"/>
       <use xlink:href="#DejaVuSans-34" x="63.623047"/>
       <use xlink:href="#DejaVuSans-2e" x="127.246094"/>
       <use xlink:href="#DejaVuSans-35" x="159.033203"/>
       <use xlink:href="#DejaVuSans-34" x="222.65625"/>
       <use xlink:href="#DejaVuSans-36" x="286.279297"/>
      </g>
     </g>
    </g>
    <g id="text_9">
     <!-- Longitude [°] -->
     <g transform="translate(193.083177 346.316563) scale(0.1 -0.1)">
      <defs>
       <path id="DejaVuSans-4c" d="M 628 4666 
L 1259 4666 
L 1259 531 
L 3531 531 
L 3531 0 
L 628 0 
L 628 4666 
z
" transform="scale(0.015625)"/>
       <path id="DejaVuSans-6f" d="M 1959 3097 
Q 1497 3097 1228 2736 
Q 959 2375 959 1747 
Q 959 1119 1226 758 
Q 1494 397 1959 397 
Q 2419 397 2687 759 
Q 2956 1122 2956 1747 
Q 2956 2369 2687 2733 
Q 2419 3097 1959 3097 
z
M 1959 3584 
Q 2709 3584 3137 3096 
Q 3566 2609 3566 1747 
Q 3566 888 3137 398 
Q 2709 -91 1959 -91 
Q 1206 -91 779 398 
Q 353 888 353 1747 
Q 353 2609 779 3096 
Q 1206 3584 1959 3584 
z
" transform="scale(0.015625)"/>
       <path id="DejaVuSans-6e" d="M 3513 2113 
L 3513 0 
L 2938 0 
L 2938 2094 
Q 2938 2591 2744 2837 
Q 2550 3084 2163 3084 
Q 1697 3084 1428 2787 
Q 1159 2491 1159 1978 
L 1159 0 
L 581 0 
L 581 3500 
L 1159 3500 
L 1159 2956 
Q 1366 3272 1645 3428 
Q 1925 3584 2291 3584 
Q 2894 3584 3203 3211 
Q 3513 2838 3513 2113 
z
" transform="scale(0.015625)"/>
       <path id="DejaVuSans-67" d="M 2906 1791 
Q 2906 2416 2648 2759 
Q 2391 3103 1925 3103 
Q 1463 3103 1205 2759 
Q 947 2416 947 1791 
Q 947 1169 1205 825 
Q 1463 481 1925 481 
Q 2391 481 2648 825 
Q 2906 1169 2906 1791 
z
M 3481 434 
Q 3481 -459 3084 -895 
Q 2688 -1331 1869 -1331 
Q 1566 -1331 1297 -1286 
Q 1028 -1241 775 -1147 
L 775 -588 
Q 1028 -725 1275 -790 
Q 1522 -856 1778 -856 
Q 2344 -856 2625 -561 
Q 2906 -266 2906 331 
L 2906 616 
Q 2728 306 2450 153 
Q 2172 0 1784 0 
Q 1141 0 747 490 
Q 353 981 353 1791 
Q 353 2603 747 3093 
Q 1141 3584 1784 3584 
Q 2172 3584 2450 3431 
Q 2728 3278 2906 2969 
L 2906 3500 
L 3481 3500 
L 3481 434 
z
" transform="scale(0.015625)"/>
       <path id="DejaVuSans-69" d="M 603 3500 
L 1178 3500 
L 1178 0 
L 603 0 
L 603 3500 
z
M 603 4863 
L 1178 4863 
L 1178 4134 
L 603 4134 
L 603 4863 
z
" transform="scale(0.015625)"/>
       <path id="DejaVuSans-74" d="M 1172 4494 
L 1172 3500 
L 2356 3500 
L 2356 3053 
L 1172 3053 
L 1172 1153 
Q 1172 725 1289 603 
Q 1406 481 1766 481 
L 2356 481 
L 2356 0 
L 1766 0 
Q 1100 0 847 248 
Q 594 497 594 1153 
L 594 3053 
L 172 3053 
L 172 3500 
L 594 3500 
L 594 4494 
L 1172 4494 
z
" transform="scale(0.015625)"/>
       <path id="DejaVuSans-75" d="M 544 1381 
L 544 3500 
L 1119 3500 
L 1119 1403 
Q 1119 906 1312 657 
Q 1506 409 1894 409 
Q 2359 409 2629 706 
Q 2900 1003 2900 1516 
L 2900 3500 
L 3475 3500 
L 3475 0 
L 2900 0 
L 2900 538 
Q 2691 219 2414 64 
Q 2138 -91 1772 -91 
Q 1169 -91 856 284 
Q 544 659 544 1381 
z
M 1991 3584 
L 1991 3584 
z
" transform="scale(0.015625)"/>
       <path id="DejaVuSans-64" d="M 2906 2969 
L 2906 4863 
L 3481 4863 
L 3481 0 
L 2906 0 
L 2906 525 
Q 2725 213 2448 61 
Q 2172 -91 1784 -91 
Q 1150 -91 751 415 
Q 353 922 353 1747 
Q 353 2572 751 3078 
Q 1150 3584 1784 3584 
Q 2172 3584 2448 3432 
Q 2725 3281 2906 2969 
z
M 947 1747 
Q 947 1113 1208 752 
Q 1469 391 1925 391 
Q 2381 391 2643 752 
Q 2906 1113 2906 1747 
Q 2906 2381 2643 2742 
Q 2381 3103 1925 3103 
Q 1469 3103 1208 2742 
Q 947 2381 947 1747 
z
" transform="scale(0.015625)"/>
       <path id="DejaVuSans-65" d="M 3597 1894 
L 3597 1613 
L 953 1613 
Q 991 1019 1311 708 
Q 1631 397 2203 397 
Q 2534 397 2845 478 
Q 3156 559 3463 722 
L 3463 178 
Q 3153 47 2828 -22 
Q 2503 -91 2169 -91 
Q 1331 -91 842 396 
Q 353 884 353 1716 
Q 353 2575 817 3079 
Q 1281 3584 2069 3584 
Q 2775 3584 3186 3129 
Q 3597 2675 3597 1894 
z
M 3022 2063 
Q 3016 2534 2758 2815 
Q 2500 3097 2075 3097 
Q 1594 3097 1305 2825 
Q 1016 2553 972 2059 
L 3022 2063 
z
" transform="scale(0.015625)"/>
       <path id="DejaVuSans-20" transform="scale(0.015625)"/>
       <path id="DejaVuSans-5b" d="M 550 4863 
L 1875 4863 
L 1875 4416 
L 1125 4416 
L 1125 -397 
L 1875 -397 
L 1875 -844 
L 550 -844 
L 550 4863 
z
" transform="scale(0.015625)"/>
       <path id="DejaVuSans-b0" d="M 1600 4347 
Q 1350 4347 1178 4173 
Q 1006 4000 1006 3750 
Q 1006 3503 1178 3333 
Q 1350 3163 1600 3163 
Q 1850 3163 2022 3333 
Q 2194 3503 2194 3750 
Q 2194 3997 2020 4172 
Q 1847 4347 1600 4347 
z
M 1600 4750 
Q 1800 4750 1984 4673 
Q 2169 4597 2303 4453 
Q 2447 4313 2519 4134 
Q 2591 3956 2591 3750 
Q 2591 3338 2302 3052 
Q 2013 2766 1594 2766 
Q 1172 2766 890 3047 
Q 609 3328 609 3750 
Q 609 4169 896 4459 
Q 1184 4750 1600 4750 
z
" transform="scale(0.015625)"/>
       <path id="DejaVuSans-5d" d="M 1947 4863 
L 1947 -844 
L 622 -844 
L 622 -397 
L 1369 -397 
L 1369 4416 
L 622 4416 
L 622 4863 
L 1947 4863 
z
" transform="scale(0.015625)"/>
      </defs>
      <use xlink:href="#DejaVuSans-4c"/>
      <use xlink:href="#DejaVuSans-6f" x="53.962891"/>
      <use xlink:href="#DejaVuSans-6e" x="115.144531"/>
      <use xlink:href="#DejaVuSans-67" x="178.523438"/>
      <use xlink:href="#DejaVuSans-69" x="242"/>
      <use xlink:href="#DejaVuSans-74" x="269.783203"/>
      <use xlink:href="#DejaVuSans-75" x="308.992188"/>
      <use xlink:href="#DejaVuSans-64" x="372.371094"/>
      <use xlink:href="#DejaVuSans-65" x="435.847656"/>
      <use xlink:href="#DejaVuSans-20" x="497.371094"/>
      <use xlink:href="#DejaVuSans-5b" x="529.158203"/>
      <use xlink:href="#DejaVuSans-b0" x="568.171875"/>
      <use xlink:href="#DejaVuSans-5d" x="618.171875"/>
     </g>
    </g>
   </g>
   <g id="matplotlib.axis_2">
    <g id="ytick_1">
     <g id="line2d_17">
      <path d="M 66.62 314.241356 
L 385.266667 314.241356 
" clip-path="url(#pdf1fb1daa3)" style="fill: none; stroke: #b0b0b0; stroke-width: 0.8; stroke-linecap: square"/>
     </g>
     <g id="line2d_18">
      <defs>
       <path id="m621a1566b0" d="M 0 0 
L -3.5 0 
" style="stroke: #000000; stroke-width: 0.8"/>
      </defs>
      <g>
       <use xlink:href="#m621a1566b0" x="66.62" y="314.241356" style="stroke: #000000; stroke-width: 0.8"/>
      </g>
     </g>
     <g id="text_10">
      <!-- 50.001 -->
      <g transform="translate(24.629375 318.040575) scale(0.1 -0.1)">
       <use xlink:href="#DejaVuSans-35"/>
       <use xlink:href="#DejaVuSans-30" x="63.623047"/>
       <use xlink:href="#DejaVuSans-2e" x="127.246094"/>
       <use xlink:href="#DejaVuSans-30" x="159.033203"/>
       <use xlink:href="#DejaVuSans-30" x="222.65625"/>
       <use xlink:href="#DejaVuSans-31" x="286.279297"/>
      </g>
     </g>
    </g>
    <g id="ytick_2">
     <g id="line2d_19">
      <path d="M 66.62 263.660209 
L 385.266667 263.660209 
" clip-path="url(#pdf1fb1daa3)" style="fill: none; stroke: #b0b0b0; stroke-width: 0.8; stroke-linecap: square"/>
     </g>
     <g id="line2d_20">
      <g>
       <use xlink:href="#m621a1566b0" x="66.62" y="263.660209" style="stroke: #000000; stroke-width: 0.8"/>
      </g>
     </g>
     <g id="text_11">
      <!-- 50.002 -->
      <g transform="translate(24.629375 267.459428) scale(0.1 -0.1)">
       <use xlink:href="#DejaVuSans-35"/>
       <use xlink:href="#DejaVuSans-30" x="63.623047"/>
       <use xlink:href="#DejaVuSans-2e" x="127.246094"/>
       <use xlink:href="#DejaVuSans-30" x="159.033203"/>
       <use xlink:href="#DejaVuSans-30" x="222.65625"/>
       <use xlink:href="#DejaVuSans-32" x="286.279297"/>
      </g>
     </g>
    </g>
    <g id="ytick_3">
     <g id="line2d_21">
      <path d="M 66.62 213.079063 
L 385.266667 213.079063 
" clip-path="url(#pdf1fb1daa3)" style="fill: none; stroke: #b0b0b0; stroke-width: 0.8; stroke-linecap: square"/>
     </g>
     <g id="line2d_22">
      <g>
       <use xlink:href="#m621a1566b0" x="66.62" y="213.079063" style="stroke: #000000; stroke-width: 0.8"/>
      </g>
     </g>
     <g id="text_12">
      <!-- 50.003 -->
      <g transform="translate(24.629375 216.878282) scale(0.1 -0.1)">
       <use xlink:href="#DejaVuSans-35"/>
       <use xlink:href="#DejaVuSans-30" x="63.623047"/>
       <use xlink:href="#DejaVuSans-2e" x="127.246094"/>
       <use xlink:href="#DejaVuSans-30" x="159.033203"/>
       <use xlink:href="#DejaVuSans-30" x="222.65625"/>
       <use xlink:href="#DejaVuSans-33" x="286.279297"/>
      </g>
     </g>
    </g>
    <g id="ytick_4">
     <g id="line2d_23">
      <path d="M 66.62 162.497916 
L 385.266667 162.497916 
" clip-path="url(#pdf1fb1daa3)" style="fill: none; stroke: #b0b0b0; stroke-width: 0.8; stroke-linecap: square"/>
     </g>
     <g id="line2d_24">
      <g>
       <use xlink:href="#m621a1566b0" x="66.62" y="162.497916" style="stroke: #000000; stroke-width: 0.8"/>
      </g>
     </g>
     <g id="text_13">
      <!-- 50.004 -->
      <g transform="translate(24.629375 166.297135) scale(0.1 -0.1)">
       <use xlink:href="#DejaVuSans-35"/>
       <use xlink:href="#DejaVuSans-30" x="63.623047"/>
       <use xlink:href="#DejaVuSans-2e" x="127.246094"/>
       <use xlink:href="#DejaVuSans-30" x="159.033203"/>
       <use xlink:href="#DejaVuSans-30" x="222.65625"/>
       <use xlink:href="#DejaVuSans-34" x="286.279297"/>
      </g>
     </g>
    </g>
    <g id="ytick_5">
     <g id="line2d_25">
      <path d="M 66.62 111.91677 
L 385.266667 111.91677 
" clip-path="url(#pdf1fb1daa3)" style="fill: none; stroke: #b0b0b0; stroke-width: 0.8; stroke-linecap: square"/>
     </g>
     <g id="line2d_26">
      <g>
       <use xlink:href="#m621a1566b0" x="66.62" y="111.91677" style="stroke: #000000; stroke-width: 0.8"/>
      </g>
     </g>
     <g id="text_14">
      <!-- 50.005 -->
      <g transform="translate(24.629375 115.715989) scale(0.1 -0.1)">
       <use xlink:href="#DejaVuSans-35"/>
       <use xlink:href="#DejaVuSans-30" x="63.623047"/>
       <use xlink:href="#DejaVuSans-2e" x="127.246094"/>
       <use xlink:href="#DejaVuSans-30" x="159.033203"/>
       <use xlink:href="#DejaVuSans-30" x="222.65625"/>
       <use xlink:href="#DejaVuSans-35" x="286.279297"/>
      </g>
     </g>
    </g>
    <g id="ytick_6">
     <g id="line2d_27">
      <path d="M 66.62 61.335623 
L 385.266667 61.335623 
" clip-path="url(#pdf1fb1daa3)" style="fill: none; stroke: #b0b0b0; stroke-width: 0.8; stroke-linecap: square"/>
     </g>
     <g id="line2d_28">
      <g>
       <use xlink:href="#m621a1566b0" x="66.62" y="61.335623" style="stroke: #000000; stroke-width: 0.8"/>
      </g>
     </g>
     <g id="text_15">
      <!-- 50.006 -->
      <g transform="translate(24.629375 65.134842) scale(0.1 -0.1)">
       <use xlink:href="#DejaVuSans-35"/>
       <use xlink:href="#DejaVuSans-30" x="63.623047"/>
       <use xlink:href="#DejaVuSans-2e" x="127.246094"/>
       <use xlink:href="#DejaVuSans-30" x="159.033203"/>
       <use xlink:href="#DejaVuSans-30" x="222.65625"/>
       <use xlink:href="#DejaVuSans-36" x="286.279297"/>
      </g>
     </g>
    </g>
    <g id="text_16">
     <!-- Latitude [°] -->
     <g transform="translate(18.549688 192.989531) rotate(-90) scale(0.1 -0.1)">
      <defs>
       <path id="DejaVuSans-61" d="M 2194 1759 
Q 1497 1759 1228 1600 
Q 959 1441 959 1056 
Q 959 750 1161 570 
Q 1363 391 1709 391 
Q 2188 391 2477 730 
Q 2766 1069 2766 1631 
L 2766 1759 
L 2194 1759 
z
M 3341 1997 
L 3341 0 
L 2766 0 
L 2766 531 
Q 2569 213 2275 61 
Q 1981 -91 1556 -91 
Q 1019 -91 701 211 
Q 384 513 384 1019 
Q 384 1609 779 1909 
Q 1175 2209 1959 2209 
L 2766 2209 
L 2766 2266 
Q 2766 2663 2505 2880 
Q 2244 3097 1772 3097 
Q 1472 3097 1187 3025 
Q 903 2953 641 2809 
L 641 3341 
Q 956 3463 1253 3523 
Q 1550 3584 1831 3584 
Q 2591 3584 2966 3190 
Q 3341 2797 3341 1997 
z
" transform="scale(0.015625)"/>
      </defs>
      <use xlink:href="#DejaVuSans-4c"/>
      <use xlink:href="#DejaVuSans-61" x="55.712891"/>
      <use xlink:href="#DejaVuSans-74" x="116.992188"/>
      <use xlink:href="#DejaVuSans-69" x="156.201172"/>
      <use xlink:href="#DejaVuSans-74" x="183.984375"/>
      <use xlink:href="#DejaVuSans-75" x="223.193359"/>
      <use xlink:href="#DejaVuSans-64" x="286.572266"/>
      <use xlink:href="#DejaVuSans-65" x="350.048828"/>
      <use xlink:href="#DejaVuSans-20" x="411.572266"/>
      <use xlink:href="#DejaVuSans-5b" x="443.359375"/>
      <use xlink:href="#DejaVuSans-b0" x="482.373047"/>
      <use xlink:href="#DejaVuSans-5d" x="532.373047"/>
     </g>
    </g>
   </g>
   <g id="patch_3">
    <path d="M 66.62 318.04 
L 66.62 10.8 
" style="fill: none; stroke: #000000; stroke-width: 0.8; stroke-linejoin: miter; stroke-linecap: square"/>
   </g>
   <g id="patch_4">
    <path d="M 385.266667 318.04 
L 385.266667 10.8 
" style="fill: none; stroke: #000000; stroke-width: 0.8; stroke-linejoin: miter; stroke-linecap: square"/>
   </g>
   <g id="patch_5">
    <path d="M 66.62 318.04 
L 385.266667 318.04 
" style="fill: none; stroke: #000000; stroke-width: 0.8; stroke-linejoin: miter; stroke-linecap: square"/>
   </g>
   <g id="patch_6">
    <path d="M 66.62 10.8 
L 385.266667 10.8 
" style="fill: none; stroke: #000000; stroke-width: 0.8; stroke-linejoin: miter; stroke-linecap: square"/>
   </g>
   <g id="text_17">
    <!-- 0 -->
    <g transform="translate(81.103939 304.074545) scale(0.1 -0.1)">
     <use xlink:href="#DejaVuSans-30"/>
    </g>
   </g>
   <g id="text_18">
    <!-- 1 -->
    <g transform="translate(95.138043 279.390946) scale(0.1 -0.1)">
     <use xlink:href="#DejaVuSans-31"/>
    </g>
   </g>
   <g id="text_19">
    <!-- 2 -->
    <g transform="translate(110.426591 253.189912) scale(0.1 -0.1)">
     <use xlink:href="#DejaVuSans-32"/>
    </g>
   </g>
   <g id="text_20">
    <!-- 3 -->
    <g transform="translate(141.591708 201.647724) scale(0.1 -0.1)">
     <use xlink:href="#DejaVuSans-33"/>
    </g>
   </g>
   <g id="text_21">
    <!-- 4 -->
    <g transform="translate(161.074807 171.349617) scale(0.1 -0.1)">
     <use xlink:href="#DejaVuSans-34"/>
    </g>
   </g>
   <g id="text_22">
    <!-- 5 -->
    <g transform="translate(187.829767 130.631794) scale(0.1 -0.1)">
     <use xlink:href="#DejaVuSans-35"/>
    </g>
   </g>
   <g id="text_23">
    <!-- 6 -->
    <g transform="translate(204.039548 105.543545) scale(0.1 -0.1)">
     <use xlink:href="#DejaVuSans-36"/>
    </g>
   </g>
   <g id="text_24">
    <!-- 7 -->
    <g transform="translate(264.252907 59.41354) scale(0.1 -0.1)">
     <defs>
      <path id="DejaVuSans-37" d="M 525 4666 
L 3525 4666 
L 3525 4397 
L 1831 0 
L 1172 0 
L 2766 4134 
L 525 4134 
L 525 4666 
z
" transform="scale(0.015625)"/>
     </defs>
     <use xlink:href="#DejaVuSans-37"/>
    </g>
   </g>
   <g id="text_25">
    <!-- 8 -->
    <g transform="translate(308.96211 44.239196) scale(0.1 -0.1)">
     <use xlink:href="#DejaVuSans-38"/>
    </g>
   </g>
   <g id="text_26">
    <!-- 9 -->
    <g transform="translate(370.782727 24.765455) scale(0.1 -0.1)">
     <defs>
      <path id="DejaVuSans-39" d="M 703 97 
L 703 672 
Q 941 559 1184 500 
Q 1428 441 1663 441 
Q 2288 441 2617 861 
Q 2947 1281 2994 2138 
Q 2813 1869 2534 1725 
Q 2256 1581 1919 1581 
Q 1219 1581 811 2004 
Q 403 2428 403 3163 
Q 403 3881 828 4315 
Q 1253 4750 1959 4750 
Q 2769 4750 3195 4129 
Q 3622 3509 3622 2328 
Q 3622 1225 3098 567 
Q 2575 -91 1691 -91 
Q 1453 -91 1209 -44 
Q 966 3 703 97 
z
M 1959 2075 
Q 2384 2075 2632 2365 
Q 2881 2656 2881 3163 
Q 2881 3666 2632 3958 
Q 2384 4250 1959 4250 
Q 1534 4250 1286 3958 
Q 1038 3666 1038 3163 
Q 1038 2656 1286 2365 
Q 1534 2075 1959 2075 
z
" transform="scale(0.015625)"/>
     </defs>
     <use xlink:href="#DejaVuSans-39"/>
    </g>
   </g>
  </g>
  <g id="axes_2">
   <g id="patch_7">
    <path d="M 431.906667 318.04 
L 1069.2 318.04 
L 1069.2 10.8 
L 431.906667 10.8 
z
" style="fill: #ffffff"/>
   </g>
   <g id="PathCollection_11">
    <defs>
     <path id="mcfdc7cd6c0" d="M -6.123724 0 
L 6.123724 0 
M 0 6.123724 
L 0 -6.123724 
" style="stroke: #000000; stroke-width: 1.5"/>
    </defs>
    <g clip-path="url(#p7c2e6de8ae)">
     <use xlink:href="#mcfdc7cd6c0" x="460.874545" y="215.80225" style="stroke: #000000; stroke-width: 1.5"/>
    </g>
   </g>
   <g id="PathCollection_12">
    <g clip-path="url(#p7c2e6de8ae)">
     <use xlink:href="#mcfdc7cd6c0" x="460.874545" y="200.298813" style="stroke: #000000; stroke-width: 1.5"/>
    </g>
   </g>
   <g id="PathCollection_13">
    <g clip-path="url(#p7c2e6de8ae)">
     <use xlink:href="#mcfdc7cd6c0" x="460.874545" y="180.919517" style="stroke: #000000; stroke-width: 1.5"/>
    </g>
   </g>
   <g id="PathCollection_14">
    <g clip-path="url(#p7c2e6de8ae)">
     <use xlink:href="#mcfdc7cd6c0" x="496.200961" y="186.031504" style="stroke: #000000; stroke-width: 1.5"/>
    </g>
   </g>
   <g id="PathCollection_15">
    <defs>
     <path id="m7c8f9bfcd4" d="M 0 3.535534 
C 0.937635 3.535534 1.836992 3.163008 2.5 2.5 
C 3.163008 1.836992 3.535534 0.937635 3.535534 0 
C 3.535534 -0.937635 3.163008 -1.836992 2.5 -2.5 
C 1.836992 -3.163008 0.937635 -3.535534 0 -3.535534 
C -0.937635 -3.535534 -1.836992 -3.163008 -2.5 -2.5 
C -3.163008 -1.836992 -3.535534 -0.937635 -3.535534 0 
C -3.535534 0.937635 -3.163008 1.836992 -2.5 2.5 
C -1.836992 3.163008 -0.937635 3.535534 0 3.535534 
z
" style="stroke: #000000"/>
    </defs>
    <g clip-path="url(#p7c2e6de8ae)">
     <use xlink:href="#m7c8f9bfcd4" x="496.200961" y="249.983181" style="stroke: #000000"/>
    </g>
   </g>
   <g id="PathCollection_16">
    <g clip-path="url(#p7c2e6de8ae)">
     <use xlink:href="#mcfdc7cd6c0" x="534.220608" y="208.428547" style="stroke: #000000; stroke-width: 1.5"/>
    </g>
   </g>
   <g id="PathCollection_17">
    <g clip-path="url(#p7c2e6de8ae)">
     <use xlink:href="#m7c8f9bfcd4" x="534.220608" y="272.380225" style="stroke: #000000"/>
    </g>
   </g>
   <g id="PathCollection_18">
    <g clip-path="url(#p7c2e6de8ae)">
     <use xlink:href="#mcfdc7cd6c0" x="610.256925" y="176.558776" style="stroke: #000000; stroke-width: 1.5"/>
    </g>
   </g>
   <g id="PathCollection_19">
    <g clip-path="url(#p7c2e6de8ae)">
     <use xlink:href="#m7c8f9bfcd4" x="610.256925" y="240.510454" style="stroke: #000000"/>
    </g>
   </g>
   <g id="PathCollection_20">
    <g clip-path="url(#p7c2e6de8ae)">
     <use xlink:href="#mcfdc7cd6c0" x="656.351381" y="128.337026" style="stroke: #000000; stroke-width: 1.5"/>
    </g>
   </g>
   <g id="PathCollection_21">
    <g clip-path="url(#p7c2e6de8ae)">
     <use xlink:href="#m7c8f9bfcd4" x="656.351381" y="192.288704" style="stroke: #000000"/>
    </g>
   </g>
   <g id="PathCollection_22">
    <g clip-path="url(#p7c2e6de8ae)">
     <use xlink:href="#mcfdc7cd6c0" x="719.046818" y="24.765455" style="stroke: #000000; stroke-width: 1.5"/>
    </g>
   </g>
   <g id="PathCollection_23">
    <g clip-path="url(#p7c2e6de8ae)">
     <use xlink:href="#m7c8f9bfcd4" x="719.046818" y="88.717132" style="stroke: #000000"/>
    </g>
   </g>
   <g id="PathCollection_24">
    <g clip-path="url(#p7c2e6de8ae)">
     <use xlink:href="#mcfdc7cd6c0" x="757.372502" y="29.17883" style="stroke: #000000; stroke-width: 1.5"/>
    </g>
   </g>
   <g id="PathCollection_25">
    <g clip-path="url(#p7c2e6de8ae)">
     <use xlink:href="#m7c8f9bfcd4" x="757.372502" y="93.130508" style="stroke: #000000"/>
    </g>
   </g>
   <g id="PathCollection_26">
    <g clip-path="url(#p7c2e6de8ae)">
     <use xlink:href="#mcfdc7cd6c0" x="867.347554" y="74.666744" style="stroke: #000000; stroke-width: 1.5"/>
    </g>
   </g>
   <g id="PathCollection_27">
    <g clip-path="url(#p7c2e6de8ae)">
     <use xlink:href="#m7c8f9bfcd4" x="867.347554" y="138.618421" style="stroke: #000000"/>
    </g>
   </g>
   <g id="PathCollection_28">
    <g clip-path="url(#p7c2e6de8ae)">
     <use xlink:href="#mcfdc7cd6c0" x="938.892357" y="59.308452" style="stroke: #000000; stroke-width: 1.5"/>
    </g>
   </g>
   <g id="PathCollection_29">
    <g clip-path="url(#p7c2e6de8ae)">
     <use xlink:href="#m7c8f9bfcd4" x="938.892357" y="123.260129" style="stroke: #000000"/>
    </g>
   </g>
   <g id="PathCollection_30">
    <g clip-path="url(#p7c2e6de8ae)">
     <use xlink:href="#mcfdc7cd6c0" x="1040.232121" y="155.726432" style="stroke: #000000; stroke-width: 1.5"/>
    </g>
   </g>
   <g id="PathCollection_31">
    <g clip-path="url(#p7c2e6de8ae)">
     <use xlink:href="#m7c8f9bfcd4" x="1040.232121" y="219.678109" style="stroke: #000000"/>
    </g>
   </g>
   <g id="matplotlib.axis_3">
    <g id="xtick_9">
     <g id="line2d_29">
      <path d="M 460.874545 318.04 
L 460.874545 10.8 
" clip-path="url(#p7c2e6de8ae)" style="fill: none; stroke: #b0b0b0; stroke-width: 0.8; stroke-linecap: square"/>
     </g>
     <g id="line2d_30">
      <g>
       <use xlink:href="#mfcdf5b752a" x="460.874545" y="318.04" style="stroke: #000000; stroke-width: 0.8"/>
      </g>
     </g>
     <g id="text_27">
      <!-- 0 -->
      <g transform="translate(457.693295 332.638438) scale(0.1 -0.1)">
       <use xlink:href="#DejaVuSans-30"/>
      </g>
     </g>
    </g>
    <g id="xtick_10">
     <g id="line2d_31">
      <path d="M 555.487529 318.04 
L 555.487529 10.8 
" clip-path="url(#p7c2e6de8ae)" style="fill: none; stroke: #b0b0b0; stroke-width: 0.8; stroke-linecap: square"/>
     </g>
     <g id="line2d_32">
      <g>
       <use xlink:href="#mfcdf5b752a" x="555.487529" y="318.04" style="stroke: #000000; stroke-width: 0.8"/>
      </g>
     </g>
     <g id="text_28">
      <!-- 200 -->
      <g transform="translate(545.943779 332.638438) scale(0.1 -0.1)">
       <use xlink:href="#DejaVuSans-32"/>
       <use xlink:href="#DejaVuSans-30" x="63.623047"/>
       <use xlink:href="#DejaVuSans-30" x="127.246094"/>
      </g>
     </g>
    </g>
    <g id="xtick_11">
     <g id="line2d_33">
      <path d="M 650.100512 318.04 
L 650.100512 10.8 
" clip-path="url(#p7c2e6de8ae)" style="fill: none; stroke: #b0b0b0; stroke-width: 0.8; stroke-linecap: square"/>
     </g>
     <g id="line2d_34">
      <g>
       <use xlink:href="#mfcdf5b752a" x="650.100512" y="318.04" style="stroke: #000000; stroke-width: 0.8"/>
      </g>
     </g>
     <g id="text_29">
      <!-- 400 -->
      <g transform="translate(640.556762 332.638438) scale(0.1 -0.1)">
       <use xlink:href="#DejaVuSans-34"/>
       <use xlink:href="#DejaVuSans-30" x="63.623047"/>
       <use xlink:href="#DejaVuSans-30" x="127.246094"/>
      </g>
     </g>
    </g>
    <g id="xtick_12">
     <g id="line2d_35">
      <path d="M 744.713495 318.04 
L 744.713495 10.8 
" clip-path="url(#p7c2e6de8ae)" style="fill: none; stroke: #b0b0b0; stroke-width: 0.8; stroke-linecap: square"/>
     </g>
     <g id="line2d_36">
      <g>
       <use xlink:href="#mfcdf5b752a" x="744.713495" y="318.04" style="stroke: #000000; stroke-width: 0.8"/>
      </g>
     </g>
     <g id="text_30">
      <!-- 600 -->
      <g transform="translate(735.169745 332.638438) scale(0.1 -0.1)">
       <use xlink:href="#DejaVuSans-36"/>
       <use xlink:href="#DejaVuSans-30" x="63.623047"/>
       <use xlink:href="#DejaVuSans-30" x="127.246094"/>
      </g>
     </g>
    </g>
    <g id="xtick_13">
     <g id="line2d_37">
      <path d="M 839.326478 318.04 
L 839.326478 10.8 
" clip-path="url(#p7c2e6de8ae)" style="fill: none; stroke: #b0b0b0; stroke-width: 0.8; stroke-linecap: square"/>
     </g>
     <g id="line2d_38">
      <g>
       <use xlink:href="#mfcdf5b752a" x="839.326478" y="318.04" style="stroke: #000000; stroke-width: 0.8"/>
      </g>
     </g>
     <g id="text_31">
      <!-- 800 -->
      <g transform="translate(829.782728 332.638438) scale(0.1 -0.1)">
       <use xlink:href="#DejaVuSans-38"/>
       <use xlink:href="#DejaVuSans-30" x="63.623047"/>
       <use xlink:href="#DejaVuSans-30" x="127.246094"/>
      </g>
     </g>
    </g>
    <g id="xtick_14">
     <g id="line2d_39">
      <path d="M 933.939461 318.04 
L 933.939461 10.8 
" clip-path="url(#p7c2e6de8ae)" style="fill: none; stroke: #b0b0b0; stroke-width: 0.8; stroke-linecap: square"/>
     </g>
     <g id="line2d_40">
      <g>
       <use xlink:href="#mfcdf5b752a" x="933.939461" y="318.04" style="stroke: #000000; stroke-width: 0.8"/>
      </g>
     </g>
     <g id="text_32">
      <!-- 1000 -->
      <g transform="translate(921.214461 332.638438) scale(0.1 -0.1)">
       <use xlink:href="#DejaVuSans-31"/>
       <use xlink:href="#DejaVuSans-30" x="63.623047"/>
       <use xlink:href="#DejaVuSans-30" x="127.246094"/>
       <use xlink:href="#DejaVuSans-30" x="190.869141"/>
      </g>
     </g>
    </g>
    <g id="xtick_15">
     <g id="line2d_41">
      <path d="M 1028.552444 318.04 
L 1028.552444 10.8 
" clip-path="url(#p7c2e6de8ae)" style="fill: none; stroke: #b0b0b0; stroke-width: 0.8; stroke-linecap: square"/>
     </g>
     <g id="line2d_42">
      <g>
       <use xlink:href="#mfcdf5b752a" x="1028.552444" y="318.04" style="stroke: #000000; stroke-width: 0.8"/>
      </g>
     </g>
     <g id="text_33">
      <!-- 1200 -->
      <g transform="translate(1015.827444 332.638438) scale(0.1 -0.1)">
       <use xlink:href="#DejaVuSans-31"/>
       <use xlink:href="#DejaVuSans-32" x="63.623047"/>
       <use xlink:href="#DejaVuSans-30" x="127.246094"/>
       <use xlink:href="#DejaVuSans-30" x="190.869141"/>
      </g>
     </g>
    </g>
    <g id="text_34">
     <!-- Transmitting distance [m] -->
     <g transform="translate(686.295521 346.316563) scale(0.1 -0.1)">
      <defs>
       <path id="DejaVuSans-54" d="M -19 4666 
L 3928 4666 
L 3928 4134 
L 2272 4134 
L 2272 0 
L 1638 0 
L 1638 4134 
L -19 4134 
L -19 4666 
z
" transform="scale(0.015625)"/>
       <path id="DejaVuSans-72" d="M 2631 2963 
Q 2534 3019 2420 3045 
Q 2306 3072 2169 3072 
Q 1681 3072 1420 2755 
Q 1159 2438 1159 1844 
L 1159 0 
L 581 0 
L 581 3500 
L 1159 3500 
L 1159 2956 
Q 1341 3275 1631 3429 
Q 1922 3584 2338 3584 
Q 2397 3584 2469 3576 
Q 2541 3569 2628 3553 
L 2631 2963 
z
" transform="scale(0.015625)"/>
       <path id="DejaVuSans-73" d="M 2834 3397 
L 2834 2853 
Q 2591 2978 2328 3040 
Q 2066 3103 1784 3103 
Q 1356 3103 1142 2972 
Q 928 2841 928 2578 
Q 928 2378 1081 2264 
Q 1234 2150 1697 2047 
L 1894 2003 
Q 2506 1872 2764 1633 
Q 3022 1394 3022 966 
Q 3022 478 2636 193 
Q 2250 -91 1575 -91 
Q 1294 -91 989 -36 
Q 684 19 347 128 
L 347 722 
Q 666 556 975 473 
Q 1284 391 1588 391 
Q 1994 391 2212 530 
Q 2431 669 2431 922 
Q 2431 1156 2273 1281 
Q 2116 1406 1581 1522 
L 1381 1569 
Q 847 1681 609 1914 
Q 372 2147 372 2553 
Q 372 3047 722 3315 
Q 1072 3584 1716 3584 
Q 2034 3584 2315 3537 
Q 2597 3491 2834 3397 
z
" transform="scale(0.015625)"/>
       <path id="DejaVuSans-6d" d="M 3328 2828 
Q 3544 3216 3844 3400 
Q 4144 3584 4550 3584 
Q 5097 3584 5394 3201 
Q 5691 2819 5691 2113 
L 5691 0 
L 5113 0 
L 5113 2094 
Q 5113 2597 4934 2840 
Q 4756 3084 4391 3084 
Q 3944 3084 3684 2787 
Q 3425 2491 3425 1978 
L 3425 0 
L 2847 0 
L 2847 2094 
Q 2847 2600 2669 2842 
Q 2491 3084 2119 3084 
Q 1678 3084 1418 2786 
Q 1159 2488 1159 1978 
L 1159 0 
L 581 0 
L 581 3500 
L 1159 3500 
L 1159 2956 
Q 1356 3278 1631 3431 
Q 1906 3584 2284 3584 
Q 2666 3584 2933 3390 
Q 3200 3197 3328 2828 
z
" transform="scale(0.015625)"/>
       <path id="DejaVuSans-63" d="M 3122 3366 
L 3122 2828 
Q 2878 2963 2633 3030 
Q 2388 3097 2138 3097 
Q 1578 3097 1268 2742 
Q 959 2388 959 1747 
Q 959 1106 1268 751 
Q 1578 397 2138 397 
Q 2388 397 2633 464 
Q 2878 531 3122 666 
L 3122 134 
Q 2881 22 2623 -34 
Q 2366 -91 2075 -91 
Q 1284 -91 818 406 
Q 353 903 353 1747 
Q 353 2603 823 3093 
Q 1294 3584 2113 3584 
Q 2378 3584 2631 3529 
Q 2884 3475 3122 3366 
z
" transform="scale(0.015625)"/>
      </defs>
      <use xlink:href="#DejaVuSans-54"/>
      <use xlink:href="#DejaVuSans-72" x="46.333984"/>
      <use xlink:href="#DejaVuSans-61" x="87.447266"/>
      <use xlink:href="#DejaVuSans-6e" x="148.726562"/>
      <use xlink:href="#DejaVuSans-73" x="212.105469"/>
      <use xlink:href="#DejaVuSans-6d" x="264.205078"/>
      <use xlink:href="#DejaVuSans-69" x="361.617188"/>
      <use xlink:href="#DejaVuSans-74" x="389.400391"/>
      <use xlink:href="#DejaVuSans-74" x="428.609375"/>
      <use xlink:href="#DejaVuSans-69" x="467.818359"/>
      <use xlink:href="#DejaVuSans-6e" x="495.601562"/>
      <use xlink:href="#DejaVuSans-67" x="558.980469"/>
      <use xlink:href="#DejaVuSans-20" x="622.457031"/>
      <use xlink:href="#DejaVuSans-64" x="654.244141"/>
      <use xlink:href="#DejaVuSans-69" x="717.720703"/>
      <use xlink:href="#DejaVuSans-73" x="745.503906"/>
      <use xlink:href="#DejaVuSans-74" x="797.603516"/>
      <use xlink:href="#DejaVuSans-61" x="836.8125"/>
      <use xlink:href="#DejaVuSans-6e" x="898.091797"/>
      <use xlink:href="#DejaVuSans-63" x="961.470703"/>
      <use xlink:href="#DejaVuSans-65" x="1016.451172"/>
      <use xlink:href="#DejaVuSans-20" x="1077.974609"/>
      <use xlink:href="#DejaVuSans-5b" x="1109.761719"/>
      <use xlink:href="#DejaVuSans-6d" x="1148.775391"/>
      <use xlink:href="#DejaVuSans-5d" x="1246.1875"/>
     </g>
    </g>
   </g>
   <g id="matplotlib.axis_4">
    <g id="ytick_7">
     <g id="line2d_43">
      <path d="M 431.906667 297.195294 
L 1069.2 297.195294 
" clip-path="url(#p7c2e6de8ae)" style="fill: none; stroke: #b0b0b0; stroke-width: 0.8; stroke-linecap: square"/>
     </g>
     <g id="line2d_44">
      <g>
       <use xlink:href="#m621a1566b0" x="431.906667" y="297.195294" style="stroke: #000000; stroke-width: 0.8"/>
      </g>
     </g>
     <g id="text_35">
      <!-- −2 -->
      <g transform="translate(410.164479 300.994513) scale(0.1 -0.1)">
       <defs>
        <path id="DejaVuSans-2212" d="M 678 2272 
L 4684 2272 
L 4684 1741 
L 678 1741 
L 678 2272 
z
" transform="scale(0.015625)"/>
       </defs>
       <use xlink:href="#DejaVuSans-2212"/>
       <use xlink:href="#DejaVuSans-32" x="83.789062"/>
      </g>
     </g>
    </g>
    <g id="ytick_8">
     <g id="line2d_45">
      <path d="M 431.906667 258.436702 
L 1069.2 258.436702 
" clip-path="url(#p7c2e6de8ae)" style="fill: none; stroke: #b0b0b0; stroke-width: 0.8; stroke-linecap: square"/>
     </g>
     <g id="line2d_46">
      <g>
       <use xlink:href="#m621a1566b0" x="431.906667" y="258.436702" style="stroke: #000000; stroke-width: 0.8"/>
      </g>
     </g>
     <g id="text_36">
      <!-- −1 -->
      <g transform="translate(410.164479 262.23592) scale(0.1 -0.1)">
       <use xlink:href="#DejaVuSans-2212"/>
       <use xlink:href="#DejaVuSans-31" x="83.789062"/>
      </g>
     </g>
    </g>
    <g id="ytick_9">
     <g id="line2d_47">
      <path d="M 431.906667 219.678109 
L 1069.2 219.678109 
" clip-path="url(#p7c2e6de8ae)" style="fill: none; stroke: #b0b0b0; stroke-width: 0.8; stroke-linecap: square"/>
     </g>
     <g id="line2d_48">
      <g>
       <use xlink:href="#m621a1566b0" x="431.906667" y="219.678109" style="stroke: #000000; stroke-width: 0.8"/>
      </g>
     </g>
     <g id="text_37">
      <!-- 0 -->
      <g transform="translate(418.544167 223.477328) scale(0.1 -0.1)">
       <use xlink:href="#DejaVuSans-30"/>
      </g>
     </g>
    </g>
    <g id="ytick_10">
     <g id="line2d_49">
      <path d="M 431.906667 180.919517 
L 1069.2 180.919517 
" clip-path="url(#p7c2e6de8ae)" style="fill: none; stroke: #b0b0b0; stroke-width: 0.8; stroke-linecap: square"/>
     </g>
     <g id="line2d_50">
      <g>
       <use xlink:href="#m621a1566b0" x="431.906667" y="180.919517" style="stroke: #000000; stroke-width: 0.8"/>
      </g>
     </g>
     <g id="text_38">
      <!-- 1 -->
      <g transform="translate(418.544167 184.718736) scale(0.1 -0.1)">
       <use xlink:href="#DejaVuSans-31"/>
      </g>
     </g>
    </g>
    <g id="ytick_11">
     <g id="line2d_51">
      <path d="M 431.906667 142.160924 
L 1069.2 142.160924 
" clip-path="url(#p7c2e6de8ae)" style="fill: none; stroke: #b0b0b0; stroke-width: 0.8; stroke-linecap: square"/>
     </g>
     <g id="line2d_52">
      <g>
       <use xlink:href="#m621a1566b0" x="431.906667" y="142.160924" style="stroke: #000000; stroke-width: 0.8"/>
      </g>
     </g>
     <g id="text_39">
      <!-- 2 -->
      <g transform="translate(418.544167 145.960143) scale(0.1 -0.1)">
       <use xlink:href="#DejaVuSans-32"/>
      </g>
     </g>
    </g>
    <g id="ytick_12">
     <g id="line2d_53">
      <path d="M 431.906667 103.402332 
L 1069.2 103.402332 
" clip-path="url(#p7c2e6de8ae)" style="fill: none; stroke: #b0b0b0; stroke-width: 0.8; stroke-linecap: square"/>
     </g>
     <g id="line2d_54">
      <g>
       <use xlink:href="#m621a1566b0" x="431.906667" y="103.402332" style="stroke: #000000; stroke-width: 0.8"/>
      </g>
     </g>
     <g id="text_40">
      <!-- 3 -->
      <g transform="translate(418.544167 107.201551) scale(0.1 -0.1)">
       <use xlink:href="#DejaVuSans-33"/>
      </g>
     </g>
    </g>
    <g id="ytick_13">
     <g id="line2d_55">
      <path d="M 431.906667 64.64374 
L 1069.2 64.64374 
" clip-path="url(#p7c2e6de8ae)" style="fill: none; stroke: #b0b0b0; stroke-width: 0.8; stroke-linecap: square"/>
     </g>
     <g id="line2d_56">
      <g>
       <use xlink:href="#m621a1566b0" x="431.906667" y="64.64374" style="stroke: #000000; stroke-width: 0.8"/>
      </g>
     </g>
     <g id="text_41">
      <!-- 4 -->
      <g transform="translate(418.544167 68.442958) scale(0.1 -0.1)">
       <use xlink:href="#DejaVuSans-34"/>
      </g>
     </g>
    </g>
    <g id="ytick_14">
     <g id="line2d_57">
      <path d="M 431.906667 25.885147 
L 1069.2 25.885147 
" clip-path="url(#p7c2e6de8ae)" style="fill: none; stroke: #b0b0b0; stroke-width: 0.8; stroke-linecap: square"/>
     </g>
     <g id="line2d_58">
      <g>
       <use xlink:href="#m621a1566b0" x="431.906667" y="25.885147" style="stroke: #000000; stroke-width: 0.8"/>
      </g>
     </g>
     <g id="text_42">
      <!-- 5 -->
      <g transform="translate(418.544167 29.684366) scale(0.1 -0.1)">
       <use xlink:href="#DejaVuSans-35"/>
      </g>
     </g>
    </g>
    <g id="text_43">
     <!-- Relief -->
     <g transform="translate(404.084792 178.360625) rotate(-90) scale(0.1 -0.1)">
      <defs>
       <path id="DejaVuSans-52" d="M 2841 2188 
Q 3044 2119 3236 1894 
Q 3428 1669 3622 1275 
L 4263 0 
L 3584 0 
L 2988 1197 
Q 2756 1666 2539 1819 
Q 2322 1972 1947 1972 
L 1259 1972 
L 1259 0 
L 628 0 
L 628 4666 
L 2053 4666 
Q 2853 4666 3247 4331 
Q 3641 3997 3641 3322 
Q 3641 2881 3436 2590 
Q 3231 2300 2841 2188 
z
M 1259 4147 
L 1259 2491 
L 2053 2491 
Q 2509 2491 2742 2702 
Q 2975 2913 2975 3322 
Q 2975 3731 2742 3939 
Q 2509 4147 2053 4147 
L 1259 4147 
z
" transform="scale(0.015625)"/>
       <path id="DejaVuSans-6c" d="M 603 4863 
L 1178 4863 
L 1178 0 
L 603 0 
L 603 4863 
z
" transform="scale(0.015625)"/>
       <path id="DejaVuSans-66" d="M 2375 4863 
L 2375 4384 
L 1825 4384 
Q 1516 4384 1395 4259 
Q 1275 4134 1275 3809 
L 1275 3500 
L 2222 3500 
L 2222 3053 
L 1275 3053 
L 1275 0 
L 697 0 
L 697 3053 
L 147 3053 
L 147 3500 
L 697 3500 
L 697 3744 
Q 697 4328 969 4595 
Q 1241 4863 1831 4863 
L 2375 4863 
z
" transform="scale(0.015625)"/>
      </defs>
      <use xlink:href="#DejaVuSans-52"/>
      <use xlink:href="#DejaVuSans-65" x="64.982422"/>
      <use xlink:href="#DejaVuSans-6c" x="126.505859"/>
      <use xlink:href="#DejaVuSans-69" x="154.289062"/>
      <use xlink:href="#DejaVuSans-65" x="182.072266"/>
      <use xlink:href="#DejaVuSans-66" x="243.595703"/>
     </g>
    </g>
   </g>
   <g id="line2d_59">
    <path d="M 460.874545 219.678109 
L 463.591962 222.933512 
L 466.309379 226.188915 
L 469.026795 228.28156 
L 471.744212 231.536963 
L 474.461628 235.179951 
L 477.179045 239.210526 
L 479.896461 242.853514 
L 482.613878 245.721331 
L 485.331295 247.813976 
L 488.048711 249.519035 
L 490.766128 250.061337 
L 493.483544 250.603638 
L 496.200961 249.983181 
" clip-path="url(#p7c2e6de8ae)" style="fill: none; stroke: #d95f02; stroke-width: 1.5; stroke-linecap: square"/>
   </g>
   <g id="line2d_60">
    <path d="M 496.200961 318.04 
L 496.200961 10.8 
" clip-path="url(#p7c2e6de8ae)" style="fill: none; stroke-dasharray: 5.55,2.4; stroke-dashoffset: 0; stroke: #808080; stroke-opacity: 0.5; stroke-width: 1.5"/>
   </g>
   <g id="line2d_61">
    <path d="M 460.874545 219.678109 
L 463.319414 222.15834 
L 465.764283 225.026157 
L 468.209152 226.731216 
L 470.65402 229.211447 
L 473.098889 231.691678 
L 475.543758 235.334667 
L 477.988627 238.590069 
L 480.433495 241.0703 
L 482.878364 243.550531 
L 485.323233 244.868004 
L 487.768102 246.185477 
L 490.21297 246.340193 
L 492.657839 246.882494 
L 495.102708 245.874452 
L 497.547577 244.866409 
L 499.992445 244.245953 
L 502.437314 244.400668 
L 504.882183 245.718141 
L 507.327051 246.648029 
L 509.77192 247.965502 
L 512.216789 249.282975 
L 514.661658 250.212862 
L 517.106526 251.917921 
L 519.551395 254.785738 
L 521.996264 259.203898 
L 524.441133 263.234473 
L 526.886001 266.877462 
L 529.33087 269.357693 
L 531.775739 270.675166 
L 534.220608 272.380225 
" clip-path="url(#p7c2e6de8ae)" style="fill: none; stroke: #7570b3; stroke-width: 1.5; stroke-linecap: square"/>
   </g>
   <g id="line2d_62">
    <path d="M 534.220608 318.04 
L 534.220608 10.8 
" clip-path="url(#p7c2e6de8ae)" style="fill: none; stroke-dasharray: 5.55,2.4; stroke-dashoffset: 0; stroke: #808080; stroke-opacity: 0.5; stroke-width: 1.5"/>
   </g>
   <g id="line2d_63">
    <path d="M 460.874545 219.678109 
L 463.283939 222.15834 
L 465.693332 225.026157 
L 468.102725 226.731216 
L 470.512118 229.211447 
L 472.921512 231.691678 
L 475.330905 234.947081 
L 477.740298 237.814897 
L 480.149691 240.682714 
L 482.559084 243.162945 
L 484.968478 244.480418 
L 487.377871 245.797892 
L 489.787264 245.952607 
L 492.196657 246.494908 
L 494.60605 245.486866 
L 497.015444 244.478823 
L 499.424837 243.083195 
L 501.83423 243.23791 
L 504.243623 244.167798 
L 506.653017 245.097685 
L 509.06241 246.415158 
L 511.471803 247.732631 
L 513.881196 248.662518 
L 516.290589 249.20482 
L 518.699983 251.685051 
L 521.109376 255.715625 
L 523.518769 260.133786 
L 525.928162 264.551946 
L 528.337555 267.419763 
L 530.746949 269.124822 
L 533.156342 270.442295 
L 535.565735 272.147354 
L 537.975128 273.077242 
L 540.384522 273.231957 
L 542.793915 273.386672 
L 545.203308 272.766216 
L 547.612701 273.308517 
L 550.022094 273.463232 
L 552.431488 273.617948 
L 554.840881 272.22232 
L 557.250274 271.989449 
L 559.659667 271.756578 
L 562.06906 271.523708 
L 564.478454 271.678423 
L 566.887847 270.670381 
L 569.29724 270.43751 
L 571.706633 269.429468 
L 574.116027 268.421425 
L 576.52542 266.250625 
L 578.934813 265.242583 
L 581.344206 263.846955 
L 583.753599 262.06374 
L 586.162993 261.055698 
L 588.572386 258.109726 
L 590.981779 256.714098 
L 593.391172 253.38054 
L 595.800565 251.984911 
L 598.209959 249.038939 
L 600.619352 246.868139 
L 603.028745 247.41044 
L 605.438138 247.565156 
L 607.847532 247.332285 
L 610.256925 240.510454 
" clip-path="url(#p7c2e6de8ae)" style="fill: none; stroke: #e7298a; stroke-width: 1.5; stroke-linecap: square"/>
   </g>
   <g id="line2d_64">
    <path d="M 610.256925 318.04 
L 610.256925 10.8 
" clip-path="url(#p7c2e6de8ae)" style="fill: none; stroke-dasharray: 5.55,2.4; stroke-dashoffset: 0; stroke: #808080; stroke-opacity: 0.5; stroke-width: 1.5"/>
   </g>
   <g id="line2d_65">
    <path d="M 460.874545 219.678109 
L 463.28784 222.545926 
L 465.701134 225.026157 
L 468.114428 226.731216 
L 470.527723 229.211447 
L 472.941017 231.691678 
L 475.354311 234.947081 
L 477.767605 238.202483 
L 480.1809 241.0703 
L 482.594194 243.550531 
L 485.007488 244.480418 
L 487.420782 246.185477 
L 489.834077 245.952607 
L 492.247371 246.494908 
L 494.660665 245.09928 
L 497.073959 244.091237 
L 499.487254 242.695609 
L 501.900548 242.850324 
L 504.313842 243.780212 
L 506.727136 244.710099 
L 509.140431 246.027572 
L 511.553725 247.345045 
L 513.967019 248.274932 
L 516.380314 249.20482 
L 518.793608 251.685051 
L 521.206902 255.715625 
L 523.620196 260.521372 
L 526.033491 264.551946 
L 528.446785 267.807349 
L 530.860079 269.512408 
L 533.273373 271.217467 
L 535.686668 272.922526 
L 538.099962 274.239999 
L 540.513256 274.782301 
L 542.92655 274.937016 
L 545.339845 275.091731 
L 547.753139 275.246447 
L 550.166433 276.176334 
L 552.579727 275.555877 
L 554.993022 274.935421 
L 557.406316 274.314965 
L 559.81961 274.082094 
L 562.232905 274.236809 
L 564.646199 274.003939 
L 567.059493 273.771068 
L 569.472787 273.538198 
L 571.886082 272.917741 
L 574.299376 271.909699 
L 576.71267 270.51407 
L 579.125964 269.118442 
L 581.539259 267.722814 
L 583.952553 266.327185 
L 586.365847 264.543971 
L 588.779141 262.760757 
L 591.192436 260.202371 
L 593.60573 258.031571 
L 596.019024 255.473185 
L 598.432318 252.914798 
L 600.845613 251.51917 
L 603.258907 251.2863 
L 605.672201 254.154116 
L 608.085496 254.308832 
L 610.49879 247.487001 
L 612.912084 242.215513 
L 615.325378 237.331611 
L 617.738673 233.610467 
L 620.151967 229.114152 
L 622.565261 225.780594 
L 624.978555 222.447036 
L 627.39185 220.276236 
L 629.805144 216.942678 
L 632.218438 214.384292 
L 634.631732 211.050734 
L 637.045027 208.492348 
L 639.458321 206.709133 
L 641.871615 204.150747 
L 644.284909 202.755119 
L 646.698204 200.196733 
L 649.111498 198.801104 
L 651.524792 196.242718 
L 653.938087 194.459504 
L 656.351381 192.288704 
" clip-path="url(#p7c2e6de8ae)" style="fill: none; stroke: #66a61e; stroke-width: 1.5; stroke-linecap: square"/>
   </g>
   <g id="line2d_66">
    <path d="M 656.351381 318.04 
L 656.351381 10.8 
" clip-path="url(#p7c2e6de8ae)" style="fill: none; stroke-dasharray: 5.55,2.4; stroke-dashoffset: 0; stroke: #808080; stroke-opacity: 0.5; stroke-width: 1.5"/>
   </g>
   <g id="line2d_67">
    <path d="M 460.874545 219.678109 
L 463.265029 222.545926 
L 465.655513 225.026157 
L 468.045997 226.731216 
L 470.436481 229.211447 
L 472.826965 231.691678 
L 475.217449 234.947081 
L 477.607933 237.814897 
L 479.998417 240.682714 
L 482.388901 243.162945 
L 484.779385 244.480418 
L 487.169869 245.797892 
L 489.560353 245.952607 
L 491.950837 246.107322 
L 494.341321 245.09928 
L 496.731805 243.703652 
L 499.122289 242.308023 
L 501.512773 241.687567 
L 503.903257 242.617454 
L 506.293741 243.547341 
L 508.684225 244.864814 
L 511.074709 246.182287 
L 513.465193 247.112175 
L 515.855678 248.042062 
L 518.246162 249.747121 
L 520.636646 253.777696 
L 523.02713 258.195856 
L 525.417614 263.001603 
L 527.808098 266.644591 
L 530.198582 268.34965 
L 532.589066 270.054709 
L 534.97955 272.147354 
L 537.370034 273.464827 
L 539.760518 275.169887 
L 542.151002 275.712188 
L 544.541486 276.254489 
L 546.93197 276.409204 
L 549.322454 277.726678 
L 551.712938 277.493807 
L 554.103422 276.873351 
L 556.493906 275.865308 
L 558.88439 275.632438 
L 561.274874 275.787153 
L 563.665358 275.554282 
L 566.055842 275.321412 
L 568.446326 275.476127 
L 570.83681 275.630843 
L 573.227294 275.010386 
L 575.617778 274.002344 
L 578.008262 272.606715 
L 580.398746 271.598673 
L 582.78923 269.815459 
L 585.179714 268.807416 
L 587.570198 266.636616 
L 589.960682 264.465816 
L 592.351166 262.682602 
L 594.74165 259.73663 
L 597.132134 257.953415 
L 599.522618 255.782615 
L 601.913102 255.549745 
L 604.303586 257.64239 
L 606.69407 260.510207 
L 609.084554 256.401477 
L 611.475038 250.354817 
L 613.865522 245.08333 
L 616.256006 240.199428 
L 618.64649 236.478284 
L 621.036974 232.75714 
L 623.427458 229.423582 
L 625.817942 226.865196 
L 628.208426 224.694396 
L 630.59891 222.523596 
L 632.989394 219.577624 
L 635.379878 217.019238 
L 637.770362 214.073266 
L 640.160846 210.739708 
L 642.55133 208.181322 
L 644.941814 205.23535 
L 647.332298 202.676964 
L 649.722782 200.118578 
L 652.113266 197.947777 
L 654.50375 195.776977 
L 656.894234 193.606177 
L 659.284718 191.822963 
L 661.675202 189.264577 
L 664.065686 187.093777 
L 666.45617 183.372633 
L 668.846654 180.814247 
L 671.237138 177.480689 
L 673.627622 174.147131 
L 676.018106 170.813573 
L 678.40859 166.704843 
L 680.799074 162.596113 
L 683.189558 157.712212 
L 685.580042 153.991068 
L 687.970526 148.331994 
L 690.36101 143.448093 
L 692.751494 138.176605 
L 695.141978 132.517531 
L 697.532462 127.246044 
L 699.922946 121.199384 
L 702.31343 116.315483 
L 704.703914 109.881237 
L 707.094398 106.160094 
L 709.484882 100.50102 
L 711.875366 97.167462 
L 714.26585 93.446318 
L 716.656334 90.887932 
L 719.046818 88.717132 
" clip-path="url(#p7c2e6de8ae)" style="fill: none; stroke: #e6ab02; stroke-width: 1.5; stroke-linecap: square"/>
   </g>
   <g id="line2d_68">
    <path d="M 719.046818 318.04 
L 719.046818 10.8 
" clip-path="url(#p7c2e6de8ae)" style="fill: none; stroke-dasharray: 5.55,2.4; stroke-dashoffset: 0; stroke: #808080; stroke-opacity: 0.5; stroke-width: 1.5"/>
   </g>
   <g id="line2d_69">
    <path d="M 460.874545 219.678109 
L 463.265658 222.545926 
L 465.656771 225.026157 
L 468.047883 226.731216 
L 470.438996 229.211447 
L 472.830108 231.691678 
L 475.221221 234.947081 
L 477.612333 237.814897 
L 480.003446 240.682714 
L 482.394558 243.162945 
L 484.785671 244.480418 
L 487.176784 245.797892 
L 489.567896 245.952607 
L 491.959009 246.107322 
L 494.350121 244.711694 
L 496.741234 243.703652 
L 499.132346 242.308023 
L 501.523459 241.687567 
L 503.914571 242.617454 
L 506.305684 243.547341 
L 508.696796 244.864814 
L 511.087909 246.182287 
L 513.479022 247.112175 
L 515.870134 248.042062 
L 518.261247 249.359535 
L 520.652359 253.777696 
L 523.043472 258.195856 
L 525.434584 263.001603 
L 527.825697 266.644591 
L 530.216809 268.737236 
L 532.607922 270.054709 
L 534.999035 272.147354 
L 537.390147 273.852413 
L 539.78126 275.557472 
L 542.172372 276.099774 
L 544.563485 276.642075 
L 546.954597 277.184376 
L 549.34571 278.501849 
L 551.736822 278.656565 
L 554.127935 278.036108 
L 556.519047 276.64048 
L 558.91016 276.407609 
L 561.301273 276.562325 
L 563.692385 276.71704 
L 566.083498 276.48417 
L 568.47461 276.251299 
L 570.865723 276.406014 
L 573.256835 275.785558 
L 575.647948 275.165102 
L 578.03906 273.769473 
L 580.430173 272.761431 
L 582.821286 271.365802 
L 585.212398 269.970174 
L 587.603511 268.18696 
L 589.994623 266.01616 
L 592.385736 263.84536 
L 594.776848 261.674559 
L 597.167961 259.503759 
L 599.559073 257.720545 
L 601.950186 257.100088 
L 604.341298 259.580319 
L 606.732411 262.06055 
L 609.123524 258.339406 
L 611.514636 251.905161 
L 613.905749 246.633674 
L 616.296861 242.137358 
L 618.687974 238.416214 
L 621.079086 234.69507 
L 623.470199 231.749098 
L 625.861311 228.803126 
L 628.252424 226.632326 
L 630.643537 224.849112 
L 633.034649 222.290725 
L 635.425762 219.732339 
L 637.816874 216.786367 
L 640.207987 213.452809 
L 642.599099 210.119251 
L 644.990212 207.173279 
L 647.381324 204.614893 
L 649.772437 202.056507 
L 652.163549 199.498121 
L 654.554662 197.327321 
L 656.945775 195.156521 
L 659.336887 193.760892 
L 661.728 190.81492 
L 664.119112 188.64412 
L 666.510225 185.310562 
L 668.901337 182.36459 
L 671.29245 179.031032 
L 673.683562 175.697474 
L 676.074675 171.976331 
L 678.465788 167.867601 
L 680.8569 163.758871 
L 683.248013 159.262555 
L 685.639125 154.766239 
L 688.030238 149.107166 
L 690.42135 143.835678 
L 692.812463 138.176605 
L 695.203575 132.905117 
L 697.594688 127.63363 
L 699.9858 121.974556 
L 702.376913 116.703069 
L 704.768026 111.043995 
L 707.159138 106.54768 
L 709.550251 101.663778 
L 711.941363 97.555048 
L 714.332476 93.833904 
L 716.723588 90.887932 
L 719.114701 88.717132 
L 721.505813 87.70909 
L 723.896926 87.476219 
L 726.288039 88.406106 
L 728.679151 89.723579 
L 731.070264 91.428638 
L 733.461376 92.746112 
L 735.852489 93.675999 
L 738.243601 94.2183 
L 740.634714 94.373015 
L 743.025826 94.915317 
L 745.416939 94.682446 
L 747.808051 94.837162 
L 750.199164 93.829119 
L 752.590277 93.596249 
L 754.981389 92.975792 
L 757.372502 93.130508 
" clip-path="url(#p7c2e6de8ae)" style="fill: none; stroke: #a6761d; stroke-width: 1.5; stroke-linecap: square"/>
   </g>
   <g id="line2d_70">
    <path d="M 757.372502 318.04 
L 757.372502 10.8 
" clip-path="url(#p7c2e6de8ae)" style="fill: none; stroke-dasharray: 5.55,2.4; stroke-dashoffset: 0; stroke: #808080; stroke-opacity: 0.5; stroke-width: 1.5"/>
   </g>
   <g id="line2d_71">
    <path d="M 460.874545 219.678109 
L 463.265563 222.933512 
L 465.656581 225.801329 
L 468.047599 227.506388 
L 475.220652 234.947081 
L 477.611669 238.202483 
L 480.002687 241.0703 
L 482.393705 243.162945 
L 484.784722 244.480418 
L 487.17574 245.02272 
L 489.566758 245.177435 
L 494.348793 243.16135 
L 499.130829 239.594922 
L 501.521846 238.586879 
L 503.912864 238.354009 
L 506.303882 238.89631 
L 508.694899 240.213783 
L 511.085917 242.306428 
L 513.476935 244.011487 
L 515.867952 245.32896 
L 518.25897 247.809191 
L 520.649988 251.839766 
L 523.041006 258.583442 
L 525.432023 264.939532 
L 527.823041 269.745279 
L 530.214059 273.000681 
L 532.605076 275.093326 
L 534.996094 277.573557 
L 537.387112 281.216546 
L 539.778129 285.247121 
L 542.169147 287.727351 
L 544.560165 289.819996 
L 546.951183 292.687813 
L 549.3422 294.780458 
L 551.733218 295.32276 
L 556.515253 293.306675 
L 558.906271 293.073804 
L 561.297289 293.22852 
L 563.688306 292.995649 
L 566.079324 291.212435 
L 568.470342 290.591978 
L 570.861359 291.13428 
L 573.252377 290.901409 
L 575.643395 291.056124 
L 578.034413 291.598426 
L 580.42543 290.977969 
L 582.816448 289.969927 
L 587.598483 287.17867 
L 589.989501 286.170628 
L 592.380519 285.937757 
L 594.771536 284.929715 
L 597.162554 283.146501 
L 599.553572 281.750872 
L 601.94459 281.130416 
L 604.335607 284.385819 
L 606.726625 289.191565 
L 609.117643 285.858007 
L 611.50866 279.423762 
L 613.899678 272.60193 
L 616.290696 267.330443 
L 618.681713 263.609299 
L 621.072731 261.050913 
L 623.463749 256.942183 
L 625.854767 252.445867 
L 628.245784 250.275067 
L 630.636802 249.267025 
L 633.02782 248.646568 
L 635.418837 246.863354 
L 637.809855 243.14221 
L 640.200873 237.870723 
L 642.59189 232.986821 
L 644.982908 228.490505 
L 647.373926 225.544533 
L 649.764943 223.373733 
L 652.155961 222.753277 
L 659.329014 223.217423 
L 661.720032 222.984552 
L 664.11105 222.364096 
L 666.502067 221.356053 
L 668.893085 219.185253 
L 671.284103 215.851695 
L 676.066138 208.409407 
L 678.457156 204.300678 
L 680.848174 199.804362 
L 683.239191 194.92046 
L 685.630209 189.261387 
L 688.021227 182.827141 
L 690.412244 176.780482 
L 692.803262 170.346237 
L 695.19428 164.687163 
L 697.585297 159.415676 
L 702.367333 150.423044 
L 704.758351 146.7019 
L 709.540386 140.809956 
L 714.322421 136.468356 
L 716.713439 134.685142 
L 719.104457 133.677099 
L 731.059545 132.512746 
L 733.450563 132.667462 
L 735.841581 133.597349 
L 738.232598 135.302408 
L 740.623616 136.619881 
L 743.014634 138.32494 
L 745.405651 138.479656 
L 747.796669 139.021957 
L 752.578704 138.556216 
L 754.969722 137.548173 
L 757.36074 136.927717 
L 762.142775 134.911632 
L 764.533793 134.291176 
L 769.315828 134.600606 
L 771.706846 135.530494 
L 776.488881 136.615096 
L 778.879899 136.769812 
L 788.44397 135.838329 
L 798.008041 136.457191 
L 800.399058 136.999492 
L 802.790076 137.154207 
L 807.572111 136.688466 
L 814.745165 132.501581 
L 817.136182 131.881125 
L 819.5272 132.423426 
L 821.918218 133.740899 
L 824.309235 136.22113 
L 831.482288 144.824581 
L 838.655342 151.102516 
L 843.437377 154.512634 
L 845.828395 155.054935 
L 848.219412 154.822065 
L 850.61043 153.426436 
L 860.174501 144.743236 
L 862.565518 142.184849 
L 864.956536 140.014049 
L 867.347554 138.618421 
L 867.347554 138.618421 
" clip-path="url(#p7c2e6de8ae)" style="fill: none; stroke: #666666; stroke-width: 1.5; stroke-linecap: square"/>
   </g>
   <g id="line2d_72">
    <path d="M 867.347554 318.04 
L 867.347554 10.8 
" clip-path="url(#p7c2e6de8ae)" style="fill: none; stroke-dasharray: 5.55,2.4; stroke-dashoffset: 0; stroke: #808080; stroke-opacity: 0.5; stroke-width: 1.5"/>
   </g>
   <g id="line2d_73">
    <path d="M 460.874545 219.678109 
L 465.630942 226.188915 
L 468.00914 227.893974 
L 472.765536 232.079264 
L 475.143734 234.559495 
L 477.521932 237.427312 
L 479.90013 239.907542 
L 482.278328 242.000187 
L 484.656526 242.930075 
L 487.034724 243.08479 
L 489.412922 242.851919 
L 491.79112 242.231463 
L 494.169318 240.835835 
L 498.925715 237.269406 
L 501.303913 235.873778 
L 503.682111 235.253321 
L 506.060309 235.020451 
L 508.438507 236.337924 
L 510.816705 238.042983 
L 513.194903 240.523214 
L 515.573101 242.228273 
L 517.951299 245.09609 
L 520.329497 249.901836 
L 525.085893 263.389188 
L 527.464091 269.357693 
L 529.842289 273.775853 
L 532.220487 276.64367 
L 534.598686 279.123901 
L 536.976884 282.379304 
L 539.355082 286.022292 
L 541.73328 289.277695 
L 544.111478 291.37034 
L 548.867874 296.330802 
L 551.246072 297.260689 
L 556.002468 295.244604 
L 558.380666 294.624148 
L 560.758864 295.166449 
L 563.137062 294.545993 
L 565.51526 293.53795 
L 567.893458 292.917494 
L 570.271657 293.072209 
L 572.649855 293.614511 
L 575.028053 294.544398 
L 579.784449 295.629 
L 582.162647 294.233372 
L 584.540845 293.22533 
L 589.297241 290.434073 
L 591.675439 290.201202 
L 596.431835 291.285805 
L 598.810033 291.052934 
L 601.188231 291.20765 
L 603.566429 292.525123 
L 605.944628 296.168112 
L 608.322826 295.547655 
L 610.701024 290.663753 
L 613.079222 283.841922 
L 615.45742 278.570435 
L 617.835618 274.461705 
L 620.213816 272.290905 
L 622.592014 269.344933 
L 624.970212 264.848617 
L 627.34841 259.189543 
L 629.726608 255.855985 
L 632.104806 253.685185 
L 634.483004 251.901971 
L 636.861202 249.731171 
L 639.2394 246.397613 
L 641.617599 243.451641 
L 643.995797 240.893255 
L 646.373995 239.110041 
L 648.752193 238.101998 
L 651.130391 237.481542 
L 653.508589 237.248671 
L 655.886787 237.403387 
L 658.264985 237.945688 
L 663.021381 238.255119 
L 665.399579 238.022248 
L 667.777777 238.176963 
L 670.155975 237.168921 
L 672.534173 235.773293 
L 674.912371 233.602492 
L 677.29057 231.044106 
L 679.668768 227.710548 
L 682.046966 223.989405 
L 684.425164 219.880675 
L 686.803362 214.996773 
L 689.18156 210.500457 
L 691.559758 205.22897 
L 693.937956 200.345068 
L 698.694352 191.352437 
L 703.450748 183.134977 
L 708.207144 176.467861 
L 710.585342 173.521889 
L 715.341739 168.405117 
L 722.476333 159.567201 
L 724.854531 156.233643 
L 727.232729 153.287671 
L 729.610927 149.954113 
L 731.989125 147.008141 
L 734.367323 144.837341 
L 736.745521 143.441712 
L 739.123719 142.43367 
L 743.880115 141.967929 
L 751.01471 140.10656 
L 753.392908 139.873689 
L 760.527502 141.500593 
L 765.283898 143.360367 
L 774.79669 145.529572 
L 784.309483 146.148434 
L 789.065879 145.682693 
L 791.444077 145.837408 
L 793.822275 146.379709 
L 796.200473 148.084769 
L 798.578671 150.177414 
L 800.956869 154.207988 
L 803.335067 158.626149 
L 805.713265 163.431895 
L 810.469661 174.593732 
L 817.604255 193.662002 
L 819.982454 199.630506 
L 822.360652 204.823839 
L 824.73885 208.466828 
L 827.117048 211.334644 
L 829.495246 213.814875 
L 831.873444 215.90752 
L 834.251642 217.224993 
L 839.008038 218.309596 
L 843.764434 218.619027 
L 846.142632 218.386156 
L 848.52083 218.928457 
L 853.277226 217.687544 
L 855.655425 215.90433 
L 858.033623 213.345944 
L 860.411821 210.399972 
L 862.790019 206.291242 
L 865.168217 201.794927 
L 867.546415 197.686197 
L 869.924613 192.802295 
L 872.302811 188.305979 
L 874.681009 183.034492 
L 877.059207 177.375418 
L 879.437405 172.103931 
L 881.815603 167.607615 
L 884.193801 163.886471 
L 886.571999 160.552913 
L 891.328396 155.436141 
L 893.706594 154.040513 
L 898.46299 152.7996 
L 900.841188 152.954315 
L 903.219386 152.721445 
L 905.597584 152.100988 
L 907.975782 150.70536 
L 912.732178 145.588588 
L 922.24497 132.254356 
L 927.001367 127.137584 
L 929.379565 125.354369 
L 931.757763 124.733913 
L 934.135961 123.72587 
L 938.892357 123.260129 
L 938.892357 123.260129 
" clip-path="url(#p7c2e6de8ae)" style="fill: none; stroke: #e41a1c; stroke-width: 1.5; stroke-linecap: square"/>
   </g>
   <g id="line2d_74">
    <path d="M 938.892357 318.04 
L 938.892357 10.8 
" clip-path="url(#p7c2e6de8ae)" style="fill: none; stroke-dasharray: 5.55,2.4; stroke-dashoffset: 0; stroke: #808080; stroke-opacity: 0.5; stroke-width: 1.5"/>
   </g>
   <g id="line2d_75">
    <path d="M 460.874545 219.678109 
L 463.258733 223.321098 
L 465.642921 226.576501 
L 470.411296 229.986619 
L 475.179671 234.171909 
L 477.563858 236.65214 
L 479.948046 238.744785 
L 482.332233 240.449844 
L 484.716421 240.992145 
L 487.100609 241.14686 
L 489.484796 240.526404 
L 494.253171 238.510319 
L 499.021546 235.719062 
L 501.405734 234.71102 
L 503.789921 234.090564 
L 506.174109 234.632865 
L 508.558297 235.562752 
L 510.942484 237.267811 
L 518.095047 243.545746 
L 520.479234 248.351493 
L 525.247609 262.614017 
L 527.631797 269.357693 
L 530.015985 274.163439 
L 532.400172 277.418842 
L 534.78436 279.899073 
L 537.168547 283.154476 
L 539.552735 286.797464 
L 541.936922 290.052867 
L 544.32111 292.145512 
L 546.705297 294.625743 
L 549.089485 297.49356 
L 551.473673 298.423447 
L 556.242048 297.182534 
L 558.626235 296.949663 
L 561.010423 297.491965 
L 563.39461 297.64668 
L 565.778798 296.251052 
L 568.162985 295.243009 
L 570.547173 295.010139 
L 577.699736 296.637043 
L 580.083923 296.404172 
L 582.468111 295.783716 
L 584.852298 294.775673 
L 587.236486 293.380045 
L 589.620673 292.372003 
L 592.004861 292.914304 
L 594.389049 296.169707 
L 596.773236 299.037523 
L 599.157424 301.130168 
L 606.309986 303.91983 
L 608.694174 304.074545 
L 611.078361 300.740988 
L 613.462549 295.081914 
L 615.846737 290.585598 
L 618.230924 288.027212 
L 620.615112 287.406756 
L 622.999299 287.173885 
L 625.383487 285.003085 
L 627.767674 280.894355 
L 630.151862 277.948383 
L 632.536049 276.552755 
L 637.304424 274.53667 
L 639.688612 272.36587 
L 642.0728 269.419898 
L 644.456987 267.249098 
L 649.225362 263.682669 
L 653.993737 261.666584 
L 656.377925 261.433714 
L 658.762112 261.976015 
L 661.1463 262.13073 
L 665.914675 263.215333 
L 668.298863 262.594877 
L 680.2198 261.430524 
L 682.603988 259.64731 
L 684.988176 257.088923 
L 687.372363 253.755365 
L 689.756551 250.034222 
L 692.140738 245.537906 
L 694.524926 241.429176 
L 696.909113 236.545274 
L 699.293301 232.048959 
L 704.061676 222.281155 
L 706.445864 217.78484 
L 708.830051 213.67611 
L 711.214239 209.954966 
L 713.598426 207.008994 
L 720.750989 197.00832 
L 727.903552 184.682131 
L 730.287739 181.736159 
L 732.671927 179.177773 
L 735.056114 177.782144 
L 737.440302 176.774102 
L 742.208677 173.982845 
L 746.977052 170.416417 
L 749.36124 169.408374 
L 751.745427 169.175504 
L 756.513802 169.484935 
L 761.282177 168.244022 
L 770.818928 162.661508 
L 773.203115 162.041052 
L 775.587303 161.033009 
L 777.97149 161.575311 
L 780.355678 162.505198 
L 782.739865 164.210257 
L 789.892428 171.65095 
L 792.276616 174.518767 
L 794.660803 176.998997 
L 797.044991 179.866814 
L 799.429178 183.509803 
L 801.813366 186.765206 
L 806.581741 194.051183 
L 813.734304 206.142907 
L 818.502679 214.979228 
L 820.886866 219.009803 
L 823.271054 223.815549 
L 825.655241 228.23371 
L 828.039429 233.039456 
L 830.423616 237.457617 
L 832.807804 241.100605 
L 835.191992 243.968422 
L 837.576179 245.673481 
L 839.960367 246.603368 
L 854.265492 249.857176 
L 859.033867 249.391435 
L 861.418055 248.383393 
L 866.18643 247.14248 
L 870.954805 245.126395 
L 873.338992 244.505938 
L 875.72318 244.273068 
L 878.107368 244.815369 
L 880.491555 245.745256 
L 882.875743 246.287558 
L 885.25993 247.605031 
L 890.028305 249.464805 
L 894.79668 252.099752 
L 897.180868 253.804811 
L 899.565055 254.734698 
L 901.949243 255.276999 
L 904.333431 255.431714 
L 909.101806 254.190802 
L 911.485993 252.020001 
L 913.870181 249.461615 
L 916.254368 246.515643 
L 918.638556 242.794499 
L 923.406931 233.801868 
L 925.791119 228.53038 
L 930.559494 216.437062 
L 932.943681 210.002816 
L 935.327869 203.956157 
L 937.712056 198.684669 
L 940.096244 194.963525 
L 942.480431 192.792725 
L 944.864619 191.009511 
L 954.401369 185.426998 
L 956.785557 183.256197 
L 959.169744 181.472983 
L 963.938119 179.456898 
L 966.322307 179.611614 
L 968.706495 179.378743 
L 971.090682 178.758287 
L 973.47487 178.525416 
L 975.859057 178.680131 
L 978.243245 179.997605 
L 980.627432 181.702664 
L 983.01162 183.020137 
L 985.395807 183.950024 
L 987.779995 186.042669 
L 990.164183 188.910486 
L 994.932558 196.196463 
L 997.316745 200.227038 
L 999.700933 203.870027 
L 1002.08512 207.125429 
L 1004.469308 208.830488 
L 1006.853495 209.37279 
L 1009.237683 208.752333 
L 1014.006058 208.286592 
L 1016.390246 209.604065 
L 1018.774433 211.69671 
L 1025.926996 216.811887 
L 1028.311183 218.129361 
L 1033.079559 219.989135 
L 1037.847934 220.298566 
L 1040.232121 219.678109 
L 1040.232121 219.678109 
" clip-path="url(#p7c2e6de8ae)" style="fill: none; stroke: #377eb8; stroke-width: 1.5; stroke-linecap: square"/>
   </g>
   <g id="line2d_76">
    <path d="M 1040.232121 318.04 
L 1040.232121 10.8 
" clip-path="url(#p7c2e6de8ae)" style="fill: none; stroke-dasharray: 5.55,2.4; stroke-dashoffset: 0; stroke: #808080; stroke-opacity: 0.5; stroke-width: 1.5"/>
   </g>
   <g id="patch_8">
    <path d="M 431.906667 318.04 
L 431.906667 10.8 
" style="fill: none; stroke: #000000; stroke-width: 0.8; stroke-linejoin: miter; stroke-linecap: square"/>
   </g>
   <g id="patch_9">
    <path d="M 1069.2 318.04 
L 1069.2 10.8 
" style="fill: none; stroke: #000000; stroke-width: 0.8; stroke-linejoin: miter; stroke-linecap: square"/>
   </g>
   <g id="patch_10">
    <path d="M 431.906667 318.04 
L 1069.2 318.04 
" style="fill: none; stroke: #000000; stroke-width: 0.8; stroke-linejoin: miter; stroke-linecap: square"/>
   </g>
   <g id="patch_11">
    <path d="M 431.906667 10.8 
L 1069.2 10.8 
" style="fill: none; stroke: #000000; stroke-width: 0.8; stroke-linejoin: miter; stroke-linecap: square"/>
   </g>
   <g id="text_44">
    <!-- 1 -->
    <g transform="translate(498.566285 182.155645) scale(0.1 -0.1)">
     <use xlink:href="#DejaVuSans-31"/>
    </g>
   </g>
   <g id="text_45">
    <!-- 2 -->
    <g transform="translate(536.585932 204.552688) scale(0.1 -0.1)">
     <use xlink:href="#DejaVuSans-32"/>
    </g>
   </g>
   <g id="text_46">
    <!-- 3 -->
    <g transform="translate(612.622249 172.682917) scale(0.1 -0.1)">
     <use xlink:href="#DejaVuSans-33"/>
    </g>
   </g>
   <g id="text_47">
    <!-- 4 -->
    <g transform="translate(658.716705 124.461167) scale(0.1 -0.1)">
     <use xlink:href="#DejaVuSans-34"/>
    </g>
   </g>
   <g id="text_48">
    <!-- 5 -->
    <g transform="translate(721.412142 20.889595) scale(0.1 -0.1)">
     <use xlink:href="#DejaVuSans-35"/>
    </g>
   </g>
   <g id="text_49">
    <!-- 6 -->
    <g transform="translate(759.737826 25.302971) scale(0.1 -0.1)">
     <use xlink:href="#DejaVuSans-36"/>
    </g>
   </g>
   <g id="text_50">
    <!-- 7 -->
    <g transform="translate(869.712878 70.790884) scale(0.1 -0.1)">
     <use xlink:href="#DejaVuSans-37"/>
    </g>
   </g>
   <g id="text_51">
    <!-- 8 -->
    <g transform="translate(941.257681 55.432593) scale(0.1 -0.1)">
     <use xlink:href="#DejaVuSans-38"/>
    </g>
   </g>
   <g id="text_52">
    <!-- 9 -->
    <g transform="translate(1042.597446 151.850573) scale(0.1 -0.1)">
     <use xlink:href="#DejaVuSans-39"/>
    </g>
   </g>
   <g id="legend_1">
    <g id="patch_12">
     <path d="M 438.906667 62.834375 
L 585.994167 62.834375 
Q 587.994167 62.834375 587.994167 60.834375 
L 587.994167 17.8 
Q 587.994167 15.8 585.994167 15.8 
L 438.906667 15.8 
Q 436.906667 15.8 436.906667 17.8 
L 436.906667 60.834375 
Q 436.906667 62.834375 438.906667 62.834375 
z
" style="fill: #ffffff; opacity: 0.8; stroke: #cccccc; stroke-linejoin: miter"/>
    </g>
    <g id="line2d_77">
     <path d="M 440.906667 23.898438 
L 450.906667 23.898438 
L 460.906667 23.898438 
" style="fill: none; stroke: #d95f02; stroke-width: 1.5; stroke-linecap: square"/>
    </g>
    <g id="text_53">
     <!-- 1 -->
     <g transform="translate(468.906667 27.398438) scale(0.1 -0.1)">
      <use xlink:href="#DejaVuSans-31"/>
     </g>
    </g>
    <g id="line2d_78">
     <path d="M 440.906667 38.576563 
L 450.906667 38.576563 
L 460.906667 38.576563 
" style="fill: none; stroke: #7570b3; stroke-width: 1.5; stroke-linecap: square"/>
    </g>
    <g id="text_54">
     <!-- 2 -->
     <g transform="translate(468.906667 42.076563) scale(0.1 -0.1)">
      <use xlink:href="#DejaVuSans-32"/>
     </g>
    </g>
    <g id="line2d_79">
     <path d="M 440.906667 53.254687 
L 450.906667 53.254687 
L 460.906667 53.254687 
" style="fill: none; stroke: #e7298a; stroke-width: 1.5; stroke-linecap: square"/>
    </g>
    <g id="text_55">
     <!-- 3 -->
     <g transform="translate(468.906667 56.754687) scale(0.1 -0.1)">
      <use xlink:href="#DejaVuSans-33"/>
     </g>
    </g>
    <g id="line2d_80">
     <path d="M 495.269167 23.898438 
L 505.269167 23.898438 
L 515.269167 23.898438 
" style="fill: none; stroke: #66a61e; stroke-width: 1.5; stroke-linecap: square"/>
    </g>
    <g id="text_56">
     <!-- 4 -->
     <g transform="translate(523.269167 27.398438) scale(0.1 -0.1)">
      <use xlink:href="#DejaVuSans-34"/>
     </g>
    </g>
    <g id="line2d_81">
     <path d="M 495.269167 38.576563 
L 505.269167 38.576563 
L 515.269167 38.576563 
" style="fill: none; stroke: #e6ab02; stroke-width: 1.5; stroke-linecap: square"/>
    </g>
    <g id="text_57">
     <!-- 5 -->
     <g transform="translate(523.269167 42.076563) scale(0.1 -0.1)">
      <use xlink:href="#DejaVuSans-35"/>
     </g>
    </g>
    <g id="line2d_82">
     <path d="M 495.269167 53.254687 
L 505.269167 53.254687 
L 515.269167 53.254687 
" style="fill: none; stroke: #a6761d; stroke-width: 1.5; stroke-linecap: square"/>
    </g>
    <g id="text_58">
     <!-- 6 -->
     <g transform="translate(523.269167 56.754687) scale(0.1 -0.1)">
      <use xlink:href="#DejaVuSans-36"/>
     </g>
    </g>
    <g id="line2d_83">
     <path d="M 549.631667 23.898438 
L 559.631667 23.898438 
L 569.631667 23.898438 
" style="fill: none; stroke: #666666; stroke-width: 1.5; stroke-linecap: square"/>
    </g>
    <g id="text_59">
     <!-- 7 -->
     <g transform="translate(577.631667 27.398438) scale(0.1 -0.1)">
      <use xlink:href="#DejaVuSans-37"/>
     </g>
    </g>
    <g id="line2d_84">
     <path d="M 549.631667 38.576563 
L 559.631667 38.576563 
L 569.631667 38.576563 
" style="fill: none; stroke: #e41a1c; stroke-width: 1.5; stroke-linecap: square"/>
    </g>
    <g id="text_60">
     <!-- 8 -->
     <g transform="translate(577.631667 42.076563) scale(0.1 -0.1)">
      <use xlink:href="#DejaVuSans-38"/>
     </g>
    </g>
    <g id="line2d_85">
     <path d="M 549.631667 53.254687 
L 559.631667 53.254687 
L 569.631667 53.254687 
" style="fill: none; stroke: #377eb8; stroke-width: 1.5; stroke-linecap: square"/>
    </g>
    <g id="text_61">
     <!-- 9 -->
     <g transform="translate(577.631667 56.754687) scale(0.1 -0.1)">
      <use xlink:href="#DejaVuSans-39"/>
     </g>
    </g>
   </g>
  </g>
 </g>
 <defs>
  <clipPath id="pdf1fb1daa3">
   <rect x="66.62" y="10.8" width="318.646667" height="307.24"/>
  </clipPath>
  <clipPath id="p7c2e6de8ae">
   <rect x="431.906667" y="10.8" width="637.293333" height="307.24"/>
  </clipPath>
 </defs>
</svg>
