<?xml version="1.0" encoding="utf-8" standalone="no"?>
<!DOCTYPE svg PUBLIC "-//W3C//DTD SVG 1.1//EN"
  "http://www.w3.org/Graphics/SVG/1.1/DTD/svg11.dtd">
<svg xmlns:xlink="http://www.w3.org/1999/xlink" width="648pt" height="216pt" viewBox="0 0 648 216" xmlns="http://www.w3.org/2000/svg" version="1.1">
 <metadata>
  <rdf:RDF xmlns:dc="http://purl.org/dc/elements/1.1/" xmlns:cc="http://creativecommons.org/ns#" xmlns:rdf="http://www.w3.org/1999/02/22-rdf-syntax-ns#">
   <cc:Work>
    <dc:type rdf:resource="http://purl.org/dc/dcmitype/StillImage"/>
    <dc:date>2024-05-05T16:09:35.181838</dc:date>
    <dc:format>image/svg+xml</dc:format>
    <dc:creator>
     <cc:Agent>
      <dc:title>Matplotlib v3.8.4, https://matplotlib.org/</dc:title>
     </cc:Agent>
    </dc:creator>
   </cc:Work>
  </rdf:RDF>
 </metadata>
 <defs>
  <style type="text/css">*{stroke-linejoin: round; stroke-linecap: butt}</style>
 </defs>
 <g id="figure_1">
  <g id="patch_1">
   <path d="M 0 216 
L 648 216 
L 648 0 
L 0 0 
z
" style="fill: #ffffff"/>
  </g>
  <g id="axes_1">
   <g id="patch_2">
    <path d="M 66.62 174.04 
L 235.969285 174.04 
L 235.969285 13.293044 
L 66.62 13.293044 
z
" style="fill: #ffffff"/>
   </g>
   <g id="PathCollection_1">
    <defs>
     <path id="m3a552bbe97" d="M 0 3 
C 0.795609 3 1.55874 2.683901 2.12132 2.12132 
C 2.683901 1.55874 3 0.795609 3 0 
C 3 -0.795609 2.683901 -1.55874 2.12132 -2.12132 
C 1.55874 -2.683901 0.795609 -3 0 -3 
C -0.795609 -3 -1.55874 -2.683901 -2.12132 -2.12132 
C -2.683901 -1.55874 -3 -0.795609 -3 0 
C -3 0.795609 -2.683901 1.55874 -2.12132 2.12132 
C -1.55874 2.683901 -0.795609 3 0 3 
z
" style="stroke: #1b9e77"/>
    </defs>
    <g clip-path="url(#p542ded54e8)">
     <use xlink:href="#m3a552bbe97" x="74.317695" y="166.73332" style="fill: #1b9e77; stroke: #1b9e77"/>
    </g>
   </g>
   <g id="PathCollection_2">
    <defs>
     <path id="m15e9ceb8e4" d="M 0 3 
C 0.795609 3 1.55874 2.683901 2.12132 2.12132 
C 2.683901 1.55874 3 0.795609 3 0 
C 3 -0.795609 2.683901 -1.55874 2.12132 -2.12132 
C 1.55874 -2.683901 0.795609 -3 0 -3 
C -0.795609 -3 -1.55874 -2.683901 -2.12132 -2.12132 
C -2.683901 -1.55874 -3 -0.795609 -3 0 
C -3 0.795609 -2.683901 1.55874 -2.12132 2.12132 
C -1.55874 2.683901 -0.795609 3 0 3 
z
" style="stroke: #d95f02"/>
    </defs>
    <g clip-path="url(#p542ded54e8)">
     <use xlink:href="#m15e9ceb8e4" x="82.595612" y="153.756721" style="fill: #d95f02; stroke: #d95f02"/>
    </g>
   </g>
   <g id="PathCollection_3">
    <defs>
     <path id="m6c852449c0" d="M 0 3 
C 0.795609 3 1.55874 2.683901 2.12132 2.12132 
C 2.683901 1.55874 3 0.795609 3 0 
C 3 -0.795609 2.683901 -1.55874 2.12132 -2.12132 
C 1.55874 -2.683901 0.795609 -3 0 -3 
C -0.795609 -3 -1.55874 -2.683901 -2.12132 -2.12132 
C -2.683901 -1.55874 -3 -0.795609 -3 0 
C -3 0.795609 -2.683901 1.55874 -2.12132 2.12132 
C -1.55874 2.683901 -0.795609 3 0 3 
z
" style="stroke: #7570b3"/>
    </defs>
    <g clip-path="url(#p542ded54e8)">
     <use xlink:href="#m6c852449c0" x="90.994295" y="139.09797" style="fill: #7570b3; stroke: #7570b3"/>
    </g>
   </g>
   <g id="PathCollection_4">
    <defs>
     <path id="m7374daef39" d="M 0 3 
C 0.795609 3 1.55874 2.683901 2.12132 2.12132 
C 2.683901 1.55874 3 0.795609 3 0 
C 3 -0.795609 2.683901 -1.55874 2.12132 -2.12132 
C 1.55874 -2.683901 0.795609 -3 0 -3 
C -0.795609 -3 -1.55874 -2.683901 -2.12132 -2.12132 
C -2.683901 -1.55874 -3 -0.795609 -3 0 
C -3 0.795609 -2.683901 1.55874 -2.12132 2.12132 
C -1.55874 2.683901 -0.795609 3 0 3 
z
" style="stroke: #e7298a"/>
    </defs>
    <g clip-path="url(#p542ded54e8)">
     <use xlink:href="#m7374daef39" x="109.405525" y="110.768398" style="fill: #e7298a; stroke: #e7298a"/>
    </g>
   </g>
   <g id="PathCollection_5">
    <defs>
     <path id="m296e111f1b" d="M 0 3 
C 0.795609 3 1.55874 2.683901 2.12132 2.12132 
C 2.683901 1.55874 3 0.795609 3 0 
C 3 -0.795609 2.683901 -1.55874 2.12132 -2.12132 
C 1.55874 -2.683901 0.795609 -3 0 -3 
C -0.795609 -3 -1.55874 -2.683901 -2.12132 -2.12132 
C -2.683901 -1.55874 -3 -0.795609 -3 0 
C -3 0.795609 -2.683901 1.55874 -2.12132 2.12132 
C -1.55874 2.683901 -0.795609 3 0 3 
z
" style="stroke: #66a61e"/>
    </defs>
    <g clip-path="url(#p542ded54e8)">
     <use xlink:href="#m296e111f1b" x="118.440971" y="97.765098" style="fill: #66a61e; stroke: #66a61e"/>
    </g>
   </g>
   <g id="PathCollection_6">
    <defs>
     <path id="m6dcf46eb72" d="M 0 3 
C 0.795609 3 1.55874 2.683901 2.12132 2.12132 
C 2.683901 1.55874 3 0.795609 3 0 
C 3 -0.795609 2.683901 -1.55874 2.12132 -2.12132 
C 1.55874 -2.683901 0.795609 -3 0 -3 
C -0.795609 -3 -1.55874 -2.683901 -2.12132 -2.12132 
C -2.683901 -1.55874 -3 -0.795609 -3 0 
C -3 0.795609 -2.683901 1.55874 -2.12132 2.12132 
C -1.55874 2.683901 -0.795609 3 0 3 
z
" style="stroke: #e6ab02"/>
    </defs>
    <g clip-path="url(#p542ded54e8)">
     <use xlink:href="#m6dcf46eb72" x="136.588713" y="71.598293" style="fill: #e6ab02; stroke: #e6ab02"/>
    </g>
   </g>
   <g id="PathCollection_7">
    <defs>
     <path id="m50b1fcf63a" d="M 0 3 
C 0.795609 3 1.55874 2.683901 2.12132 2.12132 
C 2.683901 1.55874 3 0.795609 3 0 
C 3 -0.795609 2.683901 -1.55874 2.12132 -2.12132 
C 1.55874 -2.683901 0.795609 -3 0 -3 
C -0.795609 -3 -1.55874 -2.683901 -2.12132 -2.12132 
C -2.683901 -1.55874 -3 -0.795609 -3 0 
C -3 0.795609 -2.683901 1.55874 -2.12132 2.12132 
C -1.55874 2.683901 -0.795609 3 0 3 
z
" style="stroke: #a6761d"/>
    </defs>
    <g clip-path="url(#p542ded54e8)">
     <use xlink:href="#m50b1fcf63a" x="149.17027" y="53.361632" style="fill: #a6761d; stroke: #a6761d"/>
    </g>
   </g>
   <g id="PathCollection_8">
    <defs>
     <path id="mc89c5cc1bf" d="M 0 3 
C 0.795609 3 1.55874 2.683901 2.12132 2.12132 
C 2.683901 1.55874 3 0.795609 3 0 
C 3 -0.795609 2.683901 -1.55874 2.12132 -2.12132 
C 1.55874 -2.683901 0.795609 -3 0 -3 
C -0.795609 -3 -1.55874 -2.683901 -2.12132 -2.12132 
C -2.683901 -1.55874 -3 -0.795609 -3 0 
C -3 0.795609 -2.683901 1.55874 -2.12132 2.12132 
C -1.55874 2.683901 -0.795609 3 0 3 
z
" style="stroke: #666666"/>
    </defs>
    <g clip-path="url(#p542ded54e8)">
     <use xlink:href="#mc89c5cc1bf" x="164.167134" y="42.280791" style="fill: #666666; stroke: #666666"/>
    </g>
   </g>
   <g id="PathCollection_9">
    <defs>
     <path id="m5f734d30eb" d="M 0 3 
C 0.795609 3 1.55874 2.683901 2.12132 2.12132 
C 2.683901 1.55874 3 0.795609 3 0 
C 3 -0.795609 2.683901 -1.55874 2.12132 -2.12132 
C 1.55874 -2.683901 0.795609 -3 0 -3 
C -0.795609 -3 -1.55874 -2.683901 -2.12132 -2.12132 
C -2.683901 -1.55874 -3 -0.795609 -3 0 
C -3 0.795609 -2.683901 1.55874 -2.12132 2.12132 
C -1.55874 2.683901 -0.795609 3 0 3 
z
" style="stroke: #e41a1c"/>
    </defs>
    <g clip-path="url(#p542ded54e8)">
     <use xlink:href="#m5f734d30eb" x="181.831814" y="36.006098" style="fill: #e41a1c; stroke: #e41a1c"/>
    </g>
   </g>
   <g id="PathCollection_10">
    <defs>
     <path id="m37e3d36dbb" d="M 0 3 
C 0.795609 3 1.55874 2.683901 2.12132 2.12132 
C 2.683901 1.55874 3 0.795609 3 0 
C 3 -0.795609 2.683901 -1.55874 2.12132 -2.12132 
C 1.55874 -2.683901 0.795609 -3 0 -3 
C -0.795609 -3 -1.55874 -2.683901 -2.12132 -2.12132 
C -2.683901 -1.55874 -3 -0.795609 -3 0 
C -3 0.795609 -2.683901 1.55874 -2.12132 2.12132 
C -1.55874 2.683901 -0.795609 3 0 3 
z
" style="stroke: #377eb8"/>
    </defs>
    <g clip-path="url(#p542ded54e8)">
     <use xlink:href="#m37e3d36dbb" x="201.670272" y="30.479028" style="fill: #377eb8; stroke: #377eb8"/>
    </g>
   </g>
   <g id="PathCollection_11">
    <defs>
     <path id="m1e343f655e" d="M 0 3 
C 0.795609 3 1.55874 2.683901 2.12132 2.12132 
C 2.683901 1.55874 3 0.795609 3 0 
C 3 -0.795609 2.683901 -1.55874 2.12132 -2.12132 
C 1.55874 -2.683901 0.795609 -3 0 -3 
C -0.795609 -3 -1.55874 -2.683901 -2.12132 -2.12132 
C -2.683901 -1.55874 -3 -0.795609 -3 0 
C -3 0.795609 -2.683901 1.55874 -2.12132 2.12132 
C -1.55874 2.683901 -0.795609 3 0 3 
z
" style="stroke: #4daf4a"/>
    </defs>
    <g clip-path="url(#p542ded54e8)">
     <use xlink:href="#m1e343f655e" x="224.901138" y="22.335277" style="fill: #4daf4a; stroke: #4daf4a"/>
    </g>
   </g>
   <g id="PathCollection_12">
    <defs>
     <path id="maaa877eb3a" d="M 0 3 
C 0.795609 3 1.55874 2.683901 2.12132 2.12132 
C 2.683901 1.55874 3 0.795609 3 0 
C 3 -0.795609 2.683901 -1.55874 2.12132 -2.12132 
C 1.55874 -2.683901 0.795609 -3 0 -3 
C -0.795609 -3 -1.55874 -2.683901 -2.12132 -2.12132 
C -2.683901 -1.55874 -3 -0.795609 -3 0 
C -3 0.795609 -2.683901 1.55874 -2.12132 2.12132 
C -1.55874 2.683901 -0.795609 3 0 3 
z
" style="stroke: #984ea3"/>
    </defs>
    <g clip-path="url(#p542ded54e8)">
     <use xlink:href="#maaa877eb3a" x="228.27159" y="20.599724" style="fill: #984ea3; stroke: #984ea3"/>
    </g>
   </g>
   <g id="matplotlib.axis_1">
    <g id="xtick_1">
     <g id="line2d_1">
      <path d="M 119.374158 174.04 
L 119.374158 13.293044 
" clip-path="url(#p542ded54e8)" style="fill: none; stroke: #b0b0b0; stroke-width: 0.8; stroke-linecap: square"/>
     </g>
     <g id="line2d_2">
      <defs>
       <path id="m68255050bb" d="M 0 0 
L 0 3.5 
" style="stroke: #000000; stroke-width: 0.8"/>
      </defs>
      <g>
       <use xlink:href="#m68255050bb" x="119.374158" y="174.04" style="stroke: #000000; stroke-width: 0.8"/>
      </g>
     </g>
     <g id="text_1">
      <!-- 14.535 -->
      <g transform="translate(101.878846 188.638438) scale(0.1 -0.1)">
       <defs>
        <path id="DejaVuSans-31" d="M 794 531 
L 1825 531 
L 1825 4091 
L 703 3866 
L 703 4441 
L 1819 4666 
L 2450 4666 
L 2450 531 
L 3481 531 
L 3481 0 
L 794 0 
L 794 531 
z
" transform="scale(0.015625)"/>
        <path id="DejaVuSans-34" d="M 2419 4116 
L 825 1625 
L 2419 1625 
L 2419 4116 
z
M 2253 4666 
L 3047 4666 
L 3047 1625 
L 3713 1625 
L 3713 1100 
L 3047 1100 
L 3047 0 
L 2419 0 
L 2419 1100 
L 313 1100 
L 313 1709 
L 2253 4666 
z
" transform="scale(0.015625)"/>
        <path id="DejaVuSans-2e" d="M 684 794 
L 1344 794 
L 1344 0 
L 684 0 
L 684 794 
z
" transform="scale(0.015625)"/>
        <path id="DejaVuSans-35" d="M 691 4666 
L 3169 4666 
L 3169 4134 
L 1269 4134 
L 1269 2991 
Q 1406 3038 1543 3061 
Q 1681 3084 1819 3084 
Q 2600 3084 3056 2656 
Q 3513 2228 3513 1497 
Q 3513 744 3044 326 
Q 2575 -91 1722 -91 
Q 1428 -91 1123 -41 
Q 819 9 494 109 
L 494 744 
Q 775 591 1075 516 
Q 1375 441 1709 441 
Q 2250 441 2565 725 
Q 2881 1009 2881 1497 
Q 2881 1984 2565 2268 
Q 2250 2553 1709 2553 
Q 1456 2553 1204 2497 
Q 953 2441 691 2322 
L 691 4666 
z
" transform="scale(0.015625)"/>
        <path id="DejaVuSans-33" d="M 2597 2516 
Q 3050 2419 3304 2112 
Q 3559 1806 3559 1356 
Q 3559 666 3084 287 
Q 2609 -91 1734 -91 
Q 1441 -91 1130 -33 
Q 819 25 488 141 
L 488 750 
Q 750 597 1062 519 
Q 1375 441 1716 441 
Q 2309 441 2620 675 
Q 2931 909 2931 1356 
Q 2931 1769 2642 2001 
Q 2353 2234 1838 2234 
L 1294 2234 
L 1294 2753 
L 1863 2753 
Q 2328 2753 2575 2939 
Q 2822 3125 2822 3475 
Q 2822 3834 2567 4026 
Q 2313 4219 1838 4219 
Q 1578 4219 1281 4162 
Q 984 4106 628 3988 
L 628 4550 
Q 988 4650 1302 4700 
Q 1616 4750 1894 4750 
Q 2613 4750 3031 4423 
Q 3450 4097 3450 3541 
Q 3450 3153 3228 2886 
Q 3006 2619 2597 2516 
z
" transform="scale(0.015625)"/>
       </defs>
       <use xlink:href="#DejaVuSans-31"/>
       <use xlink:href="#DejaVuSans-34" x="63.623047"/>
       <use xlink:href="#DejaVuSans-2e" x="127.246094"/>
       <use xlink:href="#DejaVuSans-35" x="159.033203"/>
       <use xlink:href="#DejaVuSans-33" x="222.65625"/>
       <use xlink:href="#DejaVuSans-35" x="286.279297"/>
      </g>
     </g>
    </g>
    <g id="xtick_2">
     <g id="line2d_3">
      <path d="M 174.26751 174.04 
L 174.26751 13.293044 
" clip-path="url(#p542ded54e8)" style="fill: none; stroke: #b0b0b0; stroke-width: 0.8; stroke-linecap: square"/>
     </g>
     <g id="line2d_4">
      <g>
       <use xlink:href="#m68255050bb" x="174.26751" y="174.04" style="stroke: #000000; stroke-width: 0.8"/>
      </g>
     </g>
     <g id="text_2">
      <!-- 14.540 -->
      <g transform="translate(156.772198 188.638438) scale(0.1 -0.1)">
       <defs>
        <path id="DejaVuSans-30" d="M 2034 4250 
Q 1547 4250 1301 3770 
Q 1056 3291 1056 2328 
Q 1056 1369 1301 889 
Q 1547 409 2034 409 
Q 2525 409 2770 889 
Q 3016 1369 3016 2328 
Q 3016 3291 2770 3770 
Q 2525 4250 2034 4250 
z
M 2034 4750 
Q 2819 4750 3233 4129 
Q 3647 3509 3647 2328 
Q 3647 1150 3233 529 
Q 2819 -91 2034 -91 
Q 1250 -91 836 529 
Q 422 1150 422 2328 
Q 422 3509 836 4129 
Q 1250 4750 2034 4750 
z
" transform="scale(0.015625)"/>
       </defs>
       <use xlink:href="#DejaVuSans-31"/>
       <use xlink:href="#DejaVuSans-34" x="63.623047"/>
       <use xlink:href="#DejaVuSans-2e" x="127.246094"/>
       <use xlink:href="#DejaVuSans-35" x="159.033203"/>
       <use xlink:href="#DejaVuSans-34" x="222.65625"/>
       <use xlink:href="#DejaVuSans-30" x="286.279297"/>
      </g>
     </g>
    </g>
    <g id="xtick_3">
     <g id="line2d_5">
      <path d="M 229.160863 174.04 
L 229.160863 13.293044 
" clip-path="url(#p542ded54e8)" style="fill: none; stroke: #b0b0b0; stroke-width: 0.8; stroke-linecap: square"/>
     </g>
     <g id="line2d_6">
      <g>
       <use xlink:href="#m68255050bb" x="229.160863" y="174.04" style="stroke: #000000; stroke-width: 0.8"/>
      </g>
     </g>
     <g id="text_3">
      <!-- 14.545 -->
      <g transform="translate(211.66555 188.638438) scale(0.1 -0.1)">
       <use xlink:href="#DejaVuSans-31"/>
       <use xlink:href="#DejaVuSans-34" x="63.623047"/>
       <use xlink:href="#DejaVuSans-2e" x="127.246094"/>
       <use xlink:href="#DejaVuSans-35" x="159.033203"/>
       <use xlink:href="#DejaVuSans-34" x="222.65625"/>
       <use xlink:href="#DejaVuSans-35" x="286.279297"/>
      </g>
     </g>
    </g>
    <g id="text_4">
     <!-- Longitude [°] -->
     <g transform="translate(118.434486 202.316563) scale(0.1 -0.1)">
      <defs>
       <path id="DejaVuSans-4c" d="M 628 4666 
L 1259 4666 
L 1259 531 
L 3531 531 
L 3531 0 
L 628 0 
L 628 4666 
z
" transform="scale(0.015625)"/>
       <path id="DejaVuSans-6f" d="M 1959 3097 
Q 1497 3097 1228 2736 
Q 959 2375 959 1747 
Q 959 1119 1226 758 
Q 1494 397 1959 397 
Q 2419 397 2687 759 
Q 2956 1122 2956 1747 
Q 2956 2369 2687 2733 
Q 2419 3097 1959 3097 
z
M 1959 3584 
Q 2709 3584 3137 3096 
Q 3566 2609 3566 1747 
Q 3566 888 3137 398 
Q 2709 -91 1959 -91 
Q 1206 -91 779 398 
Q 353 888 353 1747 
Q 353 2609 779 3096 
Q 1206 3584 1959 3584 
z
" transform="scale(0.015625)"/>
       <path id="DejaVuSans-6e" d="M 3513 2113 
L 3513 0 
L 2938 0 
L 2938 2094 
Q 2938 2591 2744 2837 
Q 2550 3084 2163 3084 
Q 1697 3084 1428 2787 
Q 1159 2491 1159 1978 
L 1159 0 
L 581 0 
L 581 3500 
L 1159 3500 
L 1159 2956 
Q 1366 3272 1645 3428 
Q 1925 3584 2291 3584 
Q 2894 3584 3203 3211 
Q 3513 2838 3513 2113 
z
" transform="scale(0.015625)"/>
       <path id="DejaVuSans-67" d="M 2906 1791 
Q 2906 2416 2648 2759 
Q 2391 3103 1925 3103 
Q 1463 3103 1205 2759 
Q 947 2416 947 1791 
Q 947 1169 1205 825 
Q 1463 481 1925 481 
Q 2391 481 2648 825 
Q 2906 1169 2906 1791 
z
M 3481 434 
Q 3481 -459 3084 -895 
Q 2688 -1331 1869 -1331 
Q 1566 -1331 1297 -1286 
Q 1028 -1241 775 -1147 
L 775 -588 
Q 1028 -725 1275 -790 
Q 1522 -856 1778 -856 
Q 2344 -856 2625 -561 
Q 2906 -266 2906 331 
L 2906 616 
Q 2728 306 2450 153 
Q 2172 0 1784 0 
Q 1141 0 747 490 
Q 353 981 353 1791 
Q 353 2603 747 3093 
Q 1141 3584 1784 3584 
Q 2172 3584 2450 3431 
Q 2728 3278 2906 2969 
L 2906 3500 
L 3481 3500 
L 3481 434 
z
" transform="scale(0.015625)"/>
       <path id="DejaVuSans-69" d="M 603 3500 
L 1178 3500 
L 1178 0 
L 603 0 
L 603 3500 
z
M 603 4863 
L 1178 4863 
L 1178 4134 
L 603 4134 
L 603 4863 
z
" transform="scale(0.015625)"/>
       <path id="DejaVuSans-74" d="M 1172 4494 
L 1172 3500 
L 2356 3500 
L 2356 3053 
L 1172 3053 
L 1172 1153 
Q 1172 725 1289 603 
Q 1406 481 1766 481 
L 2356 481 
L 2356 0 
L 1766 0 
Q 1100 0 847 248 
Q 594 497 594 1153 
L 594 3053 
L 172 3053 
L 172 3500 
L 594 3500 
L 594 4494 
L 1172 4494 
z
" transform="scale(0.015625)"/>
       <path id="DejaVuSans-75" d="M 544 1381 
L 544 3500 
L 1119 3500 
L 1119 1403 
Q 1119 906 1312 657 
Q 1506 409 1894 409 
Q 2359 409 2629 706 
Q 2900 1003 2900 1516 
L 2900 3500 
L 3475 3500 
L 3475 0 
L 2900 0 
L 2900 538 
Q 2691 219 2414 64 
Q 2138 -91 1772 -91 
Q 1169 -91 856 284 
Q 544 659 544 1381 
z
M 1991 3584 
L 1991 3584 
z
" transform="scale(0.015625)"/>
       <path id="DejaVuSans-64" d="M 2906 2969 
L 2906 4863 
L 3481 4863 
L 3481 0 
L 2906 0 
L 2906 525 
Q 2725 213 2448 61 
Q 2172 -91 1784 -91 
Q 1150 -91 751 415 
Q 353 922 353 1747 
Q 353 2572 751 3078 
Q 1150 3584 1784 3584 
Q 2172 3584 2448 3432 
Q 2725 3281 2906 2969 
z
M 947 1747 
Q 947 1113 1208 752 
Q 1469 391 1925 391 
Q 2381 391 2643 752 
Q 2906 1113 2906 1747 
Q 2906 2381 2643 2742 
Q 2381 3103 1925 3103 
Q 1469 3103 1208 2742 
Q 947 2381 947 1747 
z
" transform="scale(0.015625)"/>
       <path id="DejaVuSans-65" d="M 3597 1894 
L 3597 1613 
L 953 1613 
Q 991 1019 1311 708 
Q 1631 397 2203 397 
Q 2534 397 2845 478 
Q 3156 559 3463 722 
L 3463 178 
Q 3153 47 2828 -22 
Q 2503 -91 2169 -91 
Q 1331 -91 842 396 
Q 353 884 353 1716 
Q 353 2575 817 3079 
Q 1281 3584 2069 3584 
Q 2775 3584 3186 3129 
Q 3597 2675 3597 1894 
z
M 3022 2063 
Q 3016 2534 2758 2815 
Q 2500 3097 2075 3097 
Q 1594 3097 1305 2825 
Q 1016 2553 972 2059 
L 3022 2063 
z
" transform="scale(0.015625)"/>
       <path id="DejaVuSans-20" transform="scale(0.015625)"/>
       <path id="DejaVuSans-5b" d="M 550 4863 
L 1875 4863 
L 1875 4416 
L 1125 4416 
L 1125 -397 
L 1875 -397 
L 1875 -844 
L 550 -844 
L 550 4863 
z
" transform="scale(0.015625)"/>
       <path id="DejaVuSans-b0" d="M 1600 4347 
Q 1350 4347 1178 4173 
Q 1006 4000 1006 3750 
Q 1006 3503 1178 3333 
Q 1350 3163 1600 3163 
Q 1850 3163 2022 3333 
Q 2194 3503 2194 3750 
Q 2194 3997 2020 4172 
Q 1847 4347 1600 4347 
z
M 1600 4750 
Q 1800 4750 1984 4673 
Q 2169 4597 2303 4453 
Q 2447 4313 2519 4134 
Q 2591 3956 2591 3750 
Q 2591 3338 2302 3052 
Q 2013 2766 1594 2766 
Q 1172 2766 890 3047 
Q 609 3328 609 3750 
Q 609 4169 896 4459 
Q 1184 4750 1600 4750 
z
" transform="scale(0.015625)"/>
       <path id="DejaVuSans-5d" d="M 1947 4863 
L 1947 -844 
L 622 -844 
L 622 -397 
L 1369 -397 
L 1369 4416 
L 622 4416 
L 622 4863 
L 1947 4863 
z
" transform="scale(0.015625)"/>
      </defs>
      <use xlink:href="#DejaVuSans-4c"/>
      <use xlink:href="#DejaVuSans-6f" x="53.962891"/>
      <use xlink:href="#DejaVuSans-6e" x="115.144531"/>
      <use xlink:href="#DejaVuSans-67" x="178.523438"/>
      <use xlink:href="#DejaVuSans-69" x="242"/>
      <use xlink:href="#DejaVuSans-74" x="269.783203"/>
      <use xlink:href="#DejaVuSans-75" x="308.992188"/>
      <use xlink:href="#DejaVuSans-64" x="372.371094"/>
      <use xlink:href="#DejaVuSans-65" x="435.847656"/>
      <use xlink:href="#DejaVuSans-20" x="497.371094"/>
      <use xlink:href="#DejaVuSans-5b" x="529.158203"/>
      <use xlink:href="#DejaVuSans-b0" x="568.171875"/>
      <use xlink:href="#DejaVuSans-5d" x="618.171875"/>
     </g>
    </g>
   </g>
   <g id="matplotlib.axis_2">
    <g id="ytick_1">
     <g id="line2d_7">
      <path d="M 66.62 172.100185 
L 235.969285 172.100185 
" clip-path="url(#p542ded54e8)" style="fill: none; stroke: #b0b0b0; stroke-width: 0.8; stroke-linecap: square"/>
     </g>
     <g id="line2d_8">
      <defs>
       <path id="m2f0d4f9e62" d="M 0 0 
L -3.5 0 
" style="stroke: #000000; stroke-width: 0.8"/>
      </defs>
      <g>
       <use xlink:href="#m2f0d4f9e62" x="66.62" y="172.100185" style="stroke: #000000; stroke-width: 0.8"/>
      </g>
     </g>
     <g id="text_5">
      <!-- 50.001 -->
      <g transform="translate(24.629375 175.899404) scale(0.1 -0.1)">
       <use xlink:href="#DejaVuSans-35"/>
       <use xlink:href="#DejaVuSans-30" x="63.623047"/>
       <use xlink:href="#DejaVuSans-2e" x="127.246094"/>
       <use xlink:href="#DejaVuSans-30" x="159.033203"/>
       <use xlink:href="#DejaVuSans-30" x="222.65625"/>
       <use xlink:href="#DejaVuSans-31" x="286.279297"/>
      </g>
     </g>
    </g>
    <g id="ytick_2">
     <g id="line2d_9">
      <path d="M 66.62 145.399364 
L 235.969285 145.399364 
" clip-path="url(#p542ded54e8)" style="fill: none; stroke: #b0b0b0; stroke-width: 0.8; stroke-linecap: square"/>
     </g>
     <g id="line2d_10">
      <g>
       <use xlink:href="#m2f0d4f9e62" x="66.62" y="145.399364" style="stroke: #000000; stroke-width: 0.8"/>
      </g>
     </g>
     <g id="text_6">
      <!-- 50.002 -->
      <g transform="translate(24.629375 149.198583) scale(0.1 -0.1)">
       <defs>
        <path id="DejaVuSans-32" d="M 1228 531 
L 3431 531 
L 3431 0 
L 469 0 
L 469 531 
Q 828 903 1448 1529 
Q 2069 2156 2228 2338 
Q 2531 2678 2651 2914 
Q 2772 3150 2772 3378 
Q 2772 3750 2511 3984 
Q 2250 4219 1831 4219 
Q 1534 4219 1204 4116 
Q 875 4013 500 3803 
L 500 4441 
Q 881 4594 1212 4672 
Q 1544 4750 1819 4750 
Q 2544 4750 2975 4387 
Q 3406 4025 3406 3419 
Q 3406 3131 3298 2873 
Q 3191 2616 2906 2266 
Q 2828 2175 2409 1742 
Q 1991 1309 1228 531 
z
" transform="scale(0.015625)"/>
       </defs>
       <use xlink:href="#DejaVuSans-35"/>
       <use xlink:href="#DejaVuSans-30" x="63.623047"/>
       <use xlink:href="#DejaVuSans-2e" x="127.246094"/>
       <use xlink:href="#DejaVuSans-30" x="159.033203"/>
       <use xlink:href="#DejaVuSans-30" x="222.65625"/>
       <use xlink:href="#DejaVuSans-32" x="286.279297"/>
      </g>
     </g>
    </g>
    <g id="ytick_3">
     <g id="line2d_11">
      <path d="M 66.62 118.698542 
L 235.969285 118.698542 
" clip-path="url(#p542ded54e8)" style="fill: none; stroke: #b0b0b0; stroke-width: 0.8; stroke-linecap: square"/>
     </g>
     <g id="line2d_12">
      <g>
       <use xlink:href="#m2f0d4f9e62" x="66.62" y="118.698542" style="stroke: #000000; stroke-width: 0.8"/>
      </g>
     </g>
     <g id="text_7">
      <!-- 50.003 -->
      <g transform="translate(24.629375 122.497761) scale(0.1 -0.1)">
       <use xlink:href="#DejaVuSans-35"/>
       <use xlink:href="#DejaVuSans-30" x="63.623047"/>
       <use xlink:href="#DejaVuSans-2e" x="127.246094"/>
       <use xlink:href="#DejaVuSans-30" x="159.033203"/>
       <use xlink:href="#DejaVuSans-30" x="222.65625"/>
       <use xlink:href="#DejaVuSans-33" x="286.279297"/>
      </g>
     </g>
    </g>
    <g id="ytick_4">
     <g id="line2d_13">
      <path d="M 66.62 91.997721 
L 235.969285 91.997721 
" clip-path="url(#p542ded54e8)" style="fill: none; stroke: #b0b0b0; stroke-width: 0.8; stroke-linecap: square"/>
     </g>
     <g id="line2d_14">
      <g>
       <use xlink:href="#m2f0d4f9e62" x="66.62" y="91.997721" style="stroke: #000000; stroke-width: 0.8"/>
      </g>
     </g>
     <g id="text_8">
      <!-- 50.004 -->
      <g transform="translate(24.629375 95.796939) scale(0.1 -0.1)">
       <use xlink:href="#DejaVuSans-35"/>
       <use xlink:href="#DejaVuSans-30" x="63.623047"/>
       <use xlink:href="#DejaVuSans-2e" x="127.246094"/>
       <use xlink:href="#DejaVuSans-30" x="159.033203"/>
       <use xlink:href="#DejaVuSans-30" x="222.65625"/>
       <use xlink:href="#DejaVuSans-34" x="286.279297"/>
      </g>
     </g>
    </g>
    <g id="ytick_5">
     <g id="line2d_15">
      <path d="M 66.62 65.296899 
L 235.969285 65.296899 
" clip-path="url(#p542ded54e8)" style="fill: none; stroke: #b0b0b0; stroke-width: 0.8; stroke-linecap: square"/>
     </g>
     <g id="line2d_16">
      <g>
       <use xlink:href="#m2f0d4f9e62" x="66.62" y="65.296899" style="stroke: #000000; stroke-width: 0.8"/>
      </g>
     </g>
     <g id="text_9">
      <!-- 50.005 -->
      <g transform="translate(24.629375 69.096118) scale(0.1 -0.1)">
       <use xlink:href="#DejaVuSans-35"/>
       <use xlink:href="#DejaVuSans-30" x="63.623047"/>
       <use xlink:href="#DejaVuSans-2e" x="127.246094"/>
       <use xlink:href="#DejaVuSans-30" x="159.033203"/>
       <use xlink:href="#DejaVuSans-30" x="222.65625"/>
       <use xlink:href="#DejaVuSans-35" x="286.279297"/>
      </g>
     </g>
    </g>
    <g id="ytick_6">
     <g id="line2d_17">
      <path d="M 66.62 38.596078 
L 235.969285 38.596078 
" clip-path="url(#p542ded54e8)" style="fill: none; stroke: #b0b0b0; stroke-width: 0.8; stroke-linecap: square"/>
     </g>
     <g id="line2d_18">
      <g>
       <use xlink:href="#m2f0d4f9e62" x="66.62" y="38.596078" style="stroke: #000000; stroke-width: 0.8"/>
      </g>
     </g>
     <g id="text_10">
      <!-- 50.006 -->
      <g transform="translate(24.629375 42.395296) scale(0.1 -0.1)">
       <defs>
        <path id="DejaVuSans-36" d="M 2113 2584 
Q 1688 2584 1439 2293 
Q 1191 2003 1191 1497 
Q 1191 994 1439 701 
Q 1688 409 2113 409 
Q 2538 409 2786 701 
Q 3034 994 3034 1497 
Q 3034 2003 2786 2293 
Q 2538 2584 2113 2584 
z
M 3366 4563 
L 3366 3988 
Q 3128 4100 2886 4159 
Q 2644 4219 2406 4219 
Q 1781 4219 1451 3797 
Q 1122 3375 1075 2522 
Q 1259 2794 1537 2939 
Q 1816 3084 2150 3084 
Q 2853 3084 3261 2657 
Q 3669 2231 3669 1497 
Q 3669 778 3244 343 
Q 2819 -91 2113 -91 
Q 1303 -91 875 529 
Q 447 1150 447 2328 
Q 447 3434 972 4092 
Q 1497 4750 2381 4750 
Q 2619 4750 2861 4703 
Q 3103 4656 3366 4563 
z
" transform="scale(0.015625)"/>
       </defs>
       <use xlink:href="#DejaVuSans-35"/>
       <use xlink:href="#DejaVuSans-30" x="63.623047"/>
       <use xlink:href="#DejaVuSans-2e" x="127.246094"/>
       <use xlink:href="#DejaVuSans-30" x="159.033203"/>
       <use xlink:href="#DejaVuSans-30" x="222.65625"/>
       <use xlink:href="#DejaVuSans-36" x="286.279297"/>
      </g>
     </g>
    </g>
    <g id="text_11">
     <!-- Latitude [°] -->
     <g transform="translate(18.549688 122.236053) rotate(-90) scale(0.1 -0.1)">
      <defs>
       <path id="DejaVuSans-61" d="M 2194 1759 
Q 1497 1759 1228 1600 
Q 959 1441 959 1056 
Q 959 750 1161 570 
Q 1363 391 1709 391 
Q 2188 391 2477 730 
Q 2766 1069 2766 1631 
L 2766 1759 
L 2194 1759 
z
M 3341 1997 
L 3341 0 
L 2766 0 
L 2766 531 
Q 2569 213 2275 61 
Q 1981 -91 1556 -91 
Q 1019 -91 701 211 
Q 384 513 384 1019 
Q 384 1609 779 1909 
Q 1175 2209 1959 2209 
L 2766 2209 
L 2766 2266 
Q 2766 2663 2505 2880 
Q 2244 3097 1772 3097 
Q 1472 3097 1187 3025 
Q 903 2953 641 2809 
L 641 3341 
Q 956 3463 1253 3523 
Q 1550 3584 1831 3584 
Q 2591 3584 2966 3190 
Q 3341 2797 3341 1997 
z
" transform="scale(0.015625)"/>
      </defs>
      <use xlink:href="#DejaVuSans-4c"/>
      <use xlink:href="#DejaVuSans-61" x="55.712891"/>
      <use xlink:href="#DejaVuSans-74" x="116.992188"/>
      <use xlink:href="#DejaVuSans-69" x="156.201172"/>
      <use xlink:href="#DejaVuSans-74" x="183.984375"/>
      <use xlink:href="#DejaVuSans-75" x="223.193359"/>
      <use xlink:href="#DejaVuSans-64" x="286.572266"/>
      <use xlink:href="#DejaVuSans-65" x="350.048828"/>
      <use xlink:href="#DejaVuSans-20" x="411.572266"/>
      <use xlink:href="#DejaVuSans-5b" x="443.359375"/>
      <use xlink:href="#DejaVuSans-b0" x="482.373047"/>
      <use xlink:href="#DejaVuSans-5d" x="532.373047"/>
     </g>
    </g>
   </g>
   <g id="patch_3">
    <path d="M 66.62 174.04 
L 66.62 13.293044 
" style="fill: none; stroke: #000000; stroke-width: 0.8; stroke-linejoin: miter; stroke-linecap: square"/>
   </g>
   <g id="patch_4">
    <path d="M 235.969285 174.04 
L 235.969285 13.293044 
" style="fill: none; stroke: #000000; stroke-width: 0.8; stroke-linejoin: miter; stroke-linecap: square"/>
   </g>
   <g id="patch_5">
    <path d="M 66.62 174.04 
L 235.969285 174.04 
" style="fill: none; stroke: #000000; stroke-width: 0.8; stroke-linejoin: miter; stroke-linecap: square"/>
   </g>
   <g id="patch_6">
    <path d="M 66.62 13.293044 
L 235.969285 13.293044 
" style="fill: none; stroke: #000000; stroke-width: 0.8; stroke-linejoin: miter; stroke-linecap: square"/>
   </g>
   <g id="text_12">
    <!-- 0 -->
    <g transform="translate(74.317695 166.73332) scale(0.1 -0.1)">
     <use xlink:href="#DejaVuSans-30"/>
    </g>
   </g>
   <g id="text_13">
    <!-- 1 -->
    <g transform="translate(82.595612 153.756721) scale(0.1 -0.1)">
     <use xlink:href="#DejaVuSans-31"/>
    </g>
   </g>
   <g id="text_14">
    <!-- 2 -->
    <g transform="translate(90.994295 139.09797) scale(0.1 -0.1)">
     <use xlink:href="#DejaVuSans-32"/>
    </g>
   </g>
   <g id="text_15">
    <!-- 3 -->
    <g transform="translate(109.405525 110.768398) scale(0.1 -0.1)">
     <use xlink:href="#DejaVuSans-33"/>
    </g>
   </g>
   <g id="text_16">
    <!-- 4 -->
    <g transform="translate(118.440971 97.765098) scale(0.1 -0.1)">
     <use xlink:href="#DejaVuSans-34"/>
    </g>
   </g>
   <g id="text_17">
    <!-- 5 -->
    <g transform="translate(136.588713 71.598293) scale(0.1 -0.1)">
     <use xlink:href="#DejaVuSans-35"/>
    </g>
   </g>
   <g id="text_18">
    <!-- 6 -->
    <g transform="translate(149.17027 53.361632) scale(0.1 -0.1)">
     <use xlink:href="#DejaVuSans-36"/>
    </g>
   </g>
   <g id="text_19">
    <!-- 7 -->
    <g transform="translate(164.167134 42.280791) scale(0.1 -0.1)">
     <defs>
      <path id="DejaVuSans-37" d="M 525 4666 
L 3525 4666 
L 3525 4397 
L 1831 0 
L 1172 0 
L 2766 4134 
L 525 4134 
L 525 4666 
z
" transform="scale(0.015625)"/>
     </defs>
     <use xlink:href="#DejaVuSans-37"/>
    </g>
   </g>
   <g id="text_20">
    <!-- 8 -->
    <g transform="translate(181.831814 36.006098) scale(0.1 -0.1)">
     <defs>
      <path id="DejaVuSans-38" d="M 2034 2216 
Q 1584 2216 1326 1975 
Q 1069 1734 1069 1313 
Q 1069 891 1326 650 
Q 1584 409 2034 409 
Q 2484 409 2743 651 
Q 3003 894 3003 1313 
Q 3003 1734 2745 1975 
Q 2488 2216 2034 2216 
z
M 1403 2484 
Q 997 2584 770 2862 
Q 544 3141 544 3541 
Q 544 4100 942 4425 
Q 1341 4750 2034 4750 
Q 2731 4750 3128 4425 
Q 3525 4100 3525 3541 
Q 3525 3141 3298 2862 
Q 3072 2584 2669 2484 
Q 3125 2378 3379 2068 
Q 3634 1759 3634 1313 
Q 3634 634 3220 271 
Q 2806 -91 2034 -91 
Q 1263 -91 848 271 
Q 434 634 434 1313 
Q 434 1759 690 2068 
Q 947 2378 1403 2484 
z
M 1172 3481 
Q 1172 3119 1398 2916 
Q 1625 2713 2034 2713 
Q 2441 2713 2670 2916 
Q 2900 3119 2900 3481 
Q 2900 3844 2670 4047 
Q 2441 4250 2034 4250 
Q 1625 4250 1398 4047 
Q 1172 3844 1172 3481 
z
" transform="scale(0.015625)"/>
     </defs>
     <use xlink:href="#DejaVuSans-38"/>
    </g>
   </g>
   <g id="text_21">
    <!-- 9 -->
    <g transform="translate(201.670272 30.479028) scale(0.1 -0.1)">
     <defs>
      <path id="DejaVuSans-39" d="M 703 97 
L 703 672 
Q 941 559 1184 500 
Q 1428 441 1663 441 
Q 2288 441 2617 861 
Q 2947 1281 2994 2138 
Q 2813 1869 2534 1725 
Q 2256 1581 1919 1581 
Q 1219 1581 811 2004 
Q 403 2428 403 3163 
Q 403 3881 828 4315 
Q 1253 4750 1959 4750 
Q 2769 4750 3195 4129 
Q 3622 3509 3622 2328 
Q 3622 1225 3098 567 
Q 2575 -91 1691 -91 
Q 1453 -91 1209 -44 
Q 966 3 703 97 
z
M 1959 2075 
Q 2384 2075 2632 2365 
Q 2881 2656 2881 3163 
Q 2881 3666 2632 3958 
Q 2384 4250 1959 4250 
Q 1534 4250 1286 3958 
Q 1038 3666 1038 3163 
Q 1038 2656 1286 2365 
Q 1534 2075 1959 2075 
z
" transform="scale(0.015625)"/>
     </defs>
     <use xlink:href="#DejaVuSans-39"/>
    </g>
   </g>
   <g id="text_22">
    <!-- 10 -->
    <g transform="translate(224.901138 22.335277) scale(0.1 -0.1)">
     <use xlink:href="#DejaVuSans-31"/>
     <use xlink:href="#DejaVuSans-30" x="63.623047"/>
    </g>
   </g>
   <g id="text_23">
    <!-- 11 -->
    <g transform="translate(228.27159 20.599724) scale(0.1 -0.1)">
     <use xlink:href="#DejaVuSans-31"/>
     <use xlink:href="#DejaVuSans-31" x="63.623047"/>
    </g>
   </g>
  </g>
  <g id="axes_2">
   <g id="patch_7">
    <path d="M 293.861054 174.04 
L 632.559624 174.04 
L 632.559624 13.293044 
L 293.861054 13.293044 
z
" style="fill: #ffffff"/>
   </g>
   <g id="PathCollection_13">
    <defs>
     <path id="mf90571a3b3" d="M -6.123724 0 
L 6.123724 0 
M 0 6.123724 
L 0 -6.123724 
" style="stroke: #000000; stroke-width: 1.5"/>
    </defs>
    <g clip-path="url(#p2ed1e13f03)">
     <use xlink:href="#mf90571a3b3" x="309.256443" y="118.651165" style="stroke: #000000; stroke-width: 1.5"/>
    </g>
   </g>
   <g id="PathCollection_14">
    <g clip-path="url(#p2ed1e13f03)">
     <use xlink:href="#mf90571a3b3" x="309.256443" y="111.229513" style="stroke: #000000; stroke-width: 1.5"/>
    </g>
   </g>
   <g id="PathCollection_15">
    <g clip-path="url(#p2ed1e13f03)">
     <use xlink:href="#mf90571a3b3" x="309.256443" y="105.663274" style="stroke: #000000; stroke-width: 1.5"/>
    </g>
   </g>
   <g id="PathCollection_16">
    <g clip-path="url(#p2ed1e13f03)">
     <use xlink:href="#mf90571a3b3" x="329.294164" y="103.173531" style="stroke: #000000; stroke-width: 1.5"/>
    </g>
   </g>
   <g id="PathCollection_17">
    <defs>
     <path id="m69ced6ada4" d="M 0 3.535534 
C 0.937635 3.535534 1.836992 3.163008 2.5 2.5 
C 3.163008 1.836992 3.535534 0.937635 3.535534 0 
C 3.535534 -0.937635 3.163008 -1.836992 2.5 -2.5 
C 1.836992 -3.163008 0.937635 -3.535534 0 -3.535534 
C -0.937635 -3.535534 -1.836992 -3.163008 -2.5 -2.5 
C -3.163008 -1.836992 -3.535534 -0.937635 -3.535534 0 
C -3.535534 0.937635 -3.163008 1.836992 -2.5 2.5 
C -1.836992 3.163008 -0.937635 3.535534 0 3.535534 
z
" style="stroke: #000000"/>
    </defs>
    <g clip-path="url(#p2ed1e13f03)">
     <use xlink:href="#m69ced6ada4" x="329.294164" y="137.189436" style="stroke: #000000"/>
    </g>
   </g>
   <g id="PathCollection_18">
    <g clip-path="url(#p2ed1e13f03)">
     <use xlink:href="#mf90571a3b3" x="350.78641" y="117.969261" style="stroke: #000000; stroke-width: 1.5"/>
    </g>
   </g>
   <g id="PathCollection_19">
    <g clip-path="url(#p2ed1e13f03)">
     <use xlink:href="#m69ced6ada4" x="350.78641" y="151.985166" style="stroke: #000000"/>
    </g>
   </g>
   <g id="PathCollection_20">
    <g clip-path="url(#p2ed1e13f03)">
     <use xlink:href="#mf90571a3b3" x="394.894104" y="95.371282" style="stroke: #000000; stroke-width: 1.5"/>
    </g>
   </g>
   <g id="PathCollection_21">
    <g clip-path="url(#p2ed1e13f03)">
     <use xlink:href="#m69ced6ada4" x="394.894104" y="129.387187" style="stroke: #000000"/>
    </g>
   </g>
   <g id="PathCollection_22">
    <g clip-path="url(#p2ed1e13f03)">
     <use xlink:href="#mf90571a3b3" x="415.857435" y="75.532635" style="stroke: #000000; stroke-width: 1.5"/>
    </g>
   </g>
   <g id="PathCollection_23">
    <g clip-path="url(#p2ed1e13f03)">
     <use xlink:href="#m69ced6ada4" x="415.857435" y="109.54854" style="stroke: #000000"/>
    </g>
   </g>
   <g id="PathCollection_24">
    <g clip-path="url(#p2ed1e13f03)">
     <use xlink:href="#mf90571a3b3" x="458.022703" y="20.599724" style="stroke: #000000; stroke-width: 1.5"/>
    </g>
   </g>
   <g id="PathCollection_25">
    <g clip-path="url(#p2ed1e13f03)">
     <use xlink:href="#m69ced6ada4" x="458.022703" y="54.615629" style="stroke: #000000"/>
    </g>
   </g>
   <g id="PathCollection_26">
    <g clip-path="url(#p2ed1e13f03)">
     <use xlink:href="#mf90571a3b3" x="487.326634" y="28.290966" style="stroke: #000000; stroke-width: 1.5"/>
    </g>
   </g>
   <g id="PathCollection_27">
    <g clip-path="url(#p2ed1e13f03)">
     <use xlink:href="#m69ced6ada4" x="487.326634" y="62.306871" style="stroke: #000000"/>
    </g>
   </g>
   <g id="PathCollection_28">
    <g clip-path="url(#p2ed1e13f03)">
     <use xlink:href="#mf90571a3b3" x="514.383225" y="41.87354" style="stroke: #000000; stroke-width: 1.5"/>
    </g>
   </g>
   <g id="PathCollection_29">
    <g clip-path="url(#p2ed1e13f03)">
     <use xlink:href="#m69ced6ada4" x="514.383225" y="75.889445" style="stroke: #000000"/>
    </g>
   </g>
   <g id="PathCollection_30">
    <g clip-path="url(#p2ed1e13f03)">
     <use xlink:href="#mf90571a3b3" x="542.049341" y="43.911323" style="stroke: #000000; stroke-width: 1.5"/>
    </g>
   </g>
   <g id="PathCollection_31">
    <g clip-path="url(#p2ed1e13f03)">
     <use xlink:href="#m69ced6ada4" x="542.049341" y="77.927228" style="stroke: #000000"/>
    </g>
   </g>
   <g id="PathCollection_32">
    <g clip-path="url(#p2ed1e13f03)">
     <use xlink:href="#mf90571a3b3" x="573.053301" y="39.407585" style="stroke: #000000; stroke-width: 1.5"/>
    </g>
   </g>
   <g id="PathCollection_33">
    <g clip-path="url(#p2ed1e13f03)">
     <use xlink:href="#m69ced6ada4" x="573.053301" y="73.42349" style="stroke: #000000"/>
    </g>
   </g>
   <g id="PathCollection_34">
    <g clip-path="url(#p2ed1e13f03)">
     <use xlink:href="#mf90571a3b3" x="611.250861" y="85.229943" style="stroke: #000000; stroke-width: 1.5"/>
    </g>
   </g>
   <g id="PathCollection_35">
    <g clip-path="url(#p2ed1e13f03)">
     <use xlink:href="#m69ced6ada4" x="611.250861" y="119.245848" style="stroke: #000000"/>
    </g>
   </g>
   <g id="PathCollection_36">
    <g clip-path="url(#p2ed1e13f03)">
     <use xlink:href="#mf90571a3b3" x="617.164234" y="88.552243" style="stroke: #000000; stroke-width: 1.5"/>
    </g>
   </g>
   <g id="PathCollection_37">
    <g clip-path="url(#p2ed1e13f03)">
     <use xlink:href="#m69ced6ada4" x="617.164234" y="122.568148" style="stroke: #000000"/>
    </g>
   </g>
   <g id="matplotlib.axis_3">
    <g id="xtick_4">
     <g id="line2d_19">
      <path d="M 309.256443 174.04 
L 309.256443 13.293044 
" clip-path="url(#p2ed1e13f03)" style="fill: none; stroke: #b0b0b0; stroke-width: 0.8; stroke-linecap: square"/>
     </g>
     <g id="line2d_20">
      <g>
       <use xlink:href="#m68255050bb" x="309.256443" y="174.04" style="stroke: #000000; stroke-width: 0.8"/>
      </g>
     </g>
     <g id="text_24">
      <!-- 0 -->
      <g transform="translate(306.075193 188.638438) scale(0.1 -0.1)">
       <use xlink:href="#DejaVuSans-30"/>
      </g>
     </g>
    </g>
    <g id="xtick_5">
     <g id="line2d_21">
      <path d="M 361.655704 174.04 
L 361.655704 13.293044 
" clip-path="url(#p2ed1e13f03)" style="fill: none; stroke: #b0b0b0; stroke-width: 0.8; stroke-linecap: square"/>
     </g>
     <g id="line2d_22">
      <g>
       <use xlink:href="#m68255050bb" x="361.655704" y="174.04" style="stroke: #000000; stroke-width: 0.8"/>
      </g>
     </g>
     <g id="text_25">
      <!-- 200 -->
      <g transform="translate(352.111954 188.638438) scale(0.1 -0.1)">
       <use xlink:href="#DejaVuSans-32"/>
       <use xlink:href="#DejaVuSans-30" x="63.623047"/>
       <use xlink:href="#DejaVuSans-30" x="127.246094"/>
      </g>
     </g>
    </g>
    <g id="xtick_6">
     <g id="line2d_23">
      <path d="M 414.054964 174.04 
L 414.054964 13.293044 
" clip-path="url(#p2ed1e13f03)" style="fill: none; stroke: #b0b0b0; stroke-width: 0.8; stroke-linecap: square"/>
     </g>
     <g id="line2d_24">
      <g>
       <use xlink:href="#m68255050bb" x="414.054964" y="174.04" style="stroke: #000000; stroke-width: 0.8"/>
      </g>
     </g>
     <g id="text_26">
      <!-- 400 -->
      <g transform="translate(404.511214 188.638438) scale(0.1 -0.1)">
       <use xlink:href="#DejaVuSans-34"/>
       <use xlink:href="#DejaVuSans-30" x="63.623047"/>
       <use xlink:href="#DejaVuSans-30" x="127.246094"/>
      </g>
     </g>
    </g>
    <g id="xtick_7">
     <g id="line2d_25">
      <path d="M 466.454225 174.04 
L 466.454225 13.293044 
" clip-path="url(#p2ed1e13f03)" style="fill: none; stroke: #b0b0b0; stroke-width: 0.8; stroke-linecap: square"/>
     </g>
     <g id="line2d_26">
      <g>
       <use xlink:href="#m68255050bb" x="466.454225" y="174.04" style="stroke: #000000; stroke-width: 0.8"/>
      </g>
     </g>
     <g id="text_27">
      <!-- 600 -->
      <g transform="translate(456.910475 188.638438) scale(0.1 -0.1)">
       <use xlink:href="#DejaVuSans-36"/>
       <use xlink:href="#DejaVuSans-30" x="63.623047"/>
       <use xlink:href="#DejaVuSans-30" x="127.246094"/>
      </g>
     </g>
    </g>
    <g id="xtick_8">
     <g id="line2d_27">
      <path d="M 518.853486 174.04 
L 518.853486 13.293044 
" clip-path="url(#p2ed1e13f03)" style="fill: none; stroke: #b0b0b0; stroke-width: 0.8; stroke-linecap: square"/>
     </g>
     <g id="line2d_28">
      <g>
       <use xlink:href="#m68255050bb" x="518.853486" y="174.04" style="stroke: #000000; stroke-width: 0.8"/>
      </g>
     </g>
     <g id="text_28">
      <!-- 800 -->
      <g transform="translate(509.309736 188.638438) scale(0.1 -0.1)">
       <use xlink:href="#DejaVuSans-38"/>
       <use xlink:href="#DejaVuSans-30" x="63.623047"/>
       <use xlink:href="#DejaVuSans-30" x="127.246094"/>
      </g>
     </g>
    </g>
    <g id="xtick_9">
     <g id="line2d_29">
      <path d="M 571.252746 174.04 
L 571.252746 13.293044 
" clip-path="url(#p2ed1e13f03)" style="fill: none; stroke: #b0b0b0; stroke-width: 0.8; stroke-linecap: square"/>
     </g>
     <g id="line2d_30">
      <g>
       <use xlink:href="#m68255050bb" x="571.252746" y="174.04" style="stroke: #000000; stroke-width: 0.8"/>
      </g>
     </g>
     <g id="text_29">
      <!-- 1000 -->
      <g transform="translate(558.527746 188.638438) scale(0.1 -0.1)">
       <use xlink:href="#DejaVuSans-31"/>
       <use xlink:href="#DejaVuSans-30" x="63.623047"/>
       <use xlink:href="#DejaVuSans-30" x="127.246094"/>
       <use xlink:href="#DejaVuSans-30" x="190.869141"/>
      </g>
     </g>
    </g>
    <g id="xtick_10">
     <g id="line2d_31">
      <path d="M 623.652007 174.04 
L 623.652007 13.293044 
" clip-path="url(#p2ed1e13f03)" style="fill: none; stroke: #b0b0b0; stroke-width: 0.8; stroke-linecap: square"/>
     </g>
     <g id="line2d_32">
      <g>
       <use xlink:href="#m68255050bb" x="623.652007" y="174.04" style="stroke: #000000; stroke-width: 0.8"/>
      </g>
     </g>
     <g id="text_30">
      <!-- 1200 -->
      <g transform="translate(610.927007 188.638438) scale(0.1 -0.1)">
       <use xlink:href="#DejaVuSans-31"/>
       <use xlink:href="#DejaVuSans-32" x="63.623047"/>
       <use xlink:href="#DejaVuSans-30" x="127.246094"/>
       <use xlink:href="#DejaVuSans-30" x="190.869141"/>
      </g>
     </g>
    </g>
    <g id="text_31">
     <!-- Transmitting distance [m] -->
     <g transform="translate(398.952526 202.316563) scale(0.1 -0.1)">
      <defs>
       <path id="DejaVuSans-54" d="M -19 4666 
L 3928 4666 
L 3928 4134 
L 2272 4134 
L 2272 0 
L 1638 0 
L 1638 4134 
L -19 4134 
L -19 4666 
z
" transform="scale(0.015625)"/>
       <path id="DejaVuSans-72" d="M 2631 2963 
Q 2534 3019 2420 3045 
Q 2306 3072 2169 3072 
Q 1681 3072 1420 2755 
Q 1159 2438 1159 1844 
L 1159 0 
L 581 0 
L 581 3500 
L 1159 3500 
L 1159 2956 
Q 1341 3275 1631 3429 
Q 1922 3584 2338 3584 
Q 2397 3584 2469 3576 
Q 2541 3569 2628 3553 
L 2631 2963 
z
" transform="scale(0.015625)"/>
       <path id="DejaVuSans-73" d="M 2834 3397 
L 2834 2853 
Q 2591 2978 2328 3040 
Q 2066 3103 1784 3103 
Q 1356 3103 1142 2972 
Q 928 2841 928 2578 
Q 928 2378 1081 2264 
Q 1234 2150 1697 2047 
L 1894 2003 
Q 2506 1872 2764 1633 
Q 3022 1394 3022 966 
Q 3022 478 2636 193 
Q 2250 -91 1575 -91 
Q 1294 -91 989 -36 
Q 684 19 347 128 
L 347 722 
Q 666 556 975 473 
Q 1284 391 1588 391 
Q 1994 391 2212 530 
Q 2431 669 2431 922 
Q 2431 1156 2273 1281 
Q 2116 1406 1581 1522 
L 1381 1569 
Q 847 1681 609 1914 
Q 372 2147 372 2553 
Q 372 3047 722 3315 
Q 1072 3584 1716 3584 
Q 2034 3584 2315 3537 
Q 2597 3491 2834 3397 
z
" transform="scale(0.015625)"/>
       <path id="DejaVuSans-6d" d="M 3328 2828 
Q 3544 3216 3844 3400 
Q 4144 3584 4550 3584 
Q 5097 3584 5394 3201 
Q 5691 2819 5691 2113 
L 5691 0 
L 5113 0 
L 5113 2094 
Q 5113 2597 4934 2840 
Q 4756 3084 4391 3084 
Q 3944 3084 3684 2787 
Q 3425 2491 3425 1978 
L 3425 0 
L 2847 0 
L 2847 2094 
Q 2847 2600 2669 2842 
Q 2491 3084 2119 3084 
Q 1678 3084 1418 2786 
Q 1159 2488 1159 1978 
L 1159 0 
L 581 0 
L 581 3500 
L 1159 3500 
L 1159 2956 
Q 1356 3278 1631 3431 
Q 1906 3584 2284 3584 
Q 2666 3584 2933 3390 
Q 3200 3197 3328 2828 
z
" transform="scale(0.015625)"/>
       <path id="DejaVuSans-63" d="M 3122 3366 
L 3122 2828 
Q 2878 2963 2633 3030 
Q 2388 3097 2138 3097 
Q 1578 3097 1268 2742 
Q 959 2388 959 1747 
Q 959 1106 1268 751 
Q 1578 397 2138 397 
Q 2388 397 2633 464 
Q 2878 531 3122 666 
L 3122 134 
Q 2881 22 2623 -34 
Q 2366 -91 2075 -91 
Q 1284 -91 818 406 
Q 353 903 353 1747 
Q 353 2603 823 3093 
Q 1294 3584 2113 3584 
Q 2378 3584 2631 3529 
Q 2884 3475 3122 3366 
z
" transform="scale(0.015625)"/>
      </defs>
      <use xlink:href="#DejaVuSans-54"/>
      <use xlink:href="#DejaVuSans-72" x="46.333984"/>
      <use xlink:href="#DejaVuSans-61" x="87.447266"/>
      <use xlink:href="#DejaVuSans-6e" x="148.726562"/>
      <use xlink:href="#DejaVuSans-73" x="212.105469"/>
      <use xlink:href="#DejaVuSans-6d" x="264.205078"/>
      <use xlink:href="#DejaVuSans-69" x="361.617188"/>
      <use xlink:href="#DejaVuSans-74" x="389.400391"/>
      <use xlink:href="#DejaVuSans-74" x="428.609375"/>
      <use xlink:href="#DejaVuSans-69" x="467.818359"/>
      <use xlink:href="#DejaVuSans-6e" x="495.601562"/>
      <use xlink:href="#DejaVuSans-67" x="558.980469"/>
      <use xlink:href="#DejaVuSans-20" x="622.457031"/>
      <use xlink:href="#DejaVuSans-64" x="654.244141"/>
      <use xlink:href="#DejaVuSans-69" x="717.720703"/>
      <use xlink:href="#DejaVuSans-73" x="745.503906"/>
      <use xlink:href="#DejaVuSans-74" x="797.603516"/>
      <use xlink:href="#DejaVuSans-61" x="836.8125"/>
      <use xlink:href="#DejaVuSans-6e" x="898.091797"/>
      <use xlink:href="#DejaVuSans-63" x="961.470703"/>
      <use xlink:href="#DejaVuSans-65" x="1016.451172"/>
      <use xlink:href="#DejaVuSans-20" x="1077.974609"/>
      <use xlink:href="#DejaVuSans-5b" x="1109.761719"/>
      <use xlink:href="#DejaVuSans-6d" x="1148.775391"/>
      <use xlink:href="#DejaVuSans-5d" x="1246.1875"/>
     </g>
    </g>
   </g>
   <g id="matplotlib.axis_4">
    <g id="ytick_7">
     <g id="line2d_33">
      <path d="M 293.861054 163.799547 
L 632.559624 163.799547 
" clip-path="url(#p2ed1e13f03)" style="fill: none; stroke: #b0b0b0; stroke-width: 0.8; stroke-linecap: square"/>
     </g>
     <g id="line2d_34">
      <g>
       <use xlink:href="#m2f0d4f9e62" x="293.861054" y="163.799547" style="stroke: #000000; stroke-width: 0.8"/>
      </g>
     </g>
     <g id="text_32">
      <!-- −2 -->
      <g transform="translate(272.118866 167.598766) scale(0.1 -0.1)">
       <defs>
        <path id="DejaVuSans-2212" d="M 678 2272 
L 4684 2272 
L 4684 1741 
L 678 1741 
L 678 2272 
z
" transform="scale(0.015625)"/>
       </defs>
       <use xlink:href="#DejaVuSans-2212"/>
       <use xlink:href="#DejaVuSans-32" x="83.789062"/>
      </g>
     </g>
    </g>
    <g id="ytick_8">
     <g id="line2d_35">
      <path d="M 293.861054 143.183848 
L 632.559624 143.183848 
" clip-path="url(#p2ed1e13f03)" style="fill: none; stroke: #b0b0b0; stroke-width: 0.8; stroke-linecap: square"/>
     </g>
     <g id="line2d_36">
      <g>
       <use xlink:href="#m2f0d4f9e62" x="293.861054" y="143.183848" style="stroke: #000000; stroke-width: 0.8"/>
      </g>
     </g>
     <g id="text_33">
      <!-- −1 -->
      <g transform="translate(272.118866 146.983066) scale(0.1 -0.1)">
       <use xlink:href="#DejaVuSans-2212"/>
       <use xlink:href="#DejaVuSans-31" x="83.789062"/>
      </g>
     </g>
    </g>
    <g id="ytick_9">
     <g id="line2d_37">
      <path d="M 293.861054 122.568148 
L 632.559624 122.568148 
" clip-path="url(#p2ed1e13f03)" style="fill: none; stroke: #b0b0b0; stroke-width: 0.8; stroke-linecap: square"/>
     </g>
     <g id="line2d_38">
      <g>
       <use xlink:href="#m2f0d4f9e62" x="293.861054" y="122.568148" style="stroke: #000000; stroke-width: 0.8"/>
      </g>
     </g>
     <g id="text_34">
      <!-- 0 -->
      <g transform="translate(280.498554 126.367366) scale(0.1 -0.1)">
       <use xlink:href="#DejaVuSans-30"/>
      </g>
     </g>
    </g>
    <g id="ytick_10">
     <g id="line2d_39">
      <path d="M 293.861054 101.952448 
L 632.559624 101.952448 
" clip-path="url(#p2ed1e13f03)" style="fill: none; stroke: #b0b0b0; stroke-width: 0.8; stroke-linecap: square"/>
     </g>
     <g id="line2d_40">
      <g>
       <use xlink:href="#m2f0d4f9e62" x="293.861054" y="101.952448" style="stroke: #000000; stroke-width: 0.8"/>
      </g>
     </g>
     <g id="text_35">
      <!-- 1 -->
      <g transform="translate(280.498554 105.751666) scale(0.1 -0.1)">
       <use xlink:href="#DejaVuSans-31"/>
      </g>
     </g>
    </g>
    <g id="ytick_11">
     <g id="line2d_41">
      <path d="M 293.861054 81.336748 
L 632.559624 81.336748 
" clip-path="url(#p2ed1e13f03)" style="fill: none; stroke: #b0b0b0; stroke-width: 0.8; stroke-linecap: square"/>
     </g>
     <g id="line2d_42">
      <g>
       <use xlink:href="#m2f0d4f9e62" x="293.861054" y="81.336748" style="stroke: #000000; stroke-width: 0.8"/>
      </g>
     </g>
     <g id="text_36">
      <!-- 2 -->
      <g transform="translate(280.498554 85.135966) scale(0.1 -0.1)">
       <use xlink:href="#DejaVuSans-32"/>
      </g>
     </g>
    </g>
    <g id="ytick_12">
     <g id="line2d_43">
      <path d="M 293.861054 60.721048 
L 632.559624 60.721048 
" clip-path="url(#p2ed1e13f03)" style="fill: none; stroke: #b0b0b0; stroke-width: 0.8; stroke-linecap: square"/>
     </g>
     <g id="line2d_44">
      <g>
       <use xlink:href="#m2f0d4f9e62" x="293.861054" y="60.721048" style="stroke: #000000; stroke-width: 0.8"/>
      </g>
     </g>
     <g id="text_37">
      <!-- 3 -->
      <g transform="translate(280.498554 64.520266) scale(0.1 -0.1)">
       <use xlink:href="#DejaVuSans-33"/>
      </g>
     </g>
    </g>
    <g id="ytick_13">
     <g id="line2d_45">
      <path d="M 293.861054 40.105348 
L 632.559624 40.105348 
" clip-path="url(#p2ed1e13f03)" style="fill: none; stroke: #b0b0b0; stroke-width: 0.8; stroke-linecap: square"/>
     </g>
     <g id="line2d_46">
      <g>
       <use xlink:href="#m2f0d4f9e62" x="293.861054" y="40.105348" style="stroke: #000000; stroke-width: 0.8"/>
      </g>
     </g>
     <g id="text_38">
      <!-- 4 -->
      <g transform="translate(280.498554 43.904566) scale(0.1 -0.1)">
       <use xlink:href="#DejaVuSans-34"/>
      </g>
     </g>
    </g>
    <g id="ytick_14">
     <g id="line2d_47">
      <path d="M 293.861054 19.489648 
L 632.559624 19.489648 
" clip-path="url(#p2ed1e13f03)" style="fill: none; stroke: #b0b0b0; stroke-width: 0.8; stroke-linecap: square"/>
     </g>
     <g id="line2d_48">
      <g>
       <use xlink:href="#m2f0d4f9e62" x="293.861054" y="19.489648" style="stroke: #000000; stroke-width: 0.8"/>
      </g>
     </g>
     <g id="text_39">
      <!-- 5 -->
      <g transform="translate(280.498554 23.288866) scale(0.1 -0.1)">
       <use xlink:href="#DejaVuSans-35"/>
      </g>
     </g>
    </g>
    <g id="text_40">
     <!-- Relief -->
     <g transform="translate(266.039179 107.607147) rotate(-90) scale(0.1 -0.1)">
      <defs>
       <path id="DejaVuSans-52" d="M 2841 2188 
Q 3044 2119 3236 1894 
Q 3428 1669 3622 1275 
L 4263 0 
L 3584 0 
L 2988 1197 
Q 2756 1666 2539 1819 
Q 2322 1972 1947 1972 
L 1259 1972 
L 1259 0 
L 628 0 
L 628 4666 
L 2053 4666 
Q 2853 4666 3247 4331 
Q 3641 3997 3641 3322 
Q 3641 2881 3436 2590 
Q 3231 2300 2841 2188 
z
M 1259 4147 
L 1259 2491 
L 2053 2491 
Q 2509 2491 2742 2702 
Q 2975 2913 2975 3322 
Q 2975 3731 2742 3939 
Q 2509 4147 2053 4147 
L 1259 4147 
z
" transform="scale(0.015625)"/>
       <path id="DejaVuSans-6c" d="M 603 4863 
L 1178 4863 
L 1178 0 
L 603 0 
L 603 4863 
z
" transform="scale(0.015625)"/>
       <path id="DejaVuSans-66" d="M 2375 4863 
L 2375 4384 
L 1825 4384 
Q 1516 4384 1395 4259 
Q 1275 4134 1275 3809 
L 1275 3500 
L 2222 3500 
L 2222 3053 
L 1275 3053 
L 1275 0 
L 697 0 
L 697 3053 
L 147 3053 
L 147 3500 
L 697 3500 
L 697 3744 
Q 697 4328 969 4595 
Q 1241 4863 1831 4863 
L 2375 4863 
z
" transform="scale(0.015625)"/>
      </defs>
      <use xlink:href="#DejaVuSans-52"/>
      <use xlink:href="#DejaVuSans-65" x="64.982422"/>
      <use xlink:href="#DejaVuSans-6c" x="126.505859"/>
      <use xlink:href="#DejaVuSans-69" x="154.289062"/>
      <use xlink:href="#DejaVuSans-65" x="182.072266"/>
      <use xlink:href="#DejaVuSans-66" x="243.595703"/>
     </g>
    </g>
   </g>
   <g id="line2d_49">
    <path d="M 309.256443 122.568148 
L 310.687709 124.098467 
L 312.118975 125.834943 
L 313.55024 126.952948 
L 314.981506 128.483268 
L 316.412772 130.219744 
L 317.844038 131.95622 
L 319.275303 134.10501 
L 320.706569 135.429173 
L 322.137835 136.753335 
L 323.569101 137.459026 
L 325.000366 137.95856 
L 326.431632 138.251938 
L 327.862898 137.720687 
L 329.294164 137.189436 
" clip-path="url(#p2ed1e13f03)" style="fill: none; stroke: #d95f02; stroke-width: 1.5; stroke-linecap: square"/>
   </g>
   <g id="line2d_50">
    <path d="M 329.294164 174.04 
L 329.294164 13.293044 
" clip-path="url(#p2ed1e13f03)" style="fill: none; stroke-dasharray: 5.55,2.4; stroke-dashoffset: 0; stroke: #808080; stroke-opacity: 0.5; stroke-width: 1.5"/>
   </g>
   <g id="line2d_51">
    <path d="M 309.256443 122.568148 
L 310.640775 124.098467 
L 312.025108 125.422629 
L 313.40944 126.540634 
L 314.793772 128.070954 
L 316.178104 129.395116 
L 317.562437 131.131592 
L 318.946769 133.074225 
L 320.331101 134.398388 
L 321.715433 135.72255 
L 323.099766 136.428241 
L 324.484098 137.133932 
L 325.86843 137.42731 
L 327.252762 137.51453 
L 328.637094 136.983279 
L 330.021427 136.452029 
L 331.405759 136.333092 
L 332.790091 136.626469 
L 334.174423 137.33216 
L 335.558756 138.037852 
L 336.943088 138.743543 
L 338.32742 139.655391 
L 339.711752 139.948768 
L 341.096085 141.685245 
L 342.480417 143.627878 
L 343.864749 145.982825 
L 345.249081 148.131616 
L 346.633413 149.661935 
L 348.017746 150.573783 
L 349.402078 151.279474 
L 350.78641 151.985166 
" clip-path="url(#p2ed1e13f03)" style="fill: none; stroke: #7570b3; stroke-width: 1.5; stroke-linecap: square"/>
   </g>
   <g id="line2d_52">
    <path d="M 350.78641 174.04 
L 350.78641 13.293044 
" clip-path="url(#p2ed1e13f03)" style="fill: none; stroke-dasharray: 5.55,2.4; stroke-dashoffset: 0; stroke: #808080; stroke-opacity: 0.5; stroke-width: 1.5"/>
   </g>
   <g id="line2d_53">
    <path d="M 309.256443 122.568148 
L 310.594532 123.89231 
L 311.93262 125.422629 
L 313.270709 126.334477 
L 314.608797 127.65864 
L 315.946885 128.982802 
L 317.284974 130.719278 
L 318.623062 132.455754 
L 319.961151 133.986074 
L 321.299239 135.104079 
L 322.637328 135.80977 
L 323.975416 136.515461 
L 325.313505 136.602682 
L 326.651593 136.896059 
L 327.989681 136.364808 
L 329.32777 135.833558 
L 330.665858 135.09615 
L 332.003947 135.18337 
L 333.342035 135.682904 
L 334.680124 136.388596 
L 336.018212 137.094287 
L 337.356301 137.593821 
L 338.694389 138.093355 
L 340.032477 138.59289 
L 341.370566 139.917052 
L 342.708654 142.065842 
L 344.046743 144.42079 
L 345.384831 146.775737 
L 346.72292 148.306056 
L 348.061008 149.217904 
L 349.399097 149.923596 
L 350.737185 150.629287 
L 352.075273 151.334978 
L 353.413362 151.422198 
L 354.75145 151.509419 
L 356.089539 151.390482 
L 357.427627 151.477702 
L 358.765716 151.564922 
L 360.103804 151.652143 
L 361.441893 150.914735 
L 362.779981 150.589641 
L 364.118069 150.676862 
L 365.456158 150.557925 
L 366.794246 150.645145 
L 368.132335 150.113894 
L 369.470423 149.994958 
L 370.808512 149.463707 
L 372.1466 148.932456 
L 373.484689 147.988891 
L 374.822777 147.045327 
L 376.160865 146.514076 
L 377.498954 145.570511 
L 378.837042 145.039261 
L 380.175131 143.477225 
L 381.513219 142.53366 
L 382.851308 140.971624 
L 384.189396 139.821903 
L 385.527485 138.878338 
L 386.865573 137.316302 
L 388.203661 138.021993 
L 389.54175 138.315371 
L 390.879838 137.577963 
L 392.217927 133.954357 
L 393.556015 131.77385 
L 394.894104 129.387187 
" clip-path="url(#p2ed1e13f03)" style="fill: none; stroke: #e7298a; stroke-width: 1.5; stroke-linecap: square"/>
   </g>
   <g id="line2d_54">
    <path d="M 394.894104 174.04 
L 394.894104 13.293044 
" clip-path="url(#p2ed1e13f03)" style="fill: none; stroke-dasharray: 5.55,2.4; stroke-dashoffset: 0; stroke: #808080; stroke-opacity: 0.5; stroke-width: 1.5"/>
   </g>
   <g id="line2d_55">
    <path d="M 309.256443 122.568148 
L 310.588956 123.89231 
L 311.921468 125.422629 
L 313.25398 126.334477 
L 314.586493 127.65864 
L 315.919005 128.982802 
L 317.251518 130.719278 
L 318.58403 132.455754 
L 319.916542 133.779917 
L 321.249055 135.104079 
L 322.581567 135.80977 
L 323.91408 136.515461 
L 325.246592 136.602682 
L 326.579104 136.896059 
L 327.911617 136.158651 
L 329.244129 135.627401 
L 330.576641 134.889993 
L 331.909154 134.977213 
L 333.241666 135.27059 
L 334.574179 135.976282 
L 335.906691 136.681973 
L 337.239203 137.181507 
L 338.571716 137.681041 
L 339.904228 138.180576 
L 341.236741 139.504738 
L 342.569253 141.653528 
L 343.901765 144.008476 
L 345.234278 146.363423 
L 346.56679 148.099899 
L 347.899303 149.011747 
L 349.231815 149.923596 
L 350.564327 150.629287 
L 351.89684 151.541135 
L 353.229352 151.834512 
L 354.561865 151.921733 
L 355.894377 152.008953 
L 357.226889 152.096173 
L 358.559402 152.595707 
L 359.891914 152.476771 
L 361.224427 152.151677 
L 362.556939 151.620426 
L 363.889451 151.50149 
L 365.221964 151.58871 
L 366.554476 151.469773 
L 367.886989 151.350836 
L 369.219501 151.2319 
L 370.552013 151.112963 
L 371.884526 150.581712 
L 373.217038 149.638147 
L 374.549551 148.90074 
L 375.882063 148.369489 
L 377.214575 147.632081 
L 378.547088 146.688517 
L 379.8796 145.538795 
L 381.212112 144.389073 
L 382.544625 143.033194 
L 383.877137 141.677316 
L 385.20965 140.527594 
L 386.542162 139.584029 
L 387.874674 139.465092 
L 389.207187 140.789255 
L 390.539699 141.288789 
L 391.872212 138.077497 
L 393.204724 135.278519 
L 394.537236 132.685699 
L 395.869749 130.505192 
L 397.202261 128.118528 
L 398.534774 126.350336 
L 399.867286 124.375986 
L 401.199798 123.226264 
L 402.532311 121.664228 
L 403.864823 120.30835 
L 405.197336 118.334 
L 406.529848 117.184278 
L 407.86236 115.828399 
L 409.194873 114.678678 
L 410.527385 113.94127 
L 411.859898 112.585391 
L 413.19241 111.847984 
L 414.524922 110.285948 
L 415.857435 109.54854 
" clip-path="url(#p2ed1e13f03)" style="fill: none; stroke: #66a61e; stroke-width: 1.5; stroke-linecap: square"/>
   </g>
   <g id="line2d_56">
    <path d="M 415.857435 174.04 
L 415.857435 13.293044 
" clip-path="url(#p2ed1e13f03)" style="fill: none; stroke-dasharray: 5.55,2.4; stroke-dashoffset: 0; stroke: #808080; stroke-opacity: 0.5; stroke-width: 1.5"/>
   </g>
   <g id="line2d_57">
    <path d="M 309.256443 122.568148 
L 310.584713 124.098467 
L 311.912984 125.422629 
L 313.241254 126.334477 
L 314.569524 127.65864 
L 315.897794 128.982802 
L 317.226064 130.719278 
L 318.554334 132.249597 
L 319.882605 133.779917 
L 321.210875 135.104079 
L 322.539145 135.80977 
L 323.867415 136.515461 
L 325.195685 136.602682 
L 326.523955 136.689902 
L 327.852226 136.158651 
L 329.180496 135.421244 
L 330.508766 134.683836 
L 331.837036 134.564899 
L 333.165306 134.858276 
L 334.493576 135.563968 
L 335.821847 136.269659 
L 337.150117 136.97535 
L 338.478387 137.474884 
L 339.806657 137.974419 
L 341.134927 138.886267 
L 342.463198 141.035057 
L 343.791468 143.596162 
L 345.119738 145.951109 
L 346.448008 147.893742 
L 347.776278 148.80559 
L 349.104548 149.717439 
L 350.432819 150.835444 
L 351.761089 151.747292 
L 353.089359 152.65914 
L 354.417629 152.746361 
L 355.745899 153.039738 
L 357.074169 153.126958 
L 358.40244 154.038806 
L 359.73071 153.91987 
L 361.05898 153.594776 
L 362.38725 153.063525 
L 363.71552 152.944589 
L 365.04379 153.031809 
L 366.372061 152.912872 
L 367.700331 153.000092 
L 369.028601 152.881156 
L 370.356871 152.968376 
L 371.685141 152.437125 
L 373.013412 152.112031 
L 374.341682 151.374624 
L 375.669952 150.843373 
L 376.998222 150.105965 
L 378.326492 149.162401 
L 379.654762 148.218836 
L 380.983033 147.069114 
L 382.311303 146.125549 
L 383.639573 144.563514 
L 384.967843 143.619949 
L 386.296113 142.676384 
L 387.624383 142.557447 
L 388.952654 144.293924 
L 390.280924 144.999615 
L 391.609194 142.612951 
L 392.937464 139.195502 
L 394.265734 136.396525 
L 395.594004 134.216018 
L 396.922275 132.241668 
L 398.250545 130.267319 
L 399.578815 128.499126 
L 400.907085 127.349404 
L 402.235355 125.993525 
L 403.563625 125.049961 
L 404.891896 123.487925 
L 406.220166 122.132046 
L 407.548436 120.363853 
L 408.876706 118.801818 
L 410.204976 117.239782 
L 411.533247 115.883903 
L 412.861517 114.321868 
L 414.189787 113.172146 
L 415.518057 111.816267 
L 416.846327 110.872702 
L 418.174597 109.516824 
L 419.502868 108.779416 
L 420.831138 107.21738 
L 422.159408 105.861501 
L 423.487678 104.299466 
L 424.815948 102.531273 
L 426.144218 100.969237 
L 427.472489 98.788731 
L 428.800759 97.226695 
L 430.129029 94.633874 
L 431.457299 92.865681 
L 432.785569 90.272861 
L 434.113839 87.886197 
L 435.44211 85.087219 
L 436.77038 82.082084 
L 438.09865 79.489264 
L 439.42692 76.277972 
L 440.75519 73.685151 
L 442.083461 70.267702 
L 443.411731 67.674882 
L 444.740001 64.669747 
L 446.068271 62.283083 
L 447.396541 59.89642 
L 448.724811 57.715913 
L 450.053082 56.153877 
L 451.381352 54.385684 
L 452.709622 53.648277 
L 454.037892 52.910869 
L 455.366162 53.410403 
L 456.694432 53.909937 
L 458.022703 54.615629 
" clip-path="url(#p2ed1e13f03)" style="fill: none; stroke: #e6ab02; stroke-width: 1.5; stroke-linecap: square"/>
   </g>
   <g id="line2d_58">
    <path d="M 458.022703 174.04 
L 458.022703 13.293044 
" clip-path="url(#p2ed1e13f03)" style="fill: none; stroke-dasharray: 5.55,2.4; stroke-dashoffset: 0; stroke: #808080; stroke-opacity: 0.5; stroke-width: 1.5"/>
   </g>
   <g id="line2d_59">
    <path d="M 309.256443 122.568148 
L 310.585325 124.098467 
L 311.914207 125.422629 
L 313.243089 126.540634 
L 314.571971 127.864797 
L 315.900853 128.982802 
L 317.229735 130.719278 
L 318.558617 132.249597 
L 319.887499 133.986074 
L 321.216381 135.104079 
L 323.874145 136.515461 
L 326.531909 136.689902 
L 327.860791 136.158651 
L 330.518555 134.683836 
L 331.847438 134.358742 
L 334.505202 135.357811 
L 338.491848 137.474884 
L 339.82073 137.768262 
L 341.149612 138.886267 
L 342.478494 141.035057 
L 345.136258 145.951109 
L 346.46514 147.893742 
L 347.794022 149.011747 
L 349.122904 149.923596 
L 350.451786 151.041601 
L 353.10955 152.865297 
L 354.438432 153.158675 
L 355.767314 153.658209 
L 357.096196 153.951586 
L 358.425078 154.657277 
L 359.75396 154.538341 
L 361.082842 154.213247 
L 362.411724 153.681996 
L 363.740606 153.56306 
L 366.39837 153.7375 
L 369.056134 153.499627 
L 370.385016 153.793004 
L 371.713898 153.261753 
L 373.04278 152.936659 
L 374.371662 152.199252 
L 375.700544 151.668001 
L 378.358308 150.193186 
L 379.68719 149.249621 
L 381.016072 148.099899 
L 382.344954 147.156334 
L 383.673836 145.800456 
L 386.3316 143.913326 
L 387.660482 144.000546 
L 388.989364 145.737023 
L 390.318246 146.0304 
L 391.647128 143.849893 
L 392.97601 140.226287 
L 395.633774 135.45296 
L 396.962657 133.47861 
L 398.291539 131.710418 
L 399.620421 130.148382 
L 400.949303 128.792503 
L 402.278185 127.642781 
L 403.607067 126.699217 
L 404.935949 125.549495 
L 407.593713 122.425423 
L 408.922595 120.451074 
L 410.251477 118.889038 
L 411.580359 117.120845 
L 415.567005 113.053209 
L 416.895887 112.109644 
L 418.224769 110.959923 
L 419.553651 110.016358 
L 422.211415 107.3046 
L 426.198061 102.000022 
L 428.855825 98.051323 
L 431.513589 93.690309 
L 434.171353 88.504668 
L 438.157999 79.695421 
L 446.131291 62.901554 
L 447.460173 60.514891 
L 448.789055 58.540541 
L 450.117937 56.360034 
L 451.446819 55.210312 
L 452.775701 53.854434 
L 455.433465 53.61656 
L 456.762347 54.528408 
L 458.091229 55.2341 
L 459.420111 56.145948 
L 460.748993 56.851639 
L 462.077875 57.145017 
L 463.406758 57.644551 
L 464.73564 57.1133 
L 466.064522 57.818991 
L 467.393404 57.493898 
L 468.722286 57.374961 
L 471.38005 56.724773 
L 472.708932 56.811994 
L 474.037814 56.4869 
L 475.366696 56.986434 
L 476.695578 57.073655 
L 478.02446 57.779346 
L 479.353342 58.072723 
L 483.339988 59.571326 
L 484.66887 60.483174 
L 485.997752 60.982708 
L 487.326634 62.306871 
L 487.326634 62.306871 
" clip-path="url(#p2ed1e13f03)" style="fill: none; stroke: #a6761d; stroke-width: 1.5; stroke-linecap: square"/>
   </g>
   <g id="line2d_60">
    <path d="M 487.326634 174.04 
L 487.326634 13.293044 
" clip-path="url(#p2ed1e13f03)" style="fill: none; stroke-dasharray: 5.55,2.4; stroke-dashoffset: 0; stroke: #808080; stroke-opacity: 0.5; stroke-width: 1.5"/>
   </g>
   <g id="line2d_61">
    <path d="M 309.256443 122.568148 
L 311.90324 125.628786 
L 313.226639 126.540634 
L 315.873436 129.188959 
L 317.196835 130.719278 
L 318.520233 132.455754 
L 319.843632 133.986074 
L 321.167031 135.310236 
L 322.490429 136.015927 
L 323.813828 136.309304 
L 325.137226 136.396525 
L 326.460625 136.277588 
L 327.784024 135.746337 
L 330.430821 133.859208 
L 331.754219 133.534114 
L 333.077618 133.621334 
L 334.401016 134.120869 
L 335.724415 134.82656 
L 338.371212 136.650256 
L 339.694611 137.149791 
L 341.018009 138.061639 
L 342.341408 140.416586 
L 344.988205 146.157266 
L 346.311604 148.306056 
L 347.635002 149.836375 
L 348.958401 150.748224 
L 350.2818 151.866229 
L 351.605198 153.602705 
L 352.928597 155.545338 
L 354.251995 156.663344 
L 356.898793 158.48704 
L 358.222191 159.811202 
L 359.54559 160.310737 
L 360.868988 159.573329 
L 362.192387 159.042078 
L 363.515786 158.716985 
L 364.839184 158.804205 
L 366.162583 158.685268 
L 367.485981 158.154017 
L 372.779576 158.502898 
L 374.102974 158.177805 
L 375.426373 158.058868 
L 378.07317 156.584052 
L 379.396569 155.640488 
L 383.366764 154.046736 
L 386.013562 152.57192 
L 387.33696 152.65914 
L 388.660359 154.18946 
L 389.983757 155.513622 
L 391.307156 154.157743 
L 392.630555 150.121823 
L 393.953953 146.910532 
L 395.277352 144.523868 
L 396.60075 142.755675 
L 397.924149 141.605954 
L 400.570946 138.069568 
L 401.894345 137.126003 
L 403.217743 137.007067 
L 404.541142 137.094287 
L 405.864541 136.769193 
L 407.187939 135.001 
L 408.511338 132.820494 
L 409.834736 129.815359 
L 412.481534 124.835875 
L 413.804932 123.479996 
L 415.128331 122.330274 
L 419.098527 121.354993 
L 420.421925 120.823742 
L 421.745324 119.880177 
L 423.068722 118.524299 
L 424.392121 116.756106 
L 425.71552 114.781756 
L 428.362317 110.214586 
L 431.009114 105.235101 
L 433.655911 99.018675 
L 437.626107 88.972486 
L 440.272904 83.580687 
L 442.919701 79.013517 
L 444.2431 77.039167 
L 445.566498 74.85866 
L 446.889897 73.296625 
L 448.213296 71.528432 
L 450.860093 69.228988 
L 452.183491 68.491581 
L 453.50689 68.166487 
L 454.830289 68.04755 
L 457.477086 68.221991 
L 458.800484 68.515368 
L 460.123883 68.602588 
L 462.77068 69.189343 
L 465.417477 70.188411 
L 466.740876 70.481789 
L 469.387673 69.831601 
L 472.03447 68.7691 
L 474.681268 68.118912 
L 477.328065 68.705667 
L 485.268456 72.939814 
L 487.915253 73.938883 
L 489.238652 74.026103 
L 490.562051 74.31948 
L 493.208848 75.318549 
L 494.532246 76.02424 
L 497.179044 77.023309 
L 498.502442 77.316686 
L 499.825841 77.403906 
L 501.149239 77.28497 
L 505.119435 76.309688 
L 506.442834 75.778438 
L 507.766232 75.659501 
L 510.41303 75.009313 
L 511.736428 75.302691 
L 513.059827 75.183754 
L 514.383225 75.889445 
L 514.383225 75.889445 
" clip-path="url(#p2ed1e13f03)" style="fill: none; stroke: #666666; stroke-width: 1.5; stroke-linecap: square"/>
   </g>
   <g id="line2d_62">
    <path d="M 514.383225 174.04 
L 514.383225 13.293044 
" clip-path="url(#p2ed1e13f03)" style="fill: none; stroke-dasharray: 5.55,2.4; stroke-dashoffset: 0; stroke: #808080; stroke-opacity: 0.5; stroke-width: 1.5"/>
   </g>
   <g id="line2d_63">
    <path d="M 309.256443 122.568148 
L 310.57913 124.304624 
L 311.901817 125.834943 
L 314.547191 128.070954 
L 315.869878 129.395116 
L 318.515252 132.455754 
L 319.837939 133.779917 
L 321.160625 134.897922 
L 322.483312 135.603613 
L 323.805999 135.89699 
L 325.128686 135.778054 
L 326.451373 135.45296 
L 329.096747 133.978145 
L 330.419434 133.03458 
L 331.742121 132.297172 
L 333.064808 132.178235 
L 334.387495 132.265456 
L 337.032868 134.089152 
L 338.355555 135.207157 
L 339.678242 136.119006 
L 341.000929 137.443168 
L 342.323616 139.591958 
L 344.96899 146.775737 
L 346.291677 149.542998 
L 347.614364 151.279474 
L 348.937051 152.39748 
L 350.259738 153.721642 
L 351.582425 155.664275 
L 352.905111 157.813065 
L 354.227798 159.343385 
L 355.550485 160.46139 
L 356.873172 161.991709 
L 358.195859 163.109714 
L 359.518546 163.403092 
L 362.16392 162.34059 
L 363.486607 162.221654 
L 364.809294 162.515031 
L 366.131981 161.98378 
L 367.454668 161.246372 
L 368.777355 160.921279 
L 372.745415 161.182939 
L 374.068102 161.476317 
L 375.390789 161.35738 
L 376.713476 160.826129 
L 379.35885 159.351314 
L 380.681537 158.820063 
L 383.326911 158.169876 
L 385.972284 156.69506 
L 387.294971 156.369966 
L 388.617658 157.694129 
L 389.940345 159.636762 
L 391.263032 159.311668 
L 393.908406 152.270614 
L 395.231093 149.471636 
L 396.55378 147.703443 
L 397.876467 146.141408 
L 399.199154 144.167058 
L 400.521841 141.780394 
L 401.844527 140.012201 
L 403.167214 139.274794 
L 404.489901 138.9497 
L 405.812588 138.418449 
L 407.135275 136.444099 
L 409.780649 131.670772 
L 411.103336 129.696422 
L 412.426023 127.92823 
L 413.74871 126.984665 
L 415.071397 126.659571 
L 416.394084 126.540634 
L 420.362144 126.802295 
L 421.684831 126.683358 
L 423.007518 126.358265 
L 424.330205 125.4147 
L 425.652892 124.058821 
L 426.975579 122.290628 
L 428.298266 120.316279 
L 430.94364 115.749108 
L 432.266327 113.362445 
L 434.9117 107.558332 
L 440.202448 95.537793 
L 442.847822 90.558309 
L 444.170509 88.583959 
L 445.493196 87.021923 
L 449.461257 82.954287 
L 450.783943 82.010722 
L 452.10663 81.273315 
L 453.429317 80.742064 
L 454.752004 80.41697 
L 456.074691 79.885719 
L 457.397378 79.560626 
L 458.720065 79.029375 
L 460.042752 78.704281 
L 461.365439 78.997659 
L 462.688126 79.497193 
L 464.010813 80.202884 
L 465.3335 80.702418 
L 467.978873 80.876859 
L 473.269621 79.576484 
L 474.592308 79.457547 
L 475.914995 79.132453 
L 478.560369 78.89458 
L 481.205743 79.069021 
L 482.528429 79.362398 
L 491.787238 79.97294 
L 495.755299 80.853072 
L 497.077986 81.76492 
L 501.046046 83.881994 
L 502.368733 84.175371 
L 503.69142 84.056434 
L 505.014107 84.143654 
L 506.336794 83.818561 
L 507.659481 83.905781 
L 508.982168 84.405315 
L 510.304855 85.111006 
L 512.950229 87.759331 
L 515.595602 90.81997 
L 518.240976 93.468294 
L 520.88635 95.704305 
L 522.209037 96.203839 
L 523.531724 96.497216 
L 524.854411 95.965965 
L 526.177098 95.228558 
L 528.822472 92.929114 
L 531.467845 89.805043 
L 534.113219 86.268657 
L 536.758593 82.319958 
L 538.08128 80.757922 
L 539.403967 79.402043 
L 540.726654 78.458479 
L 542.049341 77.927228 
L 542.049341 77.927228 
" clip-path="url(#p2ed1e13f03)" style="fill: none; stroke: #e41a1c; stroke-width: 1.5; stroke-linecap: square"/>
   </g>
   <g id="line2d_64">
    <path d="M 542.049341 174.04 
L 542.049341 13.293044 
" clip-path="url(#p2ed1e13f03)" style="fill: none; stroke-dasharray: 5.55,2.4; stroke-dashoffset: 0; stroke: #808080; stroke-opacity: 0.5; stroke-width: 1.5"/>
   </g>
   <g id="line2d_65">
    <path d="M 309.256443 122.568148 
L 311.894412 126.0411 
L 313.213396 126.952948 
L 314.53238 128.070954 
L 318.489333 132.04344 
L 319.808317 133.57376 
L 321.127302 134.485608 
L 322.446286 134.985142 
L 323.76527 135.072362 
L 325.084255 134.953426 
L 327.722223 133.890924 
L 330.360192 132.003795 
L 331.679176 131.266387 
L 332.99816 130.941293 
L 334.317145 130.822357 
L 335.636129 131.528048 
L 336.955113 132.439896 
L 338.274098 133.764058 
L 339.593082 134.882064 
L 340.912066 136.206226 
L 342.23105 138.76733 
L 344.869019 146.157266 
L 346.188003 149.336841 
L 347.506988 151.691788 
L 348.825972 153.222108 
L 350.144956 154.54627 
L 351.46394 156.076589 
L 352.782925 158.225379 
L 354.101909 159.755699 
L 358.058862 163.728185 
L 359.377846 164.021563 
L 360.69683 163.696469 
L 362.015815 163.165218 
L 363.334799 162.840125 
L 364.653783 162.927345 
L 365.972768 162.808408 
L 367.291752 162.071 
L 368.610736 161.745907 
L 371.248705 162.332661 
L 372.567689 162.832195 
L 375.205658 163.41895 
L 376.524642 162.681542 
L 377.843626 162.150291 
L 380.481595 160.675476 
L 381.800579 160.556539 
L 384.438548 161.143294 
L 387.076516 161.317734 
L 388.395501 162.023426 
L 389.714485 163.759902 
L 391.033469 163.434808 
L 392.352453 160.429673 
L 393.671438 157.012225 
L 394.990422 154.213247 
L 396.309406 152.238897 
L 397.628391 151.089176 
L 398.947375 149.52714 
L 401.585343 144.135341 
L 402.904328 142.367149 
L 404.223312 141.217427 
L 405.542296 140.480019 
L 406.861281 139.12414 
L 408.180265 137.355948 
L 409.499249 135.793912 
L 410.818233 134.64419 
L 412.137218 133.700626 
L 413.456202 133.169375 
L 414.775186 132.844281 
L 416.094171 132.725344 
L 418.732139 133.312099 
L 420.051123 133.399319 
L 421.370108 133.280382 
L 422.689092 133.367603 
L 424.008076 133.248666 
L 425.327061 132.923572 
L 426.646045 132.186164 
L 427.965029 131.036443 
L 429.284013 129.680564 
L 431.921982 125.731865 
L 433.240966 123.551358 
L 439.835888 110.793411 
L 442.473856 106.226241 
L 445.111825 102.277541 
L 446.430809 100.715506 
L 447.749794 98.947313 
L 450.387762 96.235555 
L 453.025731 93.111484 
L 454.344715 91.343291 
L 455.663699 89.781255 
L 458.301668 86.24487 
L 459.620652 84.888991 
L 460.939636 83.73927 
L 462.258621 83.001862 
L 464.896589 82.351674 
L 466.215574 82.438895 
L 467.534558 82.113801 
L 468.853542 81.58255 
L 471.491511 81.344677 
L 472.810495 81.431897 
L 474.129479 81.931431 
L 475.448464 82.224808 
L 476.767448 82.724343 
L 483.362369 84.191229 
L 489.957291 84.62733 
L 491.276275 84.508394 
L 492.595259 84.595614 
L 493.914244 85.095148 
L 495.233228 86.006997 
L 496.552212 87.743473 
L 497.871196 89.686106 
L 499.190181 92.041053 
L 501.828149 97.781733 
L 504.466118 104.140883 
L 507.104087 111.118505 
L 509.742055 117.271498 
L 512.380024 120.744451 
L 513.699008 122.068613 
L 515.017992 122.980462 
L 516.336977 123.686153 
L 518.974945 124.272907 
L 524.250882 124.621788 
L 525.569867 124.502852 
L 526.888851 123.971601 
L 528.207835 123.028036 
L 529.526819 121.672157 
L 530.845804 119.903965 
L 534.802757 113.156288 
L 537.440725 107.970646 
L 541.397678 99.161399 
L 542.716662 96.568578 
L 545.354631 92.619879 
L 546.673615 91.264 
L 547.992599 90.114278 
L 549.311584 89.376871 
L 550.630568 88.84562 
L 551.949552 88.93284 
L 553.268537 88.813903 
L 554.587521 88.901124 
L 555.906505 88.369873 
L 557.225489 87.632465 
L 558.544474 86.482743 
L 559.863458 85.126865 
L 561.182442 83.564829 
L 565.139395 78.260251 
L 566.45838 76.904372 
L 569.096348 74.604929 
L 570.415332 74.279835 
L 571.734317 73.748584 
L 573.053301 73.42349 
L 573.053301 73.42349 
" clip-path="url(#p2ed1e13f03)" style="fill: none; stroke: #377eb8; stroke-width: 1.5; stroke-linecap: square"/>
   </g>
   <g id="line2d_66">
    <path d="M 573.053301 174.04 
L 573.053301 13.293044 
" clip-path="url(#p2ed1e13f03)" style="fill: none; stroke-dasharray: 5.55,2.4; stroke-dashoffset: 0; stroke: #808080; stroke-opacity: 0.5; stroke-width: 1.5"/>
   </g>
   <g id="line2d_67">
    <path d="M 309.256443 122.568148 
L 310.575196 124.510781 
L 311.893949 126.0411 
L 313.212702 127.159105 
L 314.531455 128.070954 
L 315.850208 129.188959 
L 318.487714 131.837283 
L 319.806467 132.955289 
L 321.125219 133.867137 
L 322.443972 134.366671 
L 323.762725 134.453891 
L 325.081478 134.128798 
L 326.400231 133.597547 
L 327.718984 132.860139 
L 329.037737 132.328889 
L 330.35649 131.385324 
L 331.675243 130.647916 
L 332.993996 130.528979 
L 334.312749 130.6162 
L 335.631502 130.909577 
L 336.950254 132.233739 
L 338.269007 133.145587 
L 339.58776 134.263593 
L 340.906513 135.587755 
L 342.225266 138.148859 
L 344.862772 145.744952 
L 346.181525 148.924527 
L 347.500278 151.485631 
L 348.819031 153.222108 
L 350.137784 154.54627 
L 351.456537 156.076589 
L 352.775289 158.225379 
L 354.094042 159.755699 
L 355.412795 161.079861 
L 356.731548 162.61018 
L 358.050301 163.934342 
L 359.369054 164.640034 
L 360.687807 164.108783 
L 362.00656 163.783689 
L 363.325313 163.664753 
L 364.644066 163.95813 
L 365.962819 163.839193 
L 368.600324 162.776692 
L 369.919077 162.863912 
L 371.23783 163.363446 
L 372.556583 163.656823 
L 373.875336 164.156358 
L 375.194089 164.243578 
L 376.512842 163.50617 
L 377.831595 162.974919 
L 380.469101 161.500104 
L 381.787854 161.793481 
L 384.425359 164.441806 
L 387.062865 165.440874 
L 388.381618 165.528095 
L 389.700371 166.233786 
L 391.019124 166.321006 
L 392.337877 163.934342 
L 393.65663 160.929208 
L 394.975383 158.542544 
L 396.294136 157.186665 
L 397.612889 156.655415 
L 398.931642 156.330321 
L 400.250394 154.768285 
L 401.569147 152.381621 
L 402.8879 150.407272 
L 404.206653 149.463707 
L 405.525406 148.726299 
L 406.844159 147.782734 
L 408.162912 146.426856 
L 409.481665 144.86482 
L 410.800418 143.508941 
L 412.119171 142.565377 
L 413.437924 141.827969 
L 416.075429 140.765467 
L 418.712935 140.527594 
L 421.350441 141.114348 
L 423.987947 141.288789 
L 425.3067 140.963695 
L 426.625453 141.050915 
L 429.262959 140.813042 
L 430.581712 140.075634 
L 431.900464 138.719756 
L 433.219217 136.951563 
L 435.856723 133.002863 
L 441.131735 124.074679 
L 445.087994 116.502374 
L 447.725499 112.347518 
L 449.044252 110.579325 
L 450.363005 109.017289 
L 451.681758 107.249097 
L 454.319264 103.300397 
L 456.95677 99.145541 
L 458.275523 97.377348 
L 459.594276 96.227626 
L 460.913029 95.284062 
L 462.231781 94.546654 
L 463.550534 94.015403 
L 464.869287 93.277995 
L 467.506793 92.215494 
L 470.144299 91.565306 
L 472.781805 91.327433 
L 474.100558 91.414653 
L 478.056816 90.439372 
L 480.694322 89.376871 
L 483.331828 88.726683 
L 484.650581 88.607746 
L 485.969334 88.694967 
L 487.288087 89.194501 
L 488.60684 89.900192 
L 489.925593 90.81204 
L 491.244346 91.930046 
L 492.563099 93.460365 
L 493.881851 95.196841 
L 495.200604 97.139475 
L 497.83811 101.643212 
L 500.475616 106.14695 
L 504.431875 112.799477 
L 507.069381 118.127843 
L 511.025639 127.048098 
L 512.344392 129.609202 
L 513.663145 131.551835 
L 514.981898 132.875998 
L 517.619404 134.699694 
L 518.938157 135.405385 
L 520.25691 136.317234 
L 521.575663 137.435239 
L 524.213169 138.434307 
L 525.531921 138.727685 
L 529.48818 138.989345 
L 530.806933 138.664252 
L 532.125686 138.133001 
L 533.444439 137.395593 
L 536.081945 135.09615 
L 537.400698 133.534114 
L 538.719451 132.178235 
L 541.356956 129.054164 
L 543.994462 127.167034 
L 545.313215 126.429627 
L 546.631968 125.898376 
L 550.588227 124.923095 
L 553.225733 124.685221 
L 554.544486 124.360128 
L 555.863239 123.62272 
L 557.181991 122.472998 
L 558.500744 120.910962 
L 559.819497 119.14277 
L 562.457003 115.19407 
L 573.007026 97.956173 
L 574.325779 96.600295 
L 575.644532 95.65673 
L 576.963285 95.331636 
L 579.600791 95.093763 
L 580.919544 95.180983 
L 583.55705 94.94311 
L 584.875803 95.236487 
L 586.194556 95.736021 
L 587.513309 96.647869 
L 588.832061 98.384346 
L 590.150814 100.326979 
L 591.469567 102.063455 
L 592.78832 103.387617 
L 594.107073 104.093309 
L 595.425826 104.386686 
L 602.019591 106.884357 
L 603.338344 107.796206 
L 604.657096 108.914211 
L 605.975849 110.856844 
L 607.294602 113.211791 
L 608.613355 115.979053 
L 609.932108 117.921686 
L 611.250861 119.245848 
L 611.250861 119.245848 
" clip-path="url(#p2ed1e13f03)" style="fill: none; stroke: #4daf4a; stroke-width: 1.5; stroke-linecap: square"/>
   </g>
   <g id="line2d_68">
    <path d="M 611.250861 174.04 
L 611.250861 13.293044 
" clip-path="url(#p2ed1e13f03)" style="fill: none; stroke-dasharray: 5.55,2.4; stroke-dashoffset: 0; stroke: #808080; stroke-opacity: 0.5; stroke-width: 1.5"/>
   </g>
   <g id="line2d_69">
    <path d="M 309.256443 122.568148 
L 310.572288 124.510781 
L 311.888134 126.0411 
L 313.203979 127.159105 
L 314.519824 128.070954 
L 317.151515 130.306964 
L 319.783205 132.955289 
L 321.099051 133.66098 
L 322.414896 134.160514 
L 323.730741 134.247734 
L 326.362432 133.597547 
L 331.625813 130.647916 
L 332.941658 130.322822 
L 334.257503 130.410043 
L 335.573348 130.909577 
L 338.205039 133.145587 
L 339.520884 134.057436 
L 340.836729 135.381598 
L 342.152575 137.736545 
L 344.784265 145.332638 
L 346.10011 148.71837 
L 347.415956 151.279474 
L 348.731801 153.015951 
L 350.047646 154.340113 
L 351.363492 155.870432 
L 352.679337 158.019222 
L 353.995182 159.549542 
L 355.311027 160.873704 
L 356.626873 162.404023 
L 357.942718 163.728185 
L 359.258563 164.433877 
L 363.206099 163.458596 
L 364.521944 163.751973 
L 365.837789 163.839193 
L 367.153635 163.307942 
L 368.46948 162.570535 
L 369.785325 162.657755 
L 371.10117 163.157289 
L 372.417016 163.450666 
L 373.732861 163.950201 
L 375.048706 164.037421 
L 376.364551 163.50617 
L 378.996242 162.031355 
L 380.312087 161.500104 
L 381.627932 161.587324 
L 382.943778 162.70533 
L 384.259623 164.235649 
L 385.575468 164.94134 
L 386.891314 165.440874 
L 388.207159 165.528095 
L 389.523004 166.233786 
L 390.838849 166.73332 
L 392.154695 164.552813 
L 393.47054 161.547679 
L 394.786385 158.954858 
L 396.10223 157.392822 
L 397.418076 156.861572 
L 398.733921 156.536478 
L 400.049766 155.386756 
L 402.681457 151.025743 
L 403.997302 150.082178 
L 406.628992 148.607362 
L 407.944838 147.251484 
L 410.576528 144.127412 
L 411.892373 143.183848 
L 414.524064 141.709032 
L 417.155755 141.058845 
L 418.4716 140.939908 
L 419.787445 141.233285 
L 421.10329 141.732819 
L 422.419136 141.82004 
L 425.050826 141.582166 
L 426.366671 141.669386 
L 428.998362 141.431513 
L 430.314207 141.106419 
L 431.630052 139.956698 
L 432.945898 138.394662 
L 436.893433 132.471613 
L 439.525124 128.110599 
L 444.788505 117.739316 
L 447.420196 113.58446 
L 448.736041 111.816267 
L 450.051886 110.254231 
L 452.683577 106.717846 
L 456.631112 100.382483 
L 457.946958 98.61429 
L 459.262803 97.052254 
L 460.578648 96.10869 
L 463.210339 94.633874 
L 464.526184 94.102623 
L 465.842029 93.365216 
L 468.47372 92.302714 
L 472.421255 91.945904 
L 473.737101 92.033124 
L 477.684637 91.057843 
L 479.000482 90.320435 
L 480.316327 89.789185 
L 481.632172 89.464091 
L 482.948018 88.93284 
L 484.263863 88.813903 
L 485.579708 88.901124 
L 486.895553 89.194501 
L 489.527244 91.018197 
L 492.158934 93.666522 
L 494.790625 97.139475 
L 497.422315 101.643212 
L 500.054006 106.14695 
L 505.317387 114.948268 
L 507.949077 120.276633 
L 511.896613 128.578417 
L 513.212459 130.727207 
L 514.528304 132.463684 
L 515.844149 133.581689 
L 519.791685 135.698763 
L 521.10753 136.610611 
L 522.423375 137.316302 
L 523.739221 137.815836 
L 527.686756 138.695968 
L 529.002602 138.783188 
L 530.318447 138.664252 
L 532.950137 137.60175 
L 534.265983 136.864343 
L 535.581828 135.714621 
L 536.897673 134.771056 
L 539.529364 132.471613 
L 542.161054 130.584483 
L 546.10859 128.990731 
L 547.424435 128.871794 
L 548.740281 128.546701 
L 554.003662 128.070954 
L 555.319507 127.333546 
L 556.635352 126.389981 
L 557.951197 125.034102 
L 560.582888 121.497717 
L 567.162114 110.389026 
L 572.425495 100.636214 
L 573.741341 98.868022 
L 575.057186 97.512143 
L 576.373031 96.568578 
L 579.004722 95.918391 
L 580.320567 96.005611 
L 581.636412 95.680517 
L 584.268103 95.442644 
L 585.583948 95.529864 
L 586.899793 96.441712 
L 588.215638 97.559718 
L 590.847329 101.03267 
L 592.163174 102.562989 
L 593.479019 103.268681 
L 594.794865 103.768215 
L 597.426555 104.35497 
L 598.7424 104.854504 
L 600.058246 105.147881 
L 601.374091 105.647415 
L 602.689936 106.559264 
L 604.005782 107.677269 
L 605.321627 109.619902 
L 607.953317 114.535954 
L 609.269163 117.097058 
L 610.585008 118.833534 
L 611.900853 119.951539 
L 614.532544 120.950608 
L 615.848389 121.656299 
L 617.164234 122.568148 
L 617.164234 122.568148 
" clip-path="url(#p2ed1e13f03)" style="fill: none; stroke: #984ea3; stroke-width: 1.5; stroke-linecap: square"/>
   </g>
   <g id="line2d_70">
    <path d="M 617.164234 174.04 
L 617.164234 13.293044 
" clip-path="url(#p2ed1e13f03)" style="fill: none; stroke-dasharray: 5.55,2.4; stroke-dashoffset: 0; stroke: #808080; stroke-opacity: 0.5; stroke-width: 1.5"/>
   </g>
   <g id="patch_8">
    <path d="M 293.861054 174.04 
L 293.861054 13.293044 
" style="fill: none; stroke: #000000; stroke-width: 0.8; stroke-linejoin: miter; stroke-linecap: square"/>
   </g>
   <g id="patch_9">
    <path d="M 632.559624 174.04 
L 632.559624 13.293044 
" style="fill: none; stroke: #000000; stroke-width: 0.8; stroke-linejoin: miter; stroke-linecap: square"/>
   </g>
   <g id="patch_10">
    <path d="M 293.861054 174.04 
L 632.559624 174.04 
" style="fill: none; stroke: #000000; stroke-width: 0.8; stroke-linejoin: miter; stroke-linecap: square"/>
   </g>
   <g id="patch_11">
    <path d="M 293.861054 13.293044 
L 632.559624 13.293044 
" style="fill: none; stroke: #000000; stroke-width: 0.8; stroke-linejoin: miter; stroke-linecap: square"/>
   </g>
   <g id="text_41">
    <!-- 1 -->
    <g transform="translate(330.604145 101.111961) scale(0.1 -0.1)">
     <use xlink:href="#DejaVuSans-31"/>
    </g>
   </g>
   <g id="text_42">
    <!-- 2 -->
    <g transform="translate(352.096392 115.907691) scale(0.1 -0.1)">
     <use xlink:href="#DejaVuSans-32"/>
    </g>
   </g>
   <g id="text_43">
    <!-- 3 -->
    <g transform="translate(396.204085 93.309712) scale(0.1 -0.1)">
     <use xlink:href="#DejaVuSans-33"/>
    </g>
   </g>
   <g id="text_44">
    <!-- 4 -->
    <g transform="translate(417.167416 73.471065) scale(0.1 -0.1)">
     <use xlink:href="#DejaVuSans-34"/>
    </g>
   </g>
   <g id="text_45">
    <!-- 5 -->
    <g transform="translate(459.332684 18.538154) scale(0.1 -0.1)">
     <use xlink:href="#DejaVuSans-35"/>
    </g>
   </g>
   <g id="text_46">
    <!-- 6 -->
    <g transform="translate(488.636615 26.229396) scale(0.1 -0.1)">
     <use xlink:href="#DejaVuSans-36"/>
    </g>
   </g>
   <g id="text_47">
    <!-- 7 -->
    <g transform="translate(515.693207 39.81197) scale(0.1 -0.1)">
     <use xlink:href="#DejaVuSans-37"/>
    </g>
   </g>
   <g id="text_48">
    <!-- 8 -->
    <g transform="translate(543.359322 41.849753) scale(0.1 -0.1)">
     <use xlink:href="#DejaVuSans-38"/>
    </g>
   </g>
   <g id="text_49">
    <!-- 9 -->
    <g transform="translate(574.363282 37.346015) scale(0.1 -0.1)">
     <use xlink:href="#DejaVuSans-39"/>
    </g>
   </g>
   <g id="text_50">
    <!-- 10 -->
    <g transform="translate(612.560843 83.168373) scale(0.1 -0.1)">
     <use xlink:href="#DejaVuSans-31"/>
     <use xlink:href="#DejaVuSans-30" x="63.623047"/>
    </g>
   </g>
   <g id="text_51">
    <!-- 11 -->
    <g transform="translate(618.474216 86.490673) scale(0.1 -0.1)">
     <use xlink:href="#DejaVuSans-31"/>
     <use xlink:href="#DejaVuSans-31" x="63.623047"/>
    </g>
   </g>
  </g>
 </g>
 <defs>
  <clipPath id="p542ded54e8">
   <rect x="66.62" y="13.293044" width="169.349285" height="160.746956"/>
  </clipPath>
  <clipPath id="p2ed1e13f03">
   <rect x="293.861054" y="13.293044" width="338.69857" height="160.746956"/>
  </clipPath>
 </defs>
</svg>
