<?xml version="1.0" encoding="utf-8" standalone="no"?>
<!DOCTYPE svg PUBLIC "-//W3C//DTD SVG 1.1//EN"
  "http://www.w3.org/Graphics/SVG/1.1/DTD/svg11.dtd">
<svg xmlns:xlink="http://www.w3.org/1999/xlink" width="648pt" height="216pt" viewBox="0 0 648 216" xmlns="http://www.w3.org/2000/svg" version="1.1">
 <metadata>
  <rdf:RDF xmlns:dc="http://purl.org/dc/elements/1.1/" xmlns:cc="http://creativecommons.org/ns#" xmlns:rdf="http://www.w3.org/1999/02/22-rdf-syntax-ns#">
   <cc:Work>
    <dc:type rdf:resource="http://purl.org/dc/dcmitype/StillImage"/>
    <dc:date>2024-05-07T14:04:50.944355</dc:date>
    <dc:format>image/svg+xml</dc:format>
    <dc:creator>
     <cc:Agent>
      <dc:title>Matplotlib v3.8.4, https://matplotlib.org/</dc:title>
     </cc:Agent>
    </dc:creator>
   </cc:Work>
  </rdf:RDF>
 </metadata>
 <defs>
  <style type="text/css">*{stroke-linejoin: round; stroke-linecap: butt}</style>
 </defs>
 <g id="figure_1">
  <g id="patch_1">
   <path d="M 0 216 
L 648 216 
L 648 0 
L 0 0 
z
" style="fill: #ffffff"/>
  </g>
  <g id="axes_1">
   <g id="patch_2">
    <path d="M 66.62 174.04 
L 238.752503 174.04 
L 238.752503 11.830064 
L 66.62 11.830064 
z
" style="fill: #ffffff"/>
   </g>
   <g id="PathCollection_1">
    <defs>
     <path id="m9007ecbc4d" d="M 0 3 
C 0.795609 3 1.55874 2.683901 2.12132 2.12132 
C 2.683901 1.55874 3 0.795609 3 0 
C 3 -0.795609 2.683901 -1.55874 2.12132 -2.12132 
C 1.55874 -2.683901 0.795609 -3 0 -3 
C -0.795609 -3 -1.55874 -2.683901 -2.12132 -2.12132 
C -2.683901 -1.55874 -3 -0.795609 -3 0 
C -3 0.795609 -2.683901 1.55874 -2.12132 2.12132 
C -1.55874 2.683901 -0.795609 3 0 3 
z
" style="stroke: #000000"/>
    </defs>
    <g clip-path="url(#ped76feae6b)">
     <use xlink:href="#m9007ecbc4d" x="78.491207" y="162.853108" style="stroke: #000000"/>
    </g>
   </g>
   <g id="PathCollection_2">
    <defs>
     <path id="m026ca82ca2" d="M 0 3 
C 0.795609 3 1.55874 2.683901 2.12132 2.12132 
C 2.683901 1.55874 3 0.795609 3 0 
C 3 -0.795609 2.683901 -1.55874 2.12132 -2.12132 
C 1.55874 -2.683901 0.795609 -3 0 -3 
C -0.795609 -3 -1.55874 -2.683901 -2.12132 -2.12132 
C -2.683901 -1.55874 -3 -0.795609 -3 0 
C -3 0.795609 -2.683901 1.55874 -2.12132 2.12132 
C -1.55874 2.683901 -0.795609 3 0 3 
z
" style="stroke: #1b9e77"/>
    </defs>
    <g clip-path="url(#ped76feae6b)">
     <use xlink:href="#m026ca82ca2" x="86.469965" y="150.435719" style="fill: #1b9e77; stroke: #1b9e77"/>
    </g>
   </g>
   <g id="PathCollection_3">
    <defs>
     <path id="md34d4d4ef5" d="M 0 3 
C 0.795609 3 1.55874 2.683901 2.12132 2.12132 
C 2.683901 1.55874 3 0.795609 3 0 
C 3 -0.795609 2.683901 -1.55874 2.12132 -2.12132 
C 1.55874 -2.683901 0.795609 -3 0 -3 
C -0.795609 -3 -1.55874 -2.683901 -2.12132 -2.12132 
C -2.683901 -1.55874 -3 -0.795609 -3 0 
C -3 0.795609 -2.683901 1.55874 -2.12132 2.12132 
C -1.55874 2.683901 -0.795609 3 0 3 
z
" style="stroke: #d95f02"/>
    </defs>
    <g clip-path="url(#ped76feae6b)">
     <use xlink:href="#md34d4d4ef5" x="94.565125" y="136.408668" style="fill: #d95f02; stroke: #d95f02"/>
    </g>
   </g>
   <g id="PathCollection_4">
    <defs>
     <path id="m0cfb9b0928" d="M 0 3 
C 0.795609 3 1.55874 2.683901 2.12132 2.12132 
C 2.683901 1.55874 3 0.795609 3 0 
C 3 -0.795609 2.683901 -1.55874 2.12132 -2.12132 
C 1.55874 -2.683901 0.795609 -3 0 -3 
C -0.795609 -3 -1.55874 -2.683901 -2.12132 -2.12132 
C -2.683901 -1.55874 -3 -0.795609 -3 0 
C -3 0.795609 -2.683901 1.55874 -2.12132 2.12132 
C -1.55874 2.683901 -0.795609 3 0 3 
z
" style="stroke: #7570b3"/>
    </defs>
    <g clip-path="url(#ped76feae6b)">
     <use xlink:href="#m0cfb9b0928" x="112.310983" y="109.299924" style="fill: #7570b3; stroke: #7570b3"/>
    </g>
   </g>
   <g id="PathCollection_5">
    <defs>
     <path id="ma937d2eda5" d="M 0 3 
C 0.795609 3 1.55874 2.683901 2.12132 2.12132 
C 2.683901 1.55874 3 0.795609 3 0 
C 3 -0.795609 2.683901 -1.55874 2.12132 -2.12132 
C 1.55874 -2.683901 0.795609 -3 0 -3 
C -0.795609 -3 -1.55874 -2.683901 -2.12132 -2.12132 
C -2.683901 -1.55874 -3 -0.795609 -3 0 
C -3 0.795609 -2.683901 1.55874 -2.12132 2.12132 
C -1.55874 2.683901 -0.795609 3 0 3 
z
" style="stroke: #e7298a"/>
    </defs>
    <g clip-path="url(#ped76feae6b)">
     <use xlink:href="#ma937d2eda5" x="121.019893" y="96.856985" style="fill: #e7298a; stroke: #e7298a"/>
    </g>
   </g>
   <g id="PathCollection_6">
    <defs>
     <path id="m72159aefce" d="M 0 3 
C 0.795609 3 1.55874 2.683901 2.12132 2.12132 
C 2.683901 1.55874 3 0.795609 3 0 
C 3 -0.795609 2.683901 -1.55874 2.12132 -2.12132 
C 1.55874 -2.683901 0.795609 -3 0 -3 
C -0.795609 -3 -1.55874 -2.683901 -2.12132 -2.12132 
C -2.683901 -1.55874 -3 -0.795609 -3 0 
C -3 0.795609 -2.683901 1.55874 -2.12132 2.12132 
C -1.55874 2.683901 -0.795609 3 0 3 
z
" style="stroke: #66a61e"/>
    </defs>
    <g clip-path="url(#ped76feae6b)">
     <use xlink:href="#m72159aefce" x="138.511786" y="71.817805" style="fill: #66a61e; stroke: #66a61e"/>
    </g>
   </g>
   <g id="PathCollection_7">
    <defs>
     <path id="m6afdafbeea" d="M 0 3 
C 0.795609 3 1.55874 2.683901 2.12132 2.12132 
C 2.683901 1.55874 3 0.795609 3 0 
C 3 -0.795609 2.683901 -1.55874 2.12132 -2.12132 
C 1.55874 -2.683901 0.795609 -3 0 -3 
C -0.795609 -3 -1.55874 -2.683901 -2.12132 -2.12132 
C -2.683901 -1.55874 -3 -0.795609 -3 0 
C -3 0.795609 -2.683901 1.55874 -2.12132 2.12132 
C -1.55874 2.683901 -0.795609 3 0 3 
z
" style="stroke: #e6ab02"/>
    </defs>
    <g clip-path="url(#ped76feae6b)">
     <use xlink:href="#m6afdafbeea" x="150.638652" y="54.36703" style="fill: #e6ab02; stroke: #e6ab02"/>
    </g>
   </g>
   <g id="PathCollection_8">
    <defs>
     <path id="m2d7c031885" d="M 0 3 
C 0.795609 3 1.55874 2.683901 2.12132 2.12132 
C 2.683901 1.55874 3 0.795609 3 0 
C 3 -0.795609 2.683901 -1.55874 2.12132 -2.12132 
C 1.55874 -2.683901 0.795609 -3 0 -3 
C -0.795609 -3 -1.55874 -2.683901 -2.12132 -2.12132 
C -2.683901 -1.55874 -3 -0.795609 -3 0 
C -3 0.795609 -2.683901 1.55874 -2.12132 2.12132 
C -1.55874 2.683901 -0.795609 3 0 3 
z
" style="stroke: #a6761d"/>
    </defs>
    <g clip-path="url(#ped76feae6b)">
     <use xlink:href="#m2d7c031885" x="165.093538" y="43.763704" style="fill: #a6761d; stroke: #a6761d"/>
    </g>
   </g>
   <g id="PathCollection_9">
    <defs>
     <path id="mdc2e399d0a" d="M 0 3 
C 0.795609 3 1.55874 2.683901 2.12132 2.12132 
C 2.683901 1.55874 3 0.795609 3 0 
C 3 -0.795609 2.683901 -1.55874 2.12132 -2.12132 
C 1.55874 -2.683901 0.795609 -3 0 -3 
C -0.795609 -3 -1.55874 -2.683901 -2.12132 -2.12132 
C -2.683901 -1.55874 -3 -0.795609 -3 0 
C -3 0.795609 -2.683901 1.55874 -2.12132 2.12132 
C -1.55874 2.683901 -0.795609 3 0 3 
z
" style="stroke: #666666"/>
    </defs>
    <g clip-path="url(#ped76feae6b)">
     <use xlink:href="#mdc2e399d0a" x="182.119827" y="37.759411" style="fill: #666666; stroke: #666666"/>
    </g>
   </g>
   <g id="PathCollection_10">
    <defs>
     <path id="m8b25b0de14" d="M 0 3 
C 0.795609 3 1.55874 2.683901 2.12132 2.12132 
C 2.683901 1.55874 3 0.795609 3 0 
C 3 -0.795609 2.683901 -1.55874 2.12132 -2.12132 
C 1.55874 -2.683901 0.795609 -3 0 -3 
C -0.795609 -3 -1.55874 -2.683901 -2.12132 -2.12132 
C -2.683901 -1.55874 -3 -0.795609 -3 0 
C -3 0.795609 -2.683901 1.55874 -2.12132 2.12132 
C -1.55874 2.683901 -0.795609 3 0 3 
z
" style="stroke: #e41a1c"/>
    </defs>
    <g clip-path="url(#ped76feae6b)">
     <use xlink:href="#m8b25b0de14" x="201.241334" y="32.470523" style="fill: #e41a1c; stroke: #e41a1c"/>
    </g>
   </g>
   <g id="PathCollection_11">
    <defs>
     <path id="mc4c86b3381" d="M 0 3 
C 0.795609 3 1.55874 2.683901 2.12132 2.12132 
C 2.683901 1.55874 3 0.795609 3 0 
C 3 -0.795609 2.683901 -1.55874 2.12132 -2.12132 
C 1.55874 -2.683901 0.795609 -3 0 -3 
C -0.795609 -3 -1.55874 -2.683901 -2.12132 -2.12132 
C -2.683901 -1.55874 -3 -0.795609 -3 0 
C -3 0.795609 -2.683901 1.55874 -2.12132 2.12132 
C -1.55874 2.683901 -0.795609 3 0 3 
z
" style="stroke: #377eb8"/>
    </defs>
    <g clip-path="url(#ped76feae6b)">
     <use xlink:href="#mc4c86b3381" x="223.63265" y="24.677718" style="fill: #377eb8; stroke: #377eb8"/>
    </g>
   </g>
   <g id="PathCollection_12">
    <defs>
     <path id="mad562b6c49" d="M 0 3 
C 0.795609 3 1.55874 2.683901 2.12132 2.12132 
C 2.683901 1.55874 3 0.795609 3 0 
C 3 -0.795609 2.683901 -1.55874 2.12132 -2.12132 
C 1.55874 -2.683901 0.795609 -3 0 -3 
C -0.795609 -3 -1.55874 -2.683901 -2.12132 -2.12132 
C -2.683901 -1.55874 -3 -0.795609 -3 0 
C -3 0.795609 -2.683901 1.55874 -2.12132 2.12132 
C -1.55874 2.683901 -0.795609 3 0 3 
z
" style="stroke: #4daf4a"/>
    </defs>
    <g clip-path="url(#ped76feae6b)">
     <use xlink:href="#mad562b6c49" x="226.881296" y="23.016956" style="fill: #4daf4a; stroke: #4daf4a"/>
    </g>
   </g>
   <g id="matplotlib.axis_1">
    <g id="xtick_1">
     <g id="line2d_1">
      <path d="M 69.009818 174.04 
L 69.009818 11.830064 
" clip-path="url(#ped76feae6b)" style="fill: none; stroke: #b0b0b0; stroke-width: 0.8; stroke-linecap: square"/>
     </g>
     <g id="line2d_2">
      <defs>
       <path id="m2962b35e0e" d="M 0 0 
L 0 3.5 
" style="stroke: #000000; stroke-width: 0.8"/>
      </defs>
      <g>
       <use xlink:href="#m2962b35e0e" x="69.009818" y="174.04" style="stroke: #000000; stroke-width: 0.8"/>
      </g>
     </g>
     <g id="text_1">
      <!-- 14.530 -->
      <g transform="translate(51.514505 188.638438) scale(0.1 -0.1)">
       <defs>
        <path id="DejaVuSans-31" d="M 794 531 
L 1825 531 
L 1825 4091 
L 703 3866 
L 703 4441 
L 1819 4666 
L 2450 4666 
L 2450 531 
L 3481 531 
L 3481 0 
L 794 0 
L 794 531 
z
" transform="scale(0.015625)"/>
        <path id="DejaVuSans-34" d="M 2419 4116 
L 825 1625 
L 2419 1625 
L 2419 4116 
z
M 2253 4666 
L 3047 4666 
L 3047 1625 
L 3713 1625 
L 3713 1100 
L 3047 1100 
L 3047 0 
L 2419 0 
L 2419 1100 
L 313 1100 
L 313 1709 
L 2253 4666 
z
" transform="scale(0.015625)"/>
        <path id="DejaVuSans-2e" d="M 684 794 
L 1344 794 
L 1344 0 
L 684 0 
L 684 794 
z
" transform="scale(0.015625)"/>
        <path id="DejaVuSans-35" d="M 691 4666 
L 3169 4666 
L 3169 4134 
L 1269 4134 
L 1269 2991 
Q 1406 3038 1543 3061 
Q 1681 3084 1819 3084 
Q 2600 3084 3056 2656 
Q 3513 2228 3513 1497 
Q 3513 744 3044 326 
Q 2575 -91 1722 -91 
Q 1428 -91 1123 -41 
Q 819 9 494 109 
L 494 744 
Q 775 591 1075 516 
Q 1375 441 1709 441 
Q 2250 441 2565 725 
Q 2881 1009 2881 1497 
Q 2881 1984 2565 2268 
Q 2250 2553 1709 2553 
Q 1456 2553 1204 2497 
Q 953 2441 691 2322 
L 691 4666 
z
" transform="scale(0.015625)"/>
        <path id="DejaVuSans-33" d="M 2597 2516 
Q 3050 2419 3304 2112 
Q 3559 1806 3559 1356 
Q 3559 666 3084 287 
Q 2609 -91 1734 -91 
Q 1441 -91 1130 -33 
Q 819 25 488 141 
L 488 750 
Q 750 597 1062 519 
Q 1375 441 1716 441 
Q 2309 441 2620 675 
Q 2931 909 2931 1356 
Q 2931 1769 2642 2001 
Q 2353 2234 1838 2234 
L 1294 2234 
L 1294 2753 
L 1863 2753 
Q 2328 2753 2575 2939 
Q 2822 3125 2822 3475 
Q 2822 3834 2567 4026 
Q 2313 4219 1838 4219 
Q 1578 4219 1281 4162 
Q 984 4106 628 3988 
L 628 4550 
Q 988 4650 1302 4700 
Q 1616 4750 1894 4750 
Q 2613 4750 3031 4423 
Q 3450 4097 3450 3541 
Q 3450 3153 3228 2886 
Q 3006 2619 2597 2516 
z
" transform="scale(0.015625)"/>
        <path id="DejaVuSans-30" d="M 2034 4250 
Q 1547 4250 1301 3770 
Q 1056 3291 1056 2328 
Q 1056 1369 1301 889 
Q 1547 409 2034 409 
Q 2525 409 2770 889 
Q 3016 1369 3016 2328 
Q 3016 3291 2770 3770 
Q 2525 4250 2034 4250 
z
M 2034 4750 
Q 2819 4750 3233 4129 
Q 3647 3509 3647 2328 
Q 3647 1150 3233 529 
Q 2819 -91 2034 -91 
Q 1250 -91 836 529 
Q 422 1150 422 2328 
Q 422 3509 836 4129 
Q 1250 4750 2034 4750 
z
" transform="scale(0.015625)"/>
       </defs>
       <use xlink:href="#DejaVuSans-31"/>
       <use xlink:href="#DejaVuSans-34" x="63.623047"/>
       <use xlink:href="#DejaVuSans-2e" x="127.246094"/>
       <use xlink:href="#DejaVuSans-35" x="159.033203"/>
       <use xlink:href="#DejaVuSans-33" x="222.65625"/>
       <use xlink:href="#DejaVuSans-30" x="286.279297"/>
      </g>
     </g>
    </g>
    <g id="xtick_2">
     <g id="line2d_3">
      <path d="M 121.919355 174.04 
L 121.919355 11.830064 
" clip-path="url(#ped76feae6b)" style="fill: none; stroke: #b0b0b0; stroke-width: 0.8; stroke-linecap: square"/>
     </g>
     <g id="line2d_4">
      <g>
       <use xlink:href="#m2962b35e0e" x="121.919355" y="174.04" style="stroke: #000000; stroke-width: 0.8"/>
      </g>
     </g>
     <g id="text_2">
      <!-- 14.535 -->
      <g transform="translate(104.424043 188.638438) scale(0.1 -0.1)">
       <use xlink:href="#DejaVuSans-31"/>
       <use xlink:href="#DejaVuSans-34" x="63.623047"/>
       <use xlink:href="#DejaVuSans-2e" x="127.246094"/>
       <use xlink:href="#DejaVuSans-35" x="159.033203"/>
       <use xlink:href="#DejaVuSans-33" x="222.65625"/>
       <use xlink:href="#DejaVuSans-35" x="286.279297"/>
      </g>
     </g>
    </g>
    <g id="xtick_3">
     <g id="line2d_5">
      <path d="M 174.828893 174.04 
L 174.828893 11.830064 
" clip-path="url(#ped76feae6b)" style="fill: none; stroke: #b0b0b0; stroke-width: 0.8; stroke-linecap: square"/>
     </g>
     <g id="line2d_6">
      <g>
       <use xlink:href="#m2962b35e0e" x="174.828893" y="174.04" style="stroke: #000000; stroke-width: 0.8"/>
      </g>
     </g>
     <g id="text_3">
      <!-- 14.540 -->
      <g transform="translate(157.33358 188.638438) scale(0.1 -0.1)">
       <use xlink:href="#DejaVuSans-31"/>
       <use xlink:href="#DejaVuSans-34" x="63.623047"/>
       <use xlink:href="#DejaVuSans-2e" x="127.246094"/>
       <use xlink:href="#DejaVuSans-35" x="159.033203"/>
       <use xlink:href="#DejaVuSans-34" x="222.65625"/>
       <use xlink:href="#DejaVuSans-30" x="286.279297"/>
      </g>
     </g>
    </g>
    <g id="xtick_4">
     <g id="line2d_7">
      <path d="M 227.73843 174.04 
L 227.73843 11.830064 
" clip-path="url(#ped76feae6b)" style="fill: none; stroke: #b0b0b0; stroke-width: 0.8; stroke-linecap: square"/>
     </g>
     <g id="line2d_8">
      <g>
       <use xlink:href="#m2962b35e0e" x="227.73843" y="174.04" style="stroke: #000000; stroke-width: 0.8"/>
      </g>
     </g>
     <g id="text_4">
      <!-- 14.545 -->
      <g transform="translate(210.243118 188.638438) scale(0.1 -0.1)">
       <use xlink:href="#DejaVuSans-31"/>
       <use xlink:href="#DejaVuSans-34" x="63.623047"/>
       <use xlink:href="#DejaVuSans-2e" x="127.246094"/>
       <use xlink:href="#DejaVuSans-35" x="159.033203"/>
       <use xlink:href="#DejaVuSans-34" x="222.65625"/>
       <use xlink:href="#DejaVuSans-35" x="286.279297"/>
      </g>
     </g>
    </g>
    <g id="text_5">
     <!-- Longitude [°] -->
     <g transform="translate(119.826095 202.316563) scale(0.1 -0.1)">
      <defs>
       <path id="DejaVuSans-4c" d="M 628 4666 
L 1259 4666 
L 1259 531 
L 3531 531 
L 3531 0 
L 628 0 
L 628 4666 
z
" transform="scale(0.015625)"/>
       <path id="DejaVuSans-6f" d="M 1959 3097 
Q 1497 3097 1228 2736 
Q 959 2375 959 1747 
Q 959 1119 1226 758 
Q 1494 397 1959 397 
Q 2419 397 2687 759 
Q 2956 1122 2956 1747 
Q 2956 2369 2687 2733 
Q 2419 3097 1959 3097 
z
M 1959 3584 
Q 2709 3584 3137 3096 
Q 3566 2609 3566 1747 
Q 3566 888 3137 398 
Q 2709 -91 1959 -91 
Q 1206 -91 779 398 
Q 353 888 353 1747 
Q 353 2609 779 3096 
Q 1206 3584 1959 3584 
z
" transform="scale(0.015625)"/>
       <path id="DejaVuSans-6e" d="M 3513 2113 
L 3513 0 
L 2938 0 
L 2938 2094 
Q 2938 2591 2744 2837 
Q 2550 3084 2163 3084 
Q 1697 3084 1428 2787 
Q 1159 2491 1159 1978 
L 1159 0 
L 581 0 
L 581 3500 
L 1159 3500 
L 1159 2956 
Q 1366 3272 1645 3428 
Q 1925 3584 2291 3584 
Q 2894 3584 3203 3211 
Q 3513 2838 3513 2113 
z
" transform="scale(0.015625)"/>
       <path id="DejaVuSans-67" d="M 2906 1791 
Q 2906 2416 2648 2759 
Q 2391 3103 1925 3103 
Q 1463 3103 1205 2759 
Q 947 2416 947 1791 
Q 947 1169 1205 825 
Q 1463 481 1925 481 
Q 2391 481 2648 825 
Q 2906 1169 2906 1791 
z
M 3481 434 
Q 3481 -459 3084 -895 
Q 2688 -1331 1869 -1331 
Q 1566 -1331 1297 -1286 
Q 1028 -1241 775 -1147 
L 775 -588 
Q 1028 -725 1275 -790 
Q 1522 -856 1778 -856 
Q 2344 -856 2625 -561 
Q 2906 -266 2906 331 
L 2906 616 
Q 2728 306 2450 153 
Q 2172 0 1784 0 
Q 1141 0 747 490 
Q 353 981 353 1791 
Q 353 2603 747 3093 
Q 1141 3584 1784 3584 
Q 2172 3584 2450 3431 
Q 2728 3278 2906 2969 
L 2906 3500 
L 3481 3500 
L 3481 434 
z
" transform="scale(0.015625)"/>
       <path id="DejaVuSans-69" d="M 603 3500 
L 1178 3500 
L 1178 0 
L 603 0 
L 603 3500 
z
M 603 4863 
L 1178 4863 
L 1178 4134 
L 603 4134 
L 603 4863 
z
" transform="scale(0.015625)"/>
       <path id="DejaVuSans-74" d="M 1172 4494 
L 1172 3500 
L 2356 3500 
L 2356 3053 
L 1172 3053 
L 1172 1153 
Q 1172 725 1289 603 
Q 1406 481 1766 481 
L 2356 481 
L 2356 0 
L 1766 0 
Q 1100 0 847 248 
Q 594 497 594 1153 
L 594 3053 
L 172 3053 
L 172 3500 
L 594 3500 
L 594 4494 
L 1172 4494 
z
" transform="scale(0.015625)"/>
       <path id="DejaVuSans-75" d="M 544 1381 
L 544 3500 
L 1119 3500 
L 1119 1403 
Q 1119 906 1312 657 
Q 1506 409 1894 409 
Q 2359 409 2629 706 
Q 2900 1003 2900 1516 
L 2900 3500 
L 3475 3500 
L 3475 0 
L 2900 0 
L 2900 538 
Q 2691 219 2414 64 
Q 2138 -91 1772 -91 
Q 1169 -91 856 284 
Q 544 659 544 1381 
z
M 1991 3584 
L 1991 3584 
z
" transform="scale(0.015625)"/>
       <path id="DejaVuSans-64" d="M 2906 2969 
L 2906 4863 
L 3481 4863 
L 3481 0 
L 2906 0 
L 2906 525 
Q 2725 213 2448 61 
Q 2172 -91 1784 -91 
Q 1150 -91 751 415 
Q 353 922 353 1747 
Q 353 2572 751 3078 
Q 1150 3584 1784 3584 
Q 2172 3584 2448 3432 
Q 2725 3281 2906 2969 
z
M 947 1747 
Q 947 1113 1208 752 
Q 1469 391 1925 391 
Q 2381 391 2643 752 
Q 2906 1113 2906 1747 
Q 2906 2381 2643 2742 
Q 2381 3103 1925 3103 
Q 1469 3103 1208 2742 
Q 947 2381 947 1747 
z
" transform="scale(0.015625)"/>
       <path id="DejaVuSans-65" d="M 3597 1894 
L 3597 1613 
L 953 1613 
Q 991 1019 1311 708 
Q 1631 397 2203 397 
Q 2534 397 2845 478 
Q 3156 559 3463 722 
L 3463 178 
Q 3153 47 2828 -22 
Q 2503 -91 2169 -91 
Q 1331 -91 842 396 
Q 353 884 353 1716 
Q 353 2575 817 3079 
Q 1281 3584 2069 3584 
Q 2775 3584 3186 3129 
Q 3597 2675 3597 1894 
z
M 3022 2063 
Q 3016 2534 2758 2815 
Q 2500 3097 2075 3097 
Q 1594 3097 1305 2825 
Q 1016 2553 972 2059 
L 3022 2063 
z
" transform="scale(0.015625)"/>
       <path id="DejaVuSans-20" transform="scale(0.015625)"/>
       <path id="DejaVuSans-5b" d="M 550 4863 
L 1875 4863 
L 1875 4416 
L 1125 4416 
L 1125 -397 
L 1875 -397 
L 1875 -844 
L 550 -844 
L 550 4863 
z
" transform="scale(0.015625)"/>
       <path id="DejaVuSans-b0" d="M 1600 4347 
Q 1350 4347 1178 4173 
Q 1006 4000 1006 3750 
Q 1006 3503 1178 3333 
Q 1350 3163 1600 3163 
Q 1850 3163 2022 3333 
Q 2194 3503 2194 3750 
Q 2194 3997 2020 4172 
Q 1847 4347 1600 4347 
z
M 1600 4750 
Q 1800 4750 1984 4673 
Q 2169 4597 2303 4453 
Q 2447 4313 2519 4134 
Q 2591 3956 2591 3750 
Q 2591 3338 2302 3052 
Q 2013 2766 1594 2766 
Q 1172 2766 890 3047 
Q 609 3328 609 3750 
Q 609 4169 896 4459 
Q 1184 4750 1600 4750 
z
" transform="scale(0.015625)"/>
       <path id="DejaVuSans-5d" d="M 1947 4863 
L 1947 -844 
L 622 -844 
L 622 -397 
L 1369 -397 
L 1369 4416 
L 622 4416 
L 622 4863 
L 1947 4863 
z
" transform="scale(0.015625)"/>
      </defs>
      <use xlink:href="#DejaVuSans-4c"/>
      <use xlink:href="#DejaVuSans-6f" x="53.962891"/>
      <use xlink:href="#DejaVuSans-6e" x="115.144531"/>
      <use xlink:href="#DejaVuSans-67" x="178.523438"/>
      <use xlink:href="#DejaVuSans-69" x="242"/>
      <use xlink:href="#DejaVuSans-74" x="269.783203"/>
      <use xlink:href="#DejaVuSans-75" x="308.992188"/>
      <use xlink:href="#DejaVuSans-64" x="372.371094"/>
      <use xlink:href="#DejaVuSans-65" x="435.847656"/>
      <use xlink:href="#DejaVuSans-20" x="497.371094"/>
      <use xlink:href="#DejaVuSans-5b" x="529.158203"/>
      <use xlink:href="#DejaVuSans-b0" x="568.171875"/>
      <use xlink:href="#DejaVuSans-5d" x="618.171875"/>
     </g>
    </g>
   </g>
   <g id="matplotlib.axis_2">
    <g id="ytick_1">
     <g id="line2d_9">
      <path d="M 66.62 167.988695 
L 238.752503 167.988695 
" clip-path="url(#ped76feae6b)" style="fill: none; stroke: #b0b0b0; stroke-width: 0.8; stroke-linecap: square"/>
     </g>
     <g id="line2d_10">
      <defs>
       <path id="m73eb3231c5" d="M 0 0 
L -3.5 0 
" style="stroke: #000000; stroke-width: 0.8"/>
      </defs>
      <g>
       <use xlink:href="#m73eb3231c5" x="66.62" y="167.988695" style="stroke: #000000; stroke-width: 0.8"/>
      </g>
     </g>
     <g id="text_6">
      <!-- 50.001 -->
      <g transform="translate(24.629375 171.787913) scale(0.1 -0.1)">
       <use xlink:href="#DejaVuSans-35"/>
       <use xlink:href="#DejaVuSans-30" x="63.623047"/>
       <use xlink:href="#DejaVuSans-2e" x="127.246094"/>
       <use xlink:href="#DejaVuSans-30" x="159.033203"/>
       <use xlink:href="#DejaVuSans-30" x="222.65625"/>
       <use xlink:href="#DejaVuSans-31" x="286.279297"/>
      </g>
     </g>
    </g>
    <g id="ytick_2">
     <g id="line2d_11">
      <path d="M 66.62 142.438512 
L 238.752503 142.438512 
" clip-path="url(#ped76feae6b)" style="fill: none; stroke: #b0b0b0; stroke-width: 0.8; stroke-linecap: square"/>
     </g>
     <g id="line2d_12">
      <g>
       <use xlink:href="#m73eb3231c5" x="66.62" y="142.438512" style="stroke: #000000; stroke-width: 0.8"/>
      </g>
     </g>
     <g id="text_7">
      <!-- 50.002 -->
      <g transform="translate(24.629375 146.23773) scale(0.1 -0.1)">
       <defs>
        <path id="DejaVuSans-32" d="M 1228 531 
L 3431 531 
L 3431 0 
L 469 0 
L 469 531 
Q 828 903 1448 1529 
Q 2069 2156 2228 2338 
Q 2531 2678 2651 2914 
Q 2772 3150 2772 3378 
Q 2772 3750 2511 3984 
Q 2250 4219 1831 4219 
Q 1534 4219 1204 4116 
Q 875 4013 500 3803 
L 500 4441 
Q 881 4594 1212 4672 
Q 1544 4750 1819 4750 
Q 2544 4750 2975 4387 
Q 3406 4025 3406 3419 
Q 3406 3131 3298 2873 
Q 3191 2616 2906 2266 
Q 2828 2175 2409 1742 
Q 1991 1309 1228 531 
z
" transform="scale(0.015625)"/>
       </defs>
       <use xlink:href="#DejaVuSans-35"/>
       <use xlink:href="#DejaVuSans-30" x="63.623047"/>
       <use xlink:href="#DejaVuSans-2e" x="127.246094"/>
       <use xlink:href="#DejaVuSans-30" x="159.033203"/>
       <use xlink:href="#DejaVuSans-30" x="222.65625"/>
       <use xlink:href="#DejaVuSans-32" x="286.279297"/>
      </g>
     </g>
    </g>
    <g id="ytick_3">
     <g id="line2d_13">
      <path d="M 66.62 116.888328 
L 238.752503 116.888328 
" clip-path="url(#ped76feae6b)" style="fill: none; stroke: #b0b0b0; stroke-width: 0.8; stroke-linecap: square"/>
     </g>
     <g id="line2d_14">
      <g>
       <use xlink:href="#m73eb3231c5" x="66.62" y="116.888328" style="stroke: #000000; stroke-width: 0.8"/>
      </g>
     </g>
     <g id="text_8">
      <!-- 50.003 -->
      <g transform="translate(24.629375 120.687547) scale(0.1 -0.1)">
       <use xlink:href="#DejaVuSans-35"/>
       <use xlink:href="#DejaVuSans-30" x="63.623047"/>
       <use xlink:href="#DejaVuSans-2e" x="127.246094"/>
       <use xlink:href="#DejaVuSans-30" x="159.033203"/>
       <use xlink:href="#DejaVuSans-30" x="222.65625"/>
       <use xlink:href="#DejaVuSans-33" x="286.279297"/>
      </g>
     </g>
    </g>
    <g id="ytick_4">
     <g id="line2d_15">
      <path d="M 66.62 91.338145 
L 238.752503 91.338145 
" clip-path="url(#ped76feae6b)" style="fill: none; stroke: #b0b0b0; stroke-width: 0.8; stroke-linecap: square"/>
     </g>
     <g id="line2d_16">
      <g>
       <use xlink:href="#m73eb3231c5" x="66.62" y="91.338145" style="stroke: #000000; stroke-width: 0.8"/>
      </g>
     </g>
     <g id="text_9">
      <!-- 50.004 -->
      <g transform="translate(24.629375 95.137364) scale(0.1 -0.1)">
       <use xlink:href="#DejaVuSans-35"/>
       <use xlink:href="#DejaVuSans-30" x="63.623047"/>
       <use xlink:href="#DejaVuSans-2e" x="127.246094"/>
       <use xlink:href="#DejaVuSans-30" x="159.033203"/>
       <use xlink:href="#DejaVuSans-30" x="222.65625"/>
       <use xlink:href="#DejaVuSans-34" x="286.279297"/>
      </g>
     </g>
    </g>
    <g id="ytick_5">
     <g id="line2d_17">
      <path d="M 66.62 65.787962 
L 238.752503 65.787962 
" clip-path="url(#ped76feae6b)" style="fill: none; stroke: #b0b0b0; stroke-width: 0.8; stroke-linecap: square"/>
     </g>
     <g id="line2d_18">
      <g>
       <use xlink:href="#m73eb3231c5" x="66.62" y="65.787962" style="stroke: #000000; stroke-width: 0.8"/>
      </g>
     </g>
     <g id="text_10">
      <!-- 50.005 -->
      <g transform="translate(24.629375 69.587181) scale(0.1 -0.1)">
       <use xlink:href="#DejaVuSans-35"/>
       <use xlink:href="#DejaVuSans-30" x="63.623047"/>
       <use xlink:href="#DejaVuSans-2e" x="127.246094"/>
       <use xlink:href="#DejaVuSans-30" x="159.033203"/>
       <use xlink:href="#DejaVuSans-30" x="222.65625"/>
       <use xlink:href="#DejaVuSans-35" x="286.279297"/>
      </g>
     </g>
    </g>
    <g id="ytick_6">
     <g id="line2d_19">
      <path d="M 66.62 40.237779 
L 238.752503 40.237779 
" clip-path="url(#ped76feae6b)" style="fill: none; stroke: #b0b0b0; stroke-width: 0.8; stroke-linecap: square"/>
     </g>
     <g id="line2d_20">
      <g>
       <use xlink:href="#m73eb3231c5" x="66.62" y="40.237779" style="stroke: #000000; stroke-width: 0.8"/>
      </g>
     </g>
     <g id="text_11">
      <!-- 50.006 -->
      <g transform="translate(24.629375 44.036998) scale(0.1 -0.1)">
       <defs>
        <path id="DejaVuSans-36" d="M 2113 2584 
Q 1688 2584 1439 2293 
Q 1191 2003 1191 1497 
Q 1191 994 1439 701 
Q 1688 409 2113 409 
Q 2538 409 2786 701 
Q 3034 994 3034 1497 
Q 3034 2003 2786 2293 
Q 2538 2584 2113 2584 
z
M 3366 4563 
L 3366 3988 
Q 3128 4100 2886 4159 
Q 2644 4219 2406 4219 
Q 1781 4219 1451 3797 
Q 1122 3375 1075 2522 
Q 1259 2794 1537 2939 
Q 1816 3084 2150 3084 
Q 2853 3084 3261 2657 
Q 3669 2231 3669 1497 
Q 3669 778 3244 343 
Q 2819 -91 2113 -91 
Q 1303 -91 875 529 
Q 447 1150 447 2328 
Q 447 3434 972 4092 
Q 1497 4750 2381 4750 
Q 2619 4750 2861 4703 
Q 3103 4656 3366 4563 
z
" transform="scale(0.015625)"/>
       </defs>
       <use xlink:href="#DejaVuSans-35"/>
       <use xlink:href="#DejaVuSans-30" x="63.623047"/>
       <use xlink:href="#DejaVuSans-2e" x="127.246094"/>
       <use xlink:href="#DejaVuSans-30" x="159.033203"/>
       <use xlink:href="#DejaVuSans-30" x="222.65625"/>
       <use xlink:href="#DejaVuSans-36" x="286.279297"/>
      </g>
     </g>
    </g>
    <g id="ytick_7">
     <g id="line2d_21">
      <path d="M 66.62 14.687596 
L 238.752503 14.687596 
" clip-path="url(#ped76feae6b)" style="fill: none; stroke: #b0b0b0; stroke-width: 0.8; stroke-linecap: square"/>
     </g>
     <g id="line2d_22">
      <g>
       <use xlink:href="#m73eb3231c5" x="66.62" y="14.687596" style="stroke: #000000; stroke-width: 0.8"/>
      </g>
     </g>
     <g id="text_12">
      <!-- 50.007 -->
      <g transform="translate(24.629375 18.486815) scale(0.1 -0.1)">
       <defs>
        <path id="DejaVuSans-37" d="M 525 4666 
L 3525 4666 
L 3525 4397 
L 1831 0 
L 1172 0 
L 2766 4134 
L 525 4134 
L 525 4666 
z
" transform="scale(0.015625)"/>
       </defs>
       <use xlink:href="#DejaVuSans-35"/>
       <use xlink:href="#DejaVuSans-30" x="63.623047"/>
       <use xlink:href="#DejaVuSans-2e" x="127.246094"/>
       <use xlink:href="#DejaVuSans-30" x="159.033203"/>
       <use xlink:href="#DejaVuSans-30" x="222.65625"/>
       <use xlink:href="#DejaVuSans-37" x="286.279297"/>
      </g>
     </g>
    </g>
    <g id="text_13">
     <!-- Latitude [°] -->
     <g transform="translate(18.549688 121.504563) rotate(-90) scale(0.1 -0.1)">
      <defs>
       <path id="DejaVuSans-61" d="M 2194 1759 
Q 1497 1759 1228 1600 
Q 959 1441 959 1056 
Q 959 750 1161 570 
Q 1363 391 1709 391 
Q 2188 391 2477 730 
Q 2766 1069 2766 1631 
L 2766 1759 
L 2194 1759 
z
M 3341 1997 
L 3341 0 
L 2766 0 
L 2766 531 
Q 2569 213 2275 61 
Q 1981 -91 1556 -91 
Q 1019 -91 701 211 
Q 384 513 384 1019 
Q 384 1609 779 1909 
Q 1175 2209 1959 2209 
L 2766 2209 
L 2766 2266 
Q 2766 2663 2505 2880 
Q 2244 3097 1772 3097 
Q 1472 3097 1187 3025 
Q 903 2953 641 2809 
L 641 3341 
Q 956 3463 1253 3523 
Q 1550 3584 1831 3584 
Q 2591 3584 2966 3190 
Q 3341 2797 3341 1997 
z
" transform="scale(0.015625)"/>
      </defs>
      <use xlink:href="#DejaVuSans-4c"/>
      <use xlink:href="#DejaVuSans-61" x="55.712891"/>
      <use xlink:href="#DejaVuSans-74" x="116.992188"/>
      <use xlink:href="#DejaVuSans-69" x="156.201172"/>
      <use xlink:href="#DejaVuSans-74" x="183.984375"/>
      <use xlink:href="#DejaVuSans-75" x="223.193359"/>
      <use xlink:href="#DejaVuSans-64" x="286.572266"/>
      <use xlink:href="#DejaVuSans-65" x="350.048828"/>
      <use xlink:href="#DejaVuSans-20" x="411.572266"/>
      <use xlink:href="#DejaVuSans-5b" x="443.359375"/>
      <use xlink:href="#DejaVuSans-b0" x="482.373047"/>
      <use xlink:href="#DejaVuSans-5d" x="532.373047"/>
     </g>
    </g>
   </g>
   <g id="patch_3">
    <path d="M 66.62 174.04 
L 66.62 11.830064 
" style="fill: none; stroke: #000000; stroke-width: 0.8; stroke-linejoin: miter; stroke-linecap: square"/>
   </g>
   <g id="patch_4">
    <path d="M 238.752503 174.04 
L 238.752503 11.830064 
" style="fill: none; stroke: #000000; stroke-width: 0.8; stroke-linejoin: miter; stroke-linecap: square"/>
   </g>
   <g id="patch_5">
    <path d="M 66.62 174.04 
L 238.752503 174.04 
" style="fill: none; stroke: #000000; stroke-width: 0.8; stroke-linejoin: miter; stroke-linecap: square"/>
   </g>
   <g id="patch_6">
    <path d="M 66.62 11.830064 
L 238.752503 11.830064 
" style="fill: none; stroke: #000000; stroke-width: 0.8; stroke-linejoin: miter; stroke-linecap: square"/>
   </g>
   <g id="text_14">
    <!-- 0 -->
    <g transform="translate(78.491207 162.853108) scale(0.1 -0.1)">
     <use xlink:href="#DejaVuSans-30"/>
    </g>
   </g>
   <g id="text_15">
    <!-- 1 -->
    <g transform="translate(86.469965 150.435719) scale(0.1 -0.1)">
     <use xlink:href="#DejaVuSans-31"/>
    </g>
   </g>
   <g id="text_16">
    <!-- 2 -->
    <g transform="translate(94.565125 136.408668) scale(0.1 -0.1)">
     <use xlink:href="#DejaVuSans-32"/>
    </g>
   </g>
   <g id="text_17">
    <!-- 3 -->
    <g transform="translate(112.310983 109.299924) scale(0.1 -0.1)">
     <use xlink:href="#DejaVuSans-33"/>
    </g>
   </g>
   <g id="text_18">
    <!-- 4 -->
    <g transform="translate(121.019893 96.856985) scale(0.1 -0.1)">
     <use xlink:href="#DejaVuSans-34"/>
    </g>
   </g>
   <g id="text_19">
    <!-- 5 -->
    <g transform="translate(138.511786 71.817805) scale(0.1 -0.1)">
     <use xlink:href="#DejaVuSans-35"/>
    </g>
   </g>
   <g id="text_20">
    <!-- 6 -->
    <g transform="translate(150.638652 54.36703) scale(0.1 -0.1)">
     <use xlink:href="#DejaVuSans-36"/>
    </g>
   </g>
   <g id="text_21">
    <!-- 7 -->
    <g transform="translate(165.093538 43.763704) scale(0.1 -0.1)">
     <use xlink:href="#DejaVuSans-37"/>
    </g>
   </g>
   <g id="text_22">
    <!-- 8 -->
    <g transform="translate(182.119827 37.759411) scale(0.1 -0.1)">
     <defs>
      <path id="DejaVuSans-38" d="M 2034 2216 
Q 1584 2216 1326 1975 
Q 1069 1734 1069 1313 
Q 1069 891 1326 650 
Q 1584 409 2034 409 
Q 2484 409 2743 651 
Q 3003 894 3003 1313 
Q 3003 1734 2745 1975 
Q 2488 2216 2034 2216 
z
M 1403 2484 
Q 997 2584 770 2862 
Q 544 3141 544 3541 
Q 544 4100 942 4425 
Q 1341 4750 2034 4750 
Q 2731 4750 3128 4425 
Q 3525 4100 3525 3541 
Q 3525 3141 3298 2862 
Q 3072 2584 2669 2484 
Q 3125 2378 3379 2068 
Q 3634 1759 3634 1313 
Q 3634 634 3220 271 
Q 2806 -91 2034 -91 
Q 1263 -91 848 271 
Q 434 634 434 1313 
Q 434 1759 690 2068 
Q 947 2378 1403 2484 
z
M 1172 3481 
Q 1172 3119 1398 2916 
Q 1625 2713 2034 2713 
Q 2441 2713 2670 2916 
Q 2900 3119 2900 3481 
Q 2900 3844 2670 4047 
Q 2441 4250 2034 4250 
Q 1625 4250 1398 4047 
Q 1172 3844 1172 3481 
z
" transform="scale(0.015625)"/>
     </defs>
     <use xlink:href="#DejaVuSans-38"/>
    </g>
   </g>
   <g id="text_23">
    <!-- 9 -->
    <g transform="translate(201.241334 32.470523) scale(0.1 -0.1)">
     <defs>
      <path id="DejaVuSans-39" d="M 703 97 
L 703 672 
Q 941 559 1184 500 
Q 1428 441 1663 441 
Q 2288 441 2617 861 
Q 2947 1281 2994 2138 
Q 2813 1869 2534 1725 
Q 2256 1581 1919 1581 
Q 1219 1581 811 2004 
Q 403 2428 403 3163 
Q 403 3881 828 4315 
Q 1253 4750 1959 4750 
Q 2769 4750 3195 4129 
Q 3622 3509 3622 2328 
Q 3622 1225 3098 567 
Q 2575 -91 1691 -91 
Q 1453 -91 1209 -44 
Q 966 3 703 97 
z
M 1959 2075 
Q 2384 2075 2632 2365 
Q 2881 2656 2881 3163 
Q 2881 3666 2632 3958 
Q 2384 4250 1959 4250 
Q 1534 4250 1286 3958 
Q 1038 3666 1038 3163 
Q 1038 2656 1286 2365 
Q 1534 2075 1959 2075 
z
" transform="scale(0.015625)"/>
     </defs>
     <use xlink:href="#DejaVuSans-39"/>
    </g>
   </g>
   <g id="text_24">
    <!-- 10 -->
    <g transform="translate(223.63265 24.677718) scale(0.1 -0.1)">
     <use xlink:href="#DejaVuSans-31"/>
     <use xlink:href="#DejaVuSans-30" x="63.623047"/>
    </g>
   </g>
   <g id="text_25">
    <!-- 11 -->
    <g transform="translate(226.881296 23.016956) scale(0.1 -0.1)">
     <use xlink:href="#DejaVuSans-31"/>
     <use xlink:href="#DejaVuSans-31" x="63.623047"/>
    </g>
   </g>
  </g>
  <g id="axes_2">
   <g id="patch_7">
    <path d="M 292.934995 174.04 
L 637.2 174.04 
L 637.2 11.830064 
L 292.934995 11.830064 
z
" style="fill: #ffffff"/>
   </g>
   <g id="PathCollection_13">
    <defs>
     <path id="m06244cb645" d="M -6.123724 0 
L 6.123724 0 
M 0 6.123724 
L 0 -6.123724 
" style="stroke: #000000; stroke-width: 1.5"/>
    </defs>
    <g clip-path="url(#p7eb4d511c0)">
     <use xlink:href="#m06244cb645" x="316.677409" y="116.842992" style="stroke: #000000; stroke-width: 1.5"/>
    </g>
   </g>
   <g id="PathCollection_14">
    <g clip-path="url(#p7eb4d511c0)">
     <use xlink:href="#m06244cb645" x="316.677409" y="109.741167" style="stroke: #000000; stroke-width: 1.5"/>
    </g>
   </g>
   <g id="PathCollection_15">
    <g clip-path="url(#p7eb4d511c0)">
     <use xlink:href="#m06244cb645" x="316.677409" y="104.414798" style="stroke: #000000; stroke-width: 1.5"/>
    </g>
   </g>
   <g id="PathCollection_16">
    <g clip-path="url(#p7eb4d511c0)">
     <use xlink:href="#m06244cb645" x="335.990977" y="102.032348" style="stroke: #000000; stroke-width: 1.5"/>
    </g>
   </g>
   <g id="PathCollection_17">
    <defs>
     <path id="m49614147a5" d="M 0 3.535534 
C 0.937635 3.535534 1.836992 3.163008 2.5 2.5 
C 3.163008 1.836992 3.535534 0.937635 3.535534 0 
C 3.535534 -0.937635 3.163008 -1.836992 2.5 -2.5 
C 1.836992 -3.163008 0.937635 -3.535534 0 -3.535534 
C -0.937635 -3.535534 -1.836992 -3.163008 -2.5 -2.5 
C -3.163008 -1.836992 -3.535534 -0.937635 -3.535534 0 
C -3.535534 0.937635 -3.163008 1.836992 -2.5 2.5 
C -1.836992 3.163008 -0.937635 3.535534 0 3.535534 
z
" style="stroke: #000000"/>
    </defs>
    <g clip-path="url(#p7eb4d511c0)">
     <use xlink:href="#m49614147a5" x="335.990977" y="134.582381" style="stroke: #000000"/>
    </g>
   </g>
   <g id="PathCollection_18">
    <g clip-path="url(#p7eb4d511c0)">
     <use xlink:href="#m06244cb645" x="356.706506" y="116.190474" style="stroke: #000000; stroke-width: 1.5"/>
    </g>
   </g>
   <g id="PathCollection_19">
    <g clip-path="url(#p7eb4d511c0)">
     <use xlink:href="#m49614147a5" x="356.706506" y="148.740506" style="stroke: #000000"/>
    </g>
   </g>
   <g id="PathCollection_20">
    <g clip-path="url(#p7eb4d511c0)">
     <use xlink:href="#m06244cb645" x="399.220173" y="94.566327" style="stroke: #000000; stroke-width: 1.5"/>
    </g>
   </g>
   <g id="PathCollection_21">
    <g clip-path="url(#p7eb4d511c0)">
     <use xlink:href="#m49614147a5" x="399.220173" y="127.116359" style="stroke: #000000"/>
    </g>
   </g>
   <g id="PathCollection_22">
    <g clip-path="url(#p7eb4d511c0)">
     <use xlink:href="#m06244cb645" x="419.425901" y="75.582602" style="stroke: #000000; stroke-width: 1.5"/>
    </g>
   </g>
   <g id="PathCollection_23">
    <g clip-path="url(#p7eb4d511c0)">
     <use xlink:href="#m49614147a5" x="419.425901" y="108.132634" style="stroke: #000000"/>
    </g>
   </g>
   <g id="PathCollection_24">
    <g clip-path="url(#p7eb4d511c0)">
     <use xlink:href="#m06244cb645" x="460.06734" y="23.016956" style="stroke: #000000; stroke-width: 1.5"/>
    </g>
   </g>
   <g id="PathCollection_25">
    <g clip-path="url(#p7eb4d511c0)">
     <use xlink:href="#m49614147a5" x="460.06734" y="55.566988" style="stroke: #000000"/>
    </g>
   </g>
   <g id="PathCollection_26">
    <g clip-path="url(#p7eb4d511c0)">
     <use xlink:href="#m06244cb645" x="488.312243" y="30.376753" style="stroke: #000000; stroke-width: 1.5"/>
    </g>
   </g>
   <g id="PathCollection_27">
    <g clip-path="url(#p7eb4d511c0)">
     <use xlink:href="#m49614147a5" x="488.312243" y="62.926785" style="stroke: #000000"/>
    </g>
   </g>
   <g id="PathCollection_28">
    <g clip-path="url(#p7eb4d511c0)">
     <use xlink:href="#m06244cb645" x="514.391025" y="43.374004" style="stroke: #000000; stroke-width: 1.5"/>
    </g>
   </g>
   <g id="PathCollection_29">
    <g clip-path="url(#p7eb4d511c0)">
     <use xlink:href="#m49614147a5" x="514.391025" y="75.924036" style="stroke: #000000"/>
    </g>
   </g>
   <g id="PathCollection_30">
    <g clip-path="url(#p7eb4d511c0)">
     <use xlink:href="#m06244cb645" x="541.057302" y="45.323971" style="stroke: #000000; stroke-width: 1.5"/>
    </g>
   </g>
   <g id="PathCollection_31">
    <g clip-path="url(#p7eb4d511c0)">
     <use xlink:href="#m49614147a5" x="541.057302" y="77.874003" style="stroke: #000000"/>
    </g>
   </g>
   <g id="PathCollection_32">
    <g clip-path="url(#p7eb4d511c0)">
     <use xlink:href="#m06244cb645" x="570.940797" y="41.014316" style="stroke: #000000; stroke-width: 1.5"/>
    </g>
   </g>
   <g id="PathCollection_33">
    <g clip-path="url(#p7eb4d511c0)">
     <use xlink:href="#m49614147a5" x="570.940797" y="73.564348" style="stroke: #000000"/>
    </g>
   </g>
   <g id="PathCollection_34">
    <g clip-path="url(#p7eb4d511c0)">
     <use xlink:href="#m06244cb645" x="607.757919" y="84.862017" style="stroke: #000000; stroke-width: 1.5"/>
    </g>
   </g>
   <g id="PathCollection_35">
    <g clip-path="url(#p7eb4d511c0)">
     <use xlink:href="#m49614147a5" x="607.757919" y="117.412049" style="stroke: #000000"/>
    </g>
   </g>
   <g id="PathCollection_36">
    <g clip-path="url(#p7eb4d511c0)">
     <use xlink:href="#m06244cb645" x="613.457586" y="88.041146" style="stroke: #000000; stroke-width: 1.5"/>
    </g>
   </g>
   <g id="PathCollection_37">
    <g clip-path="url(#p7eb4d511c0)">
     <use xlink:href="#m49614147a5" x="613.457586" y="120.591178" style="stroke: #000000"/>
    </g>
   </g>
   <g id="matplotlib.axis_3">
    <g id="xtick_5">
     <g id="line2d_23">
      <path d="M 316.677409 174.04 
L 316.677409 11.830064 
" clip-path="url(#p7eb4d511c0)" style="fill: none; stroke: #b0b0b0; stroke-width: 0.8; stroke-linecap: square"/>
     </g>
     <g id="line2d_24">
      <g>
       <use xlink:href="#m2962b35e0e" x="316.677409" y="174.04" style="stroke: #000000; stroke-width: 0.8"/>
      </g>
     </g>
     <g id="text_26">
      <!-- 0 -->
      <g transform="translate(313.496159 188.638438) scale(0.1 -0.1)">
       <use xlink:href="#DejaVuSans-30"/>
      </g>
     </g>
    </g>
    <g id="xtick_6">
     <g id="line2d_25">
      <path d="M 367.18299 174.04 
L 367.18299 11.830064 
" clip-path="url(#p7eb4d511c0)" style="fill: none; stroke: #b0b0b0; stroke-width: 0.8; stroke-linecap: square"/>
     </g>
     <g id="line2d_26">
      <g>
       <use xlink:href="#m2962b35e0e" x="367.18299" y="174.04" style="stroke: #000000; stroke-width: 0.8"/>
      </g>
     </g>
     <g id="text_27">
      <!-- 200 -->
      <g transform="translate(357.63924 188.638438) scale(0.1 -0.1)">
       <use xlink:href="#DejaVuSans-32"/>
       <use xlink:href="#DejaVuSans-30" x="63.623047"/>
       <use xlink:href="#DejaVuSans-30" x="127.246094"/>
      </g>
     </g>
    </g>
    <g id="xtick_7">
     <g id="line2d_27">
      <path d="M 417.688571 174.04 
L 417.688571 11.830064 
" clip-path="url(#p7eb4d511c0)" style="fill: none; stroke: #b0b0b0; stroke-width: 0.8; stroke-linecap: square"/>
     </g>
     <g id="line2d_28">
      <g>
       <use xlink:href="#m2962b35e0e" x="417.688571" y="174.04" style="stroke: #000000; stroke-width: 0.8"/>
      </g>
     </g>
     <g id="text_28">
      <!-- 400 -->
      <g transform="translate(408.144821 188.638438) scale(0.1 -0.1)">
       <use xlink:href="#DejaVuSans-34"/>
       <use xlink:href="#DejaVuSans-30" x="63.623047"/>
       <use xlink:href="#DejaVuSans-30" x="127.246094"/>
      </g>
     </g>
    </g>
    <g id="xtick_8">
     <g id="line2d_29">
      <path d="M 468.194152 174.04 
L 468.194152 11.830064 
" clip-path="url(#p7eb4d511c0)" style="fill: none; stroke: #b0b0b0; stroke-width: 0.8; stroke-linecap: square"/>
     </g>
     <g id="line2d_30">
      <g>
       <use xlink:href="#m2962b35e0e" x="468.194152" y="174.04" style="stroke: #000000; stroke-width: 0.8"/>
      </g>
     </g>
     <g id="text_29">
      <!-- 600 -->
      <g transform="translate(458.650402 188.638438) scale(0.1 -0.1)">
       <use xlink:href="#DejaVuSans-36"/>
       <use xlink:href="#DejaVuSans-30" x="63.623047"/>
       <use xlink:href="#DejaVuSans-30" x="127.246094"/>
      </g>
     </g>
    </g>
    <g id="xtick_9">
     <g id="line2d_31">
      <path d="M 518.699733 174.04 
L 518.699733 11.830064 
" clip-path="url(#p7eb4d511c0)" style="fill: none; stroke: #b0b0b0; stroke-width: 0.8; stroke-linecap: square"/>
     </g>
     <g id="line2d_32">
      <g>
       <use xlink:href="#m2962b35e0e" x="518.699733" y="174.04" style="stroke: #000000; stroke-width: 0.8"/>
      </g>
     </g>
     <g id="text_30">
      <!-- 800 -->
      <g transform="translate(509.155983 188.638438) scale(0.1 -0.1)">
       <use xlink:href="#DejaVuSans-38"/>
       <use xlink:href="#DejaVuSans-30" x="63.623047"/>
       <use xlink:href="#DejaVuSans-30" x="127.246094"/>
      </g>
     </g>
    </g>
    <g id="xtick_10">
     <g id="line2d_33">
      <path d="M 569.205313 174.04 
L 569.205313 11.830064 
" clip-path="url(#p7eb4d511c0)" style="fill: none; stroke: #b0b0b0; stroke-width: 0.8; stroke-linecap: square"/>
     </g>
     <g id="line2d_34">
      <g>
       <use xlink:href="#m2962b35e0e" x="569.205313" y="174.04" style="stroke: #000000; stroke-width: 0.8"/>
      </g>
     </g>
     <g id="text_31">
      <!-- 1000 -->
      <g transform="translate(556.480313 188.638438) scale(0.1 -0.1)">
       <use xlink:href="#DejaVuSans-31"/>
       <use xlink:href="#DejaVuSans-30" x="63.623047"/>
       <use xlink:href="#DejaVuSans-30" x="127.246094"/>
       <use xlink:href="#DejaVuSans-30" x="190.869141"/>
      </g>
     </g>
    </g>
    <g id="xtick_11">
     <g id="line2d_35">
      <path d="M 619.710894 174.04 
L 619.710894 11.830064 
" clip-path="url(#p7eb4d511c0)" style="fill: none; stroke: #b0b0b0; stroke-width: 0.8; stroke-linecap: square"/>
     </g>
     <g id="line2d_36">
      <g>
       <use xlink:href="#m2962b35e0e" x="619.710894" y="174.04" style="stroke: #000000; stroke-width: 0.8"/>
      </g>
     </g>
     <g id="text_32">
      <!-- 1200 -->
      <g transform="translate(606.985894 188.638438) scale(0.1 -0.1)">
       <use xlink:href="#DejaVuSans-31"/>
       <use xlink:href="#DejaVuSans-32" x="63.623047"/>
       <use xlink:href="#DejaVuSans-30" x="127.246094"/>
       <use xlink:href="#DejaVuSans-30" x="190.869141"/>
      </g>
     </g>
    </g>
    <g id="text_33">
     <!-- Transmitting distance [m] -->
     <g transform="translate(400.809685 202.316563) scale(0.1 -0.1)">
      <defs>
       <path id="DejaVuSans-54" d="M -19 4666 
L 3928 4666 
L 3928 4134 
L 2272 4134 
L 2272 0 
L 1638 0 
L 1638 4134 
L -19 4134 
L -19 4666 
z
" transform="scale(0.015625)"/>
       <path id="DejaVuSans-72" d="M 2631 2963 
Q 2534 3019 2420 3045 
Q 2306 3072 2169 3072 
Q 1681 3072 1420 2755 
Q 1159 2438 1159 1844 
L 1159 0 
L 581 0 
L 581 3500 
L 1159 3500 
L 1159 2956 
Q 1341 3275 1631 3429 
Q 1922 3584 2338 3584 
Q 2397 3584 2469 3576 
Q 2541 3569 2628 3553 
L 2631 2963 
z
" transform="scale(0.015625)"/>
       <path id="DejaVuSans-73" d="M 2834 3397 
L 2834 2853 
Q 2591 2978 2328 3040 
Q 2066 3103 1784 3103 
Q 1356 3103 1142 2972 
Q 928 2841 928 2578 
Q 928 2378 1081 2264 
Q 1234 2150 1697 2047 
L 1894 2003 
Q 2506 1872 2764 1633 
Q 3022 1394 3022 966 
Q 3022 478 2636 193 
Q 2250 -91 1575 -91 
Q 1294 -91 989 -36 
Q 684 19 347 128 
L 347 722 
Q 666 556 975 473 
Q 1284 391 1588 391 
Q 1994 391 2212 530 
Q 2431 669 2431 922 
Q 2431 1156 2273 1281 
Q 2116 1406 1581 1522 
L 1381 1569 
Q 847 1681 609 1914 
Q 372 2147 372 2553 
Q 372 3047 722 3315 
Q 1072 3584 1716 3584 
Q 2034 3584 2315 3537 
Q 2597 3491 2834 3397 
z
" transform="scale(0.015625)"/>
       <path id="DejaVuSans-6d" d="M 3328 2828 
Q 3544 3216 3844 3400 
Q 4144 3584 4550 3584 
Q 5097 3584 5394 3201 
Q 5691 2819 5691 2113 
L 5691 0 
L 5113 0 
L 5113 2094 
Q 5113 2597 4934 2840 
Q 4756 3084 4391 3084 
Q 3944 3084 3684 2787 
Q 3425 2491 3425 1978 
L 3425 0 
L 2847 0 
L 2847 2094 
Q 2847 2600 2669 2842 
Q 2491 3084 2119 3084 
Q 1678 3084 1418 2786 
Q 1159 2488 1159 1978 
L 1159 0 
L 581 0 
L 581 3500 
L 1159 3500 
L 1159 2956 
Q 1356 3278 1631 3431 
Q 1906 3584 2284 3584 
Q 2666 3584 2933 3390 
Q 3200 3197 3328 2828 
z
" transform="scale(0.015625)"/>
       <path id="DejaVuSans-63" d="M 3122 3366 
L 3122 2828 
Q 2878 2963 2633 3030 
Q 2388 3097 2138 3097 
Q 1578 3097 1268 2742 
Q 959 2388 959 1747 
Q 959 1106 1268 751 
Q 1578 397 2138 397 
Q 2388 397 2633 464 
Q 2878 531 3122 666 
L 3122 134 
Q 2881 22 2623 -34 
Q 2366 -91 2075 -91 
Q 1284 -91 818 406 
Q 353 903 353 1747 
Q 353 2603 823 3093 
Q 1294 3584 2113 3584 
Q 2378 3584 2631 3529 
Q 2884 3475 3122 3366 
z
" transform="scale(0.015625)"/>
      </defs>
      <use xlink:href="#DejaVuSans-54"/>
      <use xlink:href="#DejaVuSans-72" x="46.333984"/>
      <use xlink:href="#DejaVuSans-61" x="87.447266"/>
      <use xlink:href="#DejaVuSans-6e" x="148.726562"/>
      <use xlink:href="#DejaVuSans-73" x="212.105469"/>
      <use xlink:href="#DejaVuSans-6d" x="264.205078"/>
      <use xlink:href="#DejaVuSans-69" x="361.617188"/>
      <use xlink:href="#DejaVuSans-74" x="389.400391"/>
      <use xlink:href="#DejaVuSans-74" x="428.609375"/>
      <use xlink:href="#DejaVuSans-69" x="467.818359"/>
      <use xlink:href="#DejaVuSans-6e" x="495.601562"/>
      <use xlink:href="#DejaVuSans-67" x="558.980469"/>
      <use xlink:href="#DejaVuSans-20" x="622.457031"/>
      <use xlink:href="#DejaVuSans-64" x="654.244141"/>
      <use xlink:href="#DejaVuSans-69" x="717.720703"/>
      <use xlink:href="#DejaVuSans-73" x="745.503906"/>
      <use xlink:href="#DejaVuSans-74" x="797.603516"/>
      <use xlink:href="#DejaVuSans-61" x="836.8125"/>
      <use xlink:href="#DejaVuSans-6e" x="898.091797"/>
      <use xlink:href="#DejaVuSans-63" x="961.470703"/>
      <use xlink:href="#DejaVuSans-65" x="1016.451172"/>
      <use xlink:href="#DejaVuSans-20" x="1077.974609"/>
      <use xlink:href="#DejaVuSans-5b" x="1109.761719"/>
      <use xlink:href="#DejaVuSans-6d" x="1148.775391"/>
      <use xlink:href="#DejaVuSans-5d" x="1246.1875"/>
     </g>
    </g>
   </g>
   <g id="matplotlib.axis_4">
    <g id="ytick_8">
     <g id="line2d_37">
      <path d="M 292.934995 160.045762 
L 637.2 160.045762 
" clip-path="url(#p7eb4d511c0)" style="fill: none; stroke: #b0b0b0; stroke-width: 0.8; stroke-linecap: square"/>
     </g>
     <g id="line2d_38">
      <g>
       <use xlink:href="#m73eb3231c5" x="292.934995" y="160.045762" style="stroke: #000000; stroke-width: 0.8"/>
      </g>
     </g>
     <g id="text_34">
      <!-- −2 -->
      <g transform="translate(271.192807 163.844981) scale(0.1 -0.1)">
       <defs>
        <path id="DejaVuSans-2212" d="M 678 2272 
L 4684 2272 
L 4684 1741 
L 678 1741 
L 678 2272 
z
" transform="scale(0.015625)"/>
       </defs>
       <use xlink:href="#DejaVuSans-2212"/>
       <use xlink:href="#DejaVuSans-32" x="83.789062"/>
      </g>
     </g>
    </g>
    <g id="ytick_9">
     <g id="line2d_39">
      <path d="M 292.934995 120.591178 
L 637.2 120.591178 
" clip-path="url(#p7eb4d511c0)" style="fill: none; stroke: #b0b0b0; stroke-width: 0.8; stroke-linecap: square"/>
     </g>
     <g id="line2d_40">
      <g>
       <use xlink:href="#m73eb3231c5" x="292.934995" y="120.591178" style="stroke: #000000; stroke-width: 0.8"/>
      </g>
     </g>
     <g id="text_35">
      <!-- 0 -->
      <g transform="translate(279.572495 124.390397) scale(0.1 -0.1)">
       <use xlink:href="#DejaVuSans-30"/>
      </g>
     </g>
    </g>
    <g id="ytick_10">
     <g id="line2d_41">
      <path d="M 292.934995 81.136594 
L 637.2 81.136594 
" clip-path="url(#p7eb4d511c0)" style="fill: none; stroke: #b0b0b0; stroke-width: 0.8; stroke-linecap: square"/>
     </g>
     <g id="line2d_42">
      <g>
       <use xlink:href="#m73eb3231c5" x="292.934995" y="81.136594" style="stroke: #000000; stroke-width: 0.8"/>
      </g>
     </g>
     <g id="text_36">
      <!-- 2 -->
      <g transform="translate(279.572495 84.935812) scale(0.1 -0.1)">
       <use xlink:href="#DejaVuSans-32"/>
      </g>
     </g>
    </g>
    <g id="ytick_11">
     <g id="line2d_43">
      <path d="M 292.934995 41.682009 
L 637.2 41.682009 
" clip-path="url(#p7eb4d511c0)" style="fill: none; stroke: #b0b0b0; stroke-width: 0.8; stroke-linecap: square"/>
     </g>
     <g id="line2d_44">
      <g>
       <use xlink:href="#m73eb3231c5" x="292.934995" y="41.682009" style="stroke: #000000; stroke-width: 0.8"/>
      </g>
     </g>
     <g id="text_37">
      <!-- 4 -->
      <g transform="translate(279.572495 45.481228) scale(0.1 -0.1)">
       <use xlink:href="#DejaVuSans-34"/>
      </g>
     </g>
    </g>
    <g id="text_38">
     <!-- Relief -->
     <g transform="translate(265.11312 106.875657) rotate(-90) scale(0.1 -0.1)">
      <defs>
       <path id="DejaVuSans-52" d="M 2841 2188 
Q 3044 2119 3236 1894 
Q 3428 1669 3622 1275 
L 4263 0 
L 3584 0 
L 2988 1197 
Q 2756 1666 2539 1819 
Q 2322 1972 1947 1972 
L 1259 1972 
L 1259 0 
L 628 0 
L 628 4666 
L 2053 4666 
Q 2853 4666 3247 4331 
Q 3641 3997 3641 3322 
Q 3641 2881 3436 2590 
Q 3231 2300 2841 2188 
z
M 1259 4147 
L 1259 2491 
L 2053 2491 
Q 2509 2491 2742 2702 
Q 2975 2913 2975 3322 
Q 2975 3731 2742 3939 
Q 2509 4147 2053 4147 
L 1259 4147 
z
" transform="scale(0.015625)"/>
       <path id="DejaVuSans-6c" d="M 603 4863 
L 1178 4863 
L 1178 0 
L 603 0 
L 603 4863 
z
" transform="scale(0.015625)"/>
       <path id="DejaVuSans-66" d="M 2375 4863 
L 2375 4384 
L 1825 4384 
Q 1516 4384 1395 4259 
Q 1275 4134 1275 3809 
L 1275 3500 
L 2222 3500 
L 2222 3053 
L 1275 3053 
L 1275 0 
L 697 0 
L 697 3053 
L 147 3053 
L 147 3500 
L 697 3500 
L 697 3744 
Q 697 4328 969 4595 
Q 1241 4863 1831 4863 
L 2375 4863 
z
" transform="scale(0.015625)"/>
      </defs>
      <use xlink:href="#DejaVuSans-52"/>
      <use xlink:href="#DejaVuSans-65" x="64.982422"/>
      <use xlink:href="#DejaVuSans-6c" x="126.505859"/>
      <use xlink:href="#DejaVuSans-69" x="154.289062"/>
      <use xlink:href="#DejaVuSans-65" x="182.072266"/>
      <use xlink:href="#DejaVuSans-66" x="243.595703"/>
     </g>
    </g>
   </g>
   <g id="line2d_45">
    <path d="M 316.677409 120.591178 
L 318.05695 122.05555 
L 319.43649 123.717195 
L 320.816031 124.787021 
L 322.195571 126.251393 
L 323.575112 127.913038 
L 324.954653 129.574683 
L 326.334193 131.630874 
L 327.713734 132.897973 
L 329.093274 134.165073 
L 330.472815 134.840353 
L 331.852356 135.31836 
L 333.231896 135.599095 
L 334.611437 135.090738 
L 335.990977 134.582381 
" clip-path="url(#p7eb4d511c0)" style="fill: none; stroke: #1b9e77; stroke-width: 1.5; stroke-linecap: square"/>
   </g>
   <g id="line2d_46">
    <path d="M 335.990977 174.04 
L 335.990977 11.830064 
" clip-path="url(#p7eb4d511c0)" style="fill: none; stroke-dasharray: 5.55,2.4; stroke-dashoffset: 0; stroke: #808080; stroke-opacity: 0.5; stroke-width: 1.5"/>
   </g>
   <g id="line2d_47">
    <path d="M 316.677409 120.591178 
L 318.011712 122.05555 
L 319.346015 123.322649 
L 320.680319 124.392475 
L 322.014622 125.856848 
L 323.348925 127.123947 
L 324.683228 128.785592 
L 326.017532 130.64451 
L 327.351835 131.911609 
L 328.686138 133.178708 
L 330.020441 133.853988 
L 331.354745 134.529269 
L 332.689048 134.810003 
L 334.023351 134.893465 
L 335.357654 134.385108 
L 336.691958 133.876751 
L 338.026261 133.762939 
L 339.360564 134.043674 
L 340.694867 134.718954 
L 342.029171 135.394235 
L 343.363474 136.069515 
L 344.697777 136.942068 
L 346.03208 137.222803 
L 347.366384 138.884448 
L 348.700687 140.743366 
L 350.03499 142.996829 
L 351.369293 145.05302 
L 352.703597 146.517392 
L 354.0379 147.389946 
L 355.372203 148.065226 
L 356.706506 148.740506 
" clip-path="url(#p7eb4d511c0)" style="fill: none; stroke: #d95f02; stroke-width: 1.5; stroke-linecap: square"/>
   </g>
   <g id="line2d_48">
    <path d="M 356.706506 174.04 
L 356.706506 11.830064 
" clip-path="url(#p7eb4d511c0)" style="fill: none; stroke-dasharray: 5.55,2.4; stroke-dashoffset: 0; stroke: #808080; stroke-opacity: 0.5; stroke-width: 1.5"/>
   </g>
   <g id="line2d_49">
    <path d="M 316.677409 120.591178 
L 317.96714 121.858277 
L 319.25687 123.322649 
L 320.546601 124.195203 
L 321.836332 125.462302 
L 323.126062 126.729401 
L 324.415793 128.391046 
L 325.705524 130.052691 
L 326.995254 131.517063 
L 328.284985 132.586889 
L 329.574716 133.26217 
L 330.864446 133.93745 
L 332.154177 134.020912 
L 333.443908 134.301646 
L 334.733639 133.793289 
L 336.023369 133.284932 
L 337.3131 132.579302 
L 338.602831 132.662763 
L 339.892561 133.140771 
L 341.182292 133.816051 
L 342.472023 134.491332 
L 343.761753 134.969339 
L 345.051484 135.447347 
L 346.341215 135.925354 
L 347.630945 137.192453 
L 348.920676 139.248644 
L 350.210407 141.502108 
L 351.500137 143.755571 
L 352.789868 145.219944 
L 354.079599 146.092497 
L 355.369329 146.767777 
L 356.65906 147.443058 
L 357.948791 148.118338 
L 359.238522 148.2018 
L 360.528252 148.285261 
L 361.817983 148.17145 
L 363.107714 148.254912 
L 364.397444 148.338373 
L 365.687175 148.421835 
L 366.976906 147.716205 
L 368.266636 147.405121 
L 369.556367 147.488582 
L 370.846098 147.374771 
L 372.135828 147.458232 
L 373.425559 146.949875 
L 374.71529 146.836064 
L 376.00502 146.327707 
L 377.294751 145.81935 
L 378.584482 144.916447 
L 379.874212 144.013544 
L 381.163943 143.505187 
L 382.453674 142.602284 
L 383.743404 142.093926 
L 385.033135 140.599205 
L 386.322866 139.696302 
L 387.612597 138.20158 
L 388.902327 137.101404 
L 390.192058 136.198501 
L 391.481789 134.703779 
L 392.771519 135.37906 
L 394.06125 135.659794 
L 395.350981 134.954164 
L 396.640711 131.486713 
L 397.930442 129.400173 
L 399.220173 127.116359 
" clip-path="url(#p7eb4d511c0)" style="fill: none; stroke: #7570b3; stroke-width: 1.5; stroke-linecap: square"/>
   </g>
   <g id="line2d_50">
    <path d="M 399.220173 174.04 
L 399.220173 11.830064 
" clip-path="url(#p7eb4d511c0)" style="fill: none; stroke-dasharray: 5.55,2.4; stroke-dashoffset: 0; stroke: #808080; stroke-opacity: 0.5; stroke-width: 1.5"/>
   </g>
   <g id="line2d_51">
    <path d="M 316.677409 120.591178 
L 317.961765 121.858277 
L 319.246121 123.322649 
L 320.530477 124.195203 
L 321.814834 125.462302 
L 323.09919 126.729401 
L 324.383546 128.391046 
L 325.667902 130.052691 
L 326.952258 131.31979 
L 328.236614 132.586889 
L 329.52097 133.26217 
L 330.805327 133.93745 
L 332.089683 134.020912 
L 333.374039 134.301646 
L 334.658395 133.596016 
L 335.942751 133.087659 
L 337.227107 132.382029 
L 338.511463 132.46549 
L 339.79582 132.746225 
L 341.080176 133.421505 
L 342.364532 134.096786 
L 343.648888 134.574793 
L 344.933244 135.052801 
L 346.2176 135.530808 
L 347.501956 136.797907 
L 348.786313 138.854098 
L 350.070669 141.107562 
L 351.355025 143.361026 
L 352.639381 145.022671 
L 353.923737 145.895224 
L 355.208093 146.767777 
L 356.49245 147.443058 
L 357.776806 148.315611 
L 359.061162 148.596346 
L 360.345518 148.679807 
L 361.629874 148.763269 
L 362.91423 148.84673 
L 364.198586 149.324738 
L 365.482943 149.210927 
L 366.767299 148.899842 
L 368.051655 148.391485 
L 369.336011 148.277674 
L 370.620367 148.361135 
L 371.904723 148.247324 
L 373.189079 148.133513 
L 374.473436 148.019702 
L 375.757792 147.90589 
L 377.042148 147.397533 
L 378.326504 146.49463 
L 379.61086 145.789 
L 380.895216 145.280643 
L 382.179572 144.575013 
L 383.463929 143.67211 
L 384.748285 142.571934 
L 386.032641 141.471758 
L 387.316997 140.174309 
L 388.601353 138.87686 
L 389.885709 137.776684 
L 391.170066 136.873781 
L 392.454422 136.75997 
L 393.738778 138.027069 
L 395.023134 138.505077 
L 396.30749 135.432172 
L 397.591846 132.753812 
L 398.876202 130.272726 
L 400.160559 128.186185 
L 401.444915 125.902372 
L 402.729271 124.210377 
L 404.013627 122.32111 
L 405.297983 121.220934 
L 406.582339 119.726212 
L 407.866695 118.428763 
L 409.151052 116.539496 
L 410.435408 115.43932 
L 411.719764 114.141871 
L 413.00412 113.041695 
L 414.288476 112.336065 
L 415.572832 111.038616 
L 416.857188 110.332986 
L 418.141545 108.838264 
L 419.425901 108.132634 
" clip-path="url(#p7eb4d511c0)" style="fill: none; stroke: #e7298a; stroke-width: 1.5; stroke-linecap: square"/>
   </g>
   <g id="line2d_52">
    <path d="M 419.425901 174.04 
L 419.425901 11.830064 
" clip-path="url(#p7eb4d511c0)" style="fill: none; stroke-dasharray: 5.55,2.4; stroke-dashoffset: 0; stroke: #808080; stroke-opacity: 0.5; stroke-width: 1.5"/>
   </g>
   <g id="line2d_53">
    <path d="M 316.677409 120.591178 
L 317.957676 122.05555 
L 319.237943 123.322649 
L 320.518211 124.195203 
L 321.798478 125.462302 
L 323.078745 126.729401 
L 324.359012 128.391046 
L 325.63928 129.855418 
L 326.919547 131.31979 
L 328.199814 132.586889 
L 329.480081 133.26217 
L 330.760349 133.93745 
L 332.040616 134.020912 
L 333.320883 134.104373 
L 334.60115 133.596016 
L 335.881418 132.890386 
L 337.161685 132.184756 
L 338.441952 132.070945 
L 339.722219 132.351679 
L 341.002486 133.026959 
L 342.282754 133.70224 
L 343.563021 134.37752 
L 344.843288 134.855528 
L 346.123555 135.333535 
L 347.403823 136.206089 
L 348.68409 138.262279 
L 349.964357 140.713016 
L 351.244624 142.96648 
L 352.524892 144.825398 
L 353.805159 145.697951 
L 355.085426 146.570504 
L 356.365693 147.640331 
L 357.645961 148.512884 
L 358.926228 149.385437 
L 360.206495 149.468899 
L 361.486762 149.749633 
L 362.76703 149.833095 
L 364.047297 150.705648 
L 365.327564 150.591837 
L 366.607831 150.280753 
L 367.888098 149.772396 
L 369.168366 149.658584 
L 370.448633 149.742046 
L 371.7289 149.628235 
L 373.009167 149.711696 
L 374.289435 149.597885 
L 375.569702 149.681347 
L 376.849969 149.172989 
L 378.130236 148.861905 
L 379.410504 148.156275 
L 380.690771 147.647918 
L 381.971038 146.942288 
L 383.251305 146.039385 
L 384.531573 145.136482 
L 385.81184 144.036306 
L 387.092107 143.133403 
L 388.372374 141.638681 
L 389.652642 140.735778 
L 390.932909 139.832875 
L 392.213176 139.719064 
L 393.493443 141.380709 
L 394.77371 142.055989 
L 396.053978 139.772176 
L 397.334245 136.501998 
L 398.614512 133.823639 
L 399.894779 131.737098 
L 401.175047 129.84783 
L 402.455314 127.958563 
L 403.735581 126.266568 
L 405.015848 125.166392 
L 406.296116 123.868943 
L 407.576383 122.96604 
L 408.85665 121.471319 
L 410.136917 120.17387 
L 411.417185 118.481875 
L 412.697452 116.987153 
L 413.977719 115.492432 
L 415.257986 114.194983 
L 416.538254 112.700261 
L 417.818521 111.600085 
L 419.098788 110.302636 
L 420.379055 109.399733 
L 421.659322 108.102285 
L 422.93959 107.396654 
L 424.219857 105.901933 
L 425.500124 104.604484 
L 426.780391 103.109762 
L 428.060659 101.417767 
L 429.340926 99.923046 
L 430.621193 97.836505 
L 431.90146 96.341783 
L 433.181728 93.860697 
L 434.461995 92.168702 
L 435.742262 89.687616 
L 437.022529 87.403803 
L 438.302797 84.725443 
L 439.583064 81.849811 
L 440.863331 79.368725 
L 442.143598 76.29582 
L 443.423866 73.814733 
L 444.704133 70.544555 
L 445.9844 68.063469 
L 447.264667 65.187837 
L 448.544934 62.904023 
L 449.825202 60.62021 
L 451.105469 58.533669 
L 452.385736 57.038947 
L 453.666003 55.346953 
L 454.946271 54.641323 
L 456.226538 53.935693 
L 457.506805 54.4137 
L 458.787072 54.891708 
L 460.06734 55.566988 
" clip-path="url(#p7eb4d511c0)" style="fill: none; stroke: #66a61e; stroke-width: 1.5; stroke-linecap: square"/>
   </g>
   <g id="line2d_54">
    <path d="M 460.06734 174.04 
L 460.06734 11.830064 
" clip-path="url(#p7eb4d511c0)" style="fill: none; stroke-dasharray: 5.55,2.4; stroke-dashoffset: 0; stroke: #808080; stroke-opacity: 0.5; stroke-width: 1.5"/>
   </g>
   <g id="line2d_55">
    <path d="M 316.677409 120.591178 
L 317.958266 122.05555 
L 319.239123 123.322649 
L 320.51998 124.392475 
L 321.800837 125.659575 
L 323.081694 126.729401 
L 324.362551 128.391046 
L 325.643408 129.855418 
L 326.924265 131.517063 
L 328.205122 132.586889 
L 330.766836 133.93745 
L 333.32855 134.104373 
L 334.609407 133.596016 
L 337.171121 132.184756 
L 338.451977 131.873672 
L 341.013691 132.829687 
L 344.856262 134.855528 
L 346.137119 135.136262 
L 347.417976 136.206089 
L 348.698833 138.262279 
L 351.260547 142.96648 
L 352.541404 144.825398 
L 353.822261 145.895224 
L 355.103118 146.767777 
L 356.383975 147.837603 
L 358.945689 149.58271 
L 360.226546 149.863445 
L 361.507403 150.341452 
L 362.78826 150.622187 
L 364.069117 151.297467 
L 365.349974 151.183656 
L 366.630831 150.872572 
L 367.911688 150.364214 
L 369.192545 150.250403 
L 371.754259 150.417326 
L 374.315973 150.189704 
L 375.59683 150.470438 
L 376.877687 149.962081 
L 378.158544 149.650997 
L 379.439401 148.945367 
L 380.720258 148.43701 
L 383.281972 147.02575 
L 384.562829 146.122847 
L 385.843685 145.022671 
L 387.124542 144.119768 
L 388.405399 142.822319 
L 390.967113 141.016513 
L 392.24797 141.099974 
L 393.528827 142.761619 
L 394.809684 143.042354 
L 396.090541 140.955813 
L 397.371398 137.488363 
L 399.933112 132.920736 
L 402.494826 129.339473 
L 403.775683 127.844752 
L 405.05654 126.547303 
L 406.337397 125.447127 
L 407.618254 124.544224 
L 408.899111 123.444048 
L 411.460825 120.454604 
L 412.741682 118.565337 
L 414.022539 117.070615 
L 415.303396 115.37862 
L 419.145967 111.486274 
L 420.426824 110.583371 
L 421.707681 109.483195 
L 422.988538 108.580292 
L 425.550252 105.985394 
L 429.392823 100.90941 
L 433.235393 95.044335 
L 434.51625 92.957794 
L 437.077964 87.995621 
L 440.920535 79.565998 
L 448.605677 63.495842 
L 449.886534 61.212028 
L 452.448248 57.23622 
L 453.729105 56.136044 
L 455.009962 54.838596 
L 457.571676 54.610973 
L 458.852533 55.483526 
L 460.13339 56.158807 
L 461.414247 57.03136 
L 462.695104 57.70664 
L 463.975961 57.987375 
L 465.256818 58.465382 
L 466.537675 57.957025 
L 467.818532 58.632306 
L 469.099389 58.321221 
L 470.380246 58.20741 
L 472.94196 57.585242 
L 474.222817 57.668703 
L 475.503674 57.357619 
L 476.784531 57.835626 
L 478.065388 57.919088 
L 479.346245 58.594368 
L 480.627101 58.875103 
L 484.469672 60.309125 
L 485.750529 61.181679 
L 487.031386 61.659686 
L 488.312243 62.926785 
L 488.312243 62.926785 
" clip-path="url(#p7eb4d511c0)" style="fill: none; stroke: #e6ab02; stroke-width: 1.5; stroke-linecap: square"/>
   </g>
   <g id="line2d_56">
    <path d="M 488.312243 174.04 
L 488.312243 11.830064 
" clip-path="url(#p7eb4d511c0)" style="fill: none; stroke-dasharray: 5.55,2.4; stroke-dashoffset: 0; stroke: #808080; stroke-opacity: 0.5; stroke-width: 1.5"/>
   </g>
   <g id="line2d_57">
    <path d="M 316.677409 120.591178 
L 319.228552 123.519922 
L 320.504124 124.392475 
L 323.055268 126.926674 
L 324.330839 128.391046 
L 325.606411 130.052691 
L 326.881983 131.517063 
L 328.157554 132.784162 
L 329.433126 133.459442 
L 330.708698 133.740177 
L 331.98427 133.823639 
L 333.259841 133.709827 
L 334.535413 133.20147 
L 337.086556 131.395664 
L 338.362128 131.08458 
L 339.6377 131.168042 
L 340.913272 131.646049 
L 342.188843 132.321329 
L 344.739987 134.066436 
L 346.015558 134.544444 
L 347.29113 135.416997 
L 348.566702 137.670461 
L 351.117845 143.163753 
L 352.393417 145.219944 
L 353.668989 146.684316 
L 354.94456 147.556869 
L 356.220132 148.626695 
L 357.495704 150.28834 
L 358.771276 152.147258 
L 360.046847 153.217084 
L 362.597991 154.962191 
L 363.873562 156.22929 
L 365.149134 156.707298 
L 366.424706 156.001667 
L 367.700278 155.49331 
L 368.975849 155.182226 
L 370.251421 155.265688 
L 371.526993 155.151876 
L 372.802564 154.643519 
L 377.904851 154.977366 
L 379.180423 154.666282 
L 380.455995 154.55247 
L 383.007138 153.14121 
L 384.28271 152.238307 
L 388.109425 150.713236 
L 390.660568 149.301976 
L 391.93614 149.385437 
L 393.211712 150.849809 
L 394.487284 152.116908 
L 395.762855 150.81946 
L 397.038427 146.957463 
L 398.313999 143.884558 
L 399.58957 141.600744 
L 400.865142 139.90875 
L 402.140714 138.808574 
L 404.691857 135.424584 
L 405.967429 134.521681 
L 407.243001 134.40787 
L 408.518572 134.491332 
L 409.794144 134.180247 
L 411.069716 132.488253 
L 412.345288 130.401712 
L 413.620859 127.52608 
L 416.172003 122.76118 
L 417.447574 121.463731 
L 418.723146 120.363555 
L 422.549861 119.430303 
L 423.825433 118.921946 
L 425.101005 118.019043 
L 426.376576 116.721594 
L 427.652148 115.029599 
L 430.203292 111.053791 
L 434.030007 104.005078 
L 436.58115 98.05654 
L 440.407865 88.443279 
L 442.959009 83.283833 
L 445.510152 78.913479 
L 449.336867 73.44295 
L 450.612439 71.750955 
L 453.163583 69.550603 
L 454.439154 68.844973 
L 455.714726 68.533889 
L 456.990298 68.420078 
L 459.541441 68.587001 
L 460.817013 68.867735 
L 462.092585 68.951197 
L 464.643728 69.512666 
L 467.194871 70.468681 
L 468.470443 70.749415 
L 471.021587 70.127247 
L 473.57273 69.110533 
L 476.123873 68.488364 
L 478.675017 69.049833 
L 486.328447 73.101516 
L 488.879591 74.057531 
L 490.155162 74.140992 
L 491.430734 74.421727 
L 493.981877 75.377742 
L 495.257449 76.053022 
L 497.808593 77.009037 
L 499.084164 77.289772 
L 500.359736 77.373233 
L 501.635308 77.259422 
L 505.462023 76.326169 
L 506.737595 75.817812 
L 508.013166 75.704001 
L 510.56431 75.081832 
L 511.839881 75.362567 
L 513.115453 75.248756 
L 514.391025 75.924036 
L 514.391025 75.924036 
" clip-path="url(#p7eb4d511c0)" style="fill: none; stroke: #a6761d; stroke-width: 1.5; stroke-linecap: square"/>
   </g>
   <g id="line2d_58">
    <path d="M 514.391025 174.04 
L 514.391025 11.830064 
" clip-path="url(#p7eb4d511c0)" style="fill: none; stroke-dasharray: 5.55,2.4; stroke-dashoffset: 0; stroke: #808080; stroke-opacity: 0.5; stroke-width: 1.5"/>
   </g>
   <g id="line2d_59">
    <path d="M 316.677409 120.591178 
L 317.952295 122.252823 
L 319.22718 123.717195 
L 321.776952 125.856848 
L 323.051838 127.123947 
L 325.601609 130.052691 
L 326.876495 131.31979 
L 328.151381 132.389616 
L 329.426267 133.064897 
L 330.701152 133.345631 
L 331.976038 133.23182 
L 333.250924 132.920736 
L 335.800695 131.509475 
L 337.075581 130.606572 
L 338.350467 129.900942 
L 339.625353 129.787131 
L 340.900238 129.870593 
L 343.45001 131.615699 
L 344.724896 132.685526 
L 345.999781 133.558079 
L 347.274667 134.825178 
L 348.549553 136.881369 
L 351.099324 143.755571 
L 352.37421 146.403581 
L 353.649096 148.065226 
L 354.923982 149.135052 
L 356.198867 150.402151 
L 357.473753 152.261069 
L 358.748639 154.31726 
L 360.023525 155.781632 
L 361.29841 156.851459 
L 362.573296 158.315831 
L 363.848182 159.385657 
L 365.123068 159.666391 
L 367.672839 158.649677 
L 368.947725 158.535866 
L 370.222611 158.8166 
L 371.497497 158.308243 
L 372.772382 157.602613 
L 374.047268 157.291529 
L 377.871925 157.541914 
L 379.146811 157.822648 
L 380.421697 157.708837 
L 381.696583 157.20048 
L 384.246354 155.78922 
L 385.52124 155.280863 
L 388.071011 154.658694 
L 390.620783 153.247434 
L 391.895669 152.93635 
L 393.170554 154.203449 
L 394.44544 156.062367 
L 395.720326 155.751283 
L 398.270097 149.013654 
L 399.544983 146.335294 
L 400.819869 144.6433 
L 402.094755 143.148578 
L 403.369641 141.25931 
L 404.644526 138.975497 
L 405.919412 137.283502 
L 407.194298 136.577872 
L 408.469184 136.266788 
L 409.744069 135.758431 
L 411.018955 133.869163 
L 413.568727 129.301536 
L 416.118498 125.720274 
L 417.393384 124.817371 
L 418.66827 124.506287 
L 419.943155 124.392475 
L 423.767813 124.64286 
L 425.042698 124.529049 
L 426.317584 124.217965 
L 427.59247 123.315062 
L 428.867356 122.017613 
L 430.142241 120.325618 
L 432.692013 116.34981 
L 435.241784 111.782183 
L 437.791556 106.228192 
L 442.891099 94.725663 
L 445.440871 89.960763 
L 446.715756 88.071496 
L 447.990642 86.576774 
L 451.815299 82.684427 
L 453.090185 81.781524 
L 454.365071 81.075894 
L 455.639957 80.567537 
L 456.914842 80.256453 
L 458.189728 79.748096 
L 459.464614 79.437011 
L 460.7395 78.928654 
L 462.014385 78.61757 
L 463.289271 78.898305 
L 464.564157 79.376312 
L 465.839043 80.051592 
L 467.113928 80.5296 
L 469.6637 80.696523 
L 474.763243 79.452186 
L 476.038129 79.338375 
L 477.313015 79.027291 
L 479.862786 78.799668 
L 482.412558 78.966591 
L 483.687443 79.247326 
L 492.611644 79.831557 
L 496.436301 80.673761 
L 497.711187 81.546314 
L 501.535844 83.572155 
L 502.81073 83.85289 
L 504.085615 83.739079 
L 505.360501 83.82254 
L 506.635387 83.511456 
L 507.910273 83.594918 
L 509.185158 84.072925 
L 510.460044 84.748206 
L 513.009816 87.282404 
L 515.559587 90.211148 
L 518.109359 92.745346 
L 520.65913 94.884999 
L 521.934016 95.363006 
L 523.208902 95.643741 
L 524.483788 95.135384 
L 525.758673 94.429754 
L 528.308445 92.229402 
L 530.858216 89.239958 
L 533.407988 85.855969 
L 535.957759 82.077434 
L 537.232645 80.582712 
L 538.507531 79.285263 
L 539.782417 78.38236 
L 541.057302 77.874003 
L 541.057302 77.874003 
" clip-path="url(#p7eb4d511c0)" style="fill: none; stroke: #666666; stroke-width: 1.5; stroke-linecap: square"/>
   </g>
   <g id="line2d_60">
    <path d="M 541.057302 174.04 
L 541.057302 11.830064 
" clip-path="url(#p7eb4d511c0)" style="fill: none; stroke-dasharray: 5.55,2.4; stroke-dashoffset: 0; stroke: #808080; stroke-opacity: 0.5; stroke-width: 1.5"/>
   </g>
   <g id="line2d_61">
    <path d="M 316.677409 120.591178 
L 319.220043 123.914468 
L 320.49136 124.787021 
L 321.762677 125.856848 
L 325.576628 129.658145 
L 326.847944 131.122517 
L 328.119261 131.99507 
L 329.390578 132.473078 
L 330.661895 132.556539 
L 331.933212 132.442728 
L 334.475846 131.426014 
L 337.01848 129.620208 
L 338.289797 128.914578 
L 339.561114 128.603494 
L 340.832431 128.489682 
L 342.103748 129.164963 
L 343.375065 130.037516 
L 344.646382 131.304615 
L 345.917699 132.374441 
L 347.189016 133.641541 
L 348.460332 136.092277 
L 351.002966 143.163753 
L 352.274283 146.206308 
L 353.5456 148.459772 
L 354.816917 149.924144 
L 356.088234 151.191243 
L 357.359551 152.655615 
L 358.630868 154.711806 
L 359.902185 156.176178 
L 363.716136 159.977476 
L 364.987453 160.25821 
L 366.25877 159.947126 
L 367.530087 159.438769 
L 368.801403 159.127685 
L 370.07272 159.211146 
L 371.344037 159.097335 
L 372.615354 158.391705 
L 373.886671 158.080621 
L 376.429305 158.64209 
L 377.700622 159.120097 
L 380.243256 159.681566 
L 381.514573 158.975936 
L 382.78589 158.467579 
L 385.328524 157.056319 
L 386.599841 156.942508 
L 389.142475 157.503977 
L 391.685108 157.6709 
L 392.956425 158.34618 
L 394.227742 160.007825 
L 395.499059 159.696741 
L 396.770376 156.821109 
L 398.041693 153.550931 
L 399.31301 150.872572 
L 400.584327 148.983304 
L 401.855644 147.883128 
L 403.126961 146.388406 
L 405.669595 141.228961 
L 406.940912 139.536966 
L 408.212229 138.43679 
L 409.483546 137.73116 
L 410.754863 136.433711 
L 412.026179 134.741716 
L 413.297496 133.246995 
L 414.568813 132.146819 
L 415.84013 131.243916 
L 417.111447 130.735559 
L 418.382764 130.424474 
L 419.654081 130.310663 
L 422.196715 130.872132 
L 423.468032 130.955594 
L 424.739349 130.841783 
L 426.010666 130.925244 
L 427.281983 130.811433 
L 428.5533 130.500349 
L 429.824617 129.794719 
L 431.095934 128.694543 
L 432.36725 127.397094 
L 436.181201 121.532018 
L 442.537786 109.323859 
L 445.08042 104.953505 
L 447.623054 101.17497 
L 448.894371 99.680248 
L 450.165688 97.988254 
L 452.708322 95.393356 
L 455.250955 92.403912 
L 456.522272 90.711918 
L 457.793589 89.217196 
L 460.336223 85.833207 
L 461.60754 84.535758 
L 462.878857 83.435582 
L 464.150174 82.729952 
L 466.692808 82.107783 
L 467.964125 82.191245 
L 469.235442 81.880161 
L 470.506759 81.371804 
L 473.049393 81.144181 
L 474.32071 81.227643 
L 475.592026 81.70565 
L 476.863343 81.986385 
L 478.13466 82.464392 
L 484.491245 83.868065 
L 490.84783 84.285373 
L 492.119147 84.171562 
L 493.390464 84.255023 
L 494.661781 84.733031 
L 495.933097 85.605584 
L 497.204414 87.267229 
L 498.475731 89.126147 
L 499.747048 91.379611 
L 502.289682 96.872903 
L 504.832316 102.958014 
L 507.37495 109.634943 
L 509.917584 115.522781 
L 512.460218 118.846071 
L 513.731535 120.113171 
L 515.002852 120.985724 
L 516.274169 121.661004 
L 518.816802 122.222473 
L 523.90207 122.55632 
L 525.173387 122.442508 
L 526.444704 121.934151 
L 527.716021 121.031248 
L 528.987338 119.7338 
L 530.258655 118.041805 
L 534.072606 111.58491 
L 536.61524 106.622738 
L 540.42919 98.193114 
L 541.700507 95.712028 
L 544.243141 91.933492 
L 545.514458 90.636044 
L 546.785775 89.535868 
L 548.057092 88.830238 
L 549.328409 88.32188 
L 550.599726 88.405342 
L 551.871043 88.291531 
L 553.14236 88.374992 
L 554.413677 87.866635 
L 555.684994 87.161005 
L 556.956311 86.060829 
L 558.227628 84.76338 
L 559.498944 83.268659 
L 563.312895 78.192675 
L 564.584212 76.895226 
L 567.126846 74.694874 
L 568.398163 74.38379 
L 569.66948 73.875433 
L 570.940797 73.564348 
L 570.940797 73.564348 
" clip-path="url(#p7eb4d511c0)" style="fill: none; stroke: #e41a1c; stroke-width: 1.5; stroke-linecap: square"/>
   </g>
   <g id="line2d_62">
    <path d="M 570.940797 174.04 
L 570.940797 11.830064 
" clip-path="url(#p7eb4d511c0)" style="fill: none; stroke-dasharray: 5.55,2.4; stroke-dashoffset: 0; stroke: #808080; stroke-opacity: 0.5; stroke-width: 1.5"/>
   </g>
   <g id="line2d_63">
    <path d="M 316.677409 120.591178 
L 317.948503 122.450096 
L 319.219597 123.914468 
L 320.490691 124.984294 
L 321.761785 125.856848 
L 323.032879 126.926674 
L 325.575066 129.460872 
L 326.84616 130.530698 
L 328.117254 131.403252 
L 329.388348 131.881259 
L 330.659442 131.964721 
L 331.930536 131.653636 
L 333.20163 131.145279 
L 334.472724 130.439649 
L 335.743818 129.931292 
L 337.014912 129.028389 
L 338.286006 128.322759 
L 339.5571 128.208948 
L 340.828194 128.292409 
L 342.099288 128.573144 
L 343.370381 129.840243 
L 344.641475 130.712796 
L 345.912569 131.782623 
L 347.183663 133.049722 
L 348.454757 135.500458 
L 350.996945 142.769207 
L 352.268039 145.811762 
L 353.539133 148.262499 
L 354.810227 149.924144 
L 356.081321 151.191243 
L 357.352415 152.655615 
L 358.623509 154.711806 
L 359.894603 156.176178 
L 361.165696 157.443277 
L 362.43679 158.907649 
L 363.707884 160.174749 
L 364.978978 160.850029 
L 366.250072 160.341672 
L 367.521166 160.030588 
L 368.79226 159.916776 
L 370.063354 160.197511 
L 371.334448 160.0837 
L 373.876636 159.066985 
L 375.14773 159.150447 
L 376.418824 159.628454 
L 377.689918 159.909189 
L 378.961011 160.387196 
L 380.232105 160.470658 
L 381.503199 159.765028 
L 382.774293 159.256671 
L 385.316481 157.845411 
L 386.587575 158.126145 
L 389.129763 160.660343 
L 391.671951 161.616358 
L 392.943045 161.69982 
L 394.214139 162.3751 
L 395.485233 162.458562 
L 396.756326 160.174749 
L 398.02742 157.299116 
L 399.298514 155.015303 
L 400.569608 153.717854 
L 401.840702 153.209497 
L 403.111796 152.898413 
L 404.38289 151.403691 
L 405.653984 149.119877 
L 406.925078 147.23061 
L 408.196172 146.327707 
L 409.467266 145.622077 
L 410.73836 144.719174 
L 412.009454 143.421725 
L 413.280548 141.927003 
L 414.551642 140.629554 
L 415.822735 139.726651 
L 417.093829 139.021021 
L 419.636017 138.004307 
L 422.178205 137.776684 
L 424.720393 138.338154 
L 427.262581 138.505077 
L 428.533675 138.193993 
L 429.804769 138.277454 
L 432.346957 138.049832 
L 433.61805 137.344202 
L 434.889144 136.046753 
L 436.160238 134.354758 
L 441.244614 126.600415 
L 445.057896 119.551701 
L 447.600084 114.786802 
L 450.142272 110.810993 
L 451.413365 109.118999 
L 452.684459 107.624277 
L 453.955553 105.932282 
L 460.311023 96.485944 
L 461.582117 95.385768 
L 462.853211 94.482865 
L 464.124305 93.777235 
L 465.395399 93.268878 
L 466.666493 92.563248 
L 469.20868 91.546534 
L 471.750868 90.924365 
L 474.293056 90.696743 
L 475.56415 90.780204 
L 479.377432 89.846952 
L 481.91962 88.830238 
L 484.461808 88.208069 
L 485.732902 88.094258 
L 487.003995 88.177719 
L 488.275089 88.655727 
L 489.546183 89.331007 
L 490.817277 90.203561 
L 492.088371 91.273387 
L 493.359465 92.737759 
L 494.630559 94.399404 
L 495.901653 96.258322 
L 498.443841 100.567976 
L 500.986029 104.877631 
L 504.79931 111.243476 
L 507.341498 116.342223 
L 511.15478 124.87807 
L 512.425874 127.328807 
L 513.696968 129.187725 
L 514.968062 130.454824 
L 517.51025 132.199931 
L 518.781344 132.875211 
L 520.052438 133.747764 
L 521.323532 134.817591 
L 523.865719 135.773606 
L 525.136813 136.05434 
L 528.950095 136.304725 
L 530.221189 135.993641 
L 531.492283 135.485284 
L 532.763377 134.779654 
L 535.305565 132.579302 
L 536.576659 131.08458 
L 537.847753 129.787131 
L 540.389941 126.797688 
L 542.932128 124.991882 
L 544.203222 124.286252 
L 545.474316 123.777894 
L 549.287598 122.844642 
L 551.829786 122.617019 
L 553.10088 122.305935 
L 554.371974 121.600305 
L 555.643068 120.500129 
L 556.914162 119.005407 
L 558.185256 117.313413 
L 563.269631 109.559069 
L 570.896195 97.039826 
L 572.167289 95.742377 
L 573.438383 94.839474 
L 574.709477 94.52839 
L 577.251664 94.300767 
L 578.522758 94.384229 
L 581.064946 94.156606 
L 582.33604 94.437341 
L 583.607134 94.915348 
L 584.878228 95.787902 
L 586.149322 97.449547 
L 587.420416 99.308465 
L 588.69151 100.97011 
L 589.962604 102.237209 
L 591.233698 102.912489 
L 592.504792 103.193224 
L 598.860261 105.583261 
L 600.131355 106.455814 
L 601.402449 107.525641 
L 602.673543 109.384559 
L 603.944637 111.638022 
L 605.215731 114.286032 
L 606.486825 116.14495 
L 607.757919 117.412049 
L 607.757919 117.412049 
" clip-path="url(#p7eb4d511c0)" style="fill: none; stroke: #377eb8; stroke-width: 1.5; stroke-linecap: square"/>
   </g>
   <g id="line2d_64">
    <path d="M 607.757919 174.04 
L 607.757919 11.830064 
" clip-path="url(#p7eb4d511c0)" style="fill: none; stroke-dasharray: 5.55,2.4; stroke-dashoffset: 0; stroke: #808080; stroke-opacity: 0.5; stroke-width: 1.5"/>
   </g>
   <g id="line2d_65">
    <path d="M 316.677409 120.591178 
L 317.9457 122.450096 
L 319.213992 123.914468 
L 320.482283 124.984294 
L 321.750574 125.856848 
L 324.287157 127.9965 
L 326.82374 130.530698 
L 328.092031 131.205979 
L 329.360322 131.683986 
L 330.628614 131.767448 
L 333.165197 131.145279 
L 338.238362 128.322759 
L 339.506653 128.011675 
L 340.774945 128.095136 
L 342.043236 128.573144 
L 344.579819 130.712796 
L 345.84811 131.58535 
L 347.116401 132.852449 
L 348.384693 135.105913 
L 350.921276 142.374661 
L 352.189567 145.614489 
L 353.457858 148.065226 
L 354.72615 149.726871 
L 355.994441 150.99397 
L 357.262732 152.458342 
L 358.531024 154.514533 
L 359.799315 155.978905 
L 361.067606 157.246004 
L 362.335898 158.710376 
L 363.604189 159.977476 
L 364.87248 160.652756 
L 368.677354 159.719503 
L 369.945646 160.000238 
L 371.213937 160.0837 
L 372.482229 159.575342 
L 373.75052 158.869712 
L 375.018811 158.953174 
L 376.287103 159.431181 
L 377.555394 159.711916 
L 378.823685 160.189923 
L 380.091977 160.273385 
L 381.360268 159.765028 
L 383.896851 158.353768 
L 385.165142 157.845411 
L 386.433433 157.928872 
L 387.701725 158.998698 
L 388.970016 160.463071 
L 390.238307 161.138351 
L 391.506599 161.616358 
L 392.77489 161.69982 
L 394.043182 162.3751 
L 395.311473 162.853108 
L 396.579764 160.766567 
L 397.848056 157.890935 
L 399.116347 155.409849 
L 400.384638 153.915127 
L 401.65293 153.40677 
L 402.921221 153.095686 
L 404.189512 151.99551 
L 406.726095 147.822429 
L 407.994386 146.919526 
L 410.530969 145.508266 
L 411.799261 144.210817 
L 414.335843 141.221373 
L 415.604135 140.31847 
L 418.140717 138.90721 
L 420.6773 138.285042 
L 421.945591 138.17123 
L 423.213883 138.451965 
L 424.482174 138.929972 
L 425.750465 139.013434 
L 428.287048 138.785811 
L 429.555339 138.869273 
L 432.091922 138.64165 
L 433.360214 138.330566 
L 434.628505 137.23039 
L 435.896796 135.735668 
L 440.969962 127.981325 
L 442.238253 125.894785 
L 447.311418 115.970439 
L 449.848001 111.994631 
L 451.116292 110.302636 
L 452.384584 108.807915 
L 454.921167 105.423925 
L 458.726041 99.361577 
L 459.994332 97.669582 
L 461.262623 96.17486 
L 462.530915 95.271957 
L 465.067497 93.860697 
L 466.335789 93.35234 
L 467.60408 92.64671 
L 470.140663 91.629996 
L 473.945537 91.288562 
L 475.213828 91.372023 
L 479.018702 90.438771 
L 480.286994 89.733141 
L 481.555285 89.224783 
L 482.823576 88.913699 
L 484.091868 88.405342 
L 485.360159 88.291531 
L 486.62845 88.374992 
L 487.896742 88.655727 
L 490.433324 90.400833 
L 492.969907 92.935032 
L 495.50649 96.258322 
L 498.043073 100.567976 
L 500.579655 104.877631 
L 505.652821 113.299667 
L 508.189403 118.398414 
L 511.994278 126.342442 
L 513.262569 128.398633 
L 514.53086 130.060278 
L 515.799152 131.130104 
L 519.604026 133.155946 
L 520.872317 134.028499 
L 522.140608 134.703779 
L 523.4089 135.181787 
L 527.213774 136.02399 
L 528.482065 136.107452 
L 529.750356 135.993641 
L 532.286939 134.976926 
L 533.555231 134.271296 
L 534.823522 133.17112 
L 536.091813 132.268217 
L 538.628396 130.067866 
L 541.164979 128.26206 
L 544.969853 126.736988 
L 546.238144 126.623177 
L 547.506435 126.312093 
L 552.579601 125.856848 
L 553.847892 125.151217 
L 555.116184 124.248314 
L 556.384475 122.950866 
L 558.921058 119.566876 
L 565.262514 108.936901 
L 570.33568 99.604374 
L 571.603971 97.912379 
L 572.872263 96.614931 
L 574.140554 95.712028 
L 576.677137 95.089859 
L 577.945428 95.173321 
L 579.213719 94.862236 
L 581.750302 94.634614 
L 583.018593 94.718076 
L 584.286885 95.590629 
L 585.555176 96.660455 
L 588.091759 99.983745 
L 589.36005 101.448117 
L 590.628341 102.123398 
L 591.896633 102.601405 
L 594.433216 103.162874 
L 595.701507 103.640882 
L 596.969798 103.921616 
L 598.23809 104.399624 
L 599.506381 105.272177 
L 600.774672 106.342003 
L 602.042964 108.200921 
L 604.579546 112.905121 
L 605.847838 115.355858 
L 607.116129 117.017503 
L 608.38442 118.087329 
L 610.921003 119.043344 
L 612.189294 119.718625 
L 613.457586 120.591178 
L 613.457586 120.591178 
" clip-path="url(#p7eb4d511c0)" style="fill: none; stroke: #4daf4a; stroke-width: 1.5; stroke-linecap: square"/>
   </g>
   <g id="line2d_66">
    <path d="M 613.457586 174.04 
L 613.457586 11.830064 
" clip-path="url(#p7eb4d511c0)" style="fill: none; stroke-dasharray: 5.55,2.4; stroke-dashoffset: 0; stroke: #808080; stroke-opacity: 0.5; stroke-width: 1.5"/>
   </g>
   <g id="patch_8">
    <path d="M 292.934995 174.04 
L 292.934995 11.830064 
" style="fill: none; stroke: #000000; stroke-width: 0.8; stroke-linejoin: miter; stroke-linecap: square"/>
   </g>
   <g id="patch_9">
    <path d="M 637.2 174.04 
L 637.2 11.830064 
" style="fill: none; stroke: #000000; stroke-width: 0.8; stroke-linejoin: miter; stroke-linecap: square"/>
   </g>
   <g id="patch_10">
    <path d="M 292.934995 174.04 
L 637.2 174.04 
" style="fill: none; stroke: #000000; stroke-width: 0.8; stroke-linejoin: miter; stroke-linecap: square"/>
   </g>
   <g id="patch_11">
    <path d="M 292.934995 11.830064 
L 637.2 11.830064 
" style="fill: none; stroke: #000000; stroke-width: 0.8; stroke-linejoin: miter; stroke-linecap: square"/>
   </g>
   <g id="text_39">
    <!-- 1 -->
    <g transform="translate(337.253617 100.059619) scale(0.1 -0.1)">
     <use xlink:href="#DejaVuSans-31"/>
    </g>
   </g>
   <g id="text_40">
    <!-- 2 -->
    <g transform="translate(357.969146 114.217745) scale(0.1 -0.1)">
     <use xlink:href="#DejaVuSans-32"/>
    </g>
   </g>
   <g id="text_41">
    <!-- 3 -->
    <g transform="translate(400.482812 92.593598) scale(0.1 -0.1)">
     <use xlink:href="#DejaVuSans-33"/>
    </g>
   </g>
   <g id="text_42">
    <!-- 4 -->
    <g transform="translate(420.68854 73.609873) scale(0.1 -0.1)">
     <use xlink:href="#DejaVuSans-34"/>
    </g>
   </g>
   <g id="text_43">
    <!-- 5 -->
    <g transform="translate(461.329979 21.044227) scale(0.1 -0.1)">
     <use xlink:href="#DejaVuSans-35"/>
    </g>
   </g>
   <g id="text_44">
    <!-- 6 -->
    <g transform="translate(489.574883 28.404024) scale(0.1 -0.1)">
     <use xlink:href="#DejaVuSans-36"/>
    </g>
   </g>
   <g id="text_45">
    <!-- 7 -->
    <g transform="translate(515.653664 41.401275) scale(0.1 -0.1)">
     <use xlink:href="#DejaVuSans-37"/>
    </g>
   </g>
   <g id="text_46">
    <!-- 8 -->
    <g transform="translate(542.319942 43.351242) scale(0.1 -0.1)">
     <use xlink:href="#DejaVuSans-38"/>
    </g>
   </g>
   <g id="text_47">
    <!-- 9 -->
    <g transform="translate(572.203436 39.041587) scale(0.1 -0.1)">
     <use xlink:href="#DejaVuSans-39"/>
    </g>
   </g>
   <g id="text_48">
    <!-- 10 -->
    <g transform="translate(609.020558 82.889288) scale(0.1 -0.1)">
     <use xlink:href="#DejaVuSans-31"/>
     <use xlink:href="#DejaVuSans-30" x="63.623047"/>
    </g>
   </g>
   <g id="text_49">
    <!-- 11 -->
    <g transform="translate(614.720225 86.068417) scale(0.1 -0.1)">
     <use xlink:href="#DejaVuSans-31"/>
     <use xlink:href="#DejaVuSans-31" x="63.623047"/>
    </g>
   </g>
  </g>
 </g>
 <defs>
  <clipPath id="ped76feae6b">
   <rect x="66.62" y="11.830064" width="172.132503" height="162.209936"/>
  </clipPath>
  <clipPath id="p7eb4d511c0">
   <rect x="292.934995" y="11.830064" width="344.265005" height="162.209936"/>
  </clipPath>
 </defs>
</svg>
