<?xml version="1.0" encoding="utf-8" standalone="no"?>
<!DOCTYPE svg PUBLIC "-//W3C//DTD SVG 1.1//EN"
  "http://www.w3.org/Graphics/SVG/1.1/DTD/svg11.dtd">
<svg xmlns:xlink="http://www.w3.org/1999/xlink" width="648pt" height="216pt" viewBox="0 0 648 216" xmlns="http://www.w3.org/2000/svg" version="1.1">
 <metadata>
  <rdf:RDF xmlns:dc="http://purl.org/dc/elements/1.1/" xmlns:cc="http://creativecommons.org/ns#" xmlns:rdf="http://www.w3.org/1999/02/22-rdf-syntax-ns#">
   <cc:Work>
    <dc:type rdf:resource="http://purl.org/dc/dcmitype/StillImage"/>
    <dc:date>2024-05-05T16:04:43.741081</dc:date>
    <dc:format>image/svg+xml</dc:format>
    <dc:creator>
     <cc:Agent>
      <dc:title>Matplotlib v3.8.4, https://matplotlib.org/</dc:title>
     </cc:Agent>
    </dc:creator>
   </cc:Work>
  </rdf:RDF>
 </metadata>
 <defs>
  <style type="text/css">*{stroke-linejoin: round; stroke-linecap: butt}</style>
 </defs>
 <g id="figure_1">
  <g id="patch_1">
   <path d="M 0 216 
L 648 216 
L 648 0 
L 0 0 
z
" style="fill: #ffffff"/>
  </g>
  <g id="axes_1">
   <g id="patch_2">
    <path d="M 66.62 174.04 
L 239.88869 174.04 
L 239.88869 13.258141 
L 66.62 13.258141 
z
" style="fill: #ffffff"/>
   </g>
   <g id="PathCollection_1">
    <defs>
     <path id="m3ba8c1fdc7" d="M 0 3 
C 0.795609 3 1.55874 2.683901 2.12132 2.12132 
C 2.683901 1.55874 3 0.795609 3 0 
C 3 -0.795609 2.683901 -1.55874 2.12132 -2.12132 
C 1.55874 -2.683901 0.795609 -3 0 -3 
C -0.795609 -3 -1.55874 -2.683901 -2.12132 -2.12132 
C -2.683901 -1.55874 -3 -0.795609 -3 0 
C -3 0.795609 -2.683901 1.55874 -2.12132 2.12132 
C -1.55874 2.683901 -0.795609 3 0 3 
z
" style="stroke: #1b9e77"/>
    </defs>
    <g clip-path="url(#p2766a28e51)">
     <use xlink:href="#m3ba8c1fdc7" x="74.49585" y="166.731734" style="fill: #1b9e77; stroke: #1b9e77"/>
    </g>
   </g>
   <g id="PathCollection_2">
    <defs>
     <path id="m7645ccfa23" d="M 0 3 
C 0.795609 3 1.55874 2.683901 2.12132 2.12132 
C 2.683901 1.55874 3 0.795609 3 0 
C 3 -0.795609 2.683901 -1.55874 2.12132 -2.12132 
C 1.55874 -2.683901 0.795609 -3 0 -3 
C -0.795609 -3 -1.55874 -2.683901 -2.12132 -2.12132 
C -2.683901 -1.55874 -3 -0.795609 -3 0 
C -3 0.795609 -2.683901 1.55874 -2.12132 2.12132 
C -1.55874 2.683901 -0.795609 3 0 3 
z
" style="stroke: #d95f02"/>
    </defs>
    <g clip-path="url(#p2766a28e51)">
     <use xlink:href="#m7645ccfa23" x="82.127094" y="153.814552" style="fill: #d95f02; stroke: #d95f02"/>
    </g>
   </g>
   <g id="PathCollection_3">
    <defs>
     <path id="m141cc9c54a" d="M 0 3 
C 0.795609 3 1.55874 2.683901 2.12132 2.12132 
C 2.683901 1.55874 3 0.795609 3 0 
C 3 -0.795609 2.683901 -1.55874 2.12132 -2.12132 
C 1.55874 -2.683901 0.795609 -3 0 -3 
C -0.795609 -3 -1.55874 -2.683901 -2.12132 -2.12132 
C -2.683901 -1.55874 -3 -0.795609 -3 0 
C -3 0.795609 -2.683901 1.55874 -2.12132 2.12132 
C -1.55874 2.683901 -0.795609 3 0 3 
z
" style="stroke: #7570b3"/>
    </defs>
    <g clip-path="url(#p2766a28e51)">
     <use xlink:href="#m141cc9c54a" x="90.440461" y="140.103281" style="fill: #7570b3; stroke: #7570b3"/>
    </g>
   </g>
   <g id="PathCollection_4">
    <defs>
     <path id="m323708ea23" d="M 0 3 
C 0.795609 3 1.55874 2.683901 2.12132 2.12132 
C 2.683901 1.55874 3 0.795609 3 0 
C 3 -0.795609 2.683901 -1.55874 2.12132 -2.12132 
C 1.55874 -2.683901 0.795609 -3 0 -3 
C -0.795609 -3 -1.55874 -2.683901 -2.12132 -2.12132 
C -2.683901 -1.55874 -3 -0.795609 -3 0 
C -3 0.795609 -2.683901 1.55874 -2.12132 2.12132 
C -1.55874 2.683901 -0.795609 3 0 3 
z
" style="stroke: #e7298a"/>
    </defs>
    <g clip-path="url(#p2766a28e51)">
     <use xlink:href="#m323708ea23" x="107.386941" y="113.130722" style="fill: #e7298a; stroke: #e7298a"/>
    </g>
   </g>
   <g id="PathCollection_5">
    <defs>
     <path id="m222360f1f6" d="M 0 3 
C 0.795609 3 1.55874 2.683901 2.12132 2.12132 
C 2.683901 1.55874 3 0.795609 3 0 
C 3 -0.795609 2.683901 -1.55874 2.12132 -2.12132 
C 1.55874 -2.683901 0.795609 -3 0 -3 
C -0.795609 -3 -1.55874 -2.683901 -2.12132 -2.12132 
C -2.683901 -1.55874 -3 -0.795609 -3 0 
C -3 0.795609 -2.683901 1.55874 -2.12132 2.12132 
C -1.55874 2.683901 -0.795609 3 0 3 
z
" style="stroke: #66a61e"/>
    </defs>
    <g clip-path="url(#p2766a28e51)">
     <use xlink:href="#m222360f1f6" x="117.981155" y="97.275411" style="fill: #66a61e; stroke: #66a61e"/>
    </g>
   </g>
   <g id="PathCollection_6">
    <defs>
     <path id="md0de5d995d" d="M 0 3 
C 0.795609 3 1.55874 2.683901 2.12132 2.12132 
C 2.683901 1.55874 3 0.795609 3 0 
C 3 -0.795609 2.683901 -1.55874 2.12132 -2.12132 
C 1.55874 -2.683901 0.795609 -3 0 -3 
C -0.795609 -3 -1.55874 -2.683901 -2.12132 -2.12132 
C -2.683901 -1.55874 -3 -0.795609 -3 0 
C -3 0.795609 -2.683901 1.55874 -2.12132 2.12132 
C -1.55874 2.683901 -0.795609 3 0 3 
z
" style="stroke: #e6ab02"/>
    </defs>
    <g clip-path="url(#p2766a28e51)">
     <use xlink:href="#md0de5d995d" x="132.529547" y="75.967354" style="fill: #e6ab02; stroke: #e6ab02"/>
    </g>
   </g>
   <g id="PathCollection_7">
    <defs>
     <path id="mb6b23990c0" d="M 0 3 
C 0.795609 3 1.55874 2.683901 2.12132 2.12132 
C 2.683901 1.55874 3 0.795609 3 0 
C 3 -0.795609 2.683901 -1.55874 2.12132 -2.12132 
C 1.55874 -2.683901 0.795609 -3 0 -3 
C -0.795609 -3 -1.55874 -2.683901 -2.12132 -2.12132 
C -2.683901 -1.55874 -3 -0.795609 -3 0 
C -3 0.795609 -2.683901 1.55874 -2.12132 2.12132 
C -1.55874 2.683901 -0.795609 3 0 3 
z
" style="stroke: #a6761d"/>
    </defs>
    <g clip-path="url(#p2766a28e51)">
     <use xlink:href="#mb6b23990c0" x="141.343848" y="62.838415" style="fill: #a6761d; stroke: #a6761d"/>
    </g>
   </g>
   <g id="PathCollection_8">
    <defs>
     <path id="mda3d940b0f" d="M 0 3 
C 0.795609 3 1.55874 2.683901 2.12132 2.12132 
C 2.683901 1.55874 3 0.795609 3 0 
C 3 -0.795609 2.683901 -1.55874 2.12132 -2.12132 
C 1.55874 -2.683901 0.795609 -3 0 -3 
C -0.795609 -3 -1.55874 -2.683901 -2.12132 -2.12132 
C -2.683901 -1.55874 -3 -0.795609 -3 0 
C -3 0.795609 -2.683901 1.55874 -2.12132 2.12132 
C -1.55874 2.683901 -0.795609 3 0 3 
z
" style="stroke: #666666"/>
    </defs>
    <g clip-path="url(#p2766a28e51)">
     <use xlink:href="#mda3d940b0f" x="174.085725" y="38.698108" style="fill: #666666; stroke: #666666"/>
    </g>
   </g>
   <g id="PathCollection_9">
    <defs>
     <path id="md2e913a054" d="M 0 3 
C 0.795609 3 1.55874 2.683901 2.12132 2.12132 
C 2.683901 1.55874 3 0.795609 3 0 
C 3 -0.795609 2.683901 -1.55874 2.12132 -2.12132 
C 1.55874 -2.683901 0.795609 -3 0 -3 
C -0.795609 -3 -1.55874 -2.683901 -2.12132 -2.12132 
C -2.683901 -1.55874 -3 -0.795609 -3 0 
C -3 0.795609 -2.683901 1.55874 -2.12132 2.12132 
C -1.55874 2.683901 -0.795609 3 0 3 
z
" style="stroke: #e41a1c"/>
    </defs>
    <g clip-path="url(#p2766a28e51)">
     <use xlink:href="#md2e913a054" x="198.396995" y="30.757217" style="fill: #e41a1c; stroke: #e41a1c"/>
    </g>
   </g>
   <g id="PathCollection_10">
    <defs>
     <path id="m3c0ac7773a" d="M 0 3 
C 0.795609 3 1.55874 2.683901 2.12132 2.12132 
C 2.683901 1.55874 3 0.795609 3 0 
C 3 -0.795609 2.683901 -1.55874 2.12132 -2.12132 
C 1.55874 -2.683901 0.795609 -3 0 -3 
C -0.795609 -3 -1.55874 -2.683901 -2.12132 -2.12132 
C -2.683901 -1.55874 -3 -0.795609 -3 0 
C -3 0.795609 -2.683901 1.55874 -2.12132 2.12132 
C -1.55874 2.683901 -0.795609 3 0 3 
z
" style="stroke: #377eb8"/>
    </defs>
    <g clip-path="url(#p2766a28e51)">
     <use xlink:href="#m3c0ac7773a" x="232.012841" y="20.566408" style="fill: #377eb8; stroke: #377eb8"/>
    </g>
   </g>
   <g id="matplotlib.axis_1">
    <g id="xtick_1">
     <g id="line2d_1">
      <path d="M 118.236951 174.04 
L 118.236951 13.258141 
" clip-path="url(#p2766a28e51)" style="fill: none; stroke: #b0b0b0; stroke-width: 0.8; stroke-linecap: square"/>
     </g>
     <g id="line2d_2">
      <defs>
       <path id="md74b717333" d="M 0 0 
L 0 3.5 
" style="stroke: #000000; stroke-width: 0.8"/>
      </defs>
      <g>
       <use xlink:href="#md74b717333" x="118.236951" y="174.04" style="stroke: #000000; stroke-width: 0.8"/>
      </g>
     </g>
     <g id="text_1">
      <!-- 14.535 -->
      <g transform="translate(100.741638 188.638438) scale(0.1 -0.1)">
       <defs>
        <path id="DejaVuSans-31" d="M 794 531 
L 1825 531 
L 1825 4091 
L 703 3866 
L 703 4441 
L 1819 4666 
L 2450 4666 
L 2450 531 
L 3481 531 
L 3481 0 
L 794 0 
L 794 531 
z
" transform="scale(0.015625)"/>
        <path id="DejaVuSans-34" d="M 2419 4116 
L 825 1625 
L 2419 1625 
L 2419 4116 
z
M 2253 4666 
L 3047 4666 
L 3047 1625 
L 3713 1625 
L 3713 1100 
L 3047 1100 
L 3047 0 
L 2419 0 
L 2419 1100 
L 313 1100 
L 313 1709 
L 2253 4666 
z
" transform="scale(0.015625)"/>
        <path id="DejaVuSans-2e" d="M 684 794 
L 1344 794 
L 1344 0 
L 684 0 
L 684 794 
z
" transform="scale(0.015625)"/>
        <path id="DejaVuSans-35" d="M 691 4666 
L 3169 4666 
L 3169 4134 
L 1269 4134 
L 1269 2991 
Q 1406 3038 1543 3061 
Q 1681 3084 1819 3084 
Q 2600 3084 3056 2656 
Q 3513 2228 3513 1497 
Q 3513 744 3044 326 
Q 2575 -91 1722 -91 
Q 1428 -91 1123 -41 
Q 819 9 494 109 
L 494 744 
Q 775 591 1075 516 
Q 1375 441 1709 441 
Q 2250 441 2565 725 
Q 2881 1009 2881 1497 
Q 2881 1984 2565 2268 
Q 2250 2553 1709 2553 
Q 1456 2553 1204 2497 
Q 953 2441 691 2322 
L 691 4666 
z
" transform="scale(0.015625)"/>
        <path id="DejaVuSans-33" d="M 2597 2516 
Q 3050 2419 3304 2112 
Q 3559 1806 3559 1356 
Q 3559 666 3084 287 
Q 2609 -91 1734 -91 
Q 1441 -91 1130 -33 
Q 819 25 488 141 
L 488 750 
Q 750 597 1062 519 
Q 1375 441 1716 441 
Q 2309 441 2620 675 
Q 2931 909 2931 1356 
Q 2931 1769 2642 2001 
Q 2353 2234 1838 2234 
L 1294 2234 
L 1294 2753 
L 1863 2753 
Q 2328 2753 2575 2939 
Q 2822 3125 2822 3475 
Q 2822 3834 2567 4026 
Q 2313 4219 1838 4219 
Q 1578 4219 1281 4162 
Q 984 4106 628 3988 
L 628 4550 
Q 988 4650 1302 4700 
Q 1616 4750 1894 4750 
Q 2613 4750 3031 4423 
Q 3450 4097 3450 3541 
Q 3450 3153 3228 2886 
Q 3006 2619 2597 2516 
z
" transform="scale(0.015625)"/>
       </defs>
       <use xlink:href="#DejaVuSans-31"/>
       <use xlink:href="#DejaVuSans-34" x="63.623047"/>
       <use xlink:href="#DejaVuSans-2e" x="127.246094"/>
       <use xlink:href="#DejaVuSans-35" x="159.033203"/>
       <use xlink:href="#DejaVuSans-33" x="222.65625"/>
       <use xlink:href="#DejaVuSans-35" x="286.279297"/>
      </g>
     </g>
    </g>
    <g id="xtick_2">
     <g id="line2d_3">
      <path d="M 171.527766 174.04 
L 171.527766 13.258141 
" clip-path="url(#p2766a28e51)" style="fill: none; stroke: #b0b0b0; stroke-width: 0.8; stroke-linecap: square"/>
     </g>
     <g id="line2d_4">
      <g>
       <use xlink:href="#md74b717333" x="171.527766" y="174.04" style="stroke: #000000; stroke-width: 0.8"/>
      </g>
     </g>
     <g id="text_2">
      <!-- 14.540 -->
      <g transform="translate(154.032453 188.638438) scale(0.1 -0.1)">
       <defs>
        <path id="DejaVuSans-30" d="M 2034 4250 
Q 1547 4250 1301 3770 
Q 1056 3291 1056 2328 
Q 1056 1369 1301 889 
Q 1547 409 2034 409 
Q 2525 409 2770 889 
Q 3016 1369 3016 2328 
Q 3016 3291 2770 3770 
Q 2525 4250 2034 4250 
z
M 2034 4750 
Q 2819 4750 3233 4129 
Q 3647 3509 3647 2328 
Q 3647 1150 3233 529 
Q 2819 -91 2034 -91 
Q 1250 -91 836 529 
Q 422 1150 422 2328 
Q 422 3509 836 4129 
Q 1250 4750 2034 4750 
z
" transform="scale(0.015625)"/>
       </defs>
       <use xlink:href="#DejaVuSans-31"/>
       <use xlink:href="#DejaVuSans-34" x="63.623047"/>
       <use xlink:href="#DejaVuSans-2e" x="127.246094"/>
       <use xlink:href="#DejaVuSans-35" x="159.033203"/>
       <use xlink:href="#DejaVuSans-34" x="222.65625"/>
       <use xlink:href="#DejaVuSans-30" x="286.279297"/>
      </g>
     </g>
    </g>
    <g id="xtick_3">
     <g id="line2d_5">
      <path d="M 224.818581 174.04 
L 224.818581 13.258141 
" clip-path="url(#p2766a28e51)" style="fill: none; stroke: #b0b0b0; stroke-width: 0.8; stroke-linecap: square"/>
     </g>
     <g id="line2d_6">
      <g>
       <use xlink:href="#md74b717333" x="224.818581" y="174.04" style="stroke: #000000; stroke-width: 0.8"/>
      </g>
     </g>
     <g id="text_3">
      <!-- 14.545 -->
      <g transform="translate(207.323268 188.638438) scale(0.1 -0.1)">
       <use xlink:href="#DejaVuSans-31"/>
       <use xlink:href="#DejaVuSans-34" x="63.623047"/>
       <use xlink:href="#DejaVuSans-2e" x="127.246094"/>
       <use xlink:href="#DejaVuSans-35" x="159.033203"/>
       <use xlink:href="#DejaVuSans-34" x="222.65625"/>
       <use xlink:href="#DejaVuSans-35" x="286.279297"/>
      </g>
     </g>
    </g>
    <g id="text_4">
     <!-- Longitude [°] -->
     <g transform="translate(120.394189 202.316563) scale(0.1 -0.1)">
      <defs>
       <path id="DejaVuSans-4c" d="M 628 4666 
L 1259 4666 
L 1259 531 
L 3531 531 
L 3531 0 
L 628 0 
L 628 4666 
z
" transform="scale(0.015625)"/>
       <path id="DejaVuSans-6f" d="M 1959 3097 
Q 1497 3097 1228 2736 
Q 959 2375 959 1747 
Q 959 1119 1226 758 
Q 1494 397 1959 397 
Q 2419 397 2687 759 
Q 2956 1122 2956 1747 
Q 2956 2369 2687 2733 
Q 2419 3097 1959 3097 
z
M 1959 3584 
Q 2709 3584 3137 3096 
Q 3566 2609 3566 1747 
Q 3566 888 3137 398 
Q 2709 -91 1959 -91 
Q 1206 -91 779 398 
Q 353 888 353 1747 
Q 353 2609 779 3096 
Q 1206 3584 1959 3584 
z
" transform="scale(0.015625)"/>
       <path id="DejaVuSans-6e" d="M 3513 2113 
L 3513 0 
L 2938 0 
L 2938 2094 
Q 2938 2591 2744 2837 
Q 2550 3084 2163 3084 
Q 1697 3084 1428 2787 
Q 1159 2491 1159 1978 
L 1159 0 
L 581 0 
L 581 3500 
L 1159 3500 
L 1159 2956 
Q 1366 3272 1645 3428 
Q 1925 3584 2291 3584 
Q 2894 3584 3203 3211 
Q 3513 2838 3513 2113 
z
" transform="scale(0.015625)"/>
       <path id="DejaVuSans-67" d="M 2906 1791 
Q 2906 2416 2648 2759 
Q 2391 3103 1925 3103 
Q 1463 3103 1205 2759 
Q 947 2416 947 1791 
Q 947 1169 1205 825 
Q 1463 481 1925 481 
Q 2391 481 2648 825 
Q 2906 1169 2906 1791 
z
M 3481 434 
Q 3481 -459 3084 -895 
Q 2688 -1331 1869 -1331 
Q 1566 -1331 1297 -1286 
Q 1028 -1241 775 -1147 
L 775 -588 
Q 1028 -725 1275 -790 
Q 1522 -856 1778 -856 
Q 2344 -856 2625 -561 
Q 2906 -266 2906 331 
L 2906 616 
Q 2728 306 2450 153 
Q 2172 0 1784 0 
Q 1141 0 747 490 
Q 353 981 353 1791 
Q 353 2603 747 3093 
Q 1141 3584 1784 3584 
Q 2172 3584 2450 3431 
Q 2728 3278 2906 2969 
L 2906 3500 
L 3481 3500 
L 3481 434 
z
" transform="scale(0.015625)"/>
       <path id="DejaVuSans-69" d="M 603 3500 
L 1178 3500 
L 1178 0 
L 603 0 
L 603 3500 
z
M 603 4863 
L 1178 4863 
L 1178 4134 
L 603 4134 
L 603 4863 
z
" transform="scale(0.015625)"/>
       <path id="DejaVuSans-74" d="M 1172 4494 
L 1172 3500 
L 2356 3500 
L 2356 3053 
L 1172 3053 
L 1172 1153 
Q 1172 725 1289 603 
Q 1406 481 1766 481 
L 2356 481 
L 2356 0 
L 1766 0 
Q 1100 0 847 248 
Q 594 497 594 1153 
L 594 3053 
L 172 3053 
L 172 3500 
L 594 3500 
L 594 4494 
L 1172 4494 
z
" transform="scale(0.015625)"/>
       <path id="DejaVuSans-75" d="M 544 1381 
L 544 3500 
L 1119 3500 
L 1119 1403 
Q 1119 906 1312 657 
Q 1506 409 1894 409 
Q 2359 409 2629 706 
Q 2900 1003 2900 1516 
L 2900 3500 
L 3475 3500 
L 3475 0 
L 2900 0 
L 2900 538 
Q 2691 219 2414 64 
Q 2138 -91 1772 -91 
Q 1169 -91 856 284 
Q 544 659 544 1381 
z
M 1991 3584 
L 1991 3584 
z
" transform="scale(0.015625)"/>
       <path id="DejaVuSans-64" d="M 2906 2969 
L 2906 4863 
L 3481 4863 
L 3481 0 
L 2906 0 
L 2906 525 
Q 2725 213 2448 61 
Q 2172 -91 1784 -91 
Q 1150 -91 751 415 
Q 353 922 353 1747 
Q 353 2572 751 3078 
Q 1150 3584 1784 3584 
Q 2172 3584 2448 3432 
Q 2725 3281 2906 2969 
z
M 947 1747 
Q 947 1113 1208 752 
Q 1469 391 1925 391 
Q 2381 391 2643 752 
Q 2906 1113 2906 1747 
Q 2906 2381 2643 2742 
Q 2381 3103 1925 3103 
Q 1469 3103 1208 2742 
Q 947 2381 947 1747 
z
" transform="scale(0.015625)"/>
       <path id="DejaVuSans-65" d="M 3597 1894 
L 3597 1613 
L 953 1613 
Q 991 1019 1311 708 
Q 1631 397 2203 397 
Q 2534 397 2845 478 
Q 3156 559 3463 722 
L 3463 178 
Q 3153 47 2828 -22 
Q 2503 -91 2169 -91 
Q 1331 -91 842 396 
Q 353 884 353 1716 
Q 353 2575 817 3079 
Q 1281 3584 2069 3584 
Q 2775 3584 3186 3129 
Q 3597 2675 3597 1894 
z
M 3022 2063 
Q 3016 2534 2758 2815 
Q 2500 3097 2075 3097 
Q 1594 3097 1305 2825 
Q 1016 2553 972 2059 
L 3022 2063 
z
" transform="scale(0.015625)"/>
       <path id="DejaVuSans-20" transform="scale(0.015625)"/>
       <path id="DejaVuSans-5b" d="M 550 4863 
L 1875 4863 
L 1875 4416 
L 1125 4416 
L 1125 -397 
L 1875 -397 
L 1875 -844 
L 550 -844 
L 550 4863 
z
" transform="scale(0.015625)"/>
       <path id="DejaVuSans-b0" d="M 1600 4347 
Q 1350 4347 1178 4173 
Q 1006 4000 1006 3750 
Q 1006 3503 1178 3333 
Q 1350 3163 1600 3163 
Q 1850 3163 2022 3333 
Q 2194 3503 2194 3750 
Q 2194 3997 2020 4172 
Q 1847 4347 1600 4347 
z
M 1600 4750 
Q 1800 4750 1984 4673 
Q 2169 4597 2303 4453 
Q 2447 4313 2519 4134 
Q 2591 3956 2591 3750 
Q 2591 3338 2302 3052 
Q 2013 2766 1594 2766 
Q 1172 2766 890 3047 
Q 609 3328 609 3750 
Q 609 4169 896 4459 
Q 1184 4750 1600 4750 
z
" transform="scale(0.015625)"/>
       <path id="DejaVuSans-5d" d="M 1947 4863 
L 1947 -844 
L 622 -844 
L 622 -397 
L 1369 -397 
L 1369 4416 
L 622 4416 
L 622 4863 
L 1947 4863 
z
" transform="scale(0.015625)"/>
      </defs>
      <use xlink:href="#DejaVuSans-4c"/>
      <use xlink:href="#DejaVuSans-6f" x="53.962891"/>
      <use xlink:href="#DejaVuSans-6e" x="115.144531"/>
      <use xlink:href="#DejaVuSans-67" x="178.523438"/>
      <use xlink:href="#DejaVuSans-69" x="242"/>
      <use xlink:href="#DejaVuSans-74" x="269.783203"/>
      <use xlink:href="#DejaVuSans-75" x="308.992188"/>
      <use xlink:href="#DejaVuSans-64" x="372.371094"/>
      <use xlink:href="#DejaVuSans-65" x="435.847656"/>
      <use xlink:href="#DejaVuSans-20" x="497.371094"/>
      <use xlink:href="#DejaVuSans-5b" x="529.158203"/>
      <use xlink:href="#DejaVuSans-b0" x="568.171875"/>
      <use xlink:href="#DejaVuSans-5d" x="618.171875"/>
     </g>
    </g>
   </g>
   <g id="matplotlib.axis_2">
    <g id="ytick_1">
     <g id="line2d_7">
      <path d="M 66.62 172.05213 
L 239.88869 172.05213 
" clip-path="url(#p2766a28e51)" style="fill: none; stroke: #b0b0b0; stroke-width: 0.8; stroke-linecap: square"/>
     </g>
     <g id="line2d_8">
      <defs>
       <path id="m37b243b6aa" d="M 0 0 
L -3.5 0 
" style="stroke: #000000; stroke-width: 0.8"/>
      </defs>
      <g>
       <use xlink:href="#m37b243b6aa" x="66.62" y="172.05213" style="stroke: #000000; stroke-width: 0.8"/>
      </g>
     </g>
     <g id="text_5">
      <!-- 50.001 -->
      <g transform="translate(24.629375 175.851349) scale(0.1 -0.1)">
       <use xlink:href="#DejaVuSans-35"/>
       <use xlink:href="#DejaVuSans-30" x="63.623047"/>
       <use xlink:href="#DejaVuSans-2e" x="127.246094"/>
       <use xlink:href="#DejaVuSans-30" x="159.033203"/>
       <use xlink:href="#DejaVuSans-30" x="222.65625"/>
       <use xlink:href="#DejaVuSans-31" x="286.279297"/>
      </g>
     </g>
    </g>
    <g id="ytick_2">
     <g id="line2d_9">
      <path d="M 66.62 145.582495 
L 239.88869 145.582495 
" clip-path="url(#p2766a28e51)" style="fill: none; stroke: #b0b0b0; stroke-width: 0.8; stroke-linecap: square"/>
     </g>
     <g id="line2d_10">
      <g>
       <use xlink:href="#m37b243b6aa" x="66.62" y="145.582495" style="stroke: #000000; stroke-width: 0.8"/>
      </g>
     </g>
     <g id="text_6">
      <!-- 50.002 -->
      <g transform="translate(24.629375 149.381714) scale(0.1 -0.1)">
       <defs>
        <path id="DejaVuSans-32" d="M 1228 531 
L 3431 531 
L 3431 0 
L 469 0 
L 469 531 
Q 828 903 1448 1529 
Q 2069 2156 2228 2338 
Q 2531 2678 2651 2914 
Q 2772 3150 2772 3378 
Q 2772 3750 2511 3984 
Q 2250 4219 1831 4219 
Q 1534 4219 1204 4116 
Q 875 4013 500 3803 
L 500 4441 
Q 881 4594 1212 4672 
Q 1544 4750 1819 4750 
Q 2544 4750 2975 4387 
Q 3406 4025 3406 3419 
Q 3406 3131 3298 2873 
Q 3191 2616 2906 2266 
Q 2828 2175 2409 1742 
Q 1991 1309 1228 531 
z
" transform="scale(0.015625)"/>
       </defs>
       <use xlink:href="#DejaVuSans-35"/>
       <use xlink:href="#DejaVuSans-30" x="63.623047"/>
       <use xlink:href="#DejaVuSans-2e" x="127.246094"/>
       <use xlink:href="#DejaVuSans-30" x="159.033203"/>
       <use xlink:href="#DejaVuSans-30" x="222.65625"/>
       <use xlink:href="#DejaVuSans-32" x="286.279297"/>
      </g>
     </g>
    </g>
    <g id="ytick_3">
     <g id="line2d_11">
      <path d="M 66.62 119.11286 
L 239.88869 119.11286 
" clip-path="url(#p2766a28e51)" style="fill: none; stroke: #b0b0b0; stroke-width: 0.8; stroke-linecap: square"/>
     </g>
     <g id="line2d_12">
      <g>
       <use xlink:href="#m37b243b6aa" x="66.62" y="119.11286" style="stroke: #000000; stroke-width: 0.8"/>
      </g>
     </g>
     <g id="text_7">
      <!-- 50.003 -->
      <g transform="translate(24.629375 122.912079) scale(0.1 -0.1)">
       <use xlink:href="#DejaVuSans-35"/>
       <use xlink:href="#DejaVuSans-30" x="63.623047"/>
       <use xlink:href="#DejaVuSans-2e" x="127.246094"/>
       <use xlink:href="#DejaVuSans-30" x="159.033203"/>
       <use xlink:href="#DejaVuSans-30" x="222.65625"/>
       <use xlink:href="#DejaVuSans-33" x="286.279297"/>
      </g>
     </g>
    </g>
    <g id="ytick_4">
     <g id="line2d_13">
      <path d="M 66.62 92.643224 
L 239.88869 92.643224 
" clip-path="url(#p2766a28e51)" style="fill: none; stroke: #b0b0b0; stroke-width: 0.8; stroke-linecap: square"/>
     </g>
     <g id="line2d_14">
      <g>
       <use xlink:href="#m37b243b6aa" x="66.62" y="92.643224" style="stroke: #000000; stroke-width: 0.8"/>
      </g>
     </g>
     <g id="text_8">
      <!-- 50.004 -->
      <g transform="translate(24.629375 96.442443) scale(0.1 -0.1)">
       <use xlink:href="#DejaVuSans-35"/>
       <use xlink:href="#DejaVuSans-30" x="63.623047"/>
       <use xlink:href="#DejaVuSans-2e" x="127.246094"/>
       <use xlink:href="#DejaVuSans-30" x="159.033203"/>
       <use xlink:href="#DejaVuSans-30" x="222.65625"/>
       <use xlink:href="#DejaVuSans-34" x="286.279297"/>
      </g>
     </g>
    </g>
    <g id="ytick_5">
     <g id="line2d_15">
      <path d="M 66.62 66.173589 
L 239.88869 66.173589 
" clip-path="url(#p2766a28e51)" style="fill: none; stroke: #b0b0b0; stroke-width: 0.8; stroke-linecap: square"/>
     </g>
     <g id="line2d_16">
      <g>
       <use xlink:href="#m37b243b6aa" x="66.62" y="66.173589" style="stroke: #000000; stroke-width: 0.8"/>
      </g>
     </g>
     <g id="text_9">
      <!-- 50.005 -->
      <g transform="translate(24.629375 69.972808) scale(0.1 -0.1)">
       <use xlink:href="#DejaVuSans-35"/>
       <use xlink:href="#DejaVuSans-30" x="63.623047"/>
       <use xlink:href="#DejaVuSans-2e" x="127.246094"/>
       <use xlink:href="#DejaVuSans-30" x="159.033203"/>
       <use xlink:href="#DejaVuSans-30" x="222.65625"/>
       <use xlink:href="#DejaVuSans-35" x="286.279297"/>
      </g>
     </g>
    </g>
    <g id="ytick_6">
     <g id="line2d_17">
      <path d="M 66.62 39.703954 
L 239.88869 39.703954 
" clip-path="url(#p2766a28e51)" style="fill: none; stroke: #b0b0b0; stroke-width: 0.8; stroke-linecap: square"/>
     </g>
     <g id="line2d_18">
      <g>
       <use xlink:href="#m37b243b6aa" x="66.62" y="39.703954" style="stroke: #000000; stroke-width: 0.8"/>
      </g>
     </g>
     <g id="text_10">
      <!-- 50.006 -->
      <g transform="translate(24.629375 43.503173) scale(0.1 -0.1)">
       <defs>
        <path id="DejaVuSans-36" d="M 2113 2584 
Q 1688 2584 1439 2293 
Q 1191 2003 1191 1497 
Q 1191 994 1439 701 
Q 1688 409 2113 409 
Q 2538 409 2786 701 
Q 3034 994 3034 1497 
Q 3034 2003 2786 2293 
Q 2538 2584 2113 2584 
z
M 3366 4563 
L 3366 3988 
Q 3128 4100 2886 4159 
Q 2644 4219 2406 4219 
Q 1781 4219 1451 3797 
Q 1122 3375 1075 2522 
Q 1259 2794 1537 2939 
Q 1816 3084 2150 3084 
Q 2853 3084 3261 2657 
Q 3669 2231 3669 1497 
Q 3669 778 3244 343 
Q 2819 -91 2113 -91 
Q 1303 -91 875 529 
Q 447 1150 447 2328 
Q 447 3434 972 4092 
Q 1497 4750 2381 4750 
Q 2619 4750 2861 4703 
Q 3103 4656 3366 4563 
z
" transform="scale(0.015625)"/>
       </defs>
       <use xlink:href="#DejaVuSans-35"/>
       <use xlink:href="#DejaVuSans-30" x="63.623047"/>
       <use xlink:href="#DejaVuSans-2e" x="127.246094"/>
       <use xlink:href="#DejaVuSans-30" x="159.033203"/>
       <use xlink:href="#DejaVuSans-30" x="222.65625"/>
       <use xlink:href="#DejaVuSans-36" x="286.279297"/>
      </g>
     </g>
    </g>
    <g id="text_11">
     <!-- Latitude [°] -->
     <g transform="translate(18.549688 122.218602) rotate(-90) scale(0.1 -0.1)">
      <defs>
       <path id="DejaVuSans-61" d="M 2194 1759 
Q 1497 1759 1228 1600 
Q 959 1441 959 1056 
Q 959 750 1161 570 
Q 1363 391 1709 391 
Q 2188 391 2477 730 
Q 2766 1069 2766 1631 
L 2766 1759 
L 2194 1759 
z
M 3341 1997 
L 3341 0 
L 2766 0 
L 2766 531 
Q 2569 213 2275 61 
Q 1981 -91 1556 -91 
Q 1019 -91 701 211 
Q 384 513 384 1019 
Q 384 1609 779 1909 
Q 1175 2209 1959 2209 
L 2766 2209 
L 2766 2266 
Q 2766 2663 2505 2880 
Q 2244 3097 1772 3097 
Q 1472 3097 1187 3025 
Q 903 2953 641 2809 
L 641 3341 
Q 956 3463 1253 3523 
Q 1550 3584 1831 3584 
Q 2591 3584 2966 3190 
Q 3341 2797 3341 1997 
z
" transform="scale(0.015625)"/>
      </defs>
      <use xlink:href="#DejaVuSans-4c"/>
      <use xlink:href="#DejaVuSans-61" x="55.712891"/>
      <use xlink:href="#DejaVuSans-74" x="116.992188"/>
      <use xlink:href="#DejaVuSans-69" x="156.201172"/>
      <use xlink:href="#DejaVuSans-74" x="183.984375"/>
      <use xlink:href="#DejaVuSans-75" x="223.193359"/>
      <use xlink:href="#DejaVuSans-64" x="286.572266"/>
      <use xlink:href="#DejaVuSans-65" x="350.048828"/>
      <use xlink:href="#DejaVuSans-20" x="411.572266"/>
      <use xlink:href="#DejaVuSans-5b" x="443.359375"/>
      <use xlink:href="#DejaVuSans-b0" x="482.373047"/>
      <use xlink:href="#DejaVuSans-5d" x="532.373047"/>
     </g>
    </g>
   </g>
   <g id="patch_3">
    <path d="M 66.62 174.04 
L 66.62 13.258141 
" style="fill: none; stroke: #000000; stroke-width: 0.8; stroke-linejoin: miter; stroke-linecap: square"/>
   </g>
   <g id="patch_4">
    <path d="M 239.88869 174.04 
L 239.88869 13.258141 
" style="fill: none; stroke: #000000; stroke-width: 0.8; stroke-linejoin: miter; stroke-linecap: square"/>
   </g>
   <g id="patch_5">
    <path d="M 66.62 174.04 
L 239.88869 174.04 
" style="fill: none; stroke: #000000; stroke-width: 0.8; stroke-linejoin: miter; stroke-linecap: square"/>
   </g>
   <g id="patch_6">
    <path d="M 66.62 13.258141 
L 239.88869 13.258141 
" style="fill: none; stroke: #000000; stroke-width: 0.8; stroke-linejoin: miter; stroke-linecap: square"/>
   </g>
   <g id="text_12">
    <!-- 0 -->
    <g transform="translate(74.49585 166.731734) scale(0.1 -0.1)">
     <use xlink:href="#DejaVuSans-30"/>
    </g>
   </g>
   <g id="text_13">
    <!-- 1 -->
    <g transform="translate(82.127094 153.814552) scale(0.1 -0.1)">
     <use xlink:href="#DejaVuSans-31"/>
    </g>
   </g>
   <g id="text_14">
    <!-- 2 -->
    <g transform="translate(90.440461 140.103281) scale(0.1 -0.1)">
     <use xlink:href="#DejaVuSans-32"/>
    </g>
   </g>
   <g id="text_15">
    <!-- 3 -->
    <g transform="translate(107.386941 113.130722) scale(0.1 -0.1)">
     <use xlink:href="#DejaVuSans-33"/>
    </g>
   </g>
   <g id="text_16">
    <!-- 4 -->
    <g transform="translate(117.981155 97.275411) scale(0.1 -0.1)">
     <use xlink:href="#DejaVuSans-34"/>
    </g>
   </g>
   <g id="text_17">
    <!-- 5 -->
    <g transform="translate(132.529547 75.967354) scale(0.1 -0.1)">
     <use xlink:href="#DejaVuSans-35"/>
    </g>
   </g>
   <g id="text_18">
    <!-- 6 -->
    <g transform="translate(141.343848 62.838415) scale(0.1 -0.1)">
     <use xlink:href="#DejaVuSans-36"/>
    </g>
   </g>
   <g id="text_19">
    <!-- 7 -->
    <g transform="translate(174.085725 38.698108) scale(0.1 -0.1)">
     <defs>
      <path id="DejaVuSans-37" d="M 525 4666 
L 3525 4666 
L 3525 4397 
L 1831 0 
L 1172 0 
L 2766 4134 
L 525 4134 
L 525 4666 
z
" transform="scale(0.015625)"/>
     </defs>
     <use xlink:href="#DejaVuSans-37"/>
    </g>
   </g>
   <g id="text_20">
    <!-- 8 -->
    <g transform="translate(198.396995 30.757217) scale(0.1 -0.1)">
     <defs>
      <path id="DejaVuSans-38" d="M 2034 2216 
Q 1584 2216 1326 1975 
Q 1069 1734 1069 1313 
Q 1069 891 1326 650 
Q 1584 409 2034 409 
Q 2484 409 2743 651 
Q 3003 894 3003 1313 
Q 3003 1734 2745 1975 
Q 2488 2216 2034 2216 
z
M 1403 2484 
Q 997 2584 770 2862 
Q 544 3141 544 3541 
Q 544 4100 942 4425 
Q 1341 4750 2034 4750 
Q 2731 4750 3128 4425 
Q 3525 4100 3525 3541 
Q 3525 3141 3298 2862 
Q 3072 2584 2669 2484 
Q 3125 2378 3379 2068 
Q 3634 1759 3634 1313 
Q 3634 634 3220 271 
Q 2806 -91 2034 -91 
Q 1263 -91 848 271 
Q 434 634 434 1313 
Q 434 1759 690 2068 
Q 947 2378 1403 2484 
z
M 1172 3481 
Q 1172 3119 1398 2916 
Q 1625 2713 2034 2713 
Q 2441 2713 2670 2916 
Q 2900 3119 2900 3481 
Q 2900 3844 2670 4047 
Q 2441 4250 2034 4250 
Q 1625 4250 1398 4047 
Q 1172 3844 1172 3481 
z
" transform="scale(0.015625)"/>
     </defs>
     <use xlink:href="#DejaVuSans-38"/>
    </g>
   </g>
   <g id="text_21">
    <!-- 9 -->
    <g transform="translate(232.012841 20.566408) scale(0.1 -0.1)">
     <defs>
      <path id="DejaVuSans-39" d="M 703 97 
L 703 672 
Q 941 559 1184 500 
Q 1428 441 1663 441 
Q 2288 441 2617 861 
Q 2947 1281 2994 2138 
Q 2813 1869 2534 1725 
Q 2256 1581 1919 1581 
Q 1219 1581 811 2004 
Q 403 2428 403 3163 
Q 403 3881 828 4315 
Q 1253 4750 1959 4750 
Q 2769 4750 3195 4129 
Q 3622 3509 3622 2328 
Q 3622 1225 3098 567 
Q 2575 -91 1691 -91 
Q 1453 -91 1209 -44 
Q 966 3 703 97 
z
M 1959 2075 
Q 2384 2075 2632 2365 
Q 2881 2656 2881 3163 
Q 2881 3666 2632 3958 
Q 2384 4250 1959 4250 
Q 1534 4250 1286 3958 
Q 1038 3666 1038 3163 
Q 1038 2656 1286 2365 
Q 1534 2075 1959 2075 
z
" transform="scale(0.015625)"/>
     </defs>
     <use xlink:href="#DejaVuSans-39"/>
    </g>
   </g>
  </g>
  <g id="axes_2">
   <g id="patch_7">
    <path d="M 290.662619 174.04 
L 637.2 174.04 
L 637.2 13.258141 
L 290.662619 13.258141 
z
" style="fill: #ffffff"/>
   </g>
   <g id="PathCollection_11">
    <defs>
     <path id="mf481f1ad82" d="M -6.123724 0 
L 6.123724 0 
M 0 6.123724 
L 0 -6.123724 
" style="stroke: #000000; stroke-width: 1.5"/>
    </defs>
    <g clip-path="url(#p68cf84f90d)">
     <use xlink:href="#mf481f1ad82" x="306.414318" y="118.712482" style="stroke: #000000; stroke-width: 1.5"/>
    </g>
   </g>
   <g id="PathCollection_12">
    <g clip-path="url(#p68cf84f90d)">
     <use xlink:href="#mf481f1ad82" x="306.414318" y="111.410685" style="stroke: #000000; stroke-width: 1.5"/>
    </g>
   </g>
   <g id="PathCollection_13">
    <g clip-path="url(#p68cf84f90d)">
     <use xlink:href="#mf481f1ad82" x="306.414318" y="105.934337" style="stroke: #000000; stroke-width: 1.5"/>
    </g>
   </g>
   <g id="PathCollection_14">
    <g clip-path="url(#p68cf84f90d)">
     <use xlink:href="#mf481f1ad82" x="325.623563" y="104.958593" style="stroke: #000000; stroke-width: 1.5"/>
    </g>
   </g>
   <g id="PathCollection_15">
    <defs>
     <path id="m384720e39a" d="M 0 3.535534 
C 0.937635 3.535534 1.836992 3.163008 2.5 2.5 
C 3.163008 1.836992 3.535534 0.937635 3.535534 0 
C 3.535534 -0.937635 3.163008 -1.836992 2.5 -2.5 
C 1.836992 -3.163008 0.937635 -3.535534 0 -3.535534 
C -0.937635 -3.535534 -1.836992 -3.163008 -2.5 -2.5 
C -3.163008 -1.836992 -3.535534 -0.937635 -3.535534 0 
C -3.535534 0.937635 -3.163008 1.836992 -2.5 2.5 
C -1.836992 3.163008 -0.937635 3.535534 0 3.535534 
z
" style="stroke: #000000"/>
    </defs>
    <g clip-path="url(#p68cf84f90d)">
     <use xlink:href="#m384720e39a" x="325.623563" y="138.425165" style="stroke: #000000"/>
    </g>
   </g>
   <g id="PathCollection_16">
    <g clip-path="url(#p68cf84f90d)">
     <use xlink:href="#mf481f1ad82" x="346.297291" y="116.679197" style="stroke: #000000; stroke-width: 1.5"/>
    </g>
   </g>
   <g id="PathCollection_17">
    <g clip-path="url(#p68cf84f90d)">
     <use xlink:href="#m384720e39a" x="346.297291" y="150.145769" style="stroke: #000000"/>
    </g>
   </g>
   <g id="PathCollection_18">
    <g clip-path="url(#p68cf84f90d)">
     <use xlink:href="#mf481f1ad82" x="387.643127" y="100.001417" style="stroke: #000000; stroke-width: 1.5"/>
    </g>
   </g>
   <g id="PathCollection_19">
    <g clip-path="url(#p68cf84f90d)">
     <use xlink:href="#m384720e39a" x="387.643127" y="133.467989" style="stroke: #000000"/>
    </g>
   </g>
   <g id="PathCollection_20">
    <g clip-path="url(#p68cf84f90d)">
     <use xlink:href="#mf481f1ad82" x="412.707648" y="74.766479" style="stroke: #000000; stroke-width: 1.5"/>
    </g>
   </g>
   <g id="PathCollection_21">
    <g clip-path="url(#p68cf84f90d)">
     <use xlink:href="#m384720e39a" x="412.707648" y="108.233051" style="stroke: #000000"/>
    </g>
   </g>
   <g id="PathCollection_22">
    <g clip-path="url(#p68cf84f90d)">
     <use xlink:href="#mf481f1ad82" x="446.79919" y="20.566408" style="stroke: #000000; stroke-width: 1.5"/>
    </g>
   </g>
   <g id="PathCollection_23">
    <g clip-path="url(#p68cf84f90d)">
     <use xlink:href="#m384720e39a" x="446.79919" y="54.03298" style="stroke: #000000"/>
    </g>
   </g>
   <g id="PathCollection_24">
    <g clip-path="url(#p68cf84f90d)">
     <use xlink:href="#mf481f1ad82" x="467.63933" y="22.875972" style="stroke: #000000; stroke-width: 1.5"/>
    </g>
   </g>
   <g id="PathCollection_25">
    <g clip-path="url(#p68cf84f90d)">
     <use xlink:href="#m384720e39a" x="467.63933" y="56.342544" style="stroke: #000000"/>
    </g>
   </g>
   <g id="PathCollection_26">
    <g clip-path="url(#p68cf84f90d)">
     <use xlink:href="#mf481f1ad82" x="527.43984" y="46.680266" style="stroke: #000000; stroke-width: 1.5"/>
    </g>
   </g>
   <g id="PathCollection_27">
    <g clip-path="url(#p68cf84f90d)">
     <use xlink:href="#m384720e39a" x="527.43984" y="80.146838" style="stroke: #000000"/>
    </g>
   </g>
   <g id="PathCollection_28">
    <g clip-path="url(#p68cf84f90d)">
     <use xlink:href="#mf481f1ad82" x="566.343352" y="38.643114" style="stroke: #000000; stroke-width: 1.5"/>
    </g>
   </g>
   <g id="PathCollection_29">
    <g clip-path="url(#p68cf84f90d)">
     <use xlink:href="#m384720e39a" x="566.343352" y="72.109686" style="stroke: #000000"/>
    </g>
   </g>
   <g id="PathCollection_30">
    <g clip-path="url(#p68cf84f90d)">
     <use xlink:href="#mf481f1ad82" x="621.448301" y="89.099637" style="stroke: #000000; stroke-width: 1.5"/>
    </g>
   </g>
   <g id="PathCollection_31">
    <g clip-path="url(#p68cf84f90d)">
     <use xlink:href="#m384720e39a" x="621.448301" y="122.566209" style="stroke: #000000"/>
    </g>
   </g>
   <g id="matplotlib.axis_3">
    <g id="xtick_4">
     <g id="line2d_19">
      <path d="M 306.414318 174.04 
L 306.414318 13.258141 
" clip-path="url(#p68cf84f90d)" style="fill: none; stroke: #b0b0b0; stroke-width: 0.8; stroke-linecap: square"/>
     </g>
     <g id="line2d_20">
      <g>
       <use xlink:href="#md74b717333" x="306.414318" y="174.04" style="stroke: #000000; stroke-width: 0.8"/>
      </g>
     </g>
     <g id="text_22">
      <!-- 0 -->
      <g transform="translate(303.233068 188.638438) scale(0.1 -0.1)">
       <use xlink:href="#DejaVuSans-30"/>
      </g>
     </g>
    </g>
    <g id="xtick_5">
     <g id="line2d_21">
      <path d="M 357.861484 174.04 
L 357.861484 13.258141 
" clip-path="url(#p68cf84f90d)" style="fill: none; stroke: #b0b0b0; stroke-width: 0.8; stroke-linecap: square"/>
     </g>
     <g id="line2d_22">
      <g>
       <use xlink:href="#md74b717333" x="357.861484" y="174.04" style="stroke: #000000; stroke-width: 0.8"/>
      </g>
     </g>
     <g id="text_23">
      <!-- 200 -->
      <g transform="translate(348.317734 188.638438) scale(0.1 -0.1)">
       <use xlink:href="#DejaVuSans-32"/>
       <use xlink:href="#DejaVuSans-30" x="63.623047"/>
       <use xlink:href="#DejaVuSans-30" x="127.246094"/>
      </g>
     </g>
    </g>
    <g id="xtick_6">
     <g id="line2d_23">
      <path d="M 409.308649 174.04 
L 409.308649 13.258141 
" clip-path="url(#p68cf84f90d)" style="fill: none; stroke: #b0b0b0; stroke-width: 0.8; stroke-linecap: square"/>
     </g>
     <g id="line2d_24">
      <g>
       <use xlink:href="#md74b717333" x="409.308649" y="174.04" style="stroke: #000000; stroke-width: 0.8"/>
      </g>
     </g>
     <g id="text_24">
      <!-- 400 -->
      <g transform="translate(399.764899 188.638438) scale(0.1 -0.1)">
       <use xlink:href="#DejaVuSans-34"/>
       <use xlink:href="#DejaVuSans-30" x="63.623047"/>
       <use xlink:href="#DejaVuSans-30" x="127.246094"/>
      </g>
     </g>
    </g>
    <g id="xtick_7">
     <g id="line2d_25">
      <path d="M 460.755814 174.04 
L 460.755814 13.258141 
" clip-path="url(#p68cf84f90d)" style="fill: none; stroke: #b0b0b0; stroke-width: 0.8; stroke-linecap: square"/>
     </g>
     <g id="line2d_26">
      <g>
       <use xlink:href="#md74b717333" x="460.755814" y="174.04" style="stroke: #000000; stroke-width: 0.8"/>
      </g>
     </g>
     <g id="text_25">
      <!-- 600 -->
      <g transform="translate(451.212064 188.638438) scale(0.1 -0.1)">
       <use xlink:href="#DejaVuSans-36"/>
       <use xlink:href="#DejaVuSans-30" x="63.623047"/>
       <use xlink:href="#DejaVuSans-30" x="127.246094"/>
      </g>
     </g>
    </g>
    <g id="xtick_8">
     <g id="line2d_27">
      <path d="M 512.202979 174.04 
L 512.202979 13.258141 
" clip-path="url(#p68cf84f90d)" style="fill: none; stroke: #b0b0b0; stroke-width: 0.8; stroke-linecap: square"/>
     </g>
     <g id="line2d_28">
      <g>
       <use xlink:href="#md74b717333" x="512.202979" y="174.04" style="stroke: #000000; stroke-width: 0.8"/>
      </g>
     </g>
     <g id="text_26">
      <!-- 800 -->
      <g transform="translate(502.659229 188.638438) scale(0.1 -0.1)">
       <use xlink:href="#DejaVuSans-38"/>
       <use xlink:href="#DejaVuSans-30" x="63.623047"/>
       <use xlink:href="#DejaVuSans-30" x="127.246094"/>
      </g>
     </g>
    </g>
    <g id="xtick_9">
     <g id="line2d_29">
      <path d="M 563.650144 174.04 
L 563.650144 13.258141 
" clip-path="url(#p68cf84f90d)" style="fill: none; stroke: #b0b0b0; stroke-width: 0.8; stroke-linecap: square"/>
     </g>
     <g id="line2d_30">
      <g>
       <use xlink:href="#md74b717333" x="563.650144" y="174.04" style="stroke: #000000; stroke-width: 0.8"/>
      </g>
     </g>
     <g id="text_27">
      <!-- 1000 -->
      <g transform="translate(550.925144 188.638438) scale(0.1 -0.1)">
       <use xlink:href="#DejaVuSans-31"/>
       <use xlink:href="#DejaVuSans-30" x="63.623047"/>
       <use xlink:href="#DejaVuSans-30" x="127.246094"/>
       <use xlink:href="#DejaVuSans-30" x="190.869141"/>
      </g>
     </g>
    </g>
    <g id="xtick_10">
     <g id="line2d_31">
      <path d="M 615.097309 174.04 
L 615.097309 13.258141 
" clip-path="url(#p68cf84f90d)" style="fill: none; stroke: #b0b0b0; stroke-width: 0.8; stroke-linecap: square"/>
     </g>
     <g id="line2d_32">
      <g>
       <use xlink:href="#md74b717333" x="615.097309" y="174.04" style="stroke: #000000; stroke-width: 0.8"/>
      </g>
     </g>
     <g id="text_28">
      <!-- 1200 -->
      <g transform="translate(602.372309 188.638438) scale(0.1 -0.1)">
       <use xlink:href="#DejaVuSans-31"/>
       <use xlink:href="#DejaVuSans-32" x="63.623047"/>
       <use xlink:href="#DejaVuSans-30" x="127.246094"/>
       <use xlink:href="#DejaVuSans-30" x="190.869141"/>
      </g>
     </g>
    </g>
    <g id="text_29">
     <!-- Transmitting distance [m] -->
     <g transform="translate(399.673497 202.316563) scale(0.1 -0.1)">
      <defs>
       <path id="DejaVuSans-54" d="M -19 4666 
L 3928 4666 
L 3928 4134 
L 2272 4134 
L 2272 0 
L 1638 0 
L 1638 4134 
L -19 4134 
L -19 4666 
z
" transform="scale(0.015625)"/>
       <path id="DejaVuSans-72" d="M 2631 2963 
Q 2534 3019 2420 3045 
Q 2306 3072 2169 3072 
Q 1681 3072 1420 2755 
Q 1159 2438 1159 1844 
L 1159 0 
L 581 0 
L 581 3500 
L 1159 3500 
L 1159 2956 
Q 1341 3275 1631 3429 
Q 1922 3584 2338 3584 
Q 2397 3584 2469 3576 
Q 2541 3569 2628 3553 
L 2631 2963 
z
" transform="scale(0.015625)"/>
       <path id="DejaVuSans-73" d="M 2834 3397 
L 2834 2853 
Q 2591 2978 2328 3040 
Q 2066 3103 1784 3103 
Q 1356 3103 1142 2972 
Q 928 2841 928 2578 
Q 928 2378 1081 2264 
Q 1234 2150 1697 2047 
L 1894 2003 
Q 2506 1872 2764 1633 
Q 3022 1394 3022 966 
Q 3022 478 2636 193 
Q 2250 -91 1575 -91 
Q 1294 -91 989 -36 
Q 684 19 347 128 
L 347 722 
Q 666 556 975 473 
Q 1284 391 1588 391 
Q 1994 391 2212 530 
Q 2431 669 2431 922 
Q 2431 1156 2273 1281 
Q 2116 1406 1581 1522 
L 1381 1569 
Q 847 1681 609 1914 
Q 372 2147 372 2553 
Q 372 3047 722 3315 
Q 1072 3584 1716 3584 
Q 2034 3584 2315 3537 
Q 2597 3491 2834 3397 
z
" transform="scale(0.015625)"/>
       <path id="DejaVuSans-6d" d="M 3328 2828 
Q 3544 3216 3844 3400 
Q 4144 3584 4550 3584 
Q 5097 3584 5394 3201 
Q 5691 2819 5691 2113 
L 5691 0 
L 5113 0 
L 5113 2094 
Q 5113 2597 4934 2840 
Q 4756 3084 4391 3084 
Q 3944 3084 3684 2787 
Q 3425 2491 3425 1978 
L 3425 0 
L 2847 0 
L 2847 2094 
Q 2847 2600 2669 2842 
Q 2491 3084 2119 3084 
Q 1678 3084 1418 2786 
Q 1159 2488 1159 1978 
L 1159 0 
L 581 0 
L 581 3500 
L 1159 3500 
L 1159 2956 
Q 1356 3278 1631 3431 
Q 1906 3584 2284 3584 
Q 2666 3584 2933 3390 
Q 3200 3197 3328 2828 
z
" transform="scale(0.015625)"/>
       <path id="DejaVuSans-63" d="M 3122 3366 
L 3122 2828 
Q 2878 2963 2633 3030 
Q 2388 3097 2138 3097 
Q 1578 3097 1268 2742 
Q 959 2388 959 1747 
Q 959 1106 1268 751 
Q 1578 397 2138 397 
Q 2388 397 2633 464 
Q 2878 531 3122 666 
L 3122 134 
Q 2881 22 2623 -34 
Q 2366 -91 2075 -91 
Q 1284 -91 818 406 
Q 353 903 353 1747 
Q 353 2603 823 3093 
Q 1294 3584 2113 3584 
Q 2378 3584 2631 3529 
Q 2884 3475 3122 3366 
z
" transform="scale(0.015625)"/>
      </defs>
      <use xlink:href="#DejaVuSans-54"/>
      <use xlink:href="#DejaVuSans-72" x="46.333984"/>
      <use xlink:href="#DejaVuSans-61" x="87.447266"/>
      <use xlink:href="#DejaVuSans-6e" x="148.726562"/>
      <use xlink:href="#DejaVuSans-73" x="212.105469"/>
      <use xlink:href="#DejaVuSans-6d" x="264.205078"/>
      <use xlink:href="#DejaVuSans-69" x="361.617188"/>
      <use xlink:href="#DejaVuSans-74" x="389.400391"/>
      <use xlink:href="#DejaVuSans-74" x="428.609375"/>
      <use xlink:href="#DejaVuSans-69" x="467.818359"/>
      <use xlink:href="#DejaVuSans-6e" x="495.601562"/>
      <use xlink:href="#DejaVuSans-67" x="558.980469"/>
      <use xlink:href="#DejaVuSans-20" x="622.457031"/>
      <use xlink:href="#DejaVuSans-64" x="654.244141"/>
      <use xlink:href="#DejaVuSans-69" x="717.720703"/>
      <use xlink:href="#DejaVuSans-73" x="745.503906"/>
      <use xlink:href="#DejaVuSans-74" x="797.603516"/>
      <use xlink:href="#DejaVuSans-61" x="836.8125"/>
      <use xlink:href="#DejaVuSans-6e" x="898.091797"/>
      <use xlink:href="#DejaVuSans-63" x="961.470703"/>
      <use xlink:href="#DejaVuSans-65" x="1016.451172"/>
      <use xlink:href="#DejaVuSans-20" x="1077.974609"/>
      <use xlink:href="#DejaVuSans-5b" x="1109.761719"/>
      <use xlink:href="#DejaVuSans-6d" x="1148.775391"/>
      <use xlink:href="#DejaVuSans-5d" x="1246.1875"/>
     </g>
    </g>
   </g>
   <g id="matplotlib.axis_4">
    <g id="ytick_7">
     <g id="line2d_33">
      <path d="M 290.662619 163.131751 
L 637.2 163.131751 
" clip-path="url(#p68cf84f90d)" style="fill: none; stroke: #b0b0b0; stroke-width: 0.8; stroke-linecap: square"/>
     </g>
     <g id="line2d_34">
      <g>
       <use xlink:href="#m37b243b6aa" x="290.662619" y="163.131751" style="stroke: #000000; stroke-width: 0.8"/>
      </g>
     </g>
     <g id="text_30">
      <!-- −2 -->
      <g transform="translate(268.920432 166.930969) scale(0.1 -0.1)">
       <defs>
        <path id="DejaVuSans-2212" d="M 678 2272 
L 4684 2272 
L 4684 1741 
L 678 1741 
L 678 2272 
z
" transform="scale(0.015625)"/>
       </defs>
       <use xlink:href="#DejaVuSans-2212"/>
       <use xlink:href="#DejaVuSans-32" x="83.789062"/>
      </g>
     </g>
    </g>
    <g id="ytick_8">
     <g id="line2d_35">
      <path d="M 290.662619 142.84898 
L 637.2 142.84898 
" clip-path="url(#p68cf84f90d)" style="fill: none; stroke: #b0b0b0; stroke-width: 0.8; stroke-linecap: square"/>
     </g>
     <g id="line2d_36">
      <g>
       <use xlink:href="#m37b243b6aa" x="290.662619" y="142.84898" style="stroke: #000000; stroke-width: 0.8"/>
      </g>
     </g>
     <g id="text_31">
      <!-- −1 -->
      <g transform="translate(268.920432 146.648198) scale(0.1 -0.1)">
       <use xlink:href="#DejaVuSans-2212"/>
       <use xlink:href="#DejaVuSans-31" x="83.789062"/>
      </g>
     </g>
    </g>
    <g id="ytick_9">
     <g id="line2d_37">
      <path d="M 290.662619 122.566209 
L 637.2 122.566209 
" clip-path="url(#p68cf84f90d)" style="fill: none; stroke: #b0b0b0; stroke-width: 0.8; stroke-linecap: square"/>
     </g>
     <g id="line2d_38">
      <g>
       <use xlink:href="#m37b243b6aa" x="290.662619" y="122.566209" style="stroke: #000000; stroke-width: 0.8"/>
      </g>
     </g>
     <g id="text_32">
      <!-- 0 -->
      <g transform="translate(277.300119 126.365427) scale(0.1 -0.1)">
       <use xlink:href="#DejaVuSans-30"/>
      </g>
     </g>
    </g>
    <g id="ytick_10">
     <g id="line2d_39">
      <path d="M 290.662619 102.283438 
L 637.2 102.283438 
" clip-path="url(#p68cf84f90d)" style="fill: none; stroke: #b0b0b0; stroke-width: 0.8; stroke-linecap: square"/>
     </g>
     <g id="line2d_40">
      <g>
       <use xlink:href="#m37b243b6aa" x="290.662619" y="102.283438" style="stroke: #000000; stroke-width: 0.8"/>
      </g>
     </g>
     <g id="text_33">
      <!-- 1 -->
      <g transform="translate(277.300119 106.082657) scale(0.1 -0.1)">
       <use xlink:href="#DejaVuSans-31"/>
      </g>
     </g>
    </g>
    <g id="ytick_11">
     <g id="line2d_41">
      <path d="M 290.662619 82.000667 
L 637.2 82.000667 
" clip-path="url(#p68cf84f90d)" style="fill: none; stroke: #b0b0b0; stroke-width: 0.8; stroke-linecap: square"/>
     </g>
     <g id="line2d_42">
      <g>
       <use xlink:href="#m37b243b6aa" x="290.662619" y="82.000667" style="stroke: #000000; stroke-width: 0.8"/>
      </g>
     </g>
     <g id="text_34">
      <!-- 2 -->
      <g transform="translate(277.300119 85.799886) scale(0.1 -0.1)">
       <use xlink:href="#DejaVuSans-32"/>
      </g>
     </g>
    </g>
    <g id="ytick_12">
     <g id="line2d_43">
      <path d="M 290.662619 61.717896 
L 637.2 61.717896 
" clip-path="url(#p68cf84f90d)" style="fill: none; stroke: #b0b0b0; stroke-width: 0.8; stroke-linecap: square"/>
     </g>
     <g id="line2d_44">
      <g>
       <use xlink:href="#m37b243b6aa" x="290.662619" y="61.717896" style="stroke: #000000; stroke-width: 0.8"/>
      </g>
     </g>
     <g id="text_35">
      <!-- 3 -->
      <g transform="translate(277.300119 65.517115) scale(0.1 -0.1)">
       <use xlink:href="#DejaVuSans-33"/>
      </g>
     </g>
    </g>
    <g id="ytick_13">
     <g id="line2d_45">
      <path d="M 290.662619 41.435125 
L 637.2 41.435125 
" clip-path="url(#p68cf84f90d)" style="fill: none; stroke: #b0b0b0; stroke-width: 0.8; stroke-linecap: square"/>
     </g>
     <g id="line2d_46">
      <g>
       <use xlink:href="#m37b243b6aa" x="290.662619" y="41.435125" style="stroke: #000000; stroke-width: 0.8"/>
      </g>
     </g>
     <g id="text_36">
      <!-- 4 -->
      <g transform="translate(277.300119 45.234344) scale(0.1 -0.1)">
       <use xlink:href="#DejaVuSans-34"/>
      </g>
     </g>
    </g>
    <g id="ytick_14">
     <g id="line2d_47">
      <path d="M 290.662619 21.152354 
L 637.2 21.152354 
" clip-path="url(#p68cf84f90d)" style="fill: none; stroke: #b0b0b0; stroke-width: 0.8; stroke-linecap: square"/>
     </g>
     <g id="line2d_48">
      <g>
       <use xlink:href="#m37b243b6aa" x="290.662619" y="21.152354" style="stroke: #000000; stroke-width: 0.8"/>
      </g>
     </g>
     <g id="text_37">
      <!-- 5 -->
      <g transform="translate(277.300119 24.951573) scale(0.1 -0.1)">
       <use xlink:href="#DejaVuSans-35"/>
      </g>
     </g>
    </g>
    <g id="text_38">
     <!-- Relief -->
     <g transform="translate(262.840744 107.589696) rotate(-90) scale(0.1 -0.1)">
      <defs>
       <path id="DejaVuSans-52" d="M 2841 2188 
Q 3044 2119 3236 1894 
Q 3428 1669 3622 1275 
L 4263 0 
L 3584 0 
L 2988 1197 
Q 2756 1666 2539 1819 
Q 2322 1972 1947 1972 
L 1259 1972 
L 1259 0 
L 628 0 
L 628 4666 
L 2053 4666 
Q 2853 4666 3247 4331 
Q 3641 3997 3641 3322 
Q 3641 2881 3436 2590 
Q 3231 2300 2841 2188 
z
M 1259 4147 
L 1259 2491 
L 2053 2491 
Q 2509 2491 2742 2702 
Q 2975 2913 2975 3322 
Q 2975 3731 2742 3939 
Q 2509 4147 2053 4147 
L 1259 4147 
z
" transform="scale(0.015625)"/>
       <path id="DejaVuSans-6c" d="M 603 4863 
L 1178 4863 
L 1178 0 
L 603 0 
L 603 4863 
z
" transform="scale(0.015625)"/>
       <path id="DejaVuSans-66" d="M 2375 4863 
L 2375 4384 
L 1825 4384 
Q 1516 4384 1395 4259 
Q 1275 4134 1275 3809 
L 1275 3500 
L 2222 3500 
L 2222 3053 
L 1275 3053 
L 1275 0 
L 697 0 
L 697 3053 
L 147 3053 
L 147 3500 
L 697 3500 
L 697 3744 
Q 697 4328 969 4595 
Q 1241 4863 1831 4863 
L 2375 4863 
z
" transform="scale(0.015625)"/>
      </defs>
      <use xlink:href="#DejaVuSans-52"/>
      <use xlink:href="#DejaVuSans-65" x="64.982422"/>
      <use xlink:href="#DejaVuSans-6c" x="126.505859"/>
      <use xlink:href="#DejaVuSans-69" x="154.289062"/>
      <use xlink:href="#DejaVuSans-65" x="182.072266"/>
      <use xlink:href="#DejaVuSans-66" x="243.595703"/>
     </g>
    </g>
   </g>
   <g id="line2d_49">
    <path d="M 306.414318 122.566209 
L 307.891953 124.269795 
L 309.369587 125.97338 
L 310.847221 127.068483 
L 312.324855 128.772069 
L 313.802489 130.678482 
L 315.280124 132.787724 
L 316.757758 134.694137 
L 318.235392 136.194895 
L 319.713026 137.289998 
L 321.19066 138.182273 
L 322.668295 138.466065 
L 324.145929 138.749857 
L 325.623563 138.425165 
" clip-path="url(#p68cf84f90d)" style="fill: none; stroke: #d95f02; stroke-width: 1.5; stroke-linecap: square"/>
   </g>
   <g id="line2d_50">
    <path d="M 325.623563 174.04 
L 325.623563 13.258141 
" clip-path="url(#p68cf84f90d)" style="fill: none; stroke-dasharray: 5.55,2.4; stroke-dashoffset: 0; stroke: #808080; stroke-opacity: 0.5; stroke-width: 1.5"/>
   </g>
   <g id="line2d_51">
    <path d="M 306.414318 122.566209 
L 307.743751 123.864139 
L 309.073183 125.364897 
L 310.402616 126.257172 
L 311.732048 127.555103 
L 313.061481 128.853033 
L 314.390913 130.759447 
L 315.720345 132.463032 
L 317.049778 133.760963 
L 318.37921 135.058893 
L 319.708643 135.74834 
L 321.038075 136.437788 
L 322.367507 136.518752 
L 323.69694 136.802544 
L 325.026372 136.275025 
L 326.355805 135.747506 
L 327.685237 135.422814 
L 329.014669 135.503779 
L 330.344102 136.193226 
L 331.673534 136.679845 
L 333.002967 137.369293 
L 334.332399 138.05874 
L 335.661831 138.54536 
L 336.991264 139.437635 
L 338.320696 140.938393 
L 339.650129 143.250462 
L 340.979561 145.359703 
L 342.308993 147.266116 
L 343.638426 148.564047 
L 344.967858 149.253494 
L 346.297291 150.145769 
" clip-path="url(#p68cf84f90d)" style="fill: none; stroke: #7570b3; stroke-width: 1.5; stroke-linecap: square"/>
   </g>
   <g id="line2d_52">
    <path d="M 346.297291 174.04 
L 346.297291 13.258141 
" clip-path="url(#p68cf84f90d)" style="fill: none; stroke-dasharray: 5.55,2.4; stroke-dashoffset: 0; stroke: #808080; stroke-opacity: 0.5; stroke-width: 1.5"/>
   </g>
   <g id="line2d_53">
    <path d="M 306.414318 122.566209 
L 307.724461 123.864139 
L 309.034603 125.364897 
L 310.344745 126.257172 
L 311.654887 127.555103 
L 312.965029 128.853033 
L 314.275171 130.556619 
L 315.585313 132.057377 
L 316.895455 133.558135 
L 318.205597 134.856065 
L 319.515739 135.545513 
L 320.825881 136.23496 
L 322.136023 136.315924 
L 323.446166 136.599716 
L 324.756308 136.072197 
L 326.06645 135.544678 
L 327.376592 134.814331 
L 328.686734 134.895296 
L 329.996876 135.381915 
L 331.307018 135.868535 
L 332.61716 136.557982 
L 333.927302 137.247429 
L 335.237444 137.734049 
L 336.547586 138.017841 
L 337.857728 139.315771 
L 339.16787 141.425012 
L 340.478013 143.737081 
L 341.788155 146.04915 
L 343.098297 147.549908 
L 344.408439 148.442183 
L 345.718581 149.131631 
L 347.028723 150.023906 
L 348.338865 150.510525 
L 349.649007 150.591489 
L 350.959149 150.672453 
L 352.269291 150.347762 
L 353.579433 150.631554 
L 354.889575 150.712518 
L 356.199718 150.793482 
L 357.50986 150.063136 
L 358.820002 149.941272 
L 360.130144 149.819408 
L 361.440286 149.697545 
L 362.750428 149.778509 
L 364.06057 149.25099 
L 365.370712 149.129126 
L 366.680854 148.601607 
L 367.990996 148.074089 
L 369.301138 146.938086 
L 370.61128 146.410567 
L 371.921422 145.680221 
L 373.231565 144.747046 
L 374.541707 144.219527 
L 375.851849 142.67787 
L 377.161991 141.947523 
L 378.472133 140.203038 
L 379.782275 139.472691 
L 381.092417 137.931034 
L 382.402559 136.795032 
L 383.712701 137.078823 
L 385.022843 137.159788 
L 386.332985 137.037924 
L 387.643127 133.467989 
" clip-path="url(#p68cf84f90d)" style="fill: none; stroke: #e7298a; stroke-width: 1.5; stroke-linecap: square"/>
   </g>
   <g id="line2d_54">
    <path d="M 387.643127 174.04 
L 387.643127 13.258141 
" clip-path="url(#p68cf84f90d)" style="fill: none; stroke-dasharray: 5.55,2.4; stroke-dashoffset: 0; stroke: #808080; stroke-opacity: 0.5; stroke-width: 1.5"/>
   </g>
   <g id="line2d_55">
    <path d="M 306.414318 122.566209 
L 307.726582 124.066967 
L 309.038845 125.364897 
L 310.351108 126.257172 
L 311.663372 127.555103 
L 312.975635 128.853033 
L 314.287898 130.556619 
L 315.600162 132.260205 
L 316.912425 133.760963 
L 318.224688 135.058893 
L 319.536952 135.545513 
L 320.849215 136.437788 
L 322.161478 136.315924 
L 323.473742 136.599716 
L 324.786005 135.869369 
L 326.098268 135.34185 
L 327.410532 134.611504 
L 328.722795 134.692468 
L 330.035058 135.179087 
L 331.347322 135.665707 
L 332.659585 136.355154 
L 333.971848 137.044601 
L 335.284112 137.531221 
L 336.596375 138.017841 
L 337.908638 139.315771 
L 339.220902 141.425012 
L 340.533165 143.939909 
L 341.845428 146.04915 
L 343.157692 147.752736 
L 344.469955 148.645011 
L 345.782218 149.537286 
L 347.094482 150.429561 
L 348.406745 151.119008 
L 349.719008 151.4028 
L 351.031272 151.483764 
L 352.343535 151.564728 
L 353.655798 151.645692 
L 354.968062 152.132312 
L 356.280325 151.807621 
L 357.592588 151.48293 
L 358.904852 151.158238 
L 360.217115 151.036375 
L 361.529378 151.117339 
L 362.841642 150.995475 
L 364.153905 150.873612 
L 365.466168 150.751748 
L 366.778432 150.427057 
L 368.090695 149.899538 
L 369.402958 149.169191 
L 370.715222 148.438845 
L 372.027485 147.708498 
L 373.339748 146.978151 
L 374.652012 146.044977 
L 375.964275 145.111802 
L 377.276538 143.772973 
L 378.588802 142.63697 
L 379.901065 141.298141 
L 381.213328 139.959311 
L 382.525592 139.228964 
L 383.837855 139.107101 
L 385.150118 140.607859 
L 386.462382 140.688823 
L 387.774645 137.118888 
L 389.086908 134.360264 
L 390.399172 131.804468 
L 391.711435 129.857155 
L 393.023698 127.504187 
L 394.335962 125.759702 
L 395.648225 124.015217 
L 396.960488 122.879214 
L 398.272752 121.134729 
L 399.585015 119.795899 
L 400.897278 118.051414 
L 402.209542 116.712584 
L 403.521805 115.77941 
L 404.834068 114.44058 
L 406.146332 113.710233 
L 407.458595 112.371404 
L 408.770858 111.641057 
L 410.083122 110.302227 
L 411.395385 109.369053 
L 412.707648 108.233051 
" clip-path="url(#p68cf84f90d)" style="fill: none; stroke: #66a61e; stroke-width: 1.5; stroke-linecap: square"/>
   </g>
   <g id="line2d_56">
    <path d="M 412.707648 174.04 
L 412.707648 13.258141 
" clip-path="url(#p68cf84f90d)" style="fill: none; stroke-dasharray: 5.55,2.4; stroke-dashoffset: 0; stroke: #808080; stroke-opacity: 0.5; stroke-width: 1.5"/>
   </g>
   <g id="line2d_57">
    <path d="M 306.414318 122.566209 
L 307.714178 124.066967 
L 309.014038 125.364897 
L 310.313898 126.257172 
L 311.613758 127.555103 
L 312.913618 128.853033 
L 314.213478 130.556619 
L 315.513338 132.057377 
L 316.813198 133.558135 
L 318.113058 134.856065 
L 319.412918 135.545513 
L 320.712778 136.23496 
L 322.012638 136.315924 
L 323.312498 136.396888 
L 324.612357 135.869369 
L 325.912217 135.139023 
L 327.212077 134.408676 
L 328.511937 134.083985 
L 329.811797 134.570604 
L 331.111657 135.057224 
L 332.411517 135.746671 
L 333.711377 136.436118 
L 335.011237 136.922738 
L 336.311097 137.409357 
L 337.610957 138.301632 
L 338.910817 140.410874 
L 340.210677 142.722943 
L 341.510536 145.237839 
L 342.810396 147.144253 
L 344.110256 148.036528 
L 345.410116 148.928803 
L 346.709976 150.023906 
L 348.009836 150.713353 
L 349.309696 151.605628 
L 350.609556 151.88942 
L 351.909416 152.173211 
L 353.209276 152.254176 
L 354.509136 152.943623 
L 355.808996 152.821759 
L 357.108856 152.497068 
L 358.408715 151.969549 
L 359.708575 151.847686 
L 361.008435 151.92865 
L 362.308295 151.806786 
L 363.608155 151.684923 
L 364.908015 151.765887 
L 366.207875 151.846851 
L 367.507735 151.52216 
L 368.807595 150.994641 
L 370.107455 150.264294 
L 371.407315 149.736775 
L 372.707175 148.803601 
L 374.007035 148.276082 
L 375.306895 147.140079 
L 376.606754 146.004077 
L 377.906614 145.070903 
L 379.206474 143.529245 
L 380.506334 142.596071 
L 381.806194 141.460069 
L 383.106054 141.338205 
L 384.405914 142.433308 
L 385.705774 143.934066 
L 387.005634 141.783925 
L 388.305494 138.619646 
L 389.605354 135.861023 
L 390.905214 133.305226 
L 392.205074 131.357914 
L 393.504933 129.410601 
L 394.804793 127.666115 
L 396.104653 126.327286 
L 397.404513 125.191283 
L 398.704373 124.055281 
L 400.004233 122.513624 
L 401.304093 121.174794 
L 402.603953 119.633136 
L 403.903813 117.888651 
L 405.203673 116.549821 
L 406.503533 115.008164 
L 407.803393 113.669334 
L 409.103253 112.330504 
L 410.403112 111.194502 
L 411.702972 110.0585 
L 413.002832 108.922498 
L 414.302692 107.989324 
L 415.602552 106.650494 
L 416.902412 105.514492 
L 418.202272 103.567179 
L 419.502132 102.228349 
L 420.801992 100.483864 
L 422.101852 98.739378 
L 423.401712 96.994893 
L 424.701572 94.844752 
L 426.001432 92.694612 
L 427.301292 90.138816 
L 428.601151 88.191503 
L 429.901011 85.230051 
L 431.200871 82.674255 
L 432.500731 79.915631 
L 433.800591 76.95418 
L 435.100451 74.195556 
L 436.400311 71.031277 
L 437.700171 68.475481 
L 439.000031 65.108374 
L 440.299891 63.161061 
L 441.599751 60.19961 
L 442.899611 58.455124 
L 444.199471 56.507811 
L 445.49933 55.168982 
L 446.79919 54.03298 
" clip-path="url(#p68cf84f90d)" style="fill: none; stroke: #e6ab02; stroke-width: 1.5; stroke-linecap: square"/>
   </g>
   <g id="line2d_58">
    <path d="M 446.79919 174.04 
L 446.79919 13.258141 
" clip-path="url(#p68cf84f90d)" style="fill: none; stroke-dasharray: 5.55,2.4; stroke-dashoffset: 0; stroke: #808080; stroke-opacity: 0.5; stroke-width: 1.5"/>
   </g>
   <g id="line2d_59">
    <path d="M 306.414318 122.566209 
L 307.71452 124.066967 
L 309.014722 125.364897 
L 310.314924 126.257172 
L 311.615125 127.555103 
L 312.915327 128.853033 
L 314.215529 130.556619 
L 315.51573 132.057377 
L 316.815932 133.558135 
L 318.116134 134.856065 
L 319.416336 135.545513 
L 320.716537 136.23496 
L 322.016739 136.315924 
L 323.316941 136.396888 
L 324.617142 135.666542 
L 325.917344 135.139023 
L 327.217546 134.408676 
L 328.517748 134.083985 
L 329.817949 134.570604 
L 331.118151 135.057224 
L 332.418353 135.746671 
L 333.718554 136.436118 
L 335.018756 136.922738 
L 336.318958 137.409357 
L 337.619159 138.098805 
L 338.919361 140.410874 
L 340.219563 142.722943 
L 341.519765 145.237839 
L 342.819966 147.144253 
L 344.120168 148.239356 
L 345.42037 148.928803 
L 346.720571 150.023906 
L 348.020773 150.91618 
L 349.320975 151.808455 
L 350.621177 152.092247 
L 351.921378 152.376039 
L 353.22158 152.659831 
L 354.521782 153.349278 
L 355.821983 153.430242 
L 357.122185 153.105551 
L 358.422387 152.375204 
L 359.722588 152.253341 
L 361.02279 152.334305 
L 362.322992 152.415269 
L 363.623194 152.293406 
L 364.923395 152.171542 
L 366.223597 152.252506 
L 367.523799 151.927815 
L 368.824 151.603124 
L 370.124202 150.872777 
L 371.424404 150.345258 
L 372.724606 149.614911 
L 374.024807 148.884565 
L 375.325009 147.95139 
L 376.625211 146.815388 
L 377.925412 145.679386 
L 379.225614 144.543384 
L 380.525816 143.407382 
L 381.826017 142.474207 
L 383.126219 142.149516 
L 384.426421 143.447447 
L 385.726623 144.745377 
L 387.026824 142.798064 
L 388.327026 139.430957 
L 389.627228 136.672333 
L 390.927429 134.319365 
L 392.227631 132.372052 
L 393.527833 130.424739 
L 394.828035 128.883082 
L 396.128236 127.341424 
L 397.428438 126.205422 
L 398.72864 125.272248 
L 400.028841 123.933418 
L 401.329043 122.594588 
L 402.629245 121.05293 
L 403.929447 119.308445 
L 405.229648 117.56396 
L 406.52985 116.022302 
L 407.830052 114.683473 
L 409.130253 113.344643 
L 410.430455 112.005813 
L 411.730657 110.869811 
L 413.030858 109.733809 
L 414.33106 109.003462 
L 415.631262 107.461805 
L 416.931464 106.325802 
L 418.231665 104.581317 
L 419.531867 103.03966 
L 420.832069 101.295174 
L 422.13227 99.550689 
L 423.432472 97.603376 
L 424.732674 95.453236 
L 426.032876 93.303095 
L 427.333077 90.950127 
L 428.633279 88.597158 
L 429.933481 85.635707 
L 431.233682 82.877083 
L 432.533884 79.915631 
L 433.834086 77.157008 
L 435.134287 74.398384 
L 436.434489 71.436932 
L 437.734691 68.678309 
L 439.034893 65.716857 
L 440.335094 63.363889 
L 441.635296 60.808093 
L 442.935498 58.657952 
L 444.235699 56.710639 
L 445.535901 55.168982 
L 446.836103 54.03298 
L 448.136305 53.505461 
L 449.436506 53.383597 
L 450.736708 53.870217 
L 452.03691 54.559664 
L 453.337111 55.451939 
L 454.637313 56.141386 
L 455.937515 56.628006 
L 457.237717 56.911797 
L 458.537918 56.992762 
L 459.83812 57.276553 
L 461.138322 57.15469 
L 462.438523 57.235654 
L 463.738725 56.708135 
L 465.038927 56.586272 
L 466.339128 56.26158 
L 467.63933 56.342544 
" clip-path="url(#p68cf84f90d)" style="fill: none; stroke: #a6761d; stroke-width: 1.5; stroke-linecap: square"/>
   </g>
   <g id="line2d_60">
    <path d="M 467.63933 174.04 
L 467.63933 13.258141 
" clip-path="url(#p68cf84f90d)" style="fill: none; stroke-dasharray: 5.55,2.4; stroke-dashoffset: 0; stroke: #808080; stroke-opacity: 0.5; stroke-width: 1.5"/>
   </g>
   <g id="line2d_61">
    <path d="M 306.414318 122.566209 
L 307.714469 124.269795 
L 309.014619 125.770553 
L 310.314769 126.662828 
L 314.215219 130.556619 
L 315.515369 132.260205 
L 316.81552 133.760963 
L 318.11567 134.856065 
L 319.41582 135.545513 
L 320.71597 135.829305 
L 322.01612 135.910269 
L 324.61642 134.855231 
L 327.216721 132.988882 
L 328.516871 132.461363 
L 329.817021 132.339499 
L 331.117171 132.623291 
L 332.417321 133.312739 
L 333.717471 134.407841 
L 335.017621 135.300116 
L 336.317771 135.989564 
L 337.617922 137.287494 
L 338.918072 139.396735 
L 341.518372 146.251978 
L 342.818522 148.766875 
L 344.118672 150.47046 
L 345.418822 151.565563 
L 346.718972 152.863493 
L 348.019123 154.769907 
L 349.319273 156.879148 
L 350.619423 158.177079 
L 351.919573 159.272181 
L 353.219723 160.772939 
L 354.519873 161.868042 
L 355.820023 162.151834 
L 358.420324 161.096796 
L 359.720474 160.974932 
L 361.020624 161.055897 
L 362.320774 160.934033 
L 363.620924 160.000859 
L 364.921074 159.676167 
L 366.221224 159.959959 
L 367.521375 159.838096 
L 368.821525 159.91906 
L 370.121675 160.202852 
L 371.421825 159.87816 
L 372.721975 159.350641 
L 375.322275 157.889948 
L 376.622425 157.362429 
L 377.922576 157.240565 
L 379.222726 156.713046 
L 380.522876 155.779872 
L 381.823026 155.049525 
L 383.123176 154.724834 
L 384.423326 156.42842 
L 385.723476 158.943317 
L 387.023626 157.198831 
L 389.623927 150.26179 
L 390.924077 147.503166 
L 392.224227 145.555853 
L 393.524377 144.217023 
L 396.124677 139.713914 
L 397.424828 138.577912 
L 398.724978 138.050393 
L 400.025128 137.725702 
L 401.325278 136.792528 
L 402.625428 134.845215 
L 405.225728 129.530795 
L 406.525878 127.177826 
L 407.826029 125.636169 
L 409.126179 124.500167 
L 410.426329 124.175475 
L 414.326779 124.418368 
L 415.626929 124.296504 
L 416.927079 123.971813 
L 418.22723 123.444294 
L 419.52738 122.308292 
L 420.82753 120.563807 
L 423.42783 116.669181 
L 426.02813 112.166072 
L 427.32828 109.610276 
L 428.628431 106.648824 
L 432.528881 96.750331 
L 435.129181 91.030256 
L 437.729482 86.324319 
L 439.029632 84.377006 
L 441.629932 81.293691 
L 444.230232 79.021687 
L 445.530382 78.088513 
L 446.830532 77.560994 
L 453.331283 76.951676 
L 454.631433 77.03264 
L 455.931583 77.51926 
L 457.231733 78.411535 
L 458.531884 79.100982 
L 459.832034 79.993257 
L 461.132184 80.074221 
L 462.432334 80.358013 
L 465.032634 80.114286 
L 466.332784 79.586767 
L 467.632934 79.262076 
L 470.233235 78.207038 
L 471.533385 77.882346 
L 474.133685 78.044275 
L 475.433835 78.530894 
L 478.034136 79.098478 
L 479.334286 79.179442 
L 484.534886 78.691988 
L 489.735487 79.015844 
L 491.035637 79.299636 
L 492.335787 79.3806 
L 494.936087 79.136873 
L 498.836538 76.945833 
L 500.136688 76.621142 
L 501.436838 76.904934 
L 502.736988 77.594381 
L 504.037138 78.892311 
L 507.937589 83.394586 
L 511.838039 86.679894 
L 514.438339 88.464444 
L 515.738489 88.748236 
L 517.038639 88.626372 
L 518.33879 87.896025 
L 523.53939 83.352017 
L 524.83954 82.013187 
L 526.13969 80.877185 
L 527.43984 80.146838 
L 527.43984 80.146838 
" clip-path="url(#p68cf84f90d)" style="fill: none; stroke: #666666; stroke-width: 1.5; stroke-linecap: square"/>
   </g>
   <g id="line2d_62">
    <path d="M 527.43984 174.04 
L 527.43984 13.258141 
" clip-path="url(#p68cf84f90d)" style="fill: none; stroke-dasharray: 5.55,2.4; stroke-dashoffset: 0; stroke: #808080; stroke-opacity: 0.5; stroke-width: 1.5"/>
   </g>
   <g id="line2d_63">
    <path d="M 306.414318 122.566209 
L 309.000677 125.97338 
L 310.293856 126.865655 
L 312.880215 129.055861 
L 314.173394 130.353791 
L 315.466573 131.854549 
L 316.759753 133.15248 
L 318.052932 134.247582 
L 319.346111 134.734202 
L 320.63929 134.815166 
L 321.93247 134.693302 
L 323.225649 134.368611 
L 324.518828 133.638265 
L 327.105187 131.771916 
L 328.398366 131.041569 
L 329.691545 130.716878 
L 330.984725 130.595014 
L 332.277904 131.284461 
L 333.571083 132.176736 
L 334.864262 133.474667 
L 336.157442 134.366942 
L 337.450621 135.8677 
L 338.7438 138.382597 
L 341.330159 145.440667 
L 342.623338 148.564047 
L 343.916517 150.876116 
L 345.209697 152.376874 
L 346.502876 153.674804 
L 347.796055 155.37839 
L 349.089234 157.284804 
L 350.382414 158.988389 
L 351.675593 160.083492 
L 354.261952 162.679353 
L 355.555131 163.165972 
L 358.141489 162.110935 
L 359.434669 161.786243 
L 360.727848 162.070035 
L 362.021027 161.745344 
L 363.314206 161.217825 
L 364.607386 160.893134 
L 365.900565 160.974098 
L 367.193744 161.25789 
L 368.486924 161.744509 
L 371.073282 162.312093 
L 372.366461 161.581746 
L 373.659641 161.054227 
L 376.245999 159.593534 
L 377.539178 159.47167 
L 380.125537 160.039254 
L 381.418716 159.91739 
L 382.711896 159.998355 
L 384.005075 160.687802 
L 385.298254 162.594215 
L 386.591433 162.269524 
L 387.884613 159.713728 
L 389.177792 156.143793 
L 390.470971 153.38517 
L 391.76415 151.235029 
L 393.05733 150.099027 
L 394.350509 148.557369 
L 395.643688 146.204401 
L 396.936868 143.24295 
L 398.230047 141.498464 
L 399.523226 140.362462 
L 400.816405 139.429288 
L 402.109585 138.293286 
L 403.402764 136.5488 
L 404.695943 135.007143 
L 405.989122 133.668313 
L 407.282302 132.735139 
L 408.575481 132.20762 
L 409.86866 131.882928 
L 411.161839 131.761065 
L 412.455019 131.842029 
L 413.748198 132.125821 
L 416.334557 132.287749 
L 417.627736 132.165886 
L 418.920915 132.24685 
L 420.214094 131.719331 
L 421.507274 130.988984 
L 422.800453 129.852982 
L 424.093632 128.514152 
L 425.386811 126.769667 
L 426.679991 124.822354 
L 427.97317 122.672213 
L 434.439066 110.096061 
L 437.025425 105.592952 
L 438.318604 103.442811 
L 440.904963 99.953841 
L 442.198142 98.412183 
L 444.784501 95.734523 
L 448.664038 91.109551 
L 449.957218 89.365066 
L 451.250397 87.823408 
L 452.543576 86.078923 
L 453.836755 84.537265 
L 455.129935 83.401263 
L 456.423114 82.670917 
L 457.716293 82.143398 
L 460.302652 81.89967 
L 464.18219 80.925597 
L 465.475369 80.803733 
L 469.354907 81.655109 
L 471.941265 82.628348 
L 477.113982 83.763515 
L 482.286699 84.087372 
L 484.873058 83.843645 
L 486.166237 83.924609 
L 487.459417 84.208401 
L 488.752596 85.100676 
L 490.045775 86.195778 
L 492.632134 90.617089 
L 493.925313 93.131985 
L 496.511671 98.973089 
L 501.684389 112.075092 
L 502.977568 114.792816 
L 504.270747 116.699229 
L 505.563926 118.199988 
L 506.857106 119.497918 
L 508.150285 120.593021 
L 509.443464 121.282468 
L 512.029823 121.850052 
L 514.616181 122.01198 
L 515.909361 121.890116 
L 517.20254 122.173908 
L 519.788898 121.524526 
L 521.082078 120.591351 
L 522.375257 119.252521 
L 523.668436 117.710864 
L 527.547974 111.057614 
L 531.427512 103.390226 
L 534.01387 97.670151 
L 535.30705 95.317182 
L 536.600229 93.36987 
L 537.893408 91.625384 
L 540.479767 88.947725 
L 541.772946 88.217378 
L 544.359304 87.567995 
L 545.652484 87.64896 
L 546.945663 87.527096 
L 548.238842 87.202405 
L 549.532022 86.472058 
L 552.11838 83.794398 
L 557.291097 76.816457 
L 559.877456 74.138798 
L 561.170635 73.205623 
L 562.463814 72.880932 
L 563.756994 72.353413 
L 566.343352 72.109686 
L 566.343352 72.109686 
" clip-path="url(#p68cf84f90d)" style="fill: none; stroke: #e41a1c; stroke-width: 1.5; stroke-linecap: square"/>
   </g>
   <g id="line2d_64">
    <path d="M 566.343352 174.04 
L 566.343352 13.258141 
" clip-path="url(#p68cf84f90d)" style="fill: none; stroke-dasharray: 5.55,2.4; stroke-dashoffset: 0; stroke: #808080; stroke-opacity: 0.5; stroke-width: 1.5"/>
   </g>
   <g id="line2d_65">
    <path d="M 306.414318 122.566209 
L 307.710755 124.472622 
L 309.007191 126.176208 
L 311.600063 127.960758 
L 314.192935 130.150963 
L 315.489371 131.448894 
L 316.785808 132.543997 
L 318.082244 133.436272 
L 319.37868 133.720063 
L 320.675116 133.801028 
L 321.971552 133.476336 
L 324.564424 132.421298 
L 327.157297 130.960605 
L 328.453733 130.433086 
L 329.750169 130.108395 
L 331.046605 130.392187 
L 332.343041 130.878806 
L 333.639477 131.771081 
L 337.528786 135.056389 
L 338.825222 137.571286 
L 342.71453 148.564047 
L 344.010967 151.078943 
L 345.307403 152.782529 
L 346.603839 154.08046 
L 347.900275 155.784045 
L 349.196711 157.690459 
L 350.493147 159.394045 
L 351.789583 160.489148 
L 353.08602 161.787078 
L 354.382456 163.287836 
L 355.678892 163.774456 
L 358.271764 163.125073 
L 359.5682 163.00321 
L 360.864636 163.287001 
L 362.161073 163.367966 
L 363.457509 162.637619 
L 364.753945 162.1101 
L 366.050381 161.988236 
L 369.939689 162.839612 
L 371.236126 162.717748 
L 372.532562 162.393057 
L 373.828998 161.865538 
L 375.125434 161.135191 
L 376.42187 160.607672 
L 377.718306 160.891464 
L 379.014742 162.59505 
L 380.311179 164.095808 
L 381.607615 165.190911 
L 385.496923 166.65077 
L 386.793359 166.731734 
L 388.089795 164.987248 
L 389.386232 162.025797 
L 390.682668 159.672829 
L 391.979104 158.333999 
L 393.27554 158.009308 
L 394.571976 157.887444 
L 395.868412 156.751442 
L 397.164848 154.601301 
L 398.461285 153.059644 
L 399.757721 152.329297 
L 402.350593 151.274259 
L 403.647029 150.138257 
L 404.943465 148.596599 
L 406.239901 147.460597 
L 408.832774 145.594248 
L 411.425646 144.539211 
L 412.722082 144.417347 
L 414.018518 144.701139 
L 415.314954 144.782103 
L 417.907827 145.349687 
L 419.204263 145.024995 
L 425.686444 144.415678 
L 426.98288 143.482503 
L 428.279316 142.143673 
L 429.575752 140.399188 
L 430.872188 138.451875 
L 437.354369 126.484206 
L 439.947241 121.575441 
L 442.540113 117.477988 
L 443.836549 115.93633 
L 447.725858 110.702874 
L 451.615166 104.252453 
L 452.911602 102.710795 
L 454.208039 101.371965 
L 455.504475 100.641618 
L 456.800911 100.114099 
L 459.393783 98.653406 
L 461.986655 96.787057 
L 463.283092 96.259538 
L 464.579528 96.137675 
L 467.1724 96.299603 
L 469.765272 95.650221 
L 474.951017 92.728834 
L 476.247453 92.404143 
L 477.543889 91.876624 
L 478.840325 92.160415 
L 480.136761 92.647035 
L 481.433198 93.53931 
L 485.322506 97.433101 
L 486.618942 98.933859 
L 487.915378 100.23179 
L 489.211814 101.732548 
L 490.508251 103.638961 
L 491.804687 105.342547 
L 494.397559 109.155374 
L 499.583304 117.795167 
L 508.658357 133.776822 
L 509.954793 135.27758 
L 511.251229 136.169855 
L 512.547665 136.656474 
L 520.326282 138.359226 
L 522.919154 138.115498 
L 524.21559 137.587979 
L 526.808463 136.938597 
L 529.401335 135.883559 
L 530.697771 135.558868 
L 531.994207 135.437004 
L 533.290643 135.720796 
L 534.587079 136.207416 
L 535.883516 136.491207 
L 537.179952 137.180655 
L 539.772824 138.153894 
L 542.365696 139.532788 
L 543.662132 140.425063 
L 544.958569 140.911683 
L 546.255005 141.195475 
L 547.551441 141.276439 
L 550.144313 140.627056 
L 551.440749 139.491054 
L 552.737185 138.152224 
L 554.033622 136.610567 
L 555.330058 134.663254 
L 557.92293 129.957317 
L 559.219366 127.198693 
L 565.701547 111.580125 
L 566.997983 109.632812 
L 568.294419 108.49681 
L 569.590855 107.563636 
L 574.7766 104.642249 
L 576.073036 103.506247 
L 577.369472 102.573072 
L 579.962344 101.518035 
L 581.25878 101.598999 
L 582.555217 101.477135 
L 583.851653 101.152444 
L 585.148089 101.03058 
L 586.444525 101.111544 
L 587.740961 101.800992 
L 589.037397 102.693267 
L 590.333833 103.382714 
L 591.63027 103.869334 
L 592.926706 104.964436 
L 594.223142 106.465194 
L 596.816014 110.278021 
L 599.408886 114.293676 
L 600.705323 115.997262 
L 602.001759 116.889537 
L 603.298195 117.173329 
L 604.594631 116.848638 
L 607.187503 116.60491 
L 608.483939 117.294358 
L 609.780376 118.38946 
L 613.669684 121.066285 
L 614.96612 121.755733 
L 617.558992 122.728972 
L 620.151865 122.8909 
L 621.448301 122.566209 
L 621.448301 122.566209 
" clip-path="url(#p68cf84f90d)" style="fill: none; stroke: #377eb8; stroke-width: 1.5; stroke-linecap: square"/>
   </g>
   <g id="line2d_66">
    <path d="M 621.448301 174.04 
L 621.448301 13.258141 
" clip-path="url(#p68cf84f90d)" style="fill: none; stroke-dasharray: 5.55,2.4; stroke-dashoffset: 0; stroke: #808080; stroke-opacity: 0.5; stroke-width: 1.5"/>
   </g>
   <g id="patch_8">
    <path d="M 290.662619 174.04 
L 290.662619 13.258141 
" style="fill: none; stroke: #000000; stroke-width: 0.8; stroke-linejoin: miter; stroke-linecap: square"/>
   </g>
   <g id="patch_9">
    <path d="M 637.2 174.04 
L 637.2 13.258141 
" style="fill: none; stroke: #000000; stroke-width: 0.8; stroke-linejoin: miter; stroke-linecap: square"/>
   </g>
   <g id="patch_10">
    <path d="M 290.662619 174.04 
L 637.2 174.04 
" style="fill: none; stroke: #000000; stroke-width: 0.8; stroke-linejoin: miter; stroke-linecap: square"/>
   </g>
   <g id="patch_11">
    <path d="M 290.662619 13.258141 
L 637.2 13.258141 
" style="fill: none; stroke: #000000; stroke-width: 0.8; stroke-linejoin: miter; stroke-linecap: square"/>
   </g>
   <g id="text_39">
    <!-- 1 -->
    <g transform="translate(326.909742 102.930316) scale(0.1 -0.1)">
     <use xlink:href="#DejaVuSans-31"/>
    </g>
   </g>
   <g id="text_40">
    <!-- 2 -->
    <g transform="translate(347.58347 114.65092) scale(0.1 -0.1)">
     <use xlink:href="#DejaVuSans-32"/>
    </g>
   </g>
   <g id="text_41">
    <!-- 3 -->
    <g transform="translate(388.929307 97.97314) scale(0.1 -0.1)">
     <use xlink:href="#DejaVuSans-33"/>
    </g>
   </g>
   <g id="text_42">
    <!-- 4 -->
    <g transform="translate(413.993827 72.738202) scale(0.1 -0.1)">
     <use xlink:href="#DejaVuSans-34"/>
    </g>
   </g>
   <g id="text_43">
    <!-- 5 -->
    <g transform="translate(448.08537 18.53813) scale(0.1 -0.1)">
     <use xlink:href="#DejaVuSans-35"/>
    </g>
   </g>
   <g id="text_44">
    <!-- 6 -->
    <g transform="translate(468.925509 20.847695) scale(0.1 -0.1)">
     <use xlink:href="#DejaVuSans-36"/>
    </g>
   </g>
   <g id="text_45">
    <!-- 7 -->
    <g transform="translate(528.72602 44.651989) scale(0.1 -0.1)">
     <use xlink:href="#DejaVuSans-37"/>
    </g>
   </g>
   <g id="text_46">
    <!-- 8 -->
    <g transform="translate(567.629531 36.614837) scale(0.1 -0.1)">
     <use xlink:href="#DejaVuSans-38"/>
    </g>
   </g>
   <g id="text_47">
    <!-- 9 -->
    <g transform="translate(622.73448 87.07136) scale(0.1 -0.1)">
     <use xlink:href="#DejaVuSans-39"/>
    </g>
   </g>
  </g>
 </g>
 <defs>
  <clipPath id="p2766a28e51">
   <rect x="66.62" y="13.258141" width="173.26869" height="160.781859"/>
  </clipPath>
  <clipPath id="p68cf84f90d">
   <rect x="290.662619" y="13.258141" width="346.537381" height="160.781859"/>
  </clipPath>
 </defs>
</svg>
