<?xml version="1.0" encoding="utf-8" standalone="no"?>
<!DOCTYPE svg PUBLIC "-//W3C//DTD SVG 1.1//EN"
  "http://www.w3.org/Graphics/SVG/1.1/DTD/svg11.dtd">
<svg xmlns:xlink="http://www.w3.org/1999/xlink" width="648pt" height="216pt" viewBox="0 0 648 216" xmlns="http://www.w3.org/2000/svg" version="1.1">
 <metadata>
  <rdf:RDF xmlns:dc="http://purl.org/dc/elements/1.1/" xmlns:cc="http://creativecommons.org/ns#" xmlns:rdf="http://www.w3.org/1999/02/22-rdf-syntax-ns#">
   <cc:Work>
    <dc:type rdf:resource="http://purl.org/dc/dcmitype/StillImage"/>
    <dc:date>2024-05-07T14:04:38.212672</dc:date>
    <dc:format>image/svg+xml</dc:format>
    <dc:creator>
     <cc:Agent>
      <dc:title>Matplotlib v3.8.4, https://matplotlib.org/</dc:title>
     </cc:Agent>
    </dc:creator>
   </cc:Work>
  </rdf:RDF>
 </metadata>
 <defs>
  <style type="text/css">*{stroke-linejoin: round; stroke-linecap: butt}</style>
 </defs>
 <g id="figure_1">
  <g id="patch_1">
   <path d="M 0 216 
L 648 216 
L 648 0 
L 0 0 
z
" style="fill: #ffffff"/>
  </g>
  <g id="axes_1">
   <g id="patch_2">
    <path d="M 66.62 174.04 
L 241.002394 174.04 
L 241.002394 10.8 
L 66.62 10.8 
z
" style="fill: #ffffff"/>
   </g>
   <g id="PathCollection_1">
    <defs>
     <path id="m22120b9d71" d="M 0 3 
C 0.795609 3 1.55874 2.683901 2.12132 2.12132 
C 2.683901 1.55874 3 0.795609 3 0 
C 3 -0.795609 2.683901 -1.55874 2.12132 -2.12132 
C 1.55874 -2.683901 0.795609 -3 0 -3 
C -0.795609 -3 -1.55874 -2.683901 -2.12132 -2.12132 
C -2.683901 -1.55874 -3 -0.795609 -3 0 
C -3 0.795609 -2.683901 1.55874 -2.12132 2.12132 
C -1.55874 2.683901 -0.795609 3 0 3 
z
" style="stroke: #000000"/>
    </defs>
    <g clip-path="url(#pa1132c5af3)">
     <use xlink:href="#m22120b9d71" x="78.646372" y="162.782069" style="stroke: #000000"/>
    </g>
   </g>
   <g id="PathCollection_2">
    <defs>
     <path id="ma29a9adec1" d="M 0 3 
C 0.795609 3 1.55874 2.683901 2.12132 2.12132 
C 2.683901 1.55874 3 0.795609 3 0 
C 3 -0.795609 2.683901 -1.55874 2.12132 -2.12132 
C 1.55874 -2.683901 0.795609 -3 0 -3 
C -0.795609 -3 -1.55874 -2.683901 -2.12132 -2.12132 
C -2.683901 -1.55874 -3 -0.795609 -3 0 
C -3 0.795609 -2.683901 1.55874 -2.12132 2.12132 
C -1.55874 2.683901 -0.795609 3 0 3 
z
" style="stroke: #1b9e77"/>
    </defs>
    <g clip-path="url(#pa1132c5af3)">
     <use xlink:href="#ma29a9adec1" x="85.929411" y="150.345745" style="fill: #1b9e77; stroke: #1b9e77"/>
    </g>
   </g>
   <g id="PathCollection_3">
    <defs>
     <path id="m679f1b2de1" d="M 0 3 
C 0.795609 3 1.55874 2.683901 2.12132 2.12132 
C 2.683901 1.55874 3 0.795609 3 0 
C 3 -0.795609 2.683901 -1.55874 2.12132 -2.12132 
C 1.55874 -2.683901 0.795609 -3 0 -3 
C -0.795609 -3 -1.55874 -2.683901 -2.12132 -2.12132 
C -2.683901 -1.55874 -3 -0.795609 -3 0 
C -3 0.795609 -2.683901 1.55874 -2.12132 2.12132 
C -1.55874 2.683901 -0.795609 3 0 3 
z
" style="stroke: #d95f02"/>
    </defs>
    <g clip-path="url(#pa1132c5af3)">
     <use xlink:href="#m679f1b2de1" x="93.863447" y="137.144894" style="fill: #d95f02; stroke: #d95f02"/>
    </g>
   </g>
   <g id="PathCollection_4">
    <defs>
     <path id="m4a91e8483f" d="M 0 3 
C 0.795609 3 1.55874 2.683901 2.12132 2.12132 
C 2.683901 1.55874 3 0.795609 3 0 
C 3 -0.795609 2.683901 -1.55874 2.12132 -2.12132 
C 1.55874 -2.683901 0.795609 -3 0 -3 
C -0.795609 -3 -1.55874 -2.683901 -2.12132 -2.12132 
C -2.683901 -1.55874 -3 -0.795609 -3 0 
C -3 0.795609 -2.683901 1.55874 -2.12132 2.12132 
C -1.55874 2.683901 -0.795609 3 0 3 
z
" style="stroke: #7570b3"/>
    </defs>
    <g clip-path="url(#pa1132c5af3)">
     <use xlink:href="#m4a91e8483f" x="110.036676" y="111.176423" style="fill: #7570b3; stroke: #7570b3"/>
    </g>
   </g>
   <g id="PathCollection_5">
    <defs>
     <path id="m88d1a76aef" d="M 0 3 
C 0.795609 3 1.55874 2.683901 2.12132 2.12132 
C 2.683901 1.55874 3 0.795609 3 0 
C 3 -0.795609 2.683901 -1.55874 2.12132 -2.12132 
C 1.55874 -2.683901 0.795609 -3 0 -3 
C -0.795609 -3 -1.55874 -2.683901 -2.12132 -2.12132 
C -2.683901 -1.55874 -3 -0.795609 -3 0 
C -3 0.795609 -2.683901 1.55874 -2.12132 2.12132 
C -1.55874 2.683901 -0.795609 3 0 3 
z
" style="stroke: #e7298a"/>
    </defs>
    <g clip-path="url(#pa1132c5af3)">
     <use xlink:href="#m88d1a76aef" x="120.147487" y="95.911345" style="fill: #e7298a; stroke: #e7298a"/>
    </g>
   </g>
   <g id="PathCollection_6">
    <defs>
     <path id="mb2db9a3570" d="M 0 3 
C 0.795609 3 1.55874 2.683901 2.12132 2.12132 
C 2.683901 1.55874 3 0.795609 3 0 
C 3 -0.795609 2.683901 -1.55874 2.12132 -2.12132 
C 1.55874 -2.683901 0.795609 -3 0 -3 
C -0.795609 -3 -1.55874 -2.683901 -2.12132 -2.12132 
C -2.683901 -1.55874 -3 -0.795609 -3 0 
C -3 0.795609 -2.683901 1.55874 -2.12132 2.12132 
C -1.55874 2.683901 -0.795609 3 0 3 
z
" style="stroke: #66a61e"/>
    </defs>
    <g clip-path="url(#pa1132c5af3)">
     <use xlink:href="#mb2db9a3570" x="134.032051" y="75.396508" style="fill: #66a61e; stroke: #66a61e"/>
    </g>
   </g>
   <g id="PathCollection_7">
    <defs>
     <path id="m448ac21111" d="M 0 3 
C 0.795609 3 1.55874 2.683901 2.12132 2.12132 
C 2.683901 1.55874 3 0.795609 3 0 
C 3 -0.795609 2.683901 -1.55874 2.12132 -2.12132 
C 1.55874 -2.683901 0.795609 -3 0 -3 
C -0.795609 -3 -1.55874 -2.683901 -2.12132 -2.12132 
C -2.683901 -1.55874 -3 -0.795609 -3 0 
C -3 0.795609 -2.683901 1.55874 -2.12132 2.12132 
C -1.55874 2.683901 -0.795609 3 0 3 
z
" style="stroke: #e6ab02"/>
    </defs>
    <g clip-path="url(#pa1132c5af3)">
     <use xlink:href="#m448ac21111" x="142.444164" y="62.75631" style="fill: #e6ab02; stroke: #e6ab02"/>
    </g>
   </g>
   <g id="PathCollection_8">
    <defs>
     <path id="ma7de8e465d" d="M 0 3 
C 0.795609 3 1.55874 2.683901 2.12132 2.12132 
C 2.683901 1.55874 3 0.795609 3 0 
C 3 -0.795609 2.683901 -1.55874 2.12132 -2.12132 
C 1.55874 -2.683901 0.795609 -3 0 -3 
C -0.795609 -3 -1.55874 -2.683901 -2.12132 -2.12132 
C -2.683901 -1.55874 -3 -0.795609 -3 0 
C -3 0.795609 -2.683901 1.55874 -2.12132 2.12132 
C -1.55874 2.683901 -0.795609 3 0 3 
z
" style="stroke: #a6761d"/>
    </defs>
    <g clip-path="url(#pa1132c5af3)">
     <use xlink:href="#ma7de8e465d" x="173.692062" y="39.514656" style="fill: #a6761d; stroke: #a6761d"/>
    </g>
   </g>
   <g id="PathCollection_9">
    <defs>
     <path id="m5566750a7e" d="M 0 3 
C 0.795609 3 1.55874 2.683901 2.12132 2.12132 
C 2.683901 1.55874 3 0.795609 3 0 
C 3 -0.795609 2.683901 -1.55874 2.12132 -2.12132 
C 1.55874 -2.683901 0.795609 -3 0 -3 
C -0.795609 -3 -1.55874 -2.683901 -2.12132 -2.12132 
C -2.683901 -1.55874 -3 -0.795609 -3 0 
C -3 0.795609 -2.683901 1.55874 -2.12132 2.12132 
C -1.55874 2.683901 -0.795609 3 0 3 
z
" style="stroke: #666666"/>
    </defs>
    <g clip-path="url(#pa1132c5af3)">
     <use xlink:href="#m5566750a7e" x="196.894033" y="31.869375" style="fill: #666666; stroke: #666666"/>
    </g>
   </g>
   <g id="PathCollection_10">
    <defs>
     <path id="mad9b3e3248" d="M 0 3 
C 0.795609 3 1.55874 2.683901 2.12132 2.12132 
C 2.683901 1.55874 3 0.795609 3 0 
C 3 -0.795609 2.683901 -1.55874 2.12132 -2.12132 
C 1.55874 -2.683901 0.795609 -3 0 -3 
C -0.795609 -3 -1.55874 -2.683901 -2.12132 -2.12132 
C -2.683901 -1.55874 -3 -0.795609 -3 0 
C -3 0.795609 -2.683901 1.55874 -2.12132 2.12132 
C -1.55874 2.683901 -0.795609 3 0 3 
z
" style="stroke: #e41a1c"/>
    </defs>
    <g clip-path="url(#pa1132c5af3)">
     <use xlink:href="#mad9b3e3248" x="228.976022" y="22.057931" style="fill: #e41a1c; stroke: #e41a1c"/>
    </g>
   </g>
   <g id="matplotlib.axis_1">
    <g id="xtick_1">
     <g id="line2d_1">
      <path d="M 69.532402 174.04 
L 69.532402 10.8 
" clip-path="url(#pa1132c5af3)" style="fill: none; stroke: #b0b0b0; stroke-width: 0.8; stroke-linecap: square"/>
     </g>
     <g id="line2d_2">
      <defs>
       <path id="m3c497d00fe" d="M 0 0 
L 0 3.5 
" style="stroke: #000000; stroke-width: 0.8"/>
      </defs>
      <g>
       <use xlink:href="#m3c497d00fe" x="69.532402" y="174.04" style="stroke: #000000; stroke-width: 0.8"/>
      </g>
     </g>
     <g id="text_1">
      <!-- 14.530 -->
      <g transform="translate(52.037089 188.638438) scale(0.1 -0.1)">
       <defs>
        <path id="DejaVuSans-31" d="M 794 531 
L 1825 531 
L 1825 4091 
L 703 3866 
L 703 4441 
L 1819 4666 
L 2450 4666 
L 2450 531 
L 3481 531 
L 3481 0 
L 794 0 
L 794 531 
z
" transform="scale(0.015625)"/>
        <path id="DejaVuSans-34" d="M 2419 4116 
L 825 1625 
L 2419 1625 
L 2419 4116 
z
M 2253 4666 
L 3047 4666 
L 3047 1625 
L 3713 1625 
L 3713 1100 
L 3047 1100 
L 3047 0 
L 2419 0 
L 2419 1100 
L 313 1100 
L 313 1709 
L 2253 4666 
z
" transform="scale(0.015625)"/>
        <path id="DejaVuSans-2e" d="M 684 794 
L 1344 794 
L 1344 0 
L 684 0 
L 684 794 
z
" transform="scale(0.015625)"/>
        <path id="DejaVuSans-35" d="M 691 4666 
L 3169 4666 
L 3169 4134 
L 1269 4134 
L 1269 2991 
Q 1406 3038 1543 3061 
Q 1681 3084 1819 3084 
Q 2600 3084 3056 2656 
Q 3513 2228 3513 1497 
Q 3513 744 3044 326 
Q 2575 -91 1722 -91 
Q 1428 -91 1123 -41 
Q 819 9 494 109 
L 494 744 
Q 775 591 1075 516 
Q 1375 441 1709 441 
Q 2250 441 2565 725 
Q 2881 1009 2881 1497 
Q 2881 1984 2565 2268 
Q 2250 2553 1709 2553 
Q 1456 2553 1204 2497 
Q 953 2441 691 2322 
L 691 4666 
z
" transform="scale(0.015625)"/>
        <path id="DejaVuSans-33" d="M 2597 2516 
Q 3050 2419 3304 2112 
Q 3559 1806 3559 1356 
Q 3559 666 3084 287 
Q 2609 -91 1734 -91 
Q 1441 -91 1130 -33 
Q 819 25 488 141 
L 488 750 
Q 750 597 1062 519 
Q 1375 441 1716 441 
Q 2309 441 2620 675 
Q 2931 909 2931 1356 
Q 2931 1769 2642 2001 
Q 2353 2234 1838 2234 
L 1294 2234 
L 1294 2753 
L 1863 2753 
Q 2328 2753 2575 2939 
Q 2822 3125 2822 3475 
Q 2822 3834 2567 4026 
Q 2313 4219 1838 4219 
Q 1578 4219 1281 4162 
Q 984 4106 628 3988 
L 628 4550 
Q 988 4650 1302 4700 
Q 1616 4750 1894 4750 
Q 2613 4750 3031 4423 
Q 3450 4097 3450 3541 
Q 3450 3153 3228 2886 
Q 3006 2619 2597 2516 
z
" transform="scale(0.015625)"/>
        <path id="DejaVuSans-30" d="M 2034 4250 
Q 1547 4250 1301 3770 
Q 1056 3291 1056 2328 
Q 1056 1369 1301 889 
Q 1547 409 2034 409 
Q 2525 409 2770 889 
Q 3016 1369 3016 2328 
Q 3016 3291 2770 3770 
Q 2525 4250 2034 4250 
z
M 2034 4750 
Q 2819 4750 3233 4129 
Q 3647 3509 3647 2328 
Q 3647 1150 3233 529 
Q 2819 -91 2034 -91 
Q 1250 -91 836 529 
Q 422 1150 422 2328 
Q 422 3509 836 4129 
Q 1250 4750 2034 4750 
z
" transform="scale(0.015625)"/>
       </defs>
       <use xlink:href="#DejaVuSans-31"/>
       <use xlink:href="#DejaVuSans-34" x="63.623047"/>
       <use xlink:href="#DejaVuSans-2e" x="127.246094"/>
       <use xlink:href="#DejaVuSans-35" x="159.033203"/>
       <use xlink:href="#DejaVuSans-33" x="222.65625"/>
       <use xlink:href="#DejaVuSans-30" x="286.279297"/>
      </g>
     </g>
    </g>
    <g id="xtick_2">
     <g id="line2d_3">
      <path d="M 120.391611 174.04 
L 120.391611 10.8 
" clip-path="url(#pa1132c5af3)" style="fill: none; stroke: #b0b0b0; stroke-width: 0.8; stroke-linecap: square"/>
     </g>
     <g id="line2d_4">
      <g>
       <use xlink:href="#m3c497d00fe" x="120.391611" y="174.04" style="stroke: #000000; stroke-width: 0.8"/>
      </g>
     </g>
     <g id="text_2">
      <!-- 14.535 -->
      <g transform="translate(102.896298 188.638438) scale(0.1 -0.1)">
       <use xlink:href="#DejaVuSans-31"/>
       <use xlink:href="#DejaVuSans-34" x="63.623047"/>
       <use xlink:href="#DejaVuSans-2e" x="127.246094"/>
       <use xlink:href="#DejaVuSans-35" x="159.033203"/>
       <use xlink:href="#DejaVuSans-33" x="222.65625"/>
       <use xlink:href="#DejaVuSans-35" x="286.279297"/>
      </g>
     </g>
    </g>
    <g id="xtick_3">
     <g id="line2d_5">
      <path d="M 171.25082 174.04 
L 171.25082 10.8 
" clip-path="url(#pa1132c5af3)" style="fill: none; stroke: #b0b0b0; stroke-width: 0.8; stroke-linecap: square"/>
     </g>
     <g id="line2d_6">
      <g>
       <use xlink:href="#m3c497d00fe" x="171.25082" y="174.04" style="stroke: #000000; stroke-width: 0.8"/>
      </g>
     </g>
     <g id="text_3">
      <!-- 14.540 -->
      <g transform="translate(153.755508 188.638438) scale(0.1 -0.1)">
       <use xlink:href="#DejaVuSans-31"/>
       <use xlink:href="#DejaVuSans-34" x="63.623047"/>
       <use xlink:href="#DejaVuSans-2e" x="127.246094"/>
       <use xlink:href="#DejaVuSans-35" x="159.033203"/>
       <use xlink:href="#DejaVuSans-34" x="222.65625"/>
       <use xlink:href="#DejaVuSans-30" x="286.279297"/>
      </g>
     </g>
    </g>
    <g id="xtick_4">
     <g id="line2d_7">
      <path d="M 222.110029 174.04 
L 222.110029 10.8 
" clip-path="url(#pa1132c5af3)" style="fill: none; stroke: #b0b0b0; stroke-width: 0.8; stroke-linecap: square"/>
     </g>
     <g id="line2d_8">
      <g>
       <use xlink:href="#m3c497d00fe" x="222.110029" y="174.04" style="stroke: #000000; stroke-width: 0.8"/>
      </g>
     </g>
     <g id="text_4">
      <!-- 14.545 -->
      <g transform="translate(204.614717 188.638438) scale(0.1 -0.1)">
       <use xlink:href="#DejaVuSans-31"/>
       <use xlink:href="#DejaVuSans-34" x="63.623047"/>
       <use xlink:href="#DejaVuSans-2e" x="127.246094"/>
       <use xlink:href="#DejaVuSans-35" x="159.033203"/>
       <use xlink:href="#DejaVuSans-34" x="222.65625"/>
       <use xlink:href="#DejaVuSans-35" x="286.279297"/>
      </g>
     </g>
    </g>
    <g id="text_5">
     <!-- Longitude [°] -->
     <g transform="translate(120.951041 202.316563) scale(0.1 -0.1)">
      <defs>
       <path id="DejaVuSans-4c" d="M 628 4666 
L 1259 4666 
L 1259 531 
L 3531 531 
L 3531 0 
L 628 0 
L 628 4666 
z
" transform="scale(0.015625)"/>
       <path id="DejaVuSans-6f" d="M 1959 3097 
Q 1497 3097 1228 2736 
Q 959 2375 959 1747 
Q 959 1119 1226 758 
Q 1494 397 1959 397 
Q 2419 397 2687 759 
Q 2956 1122 2956 1747 
Q 2956 2369 2687 2733 
Q 2419 3097 1959 3097 
z
M 1959 3584 
Q 2709 3584 3137 3096 
Q 3566 2609 3566 1747 
Q 3566 888 3137 398 
Q 2709 -91 1959 -91 
Q 1206 -91 779 398 
Q 353 888 353 1747 
Q 353 2609 779 3096 
Q 1206 3584 1959 3584 
z
" transform="scale(0.015625)"/>
       <path id="DejaVuSans-6e" d="M 3513 2113 
L 3513 0 
L 2938 0 
L 2938 2094 
Q 2938 2591 2744 2837 
Q 2550 3084 2163 3084 
Q 1697 3084 1428 2787 
Q 1159 2491 1159 1978 
L 1159 0 
L 581 0 
L 581 3500 
L 1159 3500 
L 1159 2956 
Q 1366 3272 1645 3428 
Q 1925 3584 2291 3584 
Q 2894 3584 3203 3211 
Q 3513 2838 3513 2113 
z
" transform="scale(0.015625)"/>
       <path id="DejaVuSans-67" d="M 2906 1791 
Q 2906 2416 2648 2759 
Q 2391 3103 1925 3103 
Q 1463 3103 1205 2759 
Q 947 2416 947 1791 
Q 947 1169 1205 825 
Q 1463 481 1925 481 
Q 2391 481 2648 825 
Q 2906 1169 2906 1791 
z
M 3481 434 
Q 3481 -459 3084 -895 
Q 2688 -1331 1869 -1331 
Q 1566 -1331 1297 -1286 
Q 1028 -1241 775 -1147 
L 775 -588 
Q 1028 -725 1275 -790 
Q 1522 -856 1778 -856 
Q 2344 -856 2625 -561 
Q 2906 -266 2906 331 
L 2906 616 
Q 2728 306 2450 153 
Q 2172 0 1784 0 
Q 1141 0 747 490 
Q 353 981 353 1791 
Q 353 2603 747 3093 
Q 1141 3584 1784 3584 
Q 2172 3584 2450 3431 
Q 2728 3278 2906 2969 
L 2906 3500 
L 3481 3500 
L 3481 434 
z
" transform="scale(0.015625)"/>
       <path id="DejaVuSans-69" d="M 603 3500 
L 1178 3500 
L 1178 0 
L 603 0 
L 603 3500 
z
M 603 4863 
L 1178 4863 
L 1178 4134 
L 603 4134 
L 603 4863 
z
" transform="scale(0.015625)"/>
       <path id="DejaVuSans-74" d="M 1172 4494 
L 1172 3500 
L 2356 3500 
L 2356 3053 
L 1172 3053 
L 1172 1153 
Q 1172 725 1289 603 
Q 1406 481 1766 481 
L 2356 481 
L 2356 0 
L 1766 0 
Q 1100 0 847 248 
Q 594 497 594 1153 
L 594 3053 
L 172 3053 
L 172 3500 
L 594 3500 
L 594 4494 
L 1172 4494 
z
" transform="scale(0.015625)"/>
       <path id="DejaVuSans-75" d="M 544 1381 
L 544 3500 
L 1119 3500 
L 1119 1403 
Q 1119 906 1312 657 
Q 1506 409 1894 409 
Q 2359 409 2629 706 
Q 2900 1003 2900 1516 
L 2900 3500 
L 3475 3500 
L 3475 0 
L 2900 0 
L 2900 538 
Q 2691 219 2414 64 
Q 2138 -91 1772 -91 
Q 1169 -91 856 284 
Q 544 659 544 1381 
z
M 1991 3584 
L 1991 3584 
z
" transform="scale(0.015625)"/>
       <path id="DejaVuSans-64" d="M 2906 2969 
L 2906 4863 
L 3481 4863 
L 3481 0 
L 2906 0 
L 2906 525 
Q 2725 213 2448 61 
Q 2172 -91 1784 -91 
Q 1150 -91 751 415 
Q 353 922 353 1747 
Q 353 2572 751 3078 
Q 1150 3584 1784 3584 
Q 2172 3584 2448 3432 
Q 2725 3281 2906 2969 
z
M 947 1747 
Q 947 1113 1208 752 
Q 1469 391 1925 391 
Q 2381 391 2643 752 
Q 2906 1113 2906 1747 
Q 2906 2381 2643 2742 
Q 2381 3103 1925 3103 
Q 1469 3103 1208 2742 
Q 947 2381 947 1747 
z
" transform="scale(0.015625)"/>
       <path id="DejaVuSans-65" d="M 3597 1894 
L 3597 1613 
L 953 1613 
Q 991 1019 1311 708 
Q 1631 397 2203 397 
Q 2534 397 2845 478 
Q 3156 559 3463 722 
L 3463 178 
Q 3153 47 2828 -22 
Q 2503 -91 2169 -91 
Q 1331 -91 842 396 
Q 353 884 353 1716 
Q 353 2575 817 3079 
Q 1281 3584 2069 3584 
Q 2775 3584 3186 3129 
Q 3597 2675 3597 1894 
z
M 3022 2063 
Q 3016 2534 2758 2815 
Q 2500 3097 2075 3097 
Q 1594 3097 1305 2825 
Q 1016 2553 972 2059 
L 3022 2063 
z
" transform="scale(0.015625)"/>
       <path id="DejaVuSans-20" transform="scale(0.015625)"/>
       <path id="DejaVuSans-5b" d="M 550 4863 
L 1875 4863 
L 1875 4416 
L 1125 4416 
L 1125 -397 
L 1875 -397 
L 1875 -844 
L 550 -844 
L 550 4863 
z
" transform="scale(0.015625)"/>
       <path id="DejaVuSans-b0" d="M 1600 4347 
Q 1350 4347 1178 4173 
Q 1006 4000 1006 3750 
Q 1006 3503 1178 3333 
Q 1350 3163 1600 3163 
Q 1850 3163 2022 3333 
Q 2194 3503 2194 3750 
Q 2194 3997 2020 4172 
Q 1847 4347 1600 4347 
z
M 1600 4750 
Q 1800 4750 1984 4673 
Q 2169 4597 2303 4453 
Q 2447 4313 2519 4134 
Q 2591 3956 2591 3750 
Q 2591 3338 2302 3052 
Q 2013 2766 1594 2766 
Q 1172 2766 890 3047 
Q 609 3328 609 3750 
Q 609 4169 896 4459 
Q 1184 4750 1600 4750 
z
" transform="scale(0.015625)"/>
       <path id="DejaVuSans-5d" d="M 1947 4863 
L 1947 -844 
L 622 -844 
L 622 -397 
L 1369 -397 
L 1369 4416 
L 622 4416 
L 622 4863 
L 1947 4863 
z
" transform="scale(0.015625)"/>
      </defs>
      <use xlink:href="#DejaVuSans-4c"/>
      <use xlink:href="#DejaVuSans-6f" x="53.962891"/>
      <use xlink:href="#DejaVuSans-6e" x="115.144531"/>
      <use xlink:href="#DejaVuSans-67" x="178.523438"/>
      <use xlink:href="#DejaVuSans-69" x="242"/>
      <use xlink:href="#DejaVuSans-74" x="269.783203"/>
      <use xlink:href="#DejaVuSans-75" x="308.992188"/>
      <use xlink:href="#DejaVuSans-64" x="372.371094"/>
      <use xlink:href="#DejaVuSans-65" x="435.847656"/>
      <use xlink:href="#DejaVuSans-20" x="497.371094"/>
      <use xlink:href="#DejaVuSans-5b" x="529.158203"/>
      <use xlink:href="#DejaVuSans-b0" x="568.171875"/>
      <use xlink:href="#DejaVuSans-5d" x="618.171875"/>
     </g>
    </g>
   </g>
   <g id="matplotlib.axis_2">
    <g id="ytick_1">
     <g id="line2d_9">
      <path d="M 66.62 167.904407 
L 241.002394 167.904407 
" clip-path="url(#pa1132c5af3)" style="fill: none; stroke: #b0b0b0; stroke-width: 0.8; stroke-linecap: square"/>
     </g>
     <g id="line2d_10">
      <defs>
       <path id="m487bbd2183" d="M 0 0 
L -3.5 0 
" style="stroke: #000000; stroke-width: 0.8"/>
      </defs>
      <g>
       <use xlink:href="#m487bbd2183" x="66.62" y="167.904407" style="stroke: #000000; stroke-width: 0.8"/>
      </g>
     </g>
     <g id="text_6">
      <!-- 50.001 -->
      <g transform="translate(24.629375 171.703626) scale(0.1 -0.1)">
       <use xlink:href="#DejaVuSans-35"/>
       <use xlink:href="#DejaVuSans-30" x="63.623047"/>
       <use xlink:href="#DejaVuSans-2e" x="127.246094"/>
       <use xlink:href="#DejaVuSans-30" x="159.033203"/>
       <use xlink:href="#DejaVuSans-30" x="222.65625"/>
       <use xlink:href="#DejaVuSans-31" x="286.279297"/>
      </g>
     </g>
    </g>
    <g id="ytick_2">
     <g id="line2d_11">
      <path d="M 66.62 142.420137 
L 241.002394 142.420137 
" clip-path="url(#pa1132c5af3)" style="fill: none; stroke: #b0b0b0; stroke-width: 0.8; stroke-linecap: square"/>
     </g>
     <g id="line2d_12">
      <g>
       <use xlink:href="#m487bbd2183" x="66.62" y="142.420137" style="stroke: #000000; stroke-width: 0.8"/>
      </g>
     </g>
     <g id="text_7">
      <!-- 50.002 -->
      <g transform="translate(24.629375 146.219356) scale(0.1 -0.1)">
       <defs>
        <path id="DejaVuSans-32" d="M 1228 531 
L 3431 531 
L 3431 0 
L 469 0 
L 469 531 
Q 828 903 1448 1529 
Q 2069 2156 2228 2338 
Q 2531 2678 2651 2914 
Q 2772 3150 2772 3378 
Q 2772 3750 2511 3984 
Q 2250 4219 1831 4219 
Q 1534 4219 1204 4116 
Q 875 4013 500 3803 
L 500 4441 
Q 881 4594 1212 4672 
Q 1544 4750 1819 4750 
Q 2544 4750 2975 4387 
Q 3406 4025 3406 3419 
Q 3406 3131 3298 2873 
Q 3191 2616 2906 2266 
Q 2828 2175 2409 1742 
Q 1991 1309 1228 531 
z
" transform="scale(0.015625)"/>
       </defs>
       <use xlink:href="#DejaVuSans-35"/>
       <use xlink:href="#DejaVuSans-30" x="63.623047"/>
       <use xlink:href="#DejaVuSans-2e" x="127.246094"/>
       <use xlink:href="#DejaVuSans-30" x="159.033203"/>
       <use xlink:href="#DejaVuSans-30" x="222.65625"/>
       <use xlink:href="#DejaVuSans-32" x="286.279297"/>
      </g>
     </g>
    </g>
    <g id="ytick_3">
     <g id="line2d_13">
      <path d="M 66.62 116.935868 
L 241.002394 116.935868 
" clip-path="url(#pa1132c5af3)" style="fill: none; stroke: #b0b0b0; stroke-width: 0.8; stroke-linecap: square"/>
     </g>
     <g id="line2d_14">
      <g>
       <use xlink:href="#m487bbd2183" x="66.62" y="116.935868" style="stroke: #000000; stroke-width: 0.8"/>
      </g>
     </g>
     <g id="text_8">
      <!-- 50.003 -->
      <g transform="translate(24.629375 120.735086) scale(0.1 -0.1)">
       <use xlink:href="#DejaVuSans-35"/>
       <use xlink:href="#DejaVuSans-30" x="63.623047"/>
       <use xlink:href="#DejaVuSans-2e" x="127.246094"/>
       <use xlink:href="#DejaVuSans-30" x="159.033203"/>
       <use xlink:href="#DejaVuSans-30" x="222.65625"/>
       <use xlink:href="#DejaVuSans-33" x="286.279297"/>
      </g>
     </g>
    </g>
    <g id="ytick_4">
     <g id="line2d_15">
      <path d="M 66.62 91.451598 
L 241.002394 91.451598 
" clip-path="url(#pa1132c5af3)" style="fill: none; stroke: #b0b0b0; stroke-width: 0.8; stroke-linecap: square"/>
     </g>
     <g id="line2d_16">
      <g>
       <use xlink:href="#m487bbd2183" x="66.62" y="91.451598" style="stroke: #000000; stroke-width: 0.8"/>
      </g>
     </g>
     <g id="text_9">
      <!-- 50.004 -->
      <g transform="translate(24.629375 95.250816) scale(0.1 -0.1)">
       <use xlink:href="#DejaVuSans-35"/>
       <use xlink:href="#DejaVuSans-30" x="63.623047"/>
       <use xlink:href="#DejaVuSans-2e" x="127.246094"/>
       <use xlink:href="#DejaVuSans-30" x="159.033203"/>
       <use xlink:href="#DejaVuSans-30" x="222.65625"/>
       <use xlink:href="#DejaVuSans-34" x="286.279297"/>
      </g>
     </g>
    </g>
    <g id="ytick_5">
     <g id="line2d_17">
      <path d="M 66.62 65.967328 
L 241.002394 65.967328 
" clip-path="url(#pa1132c5af3)" style="fill: none; stroke: #b0b0b0; stroke-width: 0.8; stroke-linecap: square"/>
     </g>
     <g id="line2d_18">
      <g>
       <use xlink:href="#m487bbd2183" x="66.62" y="65.967328" style="stroke: #000000; stroke-width: 0.8"/>
      </g>
     </g>
     <g id="text_10">
      <!-- 50.005 -->
      <g transform="translate(24.629375 69.766547) scale(0.1 -0.1)">
       <use xlink:href="#DejaVuSans-35"/>
       <use xlink:href="#DejaVuSans-30" x="63.623047"/>
       <use xlink:href="#DejaVuSans-2e" x="127.246094"/>
       <use xlink:href="#DejaVuSans-30" x="159.033203"/>
       <use xlink:href="#DejaVuSans-30" x="222.65625"/>
       <use xlink:href="#DejaVuSans-35" x="286.279297"/>
      </g>
     </g>
    </g>
    <g id="ytick_6">
     <g id="line2d_19">
      <path d="M 66.62 40.483058 
L 241.002394 40.483058 
" clip-path="url(#pa1132c5af3)" style="fill: none; stroke: #b0b0b0; stroke-width: 0.8; stroke-linecap: square"/>
     </g>
     <g id="line2d_20">
      <g>
       <use xlink:href="#m487bbd2183" x="66.62" y="40.483058" style="stroke: #000000; stroke-width: 0.8"/>
      </g>
     </g>
     <g id="text_11">
      <!-- 50.006 -->
      <g transform="translate(24.629375 44.282277) scale(0.1 -0.1)">
       <defs>
        <path id="DejaVuSans-36" d="M 2113 2584 
Q 1688 2584 1439 2293 
Q 1191 2003 1191 1497 
Q 1191 994 1439 701 
Q 1688 409 2113 409 
Q 2538 409 2786 701 
Q 3034 994 3034 1497 
Q 3034 2003 2786 2293 
Q 2538 2584 2113 2584 
z
M 3366 4563 
L 3366 3988 
Q 3128 4100 2886 4159 
Q 2644 4219 2406 4219 
Q 1781 4219 1451 3797 
Q 1122 3375 1075 2522 
Q 1259 2794 1537 2939 
Q 1816 3084 2150 3084 
Q 2853 3084 3261 2657 
Q 3669 2231 3669 1497 
Q 3669 778 3244 343 
Q 2819 -91 2113 -91 
Q 1303 -91 875 529 
Q 447 1150 447 2328 
Q 447 3434 972 4092 
Q 1497 4750 2381 4750 
Q 2619 4750 2861 4703 
Q 3103 4656 3366 4563 
z
" transform="scale(0.015625)"/>
       </defs>
       <use xlink:href="#DejaVuSans-35"/>
       <use xlink:href="#DejaVuSans-30" x="63.623047"/>
       <use xlink:href="#DejaVuSans-2e" x="127.246094"/>
       <use xlink:href="#DejaVuSans-30" x="159.033203"/>
       <use xlink:href="#DejaVuSans-30" x="222.65625"/>
       <use xlink:href="#DejaVuSans-36" x="286.279297"/>
      </g>
     </g>
    </g>
    <g id="ytick_7">
     <g id="line2d_21">
      <path d="M 66.62 14.998788 
L 241.002394 14.998788 
" clip-path="url(#pa1132c5af3)" style="fill: none; stroke: #b0b0b0; stroke-width: 0.8; stroke-linecap: square"/>
     </g>
     <g id="line2d_22">
      <g>
       <use xlink:href="#m487bbd2183" x="66.62" y="14.998788" style="stroke: #000000; stroke-width: 0.8"/>
      </g>
     </g>
     <g id="text_12">
      <!-- 50.007 -->
      <g transform="translate(24.629375 18.798007) scale(0.1 -0.1)">
       <defs>
        <path id="DejaVuSans-37" d="M 525 4666 
L 3525 4666 
L 3525 4397 
L 1831 0 
L 1172 0 
L 2766 4134 
L 525 4134 
L 525 4666 
z
" transform="scale(0.015625)"/>
       </defs>
       <use xlink:href="#DejaVuSans-35"/>
       <use xlink:href="#DejaVuSans-30" x="63.623047"/>
       <use xlink:href="#DejaVuSans-2e" x="127.246094"/>
       <use xlink:href="#DejaVuSans-30" x="159.033203"/>
       <use xlink:href="#DejaVuSans-30" x="222.65625"/>
       <use xlink:href="#DejaVuSans-37" x="286.279297"/>
      </g>
     </g>
    </g>
    <g id="text_13">
     <!-- Latitude [°] -->
     <g transform="translate(18.549688 120.989531) rotate(-90) scale(0.1 -0.1)">
      <defs>
       <path id="DejaVuSans-61" d="M 2194 1759 
Q 1497 1759 1228 1600 
Q 959 1441 959 1056 
Q 959 750 1161 570 
Q 1363 391 1709 391 
Q 2188 391 2477 730 
Q 2766 1069 2766 1631 
L 2766 1759 
L 2194 1759 
z
M 3341 1997 
L 3341 0 
L 2766 0 
L 2766 531 
Q 2569 213 2275 61 
Q 1981 -91 1556 -91 
Q 1019 -91 701 211 
Q 384 513 384 1019 
Q 384 1609 779 1909 
Q 1175 2209 1959 2209 
L 2766 2209 
L 2766 2266 
Q 2766 2663 2505 2880 
Q 2244 3097 1772 3097 
Q 1472 3097 1187 3025 
Q 903 2953 641 2809 
L 641 3341 
Q 956 3463 1253 3523 
Q 1550 3584 1831 3584 
Q 2591 3584 2966 3190 
Q 3341 2797 3341 1997 
z
" transform="scale(0.015625)"/>
      </defs>
      <use xlink:href="#DejaVuSans-4c"/>
      <use xlink:href="#DejaVuSans-61" x="55.712891"/>
      <use xlink:href="#DejaVuSans-74" x="116.992188"/>
      <use xlink:href="#DejaVuSans-69" x="156.201172"/>
      <use xlink:href="#DejaVuSans-74" x="183.984375"/>
      <use xlink:href="#DejaVuSans-75" x="223.193359"/>
      <use xlink:href="#DejaVuSans-64" x="286.572266"/>
      <use xlink:href="#DejaVuSans-65" x="350.048828"/>
      <use xlink:href="#DejaVuSans-20" x="411.572266"/>
      <use xlink:href="#DejaVuSans-5b" x="443.359375"/>
      <use xlink:href="#DejaVuSans-b0" x="482.373047"/>
      <use xlink:href="#DejaVuSans-5d" x="532.373047"/>
     </g>
    </g>
   </g>
   <g id="patch_3">
    <path d="M 66.62 174.04 
L 66.62 10.8 
" style="fill: none; stroke: #000000; stroke-width: 0.8; stroke-linejoin: miter; stroke-linecap: square"/>
   </g>
   <g id="patch_4">
    <path d="M 241.002394 174.04 
L 241.002394 10.8 
" style="fill: none; stroke: #000000; stroke-width: 0.8; stroke-linejoin: miter; stroke-linecap: square"/>
   </g>
   <g id="patch_5">
    <path d="M 66.62 174.04 
L 241.002394 174.04 
" style="fill: none; stroke: #000000; stroke-width: 0.8; stroke-linejoin: miter; stroke-linecap: square"/>
   </g>
   <g id="patch_6">
    <path d="M 66.62 10.8 
L 241.002394 10.8 
" style="fill: none; stroke: #000000; stroke-width: 0.8; stroke-linejoin: miter; stroke-linecap: square"/>
   </g>
   <g id="text_14">
    <!-- 0 -->
    <g transform="translate(78.646372 162.782069) scale(0.1 -0.1)">
     <use xlink:href="#DejaVuSans-30"/>
    </g>
   </g>
   <g id="text_15">
    <!-- 1 -->
    <g transform="translate(85.929411 150.345745) scale(0.1 -0.1)">
     <use xlink:href="#DejaVuSans-31"/>
    </g>
   </g>
   <g id="text_16">
    <!-- 2 -->
    <g transform="translate(93.863447 137.144894) scale(0.1 -0.1)">
     <use xlink:href="#DejaVuSans-32"/>
    </g>
   </g>
   <g id="text_17">
    <!-- 3 -->
    <g transform="translate(110.036676 111.176423) scale(0.1 -0.1)">
     <use xlink:href="#DejaVuSans-33"/>
    </g>
   </g>
   <g id="text_18">
    <!-- 4 -->
    <g transform="translate(120.147487 95.911345) scale(0.1 -0.1)">
     <use xlink:href="#DejaVuSans-34"/>
    </g>
   </g>
   <g id="text_19">
    <!-- 5 -->
    <g transform="translate(134.032051 75.396508) scale(0.1 -0.1)">
     <use xlink:href="#DejaVuSans-35"/>
    </g>
   </g>
   <g id="text_20">
    <!-- 6 -->
    <g transform="translate(142.444164 62.75631) scale(0.1 -0.1)">
     <use xlink:href="#DejaVuSans-36"/>
    </g>
   </g>
   <g id="text_21">
    <!-- 7 -->
    <g transform="translate(173.692062 39.514656) scale(0.1 -0.1)">
     <use xlink:href="#DejaVuSans-37"/>
    </g>
   </g>
   <g id="text_22">
    <!-- 8 -->
    <g transform="translate(196.894033 31.869375) scale(0.1 -0.1)">
     <defs>
      <path id="DejaVuSans-38" d="M 2034 2216 
Q 1584 2216 1326 1975 
Q 1069 1734 1069 1313 
Q 1069 891 1326 650 
Q 1584 409 2034 409 
Q 2484 409 2743 651 
Q 3003 894 3003 1313 
Q 3003 1734 2745 1975 
Q 2488 2216 2034 2216 
z
M 1403 2484 
Q 997 2584 770 2862 
Q 544 3141 544 3541 
Q 544 4100 942 4425 
Q 1341 4750 2034 4750 
Q 2731 4750 3128 4425 
Q 3525 4100 3525 3541 
Q 3525 3141 3298 2862 
Q 3072 2584 2669 2484 
Q 3125 2378 3379 2068 
Q 3634 1759 3634 1313 
Q 3634 634 3220 271 
Q 2806 -91 2034 -91 
Q 1263 -91 848 271 
Q 434 634 434 1313 
Q 434 1759 690 2068 
Q 947 2378 1403 2484 
z
M 1172 3481 
Q 1172 3119 1398 2916 
Q 1625 2713 2034 2713 
Q 2441 2713 2670 2916 
Q 2900 3119 2900 3481 
Q 2900 3844 2670 4047 
Q 2441 4250 2034 4250 
Q 1625 4250 1398 4047 
Q 1172 3844 1172 3481 
z
" transform="scale(0.015625)"/>
     </defs>
     <use xlink:href="#DejaVuSans-38"/>
    </g>
   </g>
   <g id="text_23">
    <!-- 9 -->
    <g transform="translate(228.976022 22.057931) scale(0.1 -0.1)">
     <defs>
      <path id="DejaVuSans-39" d="M 703 97 
L 703 672 
Q 941 559 1184 500 
Q 1428 441 1663 441 
Q 2288 441 2617 861 
Q 2947 1281 2994 2138 
Q 2813 1869 2534 1725 
Q 2256 1581 1919 1581 
Q 1219 1581 811 2004 
Q 403 2428 403 3163 
Q 403 3881 828 4315 
Q 1253 4750 1959 4750 
Q 2769 4750 3195 4129 
Q 3622 3509 3622 2328 
Q 3622 1225 3098 567 
Q 2575 -91 1691 -91 
Q 1453 -91 1209 -44 
Q 966 3 703 97 
z
M 1959 2075 
Q 2384 2075 2632 2365 
Q 2881 2656 2881 3163 
Q 2881 3666 2632 3958 
Q 2384 4250 1959 4250 
Q 1534 4250 1286 3958 
Q 1038 3666 1038 3163 
Q 1038 2656 1286 2365 
Q 1534 2075 1959 2075 
z
" transform="scale(0.015625)"/>
     </defs>
     <use xlink:href="#DejaVuSans-39"/>
    </g>
   </g>
  </g>
  <g id="axes_2">
   <g id="patch_7">
    <path d="M 288.435211 174.04 
L 637.2 174.04 
L 637.2 10.8 
L 288.435211 10.8 
z
" style="fill: #ffffff"/>
   </g>
   <g id="PathCollection_11">
    <defs>
     <path id="md399e65a85" d="M -6.123724 0 
L 6.123724 0 
M 0 6.123724 
L 0 -6.123724 
" style="stroke: #000000; stroke-width: 1.5"/>
    </defs>
    <g clip-path="url(#pb21ff9c046)">
     <use xlink:href="#md399e65a85" x="312.487955" y="116.550395" style="stroke: #000000; stroke-width: 1.5"/>
    </g>
   </g>
   <g id="PathCollection_12">
    <g clip-path="url(#pb21ff9c046)">
     <use xlink:href="#md399e65a85" x="312.487955" y="109.520416" style="stroke: #000000; stroke-width: 1.5"/>
    </g>
   </g>
   <g id="PathCollection_13">
    <g clip-path="url(#pb21ff9c046)">
     <use xlink:href="#md399e65a85" x="312.487955" y="104.247931" style="stroke: #000000; stroke-width: 1.5"/>
    </g>
   </g>
   <g id="PathCollection_14">
    <g clip-path="url(#pb21ff9c046)">
     <use xlink:href="#md399e65a85" x="330.820701" y="103.308512" style="stroke: #000000; stroke-width: 1.5"/>
    </g>
   </g>
   <g id="PathCollection_15">
    <defs>
     <path id="mec00bc97fd" d="M 0 3.535534 
C 0.937635 3.535534 1.836992 3.163008 2.5 2.5 
C 3.163008 1.836992 3.535534 0.937635 3.535534 0 
C 3.535534 -0.937635 3.163008 -1.836992 2.5 -2.5 
C 1.836992 -3.163008 0.937635 -3.535534 0 -3.535534 
C -0.937635 -3.535534 -1.836992 -3.163008 -2.5 -2.5 
C -3.163008 -1.836992 -3.535534 -0.937635 -3.535534 0 
C -3.535534 0.937635 -3.163008 1.836992 -2.5 2.5 
C -1.836992 3.163008 -0.937635 3.535534 0 3.535534 
z
" style="stroke: #000000"/>
    </defs>
    <g clip-path="url(#pb21ff9c046)">
     <use xlink:href="#mec00bc97fd" x="330.820701" y="135.529248" style="stroke: #000000"/>
    </g>
   </g>
   <g id="PathCollection_16">
    <g clip-path="url(#pb21ff9c046)">
     <use xlink:href="#md399e65a85" x="350.551108" y="114.592801" style="stroke: #000000; stroke-width: 1.5"/>
    </g>
   </g>
   <g id="PathCollection_17">
    <g clip-path="url(#pb21ff9c046)">
     <use xlink:href="#mec00bc97fd" x="350.551108" y="146.813538" style="stroke: #000000"/>
    </g>
   </g>
   <g id="PathCollection_18">
    <g clip-path="url(#pb21ff9c046)">
     <use xlink:href="#md399e65a85" x="390.010376" y="98.535873" style="stroke: #000000; stroke-width: 1.5"/>
    </g>
   </g>
   <g id="PathCollection_19">
    <g clip-path="url(#pb21ff9c046)">
     <use xlink:href="#mec00bc97fd" x="390.010376" y="130.756609" style="stroke: #000000"/>
    </g>
   </g>
   <g id="PathCollection_20">
    <g clip-path="url(#pb21ff9c046)">
     <use xlink:href="#md399e65a85" x="413.931228" y="74.240336" style="stroke: #000000; stroke-width: 1.5"/>
    </g>
   </g>
   <g id="PathCollection_21">
    <g clip-path="url(#pb21ff9c046)">
     <use xlink:href="#mec00bc97fd" x="413.931228" y="106.461073" style="stroke: #000000"/>
    </g>
   </g>
   <g id="PathCollection_22">
    <g clip-path="url(#pb21ff9c046)">
     <use xlink:href="#md399e65a85" x="446.467208" y="22.057931" style="stroke: #000000; stroke-width: 1.5"/>
    </g>
   </g>
   <g id="PathCollection_23">
    <g clip-path="url(#pb21ff9c046)">
     <use xlink:href="#mec00bc97fd" x="446.467208" y="54.278668" style="stroke: #000000"/>
    </g>
   </g>
   <g id="PathCollection_24">
    <g clip-path="url(#pb21ff9c046)">
     <use xlink:href="#md399e65a85" x="466.356433" y="24.281519" style="stroke: #000000; stroke-width: 1.5"/>
    </g>
   </g>
   <g id="PathCollection_25">
    <g clip-path="url(#pb21ff9c046)">
     <use xlink:href="#mec00bc97fd" x="466.356433" y="56.502256" style="stroke: #000000"/>
    </g>
   </g>
   <g id="PathCollection_26">
    <g clip-path="url(#pb21ff9c046)">
     <use xlink:href="#md399e65a85" x="523.428306" y="47.199669" style="stroke: #000000; stroke-width: 1.5"/>
    </g>
   </g>
   <g id="PathCollection_27">
    <g clip-path="url(#pb21ff9c046)">
     <use xlink:href="#mec00bc97fd" x="523.428306" y="79.420405" style="stroke: #000000"/>
    </g>
   </g>
   <g id="PathCollection_28">
    <g clip-path="url(#pb21ff9c046)">
     <use xlink:href="#md399e65a85" x="560.55669" y="39.461709" style="stroke: #000000; stroke-width: 1.5"/>
    </g>
   </g>
   <g id="PathCollection_29">
    <g clip-path="url(#pb21ff9c046)">
     <use xlink:href="#mec00bc97fd" x="560.55669" y="71.682446" style="stroke: #000000"/>
    </g>
   </g>
   <g id="PathCollection_30">
    <g clip-path="url(#pb21ff9c046)">
     <use xlink:href="#md399e65a85" x="613.147256" y="88.039925" style="stroke: #000000; stroke-width: 1.5"/>
    </g>
   </g>
   <g id="PathCollection_31">
    <g clip-path="url(#pb21ff9c046)">
     <use xlink:href="#mec00bc97fd" x="613.147256" y="120.260661" style="stroke: #000000"/>
    </g>
   </g>
   <g id="matplotlib.axis_3">
    <g id="xtick_5">
     <g id="line2d_23">
      <path d="M 312.487955 174.04 
L 312.487955 10.8 
" clip-path="url(#pb21ff9c046)" style="fill: none; stroke: #b0b0b0; stroke-width: 0.8; stroke-linecap: square"/>
     </g>
     <g id="line2d_24">
      <g>
       <use xlink:href="#m3c497d00fe" x="312.487955" y="174.04" style="stroke: #000000; stroke-width: 0.8"/>
      </g>
     </g>
     <g id="text_24">
      <!-- 0 -->
      <g transform="translate(309.306705 188.638438) scale(0.1 -0.1)">
       <use xlink:href="#DejaVuSans-30"/>
      </g>
     </g>
    </g>
    <g id="xtick_6">
     <g id="line2d_25">
      <path d="M 361.587638 174.04 
L 361.587638 10.8 
" clip-path="url(#pb21ff9c046)" style="fill: none; stroke: #b0b0b0; stroke-width: 0.8; stroke-linecap: square"/>
     </g>
     <g id="line2d_26">
      <g>
       <use xlink:href="#m3c497d00fe" x="361.587638" y="174.04" style="stroke: #000000; stroke-width: 0.8"/>
      </g>
     </g>
     <g id="text_25">
      <!-- 200 -->
      <g transform="translate(352.043888 188.638438) scale(0.1 -0.1)">
       <use xlink:href="#DejaVuSans-32"/>
       <use xlink:href="#DejaVuSans-30" x="63.623047"/>
       <use xlink:href="#DejaVuSans-30" x="127.246094"/>
      </g>
     </g>
    </g>
    <g id="xtick_7">
     <g id="line2d_27">
      <path d="M 410.687321 174.04 
L 410.687321 10.8 
" clip-path="url(#pb21ff9c046)" style="fill: none; stroke: #b0b0b0; stroke-width: 0.8; stroke-linecap: square"/>
     </g>
     <g id="line2d_28">
      <g>
       <use xlink:href="#m3c497d00fe" x="410.687321" y="174.04" style="stroke: #000000; stroke-width: 0.8"/>
      </g>
     </g>
     <g id="text_26">
      <!-- 400 -->
      <g transform="translate(401.143571 188.638438) scale(0.1 -0.1)">
       <use xlink:href="#DejaVuSans-34"/>
       <use xlink:href="#DejaVuSans-30" x="63.623047"/>
       <use xlink:href="#DejaVuSans-30" x="127.246094"/>
      </g>
     </g>
    </g>
    <g id="xtick_8">
     <g id="line2d_29">
      <path d="M 459.787004 174.04 
L 459.787004 10.8 
" clip-path="url(#pb21ff9c046)" style="fill: none; stroke: #b0b0b0; stroke-width: 0.8; stroke-linecap: square"/>
     </g>
     <g id="line2d_30">
      <g>
       <use xlink:href="#m3c497d00fe" x="459.787004" y="174.04" style="stroke: #000000; stroke-width: 0.8"/>
      </g>
     </g>
     <g id="text_27">
      <!-- 600 -->
      <g transform="translate(450.243254 188.638438) scale(0.1 -0.1)">
       <use xlink:href="#DejaVuSans-36"/>
       <use xlink:href="#DejaVuSans-30" x="63.623047"/>
       <use xlink:href="#DejaVuSans-30" x="127.246094"/>
      </g>
     </g>
    </g>
    <g id="xtick_9">
     <g id="line2d_31">
      <path d="M 508.886688 174.04 
L 508.886688 10.8 
" clip-path="url(#pb21ff9c046)" style="fill: none; stroke: #b0b0b0; stroke-width: 0.8; stroke-linecap: square"/>
     </g>
     <g id="line2d_32">
      <g>
       <use xlink:href="#m3c497d00fe" x="508.886688" y="174.04" style="stroke: #000000; stroke-width: 0.8"/>
      </g>
     </g>
     <g id="text_28">
      <!-- 800 -->
      <g transform="translate(499.342938 188.638438) scale(0.1 -0.1)">
       <use xlink:href="#DejaVuSans-38"/>
       <use xlink:href="#DejaVuSans-30" x="63.623047"/>
       <use xlink:href="#DejaVuSans-30" x="127.246094"/>
      </g>
     </g>
    </g>
    <g id="xtick_10">
     <g id="line2d_33">
      <path d="M 557.986371 174.04 
L 557.986371 10.8 
" clip-path="url(#pb21ff9c046)" style="fill: none; stroke: #b0b0b0; stroke-width: 0.8; stroke-linecap: square"/>
     </g>
     <g id="line2d_34">
      <g>
       <use xlink:href="#m3c497d00fe" x="557.986371" y="174.04" style="stroke: #000000; stroke-width: 0.8"/>
      </g>
     </g>
     <g id="text_29">
      <!-- 1000 -->
      <g transform="translate(545.261371 188.638438) scale(0.1 -0.1)">
       <use xlink:href="#DejaVuSans-31"/>
       <use xlink:href="#DejaVuSans-30" x="63.623047"/>
       <use xlink:href="#DejaVuSans-30" x="127.246094"/>
       <use xlink:href="#DejaVuSans-30" x="190.869141"/>
      </g>
     </g>
    </g>
    <g id="xtick_11">
     <g id="line2d_35">
      <path d="M 607.086054 174.04 
L 607.086054 10.8 
" clip-path="url(#pb21ff9c046)" style="fill: none; stroke: #b0b0b0; stroke-width: 0.8; stroke-linecap: square"/>
     </g>
     <g id="line2d_36">
      <g>
       <use xlink:href="#m3c497d00fe" x="607.086054" y="174.04" style="stroke: #000000; stroke-width: 0.8"/>
      </g>
     </g>
     <g id="text_30">
      <!-- 1200 -->
      <g transform="translate(594.361054 188.638438) scale(0.1 -0.1)">
       <use xlink:href="#DejaVuSans-31"/>
       <use xlink:href="#DejaVuSans-32" x="63.623047"/>
       <use xlink:href="#DejaVuSans-30" x="127.246094"/>
       <use xlink:href="#DejaVuSans-30" x="190.869141"/>
      </g>
     </g>
    </g>
    <g id="text_31">
     <!-- Transmitting distance [m] -->
     <g transform="translate(398.559793 202.316563) scale(0.1 -0.1)">
      <defs>
       <path id="DejaVuSans-54" d="M -19 4666 
L 3928 4666 
L 3928 4134 
L 2272 4134 
L 2272 0 
L 1638 0 
L 1638 4134 
L -19 4134 
L -19 4666 
z
" transform="scale(0.015625)"/>
       <path id="DejaVuSans-72" d="M 2631 2963 
Q 2534 3019 2420 3045 
Q 2306 3072 2169 3072 
Q 1681 3072 1420 2755 
Q 1159 2438 1159 1844 
L 1159 0 
L 581 0 
L 581 3500 
L 1159 3500 
L 1159 2956 
Q 1341 3275 1631 3429 
Q 1922 3584 2338 3584 
Q 2397 3584 2469 3576 
Q 2541 3569 2628 3553 
L 2631 2963 
z
" transform="scale(0.015625)"/>
       <path id="DejaVuSans-73" d="M 2834 3397 
L 2834 2853 
Q 2591 2978 2328 3040 
Q 2066 3103 1784 3103 
Q 1356 3103 1142 2972 
Q 928 2841 928 2578 
Q 928 2378 1081 2264 
Q 1234 2150 1697 2047 
L 1894 2003 
Q 2506 1872 2764 1633 
Q 3022 1394 3022 966 
Q 3022 478 2636 193 
Q 2250 -91 1575 -91 
Q 1294 -91 989 -36 
Q 684 19 347 128 
L 347 722 
Q 666 556 975 473 
Q 1284 391 1588 391 
Q 1994 391 2212 530 
Q 2431 669 2431 922 
Q 2431 1156 2273 1281 
Q 2116 1406 1581 1522 
L 1381 1569 
Q 847 1681 609 1914 
Q 372 2147 372 2553 
Q 372 3047 722 3315 
Q 1072 3584 1716 3584 
Q 2034 3584 2315 3537 
Q 2597 3491 2834 3397 
z
" transform="scale(0.015625)"/>
       <path id="DejaVuSans-6d" d="M 3328 2828 
Q 3544 3216 3844 3400 
Q 4144 3584 4550 3584 
Q 5097 3584 5394 3201 
Q 5691 2819 5691 2113 
L 5691 0 
L 5113 0 
L 5113 2094 
Q 5113 2597 4934 2840 
Q 4756 3084 4391 3084 
Q 3944 3084 3684 2787 
Q 3425 2491 3425 1978 
L 3425 0 
L 2847 0 
L 2847 2094 
Q 2847 2600 2669 2842 
Q 2491 3084 2119 3084 
Q 1678 3084 1418 2786 
Q 1159 2488 1159 1978 
L 1159 0 
L 581 0 
L 581 3500 
L 1159 3500 
L 1159 2956 
Q 1356 3278 1631 3431 
Q 1906 3584 2284 3584 
Q 2666 3584 2933 3390 
Q 3200 3197 3328 2828 
z
" transform="scale(0.015625)"/>
       <path id="DejaVuSans-63" d="M 3122 3366 
L 3122 2828 
Q 2878 2963 2633 3030 
Q 2388 3097 2138 3097 
Q 1578 3097 1268 2742 
Q 959 2388 959 1747 
Q 959 1106 1268 751 
Q 1578 397 2138 397 
Q 2388 397 2633 464 
Q 2878 531 3122 666 
L 3122 134 
Q 2881 22 2623 -34 
Q 2366 -91 2075 -91 
Q 1284 -91 818 406 
Q 353 903 353 1747 
Q 353 2603 823 3093 
Q 1294 3584 2113 3584 
Q 2378 3584 2631 3529 
Q 2884 3475 3122 3366 
z
" transform="scale(0.015625)"/>
      </defs>
      <use xlink:href="#DejaVuSans-54"/>
      <use xlink:href="#DejaVuSans-72" x="46.333984"/>
      <use xlink:href="#DejaVuSans-61" x="87.447266"/>
      <use xlink:href="#DejaVuSans-6e" x="148.726562"/>
      <use xlink:href="#DejaVuSans-73" x="212.105469"/>
      <use xlink:href="#DejaVuSans-6d" x="264.205078"/>
      <use xlink:href="#DejaVuSans-69" x="361.617188"/>
      <use xlink:href="#DejaVuSans-74" x="389.400391"/>
      <use xlink:href="#DejaVuSans-74" x="428.609375"/>
      <use xlink:href="#DejaVuSans-69" x="467.818359"/>
      <use xlink:href="#DejaVuSans-6e" x="495.601562"/>
      <use xlink:href="#DejaVuSans-67" x="558.980469"/>
      <use xlink:href="#DejaVuSans-20" x="622.457031"/>
      <use xlink:href="#DejaVuSans-64" x="654.244141"/>
      <use xlink:href="#DejaVuSans-69" x="717.720703"/>
      <use xlink:href="#DejaVuSans-73" x="745.503906"/>
      <use xlink:href="#DejaVuSans-74" x="797.603516"/>
      <use xlink:href="#DejaVuSans-61" x="836.8125"/>
      <use xlink:href="#DejaVuSans-6e" x="898.091797"/>
      <use xlink:href="#DejaVuSans-63" x="961.470703"/>
      <use xlink:href="#DejaVuSans-65" x="1016.451172"/>
      <use xlink:href="#DejaVuSans-20" x="1077.974609"/>
      <use xlink:href="#DejaVuSans-5b" x="1109.761719"/>
      <use xlink:href="#DejaVuSans-6d" x="1148.775391"/>
      <use xlink:href="#DejaVuSans-5d" x="1246.1875"/>
     </g>
    </g>
   </g>
   <g id="matplotlib.axis_4">
    <g id="ytick_8">
     <g id="line2d_37">
      <path d="M 288.435211 159.3161 
L 637.2 159.3161 
" clip-path="url(#pb21ff9c046)" style="fill: none; stroke: #b0b0b0; stroke-width: 0.8; stroke-linecap: square"/>
     </g>
     <g id="line2d_38">
      <g>
       <use xlink:href="#m487bbd2183" x="288.435211" y="159.3161" style="stroke: #000000; stroke-width: 0.8"/>
      </g>
     </g>
     <g id="text_32">
      <!-- −2 -->
      <g transform="translate(266.693024 163.115318) scale(0.1 -0.1)">
       <defs>
        <path id="DejaVuSans-2212" d="M 678 2272 
L 4684 2272 
L 4684 1741 
L 678 1741 
L 678 2272 
z
" transform="scale(0.015625)"/>
       </defs>
       <use xlink:href="#DejaVuSans-2212"/>
       <use xlink:href="#DejaVuSans-32" x="83.789062"/>
      </g>
     </g>
    </g>
    <g id="ytick_9">
     <g id="line2d_39">
      <path d="M 288.435211 120.260661 
L 637.2 120.260661 
" clip-path="url(#pb21ff9c046)" style="fill: none; stroke: #b0b0b0; stroke-width: 0.8; stroke-linecap: square"/>
     </g>
     <g id="line2d_40">
      <g>
       <use xlink:href="#m487bbd2183" x="288.435211" y="120.260661" style="stroke: #000000; stroke-width: 0.8"/>
      </g>
     </g>
     <g id="text_33">
      <!-- 0 -->
      <g transform="translate(275.072711 124.05988) scale(0.1 -0.1)">
       <use xlink:href="#DejaVuSans-30"/>
      </g>
     </g>
    </g>
    <g id="ytick_10">
     <g id="line2d_41">
      <path d="M 288.435211 81.205223 
L 637.2 81.205223 
" clip-path="url(#pb21ff9c046)" style="fill: none; stroke: #b0b0b0; stroke-width: 0.8; stroke-linecap: square"/>
     </g>
     <g id="line2d_42">
      <g>
       <use xlink:href="#m487bbd2183" x="288.435211" y="81.205223" style="stroke: #000000; stroke-width: 0.8"/>
      </g>
     </g>
     <g id="text_34">
      <!-- 2 -->
      <g transform="translate(275.072711 85.004442) scale(0.1 -0.1)">
       <use xlink:href="#DejaVuSans-32"/>
      </g>
     </g>
    </g>
    <g id="ytick_11">
     <g id="line2d_43">
      <path d="M 288.435211 42.149784 
L 637.2 42.149784 
" clip-path="url(#pb21ff9c046)" style="fill: none; stroke: #b0b0b0; stroke-width: 0.8; stroke-linecap: square"/>
     </g>
     <g id="line2d_44">
      <g>
       <use xlink:href="#m487bbd2183" x="288.435211" y="42.149784" style="stroke: #000000; stroke-width: 0.8"/>
      </g>
     </g>
     <g id="text_35">
      <!-- 4 -->
      <g transform="translate(275.072711 45.949003) scale(0.1 -0.1)">
       <use xlink:href="#DejaVuSans-34"/>
      </g>
     </g>
    </g>
    <g id="text_36">
     <!-- Relief -->
     <g transform="translate(260.613336 106.360625) rotate(-90) scale(0.1 -0.1)">
      <defs>
       <path id="DejaVuSans-52" d="M 2841 2188 
Q 3044 2119 3236 1894 
Q 3428 1669 3622 1275 
L 4263 0 
L 3584 0 
L 2988 1197 
Q 2756 1666 2539 1819 
Q 2322 1972 1947 1972 
L 1259 1972 
L 1259 0 
L 628 0 
L 628 4666 
L 2053 4666 
Q 2853 4666 3247 4331 
Q 3641 3997 3641 3322 
Q 3641 2881 3436 2590 
Q 3231 2300 2841 2188 
z
M 1259 4147 
L 1259 2491 
L 2053 2491 
Q 2509 2491 2742 2702 
Q 2975 2913 2975 3322 
Q 2975 3731 2742 3939 
Q 2509 4147 2053 4147 
L 1259 4147 
z
" transform="scale(0.015625)"/>
       <path id="DejaVuSans-6c" d="M 603 4863 
L 1178 4863 
L 1178 0 
L 603 0 
L 603 4863 
z
" transform="scale(0.015625)"/>
       <path id="DejaVuSans-66" d="M 2375 4863 
L 2375 4384 
L 1825 4384 
Q 1516 4384 1395 4259 
Q 1275 4134 1275 3809 
L 1275 3500 
L 2222 3500 
L 2222 3053 
L 1275 3053 
L 1275 0 
L 697 0 
L 697 3053 
L 147 3053 
L 147 3500 
L 697 3500 
L 697 3744 
Q 697 4328 969 4595 
Q 1241 4863 1831 4863 
L 2375 4863 
z
" transform="scale(0.015625)"/>
      </defs>
      <use xlink:href="#DejaVuSans-52"/>
      <use xlink:href="#DejaVuSans-65" x="64.982422"/>
      <use xlink:href="#DejaVuSans-6c" x="126.505859"/>
      <use xlink:href="#DejaVuSans-69" x="154.289062"/>
      <use xlink:href="#DejaVuSans-65" x="182.072266"/>
      <use xlink:href="#DejaVuSans-66" x="243.595703"/>
     </g>
    </g>
   </g>
   <g id="line2d_45">
    <path d="M 312.487955 120.260661 
L 313.898166 121.900829 
L 315.308378 123.540997 
L 316.718589 124.595333 
L 318.1288 126.2355 
L 319.539011 128.070945 
L 320.949223 130.101667 
L 322.359434 131.937112 
L 323.769645 133.382003 
L 325.179856 134.436339 
L 326.590068 135.295398 
L 328.000279 135.568625 
L 329.41049 135.841853 
L 330.820701 135.529248 
" clip-path="url(#pb21ff9c046)" style="fill: none; stroke: #1b9e77; stroke-width: 1.5; stroke-linecap: square"/>
   </g>
   <g id="line2d_46">
    <path d="M 330.820701 174.04 
L 330.820701 10.8 
" clip-path="url(#pb21ff9c046)" style="fill: none; stroke-dasharray: 5.55,2.4; stroke-dashoffset: 0; stroke: #808080; stroke-opacity: 0.5; stroke-width: 1.5"/>
   </g>
   <g id="line2d_47">
    <path d="M 312.487955 120.260661 
L 313.756727 121.510275 
L 315.025499 122.955165 
L 316.29427 123.814224 
L 317.563042 125.063837 
L 318.831814 126.313451 
L 320.100586 128.148895 
L 321.369357 129.789063 
L 322.638129 131.038676 
L 323.906901 132.28829 
L 325.175673 132.952072 
L 326.444444 133.615853 
L 327.713216 133.693803 
L 328.981988 133.967031 
L 330.25076 133.459149 
L 331.519531 132.951268 
L 332.788303 132.638664 
L 334.057075 132.716614 
L 335.325847 133.380396 
L 336.594618 133.8489 
L 337.86339 134.512682 
L 339.132162 135.176464 
L 340.400934 135.644968 
L 341.669705 136.504027 
L 342.938477 137.948918 
L 344.207249 140.174917 
L 345.476021 142.205639 
L 346.744792 144.041084 
L 348.013564 145.290697 
L 349.282336 145.954479 
L 350.551108 146.813538 
" clip-path="url(#pb21ff9c046)" style="fill: none; stroke: #d95f02; stroke-width: 1.5; stroke-linecap: square"/>
   </g>
   <g id="line2d_48">
    <path d="M 350.551108 174.04 
L 350.551108 10.8 
" clip-path="url(#pb21ff9c046)" style="fill: none; stroke-dasharray: 5.55,2.4; stroke-dashoffset: 0; stroke: #808080; stroke-opacity: 0.5; stroke-width: 1.5"/>
   </g>
   <g id="line2d_49">
    <path d="M 312.487955 120.260661 
L 313.738317 121.510275 
L 314.988678 122.955165 
L 316.23904 123.814224 
L 317.489402 125.063837 
L 318.739763 126.313451 
L 319.990125 127.953618 
L 321.240487 129.398509 
L 322.490848 130.843399 
L 323.74121 132.093013 
L 324.991571 132.756794 
L 326.241933 133.420576 
L 327.492295 133.498526 
L 328.742656 133.771754 
L 329.993018 133.263872 
L 331.24338 132.755991 
L 332.493741 132.052832 
L 333.744103 132.130782 
L 334.994464 132.599287 
L 336.244826 133.067791 
L 337.495188 133.731573 
L 338.745549 134.395355 
L 339.995911 134.863859 
L 341.246273 135.137087 
L 342.496634 136.3867 
L 343.746996 138.417422 
L 344.997357 140.643421 
L 346.247719 142.869421 
L 347.498081 144.314311 
L 348.748442 145.17337 
L 349.998804 145.837152 
L 351.249166 146.696211 
L 352.499527 147.164715 
L 353.749889 147.242665 
L 355.00025 147.320616 
L 356.250612 147.008011 
L 357.500974 147.281239 
L 358.751335 147.359189 
L 360.001697 147.437139 
L 361.252059 146.73398 
L 362.50242 146.616653 
L 363.752782 146.499326 
L 365.003143 146.381999 
L 366.253505 146.459949 
L 367.503867 145.952068 
L 368.754228 145.834741 
L 370.00459 145.32686 
L 371.254952 144.818978 
L 372.505313 143.725265 
L 373.755675 143.217384 
L 375.006036 142.514225 
L 376.256398 141.615789 
L 377.50676 141.107908 
L 378.757121 139.62364 
L 380.007483 138.920482 
L 381.257845 137.240937 
L 382.508206 136.537779 
L 383.758568 135.053511 
L 385.008929 133.959798 
L 386.259291 134.233026 
L 387.509653 134.310976 
L 388.760014 134.193649 
L 390.010376 130.756609 
" clip-path="url(#pb21ff9c046)" style="fill: none; stroke: #7570b3; stroke-width: 1.5; stroke-linecap: square"/>
   </g>
   <g id="line2d_50">
    <path d="M 390.010376 174.04 
L 390.010376 10.8 
" clip-path="url(#pb21ff9c046)" style="fill: none; stroke-dasharray: 5.55,2.4; stroke-dashoffset: 0; stroke: #808080; stroke-opacity: 0.5; stroke-width: 1.5"/>
   </g>
   <g id="line2d_51">
    <path d="M 312.487955 120.260661 
L 313.740341 121.705552 
L 314.992727 122.955165 
L 316.245113 123.814224 
L 317.4975 125.063837 
L 318.749886 126.313451 
L 320.002272 127.953618 
L 321.254658 129.593786 
L 322.507044 131.038676 
L 323.75943 132.28829 
L 325.011816 132.756794 
L 326.264202 133.615853 
L 327.516588 133.498526 
L 328.768974 133.771754 
L 330.02136 133.068595 
L 331.273746 132.560714 
L 332.526133 131.857555 
L 333.778519 131.935505 
L 335.030905 132.40401 
L 336.283291 132.872514 
L 337.535677 133.536296 
L 338.788063 134.200078 
L 340.040449 134.668582 
L 341.292835 135.137087 
L 342.545221 136.3867 
L 343.797607 138.417422 
L 345.049993 140.838699 
L 346.302379 142.869421 
L 347.554766 144.509588 
L 348.807152 145.368647 
L 350.059538 146.227706 
L 351.311924 147.086765 
L 352.56431 147.750547 
L 353.816696 148.023774 
L 355.069082 148.101724 
L 356.321468 148.179674 
L 357.573854 148.257625 
L 358.82624 148.726129 
L 360.078626 148.413525 
L 361.331012 148.100921 
L 362.583399 147.788316 
L 363.835785 147.670989 
L 365.088171 147.74894 
L 366.340557 147.631613 
L 367.592943 147.514286 
L 368.845329 147.396958 
L 370.097715 147.084354 
L 371.350101 146.576473 
L 372.602487 145.873314 
L 373.854873 145.170156 
L 375.107259 144.466997 
L 376.359646 143.763838 
L 377.612032 142.865403 
L 378.864418 141.966967 
L 380.116804 140.677977 
L 381.36919 139.584264 
L 382.621576 138.295273 
L 383.873962 137.006283 
L 385.126348 136.303125 
L 386.378734 136.185798 
L 387.63112 137.630688 
L 388.883506 137.708638 
L 390.135892 134.271599 
L 391.388279 131.615668 
L 392.640665 129.155015 
L 393.893051 127.280193 
L 395.145437 125.014817 
L 396.397823 123.335273 
L 397.650209 121.655728 
L 398.902595 120.562015 
L 400.154981 118.88247 
L 401.407367 117.59348 
L 402.659753 115.913936 
L 403.912139 114.624945 
L 405.164525 113.72651 
L 406.416912 112.437519 
L 407.669298 111.734361 
L 408.921684 110.445371 
L 410.17407 109.742212 
L 411.426456 108.453222 
L 412.678842 107.554786 
L 413.931228 106.461073 
" clip-path="url(#pb21ff9c046)" style="fill: none; stroke: #e7298a; stroke-width: 1.5; stroke-linecap: square"/>
   </g>
   <g id="line2d_52">
    <path d="M 413.931228 174.04 
L 413.931228 10.8 
" clip-path="url(#pb21ff9c046)" style="fill: none; stroke-dasharray: 5.55,2.4; stroke-dashoffset: 0; stroke: #808080; stroke-opacity: 0.5; stroke-width: 1.5"/>
   </g>
   <g id="line2d_53">
    <path d="M 312.487955 120.260661 
L 313.728504 121.705552 
L 314.969052 122.955165 
L 316.209601 123.814224 
L 317.45015 125.063837 
L 318.690698 126.313451 
L 319.931247 127.953618 
L 321.171796 129.398509 
L 322.412344 130.843399 
L 323.652893 132.093013 
L 324.893442 132.756794 
L 326.13399 133.420576 
L 327.374539 133.498526 
L 328.615087 133.576476 
L 329.855636 133.068595 
L 331.096185 132.365436 
L 332.336733 131.662278 
L 333.577282 131.349674 
L 334.817831 131.818178 
L 336.058379 132.286683 
L 337.298928 132.950464 
L 338.539476 133.614246 
L 339.780025 134.082751 
L 341.020574 134.551255 
L 342.261122 135.410314 
L 343.501671 137.441036 
L 344.74222 139.667035 
L 345.982768 142.088312 
L 347.223317 143.923757 
L 348.463866 144.782816 
L 349.704414 145.641875 
L 350.944963 146.696211 
L 352.185511 147.359992 
L 353.42606 148.219051 
L 354.666609 148.492279 
L 355.907157 148.765506 
L 357.147706 148.843456 
L 358.388255 149.507238 
L 359.628803 149.389911 
L 360.869352 149.077307 
L 362.109901 148.569425 
L 363.350449 148.452098 
L 364.590998 148.530048 
L 365.831546 148.412721 
L 367.072095 148.295394 
L 368.312644 148.373344 
L 369.553192 148.451295 
L 370.793741 148.13869 
L 372.03429 147.630809 
L 373.274838 146.92765 
L 374.515387 146.419769 
L 375.755935 145.521333 
L 376.996484 145.013452 
L 378.237033 143.919739 
L 379.477581 142.826026 
L 380.71813 141.92759 
L 381.958679 140.443323 
L 383.199227 139.544887 
L 384.439776 138.451174 
L 385.680325 138.333847 
L 386.920873 139.388183 
L 388.161422 140.833073 
L 389.40197 138.762974 
L 390.642519 135.716489 
L 391.883068 133.060559 
L 393.123616 130.599906 
L 394.364165 128.725084 
L 395.604714 126.850262 
L 396.845262 125.170717 
L 398.085811 123.881727 
L 399.32636 122.788014 
L 400.566908 121.694301 
L 401.807457 120.210034 
L 403.048005 118.921044 
L 404.288554 117.436776 
L 405.529103 115.757232 
L 406.769651 114.468242 
L 408.0102 112.983974 
L 409.250749 111.694984 
L 410.491297 110.405994 
L 411.731846 109.312281 
L 412.972394 108.218568 
L 414.212943 107.124855 
L 415.453492 106.226419 
L 416.69404 104.937429 
L 417.934589 103.843716 
L 419.175138 101.968894 
L 420.415686 100.679904 
L 421.656235 99.000359 
L 422.896784 97.320815 
L 424.137332 95.64127 
L 425.377881 93.571171 
L 426.618429 91.501072 
L 427.858978 89.040419 
L 429.099527 87.165597 
L 430.340075 84.314389 
L 431.580624 81.853736 
L 432.821173 79.197805 
L 434.061721 76.346598 
L 435.30227 73.690667 
L 436.542818 70.644182 
L 437.783367 68.183529 
L 439.023916 64.941767 
L 440.264464 63.066945 
L 441.505013 60.215737 
L 442.745562 58.536193 
L 443.98611 56.661371 
L 445.226659 55.372381 
L 446.467208 54.278668 
" clip-path="url(#pb21ff9c046)" style="fill: none; stroke: #66a61e; stroke-width: 1.5; stroke-linecap: square"/>
   </g>
   <g id="line2d_54">
    <path d="M 446.467208 174.04 
L 446.467208 10.8 
" clip-path="url(#pb21ff9c046)" style="fill: none; stroke-dasharray: 5.55,2.4; stroke-dashoffset: 0; stroke: #808080; stroke-opacity: 0.5; stroke-width: 1.5"/>
   </g>
   <g id="line2d_55">
    <path d="M 312.487955 120.260661 
L 313.72883 121.705552 
L 314.969705 122.955165 
L 316.21058 123.814224 
L 317.451454 125.063837 
L 318.692329 126.313451 
L 319.933204 127.953618 
L 321.174079 129.398509 
L 322.414954 130.843399 
L 323.655829 132.093013 
L 324.896703 132.756794 
L 326.137578 133.420576 
L 327.378453 133.498526 
L 328.619328 133.576476 
L 329.860203 132.873318 
L 331.101078 132.365436 
L 332.341952 131.662278 
L 333.582827 131.349674 
L 334.823702 131.818178 
L 336.064577 132.286683 
L 337.305452 132.950464 
L 338.546326 133.614246 
L 339.787201 134.082751 
L 341.028076 134.551255 
L 342.268951 135.215037 
L 343.509826 137.441036 
L 344.750701 139.667035 
L 345.991575 142.088312 
L 347.23245 143.923757 
L 348.473325 144.978093 
L 349.7142 145.641875 
L 350.955075 146.696211 
L 352.195949 147.55527 
L 353.436824 148.414329 
L 354.677699 148.687556 
L 355.918574 148.960783 
L 357.159449 149.234011 
L 358.400324 149.897792 
L 359.641198 149.975742 
L 360.882073 149.663138 
L 362.122948 148.95998 
L 363.363823 148.842653 
L 364.604698 148.920603 
L 365.845572 148.998553 
L 367.086447 148.881226 
L 368.327322 148.763899 
L 369.568197 148.841849 
L 370.809072 148.529245 
L 372.049947 148.216641 
L 373.290821 147.513482 
L 374.531696 147.0056 
L 375.772571 146.302442 
L 377.013446 145.599283 
L 378.254321 144.700847 
L 379.495195 143.607134 
L 380.73607 142.513421 
L 381.976945 141.419708 
L 383.21782 140.325995 
L 384.458695 139.42756 
L 385.69957 139.114955 
L 386.940444 140.364569 
L 388.181319 141.614182 
L 389.422194 139.73936 
L 390.663069 136.497598 
L 391.903944 133.841668 
L 393.144818 131.576291 
L 394.385693 129.70147 
L 395.626568 127.826648 
L 396.867443 126.342381 
L 398.108318 124.858113 
L 399.349193 123.7644 
L 400.590067 122.865964 
L 401.830942 121.576974 
L 403.071817 120.287984 
L 404.312692 118.803717 
L 405.553567 117.124172 
L 406.794441 115.444627 
L 408.035316 113.96036 
L 409.276191 112.67137 
L 410.517066 111.38238 
L 411.757941 110.09339 
L 412.998816 108.999677 
L 414.23969 107.905964 
L 415.480565 107.202805 
L 416.72144 105.718538 
L 417.962315 104.624825 
L 419.20319 102.94528 
L 420.444065 101.461013 
L 421.684939 99.781468 
L 422.925814 98.101923 
L 424.166689 96.227102 
L 425.407564 94.157003 
L 426.648439 92.086904 
L 427.889313 89.821528 
L 429.130188 87.556151 
L 430.371063 84.704944 
L 431.611938 82.049013 
L 432.852813 79.197805 
L 434.093688 76.541875 
L 435.334562 73.885944 
L 436.575437 71.034737 
L 437.816312 68.378806 
L 439.057187 65.527598 
L 440.298062 63.262222 
L 441.538936 60.801569 
L 442.779811 58.73147 
L 444.020686 56.856648 
L 445.261561 55.372381 
L 446.502436 54.278668 
L 447.743311 53.770786 
L 448.984185 53.653459 
L 450.22506 54.121964 
L 451.465935 54.785746 
L 452.70681 55.644804 
L 453.947685 56.308586 
L 455.188559 56.777091 
L 456.429434 57.050318 
L 457.670309 57.128268 
L 458.911184 57.401496 
L 460.152059 57.284169 
L 461.392934 57.362119 
L 462.633808 56.854237 
L 463.874683 56.73691 
L 465.115558 56.424306 
L 466.356433 56.502256 
" clip-path="url(#pb21ff9c046)" style="fill: none; stroke: #e6ab02; stroke-width: 1.5; stroke-linecap: square"/>
   </g>
   <g id="line2d_56">
    <path d="M 466.356433 174.04 
L 466.356433 10.8 
" clip-path="url(#pb21ff9c046)" style="fill: none; stroke-dasharray: 5.55,2.4; stroke-dashoffset: 0; stroke: #808080; stroke-opacity: 0.5; stroke-width: 1.5"/>
   </g>
   <g id="line2d_57">
    <path d="M 312.487955 120.260661 
L 313.728781 121.900829 
L 314.969606 123.345719 
L 316.210432 124.204778 
L 319.932909 127.953618 
L 321.173734 129.593786 
L 322.41456 131.038676 
L 323.655386 132.093013 
L 324.896211 132.756794 
L 326.137037 133.030022 
L 327.377862 133.107972 
L 329.859514 132.092209 
L 332.341165 130.295337 
L 333.58199 129.787456 
L 334.822816 129.670129 
L 336.063642 129.943356 
L 337.304467 130.607138 
L 338.545293 131.661474 
L 339.786118 132.520533 
L 341.026944 133.184315 
L 342.267769 134.433928 
L 343.508595 136.46465 
L 345.990246 143.064698 
L 347.231072 145.485974 
L 348.471897 147.126142 
L 349.712723 148.180478 
L 350.953549 149.430091 
L 353.4352 153.296258 
L 354.676025 154.545872 
L 355.916851 155.600208 
L 357.157677 157.045098 
L 358.398502 158.099434 
L 359.639328 158.372662 
L 362.120979 157.356899 
L 363.361805 157.239572 
L 364.60263 157.317522 
L 365.843456 157.200195 
L 367.084281 156.301759 
L 368.325107 155.989155 
L 369.565933 156.262382 
L 370.806758 156.145055 
L 372.047584 156.223005 
L 373.288409 156.496233 
L 374.529235 156.183629 
L 375.770061 155.675747 
L 378.251712 154.26943 
L 379.492537 153.761548 
L 380.733363 153.644221 
L 381.974189 153.13634 
L 383.215014 152.237904 
L 384.45584 151.534746 
L 385.696665 151.222141 
L 386.937491 152.862309 
L 388.178317 155.283586 
L 389.419142 153.604041 
L 391.900793 146.92524 
L 393.141619 144.269309 
L 394.382444 142.394487 
L 395.62327 141.105497 
L 398.104921 136.770022 
L 399.345747 135.676309 
L 400.586572 135.168427 
L 401.827398 134.855823 
L 403.068224 133.957387 
L 404.309049 132.082566 
L 406.7907 126.965982 
L 408.031526 124.700606 
L 409.272352 123.216338 
L 410.513177 122.122625 
L 411.754003 121.810021 
L 415.47648 122.043872 
L 416.717305 121.926544 
L 417.958131 121.61394 
L 419.198956 121.106059 
L 420.439782 120.012346 
L 421.680608 118.332801 
L 425.403084 112.513059 
L 427.884736 107.787029 
L 429.125561 104.935822 
L 432.848038 95.405812 
L 435.329689 89.898674 
L 437.81134 85.367922 
L 439.052166 83.4931 
L 441.533817 80.524565 
L 444.015468 78.337139 
L 445.256294 77.438703 
L 446.497119 76.930822 
L 452.701247 76.344187 
L 453.942073 76.422137 
L 455.182899 76.890642 
L 456.423724 77.7497 
L 457.66455 78.413482 
L 458.905375 79.272541 
L 460.146201 79.350491 
L 461.387027 79.623719 
L 463.868678 79.389065 
L 465.109503 78.881183 
L 466.350329 78.568579 
L 468.83198 77.552816 
L 470.072806 77.240212 
L 472.554457 77.396112 
L 473.795283 77.864617 
L 476.276934 78.411071 
L 477.517759 78.489022 
L 482.481062 78.019713 
L 487.444364 78.331514 
L 488.68519 78.604741 
L 489.926015 78.682692 
L 492.407666 78.448037 
L 496.130143 76.338562 
L 497.370969 76.025957 
L 498.611794 76.299185 
L 499.85262 76.962966 
L 501.093446 78.21258 
L 504.815922 82.547251 
L 508.538399 85.71026 
L 511.02005 87.428377 
L 512.260876 87.701605 
L 513.501702 87.584278 
L 514.742527 86.881119 
L 519.70583 82.506267 
L 520.946655 81.217277 
L 522.187481 80.123564 
L 523.428306 79.420405 
L 523.428306 79.420405 
" clip-path="url(#pb21ff9c046)" style="fill: none; stroke: #a6761d; stroke-width: 1.5; stroke-linecap: square"/>
   </g>
   <g id="line2d_58">
    <path d="M 523.428306 174.04 
L 523.428306 10.8 
" clip-path="url(#pb21ff9c046)" style="fill: none; stroke-dasharray: 5.55,2.4; stroke-dashoffset: 0; stroke: #808080; stroke-opacity: 0.5; stroke-width: 1.5"/>
   </g>
   <g id="line2d_59">
    <path d="M 312.487955 120.260661 
L 314.956301 123.540997 
L 316.190474 124.400056 
L 318.658819 126.508728 
L 319.892992 127.758341 
L 321.127165 129.203232 
L 322.361338 130.452845 
L 323.595511 131.507181 
L 324.829683 131.975686 
L 326.063856 132.053636 
L 327.298029 131.936309 
L 328.532202 131.623704 
L 329.766375 130.920546 
L 332.23472 129.123674 
L 333.468893 128.420516 
L 334.703066 128.107911 
L 335.937239 127.990584 
L 337.171411 128.654366 
L 338.405584 129.513425 
L 339.639757 130.763038 
L 340.87393 131.622097 
L 342.108103 133.066988 
L 343.342275 135.488264 
L 345.810621 142.283589 
L 347.044794 145.290697 
L 348.278967 147.516696 
L 349.51314 148.961587 
L 350.747312 150.2112 
L 351.981485 151.851368 
L 354.449831 155.32698 
L 355.684004 156.381317 
L 358.152349 158.880543 
L 359.386522 159.349048 
L 361.854868 158.333285 
L 363.08904 158.020681 
L 364.323213 158.293908 
L 365.557386 157.981304 
L 366.791559 157.473422 
L 368.025732 157.160818 
L 369.259905 157.238768 
L 370.494077 157.511996 
L 371.72825 157.9805 
L 374.196596 158.526955 
L 375.430769 157.823796 
L 376.664941 157.315915 
L 379.133287 155.909598 
L 380.36746 155.792271 
L 382.835805 156.338725 
L 384.069978 156.221398 
L 385.304151 156.299348 
L 386.538324 156.96313 
L 387.772497 158.798575 
L 389.006669 158.485971 
L 390.240842 156.025317 
L 391.475015 152.588278 
L 392.709188 149.932348 
L 393.943361 147.862249 
L 395.177534 146.768536 
L 396.411706 145.284268 
L 397.645879 143.018892 
L 398.880052 140.167684 
L 400.114225 138.48814 
L 401.348398 137.394427 
L 402.58257 136.495991 
L 403.816743 135.402278 
L 405.050916 133.722733 
L 406.285089 132.238466 
L 407.519262 130.949476 
L 408.753434 130.05104 
L 409.987607 129.543159 
L 411.22178 129.230554 
L 412.455953 129.113227 
L 413.690126 129.191177 
L 414.924299 129.464405 
L 417.392644 129.620305 
L 418.626817 129.502978 
L 419.86099 129.580928 
L 421.095163 129.073047 
L 422.329335 128.369888 
L 423.563508 127.276175 
L 424.797681 125.987185 
L 426.031854 124.30764 
L 428.500199 120.36272 
L 434.671063 108.25473 
L 437.139409 103.919255 
L 438.373582 101.849156 
L 440.841928 98.490067 
L 442.0761 97.0058 
L 444.544446 94.427819 
L 448.246964 89.975017 
L 449.481137 88.295472 
L 450.71531 86.811205 
L 451.949483 85.131661 
L 453.183656 83.647393 
L 454.417828 82.55368 
L 455.652001 81.850522 
L 456.886174 81.34264 
L 459.35452 81.107986 
L 463.057038 80.170173 
L 464.291211 80.052846 
L 467.993729 80.872528 
L 470.462075 81.809537 
L 475.398766 82.902447 
L 480.335457 83.214247 
L 482.803803 82.979593 
L 484.037976 83.057544 
L 485.272149 83.330771 
L 486.506322 84.18983 
L 487.740494 85.244166 
L 490.20884 89.500887 
L 491.443013 91.922164 
L 493.911358 97.545825 
L 498.84805 110.160089 
L 500.082222 112.776643 
L 501.316395 114.612088 
L 502.550568 116.056978 
L 503.784741 117.306591 
L 505.018914 118.360928 
L 506.253087 119.024709 
L 508.721432 119.571164 
L 511.189778 119.727064 
L 512.423951 119.609737 
L 513.658123 119.882965 
L 516.126469 119.257756 
L 517.360642 118.35932 
L 518.594815 117.07033 
L 519.828987 115.586063 
L 523.531506 109.180489 
L 527.234024 101.798529 
L 529.70237 96.29139 
L 530.936543 94.026014 
L 533.404888 90.471648 
L 535.873234 87.893668 
L 537.107407 87.190509 
L 539.575752 86.5653 
L 540.809925 86.643251 
L 542.044098 86.525924 
L 543.278271 86.213319 
L 544.512444 85.510161 
L 546.980789 82.93218 
L 551.917481 76.214002 
L 554.385826 73.636022 
L 555.619999 72.737586 
L 556.854172 72.424982 
L 558.088345 71.9171 
L 560.55669 71.682446 
L 560.55669 71.682446 
" clip-path="url(#pb21ff9c046)" style="fill: none; stroke: #666666; stroke-width: 1.5; stroke-linecap: square"/>
   </g>
   <g id="line2d_60">
    <path d="M 560.55669 174.04 
L 560.55669 10.8 
" clip-path="url(#pb21ff9c046)" style="fill: none; stroke-dasharray: 5.55,2.4; stroke-dashoffset: 0; stroke: #808080; stroke-opacity: 0.5; stroke-width: 1.5"/>
   </g>
   <g id="line2d_61">
    <path d="M 312.487955 120.260661 
L 314.962517 123.736274 
L 317.43708 125.454392 
L 319.911642 127.563064 
L 321.148923 128.812677 
L 322.386204 129.867013 
L 323.623485 130.726072 
L 324.860766 130.9993 
L 326.098047 131.07725 
L 327.335328 130.764646 
L 329.80989 129.748883 
L 332.284452 128.342565 
L 333.521733 127.834684 
L 334.759015 127.52208 
L 335.996296 127.795307 
L 337.233577 128.263812 
L 338.470858 129.122871 
L 342.182701 132.285879 
L 343.419982 134.707155 
L 347.131825 145.290697 
L 348.369106 147.711974 
L 349.606387 149.352141 
L 350.843668 150.601755 
L 352.08095 152.241922 
L 354.555512 155.717535 
L 355.792793 156.771871 
L 357.030074 158.021484 
L 358.267355 159.466375 
L 359.504636 159.934879 
L 361.979198 159.309671 
L 363.216479 159.192344 
L 364.45376 159.465571 
L 365.691041 159.543521 
L 366.928322 158.840363 
L 368.165603 158.332481 
L 369.402885 158.215154 
L 373.114728 159.034836 
L 374.352009 158.917509 
L 375.58929 158.604905 
L 376.826571 158.097024 
L 378.063852 157.393865 
L 379.301133 156.885984 
L 380.538414 157.159211 
L 381.775695 158.799379 
L 383.012976 160.244269 
L 384.250257 161.298605 
L 387.962101 162.704119 
L 389.199382 162.782069 
L 390.436663 161.102524 
L 391.673944 158.251317 
L 392.911225 155.985941 
L 394.148506 154.69695 
L 395.385787 154.384346 
L 396.623068 154.267019 
L 397.860349 153.173306 
L 399.09763 151.103207 
L 400.334911 149.61894 
L 401.572192 148.915781 
L 404.046755 147.900018 
L 405.284036 146.806305 
L 406.521317 145.322038 
L 407.758598 144.228325 
L 410.23316 142.431453 
L 412.707722 141.41569 
L 413.945003 141.298363 
L 415.182284 141.571591 
L 416.419565 141.649541 
L 418.894127 142.195996 
L 420.131409 141.883391 
L 426.317814 141.296756 
L 427.555095 140.39832 
L 428.792376 139.10933 
L 430.029657 137.429786 
L 431.266938 135.554964 
L 437.453344 124.032806 
L 439.927906 119.306776 
L 442.402468 115.361856 
L 443.639749 113.877588 
L 447.351592 108.838955 
L 451.063435 102.628658 
L 452.300716 101.14439 
L 453.537998 99.8554 
L 454.775279 99.152241 
L 456.01256 98.64436 
L 458.487122 97.238043 
L 460.961684 95.441171 
L 462.198965 94.93329 
L 463.436246 94.815963 
L 465.910808 94.971863 
L 468.38537 94.346655 
L 473.334495 91.53402 
L 474.571776 91.221416 
L 475.809057 90.713534 
L 477.046338 90.986762 
L 478.283619 91.455266 
L 479.5209 92.314325 
L 483.232743 96.063165 
L 484.470024 97.508056 
L 485.707305 98.757669 
L 486.944587 100.20256 
L 494.368273 111.410506 
L 496.842835 115.667227 
L 505.503803 131.053945 
L 506.741084 132.498836 
L 507.978365 133.357895 
L 509.215646 133.826399 
L 516.639332 135.465763 
L 519.113894 135.231109 
L 520.351175 134.723228 
L 522.825738 134.098019 
L 525.3003 133.082256 
L 526.537581 132.769652 
L 527.774862 132.652325 
L 529.012143 132.925552 
L 530.249424 133.394057 
L 531.486705 133.667284 
L 532.723986 134.331066 
L 535.198548 135.268075 
L 537.67311 136.595639 
L 538.910392 137.454697 
L 540.147673 137.923202 
L 541.384954 138.196429 
L 542.622235 138.27438 
L 545.096797 137.649171 
L 546.334078 136.555458 
L 547.571359 135.266468 
L 548.80864 133.782201 
L 550.045921 131.907379 
L 552.520483 127.376626 
L 553.757764 124.720696 
L 559.94417 109.683548 
L 561.181451 107.808727 
L 562.418732 106.715014 
L 563.656013 105.816578 
L 568.605137 103.003943 
L 569.842418 101.91023 
L 571.079699 101.011795 
L 573.554262 99.996032 
L 574.791543 100.073982 
L 576.028824 99.956655 
L 577.266105 99.644051 
L 578.503386 99.526724 
L 579.740667 99.604674 
L 580.977948 100.268456 
L 582.215229 101.127514 
L 583.45251 101.791296 
L 584.689791 102.259801 
L 585.927072 103.314137 
L 587.164353 104.759027 
L 593.350759 113.936252 
L 594.58804 114.795311 
L 595.825321 115.068538 
L 597.062602 114.755934 
L 599.537164 114.52128 
L 600.774445 115.185061 
L 602.011726 116.239398 
L 605.72357 118.816574 
L 606.960851 119.480356 
L 609.435413 120.417365 
L 611.909975 120.573265 
L 613.147256 120.260661 
L 613.147256 120.260661 
" clip-path="url(#pb21ff9c046)" style="fill: none; stroke: #e41a1c; stroke-width: 1.5; stroke-linecap: square"/>
   </g>
   <g id="line2d_62">
    <path d="M 613.147256 174.04 
L 613.147256 10.8 
" clip-path="url(#pb21ff9c046)" style="fill: none; stroke-dasharray: 5.55,2.4; stroke-dashoffset: 0; stroke: #808080; stroke-opacity: 0.5; stroke-width: 1.5"/>
   </g>
   <g id="patch_8">
    <path d="M 288.435211 174.04 
L 288.435211 10.8 
" style="fill: none; stroke: #000000; stroke-width: 0.8; stroke-linejoin: miter; stroke-linecap: square"/>
   </g>
   <g id="patch_9">
    <path d="M 637.2 174.04 
L 637.2 10.8 
" style="fill: none; stroke: #000000; stroke-width: 0.8; stroke-linejoin: miter; stroke-linecap: square"/>
   </g>
   <g id="patch_10">
    <path d="M 288.435211 174.04 
L 637.2 174.04 
" style="fill: none; stroke: #000000; stroke-width: 0.8; stroke-linejoin: miter; stroke-linecap: square"/>
   </g>
   <g id="patch_11">
    <path d="M 288.435211 10.8 
L 637.2 10.8 
" style="fill: none; stroke: #000000; stroke-width: 0.8; stroke-linejoin: miter; stroke-linecap: square"/>
   </g>
   <g id="text_37">
    <!-- 1 -->
    <g transform="translate(332.048193 101.35574) scale(0.1 -0.1)">
     <use xlink:href="#DejaVuSans-31"/>
    </g>
   </g>
   <g id="text_38">
    <!-- 2 -->
    <g transform="translate(351.7786 112.640029) scale(0.1 -0.1)">
     <use xlink:href="#DejaVuSans-32"/>
    </g>
   </g>
   <g id="text_39">
    <!-- 3 -->
    <g transform="translate(391.237868 96.583101) scale(0.1 -0.1)">
     <use xlink:href="#DejaVuSans-33"/>
    </g>
   </g>
   <g id="text_40">
    <!-- 4 -->
    <g transform="translate(415.15872 72.287564) scale(0.1 -0.1)">
     <use xlink:href="#DejaVuSans-34"/>
    </g>
   </g>
   <g id="text_41">
    <!-- 5 -->
    <g transform="translate(447.6947 20.105159) scale(0.1 -0.1)">
     <use xlink:href="#DejaVuSans-35"/>
    </g>
   </g>
   <g id="text_42">
    <!-- 6 -->
    <g transform="translate(467.583925 22.328748) scale(0.1 -0.1)">
     <use xlink:href="#DejaVuSans-36"/>
    </g>
   </g>
   <g id="text_43">
    <!-- 7 -->
    <g transform="translate(524.655798 45.246897) scale(0.1 -0.1)">
     <use xlink:href="#DejaVuSans-37"/>
    </g>
   </g>
   <g id="text_44">
    <!-- 8 -->
    <g transform="translate(561.784182 37.508938) scale(0.1 -0.1)">
     <use xlink:href="#DejaVuSans-38"/>
    </g>
   </g>
   <g id="text_45">
    <!-- 9 -->
    <g transform="translate(614.374748 86.087153) scale(0.1 -0.1)">
     <use xlink:href="#DejaVuSans-39"/>
    </g>
   </g>
  </g>
 </g>
 <defs>
  <clipPath id="pa1132c5af3">
   <rect x="66.62" y="10.8" width="174.382394" height="163.24"/>
  </clipPath>
  <clipPath id="pb21ff9c046">
   <rect x="288.435211" y="10.8" width="348.764789" height="163.24"/>
  </clipPath>
 </defs>
</svg>
