<?xml version="1.0" standalone="no"?>
 <!DOCTYPE svg PUBLIC "-//W3C//DTD SVG 1.1//EN" 
 "http://www.w3.org/Graphics/SVG/1.1/DTD/svg11.dtd"> 
<svg
  xmlns:svg="http://www.w3.org/2000/svg"
  xmlns="http://www.w3.org/2000/svg"
  xmlns:xlink="http://www.w3.org/1999/xlink"
  version="1.1"
  width="297.0022mm" height="210.0072mm" viewBox="0.0000 0.0000 297.0022 210.0072">
<title>SVG Image created as lora-module-In1_Cu.svg date 2024/04/07 14:34:19 </title>
  <desc>Image generated by PCBNEW </desc>
<g style="fill:#000000; fill-opacity:1.0000;stroke:#000000; stroke-opacity:1.0000;
stroke-linecap:round; stroke-linejoin:round;"
 transform="translate(0 0) scale(1 1)">
</g>
<g style="fill:#7FC87F; fill-opacity:1.0000; stroke:none;">
<circle cx="144.7800" cy="93.4720" r="0.8500" /> 
<circle cx="144.7800" cy="96.0120" r="0.8500" /> 
<circle cx="144.7800" cy="98.5520" r="0.8500" /> 
<circle cx="144.7800" cy="101.0920" r="0.8500" /> 
<circle cx="144.7800" cy="103.6320" r="0.8500" /> 
<circle cx="144.7800" cy="106.1720" r="0.8500" /> 
<circle cx="144.7800" cy="108.7120" r="0.8500" /> 
<circle cx="142.2400" cy="111.2520" r="0.8500" /> 
<circle cx="139.7000" cy="111.2520" r="0.8500" /> 
<circle cx="137.1600" cy="111.2520" r="0.8500" /> 
<circle cx="134.6200" cy="111.2520" r="0.8500" /> 
<circle cx="132.0800" cy="111.2520" r="0.8500" /> 
<circle cx="129.5400" cy="111.2520" r="0.8500" /> 
<circle cx="127.0000" cy="111.2520" r="0.8500" /> 
<circle cx="124.4600" cy="108.7120" r="0.8500" /> 
<circle cx="124.4600" cy="106.1720" r="0.8500" /> 
<circle cx="124.4600" cy="103.6320" r="0.8500" /> 
<circle cx="124.4600" cy="101.0920" r="0.8500" /> 
<circle cx="124.4600" cy="98.5520" r="0.8500" /> 
<circle cx="124.4600" cy="96.0120" r="0.8500" /> 
<circle cx="124.4600" cy="93.4720" r="0.8500" /> 
</g>
<g style="fill:#ECECEC; fill-opacity:1.0000; stroke:none;">
<circle cx="139.1247" cy="106.4964" r="0.3000" /> 
</g>
<g style="fill:#ECECEC; fill-opacity:1.0000; stroke:none;">
<circle cx="135.9690" cy="107.4930" r="0.3000" /> 
</g>
<g style="fill:#ECECEC; fill-opacity:1.0000; stroke:none;">
<circle cx="131.4450" cy="109.7280" r="0.3000" /> 
</g>
<g style="fill:#ECECEC; fill-opacity:1.0000; stroke:none;">
<circle cx="129.5400" cy="96.2660" r="0.3000" /> 
</g>
<g style="fill:#ECECEC; fill-opacity:1.0000; stroke:none;">
<circle cx="141.3510" cy="99.1870" r="0.3000" /> 
</g>
<g style="fill:#ECECEC; fill-opacity:1.0000; stroke:none;">
<circle cx="131.1910" cy="90.4405" r="0.3000" /> 
</g>
<g style="fill:#ECECEC; fill-opacity:1.0000; stroke:none;">
<circle cx="131.4450" cy="108.5850" r="0.3000" /> 
</g>
<g style="fill:#ECECEC; fill-opacity:1.0000; stroke:none;">
<circle cx="136.3980" cy="109.9820" r="0.3000" /> 
</g>
<g style="fill:#ECECEC; fill-opacity:1.0000; stroke:none;">
<circle cx="138.3030" cy="110.1090" r="0.3000" /> 
</g>
<g style="fill:#ECECEC; fill-opacity:1.0000; stroke:none;">
<circle cx="125.0675" cy="99.8220" r="0.3000" /> 
</g>
<g style="fill:#ECECEC; fill-opacity:1.0000; stroke:none;">
<circle cx="132.5236" cy="100.6005" r="0.3000" /> 
</g>
<g style="fill:#ECECEC; fill-opacity:1.0000; stroke:none;">
<circle cx="136.1440" cy="94.1070" r="0.3000" /> 
</g>
<g style="fill:#ECECEC; fill-opacity:1.0000; stroke:none;">
<circle cx="138.9380" cy="100.0760" r="0.3000" /> 
</g>
<g style="fill:#ECECEC; fill-opacity:1.0000; stroke:none;">
<circle cx="125.0950" cy="89.9160" r="0.3000" /> 
</g>
<g style="fill:#ECECEC; fill-opacity:1.0000; stroke:none;">
<circle cx="125.2220" cy="94.7420" r="0.3000" /> 
</g>
<g style="fill:#ECECEC; fill-opacity:1.0000; stroke:none;">
<circle cx="143.9164" cy="91.1860" r="0.3000" /> 
</g>
<g style="fill:#ECECEC; fill-opacity:1.0000; stroke:none;">
<circle cx="143.6370" cy="95.2500" r="0.3000" /> 
</g>
<g style="fill:#ECECEC; fill-opacity:1.0000; stroke:none;">
<circle cx="136.3980" cy="101.3460" r="0.3000" /> 
</g>
<g style="fill:#ECECEC; fill-opacity:1.0000; stroke:none;">
<circle cx="143.8910" cy="104.7750" r="0.3000" /> 
</g>
<g style="fill:#ECECEC; fill-opacity:1.0000; stroke:none;">
<circle cx="143.9164" cy="90.1700" r="0.3000" /> 
</g>
<g style="fill:#ECECEC; fill-opacity:1.0000; stroke:none;">
<circle cx="133.8580" cy="89.2810" r="0.3000" /> 
</g>
<g style="fill:#ECECEC; fill-opacity:1.0000; stroke:none;">
<circle cx="137.9220" cy="89.2810" r="0.3000" /> 
</g>
<g style="fill:#ECECEC; fill-opacity:1.0000; stroke:none;">
<circle cx="141.0970" cy="94.7420" r="0.3000" /> 
</g>
<g style="fill:#ECECEC; fill-opacity:1.0000; stroke:none;">
<circle cx="138.1671" cy="108.5850" r="0.3000" /> 
</g>
<g style="fill:#ECECEC; fill-opacity:1.0000; stroke:none;">
<circle cx="125.7300" cy="89.2810" r="0.3000" /> 
</g>
<g style="fill:#ECECEC; fill-opacity:1.0000; stroke:none;">
<circle cx="132.8420" cy="89.2810" r="0.3000" /> 
</g>
<g style="fill:#ECECEC; fill-opacity:1.0000; stroke:none;">
<circle cx="130.3881" cy="99.9490" r="0.3000" /> 
</g>
<g style="fill:#ECECEC; fill-opacity:1.0000; stroke:none;">
<circle cx="130.9908" cy="102.2604" r="0.3000" /> 
</g>
<g style="fill:#ECECEC; fill-opacity:1.0000; stroke:none;">
<circle cx="136.3980" cy="92.3290" r="0.3000" /> 
</g>
<g style="fill:#ECECEC; fill-opacity:1.0000; stroke:none;">
<circle cx="137.1600" cy="95.1230" r="0.3000" /> 
</g>
<g style="fill:#ECECEC; fill-opacity:1.0000; stroke:none;">
<circle cx="137.7950" cy="94.3610" r="0.3000" /> 
</g>
<g style="fill:#ECECEC; fill-opacity:1.0000; stroke:none;">
<circle cx="126.7460" cy="89.2810" r="0.3000" /> 
</g>
<g style="fill:#ECECEC; fill-opacity:1.0000; stroke:none;">
<circle cx="127.6350" cy="96.5200" r="0.3000" /> 
</g>
<g style="fill:#ECECEC; fill-opacity:1.0000; stroke:none;">
<circle cx="126.5085" cy="107.5690" r="0.3000" /> 
</g>
<g style="fill:#ECECEC; fill-opacity:1.0000; stroke:none;">
<circle cx="143.8910" cy="99.8220" r="0.3000" /> 
</g>
<g style="fill:#ECECEC; fill-opacity:1.0000; stroke:none;">
<circle cx="129.7940" cy="89.2810" r="0.3000" /> 
</g>
<g style="fill:#ECECEC; fill-opacity:1.0000; stroke:none;">
<circle cx="143.0020" cy="90.1700" r="0.3000" /> 
</g>
<g style="fill:#ECECEC; fill-opacity:1.0000; stroke:none;">
<circle cx="139.9540" cy="109.3470" r="0.3000" /> 
</g>
<g style="fill:#ECECEC; fill-opacity:1.0000; stroke:none;">
<circle cx="144.0180" cy="109.9820" r="0.3000" /> 
</g>
<g style="fill:#ECECEC; fill-opacity:1.0000; stroke:none;">
<circle cx="134.8740" cy="89.2810" r="0.3000" /> 
</g>
<g style="fill:#ECECEC; fill-opacity:1.0000; stroke:none;">
<circle cx="141.9352" cy="92.5576" r="0.3000" /> 
</g>
<g style="fill:#ECECEC; fill-opacity:1.0000; stroke:none;">
<circle cx="127.7620" cy="89.2810" r="0.3000" /> 
</g>
<g style="fill:#ECECEC; fill-opacity:1.0000; stroke:none;">
<circle cx="133.7310" cy="94.9960" r="0.3000" /> 
</g>
<g style="fill:#ECECEC; fill-opacity:1.0000; stroke:none;">
<circle cx="140.4620" cy="95.5040" r="0.3000" /> 
</g>
<g style="fill:#ECECEC; fill-opacity:1.0000; stroke:none;">
<circle cx="143.9164" cy="89.3064" r="0.3000" /> 
</g>
<g style="fill:#ECECEC; fill-opacity:1.0000; stroke:none;">
<circle cx="139.0650" cy="108.5850" r="0.3000" /> 
</g>
<g style="fill:#ECECEC; fill-opacity:1.0000; stroke:none;">
<circle cx="143.0020" cy="92.2020" r="0.3000" /> 
</g>
<g style="fill:#ECECEC; fill-opacity:1.0000; stroke:none;">
<circle cx="143.0020" cy="93.1672" r="0.3000" /> 
</g>
<g style="fill:#ECECEC; fill-opacity:1.0000; stroke:none;">
<circle cx="133.4770" cy="110.2360" r="0.3000" /> 
</g>
<g style="fill:#ECECEC; fill-opacity:1.0000; stroke:none;">
<circle cx="141.9860" cy="89.2810" r="0.3000" /> 
</g>
<g style="fill:#ECECEC; fill-opacity:1.0000; stroke:none;">
<circle cx="138.9380" cy="89.2810" r="0.3000" /> 
</g>
<g style="fill:#ECECEC; fill-opacity:1.0000; stroke:none;">
<circle cx="143.9164" cy="92.2020" r="0.3000" /> 
</g>
<g style="fill:#ECECEC; fill-opacity:1.0000; stroke:none;">
<circle cx="128.9801" cy="99.3989" r="0.3000" /> 
</g>
<g style="fill:#ECECEC; fill-opacity:1.0000; stroke:none;">
<circle cx="143.6370" cy="94.3610" r="0.3000" /> 
</g>
<g style="fill:#ECECEC; fill-opacity:1.0000; stroke:none;">
<circle cx="141.9860" cy="90.1700" r="0.3000" /> 
</g>
<g style="fill:#ECECEC; fill-opacity:1.0000; stroke:none;">
<circle cx="143.0020" cy="91.1860" r="0.3000" /> 
</g>
<g style="fill:#ECECEC; fill-opacity:1.0000; stroke:none;">
<circle cx="132.7150" cy="94.9960" r="0.3000" /> 
</g>
<g style="fill:#ECECEC; fill-opacity:1.0000; stroke:none;">
<circle cx="138.8872" cy="92.7100" r="0.3000" /> 
</g>
<g style="fill:#ECECEC; fill-opacity:1.0000; stroke:none;">
<circle cx="124.9680" cy="102.3620" r="0.3000" /> 
</g>
<g style="fill:#ECECEC; fill-opacity:1.0000; stroke:none;">
<circle cx="140.2080" cy="105.2830" r="0.3000" /> 
</g>
<g style="fill:#ECECEC; fill-opacity:1.0000; stroke:none;">
<circle cx="131.0640" cy="103.8860" r="0.3000" /> 
</g>
<g style="fill:#ECECEC; fill-opacity:1.0000; stroke:none;">
<circle cx="135.8900" cy="89.2810" r="0.3000" /> 
</g>
<g style="fill:#ECECEC; fill-opacity:1.0000; stroke:none;">
<circle cx="143.8910" cy="97.2820" r="0.3000" /> 
</g>
<g style="fill:#ECECEC; fill-opacity:1.0000; stroke:none;">
<circle cx="135.1280" cy="103.8860" r="0.3000" /> 
</g>
<g style="fill:#ECECEC; fill-opacity:1.0000; stroke:none;">
<circle cx="125.0950" cy="90.8050" r="0.3000" /> 
</g>
<g style="fill:#ECECEC; fill-opacity:1.0000; stroke:none;">
<circle cx="138.2776" cy="93.4720" r="0.3000" /> 
</g>
<g style="fill:#ECECEC; fill-opacity:1.0000; stroke:none;">
<circle cx="128.7780" cy="89.2810" r="0.3000" /> 
</g>
<g style="fill:#ECECEC; fill-opacity:1.0000; stroke:none;">
<circle cx="128.9050" cy="105.4100" r="0.3000" /> 
</g>
<g style="fill:#ECECEC; fill-opacity:1.0000; stroke:none;">
<circle cx="125.4760" cy="110.2360" r="0.3000" /> 
</g>
<g style="fill:#ECECEC; fill-opacity:1.0000; stroke:none;">
<circle cx="130.6830" cy="95.5040" r="0.3000" /> 
</g>
<g style="fill:#ECECEC; fill-opacity:1.0000; stroke:none;">
<circle cx="136.3980" cy="102.6160" r="0.3000" /> 
</g>
<g style="fill:#ECECEC; fill-opacity:1.0000; stroke:none;">
<circle cx="137.2870" cy="91.3130" r="0.3000" /> 
</g>
<g style="fill:#ECECEC; fill-opacity:1.0000; stroke:none;">
<circle cx="137.6680" cy="102.6160" r="0.3000" /> 
</g>
<g style="fill:#ECECEC; fill-opacity:1.0000; stroke:none;">
<circle cx="143.8910" cy="102.3620" r="0.3000" /> 
</g>
<g style="fill:#ECECEC; fill-opacity:1.0000; stroke:none;">
<circle cx="134.6200" cy="108.4580" r="0.3000" /> 
</g>
<g style="fill:#ECECEC; fill-opacity:1.0000; stroke:none;">
<circle cx="130.6830" cy="97.5360" r="0.3000" /> 
</g>
<g style="fill:#ECECEC; fill-opacity:1.0000; stroke:none;">
<circle cx="143.0020" cy="89.3064" r="0.3000" /> 
</g>
<g style="fill:#ECECEC; fill-opacity:1.0000; stroke:none;">
<circle cx="125.0950" cy="92.2020" r="0.3000" /> 
</g>
<g style="fill:#ECECEC; fill-opacity:1.0000; stroke:none;">
<circle cx="133.6503" cy="97.7314" r="0.3000" /> 
</g>
<g style="fill:#ECECEC; fill-opacity:1.0000; stroke:none;">
<circle cx="125.0675" cy="97.2820" r="0.3000" /> 
</g>
<g style="fill:#ECECEC; fill-opacity:1.0000; stroke:none;">
<circle cx="132.2832" cy="93.1672" r="0.3000" /> 
</g>
<g style="fill:#ECECEC; fill-opacity:1.0000; stroke:none;">
<circle cx="139.9540" cy="89.2810" r="0.3000" /> 
</g>
<g style="fill:#ECECEC; fill-opacity:1.0000; stroke:none;">
<circle cx="130.5560" cy="98.4250" r="0.3000" /> 
</g>
<g style="fill:#ECECEC; fill-opacity:1.0000; stroke:none;">
<circle cx="130.4290" cy="96.5200" r="0.3000" /> 
</g>
<g style="fill:#ECECEC; fill-opacity:1.0000; stroke:none;">
<circle cx="140.9700" cy="89.2810" r="0.3000" /> 
</g>
<g style="fill:#ECECEC; fill-opacity:1.0000; stroke:none;">
<circle cx="138.9380" cy="103.8860" r="0.3000" /> 
</g>
<g style="fill:#ECECEC; fill-opacity:1.0000; stroke:none;">
<circle cx="137.6680" cy="101.3460" r="0.3000" /> 
</g>
<g style="fill:#ECECEC; fill-opacity:1.0000; stroke:none;">
<circle cx="135.5090" cy="110.2360" r="0.3000" /> 
</g>
<g style="fill:#ECECEC; fill-opacity:1.0000; stroke:none;">
<circle cx="139.9540" cy="91.3130" r="0.3000" /> 
</g>
<g style="fill:#ECECEC; fill-opacity:1.0000; stroke:none;">
<circle cx="131.8260" cy="89.2810" r="0.3000" /> 
</g>
<g style="fill:#ECECEC; fill-opacity:1.0000; stroke:none;">
<circle cx="135.1280" cy="100.0760" r="0.3000" /> 
</g>
<g style="fill:#ECECEC; fill-opacity:1.0000; stroke:none;">
<circle cx="128.2700" cy="90.0684" r="0.3000" /> 
</g>
<g style="fill:#ECECEC; fill-opacity:1.0000; stroke:none;">
<circle cx="143.1290" cy="109.9820" r="0.3000" /> 
</g>
<g style="fill:#ECECEC; fill-opacity:1.0000; stroke:none;">
<circle cx="136.9060" cy="89.2810" r="0.3000" /> 
</g>
<g style="fill:#ECECEC; fill-opacity:1.0000; stroke:none;">
<circle cx="133.7310" cy="93.9800" r="0.3000" /> 
</g>
<g style="fill:#ECECEC; fill-opacity:1.0000; stroke:none;">
<circle cx="134.9756" cy="92.8116" r="0.3000" /> 
</g>
<g style="fill:#ECECEC; fill-opacity:1.0000; stroke:none;">
<circle cx="129.0466" cy="101.3828" r="0.3000" /> 
</g>
<g style="fill:#ECECEC; fill-opacity:1.0000; stroke:none;">
<circle cx="130.8100" cy="89.2810" r="0.3000" /> 
</g>
<g style="fill:#ECECEC; fill-opacity:1.0000; stroke:none;">
<circle cx="140.9700" cy="105.9180" r="0.3000" /> 
</g>
<g style="fill:#ECECEC; fill-opacity:1.0000; stroke:none;">
<circle cx="141.6082" cy="107.2624" r="0.3000" /> 
</g>
<g style="fill:#ECECEC; fill-opacity:1.0000; stroke:none;">
<circle cx="132.9720" cy="98.6790" r="0.3000" /> 
</g>
<g style="fill:#ECECEC; fill-opacity:1.0000; stroke:none;">
<circle cx="138.2937" cy="106.8070" r="0.3000" /> 
</g>
<g style="fill:#ECECEC; fill-opacity:1.0000; stroke:none;">
<circle cx="132.6495" cy="101.6434" r="0.3000" /> 
</g>
<g style="fill:#ECECEC; fill-opacity:1.0000; stroke:none;">
<circle cx="141.6050" cy="108.0770" r="0.3000" /> 
</g>
<g style="fill:#ECECEC; fill-opacity:1.0000; stroke:none;">
<circle cx="138.1760" cy="95.5040" r="0.3000" /> 
</g>
<g style="fill:#ECECEC; fill-opacity:1.0000; stroke:none;">
<circle cx="132.3340" cy="90.5510" r="0.3000" /> 
</g>
<g style="fill:#ECECEC; fill-opacity:1.0000; stroke:none;">
<circle cx="131.2672" cy="92.8116" r="0.3000" /> 
</g>
<g style="fill:#ECECEC; fill-opacity:1.0000; stroke:none;">
<circle cx="136.1440" cy="91.5670" r="0.3000" /> 
</g>
<g style="fill:#ECECEC; fill-opacity:1.0000; stroke:none;">
<circle cx="127.1270" cy="108.3666" r="0.3000" /> 
</g>
<g style="fill:#ECECEC; fill-opacity:1.0000; stroke:none;">
<circle cx="127.2137" cy="102.7832" r="0.3000" /> 
</g>
<g style="fill:#ECECEC; fill-opacity:1.0000; stroke:none;">
<circle cx="127.3810" cy="97.6630" r="0.3000" /> 
</g>
<g style="fill:#ECECEC; fill-opacity:1.0000; stroke:none;">
<circle cx="132.4825" cy="102.6450" r="0.3000" /> 
</g>
<g style="fill:#ECECEC; fill-opacity:1.0000; stroke:none;">
<circle cx="127.8890" cy="98.9330" r="0.3000" /> 
</g>
<g style="fill:#ECECEC; fill-opacity:1.0000; stroke:none;">
<circle cx="129.5400" cy="104.0130" r="0.3000" /> 
</g>
<g style="fill:#ECECEC; fill-opacity:1.0000; stroke:none;">
<circle cx="141.0970" cy="97.7900" r="0.3000" /> 
</g>
<g style="fill:#ECECEC; fill-opacity:1.0000; stroke:none;">
<circle cx="130.8495" cy="105.5205" r="0.3000" /> 
</g>
<g style="fill:#ECECEC; fill-opacity:1.0000; stroke:none;">
<circle cx="138.8325" cy="97.0295" r="0.3000" /> 
</g>
<g style="fill:#ECECEC; fill-opacity:1.0000; stroke:none;">
<circle cx="132.5880" cy="103.6320" r="0.3000" /> 
</g>
<g style="fill:#ECECEC; fill-opacity:1.0000; stroke:none;">
<circle cx="127.1226" cy="104.0225" r="0.3000" /> 
</g>
<g style="fill:#ECECEC; fill-opacity:1.0000; stroke:none;">
<circle cx="137.6045" cy="96.2025" r="0.3000" /> 
</g>
<g style="fill:#ECECEC; fill-opacity:1.0000; stroke:none;">
<circle cx="127.2925" cy="95.7621" r="0.3000" /> 
</g>
<g style="fill:#ECECEC; fill-opacity:1.0000; stroke:none;">
<circle cx="129.6670" cy="90.1700" r="0.3000" /> 
</g>
<g style="fill:#ECECEC; fill-opacity:1.0000; stroke:none;">
<circle cx="141.8590" cy="96.6470" r="0.3000" /> 
</g>
<g style="fill:#ECECEC; fill-opacity:1.0000; stroke:none;">
<circle cx="137.6680" cy="97.0280" r="0.3000" /> 
</g>
<g style="fill:#ECECEC; fill-opacity:1.0000; stroke:none;">
<circle cx="139.7000" cy="96.7740" r="0.3000" /> 
</g>
<g style="fill:#ECECEC; fill-opacity:1.0000; stroke:none;">
<circle cx="140.5636" cy="97.0788" r="0.3000" /> 
</g>
<g style="fill:#ECECEC; fill-opacity:1.0000; stroke:none;">
<circle cx="140.6424" cy="98.4784" r="0.3000" /> 
</g>
<g style="fill:#ECECEC; fill-opacity:1.0000; stroke:none;">
<circle cx="141.2985" cy="100.1952" r="0.3000" /> 
</g>
<g style="fill:#ECECEC; fill-opacity:1.0000; stroke:none;">
<circle cx="141.9016" cy="100.7325" r="0.3000" /> 
</g>
<g style="fill:#ECECEC; fill-opacity:1.0000; stroke:none;">
<circle cx="125.2220" cy="104.9020" r="0.3000" /> 
</g>
<g style="fill:#ECECEC; fill-opacity:1.0000; stroke:none;">
<circle cx="134.1467" cy="106.5977" r="0.3000" /> 
</g>
<g style="fill:#ECECEC; fill-opacity:1.0000; stroke:none;">
<circle cx="127.0165" cy="94.9960" r="0.3000" /> 
</g>
<g style="fill:#ECECEC; fill-opacity:1.0000; stroke:none;">
<circle cx="141.3510" cy="101.4577" r="0.3000" /> 
</g>
<g style="fill:#ECECEC; fill-opacity:1.0000; stroke:none;">
<circle cx="142.1130" cy="101.9822" r="0.3000" /> 
</g>
<g style="fill:#ECECEC; fill-opacity:1.0000; stroke:none;">
<circle cx="141.3510" cy="102.5067" r="0.3000" /> 
</g>
<g style="fill:#ECECEC; fill-opacity:1.0000; stroke:none;">
<circle cx="142.0377" cy="103.3424" r="0.3000" /> 
</g>
<g style="fill:#ECECEC; fill-opacity:1.0000; stroke:none;">
<circle cx="135.2550" cy="106.1720" r="0.3000" /> 
</g>
<g style="fill:#ECECEC; fill-opacity:1.0000; stroke:none;">
<circle cx="129.6305" cy="108.7965" r="0.3000" /> 
</g>
<g style="fill:#ECECEC; fill-opacity:1.0000; stroke:none;">
<circle cx="126.0175" cy="102.4887" r="0.3000" /> 
</g>
<g style="fill:#ECECEC; fill-opacity:1.0000; stroke:none;">
<circle cx="133.4967" cy="105.5695" r="0.3000" /> 
</g>
<g style="fill:#ECECEC; fill-opacity:1.0000; stroke:none;">
<circle cx="130.4290" cy="93.2180" r="0.3000" /> 
</g>
<g style="fill:#ECECEC; fill-opacity:1.0000; stroke:none;">
<circle cx="136.7407" cy="106.1634" r="0.3000" /> 
</g>
<g style="fill:#ECECEC; fill-opacity:1.0000; stroke:none;">
<circle cx="125.7300" cy="91.4400" r="0.3000" /> 
</g>
<g style="fill:#ECECEC; fill-opacity:1.0000; stroke:none;">
<circle cx="128.4224" cy="102.6160" r="0.3000" /> 
</g>
<g style="fill:#ECECEC; fill-opacity:1.0000; stroke:none;">
<circle cx="128.3970" cy="92.9640" r="0.3000" /> 
</g>
<g style="fill:#ECECEC; fill-opacity:1.0000; stroke:none;">
<circle cx="141.1000" cy="105.0290" r="0.3000" /> 
</g>
<g style="fill:#ECECEC; fill-opacity:1.0000; stroke:none;">
<circle cx="141.2240" cy="103.6320" r="0.3000" /> 
</g>
<g style="fill:#ECECEC; fill-opacity:1.0000; stroke:none;">
<circle cx="141.6050" cy="104.3940" r="0.3000" /> 
</g>
<g style="fill:none; 
stroke:#7FC87F; stroke-width:0.1500; stroke-opacity:1; 
stroke-linecap:round; stroke-linejoin:round;">
<path d="M127.2925 95.7621
L127.0426 96.0120
" />
<path d="M127.0426 96.0120
L124.4600 96.0120
" />
<path d="M124.5945 103.4975
L124.4600 103.6320
" />
<path d="M127.5409 103.4975
L124.5945 103.4975
" />
<path d="M128.4224 102.6160
L127.5409 103.4975
" />
<path style="fill:#7FC87F; fill-opacity:1.0000; stroke:none;fill-rule:evenodd;"
d="M 144.5887,88.9424
144.6247,88.9919
144.6295,89.0225
144.6295,92.3465
144.6106,92.4047
144.5611,92.4406
144.5592,92.4412
144.3760,92.4968
144.1935,92.5943
144.0336,92.7256
144.0336,92.7256
143.9023,92.8855
143.8048,93.0680
143.7447,93.2661
143.7447,93.2661
143.7244,93.4720
143.7244,93.4720
143.7447,93.6779
143.7447,93.6779
143.8048,93.8760
143.9023,94.0585
144.0336,94.2184
144.0336,94.2184
144.0336,94.2184
144.1935,94.3497
144.1935,94.3497
144.1935,94.3497
144.3760,94.4472
144.5592,94.5028
144.6094,94.5378
144.6295,94.5956
144.6295,94.5975
144.6295,94.8865
144.6106,94.9447
144.5611,94.9806
144.5592,94.9812
144.3760,95.0368
144.1935,95.1343
144.0336,95.2656
144.0336,95.2656
143.9023,95.4255
143.8048,95.6080
143.7447,95.8061
143.7447,95.8061
143.7244,96.0120
143.7244,96.0120
143.7447,96.2179
143.7447,96.2179
143.8048,96.4160
143.9023,96.5985
144.0336,96.7584
144.0336,96.7584
144.0583,96.7787
144.1935,96.8897
144.1935,96.8897
144.1935,96.8897
144.3760,96.9872
144.5592,97.0428
144.6094,97.0778
144.6295,97.1356
144.6295,97.1375
144.6295,97.4265
144.6106,97.4847
144.5611,97.5206
144.5592,97.5212
144.3760,97.5768
144.1935,97.6743
144.0336,97.8056
144.0336,97.8056
143.9023,97.9655
143.8048,98.1480
143.7447,98.3461
143.7447,98.3461
143.7244,98.5520
143.7244,98.5520
143.7447,98.7579
143.7447,98.7579
143.8048,98.9560
143.9023,99.1385
143.9727,99.2242
144.0336,99.2984
144.0336,99.2984
144.1935,99.4297
144.1935,99.4297
144.1935,99.4297
144.3760,99.5272
144.5592,99.5828
144.6094,99.6178
144.6295,99.6756
144.6295,99.6775
144.6295,99.9665
144.6106,100.0247
144.5611,100.0606
144.5592,100.0612
144.3760,100.1168
144.1935,100.2143
144.0336,100.3456
144.0336,100.3456
143.9023,100.5055
143.8048,100.6880
143.7447,100.8861
143.7447,100.8861
143.7244,101.0920
143.7244,101.0920
143.7447,101.2979
143.7447,101.2979
143.8048,101.4960
143.9023,101.6785
143.9905,101.7859
144.0336,101.8384
144.0336,101.8384
144.1935,101.9697
144.1935,101.9697
144.1935,101.9697
144.3760,102.0672
144.5592,102.1228
144.6094,102.1578
144.6295,102.2156
144.6295,102.2175
144.6295,102.5065
144.6106,102.5647
144.5611,102.6006
144.5592,102.6012
144.3760,102.6568
144.1935,102.7543
144.0336,102.8856
144.0336,102.8856
143.9023,103.0455
143.8048,103.2280
143.7447,103.4261
143.7447,103.4261
143.7244,103.6320
143.7244,103.6320
143.7447,103.8379
143.7447,103.8379
143.8048,104.0360
143.9023,104.2185
144.0289,104.3728
144.0336,104.3784
144.0540,104.3951
144.1935,104.5097
144.1935,104.5097
144.1935,104.5097
144.3760,104.6072
144.5592,104.6628
144.6094,104.6978
144.6295,104.7556
144.6295,104.7575
144.6295,105.0465
144.6106,105.1047
144.5611,105.1406
144.5592,105.1412
144.3760,105.1968
144.1935,105.2943
144.0336,105.4256
144.0336,105.4256
143.9023,105.5855
143.8048,105.7680
143.7447,105.9661
143.7447,105.9661
143.7244,106.1720
143.7244,106.1720
143.7447,106.3779
143.7447,106.3779
143.8048,106.5760
143.9023,106.7585
144.0333,106.9181
144.0336,106.9184
144.0336,106.9184
144.1935,107.0497
144.1935,107.0497
144.1935,107.0497
144.3760,107.1472
144.5592,107.2028
144.6094,107.2378
144.6295,107.2956
144.6295,107.2975
144.6295,107.5865
144.6106,107.6447
144.5611,107.6806
144.5592,107.6812
144.3760,107.7368
144.1935,107.8343
144.0336,107.9656
144.0336,107.9656
143.9023,108.1255
143.8048,108.3080
143.7447,108.5061
143.7447,108.5061
143.7244,108.7120
143.7244,108.7120
143.7447,108.9179
143.7447,108.9179
143.8048,109.1160
143.9023,109.2985
144.0305,109.4546
144.0336,109.4584
144.0336,109.4584
144.1935,109.5897
144.1935,109.5897
144.1935,109.5897
144.3760,109.6872
144.5592,109.7428
144.6094,109.7778
144.6295,109.8356
144.6295,109.8375
144.6295,111.0025
144.6106,111.0607
144.5611,111.0967
144.5305,111.1015
143.3655,111.1015
143.3073,111.0826
143.2714,111.0331
143.2708,111.0312
143.2152,110.8480
143.1177,110.6655
143.1177,110.6655
142.9864,110.5056
142.9864,110.5056
142.9797,110.5001
142.8265,110.3743
142.6440,110.2768
142.4459,110.2167
142.4459,110.2167
142.2400,110.1964
142.2400,110.1964
142.0341,110.2167
142.0341,110.2167
141.8360,110.2768
141.6535,110.3743
141.4936,110.5056
141.4936,110.5056
141.3623,110.6655
141.2648,110.8480
141.2092,111.0312
141.1742,111.0814
141.1164,111.1015
141.1145,111.1015
140.8255,111.1015
140.7673,111.0826
140.7314,111.0331
140.7308,111.0312
140.6752,110.8480
140.5777,110.6655
140.5777,110.6655
140.4464,110.5056
140.4464,110.5056
140.4397,110.5001
140.2865,110.3743
140.1040,110.2768
139.9059,110.2167
139.9059,110.2167
139.7000,110.1964
139.7000,110.1964
139.4941,110.2167
139.4941,110.2167
139.2960,110.2768
139.1135,110.3743
138.9536,110.5056
138.9536,110.5056
138.8223,110.6655
138.7248,110.8480
138.6692,111.0312
138.6342,111.0814
138.5764,111.1015
138.5745,111.1015
138.2855,111.1015
138.2273,111.0826
138.1914,111.0331
138.1908,111.0312
138.1352,110.8480
138.0774,110.7399
138.0667,110.6796
138.0934,110.6246
138.1473,110.5957
138.1926,110.5982
138.2310,110.6095
138.2310,110.6095
138.3750,110.6095
138.3750,110.6095
138.5131,110.5690
138.6341,110.4911
138.7284,110.3824
138.7882,110.2515
138.8086,110.1090
138.7932,110.0014
138.7882,109.9665
138.7284,109.8356
138.6341,109.7269
138.6341,109.7269
138.6341,109.7269
138.5131,109.6490
138.5131,109.6490
138.5131,109.6490
138.5130,109.6490
138.3750,109.6085
138.3750,109.6085
138.2310,109.6085
138.2310,109.6085
138.0929,109.6490
138.0929,109.6490
137.9719,109.7269
137.8776,109.8356
137.8178,109.9665
137.7974,110.1090
137.7974,110.1090
137.8151,110.2323
137.8046,110.2926
137.7608,110.3352
137.7002,110.3439
137.6704,110.3337
137.5640,110.2768
137.5640,110.2768
137.3659,110.2167
137.3659,110.2167
137.1600,110.1964
137.1600,110.1964
136.9944,110.2127
136.9346,110.1996
136.8940,110.1539
136.8867,110.1001
136.9036,109.9820
136.8832,109.8395
136.8234,109.7086
136.7291,109.5999
136.7291,109.5999
136.7291,109.5999
136.6081,109.5220
136.6081,109.5220
136.6081,109.5220
136.6080,109.5220
136.4700,109.4815
136.4700,109.4815
136.3260,109.4815
136.3260,109.4815
136.1879,109.5220
136.1879,109.5220
136.0669,109.5999
135.9726,109.7086
135.9128,109.8395
135.8924,109.9820
135.8924,109.9820
135.9128,110.1245
135.9550,110.2167
135.9726,110.2554
136.0405,110.3337
136.0669,110.3641
136.0833,110.3747
136.1879,110.4420
136.2683,110.4655
136.3188,110.5001
136.3394,110.5577
136.3221,110.6164
136.3170,110.6233
136.2823,110.6655
136.2823,110.6655
136.1848,110.8480
136.1292,111.0312
136.0942,111.0814
136.0364,111.1015
136.0345,111.1015
135.7450,111.1015
135.6868,111.0826
135.6509,111.0331
135.6503,111.0312
135.5948,110.8482
135.5948,110.8482
135.4973,110.6658
135.4973,110.6658
135.3661,110.5059
135.3661,110.5059
135.2062,110.3747
135.2062,110.3747
135.0238,110.2772
135.0238,110.2772
134.8740,110.2318
134.8740,110.8213
134.8130,110.7861
134.6858,110.7520
134.5542,110.7520
134.4270,110.7861
134.3660,110.8213
134.3660,110.2318
134.2162,110.2772
134.2162,110.2772
134.0338,110.3747
134.0338,110.3747
133.8739,110.5059
133.8739,110.5059
133.7427,110.6658
133.7427,110.6658
133.6452,110.8482
133.6452,110.8482
133.5897,111.0312
133.5547,111.0814
133.4969,111.1015
133.4950,111.1015
133.2055,111.1015
133.1473,111.0826
133.1114,111.0331
133.1108,111.0312
133.0552,110.8480
132.9577,110.6655
132.9577,110.6655
132.8264,110.5056
132.8264,110.5056
132.8197,110.5001
132.6665,110.3743
132.4840,110.2768
132.2859,110.2167
132.2859,110.2167
132.0800,110.1964
132.0800,110.1964
131.9132,110.2128
131.8534,110.1997
131.8128,110.1540
131.8068,110.0931
131.8287,110.0495
131.8704,110.0014
131.9302,109.8705
131.9370,109.8230
131.9506,109.7280
131.9506,109.7280
131.9302,109.5855
131.9012,109.5220
131.8704,109.4546
131.7761,109.3459
131.7761,109.3459
131.7761,109.3459
131.6551,109.2680
131.6551,109.2680
131.6551,109.2680
131.5987,109.2515
131.5482,109.2170
131.5276,109.1593
131.5448,109.1006
131.5933,109.0633
131.5987,109.0615
131.6551,109.0450
131.7761,108.9671
131.8704,108.8584
131.9302,108.7275
131.9506,108.5850
131.9302,108.4425
131.8704,108.3116
131.7761,108.2029
131.7761,108.2029
131.7761,108.2029
131.6551,108.1250
131.6551,108.1250
131.6551,108.1250
131.6550,108.1250
131.5170,108.0845
131.5170,108.0845
131.3730,108.0845
131.3730,108.0845
131.2349,108.1250
131.2349,108.1250
131.1139,108.2029
131.0196,108.3116
130.9598,108.4425
130.9394,108.5850
130.9394,108.5850
130.9598,108.7275
130.9914,108.7965
131.0196,108.8584
131.0894,108.9390
131.1139,108.9671
131.2349,109.0450
131.2349,109.0450
131.2913,109.0615
131.3418,109.0960
131.3624,109.1537
131.3452,109.2124
131.2967,109.2497
131.2913,109.2515
131.2349,109.2680
131.2349,109.2680
131.1139,109.3459
131.0196,109.4546
130.9598,109.5855
130.9394,109.7280
130.9394,109.7280
130.9598,109.8705
131.0108,109.9820
131.0196,110.0014
131.1129,110.1090
131.1139,110.1101
131.1821,110.1540
131.2349,110.1880
131.3414,110.2192
131.3730,110.2285
131.3730,110.2285
131.3730,110.2285
131.3730,110.2285
131.3945,110.2285
131.4527,110.2474
131.4887,110.2969
131.4887,110.3581
131.4573,110.4040
131.3336,110.5056
131.3336,110.5056
131.2023,110.6655
131.1048,110.8480
131.0492,111.0312
131.0142,111.0814
130.9564,111.1015
130.9545,111.1015
130.6655,111.1015
130.6073,111.0826
130.5714,111.0331
130.5708,111.0312
130.5152,110.8480
130.4177,110.6655
130.4177,110.6655
130.2864,110.5056
130.2864,110.5056
130.2797,110.5001
130.1265,110.3743
129.9440,110.2768
129.7459,110.2167
129.7459,110.2167
129.5400,110.1964
129.5400,110.1964
129.3341,110.2167
129.3341,110.2167
129.1360,110.2768
128.9535,110.3743
128.7936,110.5056
128.7936,110.5056
128.6623,110.6655
128.5648,110.8480
128.5092,111.0312
128.4742,111.0814
128.4164,111.1015
128.4145,111.1015
128.1255,111.1015
128.0673,111.0826
128.0314,111.0331
128.0308,111.0312
127.9752,110.8480
127.8777,110.6655
127.8777,110.6655
127.7464,110.5056
127.7464,110.5056
127.7397,110.5001
127.5865,110.3743
127.4040,110.2768
127.2059,110.2167
127.2059,110.2167
127.0000,110.1964
127.0000,110.1964
126.7941,110.2167
126.7941,110.2167
126.5960,110.2768
126.4135,110.3743
126.2536,110.5056
126.2536,110.5056
126.1223,110.6655
126.0248,110.8480
125.9692,111.0312
125.9342,111.0814
125.8764,111.1015
125.8745,111.1015
124.7095,111.1015
124.6513,111.0826
124.6153,111.0331
124.6105,111.0025
124.6105,109.8375
124.6294,109.7793
124.6789,109.7434
124.6807,109.7428
124.8640,109.6872
125.0464,109.5897
125.2064,109.4584
125.3377,109.2984
125.4352,109.1160
125.4953,108.9179
125.4953,108.9179
125.5156,108.7120
125.5156,108.7120
125.4953,108.5061
125.4953,108.5061
125.4675,108.4144
125.4530,108.3666
126.6214,108.3666
126.6418,108.5090
126.6731,108.5775
126.7016,108.6400
126.7640,108.7120
126.7959,108.7487
126.9169,108.8265
126.9169,108.8265
127.0234,108.8578
127.0550,108.8671
127.0550,108.8671
127.0550,108.8671
127.0550,108.8671
127.1990,108.8671
127.1990,108.8671
127.3371,108.8265
127.3838,108.7965
129.1249,108.7965
129.1453,108.9390
129.1937,109.0450
129.2051,109.0699
129.2777,109.1537
129.2994,109.1786
129.3590,109.2170
129.4204,109.2565
129.5269,109.2877
129.5585,109.2970
129.5585,109.2970
129.5585,109.2970
129.5585,109.2970
129.7025,109.2970
129.7025,109.2970
129.8406,109.2565
129.9616,109.1786
130.0559,109.0699
130.1157,108.9390
130.1318,108.8265
130.1361,108.7965
130.1361,108.7965
130.1157,108.6540
130.1092,108.6400
130.0559,108.5231
129.9616,108.4144
129.9616,108.4144
129.9616,108.4144
129.8406,108.3365
129.8406,108.3365
129.8406,108.3365
129.8406,108.3365
129.7025,108.2960
129.7025,108.2960
129.5585,108.2960
129.5585,108.2960
129.4204,108.3365
129.4204,108.3365
129.2994,108.4144
129.2051,108.5231
129.1453,108.6540
129.1249,108.7965
129.1249,108.7965
127.3838,108.7965
127.4581,108.7487
127.5524,108.6400
127.6122,108.5090
127.6326,108.3666
127.6283,108.3365
127.6122,108.2241
127.6024,108.2029
127.5524,108.0932
127.5383,108.0770
141.0994,108.0770
141.1198,108.2195
141.1733,108.3365
141.1796,108.3504
141.2351,108.4144
141.2739,108.4591
141.3949,108.5369
141.3949,108.5370
141.5014,108.5682
141.5330,108.5775
141.5330,108.5775
141.5330,108.5775
141.5330,108.5775
141.6770,108.5775
141.6770,108.5775
141.8151,108.5370
141.9361,108.4591
142.0304,108.3504
142.0902,108.2195
142.1106,108.0770
142.0928,107.9530
142.0902,107.9345
142.0630,107.8751
142.0304,107.8036
142.0067,107.7763
141.9721,107.7364
141.9483,107.6800
141.9621,107.6204
141.9721,107.6067
142.0335,107.5358
142.0933,107.4049
142.1138,107.2624
142.1104,107.2388
142.0933,107.1199
142.0892,107.1109
142.0335,106.9890
141.9393,106.8803
141.9393,106.8802
141.9393,106.8802
141.8182,106.8024
141.8182,106.8024
141.8182,106.8024
141.8182,106.8024
141.6801,106.7619
141.6801,106.7619
141.5362,106.7619
141.5362,106.7619
141.3981,106.8024
141.3981,106.8024
141.2770,106.8802
141.1828,106.9890
141.1230,107.1199
141.1025,107.2624
141.1025,107.2624
141.1230,107.4048
141.1828,107.5358
141.2411,107.6030
141.2649,107.6594
141.2510,107.7190
141.2411,107.7327
141.1796,107.8036
141.1198,107.9345
141.0994,108.0770
141.0994,108.0770
127.5383,108.0770
127.4581,107.9844
127.4581,107.9844
127.4581,107.9844
127.3371,107.9066
127.3371,107.9066
127.3371,107.9066
127.3370,107.9066
127.1990,107.8661
127.1990,107.8661
127.0550,107.8661
127.0550,107.8661
126.9169,107.9066
126.9169,107.9066
126.7959,107.9844
126.7016,108.0932
126.6418,108.2241
126.6214,108.3666
126.6214,108.3666
125.4530,108.3666
125.4352,108.3080
125.3377,108.1255
125.3373,108.1250
125.2064,107.9656
125.2064,107.9656
125.1346,107.9066
125.0465,107.8343
124.8640,107.7368
124.6808,107.6812
124.6306,107.6462
124.6105,107.5884
124.6105,107.5865
124.6105,107.4930
135.4634,107.4930
135.4838,107.6355
135.5301,107.7368
135.5436,107.7664
135.6300,107.8661
135.6379,107.8751
135.6869,107.9066
135.7589,107.9530
135.8654,107.9842
135.8970,107.9935
135.8970,107.9935
135.8970,107.9935
135.8970,107.9935
136.0410,107.9935
136.0410,107.9935
136.1791,107.9530
136.3001,107.8751
136.3944,107.7664
136.4542,107.6355
136.4685,107.5358
136.4746,107.4930
136.4746,107.4930
136.4542,107.3505
136.4031,107.2388
136.3944,107.2196
136.3001,107.1109
136.3001,107.1109
136.3001,107.1109
136.1791,107.0330
136.1791,107.0330
136.1791,107.0330
136.1790,107.0330
136.0410,106.9925
136.0410,106.9925
135.8970,106.9925
135.8970,106.9925
135.7589,107.0330
135.7589,107.0330
135.6379,107.1109
135.5436,107.2196
135.4838,107.3505
135.4634,107.4930
135.4634,107.4930
124.6105,107.4930
124.6105,107.2970
124.6294,107.2388
124.6789,107.2029
124.6808,107.2023
124.8638,107.1468
124.8638,107.1468
125.0462,107.0493
125.0462,107.0493
125.2060,106.9181
125.2061,106.9180
125.3373,106.7582
125.3373,106.7582
125.4230,106.5977
133.6411,106.5977
133.6616,106.7402
133.6921,106.8070
133.7214,106.8711
133.7953,106.9564
133.8156,106.9799
133.9367,107.0577
133.9367,107.0577
134.0431,107.0889
134.0748,107.0982
134.0748,107.0982
134.0748,107.0982
134.0748,107.0982
134.2187,107.0982
134.2187,107.0982
134.3568,107.0577
134.4779,106.9799
134.5721,106.8711
134.6014,106.8070
137.7880,106.8070
137.8085,106.9495
137.8683,107.0804
137.8683,107.0804
137.9625,107.1891
137.9625,107.1891
138.0398,107.2388
138.0836,107.2670
138.1860,107.2970
138.2217,107.3075
138.2217,107.3075
138.2217,107.3075
138.2217,107.3075
138.3656,107.3075
138.3656,107.3075
138.5037,107.2670
138.6248,107.1891
138.7190,107.0804
138.7597,106.9913
138.8011,106.9462
138.8611,106.9340
138.9033,106.9491
138.9146,106.9564
139.0211,106.9876
139.0527,106.9969
139.0527,106.9969
139.0527,106.9969
139.0527,106.9969
139.1966,106.9969
139.1966,106.9969
139.3347,106.9564
139.4558,106.8786
139.5500,106.7698
139.6098,106.6389
139.6303,106.4964
139.6217,106.4368
139.6098,106.3540
139.5879,106.3059
139.5500,106.2231
139.4558,106.1143
139.4558,106.1143
139.4558,106.1143
139.3347,106.0365
139.3347,106.0365
139.3347,106.0365
139.3347,106.0365
139.1966,105.9959
139.1966,105.9959
139.0527,105.9959
139.0527,105.9959
138.9146,106.0365
138.9146,106.0365
138.7935,106.1143
138.6993,106.2231
138.6586,106.3122
138.6172,106.3572
138.5572,106.3694
138.5150,106.3543
138.5037,106.3470
138.5037,106.3470
138.3656,106.3065
138.3656,106.3065
138.2217,106.3065
138.2217,106.3065
138.0836,106.3470
138.0836,106.3470
137.9625,106.4249
137.8683,106.5336
137.8085,106.6645
137.7880,106.8070
137.7880,106.8070
134.6014,106.8070
134.6319,106.7402
134.6524,106.5977
134.6432,106.5336
134.6370,106.4905
134.6474,106.4302
134.6913,106.3876
134.7518,106.3789
134.8060,106.4074
134.8250,106.4353
134.8296,106.4454
134.9239,106.5541
134.9917,106.5977
135.0449,106.6320
135.1514,106.6632
135.1830,106.6725
135.1830,106.6725
135.1830,106.6725
135.1830,106.6725
135.3270,106.6725
135.3270,106.6725
135.4651,106.6320
135.5861,106.5541
135.6804,106.4454
135.7402,106.3145
135.7544,106.2156
135.7606,106.1720
135.7606,106.1720
135.7594,106.1634
136.2351,106.1634
136.2555,106.3059
136.3099,106.4249
136.3153,106.4368
136.4096,106.5456
136.4096,106.5456
136.4907,106.5977
136.5307,106.6234
136.6371,106.6546
136.6687,106.6639
136.6687,106.6639
136.6687,106.6639
136.6688,106.6639
136.8127,106.6639
136.8127,106.6639
136.9508,106.6234
137.0718,106.5456
137.1661,106.4368
137.2259,106.3059
137.2327,106.2584
137.2464,106.1634
137.2464,106.1634
137.2259,106.0210
137.2067,105.9790
137.1661,105.8901
137.0718,105.7813
137.0718,105.7813
137.0718,105.7813
136.9508,105.7035
136.9508,105.7035
136.9508,105.7035
136.9508,105.7035
136.8127,105.6629
136.8127,105.6629
136.6687,105.6629
136.6687,105.6629
136.5307,105.7035
136.5307,105.7035
136.4096,105.7813
136.3153,105.8901
136.2555,106.0210
136.2351,106.1634
136.2351,106.1634
135.7594,106.1634
135.7402,106.0295
135.7344,106.0170
135.6804,105.8986
135.5861,105.7899
135.5861,105.7899
135.5861,105.7899
135.4651,105.7120
135.4651,105.7120
135.4651,105.7120
135.4650,105.7120
135.3270,105.6715
135.3270,105.6715
135.1830,105.6715
135.1830,105.6715
135.0449,105.7120
135.0449,105.7120
134.9239,105.7899
134.8296,105.8986
134.7698,106.0295
134.7494,106.1720
134.7494,106.1720
134.7648,106.2792
134.7543,106.3395
134.7105,106.3822
134.6499,106.3909
134.5958,106.3623
134.5767,106.3344
134.5721,106.3244
134.5721,106.3244
134.4779,106.2156
134.4779,106.2156
134.4779,106.2156
134.3568,106.1378
134.3568,106.1378
134.3568,106.1378
134.3568,106.1378
134.2187,106.0972
134.2187,106.0972
134.0748,106.0972
134.0748,106.0972
133.9367,106.1378
133.9367,106.1378
133.8156,106.2156
133.7214,106.3244
133.6616,106.4553
133.6411,106.5977
133.6411,106.5977
125.4230,106.5977
125.4348,106.5758
125.4348,106.5758
125.4802,106.4260
124.8907,106.4260
124.9259,106.3650
124.9600,106.2378
124.9600,106.1062
124.9259,105.9790
124.8907,105.9180
125.4802,105.9180
125.4348,105.7682
125.4348,105.7682
125.3373,105.5858
125.3373,105.5858
125.3025,105.5435
125.2935,105.5205
130.3439,105.5205
130.3643,105.6630
130.4184,105.7813
130.4241,105.7939
130.5149,105.8986
130.5184,105.9026
130.6372,105.9790
130.6394,105.9805
130.7459,106.0117
130.7775,106.0210
130.7775,106.0210
130.7775,106.0210
130.7775,106.0210
130.9215,106.0210
130.9215,106.0210
131.0596,105.9805
131.1806,105.9026
131.2749,105.7939
131.3347,105.6630
131.3481,105.5695
132.9911,105.5695
133.0116,105.7120
133.0432,105.7813
133.0714,105.8429
133.1407,105.9228
133.1656,105.9516
133.2867,106.0294
133.2867,106.0295
133.3931,106.0607
133.4248,106.0700
133.4248,106.0700
133.4248,106.0700
133.4248,106.0700
133.5687,106.0700
133.5687,106.0700
133.7068,106.0295
133.8279,105.9516
133.9221,105.8429
133.9819,105.7120
134.0000,105.5858
134.0024,105.5695
134.0024,105.5695
133.9819,105.4270
133.9522,105.3620
133.9221,105.2961
133.8279,105.1874
133.8279,105.1874
133.8279,105.1874
133.7068,105.1095
133.7068,105.1095
133.7068,105.1095
133.6901,105.1047
133.5687,105.0690
133.5687,105.0690
133.4248,105.0690
133.4248,105.0690
133.2867,105.1095
133.2867,105.1095
133.1656,105.1874
133.0714,105.2961
133.0116,105.4270
132.9911,105.5695
132.9911,105.5695
131.3481,105.5695
131.3481,105.5695
131.3551,105.5205
131.3551,105.5205
131.3347,105.3780
131.2973,105.2961
131.2749,105.2471
131.1806,105.1384
131.1806,105.1384
131.1806,105.1384
131.0596,105.0605
131.0596,105.0605
131.0596,105.0605
131.0596,105.0605
130.9215,105.0200
130.9215,105.0200
130.7775,105.0200
130.7775,105.0200
130.6394,105.0605
130.6394,105.0605
130.5184,105.1384
130.4241,105.2471
130.3643,105.3780
130.3439,105.5205
130.3439,105.5205
125.2935,105.5205
125.2802,105.4865
125.2957,105.4273
125.3430,105.3885
125.3512,105.3857
125.4321,105.3620
125.5531,105.2841
125.6474,105.1754
125.7072,105.0445
125.7215,104.9447
125.7276,104.9020
125.7276,104.9020
125.7072,104.7595
125.6790,104.6978
125.6474,104.6286
125.5531,104.5199
125.5531,104.5199
125.5531,104.5199
125.4321,104.4420
125.4321,104.4420
125.4321,104.4420
125.4047,104.4340
125.3542,104.3995
125.3337,104.3419
125.3509,104.2832
125.3615,104.2702
125.4956,104.1316
125.4996,104.1273
125.5001,104.1268
125.5037,104.1227
125.6542,103.9490
125.6749,103.9309
125.8157,103.8390
125.8546,103.8241
125.8909,103.8184
126.1551,103.7771
126.1551,103.7771
126.1551,103.7771
126.1589,103.7762
126.1590,103.7768
126.1833,103.7730
126.5386,103.7730
126.5967,103.7919
126.6327,103.8414
126.6365,103.8861
126.6169,104.0225
126.6169,104.0225
126.6374,104.1650
126.6929,104.2864
126.6972,104.2959
126.7832,104.3951
126.7915,104.4046
126.9061,104.4783
126.9125,104.4825
127.0053,104.5097
127.0506,104.5230
127.0506,104.5230
127.0506,104.5230
127.0506,104.5230
127.1945,104.5230
127.1945,104.5230
127.3326,104.4825
127.4537,104.4046
127.5480,104.2959
127.6077,104.1650
127.6282,104.0225
127.6270,104.0141
127.6269,104.0130
129.0344,104.0130
129.0548,104.1555
129.0836,104.2184
129.1146,104.2864
129.2046,104.3902
129.2089,104.3951
129.2819,104.4420
129.3299,104.4730
129.4364,104.5042
129.4680,104.5135
129.4680,104.5135
129.4680,104.5135
129.4680,104.5135
129.6120,104.5135
129.6120,104.5135
129.7501,104.4730
129.8711,104.3951
129.9654,104.2864
130.0252,104.1555
130.0456,104.0130
130.0343,103.9340
130.0252,103.8705
130.0119,103.8414
129.9654,103.7396
129.8711,103.6309
129.8711,103.6309
129.8711,103.6309
129.7501,103.5530
129.7501,103.5530
129.7501,103.5530
129.7500,103.5530
129.6120,103.5125
129.6120,103.5125
129.4680,103.5125
129.4680,103.5125
129.3299,103.5530
129.3299,103.5530
129.2089,103.6309
129.1146,103.7396
129.0548,103.8705
129.0344,104.0130
129.0344,104.0130
127.6269,104.0130
127.6078,103.8800
127.6077,103.8800
127.6077,103.8800
127.6073,103.8792
127.6073,103.8784
127.6058,103.8733
127.6066,103.8730
127.6004,103.8184
127.6305,103.7651
127.6595,103.7466
127.6970,103.7311
127.7745,103.6536
127.7745,103.6536
128.1652,103.2628
128.1877,103.2460
128.1913,103.2440
128.2518,103.1934
128.2729,103.1798
128.2823,103.1754
128.2893,103.1721
128.3104,103.1649
128.3552,103.1550
128.3574,103.1546
128.4498,103.1366
128.4625,103.1337
128.4640,103.1333
128.4764,103.1297
128.5222,103.1145
128.5897,103.0922
128.5897,103.0922
128.5897,103.0922
128.5966,103.0898
128.5974,103.0895
128.5974,103.0895
128.6022,103.0872
128.6024,103.0877
128.6205,103.0795
128.6325,103.0760
128.7535,102.9981
128.8478,102.8894
128.9076,102.7585
128.9209,102.6658
128.9239,102.6450
131.9769,102.6450
131.9973,102.7874
132.0355,102.8709
132.0571,102.9183
132.0935,102.9603
132.1514,103.0271
132.2483,103.0894
132.2870,103.1367
132.2905,103.1978
132.2615,103.2445
132.2615,103.2445
132.2613,103.2447
132.2596,103.2475
132.2569,103.2499
132.1626,103.3586
132.1028,103.4895
132.0824,103.6320
132.0824,103.6320
132.1028,103.7745
132.1377,103.8508
132.1626,103.9054
132.2017,103.9504
132.2569,104.0141
132.3779,104.0919
132.3779,104.0920
132.4756,104.1206
132.5160,104.1325
132.5160,104.1325
132.5160,104.1325
132.5160,104.1325
132.6600,104.1325
132.6600,104.1325
132.7981,104.0920
132.9191,104.0141
133.0134,103.9054
133.0732,103.7745
133.0803,103.7246
133.0936,103.6320
133.0936,103.6320
133.0732,103.4895
133.0710,103.4849
133.0134,103.3586
132.9191,103.2499
132.9191,103.2499
132.9191,103.2499
132.8222,103.1876
132.7835,103.1402
132.7800,103.0791
132.8090,103.0325
132.8090,103.0324
132.8092,103.0323
132.8109,103.0295
132.8136,103.0271
132.8136,103.0271
132.9079,102.9183
132.9677,102.7874
132.9746,102.7390
132.9882,102.6450
132.9882,102.6450
132.9677,102.5025
132.9576,102.4803
132.9079,102.3716
132.8137,102.2629
132.7899,102.2065
132.8037,102.1469
132.8500,102.1068
132.8589,102.1037
132.8595,102.1034
132.8596,102.1034
132.9806,102.0255
133.0749,101.9168
133.1347,101.7859
133.1551,101.6434
133.1489,101.6001
133.1347,101.5009
133.1259,101.4817
133.0749,101.3700
132.9806,101.2613
132.9806,101.2613
132.9806,101.2613
132.8596,101.1835
132.8595,101.1834
132.8497,101.1806
132.7992,101.1460
132.7787,101.0884
132.7959,101.0297
132.8241,101.0023
132.8547,100.9826
132.9489,100.8739
133.0087,100.7430
133.0169,100.6863
133.0292,100.6005
133.0292,100.6005
133.0087,100.4580
132.9574,100.3456
132.9489,100.3271
132.8547,100.2184
132.8547,100.2184
132.8547,100.2184
132.7336,100.1405
132.7336,100.1405
132.7336,100.1405
132.7336,100.1405
132.5955,100.1000
132.5955,100.1000
132.4516,100.1000
132.4516,100.1000
132.3135,100.1405
132.3135,100.1405
132.1924,100.2184
132.0982,100.3271
132.0384,100.4580
132.0179,100.6005
132.0179,100.6005
132.0384,100.7430
132.0846,100.8441
132.0982,100.8739
132.1088,100.8861
132.1924,100.9826
132.3135,101.0604
132.3135,101.0605
132.3233,101.0633
132.3738,101.0979
132.3944,101.1555
132.3772,101.2142
132.3490,101.2416
132.3184,101.2613
132.2241,101.3700
132.1643,101.5009
132.1439,101.6434
132.1439,101.6434
132.1643,101.7859
132.1890,101.8398
132.2241,101.9168
132.2808,101.9822
132.3183,102.0255
132.3421,102.0819
132.3283,102.1414
132.2820,102.1815
132.2731,102.1847
132.2725,102.1850
132.1514,102.2628
132.0571,102.3716
131.9973,102.5025
131.9769,102.6450
131.9769,102.6450
128.9239,102.6450
128.9280,102.6160
128.9280,102.6160
128.9076,102.4735
128.8610,102.3716
128.8478,102.3426
128.7535,102.2339
128.7535,102.2339
128.7535,102.2339
128.6325,102.1560
128.6325,102.1560
128.6325,102.1560
128.6325,102.1560
128.4944,102.1155
128.4944,102.1155
128.3504,102.1155
128.3504,102.1155
128.2123,102.1560
128.2123,102.1560
128.0913,102.2339
127.9970,102.3426
127.9605,102.4226
127.9566,102.4303
127.9462,102.4487
127.9415,102.4627
127.9376,102.4728
127.9372,102.4735
127.9372,102.4735
127.9352,102.4803
127.9352,102.4803
127.9339,102.4857
127.9087,102.5620
127.9051,102.5745
127.9047,102.5759
127.9018,102.5886
127.8925,102.6365
127.8628,102.6900
127.8073,102.7159
127.7473,102.7042
127.7056,102.6594
127.7003,102.6455
127.6989,102.6408
127.6391,102.5099
127.6391,102.5099
127.5449,102.4011
127.5449,102.4011
127.5449,102.4011
127.4238,102.3233
127.4238,102.3233
127.4238,102.3233
127.4238,102.3233
127.2857,102.2827
127.2857,102.2827
127.1418,102.2827
127.1418,102.2827
127.0037,102.3233
127.0037,102.3233
126.8826,102.4011
126.7884,102.5099
126.7286,102.6408
126.7081,102.7832
126.7081,102.7833
126.7286,102.9257
126.7884,103.0566
126.7897,103.0582
126.7904,103.0597
126.7922,103.0626
126.7917,103.0629
126.8135,103.1145
126.7997,103.1741
126.7534,103.2142
126.7149,103.2220
126.1731,103.2220
126.1450,103.2179
126.1415,103.2169
126.1123,103.2142
125.8357,103.1886
125.8104,103.1829
125.6417,103.1202
125.6214,103.1099
125.4572,103.0009
125.4557,102.9999
125.2326,102.8457
125.2210,102.8382
125.2210,102.8382
125.2196,102.8374
125.2196,102.8374
125.2075,102.8307
124.8897,102.6692
124.8826,102.6658
124.8770,102.6632
124.8770,102.6631
124.8702,102.6601
124.8640,102.6568
124.8640,102.6568
124.8640,102.6568
124.7796,102.6312
124.6808,102.6012
124.6306,102.5662
124.6105,102.5084
124.6105,102.5065
124.6105,102.4887
125.5119,102.4887
125.5323,102.6312
125.5497,102.6692
125.5921,102.7621
125.6864,102.8709
125.6864,102.8709
125.7717,102.9257
125.8074,102.9487
125.8807,102.9702
125.9455,102.9892
125.9455,102.9892
125.9455,102.9892
125.9455,102.9892
126.0895,102.9892
126.0895,102.9892
126.2276,102.9487
126.3486,102.8709
126.4429,102.7621
126.5027,102.6312
126.5108,102.5745
126.5231,102.4887
126.5231,102.4887
126.5027,102.3463
126.5010,102.3426
126.4429,102.2153
126.3486,102.1066
126.3486,102.1066
126.3486,102.1066
126.2276,102.0288
126.2276,102.0288
126.2276,102.0288
126.2275,102.0288
126.0895,101.9882
126.0895,101.9882
125.9455,101.9882
125.9455,101.9882
125.8074,102.0288
125.8074,102.0288
125.6864,102.1066
125.5921,102.2153
125.5323,102.3463
125.5119,102.4887
125.5119,102.4887
124.6105,102.4887
124.6105,102.2175
124.6294,102.1593
124.6789,102.1234
124.6807,102.1228
124.8640,102.0672
125.0464,101.9697
125.2064,101.8384
125.3377,101.6784
125.4352,101.4960
125.4953,101.2979
125.4953,101.2979
125.5156,101.0920
125.5156,101.0920
125.4953,100.8861
125.4953,100.8861
125.4771,100.8260
125.4352,100.6880
125.3377,100.5055
125.3073,100.4686
125.2673,100.4198
125.2450,100.3628
125.2605,100.3036
125.2903,100.2737
125.3986,100.2041
125.4929,100.0954
125.5527,99.9645
125.5731,99.8220
125.5639,99.7575
125.5527,99.6795
125.5276,99.6247
125.4929,99.5486
125.3986,99.4399
125.3986,99.4399
125.3986,99.4399
125.2903,99.3703
125.2516,99.3229
125.2481,99.2618
125.2673,99.2242
125.3377,99.1384
125.4352,98.9560
125.4422,98.9330
127.3834,98.9330
127.4038,99.0755
127.4548,99.1870
127.4636,99.2064
127.5579,99.3151
127.5579,99.3151
127.6789,99.3929
127.6789,99.3930
127.7854,99.4242
127.8170,99.4335
127.8170,99.4335
127.8170,99.4335
127.8170,99.4335
127.9610,99.4335
127.9610,99.4335
128.0991,99.3930
128.2201,99.3151
128.3144,99.2064
128.3742,99.0755
128.3946,98.9330
128.3846,98.8632
128.3742,98.7905
128.3593,98.7579
128.3232,98.6790
132.4664,98.6790
132.4868,98.8215
132.5378,98.9330
132.5466,98.9524
132.6265,99.0445
132.6409,99.0611
132.6631,99.0755
132.7619,99.1390
132.8684,99.1702
132.9000,99.1795
132.9000,99.1795
132.9000,99.1795
132.9000,99.1795
133.0440,99.1795
133.0440,99.1795
133.1821,99.1390
133.3031,99.0611
133.3974,98.9524
133.4572,98.8215
133.4757,98.6924
133.4776,98.6790
133.4776,98.6790
133.4572,98.5365
133.3974,98.4056
133.3031,98.2969
133.3031,98.2969
133.3031,98.2969
133.1821,98.2190
133.1821,98.2190
133.1821,98.2190
133.1821,98.2190
133.0440,98.1785
133.0440,98.1785
132.9000,98.1785
132.9000,98.1785
132.7619,98.2190
132.7619,98.2190
132.6409,98.2969
132.5466,98.4056
132.4868,98.5365
132.4664,98.6790
132.4664,98.6790
128.3232,98.6790
128.3144,98.6596
128.2201,98.5509
128.2201,98.5509
128.2201,98.5509
128.0991,98.4730
128.0991,98.4730
128.0991,98.4730
128.0991,98.4730
127.9610,98.4325
127.9610,98.4325
127.8170,98.4325
127.8170,98.4325
127.6789,98.4730
127.6789,98.4730
127.5579,98.5509
127.4636,98.6596
127.4038,98.7905
127.3834,98.9330
127.3834,98.9330
125.4422,98.9330
125.4953,98.7579
125.4953,98.7579
125.5156,98.5520
125.5156,98.5520
125.4953,98.3461
125.4953,98.3461
125.4568,98.2190
125.4352,98.1480
125.3377,97.9655
125.3137,97.9364
125.2064,97.8056
125.2064,97.8056
125.1874,97.7900
125.0465,97.6743
125.0253,97.6630
126.8754,97.6630
126.8958,97.8055
126.9296,97.8795
126.9556,97.9364
126.9955,97.9824
127.0499,98.0451
127.1709,98.1229
127.1709,98.1230
127.2564,98.1480
127.3090,98.1635
127.3090,98.1635
127.3090,98.1635
127.3090,98.1635
127.4530,98.1635
127.4530,98.1635
127.5911,98.1230
127.7121,98.0451
127.8064,97.9364
127.8662,97.8055
127.8866,97.6630
127.8844,97.6477
127.8662,97.5205
127.8389,97.4609
127.8064,97.3896
127.7121,97.2809
127.7121,97.2809
127.7121,97.2809
127.5911,97.2030
127.5911,97.2030
127.5911,97.2030
127.5673,97.1961
127.4530,97.1625
127.4530,97.1625
127.3090,97.1625
127.3090,97.1625
127.1709,97.2030
127.1709,97.2030
127.0499,97.2809
126.9556,97.3896
126.8958,97.5205
126.8754,97.6630
126.8754,97.6630
125.0253,97.6630
124.8640,97.5768
124.6808,97.5212
124.6306,97.4862
124.6105,97.4284
124.6105,97.4265
124.6105,97.1375
124.6294,97.0793
124.6789,97.0434
124.6807,97.0428
124.8640,96.9872
124.8833,96.9769
124.8913,96.9731
124.8952,96.9714
124.8953,96.9714
124.9682,96.9315
124.9686,96.9313
125.0464,96.8897
125.0465,96.8897
125.0505,96.8870
125.0508,96.8875
125.0580,96.8824
125.2260,96.7906
125.2434,96.7800
125.2453,96.7787
125.2615,96.7664
125.4872,96.5768
125.4873,96.5768
125.4883,96.5759
125.4900,96.5744
125.6530,96.4325
125.6741,96.4185
125.8332,96.3397
125.8651,96.3301
126.1747,96.2922
126.1762,96.2918
126.1769,96.2916
126.2050,96.2875
126.7770,96.2875
126.7943,96.2890
126.7959,96.2893
126.8123,96.2922
126.9233,96.2899
126.9281,96.2897
126.9287,96.2897
126.9340,96.2894
126.9546,96.2879
126.9570,96.2877
126.9640,96.2875
127.0974,96.2875
127.0974,96.2875
127.1167,96.2795
127.1476,96.2722
127.1763,96.2702
127.1812,96.2700
127.2854,96.2678
127.2936,96.2660
129.0344,96.2660
129.0548,96.4085
129.0856,96.4759
129.1146,96.5394
129.2089,96.6481
129.2089,96.6481
129.3299,96.7259
129.3299,96.7260
129.4276,96.7546
129.4680,96.7665
129.4680,96.7665
129.4680,96.7665
129.4680,96.7665
129.6120,96.7665
129.6120,96.7665
129.7501,96.7260
129.8711,96.6481
129.9654,96.5394
130.0252,96.4085
130.0419,96.2922
130.0456,96.2660
130.0456,96.2660
130.0365,96.2025
137.0989,96.2025
137.1193,96.3450
137.1791,96.4759
137.2755,96.5871
137.2993,96.6434
137.2854,96.7030
137.2755,96.7167
137.2426,96.7546
137.1828,96.8855
137.1624,97.0280
137.1624,97.0280
137.1828,97.1705
137.2372,97.2895
137.2426,97.3014
137.3349,97.4079
137.3369,97.4101
137.4159,97.4609
137.4579,97.4880
137.5644,97.5192
137.5960,97.5285
137.5960,97.5285
137.5960,97.5285
137.5960,97.5285
137.7400,97.5285
137.7400,97.5285
137.8781,97.4880
137.9991,97.4101
138.0934,97.3014
138.1532,97.1705
138.1532,97.1705
138.1551,97.1637
138.1897,97.1132
138.2473,97.0927
138.3060,97.1099
138.3434,97.1583
138.3451,97.1653
138.3453,97.1652
138.3473,97.1720
138.4064,97.3014
138.4071,97.3029
138.4498,97.3522
138.5014,97.4117
138.6201,97.4880
138.6224,97.4895
138.7285,97.5206
138.7605,97.5300
138.7605,97.5300
138.7605,97.5300
138.7605,97.5300
138.9045,97.5300
138.9045,97.5300
139.0425,97.4895
139.1636,97.4117
139.2579,97.3029
139.2874,97.2382
139.3288,97.1931
139.3887,97.1810
139.4310,97.1961
139.4899,97.2339
139.4899,97.2340
139.5964,97.2652
139.6280,97.2745
139.6280,97.2745
139.6280,97.2745
139.6280,97.2745
139.7720,97.2745
139.7720,97.2745
139.9101,97.2340
139.9486,97.2092
140.0078,97.1936
140.0648,97.2158
140.0922,97.2513
140.1057,97.2809
140.1382,97.3522
140.1898,97.4117
140.2325,97.4609
140.3262,97.5212
140.3535,97.5388
140.4600,97.5700
140.4916,97.5793
140.4916,97.5793
140.4916,97.5793
140.4916,97.5793
140.5074,97.5793
140.5656,97.5982
140.6016,97.6477
140.6054,97.6924
140.5914,97.7900
140.5914,97.7900
140.6042,97.8795
140.5938,97.9397
140.5499,97.9824
140.5341,97.9885
140.4323,98.0184
140.4323,98.0184
140.3113,98.0962
140.2170,98.2050
140.1572,98.3359
140.1367,98.4784
140.1367,98.4784
140.1572,98.6208
140.1872,98.6865
140.2170,98.7518
140.2774,98.8215
140.3113,98.8605
140.4240,98.9330
140.4323,98.9383
140.5388,98.9696
140.5704,98.9789
140.5704,98.9789
140.5704,98.9789
140.5704,98.9789
140.7143,98.9789
140.7143,98.9789
140.7346,98.9729
140.7957,98.9747
140.8442,99.0120
140.8614,99.0708
140.8604,99.0820
140.8454,99.1870
140.8454,99.1870
140.8658,99.3295
140.9256,99.4604
140.9256,99.4604
141.0021,99.5486
141.0199,99.5691
141.0538,99.5909
141.0925,99.6383
141.0960,99.6994
141.0629,99.7509
141.0538,99.7575
140.9674,99.8131
140.8731,99.9218
140.8133,100.0527
140.7929,100.1952
140.7929,100.1952
140.8133,100.3377
140.8170,100.3456
140.8731,100.4686
140.9674,100.5773
140.9674,100.5773
141.0034,100.6005
141.0884,100.6552
141.1944,100.6863
141.2265,100.6957
141.2265,100.6957
141.2265,100.6957
141.2265,100.6957
141.3049,100.6957
141.3630,100.7146
141.3990,100.7641
141.4028,100.7806
141.4120,100.8441
141.4015,100.9044
141.3577,100.9470
141.3140,100.9572
141.2790,100.9572
141.1409,100.9977
141.1409,100.9978
141.0199,101.0756
140.9256,101.1843
140.8658,101.3152
140.8454,101.4577
140.8454,101.4577
140.8658,101.6002
140.9155,101.7088
140.9256,101.7311
141.0186,101.8384
141.0199,101.8398
141.1118,101.8989
141.1505,101.9463
141.1540,102.0074
141.1209,102.0588
141.1118,102.0655
141.0199,102.1246
140.9256,102.2333
140.8658,102.3642
140.8454,102.5067
140.8454,102.5067
140.8658,102.6492
140.9242,102.7769
140.9256,102.7801
141.0144,102.8825
141.0199,102.8889
141.1381,102.9648
141.1768,103.0122
141.1803,103.0733
141.1473,103.1248
141.1125,103.1431
141.0139,103.1720
141.0139,103.1720
140.8929,103.2499
140.7986,103.3586
140.7388,103.4895
140.7184,103.6320
140.7184,103.6320
140.7388,103.7745
140.7737,103.8508
140.7986,103.9054
140.8377,103.9504
140.8929,104.0141
141.0139,104.0919
141.0139,104.0920
141.0592,104.1052
141.0620,104.1060
141.1125,104.1406
141.1330,104.1982
141.1241,104.2422
141.1198,104.2515
141.1198,104.2515
141.0994,104.3940
141.0994,104.3940
141.1028,104.4180
141.0924,104.4783
141.0485,104.5210
141.0327,104.5271
140.8899,104.5690
140.8899,104.5690
140.7689,104.6469
140.6746,104.7556
140.6148,104.8865
140.5944,105.0290
140.5944,105.0290
140.6148,105.1715
140.6718,105.2961
140.6746,105.3024
140.7614,105.4025
140.7689,105.4111
140.8899,105.4889
140.8899,105.4890
140.9964,105.5202
141.0280,105.5295
141.0280,105.5295
141.0280,105.5295
141.0280,105.5295
141.1720,105.5295
141.1720,105.5295
141.3101,105.4890
141.4311,105.4111
141.5254,105.3024
141.5852,105.1715
141.6011,105.0605
141.6056,105.0290
141.6056,105.0290
141.6022,105.0050
141.6126,104.9447
141.6565,104.9020
141.6723,104.8959
141.6770,104.8945
141.6770,104.8945
141.8151,104.8540
141.9361,104.7761
142.0304,104.6674
142.0902,104.5365
142.1105,104.3951
142.1106,104.3940
142.1106,104.3940
142.0902,104.2515
142.0506,104.1650
142.0304,104.1206
141.9371,104.0130
141.9317,104.0068
141.9079,103.9504
141.9218,103.8908
141.9680,103.8508
142.0065,103.8429
142.1096,103.8429
142.1096,103.8429
142.2477,103.8024
142.3688,103.7246
142.4630,103.6158
142.5228,103.4849
142.5433,103.3424
142.5300,103.2499
142.5228,103.2000
142.5218,103.1978
142.4630,103.0691
142.3688,102.9603
142.3688,102.9603
142.3688,102.9603
142.2477,102.8825
142.2477,102.8825
142.2477,102.8825
142.2477,102.8825
142.1096,102.8419
142.1096,102.8419
141.9657,102.8419
141.9657,102.8419
141.9657,102.8419
141.9224,102.8547
141.8613,102.8529
141.8128,102.8155
141.7956,102.7568
141.8045,102.7185
141.8362,102.6492
141.8362,102.6492
141.8362,102.6492
141.8512,102.5448
141.8782,102.4899
141.9323,102.4614
141.9770,102.4639
142.0410,102.4827
142.0410,102.4827
142.1850,102.4827
142.1850,102.4827
142.3231,102.4422
142.4441,102.3643
142.5384,102.2556
142.5982,102.1247
142.6120,102.0288
142.6186,101.9822
142.6186,101.9822
142.5982,101.8397
142.5736,101.7859
142.5384,101.7088
142.4441,101.6001
142.4441,101.6001
142.4441,101.6001
142.3231,101.5223
142.3231,101.5223
142.3231,101.5223
142.3230,101.5222
142.1850,101.4817
142.1850,101.4817
142.0410,101.4817
142.0410,101.4817
141.9770,101.5005
141.9159,101.4987
141.8674,101.4614
141.8512,101.4196
141.8406,101.3461
141.8510,101.2858
141.8949,101.2431
141.9386,101.2330
141.9735,101.2330
141.9735,101.2330
142.1116,101.1924
142.2327,101.1146
142.3269,101.0058
142.3867,100.8749
142.4057,100.7430
142.4072,100.7325
142.4072,100.7325
142.3867,100.5900
142.3809,100.5773
142.3269,100.4591
142.2327,100.3503
142.2327,100.3503
142.2327,100.3503
142.1116,100.2725
142.1116,100.2725
142.1116,100.2725
142.1116,100.2725
141.9735,100.2320
141.9735,100.2320
141.8952,100.2320
141.8370,100.2131
141.8011,100.1636
141.7972,100.1471
141.7837,100.0527
141.7830,100.0512
141.7239,99.9218
141.6296,99.8131
141.5957,99.7913
141.5570,99.7439
141.5535,99.6828
141.5866,99.6313
141.5957,99.6247
141.6821,99.5691
141.7764,99.4604
141.8362,99.3295
141.8566,99.1870
141.8566,99.1870
141.8362,99.0445
141.8043,98.9747
141.7764,98.9136
141.6821,98.8049
141.6821,98.8049
141.6821,98.8049
141.5611,98.7270
141.5611,98.7270
141.5611,98.7270
141.5610,98.7270
141.4230,98.6865
141.4230,98.6865
141.2790,98.6865
141.2790,98.6865
141.2790,98.6865
141.2588,98.6924
141.1977,98.6907
141.1492,98.6533
141.1320,98.5946
141.1329,98.5834
141.1480,98.4784
141.1480,98.4784
141.1352,98.3889
141.1456,98.3286
141.1895,98.2860
141.2053,98.2798
141.3071,98.2500
141.4281,98.1721
141.5224,98.0634
141.5822,97.9325
141.6004,97.8055
141.6026,97.7900
141.6026,97.7900
141.5822,97.6475
141.5510,97.5793
141.5224,97.5166
141.4281,97.4079
141.4281,97.4079
141.4281,97.4079
141.3071,97.3300
141.3071,97.3300
141.3071,97.3300
141.3071,97.3300
141.1690,97.2895
141.1690,97.2895
141.1532,97.2895
141.0950,97.2706
141.0590,97.2211
141.0552,97.1764
141.0692,97.0788
141.0692,97.0788
141.0488,96.9363
141.0263,96.8871
140.9890,96.8054
140.8947,96.6967
140.8947,96.6967
140.8947,96.6967
140.8175,96.6470
141.3534,96.6470
141.3738,96.7895
141.4239,96.8992
141.4336,96.9204
141.5269,97.0280
141.5279,97.0291
141.6051,97.0788
141.6489,97.1070
141.7531,97.1375
141.7870,97.1475
141.7870,97.1475
141.7870,97.1475
141.7870,97.1475
141.9310,97.1475
141.9310,97.1475
142.0691,97.1070
142.1901,97.0291
142.2844,96.9204
142.3442,96.7895
142.3566,96.7030
142.3646,96.6470
142.3646,96.6470
142.3442,96.5045
142.3037,96.4160
142.2844,96.3736
142.1901,96.2649
142.1901,96.2649
142.1901,96.2649
142.0691,96.1870
142.0691,96.1870
142.0691,96.1870
142.0691,96.1870
141.9310,96.1465
141.9310,96.1465
141.7870,96.1465
141.7870,96.1465
141.6489,96.1870
141.6489,96.1870
141.5279,96.2649
141.4336,96.3736
141.3738,96.5045
141.3534,96.6470
141.3534,96.6470
140.8175,96.6470
140.7737,96.6188
140.7737,96.6188
140.7737,96.6188
140.7737,96.6188
140.6356,96.5783
140.6356,96.5783
140.4916,96.5783
140.4916,96.5783
140.3535,96.6188
140.3535,96.6188
140.3150,96.6436
140.2558,96.6592
140.1988,96.6370
140.1714,96.6015
140.1254,96.5006
140.0311,96.3919
140.0311,96.3919
140.0311,96.3919
139.9101,96.3140
139.9101,96.3140
139.9101,96.3140
139.9100,96.3140
139.7720,96.2735
139.7720,96.2735
139.6280,96.2735
139.6280,96.2735
139.4899,96.3140
139.4899,96.3140
139.3689,96.3919
139.2746,96.5006
139.2451,96.5653
139.2037,96.6104
139.1437,96.6225
139.1015,96.6075
139.0426,96.5696
139.0425,96.5696
139.0425,96.5696
139.0280,96.5653
138.9045,96.5290
138.9045,96.5290
138.7605,96.5290
138.7605,96.5290
138.6224,96.5696
138.6224,96.5696
138.5014,96.6474
138.4071,96.7562
138.3473,96.8871
138.3453,96.8938
138.3108,96.9443
138.2532,96.9649
138.1945,96.9476
138.1571,96.8992
138.1554,96.8923
138.1552,96.8923
138.1532,96.8855
138.1098,96.7906
138.0934,96.7546
138.0001,96.6470
137.9970,96.6434
137.9732,96.5871
137.9871,96.5275
137.9970,96.5138
138.0299,96.4759
138.0897,96.3450
138.1000,96.2733
138.1101,96.2025
138.1101,96.2025
138.0979,96.1176
138.1084,96.0573
138.1522,96.0147
138.1959,96.0045
138.2480,96.0045
138.2480,96.0045
138.3861,95.9640
138.5071,95.8861
138.6014,95.7774
138.6612,95.6465
138.6680,95.5990
138.6816,95.5040
138.6816,95.5040
138.6612,95.3615
138.6014,95.2306
138.5071,95.1219
138.5071,95.1219
138.5071,95.1219
138.3861,95.0440
138.3861,95.0440
138.3861,95.0440
138.3860,95.0440
138.2480,95.0035
138.2480,95.0035
138.1040,95.0035
138.1040,95.0035
137.9659,95.0440
137.9659,95.0440
137.8449,95.1219
137.7506,95.2306
137.6908,95.3615
137.6704,95.5040
137.6704,95.5040
137.6826,95.5889
137.6721,95.6492
137.6282,95.6918
137.5846,95.7020
137.5325,95.7020
137.3944,95.7425
137.3944,95.7425
137.2734,95.8204
137.1791,95.9291
137.1193,96.0600
137.0989,96.2025
137.0989,96.2025
130.0365,96.2025
130.0252,96.1235
129.9754,96.0147
129.9654,95.9926
129.8711,95.8839
129.8711,95.8839
129.8711,95.8839
129.7501,95.8060
129.7501,95.8060
129.7501,95.8060
129.7500,95.8060
129.6120,95.7655
129.6120,95.7655
129.4680,95.7655
129.4680,95.7655
129.3299,95.8060
129.3299,95.8060
129.2089,95.8839
129.1146,95.9926
129.0548,96.1235
129.0344,96.2660
129.0344,96.2660
127.2936,96.2660
127.2994,96.2648
127.3201,96.2626
127.3645,96.2626
127.3645,96.2626
127.5026,96.2220
127.6236,96.1442
127.7179,96.0354
127.7777,95.9045
127.7898,95.8204
127.7981,95.7621
127.7981,95.7621
127.7777,95.6196
127.7724,95.6080
127.7179,95.4887
127.6236,95.3799
127.6236,95.3799
127.6236,95.3799
127.5163,95.3109
127.4775,95.2636
127.4740,95.2025
127.4797,95.1865
127.5017,95.1385
127.5017,95.1385
127.5017,95.1385
127.5221,94.9960
127.5221,94.9960
127.5017,94.8535
127.4419,94.7226
127.4419,94.7226
127.3476,94.6139
127.3476,94.6139
127.3476,94.6139
127.2266,94.5360
127.2266,94.5360
127.2266,94.5360
127.2265,94.5360
127.0885,94.4955
127.0885,94.4955
126.9445,94.4955
126.9445,94.4955
126.8064,94.5360
126.8064,94.5360
126.6854,94.6139
126.5911,94.7226
126.5313,94.8535
126.5109,94.9960
126.5109,94.9960
126.5313,95.1385
126.5858,95.2576
126.5911,95.2694
126.6271,95.3109
126.6854,95.3781
126.7866,95.4432
126.8253,95.4905
126.8288,95.5516
126.8237,95.5662
126.8231,95.5676
126.8120,95.5957
126.8120,95.5957
126.7897,95.6670
126.7543,95.7169
126.6963,95.7365
126.6952,95.7365
126.2049,95.7365
126.1795,95.7324
126.1794,95.7328
126.1747,95.7318
125.8651,95.6939
125.8332,95.6843
125.7567,95.6465
125.6741,95.6055
125.6530,95.5915
125.4901,95.4496
125.4874,95.4473
125.4873,95.4473
125.2615,95.2576
125.2453,95.2454
125.2453,95.2453
125.2453,95.2453
125.2434,95.2441
125.2260,95.2334
125.0580,95.1416
125.0507,95.1368
125.0505,95.1370
125.0465,95.1343
124.9689,95.0929
124.9681,95.0924
124.8953,95.0526
124.8855,95.0476
124.8844,95.0471
124.8844,95.0471
124.8794,95.0447
124.8794,95.0446
124.8743,95.0423
124.8640,95.0368
124.8640,95.0368
124.8640,95.0368
124.8080,95.0198
124.6808,94.9812
124.6306,94.9462
124.6105,94.8884
124.6105,94.8865
124.6105,94.5975
124.6294,94.5393
124.6789,94.5034
124.6807,94.5028
124.8640,94.4472
125.0464,94.3497
125.2064,94.2184
125.3377,94.0584
125.4352,93.8760
125.4953,93.6779
125.4953,93.6779
125.5156,93.4720
125.5156,93.4720
125.4953,93.2661
125.4953,93.2661
125.4713,93.1869
125.4352,93.0680
125.3377,92.8855
125.3025,92.8427
125.2064,92.7256
125.2064,92.7256
125.1966,92.7175
125.0465,92.5943
124.8640,92.4968
124.6808,92.4412
124.6306,92.4062
124.6105,92.3484
124.6105,92.3465
124.6105,91.4400
125.2244,91.4400
125.2448,91.5825
125.2483,91.5900
125.3046,91.7134
125.3644,91.7824
125.3989,91.8221
125.5199,91.8999
125.5199,91.9000
125.6264,91.9312
125.6580,91.9405
125.6580,91.9405
125.6580,91.9405
125.6580,91.9405
125.8020,91.9405
125.8020,91.9405
125.8671,91.9214
125.9283,91.9231
125.9768,91.9605
125.9940,92.0192
125.9774,92.0714
125.9067,92.1770
125.8502,92.3135
125.8214,92.4583
125.8214,92.6061
125.8502,92.7509
125.9067,92.8874
125.9888,93.0102
125.9888,93.0102
126.0932,93.1146
126.2160,93.1967
126.3525,93.2532
126.4974,93.2820
126.4974,93.2820
126.6450,93.2820
126.6450,93.2820
126.7899,93.2532
126.9264,93.1967
127.0492,93.1146
127.1536,93.0102
127.1845,92.9640
127.8914,92.9640
127.9118,93.1065
127.9628,93.2180
127.9716,93.2374
128.0364,93.3121
128.0659,93.3461
128.1869,93.4239
128.1869,93.4240
128.2934,93.4552
128.3250,93.4645
128.3250,93.4645
128.3250,93.4645
128.3250,93.4645
128.4690,93.4645
128.4690,93.4645
128.6071,93.4240
128.7281,93.3461
128.8224,93.2374
128.8312,93.2180
129.9234,93.2180
129.9438,93.3605
129.9948,93.4720
130.0036,93.4914
130.0979,93.6001
130.0979,93.6001
130.2189,93.6779
130.2189,93.6780
130.3254,93.7092
130.3570,93.7185
130.3570,93.7185
130.3570,93.7185
130.3570,93.7185
130.5010,93.7185
130.5010,93.7185
130.6391,93.6780
130.7601,93.6001
130.8544,93.4914
130.9142,93.3605
130.9161,93.3467
130.9431,93.2918
130.9973,93.2632
131.0502,93.2700
131.0504,93.2696
131.0534,93.2705
131.0553,93.2707
131.0571,93.2715
131.0571,93.2716
131.1679,93.3041
131.1952,93.3121
131.1952,93.3121
131.1952,93.3121
131.1952,93.3121
131.3392,93.3121
131.3392,93.3121
131.4773,93.2716
131.5983,93.1937
131.6926,93.0850
131.7524,92.9541
131.7684,92.8427
131.7728,92.8116
131.7728,92.8116
131.7524,92.6691
131.6926,92.5382
131.5987,92.4298
131.5748,92.3735
131.5887,92.3139
131.6349,92.2738
131.6735,92.2660
131.7250,92.2660
131.7250,92.2660
131.8699,92.2372
132.0064,92.1807
132.1292,92.0986
132.2336,91.9942
132.3157,91.8714
132.3722,91.7349
132.4010,91.5900
132.4010,91.5670
135.6384,91.5670
135.6588,91.7095
135.7186,91.8404
135.7186,91.8404
135.7702,91.9000
135.8129,91.9491
135.9339,92.0269
135.9339,92.0270
136.0268,92.0542
136.0720,92.0675
136.0720,92.0675
136.0720,92.0675
136.0720,92.0675
136.2160,92.0675
136.2160,92.0675
136.3541,92.0270
136.4751,91.9491
136.5694,91.8404
136.6292,91.7095
136.6496,91.5670
136.6292,91.4245
136.5694,91.2936
136.4751,91.1849
136.4751,91.1849
136.4751,91.1849
136.3541,91.1070
136.3541,91.1070
136.3541,91.1070
136.3541,91.1070
136.2160,91.0665
136.2160,91.0665
136.0720,91.0665
136.0720,91.0665
135.9339,91.1070
135.9339,91.1070
135.8129,91.1849
135.7186,91.2936
135.6588,91.4245
135.6384,91.5670
135.6384,91.5670
132.4010,91.5670
132.4010,91.4424
132.3722,91.2975
132.3267,91.1876
132.3219,91.1267
132.3539,91.0745
132.3993,91.0539
132.3992,91.0535
132.4023,91.0526
132.4041,91.0518
132.4060,91.0515
132.4060,91.0515
132.5441,91.0110
132.6651,90.9331
132.7594,90.8244
132.8192,90.6935
132.8283,90.6299
132.8396,90.5510
132.8396,90.5510
132.8192,90.4085
132.7885,90.3415
132.7594,90.2776
132.6651,90.1689
132.6651,90.1689
132.6651,90.1689
132.5441,90.0910
132.5441,90.0910
132.5441,90.0910
132.5440,90.0910
132.4060,90.0505
132.4060,90.0505
132.2620,90.0505
132.2620,90.0505
132.1239,90.0910
132.1239,90.0910
132.0029,90.1689
131.9086,90.2776
131.8697,90.3630
131.8283,90.4080
131.7683,90.4202
131.7127,90.3948
131.6826,90.3415
131.6816,90.3359
131.6762,90.2980
131.6686,90.2815
131.6177,90.1700
131.6164,90.1671
131.5221,90.0584
131.5221,90.0584
131.5221,90.0584
131.4011,89.9805
131.4011,89.9805
131.4011,89.9805
131.4010,89.9805
131.2630,89.9400
131.2630,89.9400
131.1190,89.9400
131.1190,89.9400
130.9809,89.9805
130.9809,89.9805
130.8599,90.0584
130.7656,90.1671
130.7058,90.2980
130.6854,90.4405
130.6854,90.4405
130.7058,90.5830
130.7458,90.6705
130.7656,90.7139
130.8361,90.7952
130.8599,90.8226
130.9809,90.9004
130.9809,90.9005
131.0021,90.9067
131.0526,90.9412
131.0731,90.9988
131.0565,91.0566
130.9867,91.1610
130.9302,91.2975
130.9014,91.4423
130.9014,91.5901
130.9302,91.7349
130.9867,91.8714
131.0688,91.9942
131.0688,91.9942
131.1732,92.0986
131.1732,92.0986
131.2248,92.1331
131.2627,92.1811
131.2651,92.2423
131.2311,92.2931
131.1977,92.3104
131.0571,92.3516
131.0571,92.3516
130.9361,92.4295
130.8418,92.5382
130.7820,92.6691
130.7800,92.6829
130.7531,92.7378
130.6989,92.7664
130.6460,92.7596
130.6458,92.7600
130.6428,92.7591
130.6409,92.7589
130.6391,92.7580
130.5010,92.7175
130.5010,92.7175
130.3570,92.7175
130.3570,92.7175
130.2189,92.7580
130.2189,92.7580
130.0979,92.8359
130.0036,92.9446
129.9438,93.0755
129.9234,93.2180
129.9234,93.2180
128.8312,93.2180
128.8822,93.1065
128.8960,93.0102
128.9026,92.9640
128.9026,92.9640
128.8822,92.8215
128.8541,92.7600
128.8224,92.6906
128.7281,92.5819
128.7281,92.5819
128.7281,92.5819
128.6071,92.5040
128.6071,92.5040
128.6071,92.5040
128.6070,92.5040
128.4690,92.4635
128.4690,92.4635
128.3250,92.4635
128.3250,92.4635
128.1869,92.5040
128.1869,92.5040
128.0659,92.5819
127.9716,92.6906
127.9118,92.8215
127.8914,92.9640
127.8914,92.9640
127.1845,92.9640
127.2357,92.8874
127.2922,92.7509
127.3210,92.6060
127.3210,92.4584
127.2922,92.3135
127.2357,92.1770
127.1536,92.0542
127.0492,91.9498
127.0492,91.9498
126.9264,91.8677
126.7899,91.8112
126.6451,91.7824
126.6450,91.7824
126.4974,91.7824
126.4973,91.7824
126.3525,91.8112
126.3525,91.8112
126.2867,91.8384
126.2258,91.8432
126.1736,91.8113
126.1502,91.7547
126.1588,91.7059
126.2152,91.5825
126.2353,91.4424
126.2356,91.4400
126.2356,91.4400
126.2195,91.3279
126.2300,91.2677
126.2738,91.2250
126.3344,91.2163
126.3477,91.2202
126.3478,91.2198
126.3525,91.2212
126.3525,91.2212
126.4974,91.2500
126.4974,91.2500
126.6450,91.2500
126.6450,91.2500
126.7899,91.2212
126.9264,91.1647
127.0492,91.0826
127.1536,90.9782
127.2357,90.8554
127.2922,90.7189
127.3210,90.5740
127.3210,90.4264
127.2922,90.2815
127.2460,90.1700
129.1614,90.1700
129.1818,90.3125
129.2403,90.4405
129.2416,90.4434
129.3349,90.5510
129.3359,90.5521
129.4569,90.6299
129.4569,90.6300
129.5634,90.6612
129.5950,90.6705
129.5950,90.6705
129.5950,90.6705
129.5950,90.6705
129.7390,90.6705
129.7390,90.6705
129.8771,90.6300
129.9981,90.5521
130.0924,90.4434
130.1522,90.3125
130.1726,90.1700
130.1725,90.1689
130.1522,90.0275
130.1122,89.9400
130.0924,89.8966
129.9981,89.7879
129.9981,89.7879
129.9981,89.7879
129.8771,89.7100
129.8771,89.7100
129.8771,89.7100
129.8770,89.7100
129.7390,89.6695
129.7390,89.6695
129.5950,89.6695
129.5950,89.6695
129.4569,89.7100
129.4569,89.7100
129.3359,89.7879
129.2416,89.8966
129.1818,90.0275
129.1614,90.1700
129.1614,90.1700
127.2460,90.1700
127.2357,90.1450
127.1536,90.0222
127.0492,89.9178
127.0175,89.8966
126.9264,89.8357
126.7899,89.7792
126.6451,89.7504
126.6450,89.7504
126.4974,89.7504
126.4973,89.7504
126.3525,89.7792
126.2160,89.8357
126.0932,89.9178
125.9888,90.0222
125.9067,90.1450
125.8502,90.2815
125.8214,90.4263
125.8214,90.5741
125.8502,90.7189
125.8502,90.7189
125.8849,90.8026
125.8897,90.8636
125.8577,90.9158
125.8012,90.9392
125.7934,90.9395
125.6580,90.9395
125.5199,90.9800
125.5199,90.9800
125.3989,91.0579
125.3046,91.1666
125.2448,91.2975
125.2244,91.4400
125.2244,91.4400
124.6105,91.4400
124.6105,89.0225
124.6294,88.9643
124.6789,88.9283
124.7095,88.9235
144.5305,88.9235
Z" /> 
<path style="fill:#7FC87F; fill-opacity:1.0000; stroke:none;fill-rule:evenodd;"
d="M 127.0887,95.5585
127.0904,95.5599
127.1849,95.6540
127.2900,95.7586
127.2935,95.7669
127.2935,95.7670
127.2925,96.0506
127.2891,96.0589
127.2811,96.0623
127.1693,96.0647
127.0819,96.0708
127.0067,96.0782
127.0064,96.0782
126.9195,96.0844
126.9189,96.0844
126.8080,96.0867
126.7996,96.0835
126.7960,96.0753
126.7960,96.0751
126.7960,95.9463
126.7995,95.9381
126.8051,95.9349
126.9015,95.9130
126.9509,95.8497
126.9760,95.7597
126.9761,95.7594
127.0081,95.6570
127.0096,95.6540
127.0724,95.5616
127.0799,95.5567
Z" /> 
<path style="fill:#7FC87F; fill-opacity:1.0000; stroke:none;fill-rule:evenodd;"
d="M 124.7957,102.8520
124.7965,102.8524
125.1144,103.0139
125.1158,103.0147
125.3412,103.1705
125.5372,103.3006
125.7766,103.3895
126.1226,103.4215
126.1305,103.4257
126.1332,103.4332
126.1332,103.5625
126.1298,103.5708
126.1234,103.5740
125.7582,103.6311
125.5268,103.7822
125.5268,103.7822
125.3484,103.9882
125.3479,103.9887
125.1324,104.2114
125.1299,104.2134
124.7969,104.4104
124.7880,104.4117
124.7808,104.4063
124.7801,104.4049
124.6114,103.9988
124.6105,103.9943
124.6105,103.2697
124.6114,103.2652
124.7804,102.8584
124.7868,102.8520
Z" /> 
<path style="fill:#7FC87F; fill-opacity:1.0000; stroke:none;fill-rule:evenodd;"
d="M 128.1568,102.5060
128.3581,102.5886
128.4186,102.6134
128.4249,102.6197
128.4250,102.6198
128.5324,102.8815
128.5324,102.8905
128.5261,102.8968
128.5253,102.8971
128.4120,102.9345
128.4105,102.9349
128.3147,102.9535
128.2326,102.9715
128.1835,102.9948
128.1498,103.0108
128.1498,103.0108
128.1498,103.0108
128.0594,103.0864
128.0508,103.0891
128.0436,103.0857
127.9527,102.9948
127.9492,102.9865
127.9520,102.9790
128.0276,102.8886
128.0276,102.8886
128.0276,102.8886
128.0276,102.8886
128.0669,102.8058
128.0849,102.7237
128.1035,102.6279
128.1039,102.6264
128.1413,102.5131
128.1471,102.5063
128.1561,102.5057
Z" /> 
<path style="fill:#7FC87F; fill-opacity:1.0000; stroke:none;fill-rule:evenodd;"
d="M 124.7956,95.2324
124.7967,95.2329
125.1274,95.4137
125.1293,95.4150
125.3551,95.6046
125.3552,95.6047
125.5477,95.7722
125.7886,95.8916
126.1497,95.9357
126.1575,95.9401
126.1600,95.9474
126.1600,96.0766
126.1566,96.0849
126.1497,96.0883
125.7886,96.1324
125.7886,96.1324
125.5477,96.2518
125.5477,96.2518
125.3553,96.4193
125.3551,96.4194
125.1293,96.6090
125.1274,96.6103
124.7967,96.7911
124.7878,96.7920
124.7808,96.7864
124.7803,96.7853
124.6114,96.3788
124.6105,96.3743
124.6105,95.6497
124.6114,95.6452
124.7803,95.2387
124.7866,95.2324
Z" /> 
</g>
<g style="fill:#FFFFFF; fill-opacity:1.0000; stroke:none;">
<circle cx="139.1247" cy="106.4964" r="0.1500" /> 
</g>
<g style="fill:#FFFFFF; fill-opacity:1.0000; stroke:none;">
<circle cx="135.9690" cy="107.4930" r="0.1500" /> 
</g>
<g style="fill:#FFFFFF; fill-opacity:1.0000; stroke:none;">
<circle cx="131.4450" cy="109.7280" r="0.1500" /> 
</g>
<g style="fill:#FFFFFF; fill-opacity:1.0000; stroke:none;">
<circle cx="129.5400" cy="96.2660" r="0.1500" /> 
</g>
<g style="fill:#FFFFFF; fill-opacity:1.0000; stroke:none;">
<circle cx="141.3510" cy="99.1870" r="0.1500" /> 
</g>
<g style="fill:#FFFFFF; fill-opacity:1.0000; stroke:none;">
<circle cx="131.1910" cy="90.4405" r="0.1500" /> 
</g>
<g style="fill:#FFFFFF; fill-opacity:1.0000; stroke:none;">
<circle cx="131.4450" cy="108.5850" r="0.1500" /> 
</g>
<g style="fill:#FFFFFF; fill-opacity:1.0000; stroke:none;">
<circle cx="136.3980" cy="109.9820" r="0.1500" /> 
</g>
<g style="fill:#FFFFFF; fill-opacity:1.0000; stroke:none;">
<circle cx="138.3030" cy="110.1090" r="0.1500" /> 
</g>
<g style="fill:#FFFFFF; fill-opacity:1.0000; stroke:none;">
<circle cx="125.0675" cy="99.8220" r="0.1500" /> 
</g>
<g style="fill:#FFFFFF; fill-opacity:1.0000; stroke:none;">
<circle cx="132.5236" cy="100.6005" r="0.1500" /> 
</g>
<g style="fill:#FFFFFF; fill-opacity:1.0000; stroke:none;">
<circle cx="136.1440" cy="94.1070" r="0.1500" /> 
</g>
<g style="fill:#FFFFFF; fill-opacity:1.0000; stroke:none;">
<circle cx="138.9380" cy="100.0760" r="0.1500" /> 
</g>
<g style="fill:#FFFFFF; fill-opacity:1.0000; stroke:none;">
<circle cx="125.0950" cy="89.9160" r="0.1500" /> 
</g>
<g style="fill:#FFFFFF; fill-opacity:1.0000; stroke:none;">
<circle cx="125.2220" cy="94.7420" r="0.1500" /> 
</g>
<g style="fill:#FFFFFF; fill-opacity:1.0000; stroke:none;">
<circle cx="143.9164" cy="91.1860" r="0.1500" /> 
</g>
<g style="fill:#FFFFFF; fill-opacity:1.0000; stroke:none;">
<circle cx="143.6370" cy="95.2500" r="0.1500" /> 
</g>
<g style="fill:#FFFFFF; fill-opacity:1.0000; stroke:none;">
<circle cx="136.3980" cy="101.3460" r="0.1500" /> 
</g>
<g style="fill:#FFFFFF; fill-opacity:1.0000; stroke:none;">
<circle cx="143.8910" cy="104.7750" r="0.1500" /> 
</g>
<g style="fill:#FFFFFF; fill-opacity:1.0000; stroke:none;">
<circle cx="143.9164" cy="90.1700" r="0.1500" /> 
</g>
<g style="fill:#FFFFFF; fill-opacity:1.0000; stroke:none;">
<circle cx="133.8580" cy="89.2810" r="0.1500" /> 
</g>
<g style="fill:#FFFFFF; fill-opacity:1.0000; stroke:none;">
<circle cx="137.9220" cy="89.2810" r="0.1500" /> 
</g>
<g style="fill:#FFFFFF; fill-opacity:1.0000; stroke:none;">
<circle cx="141.0970" cy="94.7420" r="0.1500" /> 
</g>
<g style="fill:#FFFFFF; fill-opacity:1.0000; stroke:none;">
<circle cx="138.1671" cy="108.5850" r="0.1500" /> 
</g>
<g style="fill:#FFFFFF; fill-opacity:1.0000; stroke:none;">
<circle cx="125.7300" cy="89.2810" r="0.1500" /> 
</g>
<g style="fill:#FFFFFF; fill-opacity:1.0000; stroke:none;">
<circle cx="132.8420" cy="89.2810" r="0.1500" /> 
</g>
<g style="fill:#FFFFFF; fill-opacity:1.0000; stroke:none;">
<circle cx="130.3881" cy="99.9490" r="0.1500" /> 
</g>
<g style="fill:#FFFFFF; fill-opacity:1.0000; stroke:none;">
<circle cx="130.9908" cy="102.2604" r="0.1500" /> 
</g>
<g style="fill:#FFFFFF; fill-opacity:1.0000; stroke:none;">
<circle cx="136.3980" cy="92.3290" r="0.1500" /> 
</g>
<g style="fill:#FFFFFF; fill-opacity:1.0000; stroke:none;">
<circle cx="137.1600" cy="95.1230" r="0.1500" /> 
</g>
<g style="fill:#FFFFFF; fill-opacity:1.0000; stroke:none;">
<circle cx="137.7950" cy="94.3610" r="0.1500" /> 
</g>
<g style="fill:#FFFFFF; fill-opacity:1.0000; stroke:none;">
<circle cx="126.7460" cy="89.2810" r="0.1500" /> 
</g>
<g style="fill:#FFFFFF; fill-opacity:1.0000; stroke:none;">
<circle cx="127.6350" cy="96.5200" r="0.1500" /> 
</g>
<g style="fill:#FFFFFF; fill-opacity:1.0000; stroke:none;">
<circle cx="126.5085" cy="107.5690" r="0.1500" /> 
</g>
<g style="fill:#FFFFFF; fill-opacity:1.0000; stroke:none;">
<circle cx="143.8910" cy="99.8220" r="0.1500" /> 
</g>
<g style="fill:#FFFFFF; fill-opacity:1.0000; stroke:none;">
<circle cx="129.7940" cy="89.2810" r="0.1500" /> 
</g>
<g style="fill:#FFFFFF; fill-opacity:1.0000; stroke:none;">
<circle cx="143.0020" cy="90.1700" r="0.1500" /> 
</g>
<g style="fill:#FFFFFF; fill-opacity:1.0000; stroke:none;">
<circle cx="139.9540" cy="109.3470" r="0.1500" /> 
</g>
<g style="fill:#FFFFFF; fill-opacity:1.0000; stroke:none;">
<circle cx="144.0180" cy="109.9820" r="0.1500" /> 
</g>
<g style="fill:#FFFFFF; fill-opacity:1.0000; stroke:none;">
<circle cx="134.8740" cy="89.2810" r="0.1500" /> 
</g>
<g style="fill:#FFFFFF; fill-opacity:1.0000; stroke:none;">
<circle cx="141.9352" cy="92.5576" r="0.1500" /> 
</g>
<g style="fill:#FFFFFF; fill-opacity:1.0000; stroke:none;">
<circle cx="127.7620" cy="89.2810" r="0.1500" /> 
</g>
<g style="fill:#FFFFFF; fill-opacity:1.0000; stroke:none;">
<circle cx="133.7310" cy="94.9960" r="0.1500" /> 
</g>
<g style="fill:#FFFFFF; fill-opacity:1.0000; stroke:none;">
<circle cx="140.4620" cy="95.5040" r="0.1500" /> 
</g>
<g style="fill:#FFFFFF; fill-opacity:1.0000; stroke:none;">
<circle cx="143.9164" cy="89.3064" r="0.1500" /> 
</g>
<g style="fill:#FFFFFF; fill-opacity:1.0000; stroke:none;">
<circle cx="139.0650" cy="108.5850" r="0.1500" /> 
</g>
<g style="fill:#FFFFFF; fill-opacity:1.0000; stroke:none;">
<circle cx="143.0020" cy="92.2020" r="0.1500" /> 
</g>
<g style="fill:#FFFFFF; fill-opacity:1.0000; stroke:none;">
<circle cx="143.0020" cy="93.1672" r="0.1500" /> 
</g>
<g style="fill:#FFFFFF; fill-opacity:1.0000; stroke:none;">
<circle cx="133.4770" cy="110.2360" r="0.1500" /> 
</g>
<g style="fill:#FFFFFF; fill-opacity:1.0000; stroke:none;">
<circle cx="141.9860" cy="89.2810" r="0.1500" /> 
</g>
<g style="fill:#FFFFFF; fill-opacity:1.0000; stroke:none;">
<circle cx="138.9380" cy="89.2810" r="0.1500" /> 
</g>
<g style="fill:#FFFFFF; fill-opacity:1.0000; stroke:none;">
<circle cx="143.9164" cy="92.2020" r="0.1500" /> 
</g>
<g style="fill:#FFFFFF; fill-opacity:1.0000; stroke:none;">
<circle cx="128.9801" cy="99.3989" r="0.1500" /> 
</g>
<g style="fill:#FFFFFF; fill-opacity:1.0000; stroke:none;">
<circle cx="143.6370" cy="94.3610" r="0.1500" /> 
</g>
<g style="fill:#FFFFFF; fill-opacity:1.0000; stroke:none;">
<circle cx="141.9860" cy="90.1700" r="0.1500" /> 
</g>
<g style="fill:#FFFFFF; fill-opacity:1.0000; stroke:none;">
<circle cx="143.0020" cy="91.1860" r="0.1500" /> 
</g>
<g style="fill:#FFFFFF; fill-opacity:1.0000; stroke:none;">
<circle cx="132.7150" cy="94.9960" r="0.1500" /> 
</g>
<g style="fill:#FFFFFF; fill-opacity:1.0000; stroke:none;">
<circle cx="138.8872" cy="92.7100" r="0.1500" /> 
</g>
<g style="fill:#FFFFFF; fill-opacity:1.0000; stroke:none;">
<circle cx="124.9680" cy="102.3620" r="0.1500" /> 
</g>
<g style="fill:#FFFFFF; fill-opacity:1.0000; stroke:none;">
<circle cx="140.2080" cy="105.2830" r="0.1500" /> 
</g>
<g style="fill:#FFFFFF; fill-opacity:1.0000; stroke:none;">
<circle cx="131.0640" cy="103.8860" r="0.1500" /> 
</g>
<g style="fill:#FFFFFF; fill-opacity:1.0000; stroke:none;">
<circle cx="135.8900" cy="89.2810" r="0.1500" /> 
</g>
<g style="fill:#FFFFFF; fill-opacity:1.0000; stroke:none;">
<circle cx="143.8910" cy="97.2820" r="0.1500" /> 
</g>
<g style="fill:#FFFFFF; fill-opacity:1.0000; stroke:none;">
<circle cx="135.1280" cy="103.8860" r="0.1500" /> 
</g>
<g style="fill:#FFFFFF; fill-opacity:1.0000; stroke:none;">
<circle cx="125.0950" cy="90.8050" r="0.1500" /> 
</g>
<g style="fill:#FFFFFF; fill-opacity:1.0000; stroke:none;">
<circle cx="138.2776" cy="93.4720" r="0.1500" /> 
</g>
<g style="fill:#FFFFFF; fill-opacity:1.0000; stroke:none;">
<circle cx="128.7780" cy="89.2810" r="0.1500" /> 
</g>
<g style="fill:#FFFFFF; fill-opacity:1.0000; stroke:none;">
<circle cx="128.9050" cy="105.4100" r="0.1500" /> 
</g>
<g style="fill:#FFFFFF; fill-opacity:1.0000; stroke:none;">
<circle cx="125.4760" cy="110.2360" r="0.1500" /> 
</g>
<g style="fill:#FFFFFF; fill-opacity:1.0000; stroke:none;">
<circle cx="130.6830" cy="95.5040" r="0.1500" /> 
</g>
<g style="fill:#FFFFFF; fill-opacity:1.0000; stroke:none;">
<circle cx="136.3980" cy="102.6160" r="0.1500" /> 
</g>
<g style="fill:#FFFFFF; fill-opacity:1.0000; stroke:none;">
<circle cx="137.2870" cy="91.3130" r="0.1500" /> 
</g>
<g style="fill:#FFFFFF; fill-opacity:1.0000; stroke:none;">
<circle cx="137.6680" cy="102.6160" r="0.1500" /> 
</g>
<g style="fill:#FFFFFF; fill-opacity:1.0000; stroke:none;">
<circle cx="143.8910" cy="102.3620" r="0.1500" /> 
</g>
<g style="fill:#FFFFFF; fill-opacity:1.0000; stroke:none;">
<circle cx="134.6200" cy="108.4580" r="0.1500" /> 
</g>
<g style="fill:#FFFFFF; fill-opacity:1.0000; stroke:none;">
<circle cx="130.6830" cy="97.5360" r="0.1500" /> 
</g>
<g style="fill:#FFFFFF; fill-opacity:1.0000; stroke:none;">
<circle cx="143.0020" cy="89.3064" r="0.1500" /> 
</g>
<g style="fill:#FFFFFF; fill-opacity:1.0000; stroke:none;">
<circle cx="125.0950" cy="92.2020" r="0.1500" /> 
</g>
<g style="fill:#FFFFFF; fill-opacity:1.0000; stroke:none;">
<circle cx="133.6503" cy="97.7314" r="0.1500" /> 
</g>
<g style="fill:#FFFFFF; fill-opacity:1.0000; stroke:none;">
<circle cx="125.0675" cy="97.2820" r="0.1500" /> 
</g>
<g style="fill:#FFFFFF; fill-opacity:1.0000; stroke:none;">
<circle cx="132.2832" cy="93.1672" r="0.1500" /> 
</g>
<g style="fill:#FFFFFF; fill-opacity:1.0000; stroke:none;">
<circle cx="139.9540" cy="89.2810" r="0.1500" /> 
</g>
<g style="fill:#FFFFFF; fill-opacity:1.0000; stroke:none;">
<circle cx="130.5560" cy="98.4250" r="0.1500" /> 
</g>
<g style="fill:#FFFFFF; fill-opacity:1.0000; stroke:none;">
<circle cx="130.4290" cy="96.5200" r="0.1500" /> 
</g>
<g style="fill:#FFFFFF; fill-opacity:1.0000; stroke:none;">
<circle cx="140.9700" cy="89.2810" r="0.1500" /> 
</g>
<g style="fill:#FFFFFF; fill-opacity:1.0000; stroke:none;">
<circle cx="138.9380" cy="103.8860" r="0.1500" /> 
</g>
<g style="fill:#FFFFFF; fill-opacity:1.0000; stroke:none;">
<circle cx="137.6680" cy="101.3460" r="0.1500" /> 
</g>
<g style="fill:#FFFFFF; fill-opacity:1.0000; stroke:none;">
<circle cx="135.5090" cy="110.2360" r="0.1500" /> 
</g>
<g style="fill:#FFFFFF; fill-opacity:1.0000; stroke:none;">
<circle cx="139.9540" cy="91.3130" r="0.1500" /> 
</g>
<g style="fill:#FFFFFF; fill-opacity:1.0000; stroke:none;">
<circle cx="131.8260" cy="89.2810" r="0.1500" /> 
</g>
<g style="fill:#FFFFFF; fill-opacity:1.0000; stroke:none;">
<circle cx="135.1280" cy="100.0760" r="0.1500" /> 
</g>
<g style="fill:#FFFFFF; fill-opacity:1.0000; stroke:none;">
<circle cx="128.2700" cy="90.0684" r="0.1500" /> 
</g>
<g style="fill:#FFFFFF; fill-opacity:1.0000; stroke:none;">
<circle cx="143.1290" cy="109.9820" r="0.1500" /> 
</g>
<g style="fill:#FFFFFF; fill-opacity:1.0000; stroke:none;">
<circle cx="136.9060" cy="89.2810" r="0.1500" /> 
</g>
<g style="fill:#FFFFFF; fill-opacity:1.0000; stroke:none;">
<circle cx="133.7310" cy="93.9800" r="0.1500" /> 
</g>
<g style="fill:#FFFFFF; fill-opacity:1.0000; stroke:none;">
<circle cx="134.9756" cy="92.8116" r="0.1500" /> 
</g>
<g style="fill:#FFFFFF; fill-opacity:1.0000; stroke:none;">
<circle cx="129.0466" cy="101.3828" r="0.1500" /> 
</g>
<g style="fill:#FFFFFF; fill-opacity:1.0000; stroke:none;">
<circle cx="130.8100" cy="89.2810" r="0.1500" /> 
</g>
<g style="fill:#FFFFFF; fill-opacity:1.0000; stroke:none;">
<circle cx="140.9700" cy="105.9180" r="0.1500" /> 
</g>
<g style="fill:#FFFFFF; fill-opacity:1.0000; stroke:none;">
<circle cx="141.6082" cy="107.2624" r="0.1500" /> 
</g>
<g style="fill:#FFFFFF; fill-opacity:1.0000; stroke:none;">
<circle cx="132.9720" cy="98.6790" r="0.1500" /> 
</g>
<g style="fill:#FFFFFF; fill-opacity:1.0000; stroke:none;">
<circle cx="138.2937" cy="106.8070" r="0.1500" /> 
</g>
<g style="fill:#FFFFFF; fill-opacity:1.0000; stroke:none;">
<circle cx="132.6495" cy="101.6434" r="0.1500" /> 
</g>
<g style="fill:#FFFFFF; fill-opacity:1.0000; stroke:none;">
<circle cx="141.6050" cy="108.0770" r="0.1500" /> 
</g>
<g style="fill:#FFFFFF; fill-opacity:1.0000; stroke:none;">
<circle cx="138.1760" cy="95.5040" r="0.1500" /> 
</g>
<g style="fill:#FFFFFF; fill-opacity:1.0000; stroke:none;">
<circle cx="132.3340" cy="90.5510" r="0.1500" /> 
</g>
<g style="fill:#FFFFFF; fill-opacity:1.0000; stroke:none;">
<circle cx="131.2672" cy="92.8116" r="0.1500" /> 
</g>
<g style="fill:#FFFFFF; fill-opacity:1.0000; stroke:none;">
<circle cx="136.1440" cy="91.5670" r="0.1500" /> 
</g>
<g style="fill:#FFFFFF; fill-opacity:1.0000; stroke:none;">
<circle cx="127.1270" cy="108.3666" r="0.1500" /> 
</g>
<g style="fill:#FFFFFF; fill-opacity:1.0000; stroke:none;">
<circle cx="127.2137" cy="102.7832" r="0.1500" /> 
</g>
<g style="fill:#FFFFFF; fill-opacity:1.0000; stroke:none;">
<circle cx="127.3810" cy="97.6630" r="0.1500" /> 
</g>
<g style="fill:#FFFFFF; fill-opacity:1.0000; stroke:none;">
<circle cx="132.4825" cy="102.6450" r="0.1500" /> 
</g>
<g style="fill:#FFFFFF; fill-opacity:1.0000; stroke:none;">
<circle cx="127.8890" cy="98.9330" r="0.1500" /> 
</g>
<g style="fill:#FFFFFF; fill-opacity:1.0000; stroke:none;">
<circle cx="129.5400" cy="104.0130" r="0.1500" /> 
</g>
<g style="fill:#FFFFFF; fill-opacity:1.0000; stroke:none;">
<circle cx="141.0970" cy="97.7900" r="0.1500" /> 
</g>
<g style="fill:#FFFFFF; fill-opacity:1.0000; stroke:none;">
<circle cx="130.8495" cy="105.5205" r="0.1500" /> 
</g>
<g style="fill:#FFFFFF; fill-opacity:1.0000; stroke:none;">
<circle cx="138.8325" cy="97.0295" r="0.1500" /> 
</g>
<g style="fill:#FFFFFF; fill-opacity:1.0000; stroke:none;">
<circle cx="132.5880" cy="103.6320" r="0.1500" /> 
</g>
<g style="fill:#FFFFFF; fill-opacity:1.0000; stroke:none;">
<circle cx="127.1226" cy="104.0225" r="0.1500" /> 
</g>
<g style="fill:#FFFFFF; fill-opacity:1.0000; stroke:none;">
<circle cx="137.6045" cy="96.2025" r="0.1500" /> 
</g>
<g style="fill:#FFFFFF; fill-opacity:1.0000; stroke:none;">
<circle cx="127.2925" cy="95.7621" r="0.1500" /> 
</g>
<g style="fill:#FFFFFF; fill-opacity:1.0000; stroke:none;">
<circle cx="129.6670" cy="90.1700" r="0.1500" /> 
</g>
<g style="fill:#FFFFFF; fill-opacity:1.0000; stroke:none;">
<circle cx="141.8590" cy="96.6470" r="0.1500" /> 
</g>
<g style="fill:#FFFFFF; fill-opacity:1.0000; stroke:none;">
<circle cx="137.6680" cy="97.0280" r="0.1500" /> 
</g>
<g style="fill:#FFFFFF; fill-opacity:1.0000; stroke:none;">
<circle cx="139.7000" cy="96.7740" r="0.1500" /> 
</g>
<g style="fill:#FFFFFF; fill-opacity:1.0000; stroke:none;">
<circle cx="140.5636" cy="97.0788" r="0.1500" /> 
</g>
<g style="fill:#FFFFFF; fill-opacity:1.0000; stroke:none;">
<circle cx="140.6424" cy="98.4784" r="0.1500" /> 
</g>
<g style="fill:#FFFFFF; fill-opacity:1.0000; stroke:none;">
<circle cx="141.2985" cy="100.1952" r="0.1500" /> 
</g>
<g style="fill:#FFFFFF; fill-opacity:1.0000; stroke:none;">
<circle cx="141.9016" cy="100.7325" r="0.1500" /> 
</g>
<g style="fill:#FFFFFF; fill-opacity:1.0000; stroke:none;">
<circle cx="125.2220" cy="104.9020" r="0.1500" /> 
</g>
<g style="fill:#FFFFFF; fill-opacity:1.0000; stroke:none;">
<circle cx="134.1467" cy="106.5977" r="0.1500" /> 
</g>
<g style="fill:#FFFFFF; fill-opacity:1.0000; stroke:none;">
<circle cx="127.0165" cy="94.9960" r="0.1500" /> 
</g>
<g style="fill:#FFFFFF; fill-opacity:1.0000; stroke:none;">
<circle cx="141.3510" cy="101.4577" r="0.1500" /> 
</g>
<g style="fill:#FFFFFF; fill-opacity:1.0000; stroke:none;">
<circle cx="142.1130" cy="101.9822" r="0.1500" /> 
</g>
<g style="fill:#FFFFFF; fill-opacity:1.0000; stroke:none;">
<circle cx="141.3510" cy="102.5067" r="0.1500" /> 
</g>
<g style="fill:#FFFFFF; fill-opacity:1.0000; stroke:none;">
<circle cx="142.0377" cy="103.3424" r="0.1500" /> 
</g>
<g style="fill:#FFFFFF; fill-opacity:1.0000; stroke:none;">
<circle cx="135.2550" cy="106.1720" r="0.1500" /> 
</g>
<g style="fill:#FFFFFF; fill-opacity:1.0000; stroke:none;">
<circle cx="129.6305" cy="108.7965" r="0.1500" /> 
</g>
<g style="fill:#FFFFFF; fill-opacity:1.0000; stroke:none;">
<circle cx="126.0175" cy="102.4887" r="0.1500" /> 
</g>
<g style="fill:#FFFFFF; fill-opacity:1.0000; stroke:none;">
<circle cx="133.4967" cy="105.5695" r="0.1500" /> 
</g>
<g style="fill:#FFFFFF; fill-opacity:1.0000; stroke:none;">
<circle cx="130.4290" cy="93.2180" r="0.1500" /> 
</g>
<g style="fill:#FFFFFF; fill-opacity:1.0000; stroke:none;">
<circle cx="136.7407" cy="106.1634" r="0.1500" /> 
</g>
<g style="fill:#FFFFFF; fill-opacity:1.0000; stroke:none;">
<circle cx="125.7300" cy="91.4400" r="0.1500" /> 
</g>
<g style="fill:#FFFFFF; fill-opacity:1.0000; stroke:none;">
<circle cx="128.4224" cy="102.6160" r="0.1500" /> 
</g>
<g style="fill:#FFFFFF; fill-opacity:1.0000; stroke:none;">
<circle cx="128.3970" cy="92.9640" r="0.1500" /> 
</g>
<g style="fill:#FFFFFF; fill-opacity:1.0000; stroke:none;">
<circle cx="141.1000" cy="105.0290" r="0.1500" /> 
</g>
<g style="fill:#FFFFFF; fill-opacity:1.0000; stroke:none;">
<circle cx="141.2240" cy="103.6320" r="0.1500" /> 
</g>
<g style="fill:#FFFFFF; fill-opacity:1.0000; stroke:none;">
<circle cx="141.6050" cy="104.3940" r="0.1500" /> 
</g>
<g style="fill:#FFFFFF; fill-opacity:1.0000; stroke:none;">
<circle cx="144.7800" cy="93.4720" r="0.5000" /> 
</g>
<g style="fill:#FFFFFF; fill-opacity:1.0000; stroke:none;">
<circle cx="144.7800" cy="96.0120" r="0.5000" /> 
</g>
<g style="fill:#FFFFFF; fill-opacity:1.0000; stroke:none;">
<circle cx="144.7800" cy="98.5520" r="0.5000" /> 
</g>
<g style="fill:#FFFFFF; fill-opacity:1.0000; stroke:none;">
<circle cx="144.7800" cy="101.0920" r="0.5000" /> 
</g>
<g style="fill:#FFFFFF; fill-opacity:1.0000; stroke:none;">
<circle cx="144.7800" cy="103.6320" r="0.5000" /> 
</g>
<g style="fill:#FFFFFF; fill-opacity:1.0000; stroke:none;">
<circle cx="144.7800" cy="106.1720" r="0.5000" /> 
</g>
<g style="fill:#FFFFFF; fill-opacity:1.0000; stroke:none;">
<circle cx="144.7800" cy="108.7120" r="0.5000" /> 
</g>
<g style="fill:#FFFFFF; fill-opacity:1.0000; stroke:none;">
<circle cx="142.2400" cy="111.2520" r="0.5000" /> 
</g>
<g style="fill:#FFFFFF; fill-opacity:1.0000; stroke:none;">
<circle cx="139.7000" cy="111.2520" r="0.5000" /> 
</g>
<g style="fill:#FFFFFF; fill-opacity:1.0000; stroke:none;">
<circle cx="137.1600" cy="111.2520" r="0.5000" /> 
</g>
<g style="fill:#FFFFFF; fill-opacity:1.0000; stroke:none;">
<circle cx="134.6200" cy="111.2520" r="0.5000" /> 
</g>
<g style="fill:#FFFFFF; fill-opacity:1.0000; stroke:none;">
<circle cx="132.0800" cy="111.2520" r="0.5000" /> 
</g>
<g style="fill:#FFFFFF; fill-opacity:1.0000; stroke:none;">
<circle cx="129.5400" cy="111.2520" r="0.5000" /> 
</g>
<g style="fill:#FFFFFF; fill-opacity:1.0000; stroke:none;">
<circle cx="127.0000" cy="111.2520" r="0.5000" /> 
</g>
<g style="fill:#FFFFFF; fill-opacity:1.0000; stroke:none;">
<circle cx="124.4600" cy="108.7120" r="0.5000" /> 
</g>
<g style="fill:#FFFFFF; fill-opacity:1.0000; stroke:none;">
<circle cx="124.4600" cy="106.1720" r="0.5000" /> 
</g>
<g style="fill:#FFFFFF; fill-opacity:1.0000; stroke:none;">
<circle cx="124.4600" cy="103.6320" r="0.5000" /> 
</g>
<g style="fill:#FFFFFF; fill-opacity:1.0000; stroke:none;">
<circle cx="124.4600" cy="101.0920" r="0.5000" /> 
</g>
<g style="fill:#FFFFFF; fill-opacity:1.0000; stroke:none;">
<circle cx="124.4600" cy="98.5520" r="0.5000" /> 
</g>
<g style="fill:#FFFFFF; fill-opacity:1.0000; stroke:none;">
<circle cx="124.4600" cy="96.0120" r="0.5000" /> 
</g>
<g style="fill:#FFFFFF; fill-opacity:1.0000; stroke:none;">
<circle cx="124.4600" cy="93.4720" r="0.5000" /> 
</g>
<g style="fill:#FFFFFF; fill-opacity:1.0000; stroke:none;">
<circle cx="131.6512" cy="91.5162" r="0.4953" /> 
</g>
<g style="fill:#FFFFFF; fill-opacity:1.0000; stroke:none;">
<circle cx="126.5712" cy="92.5322" r="0.4953" /> 
</g>
<g style="fill:#FFFFFF; fill-opacity:1.0000; stroke:none;">
<circle cx="126.5712" cy="90.5002" r="0.4953" /> 
</g>
<g style="fill:none; 
stroke:#D0D2CD; stroke-width:0.1000; stroke-opacity:1; 
stroke-linecap:round; stroke-linejoin:round;">
<path d="M144.7800 111.2520
L124.4600 111.2520
" />
<path d="M124.4600 111.2520
L124.4600 88.7730
" />
<path d="M144.7800 88.7730
L144.7800 111.2520
" />
<path d="M124.4600 88.7730
L144.7800 88.7730
" />
</g> 
</svg>
