<?xml version="1.0" standalone="no"?>
 <!DOCTYPE svg PUBLIC "-//W3C//DTD SVG 1.1//EN" 
 "http://www.w3.org/Graphics/SVG/1.1/DTD/svg11.dtd"> 
<svg
  xmlns:svg="http://www.w3.org/2000/svg"
  xmlns="http://www.w3.org/2000/svg"
  xmlns:xlink="http://www.w3.org/1999/xlink"
  version="1.1"
  width="297.0022mm" height="210.0072mm" viewBox="0.0000 0.0000 297.0022 210.0072">
<title>SVG Image created as soil-sensor-B_Cu.svg date 2024/05/12 18:05:27 </title>
  <desc>Image generated by PCBNEW </desc>
<g style="fill:#000000; fill-opacity:1.0000;stroke:#000000; stroke-opacity:1.0000;
stroke-linecap:round; stroke-linejoin:round;"
 transform="translate(0 0) scale(1 1)">
<path style="fill:#4D7FC4; fill-opacity:1.0000; stroke:none;fill-rule:evenodd;"
d="M 55.6500,92.9410
58.6500,92.9410
58.6500,95.9410
55.6500,95.9410
Z" /> 
</g>
<g style="fill:#4D7FC4; fill-opacity:1.0000; stroke:none;">
<circle cx="57.1500" cy="99.5210" r="1.5000" /> 
<path style="fill:#4D7FC4; fill-opacity:1.0000; stroke:none;fill-rule:evenodd;"
d="M 55.6500,109.4510
58.6500,109.4510
58.6500,112.4510
55.6500,112.4510
Z" /> 
</g>
<g style="fill:#4D7FC4; fill-opacity:1.0000; stroke:none;">
<circle cx="57.1500" cy="116.0310" r="1.5000" /> 
</g>
<g style="fill:#ECECEC; fill-opacity:1.0000; stroke:none;">
<circle cx="58.1660" cy="102.7280" r="0.3000" /> 
</g>
<g style="fill:#ECECEC; fill-opacity:1.0000; stroke:none;">
<circle cx="89.2755" cy="115.6885" r="0.3000" /> 
</g>
<g style="fill:#ECECEC; fill-opacity:1.0000; stroke:none;">
<circle cx="89.2755" cy="116.6050" r="0.3000" /> 
</g>
<g style="fill:#ECECEC; fill-opacity:1.0000; stroke:none;">
<circle cx="66.1435" cy="91.5435" r="0.3000" /> 
</g>
<g style="fill:#ECECEC; fill-opacity:1.0000; stroke:none;">
<circle cx="59.9720" cy="96.1910" r="0.3000" /> 
</g>
<g style="fill:#ECECEC; fill-opacity:1.0000; stroke:none;">
<circle cx="72.1360" cy="93.2180" r="0.3000" /> 
</g>
<g style="fill:#ECECEC; fill-opacity:1.0000; stroke:none;">
<circle cx="85.0900" cy="98.4100" r="0.3000" /> 
</g>
<g style="fill:#ECECEC; fill-opacity:1.0000; stroke:none;">
<circle cx="86.8680" cy="116.8400" r="0.3000" /> 
</g>
<g style="fill:#ECECEC; fill-opacity:1.0000; stroke:none;">
<circle cx="82.0420" cy="90.9320" r="0.3000" /> 
</g>
<g style="fill:#ECECEC; fill-opacity:1.0000; stroke:none;">
<circle cx="85.8520" cy="116.0780" r="0.3000" /> 
</g>
<g style="fill:#ECECEC; fill-opacity:1.0000; stroke:none;">
<circle cx="89.1540" cy="118.9840" r="0.3000" /> 
</g>
<g style="fill:#ECECEC; fill-opacity:1.0000; stroke:none;">
<circle cx="90.9320" cy="112.3800" r="0.3000" /> 
</g>
<g style="fill:#ECECEC; fill-opacity:1.0000; stroke:none;">
<circle cx="90.6780" cy="95.3620" r="0.3000" /> 
</g>
<g style="fill:#ECECEC; fill-opacity:1.0000; stroke:none;">
<circle cx="90.6780" cy="94.3460" r="0.3000" /> 
</g>
<g style="fill:#ECECEC; fill-opacity:1.0000; stroke:none;">
<circle cx="84.5820" cy="99.4260" r="0.3000" /> 
</g>
<g style="fill:#ECECEC; fill-opacity:1.0000; stroke:none;">
<circle cx="90.6780" cy="96.3780" r="0.3000" /> 
</g>
<g style="fill:#ECECEC; fill-opacity:1.0000; stroke:none;">
<circle cx="90.9320" cy="114.4120" r="0.3000" /> 
</g>
<g style="fill:#ECECEC; fill-opacity:1.0000; stroke:none;">
<circle cx="85.0900" cy="100.1880" r="0.3000" /> 
</g>
<g style="fill:#ECECEC; fill-opacity:1.0000; stroke:none;">
<circle cx="87.3590" cy="94.4880" r="0.3000" /> 
</g>
<g style="fill:#ECECEC; fill-opacity:1.0000; stroke:none;">
<circle cx="86.1060" cy="114.3000" r="0.3000" /> 
</g>
<g style="fill:#ECECEC; fill-opacity:1.0000; stroke:none;">
<circle cx="70.3580" cy="90.8850" r="0.3000" /> 
</g>
<g style="fill:#ECECEC; fill-opacity:1.0000; stroke:none;">
<circle cx="76.4540" cy="115.8240" r="0.3000" /> 
</g>
<g style="fill:#ECECEC; fill-opacity:1.0000; stroke:none;">
<circle cx="62.4840" cy="91.4400" r="0.3000" /> 
</g>
<g style="fill:#ECECEC; fill-opacity:1.0000; stroke:none;">
<circle cx="79.5020" cy="115.8240" r="0.3000" /> 
</g>
<g style="fill:#ECECEC; fill-opacity:1.0000; stroke:none;">
<circle cx="89.1540" cy="107.5540" r="0.3000" /> 
</g>
<g style="fill:#ECECEC; fill-opacity:1.0000; stroke:none;">
<circle cx="90.6780" cy="118.9840" r="0.3000" /> 
</g>
<g style="fill:#ECECEC; fill-opacity:1.0000; stroke:none;">
<circle cx="80.7720" cy="90.9320" r="0.3000" /> 
</g>
<g style="fill:#ECECEC; fill-opacity:1.0000; stroke:none;">
<circle cx="89.4080" cy="109.3320" r="0.3000" /> 
</g>
<g style="fill:#ECECEC; fill-opacity:1.0000; stroke:none;">
<circle cx="78.4860" cy="115.8240" r="0.3000" /> 
</g>
<g style="fill:#ECECEC; fill-opacity:1.0000; stroke:none;">
<circle cx="79.5020" cy="90.9320" r="0.3000" /> 
</g>
<g style="fill:#ECECEC; fill-opacity:1.0000; stroke:none;">
<circle cx="90.4240" cy="109.3320" r="0.3000" /> 
</g>
<g style="fill:#ECECEC; fill-opacity:1.0000; stroke:none;">
<circle cx="77.7240" cy="90.8850" r="0.3000" /> 
</g>
<g style="fill:#ECECEC; fill-opacity:1.0000; stroke:none;">
<circle cx="89.6620" cy="91.4400" r="0.3000" /> 
</g>
<g style="fill:#ECECEC; fill-opacity:1.0000; stroke:none;">
<circle cx="90.9320" cy="111.3640" r="0.3000" /> 
</g>
<g style="fill:#ECECEC; fill-opacity:1.0000; stroke:none;">
<circle cx="83.3120" cy="90.9320" r="0.3000" /> 
</g>
<g style="fill:#ECECEC; fill-opacity:1.0000; stroke:none;">
<circle cx="77.4700" cy="115.8240" r="0.3000" /> 
</g>
<g style="fill:#ECECEC; fill-opacity:1.0000; stroke:none;">
<circle cx="74.1680" cy="93.2180" r="0.3000" /> 
</g>
<g style="fill:#ECECEC; fill-opacity:1.0000; stroke:none;">
<circle cx="86.8680" cy="115.8240" r="0.3000" /> 
</g>
<g style="fill:#ECECEC; fill-opacity:1.0000; stroke:none;">
<circle cx="84.8360" cy="106.4260" r="0.3000" /> 
</g>
<g style="fill:#ECECEC; fill-opacity:1.0000; stroke:none;">
<circle cx="82.0000" cy="95.0000" r="0.3000" /> 
</g>
<g style="fill:#ECECEC; fill-opacity:1.0000; stroke:none;">
<circle cx="88.3920" cy="109.3320" r="0.3000" /> 
</g>
<g style="fill:#ECECEC; fill-opacity:1.0000; stroke:none;">
<circle cx="68.3260" cy="90.6780" r="0.3000" /> 
</g>
<g style="fill:#ECECEC; fill-opacity:1.0000; stroke:none;">
<circle cx="86.8680" cy="114.8080" r="0.3000" /> 
</g>
<g style="fill:#ECECEC; fill-opacity:1.0000; stroke:none;">
<circle cx="90.6780" cy="103.2360" r="0.3000" /> 
</g>
<g style="fill:#ECECEC; fill-opacity:1.0000; stroke:none;">
<circle cx="90.9320" cy="110.3480" r="0.3000" /> 
</g>
<g style="fill:#ECECEC; fill-opacity:1.0000; stroke:none;">
<circle cx="84.3280" cy="117.0940" r="0.3000" /> 
</g>
<g style="fill:#ECECEC; fill-opacity:1.0000; stroke:none;">
<circle cx="90.1700" cy="92.2020" r="0.3000" /> 
</g>
<g style="fill:#ECECEC; fill-opacity:1.0000; stroke:none;">
<circle cx="75.9460" cy="91.1860" r="0.3000" /> 
</g>
<g style="fill:#ECECEC; fill-opacity:1.0000; stroke:none;">
<circle cx="80.0100" cy="95.4400" r="0.3000" /> 
</g>
<g style="fill:#ECECEC; fill-opacity:1.0000; stroke:none;">
<circle cx="90.9320" cy="113.3960" r="0.3000" /> 
</g>
<g style="fill:#ECECEC; fill-opacity:1.0000; stroke:none;">
<circle cx="90.6780" cy="93.3300" r="0.3000" /> 
</g>
<g style="fill:#ECECEC; fill-opacity:1.0000; stroke:none;">
<circle cx="90.6780" cy="101.9660" r="0.3000" /> 
</g>
<g style="fill:#ECECEC; fill-opacity:1.0000; stroke:none;">
<circle cx="89.9160" cy="108.3160" r="0.3000" /> 
</g>
<g style="fill:#ECECEC; fill-opacity:1.0000; stroke:none;">
<circle cx="61.4680" cy="90.6780" r="0.3000" /> 
</g>
<g style="fill:#ECECEC; fill-opacity:1.0000; stroke:none;">
<circle cx="74.1680" cy="94.4880" r="0.3000" /> 
</g>
<g style="fill:#ECECEC; fill-opacity:1.0000; stroke:none;">
<circle cx="89.9160" cy="118.2220" r="0.3000" /> 
</g>
<g style="fill:#ECECEC; fill-opacity:1.0000; stroke:none;">
<circle cx="82.2960" cy="117.4600" r="0.3000" /> 
</g>
<g style="fill:#ECECEC; fill-opacity:1.0000; stroke:none;">
<circle cx="83.3120" cy="117.4600" r="0.3000" /> 
</g>
<g style="fill:#ECECEC; fill-opacity:1.0000; stroke:none;">
<circle cx="69.3420" cy="90.6780" r="0.3000" /> 
</g>
<g style="fill:#ECECEC; fill-opacity:1.0000; stroke:none;">
<circle cx="86.1060" cy="106.1720" r="0.3000" /> 
</g>
<g style="fill:#ECECEC; fill-opacity:1.0000; stroke:none;">
<circle cx="63.5000" cy="90.6780" r="0.3000" /> 
</g>
<g style="fill:#ECECEC; fill-opacity:1.0000; stroke:none;">
<circle cx="85.3440" cy="105.4100" r="0.3000" /> 
</g>
<g style="fill:#ECECEC; fill-opacity:1.0000; stroke:none;">
<circle cx="88.6460" cy="90.9320" r="0.3000" /> 
</g>
<g style="fill:#ECECEC; fill-opacity:1.0000; stroke:none;">
<circle cx="75.9460" cy="92.7100" r="0.3000" /> 
</g>
<g style="fill:#ECECEC; fill-opacity:1.0000; stroke:none;">
<circle cx="81.0260" cy="115.2690" r="0.3000" /> 
</g>
<g style="fill:#ECECEC; fill-opacity:1.0000; stroke:none;">
<circle cx="81.7880" cy="94.1870" r="0.3000" /> 
</g>
<g style="fill:#ECECEC; fill-opacity:1.0000; stroke:none;">
<circle cx="84.8360" cy="96.9810" r="0.3000" /> 
</g>
<g style="fill:#ECECEC; fill-opacity:1.0000; stroke:none;">
<circle cx="87.5140" cy="106.3663" r="0.3000" /> 
</g>
<g style="fill:#ECECEC; fill-opacity:1.0000; stroke:none;">
<circle cx="86.5280" cy="97.0670" r="0.3000" /> 
</g>
<g style="fill:#ECECEC; fill-opacity:1.0000; stroke:none;">
<circle cx="87.5140" cy="104.3343" r="0.3000" /> 
</g>
<g style="fill:#ECECEC; fill-opacity:1.0000; stroke:none;">
<circle cx="86.9220" cy="91.5743" r="0.3000" /> 
</g>
<g style="fill:#ECECEC; fill-opacity:1.0000; stroke:none;">
<circle cx="87.5140" cy="101.2863" r="0.3000" /> 
</g>
<g style="fill:#ECECEC; fill-opacity:1.0000; stroke:none;">
<circle cx="87.5140" cy="99.2543" r="0.3000" /> 
</g>
<g style="fill:#ECECEC; fill-opacity:1.0000; stroke:none;">
<circle cx="85.1680" cy="91.5056" r="0.3000" /> 
</g>
<g style="fill:#ECECEC; fill-opacity:1.0000; stroke:none;">
<circle cx="85.9612" cy="91.3796" r="0.3000" /> 
</g>
<g style="fill:#ECECEC; fill-opacity:1.0000; stroke:none;">
<circle cx="87.5140" cy="100.2703" r="0.3000" /> 
</g>
<g style="fill:#ECECEC; fill-opacity:1.0000; stroke:none;">
<circle cx="87.8840" cy="91.6470" r="0.3000" /> 
</g>
<g style="fill:#ECECEC; fill-opacity:1.0000; stroke:none;">
<circle cx="87.5140" cy="102.3023" r="0.3000" /> 
</g>
<g style="fill:#ECECEC; fill-opacity:1.0000; stroke:none;">
<circle cx="87.5140" cy="103.3183" r="0.3000" /> 
</g>
<g style="fill:#ECECEC; fill-opacity:1.0000; stroke:none;">
<circle cx="87.3590" cy="96.9810" r="0.3000" /> 
</g>
<g style="fill:#ECECEC; fill-opacity:1.0000; stroke:none;">
<circle cx="85.6885" cy="96.9699" r="0.3000" /> 
</g>
<g style="fill:#ECECEC; fill-opacity:1.0000; stroke:none;">
<circle cx="87.5140" cy="105.3503" r="0.3000" /> 
</g>
<g style="fill:#ECECEC; fill-opacity:1.0000; stroke:none;">
<circle cx="83.9580" cy="92.3963" r="0.3000" /> 
</g>
<g style="fill:#ECECEC; fill-opacity:1.0000; stroke:none;">
<circle cx="83.5830" cy="95.3620" r="0.3000" /> 
</g>
<g style="fill:#ECECEC; fill-opacity:1.0000; stroke:none;">
<circle cx="81.7763" cy="99.1318" r="0.3000" /> 
</g>
<g style="fill:#ECECEC; fill-opacity:1.0000; stroke:none;">
<circle cx="84.3270" cy="91.5747" r="0.3000" /> 
</g>
<g style="fill:#ECECEC; fill-opacity:1.0000; stroke:none;">
<circle cx="82.2960" cy="98.5050" r="0.3000" /> 
</g>
<g style="fill:#ECECEC; fill-opacity:1.0000; stroke:none;">
<circle cx="83.8830" cy="96.1240" r="0.3000" /> 
</g>
<g style="fill:#ECECEC; fill-opacity:1.0000; stroke:none;">
<circle cx="83.5736" cy="101.6731" r="0.3000" /> 
</g>
<g style="fill:#ECECEC; fill-opacity:1.0000; stroke:none;">
<circle cx="84.8360" cy="110.6020" r="0.3000" /> 
</g>
<g style="fill:#ECECEC; fill-opacity:1.0000; stroke:none;">
<circle cx="87.7255" cy="113.3960" r="0.3000" /> 
</g>
<g style="fill:#ECECEC; fill-opacity:1.0000; stroke:none;">
<circle cx="69.0880" cy="93.1710" r="0.3000" /> 
</g>
<g style="fill:#ECECEC; fill-opacity:1.0000; stroke:none;">
<circle cx="66.2940" cy="92.9170" r="0.3000" /> 
</g>
<g style="fill:none; 
stroke:#4D7FC4; stroke-width:1.0000; stroke-opacity:1; 
stroke-linecap:round; stroke-linejoin:round;">
<path d="M87.1305 118.7500
L89.2755 116.6050
" />
<path d="M61.7220 100.0290
L61.7220 102.7280
" />
<path d="M57.1500 95.4570
L61.7220 100.0290
" />
</g>
<g style="fill:none; 
stroke:#4D7FC4; stroke-width:0.3000; stroke-opacity:1; 
stroke-linecap:round; stroke-linejoin:round;">
<path d="M57.1500 94.4410
L57.1500 95.4570
" />
</g>
<g style="fill:none; 
stroke:#4D7FC4; stroke-width:1.0000; stroke-opacity:1; 
stroke-linecap:round; stroke-linejoin:round;">
<path d="M89.2755 116.6050
L89.2755 115.6885
" />
<path d="M65.2030 118.7500
L87.1305 118.7500
" />
</g>
<g style="fill:none; 
stroke:#4D7FC4; stroke-width:0.3000; stroke-opacity:1; 
stroke-linecap:round; stroke-linejoin:round;">
<path d="M58.1660 102.7280
L61.7220 102.7280
" />
</g>
<g style="fill:none; 
stroke:#4D7FC4; stroke-width:1.0000; stroke-opacity:1; 
stroke-linecap:round; stroke-linejoin:round;">
<path d="M61.7220 115.2690
L65.2030 118.7500
" />
<path d="M61.7220 102.7280
L61.7220 115.2690
" />
</g>
<g style="fill:none; 
stroke:#4D7FC4; stroke-width:0.5000; stroke-opacity:1; 
stroke-linecap:round; stroke-linejoin:round;">
<path d="M59.9720 93.4440
L59.9720 96.1910
" />
<path d="M66.1435 91.5435
L65.2310 92.4560
" />
<path d="M65.2310 92.4560
L60.9600 92.4560
" />
<path d="M60.9600 92.4560
L59.9720 93.4440
" />
</g>
<g style="fill:none; 
stroke:#4D7FC4; stroke-width:0.3000; stroke-opacity:1; 
stroke-linecap:round; stroke-linejoin:round;">
<path d="M80.9340 115.1770
L80.9340 95.0410
" />
<path d="M80.9340 95.0410
L81.7880 94.1870
" />
<path d="M81.0260 115.2690
L80.9340 115.1770
" />
</g>
<g style="fill:none; 
stroke:#4D7FC4; stroke-width:0.1500; stroke-opacity:1; 
stroke-linecap:round; stroke-linejoin:round;">
<path d="M84.8360 96.9810
L85.8520 97.9970
" />
<path d="M85.8520 104.7043
L87.5140 106.3663
" />
<path d="M85.8520 97.9970
L85.8520 104.7043
" />
<path d="M86.4520 97.1430
L86.4520 103.2723
" />
<path d="M86.4520 103.2723
L87.5140 104.3343
" />
<path d="M86.5280 97.0670
L86.4520 97.1430
" />
<path d="M86.9890 91.6412
L86.9890 91.9832
" />
<path d="M88.4840 100.3163
L87.5140 101.2863
" />
<path d="M86.9220 91.5743
L86.9890 91.6412
" />
<path d="M88.4840 93.4782
L88.4840 100.3163
" />
<path d="M86.9890 91.9832
L88.4840 93.4782
" />
<path d="M85.3447 91.5056
L85.7437 91.9046
" />
<path d="M87.8840 98.8843
L87.5140 99.2543
" />
<path d="M87.8840 93.7267
L87.8840 98.8843
" />
<path d="M85.7437 91.9046
L86.0619 91.9046
" />
<path d="M85.1680 91.5056
L85.3447 91.5056
" />
<path d="M86.0619 91.9046
L87.8840 93.7267
" />
<path d="M88.1840 93.6024
L88.1840 99.6003
" />
<path d="M85.9612 91.3796
L88.1840 93.6024
" />
<path d="M88.1840 99.6003
L87.5140 100.2703
" />
<path d="M87.8840 92.4539
L88.7840 93.3539
" />
<path d="M87.8840 91.6470
L87.8840 92.4539
" />
<path d="M88.7840 101.0323
L87.5140 102.3023
" />
<path d="M88.7840 93.3539
L88.7840 101.0323
" />
<path d="M86.7520 97.5880
L86.7520 102.5563
" />
<path d="M86.7520 102.5563
L87.5140 103.3183
" />
<path d="M87.3590 96.9810
L86.7520 97.5880
" />
<path d="M86.1520 103.9883
L87.5140 105.3503
" />
<path d="M85.6885 97.3673
L86.1520 97.8309
" />
<path d="M85.6885 96.9699
L85.6885 97.3673
" />
<path d="M86.1520 97.8309
L86.1520 103.9883
" />
<path d="M83.5830 95.3620
L83.5950 95.3500
" />
<path d="M82.6755 99.1318
L81.7763 99.1318
" />
<path d="M83.5950 92.7593
L83.9580 92.3963
" />
<path d="M83.3580 98.4492
L82.6755 99.1318
" />
<path d="M83.3580 95.5870
L83.3580 98.4492
" />
<path d="M83.5830 95.3620
L83.3580 95.5870
" />
<path d="M83.5950 95.3500
L83.5950 92.7593
" />
<path d="M83.0580 92.5538
L83.0580 98.2510
" />
<path d="M82.8040 98.5050
L82.2960 98.5050
" />
<path d="M84.0371 91.5747
L83.0580 92.5538
" />
<path d="M84.3270 91.5747
L84.0371 91.5747
" />
<path d="M83.0580 98.2510
L82.8040 98.5050
" />
<path d="M83.9410 96.1820
L83.9410 101.3056
" />
<path d="M83.9410 101.3056
L83.5736 101.6731
" />
<path d="M83.8830 96.1240
L83.9410 96.1820
" />
<path d="M85.2143 110.6020
L87.7255 113.1132
" />
<path d="M85.2143 110.6020
L84.8360 110.6020
" />
<path d="M87.7255 113.1132
L87.7255 113.3960
" />
<path d="M66.5480 93.1710
L69.0880 93.1710
" />
<path d="M66.2940 92.9170
L66.5480 93.1710
" />
<path style="fill:#4D7FC4; fill-opacity:1.0000; stroke:none;fill-rule:evenodd;"
d="M 91.4183,90.1722
91.4400,90.2245
91.4400,119.7755
91.4183,119.8278
91.3660,119.8495
53.5426,119.8495
53.5375,119.8493
53.2883,119.8319
53.2781,119.8305
53.0362,119.7792
53.0263,119.7763
52.7939,119.6919
52.7845,119.6877
52.5661,119.5718
52.5574,119.5664
52.4450,119.4849
52.3572,119.4213
52.3493,119.4147
52.1712,119.2432
52.1643,119.2355
52.0118,119.0409
52.0060,119.0324
51.8820,118.8185
51.8774,118.8093
51.7843,118.5802
51.7811,118.5704
51.7208,118.3307
51.7189,118.3205
51.6925,118.0747
51.6921,118.0644
51.7000,117.8173
51.7010,117.8071
51.7432,117.5634
51.7457,117.5534
51.8222,117.3151
51.8240,117.3103
52.3357,116.0310
55.1449,116.0310
55.1449,116.0310
55.1653,116.3164
55.2261,116.5959
55.2261,116.5959
55.3261,116.8639
55.3261,116.8640
55.4632,117.1150
55.5699,117.2576
56.4648,116.3627
56.4765,116.3910
56.5597,116.5155
56.6655,116.6213
56.7900,116.7045
56.8183,116.7162
55.9234,117.6111
55.9234,117.6111
56.0660,117.7178
56.3170,117.8549
56.3170,117.8549
56.5851,117.9549
56.5851,117.9549
56.8646,118.0157
57.1500,118.0361
57.1500,118.0361
57.4354,118.0157
57.7149,117.9549
57.7149,117.9549
57.9829,117.8549
57.9830,117.8549
58.2340,117.7178
58.3766,117.6111
58.3766,117.6111
57.4817,116.7162
57.5100,116.7045
57.6345,116.6213
57.7403,116.5155
57.8235,116.3910
57.8352,116.3627
58.7301,117.2576
58.7301,117.2576
58.8368,117.1150
58.9739,116.8640
58.9739,116.8639
59.0739,116.5959
59.0739,116.5959
59.1347,116.3164
59.1551,116.0310
59.1551,116.0310
59.1347,115.7456
59.0739,115.4661
59.0739,115.4661
58.9739,115.1980
58.9739,115.1980
58.8368,114.9470
58.7301,114.8044
58.7301,114.8044
57.8352,115.6993
57.8235,115.6710
57.7403,115.5465
57.6345,115.4407
57.5100,115.3575
57.4817,115.3458
58.3766,114.4509
58.2340,114.3442
57.9830,114.2071
57.9829,114.2071
57.7149,114.1071
57.7149,114.1071
57.4354,114.0463
57.1500,114.0259
57.1500,114.0259
56.8646,114.0463
56.5851,114.1071
56.5851,114.1071
56.3170,114.2071
56.3170,114.2071
56.0660,114.3442
56.0660,114.3442
55.9234,114.4509
55.9234,114.4509
56.8183,115.3458
56.7900,115.3575
56.6655,115.4407
56.5597,115.5465
56.4765,115.6710
56.4648,115.6993
55.5699,114.8044
55.5699,114.8044
55.4632,114.9470
55.4632,114.9470
55.3261,115.1980
55.3261,115.1980
55.2261,115.4661
55.2261,115.4661
55.1653,115.7456
55.1449,116.0310
52.3357,116.0310
54.9736,109.4362
55.4995,109.4362
55.4995,112.4658
55.5082,112.5097
55.5415,112.5595
55.5913,112.5928
55.6352,112.6015
55.6352,112.6015
58.6648,112.6015
58.6648,112.6015
58.7087,112.5928
58.7585,112.5595
58.7918,112.5097
58.8005,112.4658
58.8005,109.4362
58.7918,109.3923
58.7585,109.3425
58.7087,109.3092
58.6648,109.3005
55.6352,109.3005
55.6132,109.3049
55.5913,109.3092
55.5415,109.3425
55.5415,109.3425
55.5082,109.3923
55.5082,109.3923
55.4995,109.4362
54.9736,109.4362
55.3792,108.4221
55.3792,108.4221
55.3821,108.4149
55.3822,108.4148
55.4409,108.2679
55.5584,107.8938
55.6472,107.5118
55.7066,107.1242
55.7365,106.7332
55.7365,106.5746
55.7365,106.5745
55.7365,103.4259
55.7365,103.4258
55.7365,103.2668
55.7066,102.8758
55.6472,102.4882
55.5584,102.1062
55.4409,101.7321
55.3822,101.5854
55.3822,101.5853
54.5565,99.5210
55.4944,99.5210
55.5148,99.7800
55.5754,100.0326
55.5754,100.0326
55.5754,100.0326
55.6208,100.1420
55.6748,100.2726
55.6749,100.2726
55.8077,100.4894
55.8106,100.4941
55.8674,100.5607
55.9753,100.6870
55.9793,100.6917
56.1769,100.8604
56.1962,100.8723
56.3984,100.9961
56.3984,100.9962
56.3984,100.9962
56.6384,101.0956
56.8910,101.1562
57.1500,101.1766
57.4090,101.1562
57.6616,101.0956
57.9016,100.9962
58.1231,100.8604
58.3207,100.6917
58.4894,100.4941
58.6252,100.2726
58.7246,100.0326
58.7852,99.7800
58.8056,99.5210
58.7852,99.2620
58.7246,99.0094
58.6252,98.7694
58.6252,98.7694
58.6251,98.7694
58.4894,98.5479
58.4894,98.5479
58.3207,98.3503
58.3207,98.3503
58.2137,98.2589
58.1231,98.1816
58.0896,98.1610
57.9016,98.0459
57.9016,98.0458
57.6616,97.9464
57.4090,97.8858
57.1500,97.8654
56.8910,97.8858
56.6384,97.9464
56.3984,98.0458
56.3984,98.0459
56.1769,98.1816
56.1769,98.1816
55.9793,98.3503
55.9793,98.3503
55.8106,98.5479
55.8106,98.5479
55.6749,98.7694
55.6748,98.7694
55.5754,99.0094
55.5148,99.2620
55.4944,99.5210
54.5565,99.5210
53.6192,97.1777
51.9186,92.9262
55.4995,92.9262
55.4995,95.9558
55.5082,95.9997
55.5415,96.0495
55.5913,96.0828
55.6352,96.0915
56.8339,96.0915
56.8862,96.1132
61.0498,100.2768
61.0715,100.3291
61.0715,102.3535
61.0498,102.4058
60.9975,102.4275
58.5355,102.4275
58.4832,102.4058
58.4796,102.4020
58.4641,102.3840
58.4641,102.3840
58.4640,102.3840
58.3970,102.3410
58.3551,102.3140
58.2308,102.2775
58.1012,102.2775
57.9769,102.3140
57.8680,102.3840
57.8680,102.3840
57.7831,102.4819
57.7831,102.4819
57.7831,102.4819
57.7562,102.5409
57.7293,102.5998
57.7109,102.7280
57.7293,102.8562
57.7293,102.8562
57.7293,102.8562
57.7831,102.9741
57.8680,103.0720
57.9769,103.1420
58.1012,103.1785
58.2308,103.1785
58.3551,103.1420
58.4640,103.0720
58.4796,103.0540
58.5302,103.0287
58.5355,103.0285
60.9975,103.0285
61.0498,103.0502
61.0715,103.1025
61.0715,115.3331
61.0943,115.4478
61.0943,115.4478
61.0965,115.4587
61.0965,115.4587
61.0965,115.4587
61.1131,115.4988
61.1455,115.5771
61.2163,115.6830
61.2167,115.6837
64.7883,119.2553
64.8949,119.3265
65.0133,119.3755
65.0133,119.3755
65.0133,119.3755
65.0559,119.3840
65.1389,119.4005
65.1389,119.4005
87.1946,119.4005
87.1946,119.4005
87.3202,119.3755
87.4386,119.3265
87.5452,119.2553
89.7808,117.0197
89.8520,116.9131
89.9010,116.7947
89.9136,116.7316
89.9260,116.6691
89.9260,115.6244
89.9010,115.4988
89.8520,115.3804
89.7808,115.2738
89.6902,115.1832
89.5836,115.1120
89.5836,115.1120
89.5836,115.1120
89.4652,115.0630
89.4652,115.0630
89.3697,115.0440
89.3396,115.0380
89.2114,115.0380
89.1813,115.0440
89.0858,115.0630
89.0858,115.0630
88.9674,115.1120
88.8608,115.1832
88.8608,115.1832
88.7702,115.2738
88.7702,115.2738
88.6990,115.3804
88.6500,115.4988
88.6500,115.4988
88.6250,115.6244
88.6250,116.3049
88.6033,116.3572
86.8827,118.0778
86.8304,118.0995
65.5031,118.0995
65.4508,118.0778
62.6419,115.2690
80.5709,115.2690
80.5893,115.3972
80.5893,115.3972
80.5893,115.3972
80.6431,115.5151
80.7280,115.6130
80.8369,115.6830
80.9612,115.7195
81.0908,115.7195
81.2151,115.6830
81.3240,115.6130
81.4089,115.5151
81.4627,115.3972
81.4811,115.2690
81.4627,115.1408
81.4089,115.0229
81.3240,114.9250
81.3240,114.9250
81.2685,114.8893
81.2362,114.8428
81.2345,114.8271
81.2345,110.6020
84.3809,110.6020
84.3993,110.7302
84.3993,110.7302
84.3993,110.7302
84.4531,110.8481
84.5380,110.9460
84.6469,111.0160
84.7712,111.0525
84.9008,111.0525
85.0251,111.0160
85.1340,110.9460
85.1341,110.9460
85.1381,110.9425
85.1402,110.9450
85.1814,110.9243
85.2351,110.9420
85.2391,110.9457
87.3406,113.0472
87.3623,113.0996
87.3452,113.1454
87.3454,113.1455
87.3448,113.1464
87.3442,113.1480
87.3426,113.1499
87.3426,113.1499
87.2888,113.2678
87.2703,113.3960
87.2888,113.5242
87.2888,113.5242
87.2888,113.5242
87.3426,113.6421
87.4274,113.7400
87.5364,113.8100
87.6607,113.8465
87.7902,113.8465
87.9145,113.8100
88.0235,113.7400
88.1083,113.6421
88.1622,113.5242
88.1806,113.3960
88.1622,113.2678
88.1083,113.1499
88.0235,113.0520
87.9175,112.9839
87.9052,112.9740
87.8490,112.9178
87.8490,112.9178
85.4159,110.4847
85.4159,110.4847
85.3420,110.4108
85.3420,110.4108
85.3178,110.4008
85.3178,110.4008
85.3178,110.4008
85.2592,110.3765
85.2569,110.3760
85.2540,110.3744
85.2524,110.3737
85.2525,110.3735
85.2154,110.3519
85.1341,110.2580
85.1341,110.2580
85.1340,110.2580
85.0670,110.2150
85.0251,110.1880
84.9008,110.1515
84.7712,110.1515
84.6469,110.1880
84.5380,110.2580
84.5379,110.2580
84.4531,110.3559
84.3993,110.4738
84.3809,110.6020
81.2345,110.6020
81.2345,99.3700
81.2562,99.3177
81.3085,99.2960
81.3608,99.3177
81.3758,99.3393
81.3934,99.3778
81.4782,99.4757
81.5872,99.5458
81.7115,99.5823
81.8411,99.5823
81.9654,99.5458
82.0743,99.4757
82.1549,99.3828
82.2055,99.3575
82.2108,99.3573
82.6220,99.3573
82.6220,99.3573
82.6306,99.3573
82.7203,99.3573
82.7203,99.3573
82.7789,99.3330
82.8032,99.3229
82.8666,99.2595
82.8666,99.2595
82.8770,99.2491
82.8770,99.2491
83.4753,98.6508
83.4753,98.6508
83.4857,98.6404
83.4857,98.6404
83.5492,98.5770
83.5622,98.5455
83.5731,98.5191
83.6132,98.4791
83.6698,98.4791
83.7099,98.5191
83.7155,98.5474
83.7155,101.1486
83.6938,101.2009
83.6415,101.2226
83.5088,101.2226
83.3845,101.2591
83.2755,101.3291
83.2755,101.3291
83.1907,101.4270
83.1369,101.5448
83.1184,101.6731
83.1369,101.8013
83.1369,101.8013
83.1369,101.8013
83.1907,101.9191
83.2755,102.0170
83.3845,102.0871
83.5088,102.1236
83.6383,102.1236
83.7626,102.0871
83.8716,102.0170
83.9565,101.9191
84.0103,101.8013
84.0287,101.6731
84.0169,101.5906
84.0309,101.5358
84.0378,101.5278
84.0583,101.5072
84.0583,101.5072
84.0687,101.4968
84.0687,101.4968
84.1322,101.4334
84.1393,101.4162
84.1422,101.4091
84.1665,101.3505
84.1665,101.2548
84.1665,101.2548
84.1665,96.5124
84.1846,96.4639
84.2659,96.3701
84.3197,96.2522
84.3381,96.1240
84.3197,95.9958
84.2659,95.8779
84.1810,95.7800
84.1140,95.7370
84.0721,95.7100
84.0193,95.6945
83.9752,95.6590
83.9692,95.6027
83.9729,95.5928
84.0197,95.4902
84.0381,95.3620
84.0197,95.2338
83.9659,95.1159
83.8810,95.0180
83.8810,95.0180
83.8545,95.0010
83.8222,94.9544
83.8205,94.9387
83.8205,92.9208
83.8422,92.8684
83.8945,92.8468
84.0228,92.8468
84.1471,92.8103
84.2560,92.7402
84.3409,92.6423
84.3947,92.5245
84.4131,92.3963
84.3947,92.2680
84.3409,92.1502
84.3409,92.1502
84.3409,92.1502
84.3409,92.1502
84.3387,92.1476
84.3380,92.1458
84.3380,92.1458
84.3380,92.1457
84.3208,92.0939
84.3461,92.0432
84.3868,92.0281
84.3865,92.0259
84.3918,92.0252
84.3918,92.0252
84.5161,91.9887
84.6250,91.9186
84.7099,91.8207
84.7099,91.8207
84.7127,91.8163
84.7148,91.8176
84.7501,91.7848
84.8067,91.7868
84.8319,91.8057
84.8700,91.8496
84.8700,91.8496
84.8700,91.8496
84.9789,91.9196
85.1032,91.9561
85.2328,91.9561
85.2328,91.9561
85.2377,91.9547
85.3571,91.9196
85.3573,91.9195
85.3574,91.9195
85.3619,91.9174
85.3624,91.9186
85.4130,91.9094
85.4496,91.9294
85.5483,92.0281
85.5483,92.0281
85.5525,92.0323
85.6160,92.0957
85.6402,92.1058
85.6988,92.1301
85.6988,92.1301
85.7972,92.1301
85.7972,92.1301
85.9378,92.1301
85.9902,92.1517
87.6368,93.7984
87.6585,93.8507
87.6585,96.5024
87.6368,96.5548
87.5845,96.5764
87.5537,96.5674
87.5529,96.5692
87.5481,96.5670
87.4238,96.5305
87.2942,96.5305
87.1699,96.5670
87.0610,96.6370
87.0609,96.6370
86.9761,96.7349
86.9757,96.7358
86.9753,96.7361
86.9733,96.7394
86.9724,96.7389
86.9343,96.7744
86.8777,96.7723
86.8525,96.7535
86.8268,96.7238
86.8261,96.7230
86.8261,96.7230
86.8261,96.7230
86.7591,96.6799
86.7171,96.6530
86.5928,96.6165
86.4633,96.6165
86.3390,96.6530
86.2300,96.7230
86.2300,96.7230
86.2013,96.7561
86.1506,96.7815
86.0969,96.7636
86.0780,96.7384
86.0764,96.7349
86.0713,96.7238
85.9865,96.6259
85.8955,96.5674
85.8775,96.5559
85.7532,96.5194
85.6237,96.5194
85.4994,96.5559
85.3904,96.6259
85.3904,96.6259
85.3133,96.7148
85.2627,96.7402
85.2089,96.7223
85.2015,96.7148
85.1955,96.7079
85.1340,96.6370
85.0670,96.5940
85.0251,96.5670
84.9008,96.5305
84.7712,96.5305
84.6469,96.5670
84.5380,96.6370
84.5379,96.6370
84.4531,96.7349
84.4531,96.7349
84.4531,96.7349
84.4434,96.7561
84.3993,96.8528
84.3809,96.9810
84.3993,97.1092
84.3993,97.1092
84.3993,97.1092
84.4531,97.2271
84.5380,97.3250
84.6469,97.3950
84.7712,97.4315
84.9008,97.4315
84.9008,97.4315
84.9103,97.4287
84.9666,97.4348
84.9835,97.4474
85.6048,98.0687
85.6265,98.1211
85.6265,104.6534
85.6265,104.6535
85.6265,104.7491
85.6413,104.7848
85.6608,104.8320
85.6608,104.8320
85.7347,104.9059
85.7347,104.9059
87.0498,106.2210
87.0715,106.2733
87.0707,106.2838
87.0589,106.3663
87.0773,106.4945
87.0773,106.4945
87.0773,106.4945
87.1311,106.6123
87.2160,106.7102
87.3249,106.7803
87.4492,106.8168
87.5788,106.8168
87.7031,106.7803
87.8120,106.7102
87.8969,106.6123
87.9507,106.4945
87.9691,106.3663
87.9507,106.2380
87.8969,106.1202
87.8120,106.0223
87.7450,105.9792
87.7031,105.9523
87.6248,105.9293
87.5807,105.8937
87.5746,105.8374
87.6101,105.7933
87.6248,105.7873
87.7031,105.7643
87.8120,105.6942
87.8969,105.5963
87.9507,105.4785
87.9691,105.3503
87.9507,105.2220
87.8969,105.1042
87.8120,105.0063
87.7450,104.9632
87.7031,104.9363
87.6248,104.9133
87.5807,104.8777
87.5746,104.8214
87.6101,104.7773
87.6248,104.7713
87.7031,104.7483
87.8120,104.6782
87.8969,104.5803
87.9507,104.4625
87.9691,104.3343
87.9507,104.2060
87.8969,104.0882
87.8120,103.9903
87.7450,103.9472
87.7031,103.9203
87.6248,103.8973
87.5807,103.8617
87.5746,103.8054
87.6101,103.7613
87.6248,103.7553
87.7031,103.7323
87.8120,103.6622
87.8969,103.5643
87.9507,103.4465
87.9691,103.3183
87.9507,103.1900
87.8969,103.0722
87.8120,102.9743
87.7450,102.9312
87.7031,102.9043
87.6248,102.8813
87.5807,102.8457
87.5746,102.7894
87.6101,102.7453
87.6248,102.7393
87.6643,102.7277
87.7031,102.7163
87.8120,102.6462
87.8969,102.5483
87.9507,102.4305
87.9691,102.3023
87.9573,102.2198
87.9713,102.1650
87.9782,102.1570
88.9013,101.2338
88.9013,101.2338
88.9117,101.2234
88.9117,101.2234
88.9752,101.1600
89.0095,101.0771
89.0095,93.3090
88.9752,93.2262
88.9117,93.1627
88.9075,93.1585
88.9075,93.1585
88.1312,92.3822
88.1095,92.3298
88.1095,92.0780
88.1312,92.0257
88.1435,92.0157
88.1820,91.9910
88.2669,91.8931
88.3207,91.7752
88.3391,91.6470
88.3207,91.5188
88.2669,91.4009
88.1820,91.3030
88.0789,91.2367
88.0731,91.2330
87.9488,91.1965
87.8192,91.1965
87.6949,91.2330
87.5860,91.3030
87.5859,91.3030
87.5011,91.4009
87.5011,91.4009
87.4869,91.4320
87.4455,91.4706
87.3889,91.4685
87.3523,91.4320
87.3049,91.3282
87.2201,91.2303
87.1441,91.1815
87.1111,91.1603
86.9868,91.1238
86.8573,91.1238
86.7330,91.1603
86.6240,91.2303
86.6240,91.2303
86.5357,91.3322
86.5342,91.3309
86.4934,91.3592
86.4377,91.3492
86.4054,91.3027
86.4045,91.2975
86.3997,91.2640
86.3978,91.2513
86.3440,91.1335
86.2592,91.0356
86.1533,90.9676
86.1502,90.9656
86.0259,90.9291
85.8964,90.9291
85.7721,90.9656
85.6631,91.0356
85.6631,91.0356
85.5783,91.1335
85.5754,91.1380
85.5742,91.1372
85.5368,91.1720
85.4802,91.1700
85.4709,91.1640
85.4705,91.1645
85.4645,91.1607
85.4071,91.1238
85.3571,91.0916
85.2328,91.0551
85.1032,91.0551
84.9789,91.0916
84.8700,91.1617
84.8700,91.1617
84.7851,91.2596
84.7823,91.2640
84.7802,91.2627
84.7449,91.2955
84.6883,91.2935
84.6631,91.2746
84.6250,91.2307
84.6250,91.2307
84.6250,91.2307
84.5484,91.1815
84.5161,91.1607
84.3918,91.1242
84.2622,91.1242
84.1379,91.1607
84.0289,91.2307
84.0289,91.2307
83.9441,91.3286
83.9320,91.3551
83.9133,91.3771
83.9146,91.3784
83.9094,91.3835
83.9094,91.3835
83.4057,91.8873
82.9303,92.3626
82.8668,92.4261
82.8612,92.4397
82.8325,92.5090
82.8325,92.6073
82.8325,92.6073
82.8325,98.1269
82.8108,98.1793
82.8108,98.1793
82.7594,98.2307
82.7070,98.2524
82.6547,98.2307
82.6511,98.2269
82.5941,98.1610
82.5941,98.1610
82.5940,98.1610
82.5270,98.1180
82.4851,98.0910
82.3608,98.0545
82.2312,98.0545
82.1069,98.0910
81.9980,98.1610
81.9980,98.1610
81.9131,98.2589
81.8593,98.3768
81.8424,98.4941
81.8409,98.5050
81.8512,98.5770
81.8541,98.5967
81.8400,98.6516
81.7913,98.6805
81.7808,98.6813
81.7115,98.6813
81.5872,98.7178
81.4782,98.7878
81.4782,98.7878
81.3934,98.8857
81.3934,98.8857
81.3758,98.9242
81.3344,98.9628
81.2778,98.9608
81.2392,98.9194
81.2345,98.8935
81.2345,95.1961
81.2562,95.1438
81.7408,94.6592
81.7931,94.6375
81.8528,94.6375
81.9771,94.6010
82.0860,94.5310
82.1709,94.4331
82.2247,94.3152
82.2431,94.1870
82.2247,94.0588
82.1709,93.9409
82.0860,93.8430
82.0166,93.7984
81.9771,93.7730
81.8528,93.7365
81.7232,93.7365
81.5989,93.7730
81.4900,93.8430
81.4899,93.8430
81.4051,93.9409
81.3513,94.0588
81.3321,94.1922
81.3306,94.1920
81.3112,94.2388
80.7495,94.8005
80.6935,94.8565
80.6540,94.9250
80.6540,94.9250
80.6335,95.0014
80.6335,115.0279
80.6268,115.0586
80.5893,115.1408
80.5709,115.2690
62.6419,115.2690
62.3942,115.0212
62.3725,114.9689
62.3725,99.9649
62.3475,99.8393
62.3475,99.8393
62.3450,99.8333
62.2985,99.7209
62.2479,99.6451
62.2273,99.6143
58.8039,96.1910
59.5169,96.1910
59.5353,96.3192
59.5353,96.3192
59.5353,96.3192
59.5891,96.4371
59.6740,96.5350
59.7829,96.6050
59.9072,96.6415
60.0368,96.6415
60.1611,96.6050
60.2700,96.5350
60.3549,96.4371
60.4087,96.3192
60.4271,96.1910
60.4087,96.0628
60.4026,96.0495
60.3792,95.9982
60.3725,95.9674
60.3725,93.6405
60.3942,93.5882
61.0654,92.9170
65.8389,92.9170
65.8573,93.0452
65.8573,93.0452
65.8573,93.0452
65.9111,93.1631
65.9960,93.2610
66.1049,93.3310
66.2292,93.3675
66.3588,93.3675
66.3772,93.3621
66.4264,93.3647
66.5031,93.3965
66.5929,93.3965
68.6535,93.3965
68.7058,93.4182
68.7094,93.4220
68.7899,93.5150
68.7899,93.5150
68.7900,93.5150
68.8989,93.5850
69.0232,93.6215
69.1528,93.6215
69.2771,93.5850
69.3860,93.5150
69.4709,93.4171
69.5247,93.2992
69.5431,93.1710
69.5247,93.0428
69.4709,92.9249
69.3860,92.8270
69.3074,92.7765
69.2771,92.7570
69.1528,92.7205
69.0232,92.7205
68.8989,92.7570
68.7900,92.8270
68.7899,92.8270
68.7094,92.9200
68.6588,92.9453
68.6535,92.9455
66.8174,92.9455
66.7650,92.9238
66.7441,92.8820
66.7307,92.7888
66.6769,92.6709
66.5920,92.5730
66.5250,92.5300
66.4831,92.5030
66.3588,92.4665
66.2292,92.4665
66.1049,92.5030
65.9960,92.5730
65.9959,92.5730
65.9111,92.6709
65.8573,92.7888
65.8389,92.9170
61.0654,92.9170
61.1042,92.8782
61.1565,92.8565
65.2837,92.8565
65.2837,92.8565
65.3856,92.8292
65.4769,92.7765
66.2673,91.9861
66.2988,91.9674
66.3326,91.9575
66.4415,91.8875
66.5264,91.7896
66.5802,91.6717
66.5986,91.5435
66.5802,91.4153
66.5264,91.2974
66.4415,91.1995
66.3745,91.1565
66.3326,91.1295
66.2083,91.0930
66.0787,91.0930
65.9544,91.1295
65.8455,91.1995
65.8454,91.1995
65.7606,91.2974
65.7136,91.4004
65.6986,91.4220
65.0868,92.0338
65.0345,92.0555
61.0127,92.0555
60.9073,92.0555
60.8820,92.0623
60.8054,92.0828
60.8054,92.0828
60.7141,92.1355
59.6515,93.1981
59.5988,93.2894
59.5988,93.2894
59.5793,93.3622
59.5793,93.3622
59.5715,93.3913
59.5715,95.9674
59.5648,95.9982
59.5353,96.0628
59.5353,96.0628
59.5169,96.1910
58.8039,96.1910
58.7628,96.1499
58.7411,96.0975
58.7576,96.0577
58.7545,96.0556
58.7587,96.0491
58.7918,95.9997
58.8005,95.9558
58.8005,92.9262
58.7918,92.8823
58.7585,92.8325
58.7536,92.8292
58.7087,92.7992
58.7015,92.7978
58.6648,92.7905
55.6352,92.7905
55.6132,92.7949
55.5913,92.7992
55.5415,92.8325
55.5415,92.8325
55.5082,92.8823
55.5082,92.8823
55.4995,92.9262
51.9186,92.9262
51.8238,92.6893
51.8221,92.6844
51.8085,92.6423
51.7457,92.4466
51.7432,92.4366
51.7010,92.1929
51.7000,92.1827
51.6920,91.9356
51.6924,91.9253
51.7189,91.6795
51.7207,91.6693
51.7811,91.4295
51.7843,91.4198
51.8774,91.1907
51.8819,91.1815
52.0060,90.9676
52.0117,90.9590
52.0352,90.9291
52.1643,90.7644
52.1712,90.7568
52.3493,90.5853
52.3572,90.5787
52.5574,90.4336
52.5661,90.4281
52.7845,90.3122
52.7939,90.3081
53.0263,90.2236
53.0362,90.2208
53.2781,90.1695
53.2883,90.1680
53.5370,90.1507
53.5422,90.1505
91.3660,90.1505
Z" /> 
</g>
<g style="fill:none; 
stroke:#D0D2CD; stroke-width:0.1500; stroke-opacity:1; 
stroke-linecap:round; stroke-linejoin:round;">
<path d="M55.5860 103.4629 A5.0000 5.0000 0.0 0 0 55.2284 101.6060" />
<path d="M260.2277 103.2850
L239.2736 90.7125
" />
<path d="M236.7011 90.0000
L53.5401 90.0000
" />
<path d="M51.6831 92.7428
L55.2284 101.6060
" />
<path d="M53.5401 90.0000 A2.0000 2.0000 0.0 0 0 51.6831 92.7428" />
<path d="M55.2284 108.3940 A4.9999 4.9999 0.0 0 0 55.5860 106.5371" />
<path d="M236.7011 120.0000 A5.0000 5.0000 0.0 0 0 239.2736 119.2875" />
<path d="M55.5860 103.4629
L55.5860 106.5371
" />
<path d="M260.2277 106.7150 A2.0000 2.0000 0.0 0 0 260.2277 103.2850" />
<path d="M55.2284 108.3940
L51.6831 117.2572
" />
<path d="M239.2736 90.7125 A4.9999 4.9999 0.0 0 0 236.7011 90.0000" />
<path d="M260.2277 106.7150
L239.2736 119.2875
" />
<path d="M53.5401 120.0000
L236.7011 120.0000
" />
<path d="M51.6831 117.2572 A2.0000 2.0000 0.0 0 0 53.5401 120.0000" />
</g> 
</svg>
