<?xml version="1.0" encoding="utf-8" standalone="no"?>
<!DOCTYPE svg PUBLIC "-//W3C//DTD SVG 1.1//EN"
  "http://www.w3.org/Graphics/SVG/1.1/DTD/svg11.dtd">
<svg xmlns:xlink="http://www.w3.org/1999/xlink" width="648pt" height="216pt" viewBox="0 0 648 216" xmlns="http://www.w3.org/2000/svg" version="1.1">
 <metadata>
  <rdf:RDF xmlns:dc="http://purl.org/dc/elements/1.1/" xmlns:cc="http://creativecommons.org/ns#" xmlns:rdf="http://www.w3.org/1999/02/22-rdf-syntax-ns#">
   <cc:Work>
    <dc:type rdf:resource="http://purl.org/dc/dcmitype/StillImage"/>
    <dc:date>2024-05-14T11:29:29.513466</dc:date>
    <dc:format>image/svg+xml</dc:format>
    <dc:creator>
     <cc:Agent>
      <dc:title>Matplotlib v3.8.4, https://matplotlib.org/</dc:title>
     </cc:Agent>
    </dc:creator>
   </cc:Work>
  </rdf:RDF>
 </metadata>
 <defs>
  <style type="text/css">*{stroke-linejoin: round; stroke-linecap: butt}</style>
 </defs>
 <g id="figure_1">
  <g id="patch_1">
   <path d="M 0 216 
L 648 216 
L 648 0 
L 0 0 
z
" style="fill: #ffffff"/>
  </g>
  <g id="axes_1">
   <g id="patch_2">
    <path d="M 50.87 150.100464 
L 600.28 150.100464 
L 600.28 10.8 
L 50.87 10.8 
z
" style="fill: #ffffff"/>
   </g>
   <g id="matplotlib.axis_1">
    <g id="xtick_1">
     <g id="line2d_1">
      <defs>
       <path id="m783393c923" d="M 0 0 
L 0 3.5 
" style="stroke: #000000; stroke-width: 0.8"/>
      </defs>
      <g>
       <use xlink:href="#m783393c923" x="119.12683" y="150.100464" style="stroke: #000000; stroke-width: 0.8"/>
      </g>
     </g>
     <g id="text_1">
      <!-- 12.05 00h -->
      <g transform="translate(74.033356 189.115279) rotate(-30) scale(0.1 -0.1)">
       <defs>
        <path id="DejaVuSans-31" d="M 794 531 
L 1825 531 
L 1825 4091 
L 703 3866 
L 703 4441 
L 1819 4666 
L 2450 4666 
L 2450 531 
L 3481 531 
L 3481 0 
L 794 0 
L 794 531 
z
" transform="scale(0.015625)"/>
        <path id="DejaVuSans-32" d="M 1228 531 
L 3431 531 
L 3431 0 
L 469 0 
L 469 531 
Q 828 903 1448 1529 
Q 2069 2156 2228 2338 
Q 2531 2678 2651 2914 
Q 2772 3150 2772 3378 
Q 2772 3750 2511 3984 
Q 2250 4219 1831 4219 
Q 1534 4219 1204 4116 
Q 875 4013 500 3803 
L 500 4441 
Q 881 4594 1212 4672 
Q 1544 4750 1819 4750 
Q 2544 4750 2975 4387 
Q 3406 4025 3406 3419 
Q 3406 3131 3298 2873 
Q 3191 2616 2906 2266 
Q 2828 2175 2409 1742 
Q 1991 1309 1228 531 
z
" transform="scale(0.015625)"/>
        <path id="DejaVuSans-2e" d="M 684 794 
L 1344 794 
L 1344 0 
L 684 0 
L 684 794 
z
" transform="scale(0.015625)"/>
        <path id="DejaVuSans-30" d="M 2034 4250 
Q 1547 4250 1301 3770 
Q 1056 3291 1056 2328 
Q 1056 1369 1301 889 
Q 1547 409 2034 409 
Q 2525 409 2770 889 
Q 3016 1369 3016 2328 
Q 3016 3291 2770 3770 
Q 2525 4250 2034 4250 
z
M 2034 4750 
Q 2819 4750 3233 4129 
Q 3647 3509 3647 2328 
Q 3647 1150 3233 529 
Q 2819 -91 2034 -91 
Q 1250 -91 836 529 
Q 422 1150 422 2328 
Q 422 3509 836 4129 
Q 1250 4750 2034 4750 
z
" transform="scale(0.015625)"/>
        <path id="DejaVuSans-35" d="M 691 4666 
L 3169 4666 
L 3169 4134 
L 1269 4134 
L 1269 2991 
Q 1406 3038 1543 3061 
Q 1681 3084 1819 3084 
Q 2600 3084 3056 2656 
Q 3513 2228 3513 1497 
Q 3513 744 3044 326 
Q 2575 -91 1722 -91 
Q 1428 -91 1123 -41 
Q 819 9 494 109 
L 494 744 
Q 775 591 1075 516 
Q 1375 441 1709 441 
Q 2250 441 2565 725 
Q 2881 1009 2881 1497 
Q 2881 1984 2565 2268 
Q 2250 2553 1709 2553 
Q 1456 2553 1204 2497 
Q 953 2441 691 2322 
L 691 4666 
z
" transform="scale(0.015625)"/>
        <path id="DejaVuSans-20" transform="scale(0.015625)"/>
        <path id="DejaVuSans-68" d="M 3513 2113 
L 3513 0 
L 2938 0 
L 2938 2094 
Q 2938 2591 2744 2837 
Q 2550 3084 2163 3084 
Q 1697 3084 1428 2787 
Q 1159 2491 1159 1978 
L 1159 0 
L 581 0 
L 581 4863 
L 1159 4863 
L 1159 2956 
Q 1366 3272 1645 3428 
Q 1925 3584 2291 3584 
Q 2894 3584 3203 3211 
Q 3513 2838 3513 2113 
z
" transform="scale(0.015625)"/>
       </defs>
       <use xlink:href="#DejaVuSans-31"/>
       <use xlink:href="#DejaVuSans-32" x="63.623047"/>
       <use xlink:href="#DejaVuSans-2e" x="127.246094"/>
       <use xlink:href="#DejaVuSans-30" x="159.033203"/>
       <use xlink:href="#DejaVuSans-35" x="222.65625"/>
       <use xlink:href="#DejaVuSans-20" x="286.279297"/>
       <use xlink:href="#DejaVuSans-30" x="318.066406"/>
       <use xlink:href="#DejaVuSans-30" x="381.689453"/>
       <use xlink:href="#DejaVuSans-68" x="445.3125"/>
      </g>
     </g>
    </g>
    <g id="xtick_2">
     <g id="line2d_2">
      <g>
       <use xlink:href="#m783393c923" x="211.712173" y="150.100464" style="stroke: #000000; stroke-width: 0.8"/>
      </g>
     </g>
     <g id="text_2">
      <!-- 12.05 12h -->
      <g transform="translate(166.6187 189.115279) rotate(-30) scale(0.1 -0.1)">
       <use xlink:href="#DejaVuSans-31"/>
       <use xlink:href="#DejaVuSans-32" x="63.623047"/>
       <use xlink:href="#DejaVuSans-2e" x="127.246094"/>
       <use xlink:href="#DejaVuSans-30" x="159.033203"/>
       <use xlink:href="#DejaVuSans-35" x="222.65625"/>
       <use xlink:href="#DejaVuSans-20" x="286.279297"/>
       <use xlink:href="#DejaVuSans-31" x="318.066406"/>
       <use xlink:href="#DejaVuSans-32" x="381.689453"/>
       <use xlink:href="#DejaVuSans-68" x="445.3125"/>
      </g>
     </g>
    </g>
    <g id="xtick_3">
     <g id="line2d_3">
      <g>
       <use xlink:href="#m783393c923" x="304.297516" y="150.100464" style="stroke: #000000; stroke-width: 0.8"/>
      </g>
     </g>
     <g id="text_3">
      <!-- 13.05 00h -->
      <g transform="translate(259.204043 189.115279) rotate(-30) scale(0.1 -0.1)">
       <defs>
        <path id="DejaVuSans-33" d="M 2597 2516 
Q 3050 2419 3304 2112 
Q 3559 1806 3559 1356 
Q 3559 666 3084 287 
Q 2609 -91 1734 -91 
Q 1441 -91 1130 -33 
Q 819 25 488 141 
L 488 750 
Q 750 597 1062 519 
Q 1375 441 1716 441 
Q 2309 441 2620 675 
Q 2931 909 2931 1356 
Q 2931 1769 2642 2001 
Q 2353 2234 1838 2234 
L 1294 2234 
L 1294 2753 
L 1863 2753 
Q 2328 2753 2575 2939 
Q 2822 3125 2822 3475 
Q 2822 3834 2567 4026 
Q 2313 4219 1838 4219 
Q 1578 4219 1281 4162 
Q 984 4106 628 3988 
L 628 4550 
Q 988 4650 1302 4700 
Q 1616 4750 1894 4750 
Q 2613 4750 3031 4423 
Q 3450 4097 3450 3541 
Q 3450 3153 3228 2886 
Q 3006 2619 2597 2516 
z
" transform="scale(0.015625)"/>
       </defs>
       <use xlink:href="#DejaVuSans-31"/>
       <use xlink:href="#DejaVuSans-33" x="63.623047"/>
       <use xlink:href="#DejaVuSans-2e" x="127.246094"/>
       <use xlink:href="#DejaVuSans-30" x="159.033203"/>
       <use xlink:href="#DejaVuSans-35" x="222.65625"/>
       <use xlink:href="#DejaVuSans-20" x="286.279297"/>
       <use xlink:href="#DejaVuSans-30" x="318.066406"/>
       <use xlink:href="#DejaVuSans-30" x="381.689453"/>
       <use xlink:href="#DejaVuSans-68" x="445.3125"/>
      </g>
     </g>
    </g>
    <g id="xtick_4">
     <g id="line2d_4">
      <g>
       <use xlink:href="#m783393c923" x="396.88286" y="150.100464" style="stroke: #000000; stroke-width: 0.8"/>
      </g>
     </g>
     <g id="text_4">
      <!-- 13.05 12h -->
      <g transform="translate(351.789386 189.115279) rotate(-30) scale(0.1 -0.1)">
       <use xlink:href="#DejaVuSans-31"/>
       <use xlink:href="#DejaVuSans-33" x="63.623047"/>
       <use xlink:href="#DejaVuSans-2e" x="127.246094"/>
       <use xlink:href="#DejaVuSans-30" x="159.033203"/>
       <use xlink:href="#DejaVuSans-35" x="222.65625"/>
       <use xlink:href="#DejaVuSans-20" x="286.279297"/>
       <use xlink:href="#DejaVuSans-31" x="318.066406"/>
       <use xlink:href="#DejaVuSans-32" x="381.689453"/>
       <use xlink:href="#DejaVuSans-68" x="445.3125"/>
      </g>
     </g>
    </g>
    <g id="xtick_5">
     <g id="line2d_5">
      <g>
       <use xlink:href="#m783393c923" x="489.468203" y="150.100464" style="stroke: #000000; stroke-width: 0.8"/>
      </g>
     </g>
     <g id="text_5">
      <!-- 14.05 00h -->
      <g transform="translate(444.37473 189.115279) rotate(-30) scale(0.1 -0.1)">
       <defs>
        <path id="DejaVuSans-34" d="M 2419 4116 
L 825 1625 
L 2419 1625 
L 2419 4116 
z
M 2253 4666 
L 3047 4666 
L 3047 1625 
L 3713 1625 
L 3713 1100 
L 3047 1100 
L 3047 0 
L 2419 0 
L 2419 1100 
L 313 1100 
L 313 1709 
L 2253 4666 
z
" transform="scale(0.015625)"/>
       </defs>
       <use xlink:href="#DejaVuSans-31"/>
       <use xlink:href="#DejaVuSans-34" x="63.623047"/>
       <use xlink:href="#DejaVuSans-2e" x="127.246094"/>
       <use xlink:href="#DejaVuSans-30" x="159.033203"/>
       <use xlink:href="#DejaVuSans-35" x="222.65625"/>
       <use xlink:href="#DejaVuSans-20" x="286.279297"/>
       <use xlink:href="#DejaVuSans-30" x="318.066406"/>
       <use xlink:href="#DejaVuSans-30" x="381.689453"/>
       <use xlink:href="#DejaVuSans-68" x="445.3125"/>
      </g>
     </g>
    </g>
    <g id="xtick_6">
     <g id="line2d_6">
      <g>
       <use xlink:href="#m783393c923" x="582.053546" y="150.100464" style="stroke: #000000; stroke-width: 0.8"/>
      </g>
     </g>
     <g id="text_6">
      <!-- 14.05 12h -->
      <g transform="translate(536.960073 189.115279) rotate(-30) scale(0.1 -0.1)">
       <use xlink:href="#DejaVuSans-31"/>
       <use xlink:href="#DejaVuSans-34" x="63.623047"/>
       <use xlink:href="#DejaVuSans-2e" x="127.246094"/>
       <use xlink:href="#DejaVuSans-30" x="159.033203"/>
       <use xlink:href="#DejaVuSans-35" x="222.65625"/>
       <use xlink:href="#DejaVuSans-20" x="286.279297"/>
       <use xlink:href="#DejaVuSans-31" x="318.066406"/>
       <use xlink:href="#DejaVuSans-32" x="381.689453"/>
       <use xlink:href="#DejaVuSans-68" x="445.3125"/>
      </g>
     </g>
    </g>
    <g id="text_7">
     <!-- Time -->
     <g transform="translate(313.341406 202.514779) scale(0.1 -0.1)">
      <defs>
       <path id="DejaVuSans-54" d="M -19 4666 
L 3928 4666 
L 3928 4134 
L 2272 4134 
L 2272 0 
L 1638 0 
L 1638 4134 
L -19 4134 
L -19 4666 
z
" transform="scale(0.015625)"/>
       <path id="DejaVuSans-69" d="M 603 3500 
L 1178 3500 
L 1178 0 
L 603 0 
L 603 3500 
z
M 603 4863 
L 1178 4863 
L 1178 4134 
L 603 4134 
L 603 4863 
z
" transform="scale(0.015625)"/>
       <path id="DejaVuSans-6d" d="M 3328 2828 
Q 3544 3216 3844 3400 
Q 4144 3584 4550 3584 
Q 5097 3584 5394 3201 
Q 5691 2819 5691 2113 
L 5691 0 
L 5113 0 
L 5113 2094 
Q 5113 2597 4934 2840 
Q 4756 3084 4391 3084 
Q 3944 3084 3684 2787 
Q 3425 2491 3425 1978 
L 3425 0 
L 2847 0 
L 2847 2094 
Q 2847 2600 2669 2842 
Q 2491 3084 2119 3084 
Q 1678 3084 1418 2786 
Q 1159 2488 1159 1978 
L 1159 0 
L 581 0 
L 581 3500 
L 1159 3500 
L 1159 2956 
Q 1356 3278 1631 3431 
Q 1906 3584 2284 3584 
Q 2666 3584 2933 3390 
Q 3200 3197 3328 2828 
z
" transform="scale(0.015625)"/>
       <path id="DejaVuSans-65" d="M 3597 1894 
L 3597 1613 
L 953 1613 
Q 991 1019 1311 708 
Q 1631 397 2203 397 
Q 2534 397 2845 478 
Q 3156 559 3463 722 
L 3463 178 
Q 3153 47 2828 -22 
Q 2503 -91 2169 -91 
Q 1331 -91 842 396 
Q 353 884 353 1716 
Q 353 2575 817 3079 
Q 1281 3584 2069 3584 
Q 2775 3584 3186 3129 
Q 3597 2675 3597 1894 
z
M 3022 2063 
Q 3016 2534 2758 2815 
Q 2500 3097 2075 3097 
Q 1594 3097 1305 2825 
Q 1016 2553 972 2059 
L 3022 2063 
z
" transform="scale(0.015625)"/>
      </defs>
      <use xlink:href="#DejaVuSans-54"/>
      <use xlink:href="#DejaVuSans-69" x="57.958984"/>
      <use xlink:href="#DejaVuSans-6d" x="85.742188"/>
      <use xlink:href="#DejaVuSans-65" x="183.154297"/>
     </g>
    </g>
   </g>
   <g id="matplotlib.axis_2">
    <g id="ytick_1">
     <g id="line2d_7">
      <defs>
       <path id="m4633175d44" d="M 0 0 
L -3.5 0 
" style="stroke: #000000; stroke-width: 0.8"/>
      </defs>
      <g>
       <use xlink:href="#m4633175d44" x="50.87" y="150.100464" style="stroke: #000000; stroke-width: 0.8"/>
      </g>
     </g>
     <g id="text_8">
      <!-- 0 -->
      <g transform="translate(37.5075 153.899683) scale(0.1 -0.1)">
       <use xlink:href="#DejaVuSans-30"/>
      </g>
     </g>
    </g>
    <g id="ytick_2">
     <g id="line2d_8">
      <g>
       <use xlink:href="#m4633175d44" x="50.87" y="110.23357" style="stroke: #000000; stroke-width: 0.8"/>
      </g>
     </g>
     <g id="text_9">
      <!-- 50 -->
      <g transform="translate(31.145 114.032789) scale(0.1 -0.1)">
       <use xlink:href="#DejaVuSans-35"/>
       <use xlink:href="#DejaVuSans-30" x="63.623047"/>
      </g>
     </g>
    </g>
    <g id="ytick_3">
     <g id="line2d_9">
      <g>
       <use xlink:href="#m4633175d44" x="50.87" y="70.366676" style="stroke: #000000; stroke-width: 0.8"/>
      </g>
     </g>
     <g id="text_10">
      <!-- 100 -->
      <g transform="translate(24.7825 74.165895) scale(0.1 -0.1)">
       <use xlink:href="#DejaVuSans-31"/>
       <use xlink:href="#DejaVuSans-30" x="63.623047"/>
       <use xlink:href="#DejaVuSans-30" x="127.246094"/>
      </g>
     </g>
    </g>
    <g id="ytick_4">
     <g id="line2d_10">
      <g>
       <use xlink:href="#m4633175d44" x="50.87" y="30.499783" style="stroke: #000000; stroke-width: 0.8"/>
      </g>
     </g>
     <g id="text_11">
      <!-- 150 -->
      <g transform="translate(24.7825 34.299001) scale(0.1 -0.1)">
       <use xlink:href="#DejaVuSans-31"/>
       <use xlink:href="#DejaVuSans-35" x="63.623047"/>
       <use xlink:href="#DejaVuSans-30" x="127.246094"/>
      </g>
     </g>
    </g>
    <g id="text_12">
     <!-- Battery charging power [mW/h] -->
     <g transform="translate(18.702812 159.603357) rotate(-90) scale(0.1 -0.1)">
      <defs>
       <path id="DejaVuSans-42" d="M 1259 2228 
L 1259 519 
L 2272 519 
Q 2781 519 3026 730 
Q 3272 941 3272 1375 
Q 3272 1813 3026 2020 
Q 2781 2228 2272 2228 
L 1259 2228 
z
M 1259 4147 
L 1259 2741 
L 2194 2741 
Q 2656 2741 2882 2914 
Q 3109 3088 3109 3444 
Q 3109 3797 2882 3972 
Q 2656 4147 2194 4147 
L 1259 4147 
z
M 628 4666 
L 2241 4666 
Q 2963 4666 3353 4366 
Q 3744 4066 3744 3513 
Q 3744 3084 3544 2831 
Q 3344 2578 2956 2516 
Q 3422 2416 3680 2098 
Q 3938 1781 3938 1306 
Q 3938 681 3513 340 
Q 3088 0 2303 0 
L 628 0 
L 628 4666 
z
" transform="scale(0.015625)"/>
       <path id="DejaVuSans-61" d="M 2194 1759 
Q 1497 1759 1228 1600 
Q 959 1441 959 1056 
Q 959 750 1161 570 
Q 1363 391 1709 391 
Q 2188 391 2477 730 
Q 2766 1069 2766 1631 
L 2766 1759 
L 2194 1759 
z
M 3341 1997 
L 3341 0 
L 2766 0 
L 2766 531 
Q 2569 213 2275 61 
Q 1981 -91 1556 -91 
Q 1019 -91 701 211 
Q 384 513 384 1019 
Q 384 1609 779 1909 
Q 1175 2209 1959 2209 
L 2766 2209 
L 2766 2266 
Q 2766 2663 2505 2880 
Q 2244 3097 1772 3097 
Q 1472 3097 1187 3025 
Q 903 2953 641 2809 
L 641 3341 
Q 956 3463 1253 3523 
Q 1550 3584 1831 3584 
Q 2591 3584 2966 3190 
Q 3341 2797 3341 1997 
z
" transform="scale(0.015625)"/>
       <path id="DejaVuSans-74" d="M 1172 4494 
L 1172 3500 
L 2356 3500 
L 2356 3053 
L 1172 3053 
L 1172 1153 
Q 1172 725 1289 603 
Q 1406 481 1766 481 
L 2356 481 
L 2356 0 
L 1766 0 
Q 1100 0 847 248 
Q 594 497 594 1153 
L 594 3053 
L 172 3053 
L 172 3500 
L 594 3500 
L 594 4494 
L 1172 4494 
z
" transform="scale(0.015625)"/>
       <path id="DejaVuSans-72" d="M 2631 2963 
Q 2534 3019 2420 3045 
Q 2306 3072 2169 3072 
Q 1681 3072 1420 2755 
Q 1159 2438 1159 1844 
L 1159 0 
L 581 0 
L 581 3500 
L 1159 3500 
L 1159 2956 
Q 1341 3275 1631 3429 
Q 1922 3584 2338 3584 
Q 2397 3584 2469 3576 
Q 2541 3569 2628 3553 
L 2631 2963 
z
" transform="scale(0.015625)"/>
       <path id="DejaVuSans-79" d="M 2059 -325 
Q 1816 -950 1584 -1140 
Q 1353 -1331 966 -1331 
L 506 -1331 
L 506 -850 
L 844 -850 
Q 1081 -850 1212 -737 
Q 1344 -625 1503 -206 
L 1606 56 
L 191 3500 
L 800 3500 
L 1894 763 
L 2988 3500 
L 3597 3500 
L 2059 -325 
z
" transform="scale(0.015625)"/>
       <path id="DejaVuSans-63" d="M 3122 3366 
L 3122 2828 
Q 2878 2963 2633 3030 
Q 2388 3097 2138 3097 
Q 1578 3097 1268 2742 
Q 959 2388 959 1747 
Q 959 1106 1268 751 
Q 1578 397 2138 397 
Q 2388 397 2633 464 
Q 2878 531 3122 666 
L 3122 134 
Q 2881 22 2623 -34 
Q 2366 -91 2075 -91 
Q 1284 -91 818 406 
Q 353 903 353 1747 
Q 353 2603 823 3093 
Q 1294 3584 2113 3584 
Q 2378 3584 2631 3529 
Q 2884 3475 3122 3366 
z
" transform="scale(0.015625)"/>
       <path id="DejaVuSans-67" d="M 2906 1791 
Q 2906 2416 2648 2759 
Q 2391 3103 1925 3103 
Q 1463 3103 1205 2759 
Q 947 2416 947 1791 
Q 947 1169 1205 825 
Q 1463 481 1925 481 
Q 2391 481 2648 825 
Q 2906 1169 2906 1791 
z
M 3481 434 
Q 3481 -459 3084 -895 
Q 2688 -1331 1869 -1331 
Q 1566 -1331 1297 -1286 
Q 1028 -1241 775 -1147 
L 775 -588 
Q 1028 -725 1275 -790 
Q 1522 -856 1778 -856 
Q 2344 -856 2625 -561 
Q 2906 -266 2906 331 
L 2906 616 
Q 2728 306 2450 153 
Q 2172 0 1784 0 
Q 1141 0 747 490 
Q 353 981 353 1791 
Q 353 2603 747 3093 
Q 1141 3584 1784 3584 
Q 2172 3584 2450 3431 
Q 2728 3278 2906 2969 
L 2906 3500 
L 3481 3500 
L 3481 434 
z
" transform="scale(0.015625)"/>
       <path id="DejaVuSans-6e" d="M 3513 2113 
L 3513 0 
L 2938 0 
L 2938 2094 
Q 2938 2591 2744 2837 
Q 2550 3084 2163 3084 
Q 1697 3084 1428 2787 
Q 1159 2491 1159 1978 
L 1159 0 
L 581 0 
L 581 3500 
L 1159 3500 
L 1159 2956 
Q 1366 3272 1645 3428 
Q 1925 3584 2291 3584 
Q 2894 3584 3203 3211 
Q 3513 2838 3513 2113 
z
" transform="scale(0.015625)"/>
       <path id="DejaVuSans-70" d="M 1159 525 
L 1159 -1331 
L 581 -1331 
L 581 3500 
L 1159 3500 
L 1159 2969 
Q 1341 3281 1617 3432 
Q 1894 3584 2278 3584 
Q 2916 3584 3314 3078 
Q 3713 2572 3713 1747 
Q 3713 922 3314 415 
Q 2916 -91 2278 -91 
Q 1894 -91 1617 61 
Q 1341 213 1159 525 
z
M 3116 1747 
Q 3116 2381 2855 2742 
Q 2594 3103 2138 3103 
Q 1681 3103 1420 2742 
Q 1159 2381 1159 1747 
Q 1159 1113 1420 752 
Q 1681 391 2138 391 
Q 2594 391 2855 752 
Q 3116 1113 3116 1747 
z
" transform="scale(0.015625)"/>
       <path id="DejaVuSans-6f" d="M 1959 3097 
Q 1497 3097 1228 2736 
Q 959 2375 959 1747 
Q 959 1119 1226 758 
Q 1494 397 1959 397 
Q 2419 397 2687 759 
Q 2956 1122 2956 1747 
Q 2956 2369 2687 2733 
Q 2419 3097 1959 3097 
z
M 1959 3584 
Q 2709 3584 3137 3096 
Q 3566 2609 3566 1747 
Q 3566 888 3137 398 
Q 2709 -91 1959 -91 
Q 1206 -91 779 398 
Q 353 888 353 1747 
Q 353 2609 779 3096 
Q 1206 3584 1959 3584 
z
" transform="scale(0.015625)"/>
       <path id="DejaVuSans-77" d="M 269 3500 
L 844 3500 
L 1563 769 
L 2278 3500 
L 2956 3500 
L 3675 769 
L 4391 3500 
L 4966 3500 
L 4050 0 
L 3372 0 
L 2619 2869 
L 1863 0 
L 1184 0 
L 269 3500 
z
" transform="scale(0.015625)"/>
       <path id="DejaVuSans-5b" d="M 550 4863 
L 1875 4863 
L 1875 4416 
L 1125 4416 
L 1125 -397 
L 1875 -397 
L 1875 -844 
L 550 -844 
L 550 4863 
z
" transform="scale(0.015625)"/>
       <path id="DejaVuSans-57" d="M 213 4666 
L 850 4666 
L 1831 722 
L 2809 4666 
L 3519 4666 
L 4500 722 
L 5478 4666 
L 6119 4666 
L 4947 0 
L 4153 0 
L 3169 4050 
L 2175 0 
L 1381 0 
L 213 4666 
z
" transform="scale(0.015625)"/>
       <path id="DejaVuSans-2f" d="M 1625 4666 
L 2156 4666 
L 531 -594 
L 0 -594 
L 1625 4666 
z
" transform="scale(0.015625)"/>
       <path id="DejaVuSans-5d" d="M 1947 4863 
L 1947 -844 
L 622 -844 
L 622 -397 
L 1369 -397 
L 1369 4416 
L 622 4416 
L 622 4863 
L 1947 4863 
z
" transform="scale(0.015625)"/>
      </defs>
      <use xlink:href="#DejaVuSans-42"/>
      <use xlink:href="#DejaVuSans-61" x="68.603516"/>
      <use xlink:href="#DejaVuSans-74" x="129.882812"/>
      <use xlink:href="#DejaVuSans-74" x="169.091797"/>
      <use xlink:href="#DejaVuSans-65" x="208.300781"/>
      <use xlink:href="#DejaVuSans-72" x="269.824219"/>
      <use xlink:href="#DejaVuSans-79" x="310.9375"/>
      <use xlink:href="#DejaVuSans-20" x="370.117188"/>
      <use xlink:href="#DejaVuSans-63" x="401.904297"/>
      <use xlink:href="#DejaVuSans-68" x="456.884766"/>
      <use xlink:href="#DejaVuSans-61" x="520.263672"/>
      <use xlink:href="#DejaVuSans-72" x="581.542969"/>
      <use xlink:href="#DejaVuSans-67" x="620.90625"/>
      <use xlink:href="#DejaVuSans-69" x="684.382812"/>
      <use xlink:href="#DejaVuSans-6e" x="712.166016"/>
      <use xlink:href="#DejaVuSans-67" x="775.544922"/>
      <use xlink:href="#DejaVuSans-20" x="839.021484"/>
      <use xlink:href="#DejaVuSans-70" x="870.808594"/>
      <use xlink:href="#DejaVuSans-6f" x="934.285156"/>
      <use xlink:href="#DejaVuSans-77" x="995.466797"/>
      <use xlink:href="#DejaVuSans-65" x="1077.253906"/>
      <use xlink:href="#DejaVuSans-72" x="1138.777344"/>
      <use xlink:href="#DejaVuSans-20" x="1179.890625"/>
      <use xlink:href="#DejaVuSans-5b" x="1211.677734"/>
      <use xlink:href="#DejaVuSans-6d" x="1250.691406"/>
      <use xlink:href="#DejaVuSans-57" x="1348.103516"/>
      <use xlink:href="#DejaVuSans-2f" x="1446.980469"/>
      <use xlink:href="#DejaVuSans-68" x="1480.671875"/>
      <use xlink:href="#DejaVuSans-5d" x="1544.050781"/>
     </g>
    </g>
   </g>
   <g id="patch_3">
    <path d="M 50.87 150.100464 
L 50.87 10.8 
" style="fill: none; stroke: #000000; stroke-width: 0.8; stroke-linejoin: miter; stroke-linecap: square"/>
   </g>
   <g id="patch_4">
    <path d="M 600.28 150.100464 
L 600.28 10.8 
" style="fill: none; stroke: #000000; stroke-width: 0.8; stroke-linejoin: miter; stroke-linecap: square"/>
   </g>
   <g id="patch_5">
    <path d="M 50.87 150.100464 
L 600.28 150.100464 
" style="fill: none; stroke: #000000; stroke-width: 0.8; stroke-linejoin: miter; stroke-linecap: square"/>
   </g>
   <g id="patch_6">
    <path d="M 50.87 10.8 
L 600.28 10.8 
" style="fill: none; stroke: #000000; stroke-width: 0.8; stroke-linejoin: miter; stroke-linecap: square"/>
   </g>
   <g id="patch_7">
    <path d="M 180.856822 150.100464 
L 188.572267 150.100464 
L 188.572267 138.436471 
L 180.856822 138.436471 
z
" clip-path="url(#pa9de682eee)" style="fill: #ffa500"/>
   </g>
   <g id="patch_8">
    <path d="M 188.572267 150.100464 
L 196.287712 150.100464 
L 196.287712 105.439217 
L 188.572267 105.439217 
z
" clip-path="url(#pa9de682eee)" style="fill: #ffa500"/>
   </g>
   <g id="patch_9">
    <path d="M 196.287712 150.100464 
L 204.003157 150.100464 
L 204.003157 141.439755 
L 196.287712 141.439755 
z
" clip-path="url(#pa9de682eee)" style="fill: #ffa500"/>
   </g>
   <g id="patch_10">
    <path d="M 211.718603 150.100464 
L 219.434048 150.100464 
L 219.434048 77.054161 
L 211.718603 77.054161 
z
" clip-path="url(#pa9de682eee)" style="fill: #ffa500"/>
   </g>
   <g id="patch_11">
    <path d="M 219.434048 150.100464 
L 227.149493 150.100464 
L 227.149493 134.981454 
L 219.434048 134.981454 
z
" clip-path="url(#pa9de682eee)" style="fill: #ffa500"/>
   </g>
   <g id="patch_12">
    <path d="M 358.312063 150.100464 
L 366.027508 150.100464 
L 366.027508 138.002749 
L 358.312063 138.002749 
z
" clip-path="url(#pa9de682eee)" style="fill: #ffa500"/>
   </g>
   <g id="patch_13">
    <path d="M 366.027508 150.100464 
L 373.742953 150.100464 
L 373.742953 107.778647 
L 366.027508 107.778647 
z
" clip-path="url(#pa9de682eee)" style="fill: #ffa500"/>
   </g>
   <g id="patch_14">
    <path d="M 373.742954 150.100464 
L 381.458399 150.100464 
L 381.458399 47.307678 
L 373.742954 47.307678 
z
" clip-path="url(#pa9de682eee)" style="fill: #ffa500"/>
   </g>
   <g id="patch_15">
    <path d="M 381.458399 150.100464 
L 389.173844 150.100464 
L 389.173844 99.688092 
L 381.458399 99.688092 
z
" clip-path="url(#pa9de682eee)" style="fill: #ffa500"/>
   </g>
   <g id="patch_16">
    <path d="M 389.173844 150.100464 
L 396.889289 150.100464 
L 396.889289 129.324096 
L 389.173844 129.324096 
z
" clip-path="url(#pa9de682eee)" style="fill: #ffa500"/>
   </g>
   <g id="patch_17">
    <path d="M 396.889289 150.100464 
L 404.604735 150.100464 
L 404.604735 141.980731 
L 396.889289 141.980731 
z
" clip-path="url(#pa9de682eee)" style="fill: #ffa500"/>
   </g>
   <g id="patch_18">
    <path d="M 551.198195 150.100464 
L 558.91364 150.100464 
L 558.91364 105.418697 
L 551.198195 105.418697 
z
" clip-path="url(#pa9de682eee)" style="fill: #ffa500"/>
   </g>
   <g id="patch_19">
    <path d="M 558.91364 150.100464 
L 566.629085 150.100464 
L 566.629085 17.433355 
L 558.91364 17.433355 
z
" clip-path="url(#pa9de682eee)" style="fill: #ffa500"/>
   </g>
   <g id="patch_20">
    <path d="M 566.629085 150.100464 
L 574.344531 150.100464 
L 574.344531 94.908133 
L 566.629085 94.908133 
z
" clip-path="url(#pa9de682eee)" style="fill: #ffa500"/>
   </g>
  </g>
  <g id="axes_2">
   <g id="line2d_11">
    <path d="M 75.843182 17.327266 
L 75.939625 17.131839 
L 75.950341 17.327266 
L 76.033925 17.327266 
L 76.044641 17.131839 
L 76.141084 17.327266 
L 76.258959 17.327266 
L 76.376833 17.522694 
L 76.537572 17.522694 
L 76.655447 17.718121 
L 76.901912 17.718121 
L 77.019787 17.913548 
L 77.084083 17.913548 
L 77.094798 17.718121 
L 77.144092 17.913548 
L 77.328405 17.913548 
L 77.456996 18.108975 
L 77.585587 18.108975 
L 77.712034 18.304402 
L 77.90492 18.304402 
L 78.035654 18.499829 
L 78.22854 18.499829 
L 78.389279 18.890684 
L 78.64646 18.890684 
L 78.775051 19.086111 
L 79.032233 19.086111 
L 79.160823 19.281538 
L 79.321562 19.281538 
L 79.450152 19.476965 
L 79.610891 19.476965 
L 79.739482 19.672392 
L 79.996663 19.672392 
L 80.125254 19.867819 
L 80.285992 19.867819 
L 80.414583 20.063246 
L 80.541031 20.063246 
L 80.669621 20.258673 
L 80.894655 20.258673 
L 81.023246 20.454101 
L 81.216132 20.454101 
L 81.344723 20.649528 
L 81.569757 20.649528 
L 81.698348 20.844955 
L 81.826938 20.844955 
L 81.955529 21.040382 
L 82.212711 21.040382 
L 82.341301 21.235809 
L 82.437744 21.235809 
L 82.566335 21.431236 
L 82.823517 21.431236 
L 82.952107 21.626663 
L 83.112846 21.626663 
L 83.241437 21.822091 
L 83.528623 21.822091 
L 83.657213 22.017518 
L 83.817952 22.017518 
L 83.946543 22.212945 
L 84.364462 22.212945 
L 84.493053 22.408372 
L 84.782382 22.408372 
L 84.910973 22.603799 
L 85.264598 22.603799 
L 85.393189 22.799226 
L 85.746813 22.799226 
L 85.875404 22.994653 
L 86.355476 22.994653 
L 86.484067 23.190081 
L 86.773396 23.190081 
L 86.901987 23.385508 
L 87.223464 23.385508 
L 87.352054 23.580935 
L 87.641384 23.580935 
L 87.769974 23.776362 
L 87.96286 23.776362 
L 88.027156 23.971789 
L 88.059304 23.776362 
L 88.091451 23.776362 
L 88.220042 23.971789 
L 88.412928 23.971789 
L 88.541519 24.167216 
L 88.573667 23.971789 
L 88.637962 24.167216 
L 88.895143 24.167216 
L 88.959439 24.362643 
L 88.991586 24.167216 
L 89.023734 24.167216 
L 89.150182 24.362643 
L 89.407363 24.362643 
L 89.535954 24.558071 
L 89.986022 24.558071 
L 90.114612 24.753498 
L 90.468237 24.753498 
L 90.596828 24.948925 
L 91.046895 24.948925 
L 91.175486 25.144352 
L 91.207634 25.144352 
L 91.239782 24.948925 
L 91.304077 25.144352 
L 91.561258 25.144352 
L 91.689849 25.339779 
L 92.041331 25.339779 
L 92.169921 25.535206 
L 92.716432 25.535206 
L 92.845023 25.730633 
L 93.102204 25.730633 
L 93.230795 25.92606 
L 93.552272 25.92606 
L 93.680863 26.121488 
L 93.970192 26.121488 
L 94.098783 26.316915 
L 94.259521 26.316915 
L 94.388112 26.512342 
L 94.580998 26.512342 
L 94.709589 26.707769 
L 94.803889 26.512342 
L 94.932479 26.707769 
L 95.157513 26.707769 
L 95.286104 26.903196 
L 95.446842 26.903196 
L 95.575433 27.098623 
L 95.607581 26.903196 
L 95.671876 27.098623 
L 95.929058 27.098623 
L 96.057648 27.29405 
L 96.31483 27.29405 
L 96.443421 27.489478 
L 96.73275 27.489478 
L 96.861341 27.684905 
L 97.182818 27.684905 
L 97.311408 27.880332 
L 97.534299 27.880332 
L 97.66289 28.075759 
L 97.855776 28.075759 
L 97.984367 28.271186 
L 98.145105 28.271186 
L 98.273696 28.466613 
L 98.434434 28.466613 
L 98.563025 28.66204 
L 98.691616 28.66204 
L 98.820206 28.857468 
L 98.91665 28.857468 
L 99.04524 29.052895 
L 99.141683 29.052895 
L 99.270274 29.248322 
L 99.431013 29.248322 
L 99.559603 29.443749 
L 99.688194 29.443749 
L 99.816785 29.639176 
L 99.88108 29.639176 
L 100.009671 29.834603 
L 100.202557 29.834603 
L 100.331148 30.03003 
L 100.3933 30.03003 
L 100.521891 30.225458 
L 100.682629 30.225458 
L 100.81122 30.420885 
L 100.875515 30.420885 
L 101.004106 30.616312 
L 101.068402 30.616312 
L 101.196992 30.811739 
L 101.261288 30.811739 
L 101.389878 31.007166 
L 101.454174 31.007166 
L 101.614912 31.39802 
L 101.743503 31.39802 
L 101.872094 31.593447 
L 101.904241 31.593447 
L 102.06498 31.984302 
L 102.193571 31.984302 
L 102.322161 32.179729 
L 102.386457 32.179729 
L 102.515048 32.375156 
L 102.579343 32.375156 
L 102.740081 32.76601 
L 102.868672 32.76601 
L 103.029411 33.156865 
L 103.125854 33.156865 
L 103.284449 33.547719 
L 103.348744 33.547719 
L 103.509483 33.938573 
L 103.54163 33.938573 
L 103.670221 34.134 
L 103.702369 34.134 
L 103.863107 34.524855 
L 103.927403 34.524855 
L 104.088141 34.915709 
L 104.152436 34.915709 
L 104.313175 35.306563 
L 104.409618 35.306563 
L 104.570356 35.697417 
L 104.634652 35.697417 
L 104.79539 36.088272 
L 104.827538 36.088272 
L 105.020424 36.674553 
L 105.084719 36.674553 
L 105.245458 37.065407 
L 105.309753 37.065407 
L 105.470492 37.456262 
L 105.502639 37.456262 
L 105.663378 37.847116 
L 105.695526 37.847116 
L 105.856264 38.23797 
L 105.888412 38.23797 
L 106.079155 38.824252 
L 106.14345 38.824252 
L 106.336336 39.410533 
L 106.368484 39.410533 
L 106.56137 39.996814 
L 106.625665 39.996814 
L 106.786404 40.387669 
L 106.818551 40.387669 
L 107.011438 40.97395 
L 107.043585 40.97395 
L 107.236471 41.560232 
L 107.268619 41.560232 
L 107.461505 42.146513 
L 107.525801 42.146513 
L 107.718687 42.732794 
L 107.750834 42.732794 
L 107.943721 43.319076 
L 107.975868 43.319076 
L 108.168754 43.905357 
L 108.200902 43.905357 
L 108.425936 44.687066 
L 108.458084 44.687066 
L 108.65097 45.273347 
L 108.683117 45.273347 
L 108.87386 45.859629 
L 108.906008 45.859629 
L 109.323928 47.8139 
L 109.356076 47.8139 
L 109.581109 48.595608 
L 109.613257 48.595608 
L 109.870439 49.572744 
L 109.902586 49.572744 
L 110.159768 50.54988 
L 110.191916 50.54988 
L 110.384802 51.136161 
L 110.416949 51.136161 
L 110.706279 52.308724 
L 110.770574 52.308724 
L 110.995608 53.090433 
L 111.027755 53.090433 
L 111.349232 54.458423 
L 111.38138 54.458423 
L 111.636418 55.435558 
L 111.668566 55.435558 
L 111.990043 56.803548 
L 112.022191 56.803548 
L 112.31152 57.976111 
L 112.343668 57.976111 
L 112.697292 59.539528 
L 112.72944 59.539528 
L 113.050917 60.907518 
L 113.083064 60.907518 
L 113.468837 62.666362 
L 113.500984 62.666362 
L 113.951052 64.816061 
L 113.9832 64.816061 
L 114.495419 67.356614 
L 114.527567 67.356614 
L 115.138373 70.483448 
L 115.170521 70.483448 
L 116.488576 77.909679 
L 116.520724 77.909679 
L 116.745758 79.473096 
L 117.804488 86.508473 
L 118.093817 88.853599 
L 118.447442 91.589579 
L 118.801067 94.716413 
L 119.058248 96.866112 
L 119.572611 101.947217 
L 119.765497 103.706061 
L 120.952819 119.340232 
L 121.756511 135.951539 
L 122.013692 143.37777 
M 126.413639 143.768625 
L 126.445787 143.768625 
L 126.702968 142.791489 
L 126.735116 142.791489 
L 126.992298 141.814353 
L 127.024445 141.814353 
L 127.249479 141.032645 
L 127.281627 141.032645 
L 127.474513 140.446363 
L 127.506661 140.446363 
L 127.731694 139.664655 
L 127.763842 139.664655 
L 127.956728 139.078373 
L 127.988876 139.078373 
L 128.181762 138.492092 
L 128.21391 138.492092 
L 128.406796 137.905811 
L 128.438944 137.905811 
L 128.597539 137.514956 
L 128.629687 137.514956 
L 128.822573 136.928675 
L 128.85472 136.928675 
L 129.015459 136.537821 
L 129.047607 136.537821 
L 129.208345 136.146966 
L 129.240493 136.146966 
L 129.401231 135.756112 
L 129.465526 135.756112 
L 129.626265 135.365258 
L 129.658413 135.365258 
L 129.819151 134.974403 
L 129.851299 134.974403 
L 130.044185 134.388122 
L 130.10848 134.388122 
L 130.269219 133.997268 
L 130.333514 133.997268 
L 130.494253 133.606413 
L 130.5264 133.606413 
L 130.654991 133.410986 
L 130.687139 133.410986 
L 130.847877 133.020132 
L 130.94432 133.020132 
L 131.105059 132.629278 
L 131.169354 132.629278 
L 131.330092 132.238424 
L 131.424392 132.238424 
L 131.585131 131.847569 
L 131.649426 131.847569 
L 131.810165 131.456715 
L 131.906608 131.456715 
L 132.035198 131.261288 
L 132.067346 131.261288 
L 132.195937 131.065861 
L 132.228085 131.065861 
L 132.388823 130.675006 
L 132.517414 130.675006 
L 132.646004 130.479579 
L 132.7103 130.479579 
L 132.871038 130.088725 
L 132.967481 130.088725 
L 133.12822 129.697871 
L 133.256811 129.697871 
L 133.417549 129.307016 
L 133.513992 129.307016 
L 133.642583 129.111589 
L 133.674731 129.111589 
L 133.835469 128.720735 
L 133.996207 128.720735 
L 134.124798 128.525308 
L 134.18695 128.525308 
L 134.315541 128.329881 
L 134.411984 128.329881 
L 134.540575 128.134454 
L 134.572723 128.134454 
L 134.701313 127.939026 
L 134.765609 127.939026 
L 134.8942 127.743599 
L 134.958495 127.743599 
L 135.087086 127.548172 
L 135.183529 127.548172 
L 135.312119 127.352745 
L 135.376415 127.352745 
L 135.505006 127.157318 
L 135.569301 127.157318 
L 135.697892 126.961891 
L 135.730039 126.961891 
L 135.85863 126.766464 
L 135.890778 126.766464 
L 136.019369 126.571037 
L 136.147959 126.571037 
L 136.27655 126.375609 
L 136.372993 126.375609 
L 136.501584 126.180182 
L 136.598027 126.180182 
L 136.726618 125.984755 
L 136.790913 125.984755 
L 136.919504 125.789328 
L 137.045951 125.789328 
L 137.174542 125.593901 
L 137.270985 125.593901 
L 137.399576 125.398474 
L 137.592462 125.398474 
L 137.721053 125.203047 
L 137.817496 125.203047 
L 137.946087 125.007619 
L 138.074678 125.007619 
L 138.203268 124.812192 
L 138.331859 124.812192 
L 138.46045 124.616765 
L 138.524745 124.616765 
L 138.653336 124.421338 
L 138.717631 124.421338 
L 138.846222 124.225911 
L 138.942665 124.225911 
L 139.071256 123.835057 
L 139.135551 124.030484 
L 139.167699 123.835057 
L 139.42488 123.835057 
L 139.553471 123.639629 
L 139.778505 123.639629 
L 139.904953 123.444202 
L 140.065691 123.444202 
L 140.194282 123.248775 
L 140.322873 123.248775 
L 140.451463 123.053348 
L 140.708645 123.053348 
L 140.837236 122.857921 
L 141.030122 122.857921 
L 141.158712 122.662494 
L 141.287303 122.662494 
L 141.415894 122.467067 
L 141.705223 122.467067 
L 141.833814 122.271639 
L 142.0267 122.271639 
L 142.155291 122.076212 
L 142.283882 122.076212 
L 142.412472 121.880785 
L 142.605358 121.880785 
L 142.731806 121.685358 
L 142.828249 121.685358 
L 142.860397 121.489931 
L 142.924692 121.685358 
L 142.988988 121.685358 
L 143.117578 121.489931 
L 143.246169 121.489931 
L 143.342612 121.294504 
L 143.37476 121.489931 
L 143.439055 121.294504 
L 143.599794 121.294504 
L 143.728384 121.099077 
L 144.082009 121.099077 
L 144.2106 120.90365 
L 144.499929 120.90365 
L 144.62852 120.708222 
L 144.949997 120.708222 
L 145.078587 120.512795 
L 145.432212 120.512795 
L 145.558659 120.317368 
L 145.751546 120.317368 
L 145.880136 120.121941 
L 146.169466 120.121941 
L 146.298056 119.926514 
L 146.619533 119.926514 
L 146.715976 119.731087 
L 146.844567 119.926514 
L 146.973158 119.731087 
L 147.101748 119.731087 
L 147.230339 119.53566 
L 147.455373 119.53566 
L 147.583964 119.340232 
L 147.616112 119.53566 
L 147.680407 119.340232 
L 147.873293 119.340232 
L 148.001884 119.144805 
L 148.19477 119.144805 
L 148.323361 118.949378 
L 148.642694 118.949378 
L 148.739137 118.753951 
L 148.771285 118.949378 
L 148.83558 118.753951 
L 149.2535 118.753951 
L 149.382091 118.558524 
L 149.414239 118.558524 
L 149.446387 118.753951 
L 149.510682 118.558524 
L 149.832159 118.558524 
L 149.96075 118.363097 
L 150.250079 118.363097 
L 150.282226 118.16767 
L 150.346522 118.363097 
L 150.442965 118.363097 
L 150.571556 118.16767 
L 150.828737 118.16767 
L 150.957328 117.972242 
L 151.565991 117.972242 
L 151.694582 117.776815 
L 152.176797 117.776815 
L 152.305388 117.581388 
L 152.723308 117.581388 
L 152.851898 117.385961 
L 153.398409 117.385961 
L 153.527 117.190534 
L 153.880624 117.190534 
L 154.007072 116.995107 
L 154.424992 116.995107 
L 154.553583 116.79968 
L 154.971503 116.79968 
L 155.100093 116.604252 
L 155.614456 116.604252 
L 155.743047 116.408825 
L 156.353853 116.408825 
L 156.482444 116.213398 
L 156.898221 116.213398 
L 156.930368 116.017971 
L 156.994664 116.213398 
L 157.026812 116.213398 
L 157.155402 116.017971 
L 158.02339 116.017971 
L 158.151981 115.822544 
L 159.148559 115.822544 
L 159.180707 115.627117 
L 159.245002 115.822544 
L 159.405741 115.822544 
L 159.534331 115.627117 
L 160.271585 115.627117 
L 160.400176 115.43169 
L 161.428902 115.43169 
L 161.557492 115.236263 
L 161.58964 115.236263 
L 161.686083 115.43169 
L 161.814674 115.236263 
L 162.680518 115.236263 
L 162.776961 115.040835 
L 162.905552 115.236263 
L 163.034143 115.040835 
L 163.902131 115.040835 
L 163.934278 114.845408 
L 163.998574 115.040835 
L 164.223607 115.040835 
L 164.352198 114.845408 
L 164.384346 114.845408 
L 164.512937 115.040835 
L 164.641527 114.845408 
L 165.507372 114.845408 
L 165.635963 114.649981 
L 166.761132 114.649981 
L 166.825427 114.454554 
L 166.857575 114.649981 
L 166.986166 114.649981 
L 167.114756 114.454554 
L 168.014892 114.454554 
L 168.079187 114.259127 
L 168.111335 114.454554 
L 168.143482 114.454554 
L 168.26993 114.259127 
L 168.302078 114.454554 
L 168.366373 114.259127 
L 169.234361 114.259127 
L 169.362951 114.0637 
L 170.616711 114.0637 
L 170.648859 113.868273 
L 170.713154 114.0637 
L 170.745302 114.0637 
L 170.873893 113.868273 
L 170.90604 113.868273 
L 170.970336 114.0637 
L 171.002483 113.868273 
L 171.868328 113.868273 
L 171.900476 113.672845 
L 171.964771 113.868273 
L 172.093362 113.868273 
L 172.189805 113.672845 
L 172.318395 113.868273 
L 172.350543 113.672845 
L 172.414839 113.868273 
L 172.543429 113.868273 
L 172.67202 113.672845 
L 172.768463 113.672845 
L 172.864906 113.868273 
L 172.993497 113.672845 
L 174.052227 113.672845 
L 174.084375 113.477418 
L 174.148671 113.672845 
L 174.245114 113.672845 
L 174.373704 113.477418 
L 174.405852 113.672845 
L 174.470147 113.477418 
L 175.884646 113.477418 
L 175.981089 113.281991 
L 176.077532 113.477418 
L 176.173975 113.281991 
L 176.302566 113.477418 
L 176.399009 113.281991 
L 176.5276 113.477418 
L 176.654047 113.281991 
L 178.582908 113.281991 
L 178.711499 113.086564 
L 179.418748 113.086564 
L 179.609491 114.649981 
L 179.673787 114.649981 
L 179.89882 115.43169 
L 179.963116 115.43169 
L 180.091707 115.627117 
L 180.123854 115.627117 
L 180.252445 115.822544 
L 180.445331 115.822544 
L 180.573922 116.017971 
L 180.702513 116.017971 
L 180.798956 115.822544 
L 180.831103 116.017971 
L 180.895399 115.822544 
L 181.120433 115.822544 
L 181.249023 116.017971 
L 181.44191 116.017971 
L 181.859829 117.972242 
L 182.020568 117.972242 
L 182.404197 116.213398 
L 182.436345 116.213398 
L 182.661378 115.43169 
L 182.91856 115.43169 
L 184.268763 124.225911 
L 184.622388 127.352745 
L 184.879569 128.916162 
L 185.166755 122.662494 
L 185.263198 123.444202 
L 185.391789 124.812192 
L 185.552527 125.984755 
L 185.64897 125.398474 
L 185.681118 125.789328 
L 185.906152 127.352745 
L 186.131186 128.134454 
L 186.163333 128.134454 
L 186.227629 126.766464 
L 186.452663 121.294504 
L 186.549106 121.880785 
L 186.581253 121.685358 
L 186.645549 121.294504 
L 186.677696 121.685358 
L 186.870583 123.248775 
L 186.90273 123.248775 
L 187.127764 121.685358 
L 187.449241 115.236263 
L 187.513536 114.454554 
L 187.545684 114.845408 
L 187.73857 116.408825 
L 187.995752 117.385961 
L 188.027899 117.385961 
L 188.122199 116.79968 
L 188.636562 104.48777 
L 189.215221 95.888976 
L 189.279516 95.498122 
L 189.311664 95.693549 
L 189.408107 96.475257 
L 189.50455 96.27983 
L 189.600993 96.27983 
L 189.697436 95.107267 
L 189.92247 91.589579 
L 190.147504 89.244453 
L 190.243947 88.07189 
L 190.820462 82.404503 
L 191.238382 79.277669 
L 191.624154 75.759981 
L 192.138517 72.046865 
L 192.331403 70.678875 
L 192.363551 70.678875 
L 192.556437 69.506312 
L 193.840201 62.275508 
L 193.872349 62.275508 
L 194.193826 60.712091 
L 194.290269 62.470935 
L 194.322417 62.275508 
L 194.483155 60.321237 
L 194.515303 60.321237 
L 194.579598 59.930382 
L 194.611746 60.321237 
L 194.643894 60.321237 
L 194.676041 59.930382 
L 194.804632 61.102945 
L 194.901075 61.102945 
L 195.093961 59.734955 
L 195.190404 59.930382 
L 195.318995 60.907518 
L 195.351143 60.907518 
L 195.479734 59.930382 
L 195.576177 58.953247 
L 195.736915 60.516664 
L 195.897654 60.907518 
L 196.026244 60.907518 
L 196.09054 60.12581 
L 196.21913 58.562393 
L 196.251278 58.75782 
L 196.409873 57.585257 
L 196.570612 59.539528 
L 196.667055 59.734955 
L 196.699203 59.539528 
L 196.763498 59.734955 
L 196.827793 59.734955 
L 196.924236 59.930382 
L 197.052827 58.75782 
L 197.181418 57.585257 
L 197.213566 57.780684 
L 197.470747 56.02184 
L 197.502895 56.217267 
L 197.663633 57.585257 
L 198.531621 52.895006 
L 198.563768 52.895006 
L 198.885245 51.527016 
L 198.917393 51.527016 
L 198.981688 51.136161 
L 199.013836 51.527016 
L 199.172431 52.504151 
L 199.33317 52.504151 
L 199.493908 51.136161 
L 199.654647 49.963598 
L 199.879681 49.18189 
L 199.911828 49.377317 
L 199.943976 48.986463 
L 199.976124 48.986463 
L 200.104714 48.400181 
L 200.329748 49.963598 
L 200.554782 47.618473 
L 200.779816 46.836764 
L 200.811964 46.836764 
L 200.844111 47.032191 
L 200.876259 46.641337 
L 200.940554 46.641337 
L 201.165588 47.8139 
L 201.197736 47.618473 
L 201.262031 47.227619 
L 201.294179 47.618473 
L 201.487065 48.204754 
L 201.583508 48.204754 
L 201.712099 48.400181 
L 201.744246 48.400181 
L 201.872837 48.595608 
L 201.904985 48.595608 
L 202.033576 48.791036 
L 202.127876 48.791036 
L 202.288614 49.18189 
L 202.352909 49.18189 
L 202.545796 49.768171 
L 202.995863 49.768171 
L 203.188749 48.009327 
L 203.253045 47.618473 
L 203.285192 48.009327 
L 203.31734 48.009327 
L 203.349488 48.791036 
L 203.445931 48.595608 
L 203.703112 49.572744 
L 203.767408 49.572744 
L 203.863851 48.791036 
L 203.895998 49.18189 
L 204.024589 49.377317 
L 204.088885 49.377317 
L 204.15318 49.572744 
L 204.185328 49.377317 
L 204.249623 48.400181 
L 204.281771 48.791036 
L 204.442509 49.768171 
L 204.5711 49.963598 
L 204.635395 49.963598 
L 204.796134 50.354453 
L 205.021168 50.354453 
L 205.115467 49.572744 
L 205.147615 49.963598 
L 205.276206 50.159026 
L 205.436944 48.791036 
L 205.469092 49.377317 
L 205.50124 49.768171 
L 205.533387 49.377317 
L 205.597683 48.595608 
L 205.62983 49.377317 
L 205.661978 49.377317 
L 205.822717 50.354453 
L 205.951307 50.354453 
L 206.112046 50.745307 
L 206.144193 50.745307 
L 206.304932 51.136161 
L 206.369227 51.136161 
L 206.497818 51.527016 
L 206.529966 51.331588 
L 206.562113 51.527016 
L 206.690704 51.91787 
L 206.722852 51.722443 
L 206.755 51.91787 
L 207.012181 52.895006 
L 207.076476 52.895006 
L 207.269363 53.481287 
L 207.333658 53.481287 
L 207.590839 54.458423 
L 207.622987 54.458423 
L 207.815873 55.044704 
L 207.848021 55.044704 
L 208.038764 55.630985 
L 208.070912 55.630985 
L 208.263798 56.217267 
L 208.328093 56.217267 
L 208.585275 57.194403 
L 208.64957 57.194403 
L 208.810308 57.585257 
L 208.906752 57.38983 
L 209.099638 57.976111 
L 209.131785 57.976111 
L 209.260376 58.171538 
L 209.292524 58.171538 
L 209.517558 56.217267 
L 209.678296 54.458423 
L 210.256954 51.527016 
L 210.289102 51.527016 
L 210.417693 50.940734 
L 210.546284 52.699578 
L 210.73917 49.963598 
L 210.771317 49.963598 
L 210.96206 49.18189 
L 211.058503 49.768171 
L 211.187094 48.595608 
L 211.701457 46.055056 
L 211.733605 46.055056 
L 211.926491 45.468774 
L 211.958639 45.468774 
L 212.151525 44.882493 
L 212.183673 44.882493 
L 212.344411 47.618473 
L 212.473002 47.8139 
L 212.537297 47.8139 
L 212.601593 45.273347 
L 212.665888 45.859629 
L 212.858774 44.100784 
L 212.987365 43.70993 
L 213.115956 46.055056 
L 213.148103 46.055056 
L 213.405285 47.032191 
L 213.46958 47.032191 
L 213.566023 47.227619 
L 213.598171 47.032191 
L 213.694614 44.296211 
L 213.758909 45.07792 
L 214.013948 43.123649 
L 214.046095 43.123649 
L 214.238981 42.537367 
L 214.271129 42.537367 
L 214.464015 41.951086 
L 214.528311 41.951086 
L 214.753344 41.169377 
L 214.81764 41.169377 
L 215.010526 40.583096 
L 215.042674 40.583096 
L 215.267708 39.801387 
L 215.299855 39.801387 
L 215.460594 39.410533 
L 215.492741 39.410533 
L 215.685627 38.824252 
L 215.749923 38.824252 
L 215.974957 38.042543 
L 216.039252 38.042543 
L 216.19999 37.651689 
L 216.264286 37.651689 
L 216.457172 37.065407 
L 216.521467 37.065407 
L 216.71221 36.479126 
L 216.808653 36.479126 
L 216.969392 36.088272 
L 217.00154 36.088272 
L 217.162278 35.697417 
L 217.226573 35.697417 
L 217.387312 35.306563 
L 217.451607 35.306563 
L 217.612346 34.915709 
L 217.676641 34.915709 
L 217.837379 34.524855 
L 217.901675 34.524855 
L 218.062413 34.134 
L 218.158856 34.134 
L 218.319595 33.743146 
L 218.351742 33.743146 
L 218.512481 33.352292 
L 218.576776 33.352292 
L 218.737515 32.961437 
L 218.866105 32.961437 
L 219.026844 32.570583 
L 219.091139 32.570583 
L 219.21973 32.375156 
L 219.284025 32.375156 
L 219.348321 32.570583 
L 219.412616 32.179729 
L 219.474768 32.179729 
L 219.635507 31.788875 
L 219.73195 31.788875 
L 219.860541 31.593447 
L 219.924836 31.593447 
L 220.085574 31.202593 
L 220.14987 31.202593 
L 220.278461 31.007166 
L 220.374904 31.007166 
L 220.503494 30.811739 
L 220.56779 30.811739 
L 220.696381 30.616312 
L 220.728528 30.616312 
L 220.857119 30.420885 
L 221.017857 30.420885 
L 221.146448 30.225458 
L 221.178596 30.225458 
L 221.307187 30.03003 
L 221.40363 30.03003 
L 221.53222 29.834603 
L 221.628664 29.834603 
L 221.660811 29.639176 
L 221.725107 29.834603 
L 221.757254 29.834603 
L 221.917993 29.443749 
L 222.110879 29.443749 
L 222.23947 29.248322 
L 222.303765 29.248322 
L 222.430213 29.052895 
L 222.46236 29.052895 
L 222.590951 28.857468 
L 222.655246 28.857468 
L 222.783837 28.66204 
L 222.944576 28.66204 
L 223.073166 28.466613 
L 223.201757 28.466613 
L 223.330348 28.271186 
L 223.523234 28.271186 
L 223.651825 28.075759 
L 223.812563 28.075759 
L 223.941154 27.880332 
L 224.069745 27.880332 
L 224.101892 27.684905 
L 224.166188 27.880332 
L 224.230483 27.880332 
L 224.359074 27.684905 
L 224.616255 27.684905 
L 224.744846 27.489478 
L 225.066323 27.489478 
L 225.098471 27.29405 
L 225.160623 27.489478 
L 225.192771 27.489478 
L 225.321361 27.29405 
L 225.353509 27.29405 
L 225.385657 27.489478 
L 225.449952 27.29405 
L 225.674986 27.29405 
L 225.803577 27.098623 
L 226.221497 27.098623 
L 226.31794 27.684905 
L 226.382235 27.489478 
L 226.414383 27.489478 
L 226.768007 29.052895 
L 226.832303 29.052895 
L 226.993041 29.443749 
L 227.089484 29.443749 
L 227.250223 29.834603 
L 227.346666 29.834603 
L 227.475256 30.03003 
L 227.507404 30.03003 
L 227.5717 30.225458 
L 227.603847 30.03003 
L 227.635995 30.03003 
L 227.98962 28.466613 
L 228.148215 28.466613 
L 228.180362 28.66204 
L 228.276806 29.834603 
L 228.405396 28.466613 
L 228.437544 28.66204 
L 228.598282 30.03003 
L 228.63043 30.03003 
L 228.791169 30.420885 
L 228.855464 30.420885 
L 228.984055 30.616312 
L 229.016202 30.616312 
L 229.176941 31.007166 
L 229.241236 31.007166 
L 229.401975 31.39802 
L 229.498418 31.39802 
L 229.659156 31.788875 
L 229.723452 31.788875 
L 229.88419 32.179729 
L 229.948485 32.179729 
L 230.077076 32.375156 
L 230.141371 32.375156 
L 230.269962 32.570583 
L 230.334258 32.570583 
L 230.462848 32.76601 
L 230.494996 32.76601 
L 230.655734 33.156865 
L 230.782182 33.156865 
L 230.975068 33.743146 
L 231.071511 33.547719 
L 231.264397 34.134 
L 231.36084 34.134 
L 231.521579 34.524855 
L 231.585874 34.524855 
L 231.746613 34.915709 
L 231.77876 34.915709 
L 231.971647 35.50199 
L 232.035942 35.50199 
L 232.19668 35.892845 
L 232.260976 35.892845 
L 232.453862 36.479126 
L 232.518157 36.479126 
L 232.678896 36.86998 
L 232.711043 36.86998 
L 232.871782 37.260834 
L 232.90393 37.260834 
L 233.064668 37.651689 
L 233.096816 37.651689 
L 233.257554 38.042543 
L 233.321849 38.042543 
L 233.482588 38.433397 
L 233.514736 38.433397 
L 233.737626 39.215106 
L 233.801922 39.215106 
L 233.96266 39.60596 
L 233.994808 39.60596 
L 234.155546 39.996814 
L 234.187694 39.996814 
L 234.38058 40.583096 
L 234.444875 40.583096 
L 234.605614 40.97395 
L 234.637762 40.97395 
L 234.830648 41.560232 
L 234.862795 41.560232 
L 235.023534 41.951086 
L 235.055681 41.951086 
L 235.248568 42.537367 
L 235.312863 42.537367 
L 235.473601 42.928221 
L 235.505749 42.928221 
L 235.666488 43.319076 
L 235.730783 43.319076 
L 235.955817 44.100784 
L 236.020112 44.100784 
L 236.212998 44.687066 
L 236.245146 44.687066 
L 236.438032 45.273347 
L 236.468037 45.273347 
L 236.628775 45.664201 
L 236.69307 45.664201 
L 236.853809 46.055056 
L 236.885957 46.055056 
L 237.046695 46.836764 
L 237.271729 47.618473 
L 237.303876 47.618473 
L 237.52891 48.400181 
L 237.561058 48.400181 
L 237.753944 48.986463 
L 237.786092 48.986463 
L 238.011126 49.768171 
L 238.043273 49.768171 
L 238.236159 50.354453 
L 238.268307 50.354453 
L 238.461193 50.940734 
L 238.493341 50.940734 
L 238.750522 51.91787 
L 238.78267 51.91787 
L 239.007704 52.699578 
L 239.071999 52.699578 
L 239.297033 53.481287 
L 239.329181 53.481287 
L 239.616367 54.65385 
L 239.680662 54.65385 
L 239.937844 55.630985 
L 240.002139 55.630985 
L 240.291468 56.803548 
L 240.323616 56.803548 
L 240.580798 57.780684 
L 240.612945 57.780684 
L 240.902274 58.953247 
L 240.934422 58.953247 
L 241.223751 60.12581 
L 241.255899 60.12581 
L 241.513081 61.102945 
L 241.545228 61.102945 
L 241.898853 62.666362 
L 241.931 62.666362 
L 242.31463 64.425207 
L 242.346777 64.425207 
L 242.668254 65.793197 
L 242.700402 65.793197 
L 243.054026 67.356614 
L 243.086174 67.356614 
L 243.504094 69.310885 
L 243.536242 69.310885 
L 243.954162 71.265156 
L 243.986309 71.265156 
L 244.790002 75.564554 
L 244.822149 75.564554 
L 246.684572 86.313046 
L 246.71672 86.313046 
L 246.941754 87.876463 
L 247.488264 91.785006 
L 247.904041 95.498122 
L 248.129075 97.452393 
L 248.643438 102.533499 
L 248.804176 104.096916 
L 249.093506 107.614604 
L 249.222096 108.982594 
L 250.057936 120.317368 
L 250.763042 135.169831 
L 251.052371 143.768625 
M 263.742136 143.768625 
L 263.870726 143.768625 
L 263.999317 143.573198 
L 264.09576 143.573198 
L 264.224351 143.37777 
L 264.385089 143.37777 
L 264.51368 143.182343 
L 264.577976 143.182343 
L 264.706566 142.986916 
L 264.867305 142.986916 
L 264.993752 142.791489 
L 265.058048 142.791489 
L 265.186638 142.596062 
L 265.283082 142.596062 
L 265.411672 142.400635 
L 265.475968 142.400635 
L 265.604558 142.205208 
L 265.668854 142.205208 
L 265.797445 142.00978 
L 265.86174 142.00978 
L 265.990331 141.814353 
L 266.118921 141.814353 
L 266.247512 141.618926 
L 266.376103 141.618926 
L 266.504694 141.423499 
L 266.568989 141.423499 
L 266.69758 141.228072 
L 266.954761 141.228072 
L 267.083352 141.032645 
L 267.147647 141.032645 
L 267.276238 140.837218 
L 267.501272 140.837218 
L 267.629863 140.64179 
L 267.75631 140.64179 
L 267.884901 140.446363 
L 268.077787 140.446363 
L 268.206378 140.250936 
L 268.334969 140.250936 
L 268.46356 140.055509 
L 268.560003 140.055509 
L 268.688593 139.860082 
L 268.817184 139.860082 
L 268.945775 139.664655 
L 268.977923 139.664655 
L 269.106513 139.469228 
L 269.299399 139.469228 
L 269.42799 139.2738 
L 269.588729 139.2738 
L 269.717319 139.078373 
L 269.878058 139.078373 
L 270.006649 138.882946 
L 270.167387 138.882946 
L 270.295978 138.687519 
L 270.521012 138.687519 
L 270.647459 138.492092 
L 270.872493 138.492092 
L 271.001084 138.296665 
L 271.161822 138.296665 
L 271.290413 138.101238 
L 271.644038 138.101238 
L 271.772628 137.905811 
L 271.997662 137.905811 
L 272.126253 137.710383 
L 272.190548 137.710383 
L 273.802219 136.342393 
L 274.121553 136.342393 
L 274.250143 136.146966 
L 274.539473 136.146966 
L 274.668063 135.951539 
L 274.957393 135.951539 
L 275.085983 135.756112 
L 275.118131 135.756112 
L 275.632494 135.560685 
L 275.696789 135.560685 
L 275.761085 135.365258 
L 275.793233 135.560685 
L 275.82538 135.560685 
L 275.953971 135.365258 
L 276.146857 135.365258 
L 276.275448 135.169831 
L 276.693368 135.169831 
L 276.819815 134.974403 
L 277.141292 134.974403 
L 277.269883 134.778976 
L 277.494917 134.778976 
L 277.623508 134.583549 
L 277.816394 134.583549 
L 277.944984 134.388122 
L 278.202166 134.388122 
L 278.330757 134.192695 
L 278.555791 134.192695 
L 278.652234 133.997268 
L 278.684381 134.192695 
L 278.748677 133.997268 
L 279.134449 133.997268 
L 279.26304 133.801841 
L 279.710964 133.801841 
L 279.839555 133.606413 
L 280.128884 133.606413 
L 280.257475 133.410986 
L 280.611099 133.410986 
L 280.707543 133.215559 
L 280.771838 133.410986 
L 280.803986 133.215559 
L 281.221906 133.215559 
L 281.286201 133.020132 
L 281.318349 133.215559 
L 281.414792 133.215559 
L 281.543382 133.020132 
L 282.025598 133.020132 
L 282.154189 132.824705 
L 282.537818 132.824705 
L 282.666408 132.629278 
L 282.698556 132.629278 
L 282.730704 132.824705 
L 282.794999 132.629278 
L 283.148624 132.629278 
L 283.277214 132.433851 
L 283.75943 132.433851 
L 283.888021 132.238424 
L 284.145202 132.238424 
L 284.273793 132.042996 
L 284.756008 132.042996 
L 284.852451 131.847569 
L 284.884599 132.042996 
L 284.948894 131.847569 
L 285.203933 131.847569 
L 285.268228 131.652142 
L 285.300376 131.847569 
L 285.332523 131.847569 
L 285.461114 131.652142 
L 285.493262 131.652142 
L 285.525409 131.847569 
L 285.589705 131.652142 
L 285.943329 131.652142 
L 286.07192 131.456715 
L 286.586283 131.456715 
L 286.714874 131.261288 
L 287.068499 131.261288 
L 287.100646 131.065861 
L 287.164942 131.261288 
L 287.261385 131.261288 
L 287.389975 131.065861 
L 287.934343 131.065861 
L 288.062934 130.870434 
L 288.577297 130.870434 
L 288.705887 130.675006 
L 288.770183 130.675006 
L 288.802331 130.870434 
L 288.866626 130.675006 
L 289.380989 130.675006 
L 289.50958 130.479579 
L 289.541727 130.675006 
L 289.606023 130.479579 
L 289.991795 130.479579 
L 290.120386 130.284152 
L 290.632606 130.284152 
L 290.664753 130.088725 
L 290.729049 130.284152 
L 290.825492 130.284152 
L 290.954082 130.088725 
L 291.532741 130.088725 
L 291.661332 129.893298 
L 292.079252 129.893298 
L 292.111399 129.697871 
L 292.175695 129.893298 
L 292.207842 129.893298 
L 292.336433 129.697871 
L 292.818648 129.697871 
L 292.947239 129.502444 
L 293.363016 129.502444 
L 293.459459 129.307016 
L 293.491607 129.502444 
L 293.555902 129.307016 
L 293.684493 129.307016 
L 293.716641 129.502444 
L 293.780936 129.307016 
L 294.038117 129.307016 
L 294.166708 129.111589 
L 294.745367 129.111589 
L 294.873957 128.916162 
L 294.906105 128.916162 
L 294.938253 129.111589 
L 295.002548 128.916162 
L 295.452616 128.916162 
L 295.549059 128.720735 
L 295.581206 128.916162 
L 295.645502 128.720735 
L 295.902683 128.720735 
L 295.934831 128.916162 
L 295.999126 128.720735 
L 296.350608 128.720735 
L 296.479199 128.525308 
L 296.511346 128.525308 
L 296.543494 128.720735 
L 296.607789 128.525308 
L 297.315038 128.525308 
L 297.443629 128.329881 
L 297.475777 128.329881 
L 297.507925 128.525308 
L 297.57222 128.329881 
L 298.054435 128.329881 
L 298.086583 128.134454 
L 298.150878 128.329881 
L 298.215174 128.329881 
L 298.343765 128.134454 
L 298.984575 128.134454 
L 299.113166 127.939026 
L 299.241757 128.134454 
L 299.273904 128.134454 
L 299.402495 127.939026 
L 300.206187 127.939026 
L 300.334778 127.743599 
L 300.366926 127.743599 
L 300.399073 127.939026 
L 300.463369 127.743599 
L 301.170618 127.743599 
L 301.299209 127.548172 
L 301.363504 127.743599 
L 301.395652 127.548172 
L 302.06861 127.548172 
L 302.197201 127.352745 
L 303.097336 127.352745 
L 303.225927 127.157318 
L 303.354518 127.157318 
L 303.418813 127.352745 
L 303.450961 127.157318 
L 303.933176 127.157318 
L 304.061767 126.961891 
L 304.126062 127.157318 
L 304.15821 126.961891 
L 304.702577 126.961891 
L 304.831168 126.766464 
L 304.863316 126.766464 
L 304.959759 126.961891 
L 305.08835 126.766464 
L 305.859894 126.766464 
L 305.988485 126.571037 
L 306.985063 126.571037 
L 307.113654 126.375609 
L 307.145802 126.375609 
L 307.177949 126.571037 
L 307.242245 126.375609 
L 307.754465 126.375609 
L 307.786612 126.180182 
L 307.850908 126.375609 
L 307.915203 126.375609 
L 307.947351 126.180182 
L 308.011646 126.375609 
L 308.108089 126.375609 
L 308.140237 126.180182 
L 308.204532 126.375609 
L 308.23668 126.375609 
L 308.365271 126.180182 
L 309.233258 126.180182 
L 309.265406 125.984755 
L 309.329701 126.180182 
L 309.361849 126.180182 
L 309.49044 125.984755 
L 310.54917 125.984755 
L 310.677761 125.789328 
L 310.8385 125.789328 
L 310.870647 125.984755 
L 310.934943 125.789328 
L 311.738635 125.789328 
L 311.835078 125.593901 
L 311.867226 125.789328 
L 311.931521 125.593901 
L 312.863804 125.593901 
L 312.928099 125.398474 
L 312.960247 125.593901 
L 313.05669 125.593901 
L 313.183138 125.398474 
L 314.147568 125.398474 
L 314.179716 125.203047 
L 314.244011 125.398474 
L 314.308307 125.398474 
L 314.40475 125.203047 
L 314.436897 125.398474 
L 314.501193 125.203047 
L 315.111999 125.203047 
L 315.144147 125.007619 
L 315.208442 125.203047 
L 315.497771 125.203047 
L 315.626362 125.007619 
L 315.722805 125.203047 
L 315.849253 125.007619 
L 316.71724 125.007619 
L 316.845831 124.812192 
L 316.974422 124.812192 
L 317.006569 125.007619 
L 317.070865 124.812192 
L 317.971 124.812192 
L 318.099591 124.616765 
L 318.90114 124.616765 
L 318.933288 124.421338 
L 318.997583 124.616765 
L 319.222617 124.616765 
L 319.351207 124.421338 
L 319.383355 124.421338 
L 319.415503 124.616765 
L 319.479798 124.421338 
L 320.026309 124.421338 
L 320.1549 124.225911 
L 320.187047 124.225911 
L 320.28349 124.421338 
L 320.412081 124.225911 
L 321.183626 124.225911 
L 321.312216 124.030484 
L 322.210209 124.030484 
L 322.242356 123.835057 
L 322.306652 124.030484 
L 322.595981 124.030484 
L 322.724572 123.835057 
L 322.756719 124.030484 
L 322.821015 123.835057 
L 322.88531 123.835057 
L 322.917458 124.030484 
L 322.981753 123.835057 
L 323.946184 123.835057 
L 323.978331 123.639629 
L 324.042627 123.835057 
L 324.074775 123.835057 
L 324.203365 123.639629 
L 325.101357 123.639629 
L 325.133505 123.444202 
L 325.1978 123.639629 
L 325.262096 123.639629 
L 325.294244 123.444202 
L 325.358539 123.639629 
L 325.422834 123.639629 
L 325.551425 123.444202 
L 325.680016 123.639629 
L 325.808607 123.444202 
L 326.773037 123.444202 
L 326.837333 123.248775 
L 326.86948 123.444202 
L 326.901628 123.444202 
L 326.965923 123.248775 
L 326.998071 123.444202 
L 327.062366 123.444202 
L 327.190957 123.248775 
L 328.764051 123.248775 
L 328.892641 123.053348 
L 329.05338 123.053348 
L 329.181971 123.248775 
L 329.310561 123.053348 
L 329.342709 123.053348 
L 329.374857 123.248775 
L 329.439152 123.053348 
L 330.208554 123.053348 
L 330.240701 122.857921 
L 330.304997 123.053348 
L 330.433587 123.053348 
L 330.562178 122.857921 
L 330.690769 123.053348 
L 330.81936 122.857921 
L 331.815938 122.857921 
L 331.848086 122.662494 
L 331.912381 122.857921 
L 331.944529 122.857921 
L 332.073119 122.662494 
L 333.453327 122.662494 
L 333.485475 122.467067 
L 333.54977 122.662494 
L 333.678361 122.662494 
L 333.742656 122.467067 
L 333.774804 122.662494 
L 333.903395 122.662494 
L 334.031985 122.467067 
L 334.096281 122.467067 
L 334.128428 122.662494 
L 334.192724 122.467067 
L 334.224871 122.467067 
L 334.257019 122.662494 
L 334.321314 122.467067 
L 334.932121 122.467067 
L 334.964268 122.271639 
L 335.028564 122.467067 
L 335.189302 122.467067 
L 335.317893 122.271639 
L 335.446484 122.467067 
L 335.478631 122.467067 
L 335.607222 122.271639 
L 335.830113 122.271639 
L 335.958703 122.467067 
L 336.087294 122.271639 
L 336.6981 122.271639 
L 336.730248 122.076212 
L 336.794543 122.271639 
L 336.858839 122.271639 
L 336.955282 122.076212 
L 336.987429 122.271639 
L 337.051725 122.076212 
L 337.083873 122.076212 
L 337.180316 122.271639 
L 337.308906 122.076212 
L 338.401928 122.076212 
L 338.528375 121.880785 
L 338.689114 121.880785 
L 338.721261 122.076212 
L 338.785557 121.880785 
L 339.71784 121.880785 
L 339.846431 121.685358 
L 339.878578 121.685358 
L 340.007169 121.880785 
L 340.071464 121.685358 
L 340.103612 121.880785 
L 340.167907 121.880785 
L 340.296498 121.685358 
L 341.323081 121.685358 
L 341.451672 121.489931 
L 341.515967 121.489931 
L 341.644558 121.685358 
L 341.773149 121.489931 
L 341.837444 121.489931 
L 341.869592 121.685358 
L 341.933887 121.489931 
L 345.403694 121.489931 
L 345.435842 121.294504 
L 345.500137 121.489931 
L 345.725171 121.489931 
L 345.757319 121.294504 
L 345.821614 121.489931 
L 350.3823 121.489931 
L 350.607334 120.708222 
L 350.639481 120.708222 
L 350.671629 121.685358 
L 357.257619 121.685358 
L 357.418357 121.489931 
L 357.546948 121.685358 
L 357.675539 121.685358 
L 357.831991 122.467067 
L 358.12132 122.467067 
L 358.185615 122.662494 
L 358.217763 122.467067 
L 358.442797 122.467067 
L 358.474945 122.662494 
L 358.53924 122.467067 
L 358.603535 122.467067 
L 358.635683 122.662494 
L 358.699978 122.467067 
L 359.182194 122.467067 
L 359.310784 122.662494 
L 359.342932 122.662494 
L 359.471523 122.467067 
L 360.018034 122.467067 
L 360.146624 122.662494 
L 360.243067 122.662494 
L 360.275215 122.467067 
L 360.339511 122.662494 
L 361.880456 122.662494 
L 362.009047 122.467067 
L 362.266229 122.467067 
L 362.362672 124.812192 
L 362.652001 128.134454 
L 363.069921 130.088725 
L 363.198512 130.088725 
L 364.900196 118.363097 
L 365.189525 116.017971 
L 365.703888 112.304855 
L 366.023222 109.764303 
L 366.408994 106.832896 
L 366.634028 105.269478 
L 367.148391 101.556363 
L 367.373425 99.992946 
L 367.919935 96.084403 
L 368.177117 94.130132 
L 371.00397 77.518825 
L 371.036118 77.518825 
L 371.612633 74.587418 
L 371.644781 74.587418 
L 372.255587 71.460584 
L 372.287735 71.460584 
L 372.76995 69.115458 
L 372.802098 69.115458 
L 373.316461 66.574905 
L 373.348609 66.574905 
L 373.637938 65.402342 
L 373.670085 65.402342 
L 373.991562 64.034352 
L 374.02371 64.034352 
L 374.375191 62.470935 
L 374.407339 62.470935 
L 374.760964 60.907518 
L 374.825259 60.907518 
L 375.082441 59.930382 
L 375.114588 59.930382 
L 375.468213 58.366965 
L 375.532508 58.366965 
L 375.757542 57.585257 
L 375.78969 57.585257 
L 375.982576 56.998975 
L 376.014723 56.998975 
L 376.271905 56.02184 
L 376.304053 56.02184 
L 376.496939 55.435558 
L 376.529087 55.435558 
L 376.786268 54.458423 
L 376.818416 54.458423 
L 377.04345 53.676714 
L 377.105602 53.676714 
L 377.330636 52.895006 
L 377.362783 52.895006 
L 377.523522 52.504151 
L 377.555669 52.504151 
L 377.780703 51.722443 
L 377.812851 51.722443 
L 378.070032 50.745307 
L 378.134328 50.745307 
L 378.327214 50.159026 
L 378.391509 50.159026 
L 378.584395 49.572744 
L 378.616543 49.572744 
L 378.809429 48.986463 
L 378.841577 48.986463 
L 379.066611 48.204754 
L 379.130906 48.204754 
L 379.35594 47.423046 
L 379.388088 47.423046 
L 379.645269 46.44591 
L 379.677417 46.44591 
L 379.900307 45.664201 
L 379.964603 45.664201 
L 380.125341 45.273347 
L 380.157489 45.273347 
L 380.318227 44.882493 
L 380.382523 44.882493 
L 380.543261 44.491639 
L 380.575409 44.491639 
L 380.736147 44.100784 
L 380.768295 44.100784 
L 380.961181 43.514503 
L 380.993329 43.514503 
L 381.154067 43.123649 
L 381.218363 43.123649 
L 381.379101 42.732794 
L 381.411249 42.732794 
L 381.571987 42.34194 
L 381.66843 42.34194 
L 381.829169 41.951086 
L 381.861316 41.951086 
L 382.022055 41.560232 
L 382.054203 41.560232 
L 382.247089 40.97395 
L 382.311384 40.97395 
L 382.472123 40.583096 
L 382.568566 40.583096 
L 382.729304 40.192242 
L 382.791456 40.192242 
L 382.952195 39.801387 
L 383.01649 39.801387 
L 383.177229 39.410533 
L 383.241524 39.410533 
L 383.402262 39.019679 
L 383.498705 39.019679 
L 383.659444 38.628824 
L 383.723739 38.628824 
L 383.884478 38.23797 
L 383.980921 38.23797 
L 384.109512 38.042543 
L 384.141659 38.042543 
L 384.302398 37.651689 
L 384.398841 37.651689 
L 384.527431 37.456262 
L 384.559579 37.456262 
L 384.68817 37.260834 
L 384.752465 37.260834 
L 384.913204 36.86998 
L 384.977499 36.86998 
L 385.138238 36.479126 
L 385.234681 36.479126 
L 385.395419 36.088272 
L 385.459714 36.088272 
L 385.586162 35.892845 
L 385.61831 35.892845 
L 385.7469 35.697417 
L 385.779048 35.697417 
L 385.907639 35.50199 
L 385.971934 35.50199 
L 386.100525 35.306563 
L 386.132673 35.306563 
L 386.261263 35.111136 
L 386.293411 35.111136 
L 386.422002 34.915709 
L 386.486297 34.915709 
L 386.614888 34.720282 
L 386.679183 34.720282 
L 386.839922 34.329427 
L 386.968513 34.329427 
L 387.129251 33.938573 
L 387.161399 34.134 
L 387.225694 33.938573 
L 387.289989 33.938573 
L 387.41858 33.743146 
L 387.450728 33.743146 
L 387.579319 33.547719 
L 387.611466 33.547719 
L 387.772205 33.156865 
L 387.965091 33.156865 
L 388.093682 32.961437 
L 388.157977 32.961437 
L 388.286568 32.76601 
L 388.380868 32.76601 
L 388.509458 32.570583 
L 388.605902 32.570583 
L 388.734492 32.375156 
L 388.830935 32.375156 
L 388.959526 32.179729 
L 389.023822 32.179729 
L 389.152412 31.984302 
L 389.248855 31.984302 
L 389.377446 31.788875 
L 389.409594 31.788875 
L 389.538185 31.593447 
L 389.634628 31.593447 
L 389.763218 31.39802 
L 389.859661 31.39802 
L 389.988252 31.202593 
L 390.0204 31.202593 
L 390.181138 30.811739 
L 390.341877 30.811739 
L 390.470467 30.616312 
L 390.695501 30.616312 
L 390.824092 30.420885 
L 390.984831 30.420885 
L 391.113421 30.225458 
L 391.207721 30.225458 
L 391.336312 30.03003 
L 391.561346 30.03003 
L 391.657789 29.834603 
L 391.689936 30.03003 
L 391.754232 29.834603 
L 391.979266 29.834603 
L 392.140004 29.443749 
L 392.172152 29.443749 
L 392.300743 29.639176 
L 392.429333 29.443749 
L 392.461481 29.443749 
L 392.493629 29.639176 
L 392.557924 29.443749 
L 392.782958 29.443749 
L 392.911549 29.248322 
L 393.007992 29.248322 
L 393.040139 29.052895 
L 393.104435 29.248322 
L 393.136582 29.248322 
L 393.265173 29.052895 
L 393.554502 29.052895 
L 393.650945 28.857468 
L 393.747389 29.052895 
L 393.875979 28.857468 
L 393.938132 28.857468 
L 394.066722 28.66204 
L 394.259608 28.66204 
L 394.388199 28.466613 
L 394.484642 28.466613 
L 394.51679 28.66204 
L 394.581085 28.466613 
L 394.709676 28.466613 
L 394.806119 28.271186 
L 394.838267 28.466613 
L 394.902562 28.271186 
L 395.159744 28.271186 
L 395.288334 28.075759 
L 395.577664 28.075759 
L 395.706254 27.880332 
L 396.092027 27.880332 
L 396.220617 27.684905 
L 396.284913 27.684905 
L 396.31706 27.880332 
L 396.381356 27.684905 
L 396.70069 27.684905 
L 396.82928 27.489478 
L 396.893576 27.684905 
L 396.925723 27.489478 
L 397.343643 27.489478 
L 397.472234 27.29405 
L 398.147336 27.29405 
L 398.275926 27.098623 
L 398.308074 27.29405 
L 398.372369 27.098623 
L 398.951028 27.098623 
L 399.079619 26.903196 
L 399.111766 26.903196 
L 399.143914 27.098623 
L 399.208209 26.903196 
L 399.3368 26.903196 
L 399.465391 26.707769 
L 399.559691 26.707769 
L 399.623986 26.903196 
L 399.656134 26.707769 
L 400.041906 26.707769 
L 400.074054 26.512342 
L 400.138349 26.707769 
L 400.234792 26.707769 
L 400.363383 26.512342 
L 400.781303 26.512342 
L 400.909894 26.316915 
L 401.424257 26.316915 
L 401.456404 26.121488 
L 401.5207 26.316915 
L 401.584995 26.316915 
L 401.713586 26.121488 
L 401.874324 26.121488 
L 402.035063 27.098623 
L 402.163653 26.121488 
L 402.195801 26.316915 
L 402.257953 26.121488 
L 402.836612 26.121488 
L 402.868759 25.92606 
L 402.933055 26.121488 
L 402.99735 26.512342 
L 403.029498 26.316915 
L 403.190236 25.92606 
L 403.286679 25.92606 
L 403.41527 26.121488 
L 403.543861 25.92606 
L 403.736747 25.92606 
L 403.768895 26.121488 
L 403.83319 25.92606 
L 404.476144 25.92606 
L 404.508292 25.730633 
L 404.572587 25.92606 
L 404.926211 25.92606 
L 405.022655 25.730633 
L 405.149102 25.92606 
L 405.277693 25.730633 
L 405.534874 25.730633 
L 405.567022 25.92606 
L 405.631317 25.730633 
L 406.820782 25.730633 
L 406.85293 25.535206 
L 406.917225 25.730633 
L 407.174407 25.730633 
L 407.302997 25.535206 
L 407.560179 25.535206 
L 407.592326 25.730633 
L 407.656622 25.535206 
L 407.720917 25.535206 
L 407.849508 25.730633 
L 407.975956 25.535206 
L 408.458171 25.535206 
L 408.490319 25.730633 
L 408.554614 25.535206 
L 409.036829 25.535206 
L 409.068977 25.730633 
L 409.133272 25.535206 
L 409.16542 25.535206 
L 409.197568 25.730633 
L 409.261863 25.535206 
L 409.358306 25.535206 
L 409.390454 25.730633 
L 409.454749 25.535206 
L 409.969112 25.535206 
L 410.00126 25.730633 
L 410.065555 25.535206 
L 410.322737 25.535206 
L 410.354885 25.730633 
L 410.41918 25.535206 
L 410.644214 25.535206 
L 410.738514 25.730633 
L 410.867104 25.535206 
L 410.899252 25.535206 
L 411.027843 25.730633 
L 411.092138 25.730633 
L 411.188581 25.535206 
L 411.220729 25.730633 
L 411.285024 25.535206 
L 411.317172 25.535206 
L 411.445763 25.730633 
L 411.574354 25.730633 
L 411.606501 25.535206 
L 411.638649 25.92606 
L 411.670797 25.730633 
L 411.702944 26.121488 
L 411.76724 25.730633 
L 411.960126 25.730633 
L 411.992273 26.512342 
L 412.056569 25.92606 
L 412.120864 25.92606 
L 412.249455 25.730633 
L 412.345898 26.707769 
L 412.378046 25.92606 
L 412.410193 25.92606 
L 412.442341 25.730633 
L 412.506636 25.92606 
L 413.278181 25.92606 
L 413.310329 26.121488 
L 413.374624 25.92606 
L 413.468924 25.92606 
L 413.597515 26.121488 
L 413.629662 26.121488 
L 413.726105 26.512342 
L 413.854696 26.121488 
L 413.918992 26.121488 
L 414.015435 26.316915 
L 414.047582 26.121488 
L 414.111878 26.316915 
L 414.176173 26.316915 
L 414.208321 26.512342 
L 414.272616 26.316915 
L 414.594093 26.316915 
L 414.690536 27.489478 
L 414.722684 27.29405 
L 414.754832 26.707769 
L 414.851275 26.903196 
L 414.979865 26.707769 
L 415.269195 26.707769 
L 415.558524 27.880332 
L 415.687114 27.098623 
L 415.719262 27.098623 
L 415.815705 27.684905 
L 415.847853 27.489478 
L 415.880001 27.29405 
L 415.912148 27.489478 
L 416.040739 27.684905 
L 416.105034 27.684905 
L 416.360073 28.66204 
L 416.424368 28.66204 
L 416.617254 29.248322 
L 416.68155 29.248322 
L 416.842288 29.639176 
L 416.906583 29.639176 
L 417.035174 29.834603 
L 417.067322 29.834603 
L 417.22806 30.225458 
L 417.324503 30.225458 
L 417.453094 30.420885 
L 417.485242 30.420885 
L 417.64598 30.811739 
L 417.710276 30.811739 
L 417.871014 31.202593 
L 417.93531 31.202593 
L 418.096048 31.593447 
L 418.128196 31.593447 
L 418.288934 31.984302 
L 418.385377 31.984302 
L 418.546116 32.375156 
L 418.610411 32.375156 
L 418.771149 32.76601 
L 418.835445 32.76601 
L 418.964036 32.961437 
L 418.996183 32.961437 
L 419.156922 33.352292 
L 419.189069 33.352292 
L 419.347665 33.743146 
L 419.41196 33.743146 
L 419.572698 34.134 
L 419.604846 34.134 
L 419.765585 34.524855 
L 419.797732 34.524855 
L 419.958471 34.915709 
L 420.054914 34.915709 
L 420.215652 35.306563 
L 420.279948 35.306563 
L 420.472834 35.892845 
L 420.537129 35.892845 
L 420.730015 36.479126 
L 420.794311 36.479126 
L 420.987197 37.065407 
L 421.051492 37.065407 
L 421.212231 37.456262 
L 421.244378 37.456262 
L 421.405117 37.847116 
L 421.437264 37.847116 
L 421.598003 38.23797 
L 421.630151 38.23797 
L 421.855184 39.019679 
L 421.91948 39.019679 
L 422.14237 39.801387 
L 422.206666 39.801387 
L 422.399552 40.387669 
L 422.463847 40.387669 
L 422.656733 40.97395 
L 422.688881 40.97395 
L 422.881767 41.560232 
L 422.946063 41.560232 
L 423.171096 42.34194 
L 423.235392 42.34194 
L 423.39613 42.732794 
L 423.460426 42.732794 
L 423.653312 43.319076 
L 423.685459 43.319076 
L 423.910493 44.100784 
L 423.942641 44.100784 
L 424.135527 44.687066 
L 424.167675 44.687066 
L 424.392709 45.468774 
L 424.457004 45.468774 
L 424.842776 47.227619 
L 424.874924 47.227619 
L 425.097815 48.009327 
L 425.129962 48.009327 
L 425.354996 48.791036 
L 425.387144 48.791036 
L 425.676473 49.963598 
L 425.740768 49.963598 
L 425.99795 50.940734 
L 426.030098 50.940734 
L 426.319427 52.113297 
L 426.351574 51.91787 
L 426.383722 52.113297 
L 426.608756 52.895006 
L 426.640904 52.895006 
L 426.898085 53.872141 
L 426.930233 53.872141 
L 427.187414 54.849277 
L 427.219562 54.849277 
L 427.476743 55.826413 
L 427.508891 55.826413 
L 427.860373 57.38983 
L 427.89252 57.38983 
L 428.149702 58.366965 
L 428.181849 58.366965 
L 428.535474 59.930382 
L 428.567622 59.930382 
L 428.985542 61.884654 
L 429.017689 61.884654 
L 429.307019 63.057217 
L 429.339166 63.057217 
L 429.724939 64.816061 
L 429.757086 64.816061 
L 430.335745 67.747468 
L 430.365749 67.747468 
L 430.91226 70.483448 
L 430.944408 70.483448 
L 431.458771 73.024001 
L 431.490918 73.024001 
L 434.349919 91.003297 
L 434.639249 93.348423 
L 434.928578 95.693549 
L 435.378645 99.992946 
L 435.571531 101.75179 
L 436.469524 111.32772 
L 436.598114 112.69571 
L 437.273216 122.076212 
L 437.851874 134.388122 
L 438.141203 143.182343 
M 451.503926 143.768625 
L 451.696812 143.768625 
L 451.825403 143.573198 
L 451.953994 143.573198 
L 452.082584 143.37777 
L 452.179027 143.37777 
L 452.307618 143.182343 
L 452.436209 143.182343 
L 452.5648 142.986916 
L 452.821981 142.986916 
L 452.950572 142.791489 
L 453.07702 142.791489 
L 453.20561 142.596062 
L 453.366349 142.596062 
L 453.49494 142.400635 
L 453.719973 142.400635 
L 453.848564 142.205208 
L 453.945007 142.205208 
L 454.073598 142.00978 
L 454.202189 142.00978 
L 454.330779 141.814353 
L 454.523666 141.814353 
L 454.652256 141.618926 
L 454.845142 141.618926 
L 454.973733 141.423499 
L 455.230915 141.423499 
L 455.359505 141.228072 
L 455.584539 141.228072 
L 455.71313 141.032645 
L 455.936021 141.032645 
L 456.064611 140.837218 
L 456.321793 140.837218 
L 456.450384 140.64179 
L 456.675418 140.64179 
L 456.804008 140.446363 
L 457.125485 140.446363 
L 457.254076 140.250936 
L 457.446962 140.250936 
L 457.575553 140.055509 
L 457.768439 140.055509 
L 457.89703 139.860082 
L 458.347097 139.860082 
L 458.475688 139.664655 
L 458.636427 139.664655 
L 458.762874 139.469228 
L 458.859317 139.469228 
L 458.987908 139.2738 
L 459.309385 139.2738 
L 459.437976 139.078373 
L 459.566566 139.078373 
L 459.663009 138.882946 
L 459.727305 139.078373 
L 459.759452 138.882946 
L 460.177372 138.882946 
L 460.305963 138.687519 
L 460.62744 138.687519 
L 460.756031 138.492092 
L 461.141803 138.492092 
L 461.270394 138.296665 
L 461.686171 138.296665 
L 461.814761 138.101238 
L 462.361272 138.101238 
L 462.489863 137.905811 
L 462.843487 137.905811 
L 462.972078 137.710383 
L 463.35785 137.710383 
L 463.486441 137.514956 
L 463.582884 137.514956 
L 463.615032 137.710383 
L 463.679327 137.514956 
L 463.936509 137.514956 
L 464.0651 137.319529 
L 464.448729 137.319529 
L 464.577319 137.124102 
L 465.059535 137.124102 
L 465.188125 136.928675 
L 465.477455 136.928675 
L 465.509602 136.733248 
L 465.573898 136.928675 
L 465.606045 136.928675 
L 465.702488 136.733248 
L 465.734636 136.928675 
L 465.798932 136.733248 
L 466.216852 136.733248 
L 466.313295 136.537821 
L 466.345442 136.733248 
L 466.409738 136.537821 
L 466.79551 136.537821 
L 466.924101 136.342393 
L 467.468468 136.342393 
L 467.597059 136.146966 
L 468.111422 136.146966 
L 468.207865 135.951539 
L 468.240013 136.146966 
L 468.304308 135.951539 
L 468.722228 135.951539 
L 468.850819 135.756112 
L 469.333034 135.756112 
L 469.461625 135.560685 
L 469.493773 135.756112 
L 469.558068 135.560685 
L 470.005992 135.560685 
L 470.134583 135.365258 
L 470.231026 135.365258 
L 470.295322 135.560685 
L 470.327469 135.365258 
L 470.713242 135.365258 
L 470.745389 135.169831 
L 470.809685 135.365258 
L 470.906128 135.365258 
L 471.034718 135.169831 
L 471.549081 135.169831 
L 471.677672 134.974403 
L 472.352774 134.974403 
L 472.384921 134.778976 
L 472.449217 134.974403 
L 472.481364 134.974403 
L 472.609955 134.778976 
L 472.706398 134.778976 
L 472.738546 134.974403 
L 472.800698 134.778976 
L 473.282913 134.778976 
L 473.411504 134.583549 
L 473.4758 134.583549 
L 473.507947 134.778976 
L 473.572243 134.583549 
L 473.732981 134.583549 
L 473.765129 134.388122 
L 473.829424 134.583549 
L 473.990163 134.583549 
L 474.086606 134.388122 
L 474.183049 134.583549 
L 474.31164 134.388122 
L 474.600969 134.388122 
L 474.633116 134.192695 
L 474.697412 134.388122 
L 474.761707 134.388122 
L 474.85815 134.192695 
L 474.890298 134.388122 
L 474.954593 134.192695 
L 475.436809 134.192695 
L 475.468956 133.997268 
L 475.533252 134.192695 
L 475.563256 134.192695 
L 475.691847 133.997268 
L 476.399096 133.997268 
L 476.527687 133.801841 
L 476.656278 133.997268 
L 476.784868 133.801841 
L 477.395674 133.801841 
L 477.524265 133.606413 
L 477.556413 133.606413 
L 477.620708 133.801841 
L 477.652856 133.606413 
L 478.486553 133.606413 
L 478.615143 133.410986 
L 478.679439 133.410986 
L 478.711586 133.606413 
L 478.775882 133.410986 
L 479.579574 133.410986 
L 479.708165 133.215559 
L 479.77246 133.215559 
L 479.804608 133.410986 
L 479.868903 133.215559 
L 480.447562 133.215559 
L 480.544005 133.020132 
L 480.6083 133.215559 
L 480.640448 133.020132 
L 480.672596 133.020132 
L 480.736891 133.215559 
L 480.769039 133.020132 
L 481.53844 133.020132 
L 481.667031 132.824705 
L 481.699178 133.020132 
L 481.763474 132.824705 
L 481.827769 132.824705 
L 481.859917 133.020132 
L 481.924212 132.824705 
L 482.535018 132.824705 
L 482.567166 132.629278 
L 482.631461 132.824705 
L 482.888643 132.824705 
L 483.017234 132.629278 
L 483.853073 132.629278 
L 483.949517 132.433851 
L 483.981664 132.629278 
L 484.043816 132.433851 
L 484.108112 132.433851 
L 484.14026 132.629278 
L 484.204555 132.433851 
L 484.333146 132.433851 
L 484.365293 132.629278 
L 484.429589 132.433851 
L 484.911804 132.433851 
L 485.040395 132.238424 
L 485.072542 132.433851 
L 485.136838 132.238424 
L 485.811939 132.238424 
L 485.844087 132.042996 
L 485.908382 132.238424 
L 485.94053 132.238424 
L 486.069121 132.042996 
L 486.101269 132.238424 
L 486.165564 132.042996 
L 486.808518 132.042996 
L 486.902818 131.847569 
L 486.934965 132.042996 
L 486.999261 131.847569 
L 487.674362 131.847569 
L 487.770805 131.652142 
L 487.899396 131.847569 
L 488.027987 131.652142 
L 489.08886 131.652142 
L 489.217451 131.456715 
L 489.313894 131.456715 
L 489.346042 131.652142 
L 489.410337 131.456715 
L 490.372625 131.456715 
L 490.501216 131.261288 
L 490.597659 131.456715 
L 490.726249 131.261288 
L 491.980009 131.261288 
L 492.1086 131.065861 
L 493.070887 131.065861 
L 493.16733 130.870434 
L 493.295921 131.065861 
L 493.392364 130.870434 
L 493.488807 131.065861 
L 493.617398 130.870434 
L 494.678272 130.870434 
L 494.71042 130.675006 
L 494.774715 130.870434 
L 494.806863 130.870434 
L 494.935453 130.675006 
L 494.999749 130.675006 
L 495.031896 130.870434 
L 495.096192 130.675006 
L 496.219218 130.675006 
L 496.347808 130.479579 
L 496.476399 130.675006 
L 496.60499 130.675006 
L 496.701433 130.479579 
L 496.733581 130.675006 
L 496.797876 130.479579 
L 497.85875 130.479579 
L 497.890898 130.284152 
L 497.955193 130.479579 
L 498.145936 130.479579 
L 498.274527 130.284152 
L 499.592582 130.284152 
L 499.689025 130.088725 
L 499.817616 130.284152 
L 499.881911 130.088725 
L 499.914059 130.284152 
L 499.946206 130.284152 
L 500.074797 130.088725 
L 500.908494 130.088725 
L 500.972789 129.893298 
L 501.004937 130.088725 
L 501.133528 130.088725 
L 501.262118 129.893298 
L 501.422857 129.893298 
L 501.5193 130.088725 
L 501.647891 129.893298 
L 501.776482 129.893298 
L 501.808629 130.088725 
L 501.872925 129.893298 
L 502.515878 129.893298 
L 502.548026 129.697871 
L 502.612321 129.893298 
L 502.676617 129.893298 
L 502.805208 129.697871 
L 502.901651 129.893298 
L 503.030241 129.697871 
L 504.153267 129.697871 
L 504.185415 129.502444 
L 504.24971 129.697871 
L 504.281858 129.697871 
L 504.410449 129.502444 
L 504.53904 129.697871 
L 504.66763 129.502444 
L 505.567766 129.502444 
L 505.696356 129.307016 
L 505.728504 129.307016 
L 505.857095 129.502444 
L 505.985686 129.307016 
L 507.076564 129.307016 
L 507.140859 129.111589 
L 507.173007 129.307016 
L 507.26945 129.307016 
L 507.398041 129.111589 
L 507.430188 129.111589 
L 507.462336 129.307016 
L 507.526631 129.111589 
L 507.590927 129.111589 
L 507.623074 129.307016 
L 507.68737 129.111589 
L 508.394619 129.111589 
L 508.491062 128.916162 
L 508.587505 129.111589 
L 508.619653 128.916162 
L 508.683948 129.111589 
L 508.716096 129.111589 
L 508.748244 128.916162 
L 508.812539 129.111589 
L 508.844687 129.111589 
L 508.973277 128.916162 
L 510.8357 128.916162 
L 510.964291 128.720735 
L 510.996439 128.720735 
L 511.125029 128.916162 
L 511.221472 128.720735 
L 511.25362 128.916162 
L 511.317916 128.720735 
L 512.248055 128.720735 
L 512.280203 128.525308 
L 512.344498 128.720735 
L 512.698123 128.720735 
L 512.730271 128.525308 
L 512.794566 128.720735 
L 512.826714 128.720735 
L 512.955304 128.525308 
L 514.78558 128.525308 
L 514.817727 128.329881 
L 514.882023 128.525308 
L 514.946318 128.525308 
L 515.042761 128.329881 
L 515.074909 128.525308 
L 515.139204 128.329881 
L 515.267795 128.329881 
L 515.364238 128.525308 
L 515.492829 128.329881 
L 515.524976 128.525308 
L 515.589272 128.329881 
L 515.621419 128.329881 
L 515.653567 128.525308 
L 515.717862 128.329881 
L 517.260952 128.329881 
L 517.325247 128.134454 
L 517.357395 128.329881 
L 517.485985 128.329881 
L 517.612433 128.134454 
L 517.676728 128.329881 
L 517.708876 128.134454 
L 517.741024 128.134454 
L 517.837467 128.329881 
L 517.966058 128.134454 
L 519.444851 128.134454 
L 519.541294 127.939026 
L 519.669885 128.134454 
L 519.798476 127.939026 
L 519.894919 127.939026 
L 519.991362 128.134454 
L 520.119953 127.939026 
L 522.303852 127.939026 
L 522.336 127.743599 
L 522.400295 127.939026 
L 522.464591 127.939026 
L 522.593182 127.743599 
L 522.689625 127.939026 
L 522.818215 127.743599 
L 523.043249 127.743599 
L 523.075397 127.939026 
L 523.139692 127.743599 
L 524.712786 127.743599 
L 524.744933 127.548172 
L 524.809229 127.743599 
L 524.841377 127.743599 
L 524.905672 127.548172 
L 524.93782 127.743599 
L 524.969967 127.743599 
L 525.06641 127.548172 
L 525.195001 127.743599 
L 525.227149 127.743599 
L 525.291444 127.548172 
L 525.323592 127.743599 
L 525.452183 127.743599 
L 525.580773 127.548172 
L 525.612921 127.743599 
L 525.677216 127.548172 
L 525.709364 127.548172 
L 525.741512 127.743599 
L 525.805807 127.548172 
L 526.800242 127.548172 
L 526.83239 127.352745 
L 526.896685 127.548172 
L 526.960981 127.548172 
L 526.993128 127.352745 
L 527.057424 127.548172 
L 527.925411 127.548172 
L 528.054002 127.352745 
L 528.08615 127.352745 
L 528.214741 127.548172 
L 528.279036 127.548172 
L 528.407627 127.352745 
L 528.568365 127.352745 
L 528.632661 127.548172 
L 528.664808 127.352745 
L 528.761251 127.352745 
L 528.793399 127.548172 
L 528.857694 127.352745 
L 530.880856 127.352745 
L 530.913003 127.157318 
L 530.977299 127.352745 
L 531.041594 127.352745 
L 531.138037 127.157318 
L 531.266628 127.352745 
L 531.395219 127.352745 
L 531.491662 127.157318 
L 531.555957 127.352745 
L 531.588105 127.157318 
L 531.748843 127.157318 
L 531.780991 127.352745 
L 531.843143 127.157318 
L 531.939586 127.157318 
L 531.971734 127.352745 
L 532.036029 127.157318 
L 532.16462 127.157318 
L 532.196768 127.352745 
L 532.261063 127.157318 
L 534.222072 127.157318 
L 534.25422 126.961891 
L 534.318515 127.157318 
L 534.412815 127.157318 
L 534.541406 126.961891 
L 534.830735 126.961891 
L 534.927178 127.157318 
L 534.991473 126.961891 
L 535.023621 127.157318 
L 535.055769 127.157318 
L 535.120064 126.961891 
L 535.152212 127.157318 
L 535.216507 127.157318 
L 535.345098 126.961891 
L 536.98463 126.961891 
L 537.016778 126.766464 
L 537.081073 126.961891 
L 537.306107 126.961891 
L 537.338255 126.766464 
L 537.40255 126.961891 
L 537.434698 126.961891 
L 537.498993 126.766464 
L 537.531141 126.961891 
L 537.786179 126.961891 
L 537.882622 126.766464 
L 537.979065 126.961891 
L 538.011213 126.766464 
L 538.075508 126.961891 
L 538.236247 126.961891 
L 538.33269 126.766464 
L 538.461281 126.961891 
L 538.589871 126.766464 
L 541.255986 126.766464 
L 541.288134 126.571037 
L 541.352429 126.766464 
L 541.384577 126.766464 
L 541.416725 126.571037 
L 541.48102 126.766464 
L 541.834645 126.766464 
L 541.963236 126.571037 
L 541.995383 126.571037 
L 542.123974 126.766464 
L 542.252565 126.766464 
L 542.381155 126.571037 
L 542.477599 126.571037 
L 542.574042 126.766464 
L 542.702632 126.571037 
L 542.831223 126.571037 
L 542.863371 126.766464 
L 542.927666 126.571037 
L 543.66492 126.571037 
L 543.761363 126.766464 
L 543.889954 126.571037 
L 546.138149 126.571037 
L 546.170296 126.766464 
L 546.234592 126.571037 
L 549.865137 126.571037 
L 549.993728 126.375609 
L 550.154467 126.375609 
L 550.347353 128.134454 
L 550.572387 129.697871 
L 550.893863 131.065861 
L 550.926011 131.065861 
L 551.08675 131.456715 
L 551.21534 131.456715 
L 551.343931 131.652142 
L 551.376079 131.652142 
L 551.50467 131.456715 
L 551.536817 131.456715 
L 551.729703 130.870434 
L 551.791856 130.870434 
L 552.370514 127.157318 
L 552.691991 121.685358 
L 553.881455 108.396313 
L 554.138637 106.246614 
L 554.460114 103.510634 
L 554.811595 100.774654 
L 555.100924 98.429529 
L 555.743878 93.934704 
L 555.936764 92.762142 
L 556.869047 86.508473 
L 557.061933 85.140483 
L 557.094081 85.140483 
L 559.213685 72.828574 
L 559.245833 72.828574 
L 559.824491 69.897167 
L 559.856639 69.897167 
L 560.561745 66.184051 
L 560.593893 66.184051 
L 560.947517 64.620634 
L 560.979665 64.620634 
L 561.365437 62.86179 
L 561.397585 62.86179 
L 561.654766 61.884654 
L 561.686914 61.884654 
L 561.976243 60.712091 
L 562.008391 60.712091 
L 562.329868 59.344101 
L 562.362016 59.344101 
L 562.683492 57.976111 
L 562.745645 57.976111 
L 562.970678 57.194403 
L 563.002826 57.194403 
L 563.356451 55.630985 
L 563.388598 55.630985 
L 563.64578 54.65385 
L 563.677928 54.65385 
L 563.999404 53.28586 
L 564.031552 53.28586 
L 564.288734 52.308724 
L 564.320881 52.308724 
L 564.545915 51.527016 
L 564.578063 51.527016 
L 564.835244 50.54988 
L 564.931687 50.54988 
L 565.188869 49.572744 
L 565.253164 49.572744 
L 565.478198 48.791036 
L 565.54035 48.791036 
L 565.797532 47.8139 
L 565.861827 47.8139 
L 566.2476 46.055056 
L 566.279747 46.055056 
L 566.472633 45.468774 
L 566.536929 45.468774 
L 566.697667 45.07792 
L 566.729815 45.07792 
L 566.890553 44.687066 
L 566.922701 44.687066 
L 567.115587 44.100784 
L 567.179882 44.100784 
L 567.404916 43.319076 
L 567.501359 43.319076 
L 567.694246 42.732794 
L 567.726393 42.732794 
L 567.919279 42.146513 
L 568.015722 42.146513 
L 568.240756 41.364804 
L 568.272904 41.364804 
L 568.431499 40.97395 
L 568.463647 40.97395 
L 568.624385 40.583096 
L 568.720828 40.583096 
L 568.849419 40.387669 
L 568.881567 40.387669 
L 569.042305 39.996814 
L 569.170896 39.996814 
L 569.331634 39.60596 
L 569.460225 39.60596 
L 569.620964 39.215106 
L 569.653111 39.215106 
L 569.845997 38.628824 
L 569.878145 38.628824 
L 570.038884 38.23797 
L 570.071031 38.23797 
L 570.23177 37.847116 
L 570.328213 37.847116 
L 570.488951 37.456262 
L 570.553247 37.456262 
L 570.746133 36.86998 
L 570.842576 36.86998 
L 571.003314 36.479126 
L 571.06761 36.479126 
L 571.194057 36.283699 
L 571.226205 36.283699 
L 571.386943 35.892845 
L 571.419091 35.892845 
L 571.547682 35.697417 
L 571.676273 35.697417 
L 571.837011 35.306563 
L 571.869159 35.306563 
L 571.997749 35.111136 
L 572.029897 35.111136 
L 572.190636 34.720282 
L 572.222783 34.915709 
L 572.287079 34.720282 
L 572.415669 34.524855 
L 572.640703 34.524855 
L 572.769294 34.329427 
L 572.833589 34.329427 
L 572.96218 34.134 
L 573.058623 34.134 
L 573.187214 33.938573 
L 573.219362 33.938573 
L 573.3801 33.547719 
L 573.476543 33.547719 
L 573.637282 33.156865 
L 573.669429 33.156865 
L 573.79802 32.961437 
L 573.862315 32.961437 
L 573.990906 32.76601 
L 574.085206 32.76601 
L 574.213797 32.570583 
L 574.342388 32.570583 
L 574.470978 32.375156 
L 574.535274 32.375156 
L 574.696012 31.984302 
L 574.72816 31.984302 
L 574.856751 31.788875 
L 574.921046 31.788875 
L 575.049637 31.593447 
L 575.081784 31.593447 
L 575.242523 31.202593 
L 575.27467 31.202593 
L 575.306818 31.007166 
L 575.306818 31.007166 
" clip-path="url(#pa9de682eee)" style="fill: none; stroke: #000000; stroke-width: 1.5; stroke-linecap: square"/>
   </g>
   <g id="matplotlib.axis_3">
    <g id="ytick_5">
     <g id="line2d_12">
      <path d="M 50.87 143.964052 
L 600.28 143.964052 
" clip-path="url(#pa9de682eee)" style="fill: none; stroke: #b0b0b0; stroke-width: 0.8; stroke-linecap: square"/>
     </g>
     <g id="line2d_13">
      <defs>
       <path id="m1e4bb3f063" d="M 0 0 
L 3.5 0 
" style="stroke: #000000; stroke-width: 0.8"/>
      </defs>
      <g>
       <use xlink:href="#m1e4bb3f063" x="600.28" y="143.964052" style="stroke: #000000; stroke-width: 0.8"/>
      </g>
     </g>
     <g id="text_13">
      <!-- 2.8 -->
      <g transform="translate(607.28 147.763271) scale(0.1 -0.1)">
       <defs>
        <path id="DejaVuSans-38" d="M 2034 2216 
Q 1584 2216 1326 1975 
Q 1069 1734 1069 1313 
Q 1069 891 1326 650 
Q 1584 409 2034 409 
Q 2484 409 2743 651 
Q 3003 894 3003 1313 
Q 3003 1734 2745 1975 
Q 2488 2216 2034 2216 
z
M 1403 2484 
Q 997 2584 770 2862 
Q 544 3141 544 3541 
Q 544 4100 942 4425 
Q 1341 4750 2034 4750 
Q 2731 4750 3128 4425 
Q 3525 4100 3525 3541 
Q 3525 3141 3298 2862 
Q 3072 2584 2669 2484 
Q 3125 2378 3379 2068 
Q 3634 1759 3634 1313 
Q 3634 634 3220 271 
Q 2806 -91 2034 -91 
Q 1263 -91 848 271 
Q 434 634 434 1313 
Q 434 1759 690 2068 
Q 947 2378 1403 2484 
z
M 1172 3481 
Q 1172 3119 1398 2916 
Q 1625 2713 2034 2713 
Q 2441 2713 2670 2916 
Q 2900 3119 2900 3481 
Q 2900 3844 2670 4047 
Q 2441 4250 2034 4250 
Q 1625 4250 1398 4047 
Q 1172 3844 1172 3481 
z
" transform="scale(0.015625)"/>
       </defs>
       <use xlink:href="#DejaVuSans-32"/>
       <use xlink:href="#DejaVuSans-2e" x="63.623047"/>
       <use xlink:href="#DejaVuSans-38" x="95.410156"/>
      </g>
     </g>
    </g>
    <g id="ytick_6">
     <g id="line2d_14">
      <path d="M 50.87 104.878624 
L 600.28 104.878624 
" clip-path="url(#pa9de682eee)" style="fill: none; stroke: #b0b0b0; stroke-width: 0.8; stroke-linecap: square"/>
     </g>
     <g id="line2d_15">
      <g>
       <use xlink:href="#m1e4bb3f063" x="600.28" y="104.878624" style="stroke: #000000; stroke-width: 0.8"/>
      </g>
     </g>
     <g id="text_14">
      <!-- 3.0 -->
      <g transform="translate(607.28 108.677843) scale(0.1 -0.1)">
       <use xlink:href="#DejaVuSans-33"/>
       <use xlink:href="#DejaVuSans-2e" x="63.623047"/>
       <use xlink:href="#DejaVuSans-30" x="95.410156"/>
      </g>
     </g>
    </g>
    <g id="ytick_7">
     <g id="line2d_16">
      <path d="M 50.87 65.793197 
L 600.28 65.793197 
" clip-path="url(#pa9de682eee)" style="fill: none; stroke: #b0b0b0; stroke-width: 0.8; stroke-linecap: square"/>
     </g>
     <g id="line2d_17">
      <g>
       <use xlink:href="#m1e4bb3f063" x="600.28" y="65.793197" style="stroke: #000000; stroke-width: 0.8"/>
      </g>
     </g>
     <g id="text_15">
      <!-- 3.2 -->
      <g transform="translate(607.28 69.592415) scale(0.1 -0.1)">
       <use xlink:href="#DejaVuSans-33"/>
       <use xlink:href="#DejaVuSans-2e" x="63.623047"/>
       <use xlink:href="#DejaVuSans-32" x="95.410156"/>
      </g>
     </g>
    </g>
    <g id="ytick_8">
     <g id="line2d_18">
      <path d="M 50.87 26.707769 
L 600.28 26.707769 
" clip-path="url(#pa9de682eee)" style="fill: none; stroke: #b0b0b0; stroke-width: 0.8; stroke-linecap: square"/>
     </g>
     <g id="line2d_19">
      <g>
       <use xlink:href="#m1e4bb3f063" x="600.28" y="26.707769" style="stroke: #000000; stroke-width: 0.8"/>
      </g>
     </g>
     <g id="text_16">
      <!-- 3.4 -->
      <g transform="translate(607.28 30.506988) scale(0.1 -0.1)">
       <use xlink:href="#DejaVuSans-33"/>
       <use xlink:href="#DejaVuSans-2e" x="63.623047"/>
       <use xlink:href="#DejaVuSans-34" x="95.410156"/>
      </g>
     </g>
    </g>
    <g id="text_17">
     <!-- Battery voltage [V] -->
     <g transform="translate(634.781563 128.139294) rotate(-90) scale(0.1 -0.1)">
      <defs>
       <path id="DejaVuSans-76" d="M 191 3500 
L 800 3500 
L 1894 563 
L 2988 3500 
L 3597 3500 
L 2284 0 
L 1503 0 
L 191 3500 
z
" transform="scale(0.015625)"/>
       <path id="DejaVuSans-6c" d="M 603 4863 
L 1178 4863 
L 1178 0 
L 603 0 
L 603 4863 
z
" transform="scale(0.015625)"/>
       <path id="DejaVuSans-56" d="M 1831 0 
L 50 4666 
L 709 4666 
L 2188 738 
L 3669 4666 
L 4325 4666 
L 2547 0 
L 1831 0 
z
" transform="scale(0.015625)"/>
      </defs>
      <use xlink:href="#DejaVuSans-42"/>
      <use xlink:href="#DejaVuSans-61" x="68.603516"/>
      <use xlink:href="#DejaVuSans-74" x="129.882812"/>
      <use xlink:href="#DejaVuSans-74" x="169.091797"/>
      <use xlink:href="#DejaVuSans-65" x="208.300781"/>
      <use xlink:href="#DejaVuSans-72" x="269.824219"/>
      <use xlink:href="#DejaVuSans-79" x="310.9375"/>
      <use xlink:href="#DejaVuSans-20" x="370.117188"/>
      <use xlink:href="#DejaVuSans-76" x="401.904297"/>
      <use xlink:href="#DejaVuSans-6f" x="461.083984"/>
      <use xlink:href="#DejaVuSans-6c" x="522.265625"/>
      <use xlink:href="#DejaVuSans-74" x="550.048828"/>
      <use xlink:href="#DejaVuSans-61" x="589.257812"/>
      <use xlink:href="#DejaVuSans-67" x="650.537109"/>
      <use xlink:href="#DejaVuSans-65" x="714.013672"/>
      <use xlink:href="#DejaVuSans-20" x="775.537109"/>
      <use xlink:href="#DejaVuSans-5b" x="807.324219"/>
      <use xlink:href="#DejaVuSans-56" x="846.337891"/>
      <use xlink:href="#DejaVuSans-5d" x="914.746094"/>
     </g>
    </g>
   </g>
   <g id="patch_21">
    <path d="M 50.87 150.100464 
L 50.87 10.8 
" style="fill: none; stroke: #000000; stroke-width: 0.8; stroke-linejoin: miter; stroke-linecap: square"/>
   </g>
   <g id="patch_22">
    <path d="M 600.28 150.100464 
L 600.28 10.8 
" style="fill: none; stroke: #000000; stroke-width: 0.8; stroke-linejoin: miter; stroke-linecap: square"/>
   </g>
   <g id="patch_23">
    <path d="M 50.87 150.100464 
L 600.28 150.100464 
" style="fill: none; stroke: #000000; stroke-width: 0.8; stroke-linejoin: miter; stroke-linecap: square"/>
   </g>
   <g id="patch_24">
    <path d="M 50.87 10.8 
L 600.28 10.8 
" style="fill: none; stroke: #000000; stroke-width: 0.8; stroke-linejoin: miter; stroke-linecap: square"/>
   </g>
  </g>
 </g>
 <defs>
  <clipPath id="pa9de682eee">
   <rect x="50.87" y="10.8" width="549.41" height="139.300464"/>
  </clipPath>
 </defs>
</svg>
