<?xml version="1.0" encoding="utf-8" standalone="no"?>
<!DOCTYPE svg PUBLIC "-//W3C//DTD SVG 1.1//EN"
  "http://www.w3.org/Graphics/SVG/1.1/DTD/svg11.dtd">
<svg xmlns:xlink="http://www.w3.org/1999/xlink" width="648pt" height="216pt" viewBox="0 0 648 216" xmlns="http://www.w3.org/2000/svg" version="1.1">
 <metadata>
  <rdf:RDF xmlns:dc="http://purl.org/dc/elements/1.1/" xmlns:cc="http://creativecommons.org/ns#" xmlns:rdf="http://www.w3.org/1999/02/22-rdf-syntax-ns#">
   <cc:Work>
    <dc:type rdf:resource="http://purl.org/dc/dcmitype/StillImage"/>
    <dc:date>2024-05-14T13:40:39.451991</dc:date>
    <dc:format>image/svg+xml</dc:format>
    <dc:creator>
     <cc:Agent>
      <dc:title>Matplotlib v3.8.4, https://matplotlib.org/</dc:title>
     </cc:Agent>
    </dc:creator>
   </cc:Work>
  </rdf:RDF>
 </metadata>
 <defs>
  <style type="text/css">*{stroke-linejoin: round; stroke-linecap: butt}</style>
 </defs>
 <g id="figure_1">
  <g id="patch_1">
   <path d="M 0 216 
L 648 216 
L 648 0 
L 0 0 
z
" style="fill: #ffffff"/>
  </g>
  <g id="axes_1">
   <g id="patch_2">
    <path d="M 50.87 150.100464 
L 600.28 150.100464 
L 600.28 10.824221 
L 50.87 10.824221 
z
" style="fill: #ffffff"/>
   </g>
   <g id="matplotlib.axis_1">
    <g id="xtick_1">
     <g id="line2d_1">
      <defs>
       <path id="m7bfba1d217" d="M 0 0 
L 0 3.5 
" style="stroke: #000000; stroke-width: 0.8"/>
      </defs>
      <g>
       <use xlink:href="#m7bfba1d217" x="117.736544" y="150.100464" style="stroke: #000000; stroke-width: 0.8"/>
      </g>
     </g>
     <g id="text_1">
      <!-- 12.05 00h -->
      <g transform="translate(72.643071 189.115279) rotate(-30) scale(0.1 -0.1)">
       <defs>
        <path id="DejaVuSans-31" d="M 794 531 
L 1825 531 
L 1825 4091 
L 703 3866 
L 703 4441 
L 1819 4666 
L 2450 4666 
L 2450 531 
L 3481 531 
L 3481 0 
L 794 0 
L 794 531 
z
" transform="scale(0.015625)"/>
        <path id="DejaVuSans-32" d="M 1228 531 
L 3431 531 
L 3431 0 
L 469 0 
L 469 531 
Q 828 903 1448 1529 
Q 2069 2156 2228 2338 
Q 2531 2678 2651 2914 
Q 2772 3150 2772 3378 
Q 2772 3750 2511 3984 
Q 2250 4219 1831 4219 
Q 1534 4219 1204 4116 
Q 875 4013 500 3803 
L 500 4441 
Q 881 4594 1212 4672 
Q 1544 4750 1819 4750 
Q 2544 4750 2975 4387 
Q 3406 4025 3406 3419 
Q 3406 3131 3298 2873 
Q 3191 2616 2906 2266 
Q 2828 2175 2409 1742 
Q 1991 1309 1228 531 
z
" transform="scale(0.015625)"/>
        <path id="DejaVuSans-2e" d="M 684 794 
L 1344 794 
L 1344 0 
L 684 0 
L 684 794 
z
" transform="scale(0.015625)"/>
        <path id="DejaVuSans-30" d="M 2034 4250 
Q 1547 4250 1301 3770 
Q 1056 3291 1056 2328 
Q 1056 1369 1301 889 
Q 1547 409 2034 409 
Q 2525 409 2770 889 
Q 3016 1369 3016 2328 
Q 3016 3291 2770 3770 
Q 2525 4250 2034 4250 
z
M 2034 4750 
Q 2819 4750 3233 4129 
Q 3647 3509 3647 2328 
Q 3647 1150 3233 529 
Q 2819 -91 2034 -91 
Q 1250 -91 836 529 
Q 422 1150 422 2328 
Q 422 3509 836 4129 
Q 1250 4750 2034 4750 
z
" transform="scale(0.015625)"/>
        <path id="DejaVuSans-35" d="M 691 4666 
L 3169 4666 
L 3169 4134 
L 1269 4134 
L 1269 2991 
Q 1406 3038 1543 3061 
Q 1681 3084 1819 3084 
Q 2600 3084 3056 2656 
Q 3513 2228 3513 1497 
Q 3513 744 3044 326 
Q 2575 -91 1722 -91 
Q 1428 -91 1123 -41 
Q 819 9 494 109 
L 494 744 
Q 775 591 1075 516 
Q 1375 441 1709 441 
Q 2250 441 2565 725 
Q 2881 1009 2881 1497 
Q 2881 1984 2565 2268 
Q 2250 2553 1709 2553 
Q 1456 2553 1204 2497 
Q 953 2441 691 2322 
L 691 4666 
z
" transform="scale(0.015625)"/>
        <path id="DejaVuSans-20" transform="scale(0.015625)"/>
        <path id="DejaVuSans-68" d="M 3513 2113 
L 3513 0 
L 2938 0 
L 2938 2094 
Q 2938 2591 2744 2837 
Q 2550 3084 2163 3084 
Q 1697 3084 1428 2787 
Q 1159 2491 1159 1978 
L 1159 0 
L 581 0 
L 581 4863 
L 1159 4863 
L 1159 2956 
Q 1366 3272 1645 3428 
Q 1925 3584 2291 3584 
Q 2894 3584 3203 3211 
Q 3513 2838 3513 2113 
z
" transform="scale(0.015625)"/>
       </defs>
       <use xlink:href="#DejaVuSans-31"/>
       <use xlink:href="#DejaVuSans-32" x="63.623047"/>
       <use xlink:href="#DejaVuSans-2e" x="127.246094"/>
       <use xlink:href="#DejaVuSans-30" x="159.033203"/>
       <use xlink:href="#DejaVuSans-35" x="222.65625"/>
       <use xlink:href="#DejaVuSans-20" x="286.279297"/>
       <use xlink:href="#DejaVuSans-30" x="318.066406"/>
       <use xlink:href="#DejaVuSans-30" x="381.689453"/>
       <use xlink:href="#DejaVuSans-68" x="445.3125"/>
      </g>
     </g>
    </g>
    <g id="xtick_2">
     <g id="line2d_2">
      <g>
       <use xlink:href="#m7bfba1d217" x="207.348015" y="150.100464" style="stroke: #000000; stroke-width: 0.8"/>
      </g>
     </g>
     <g id="text_2">
      <!-- 12.05 12h -->
      <g transform="translate(162.254541 189.115279) rotate(-30) scale(0.1 -0.1)">
       <use xlink:href="#DejaVuSans-31"/>
       <use xlink:href="#DejaVuSans-32" x="63.623047"/>
       <use xlink:href="#DejaVuSans-2e" x="127.246094"/>
       <use xlink:href="#DejaVuSans-30" x="159.033203"/>
       <use xlink:href="#DejaVuSans-35" x="222.65625"/>
       <use xlink:href="#DejaVuSans-20" x="286.279297"/>
       <use xlink:href="#DejaVuSans-31" x="318.066406"/>
       <use xlink:href="#DejaVuSans-32" x="381.689453"/>
       <use xlink:href="#DejaVuSans-68" x="445.3125"/>
      </g>
     </g>
    </g>
    <g id="xtick_3">
     <g id="line2d_3">
      <g>
       <use xlink:href="#m7bfba1d217" x="296.959485" y="150.100464" style="stroke: #000000; stroke-width: 0.8"/>
      </g>
     </g>
     <g id="text_3">
      <!-- 13.05 00h -->
      <g transform="translate(251.866012 189.115279) rotate(-30) scale(0.1 -0.1)">
       <defs>
        <path id="DejaVuSans-33" d="M 2597 2516 
Q 3050 2419 3304 2112 
Q 3559 1806 3559 1356 
Q 3559 666 3084 287 
Q 2609 -91 1734 -91 
Q 1441 -91 1130 -33 
Q 819 25 488 141 
L 488 750 
Q 750 597 1062 519 
Q 1375 441 1716 441 
Q 2309 441 2620 675 
Q 2931 909 2931 1356 
Q 2931 1769 2642 2001 
Q 2353 2234 1838 2234 
L 1294 2234 
L 1294 2753 
L 1863 2753 
Q 2328 2753 2575 2939 
Q 2822 3125 2822 3475 
Q 2822 3834 2567 4026 
Q 2313 4219 1838 4219 
Q 1578 4219 1281 4162 
Q 984 4106 628 3988 
L 628 4550 
Q 988 4650 1302 4700 
Q 1616 4750 1894 4750 
Q 2613 4750 3031 4423 
Q 3450 4097 3450 3541 
Q 3450 3153 3228 2886 
Q 3006 2619 2597 2516 
z
" transform="scale(0.015625)"/>
       </defs>
       <use xlink:href="#DejaVuSans-31"/>
       <use xlink:href="#DejaVuSans-33" x="63.623047"/>
       <use xlink:href="#DejaVuSans-2e" x="127.246094"/>
       <use xlink:href="#DejaVuSans-30" x="159.033203"/>
       <use xlink:href="#DejaVuSans-35" x="222.65625"/>
       <use xlink:href="#DejaVuSans-20" x="286.279297"/>
       <use xlink:href="#DejaVuSans-30" x="318.066406"/>
       <use xlink:href="#DejaVuSans-30" x="381.689453"/>
       <use xlink:href="#DejaVuSans-68" x="445.3125"/>
      </g>
     </g>
    </g>
    <g id="xtick_4">
     <g id="line2d_4">
      <g>
       <use xlink:href="#m7bfba1d217" x="386.570956" y="150.100464" style="stroke: #000000; stroke-width: 0.8"/>
      </g>
     </g>
     <g id="text_4">
      <!-- 13.05 12h -->
      <g transform="translate(341.477482 189.115279) rotate(-30) scale(0.1 -0.1)">
       <use xlink:href="#DejaVuSans-31"/>
       <use xlink:href="#DejaVuSans-33" x="63.623047"/>
       <use xlink:href="#DejaVuSans-2e" x="127.246094"/>
       <use xlink:href="#DejaVuSans-30" x="159.033203"/>
       <use xlink:href="#DejaVuSans-35" x="222.65625"/>
       <use xlink:href="#DejaVuSans-20" x="286.279297"/>
       <use xlink:href="#DejaVuSans-31" x="318.066406"/>
       <use xlink:href="#DejaVuSans-32" x="381.689453"/>
       <use xlink:href="#DejaVuSans-68" x="445.3125"/>
      </g>
     </g>
    </g>
    <g id="xtick_5">
     <g id="line2d_5">
      <g>
       <use xlink:href="#m7bfba1d217" x="476.182426" y="150.100464" style="stroke: #000000; stroke-width: 0.8"/>
      </g>
     </g>
     <g id="text_5">
      <!-- 14.05 00h -->
      <g transform="translate(431.088953 189.115279) rotate(-30) scale(0.1 -0.1)">
       <defs>
        <path id="DejaVuSans-34" d="M 2419 4116 
L 825 1625 
L 2419 1625 
L 2419 4116 
z
M 2253 4666 
L 3047 4666 
L 3047 1625 
L 3713 1625 
L 3713 1100 
L 3047 1100 
L 3047 0 
L 2419 0 
L 2419 1100 
L 313 1100 
L 313 1709 
L 2253 4666 
z
" transform="scale(0.015625)"/>
       </defs>
       <use xlink:href="#DejaVuSans-31"/>
       <use xlink:href="#DejaVuSans-34" x="63.623047"/>
       <use xlink:href="#DejaVuSans-2e" x="127.246094"/>
       <use xlink:href="#DejaVuSans-30" x="159.033203"/>
       <use xlink:href="#DejaVuSans-35" x="222.65625"/>
       <use xlink:href="#DejaVuSans-20" x="286.279297"/>
       <use xlink:href="#DejaVuSans-30" x="318.066406"/>
       <use xlink:href="#DejaVuSans-30" x="381.689453"/>
       <use xlink:href="#DejaVuSans-68" x="445.3125"/>
      </g>
     </g>
    </g>
    <g id="xtick_6">
     <g id="line2d_6">
      <g>
       <use xlink:href="#m7bfba1d217" x="565.793897" y="150.100464" style="stroke: #000000; stroke-width: 0.8"/>
      </g>
     </g>
     <g id="text_6">
      <!-- 14.05 12h -->
      <g transform="translate(520.700423 189.115279) rotate(-30) scale(0.1 -0.1)">
       <use xlink:href="#DejaVuSans-31"/>
       <use xlink:href="#DejaVuSans-34" x="63.623047"/>
       <use xlink:href="#DejaVuSans-2e" x="127.246094"/>
       <use xlink:href="#DejaVuSans-30" x="159.033203"/>
       <use xlink:href="#DejaVuSans-35" x="222.65625"/>
       <use xlink:href="#DejaVuSans-20" x="286.279297"/>
       <use xlink:href="#DejaVuSans-31" x="318.066406"/>
       <use xlink:href="#DejaVuSans-32" x="381.689453"/>
       <use xlink:href="#DejaVuSans-68" x="445.3125"/>
      </g>
     </g>
    </g>
    <g id="text_7">
     <!-- Time -->
     <g transform="translate(313.341406 202.514779) scale(0.1 -0.1)">
      <defs>
       <path id="DejaVuSans-54" d="M -19 4666 
L 3928 4666 
L 3928 4134 
L 2272 4134 
L 2272 0 
L 1638 0 
L 1638 4134 
L -19 4134 
L -19 4666 
z
" transform="scale(0.015625)"/>
       <path id="DejaVuSans-69" d="M 603 3500 
L 1178 3500 
L 1178 0 
L 603 0 
L 603 3500 
z
M 603 4863 
L 1178 4863 
L 1178 4134 
L 603 4134 
L 603 4863 
z
" transform="scale(0.015625)"/>
       <path id="DejaVuSans-6d" d="M 3328 2828 
Q 3544 3216 3844 3400 
Q 4144 3584 4550 3584 
Q 5097 3584 5394 3201 
Q 5691 2819 5691 2113 
L 5691 0 
L 5113 0 
L 5113 2094 
Q 5113 2597 4934 2840 
Q 4756 3084 4391 3084 
Q 3944 3084 3684 2787 
Q 3425 2491 3425 1978 
L 3425 0 
L 2847 0 
L 2847 2094 
Q 2847 2600 2669 2842 
Q 2491 3084 2119 3084 
Q 1678 3084 1418 2786 
Q 1159 2488 1159 1978 
L 1159 0 
L 581 0 
L 581 3500 
L 1159 3500 
L 1159 2956 
Q 1356 3278 1631 3431 
Q 1906 3584 2284 3584 
Q 2666 3584 2933 3390 
Q 3200 3197 3328 2828 
z
" transform="scale(0.015625)"/>
       <path id="DejaVuSans-65" d="M 3597 1894 
L 3597 1613 
L 953 1613 
Q 991 1019 1311 708 
Q 1631 397 2203 397 
Q 2534 397 2845 478 
Q 3156 559 3463 722 
L 3463 178 
Q 3153 47 2828 -22 
Q 2503 -91 2169 -91 
Q 1331 -91 842 396 
Q 353 884 353 1716 
Q 353 2575 817 3079 
Q 1281 3584 2069 3584 
Q 2775 3584 3186 3129 
Q 3597 2675 3597 1894 
z
M 3022 2063 
Q 3016 2534 2758 2815 
Q 2500 3097 2075 3097 
Q 1594 3097 1305 2825 
Q 1016 2553 972 2059 
L 3022 2063 
z
" transform="scale(0.015625)"/>
      </defs>
      <use xlink:href="#DejaVuSans-54"/>
      <use xlink:href="#DejaVuSans-69" x="57.958984"/>
      <use xlink:href="#DejaVuSans-6d" x="85.742188"/>
      <use xlink:href="#DejaVuSans-65" x="183.154297"/>
     </g>
    </g>
   </g>
   <g id="matplotlib.axis_2">
    <g id="ytick_1">
     <g id="line2d_7">
      <defs>
       <path id="mbec13cd7ae" d="M 0 0 
L -3.5 0 
" style="stroke: #000000; stroke-width: 0.8"/>
      </defs>
      <g>
       <use xlink:href="#mbec13cd7ae" x="50.87" y="150.100464" style="stroke: #000000; stroke-width: 0.8"/>
      </g>
     </g>
     <g id="text_8">
      <!-- 0 -->
      <g transform="translate(37.5075 153.899683) scale(0.1 -0.1)">
       <use xlink:href="#DejaVuSans-30"/>
      </g>
     </g>
    </g>
    <g id="ytick_2">
     <g id="line2d_8">
      <g>
       <use xlink:href="#mbec13cd7ae" x="50.87" y="122.991621" style="stroke: #000000; stroke-width: 0.8"/>
      </g>
     </g>
     <g id="text_9">
      <!-- 20 -->
      <g transform="translate(31.145 126.79084) scale(0.1 -0.1)">
       <use xlink:href="#DejaVuSans-32"/>
       <use xlink:href="#DejaVuSans-30" x="63.623047"/>
      </g>
     </g>
    </g>
    <g id="ytick_3">
     <g id="line2d_9">
      <g>
       <use xlink:href="#mbec13cd7ae" x="50.87" y="95.882779" style="stroke: #000000; stroke-width: 0.8"/>
      </g>
     </g>
     <g id="text_10">
      <!-- 40 -->
      <g transform="translate(31.145 99.681997) scale(0.1 -0.1)">
       <use xlink:href="#DejaVuSans-34"/>
       <use xlink:href="#DejaVuSans-30" x="63.623047"/>
      </g>
     </g>
    </g>
    <g id="ytick_4">
     <g id="line2d_10">
      <g>
       <use xlink:href="#mbec13cd7ae" x="50.87" y="68.773936" style="stroke: #000000; stroke-width: 0.8"/>
      </g>
     </g>
     <g id="text_11">
      <!-- 60 -->
      <g transform="translate(31.145 72.573155) scale(0.1 -0.1)">
       <defs>
        <path id="DejaVuSans-36" d="M 2113 2584 
Q 1688 2584 1439 2293 
Q 1191 2003 1191 1497 
Q 1191 994 1439 701 
Q 1688 409 2113 409 
Q 2538 409 2786 701 
Q 3034 994 3034 1497 
Q 3034 2003 2786 2293 
Q 2538 2584 2113 2584 
z
M 3366 4563 
L 3366 3988 
Q 3128 4100 2886 4159 
Q 2644 4219 2406 4219 
Q 1781 4219 1451 3797 
Q 1122 3375 1075 2522 
Q 1259 2794 1537 2939 
Q 1816 3084 2150 3084 
Q 2853 3084 3261 2657 
Q 3669 2231 3669 1497 
Q 3669 778 3244 343 
Q 2819 -91 2113 -91 
Q 1303 -91 875 529 
Q 447 1150 447 2328 
Q 447 3434 972 4092 
Q 1497 4750 2381 4750 
Q 2619 4750 2861 4703 
Q 3103 4656 3366 4563 
z
" transform="scale(0.015625)"/>
       </defs>
       <use xlink:href="#DejaVuSans-36"/>
       <use xlink:href="#DejaVuSans-30" x="63.623047"/>
      </g>
     </g>
    </g>
    <g id="ytick_5">
     <g id="line2d_11">
      <g>
       <use xlink:href="#mbec13cd7ae" x="50.87" y="41.665093" style="stroke: #000000; stroke-width: 0.8"/>
      </g>
     </g>
     <g id="text_12">
      <!-- 80 -->
      <g transform="translate(31.145 45.464312) scale(0.1 -0.1)">
       <defs>
        <path id="DejaVuSans-38" d="M 2034 2216 
Q 1584 2216 1326 1975 
Q 1069 1734 1069 1313 
Q 1069 891 1326 650 
Q 1584 409 2034 409 
Q 2484 409 2743 651 
Q 3003 894 3003 1313 
Q 3003 1734 2745 1975 
Q 2488 2216 2034 2216 
z
M 1403 2484 
Q 997 2584 770 2862 
Q 544 3141 544 3541 
Q 544 4100 942 4425 
Q 1341 4750 2034 4750 
Q 2731 4750 3128 4425 
Q 3525 4100 3525 3541 
Q 3525 3141 3298 2862 
Q 3072 2584 2669 2484 
Q 3125 2378 3379 2068 
Q 3634 1759 3634 1313 
Q 3634 634 3220 271 
Q 2806 -91 2034 -91 
Q 1263 -91 848 271 
Q 434 634 434 1313 
Q 434 1759 690 2068 
Q 947 2378 1403 2484 
z
M 1172 3481 
Q 1172 3119 1398 2916 
Q 1625 2713 2034 2713 
Q 2441 2713 2670 2916 
Q 2900 3119 2900 3481 
Q 2900 3844 2670 4047 
Q 2441 4250 2034 4250 
Q 1625 4250 1398 4047 
Q 1172 3844 1172 3481 
z
" transform="scale(0.015625)"/>
       </defs>
       <use xlink:href="#DejaVuSans-38"/>
       <use xlink:href="#DejaVuSans-30" x="63.623047"/>
      </g>
     </g>
    </g>
    <g id="ytick_6">
     <g id="line2d_12">
      <g>
       <use xlink:href="#mbec13cd7ae" x="50.87" y="14.556251" style="stroke: #000000; stroke-width: 0.8"/>
      </g>
     </g>
     <g id="text_13">
      <!-- 100 -->
      <g transform="translate(24.7825 18.355469) scale(0.1 -0.1)">
       <use xlink:href="#DejaVuSans-31"/>
       <use xlink:href="#DejaVuSans-30" x="63.623047"/>
       <use xlink:href="#DejaVuSans-30" x="127.246094"/>
      </g>
     </g>
    </g>
    <g id="text_14">
     <!-- Battery charging power [mW/h] -->
     <g transform="translate(18.702812 159.615467) rotate(-90) scale(0.1 -0.1)">
      <defs>
       <path id="DejaVuSans-42" d="M 1259 2228 
L 1259 519 
L 2272 519 
Q 2781 519 3026 730 
Q 3272 941 3272 1375 
Q 3272 1813 3026 2020 
Q 2781 2228 2272 2228 
L 1259 2228 
z
M 1259 4147 
L 1259 2741 
L 2194 2741 
Q 2656 2741 2882 2914 
Q 3109 3088 3109 3444 
Q 3109 3797 2882 3972 
Q 2656 4147 2194 4147 
L 1259 4147 
z
M 628 4666 
L 2241 4666 
Q 2963 4666 3353 4366 
Q 3744 4066 3744 3513 
Q 3744 3084 3544 2831 
Q 3344 2578 2956 2516 
Q 3422 2416 3680 2098 
Q 3938 1781 3938 1306 
Q 3938 681 3513 340 
Q 3088 0 2303 0 
L 628 0 
L 628 4666 
z
" transform="scale(0.015625)"/>
       <path id="DejaVuSans-61" d="M 2194 1759 
Q 1497 1759 1228 1600 
Q 959 1441 959 1056 
Q 959 750 1161 570 
Q 1363 391 1709 391 
Q 2188 391 2477 730 
Q 2766 1069 2766 1631 
L 2766 1759 
L 2194 1759 
z
M 3341 1997 
L 3341 0 
L 2766 0 
L 2766 531 
Q 2569 213 2275 61 
Q 1981 -91 1556 -91 
Q 1019 -91 701 211 
Q 384 513 384 1019 
Q 384 1609 779 1909 
Q 1175 2209 1959 2209 
L 2766 2209 
L 2766 2266 
Q 2766 2663 2505 2880 
Q 2244 3097 1772 3097 
Q 1472 3097 1187 3025 
Q 903 2953 641 2809 
L 641 3341 
Q 956 3463 1253 3523 
Q 1550 3584 1831 3584 
Q 2591 3584 2966 3190 
Q 3341 2797 3341 1997 
z
" transform="scale(0.015625)"/>
       <path id="DejaVuSans-74" d="M 1172 4494 
L 1172 3500 
L 2356 3500 
L 2356 3053 
L 1172 3053 
L 1172 1153 
Q 1172 725 1289 603 
Q 1406 481 1766 481 
L 2356 481 
L 2356 0 
L 1766 0 
Q 1100 0 847 248 
Q 594 497 594 1153 
L 594 3053 
L 172 3053 
L 172 3500 
L 594 3500 
L 594 4494 
L 1172 4494 
z
" transform="scale(0.015625)"/>
       <path id="DejaVuSans-72" d="M 2631 2963 
Q 2534 3019 2420 3045 
Q 2306 3072 2169 3072 
Q 1681 3072 1420 2755 
Q 1159 2438 1159 1844 
L 1159 0 
L 581 0 
L 581 3500 
L 1159 3500 
L 1159 2956 
Q 1341 3275 1631 3429 
Q 1922 3584 2338 3584 
Q 2397 3584 2469 3576 
Q 2541 3569 2628 3553 
L 2631 2963 
z
" transform="scale(0.015625)"/>
       <path id="DejaVuSans-79" d="M 2059 -325 
Q 1816 -950 1584 -1140 
Q 1353 -1331 966 -1331 
L 506 -1331 
L 506 -850 
L 844 -850 
Q 1081 -850 1212 -737 
Q 1344 -625 1503 -206 
L 1606 56 
L 191 3500 
L 800 3500 
L 1894 763 
L 2988 3500 
L 3597 3500 
L 2059 -325 
z
" transform="scale(0.015625)"/>
       <path id="DejaVuSans-63" d="M 3122 3366 
L 3122 2828 
Q 2878 2963 2633 3030 
Q 2388 3097 2138 3097 
Q 1578 3097 1268 2742 
Q 959 2388 959 1747 
Q 959 1106 1268 751 
Q 1578 397 2138 397 
Q 2388 397 2633 464 
Q 2878 531 3122 666 
L 3122 134 
Q 2881 22 2623 -34 
Q 2366 -91 2075 -91 
Q 1284 -91 818 406 
Q 353 903 353 1747 
Q 353 2603 823 3093 
Q 1294 3584 2113 3584 
Q 2378 3584 2631 3529 
Q 2884 3475 3122 3366 
z
" transform="scale(0.015625)"/>
       <path id="DejaVuSans-67" d="M 2906 1791 
Q 2906 2416 2648 2759 
Q 2391 3103 1925 3103 
Q 1463 3103 1205 2759 
Q 947 2416 947 1791 
Q 947 1169 1205 825 
Q 1463 481 1925 481 
Q 2391 481 2648 825 
Q 2906 1169 2906 1791 
z
M 3481 434 
Q 3481 -459 3084 -895 
Q 2688 -1331 1869 -1331 
Q 1566 -1331 1297 -1286 
Q 1028 -1241 775 -1147 
L 775 -588 
Q 1028 -725 1275 -790 
Q 1522 -856 1778 -856 
Q 2344 -856 2625 -561 
Q 2906 -266 2906 331 
L 2906 616 
Q 2728 306 2450 153 
Q 2172 0 1784 0 
Q 1141 0 747 490 
Q 353 981 353 1791 
Q 353 2603 747 3093 
Q 1141 3584 1784 3584 
Q 2172 3584 2450 3431 
Q 2728 3278 2906 2969 
L 2906 3500 
L 3481 3500 
L 3481 434 
z
" transform="scale(0.015625)"/>
       <path id="DejaVuSans-6e" d="M 3513 2113 
L 3513 0 
L 2938 0 
L 2938 2094 
Q 2938 2591 2744 2837 
Q 2550 3084 2163 3084 
Q 1697 3084 1428 2787 
Q 1159 2491 1159 1978 
L 1159 0 
L 581 0 
L 581 3500 
L 1159 3500 
L 1159 2956 
Q 1366 3272 1645 3428 
Q 1925 3584 2291 3584 
Q 2894 3584 3203 3211 
Q 3513 2838 3513 2113 
z
" transform="scale(0.015625)"/>
       <path id="DejaVuSans-70" d="M 1159 525 
L 1159 -1331 
L 581 -1331 
L 581 3500 
L 1159 3500 
L 1159 2969 
Q 1341 3281 1617 3432 
Q 1894 3584 2278 3584 
Q 2916 3584 3314 3078 
Q 3713 2572 3713 1747 
Q 3713 922 3314 415 
Q 2916 -91 2278 -91 
Q 1894 -91 1617 61 
Q 1341 213 1159 525 
z
M 3116 1747 
Q 3116 2381 2855 2742 
Q 2594 3103 2138 3103 
Q 1681 3103 1420 2742 
Q 1159 2381 1159 1747 
Q 1159 1113 1420 752 
Q 1681 391 2138 391 
Q 2594 391 2855 752 
Q 3116 1113 3116 1747 
z
" transform="scale(0.015625)"/>
       <path id="DejaVuSans-6f" d="M 1959 3097 
Q 1497 3097 1228 2736 
Q 959 2375 959 1747 
Q 959 1119 1226 758 
Q 1494 397 1959 397 
Q 2419 397 2687 759 
Q 2956 1122 2956 1747 
Q 2956 2369 2687 2733 
Q 2419 3097 1959 3097 
z
M 1959 3584 
Q 2709 3584 3137 3096 
Q 3566 2609 3566 1747 
Q 3566 888 3137 398 
Q 2709 -91 1959 -91 
Q 1206 -91 779 398 
Q 353 888 353 1747 
Q 353 2609 779 3096 
Q 1206 3584 1959 3584 
z
" transform="scale(0.015625)"/>
       <path id="DejaVuSans-77" d="M 269 3500 
L 844 3500 
L 1563 769 
L 2278 3500 
L 2956 3500 
L 3675 769 
L 4391 3500 
L 4966 3500 
L 4050 0 
L 3372 0 
L 2619 2869 
L 1863 0 
L 1184 0 
L 269 3500 
z
" transform="scale(0.015625)"/>
       <path id="DejaVuSans-5b" d="M 550 4863 
L 1875 4863 
L 1875 4416 
L 1125 4416 
L 1125 -397 
L 1875 -397 
L 1875 -844 
L 550 -844 
L 550 4863 
z
" transform="scale(0.015625)"/>
       <path id="DejaVuSans-57" d="M 213 4666 
L 850 4666 
L 1831 722 
L 2809 4666 
L 3519 4666 
L 4500 722 
L 5478 4666 
L 6119 4666 
L 4947 0 
L 4153 0 
L 3169 4050 
L 2175 0 
L 1381 0 
L 213 4666 
z
" transform="scale(0.015625)"/>
       <path id="DejaVuSans-2f" d="M 1625 4666 
L 2156 4666 
L 531 -594 
L 0 -594 
L 1625 4666 
z
" transform="scale(0.015625)"/>
       <path id="DejaVuSans-5d" d="M 1947 4863 
L 1947 -844 
L 622 -844 
L 622 -397 
L 1369 -397 
L 1369 4416 
L 622 4416 
L 622 4863 
L 1947 4863 
z
" transform="scale(0.015625)"/>
      </defs>
      <use xlink:href="#DejaVuSans-42"/>
      <use xlink:href="#DejaVuSans-61" x="68.603516"/>
      <use xlink:href="#DejaVuSans-74" x="129.882812"/>
      <use xlink:href="#DejaVuSans-74" x="169.091797"/>
      <use xlink:href="#DejaVuSans-65" x="208.300781"/>
      <use xlink:href="#DejaVuSans-72" x="269.824219"/>
      <use xlink:href="#DejaVuSans-79" x="310.9375"/>
      <use xlink:href="#DejaVuSans-20" x="370.117188"/>
      <use xlink:href="#DejaVuSans-63" x="401.904297"/>
      <use xlink:href="#DejaVuSans-68" x="456.884766"/>
      <use xlink:href="#DejaVuSans-61" x="520.263672"/>
      <use xlink:href="#DejaVuSans-72" x="581.542969"/>
      <use xlink:href="#DejaVuSans-67" x="620.90625"/>
      <use xlink:href="#DejaVuSans-69" x="684.382812"/>
      <use xlink:href="#DejaVuSans-6e" x="712.166016"/>
      <use xlink:href="#DejaVuSans-67" x="775.544922"/>
      <use xlink:href="#DejaVuSans-20" x="839.021484"/>
      <use xlink:href="#DejaVuSans-70" x="870.808594"/>
      <use xlink:href="#DejaVuSans-6f" x="934.285156"/>
      <use xlink:href="#DejaVuSans-77" x="995.466797"/>
      <use xlink:href="#DejaVuSans-65" x="1077.253906"/>
      <use xlink:href="#DejaVuSans-72" x="1138.777344"/>
      <use xlink:href="#DejaVuSans-20" x="1179.890625"/>
      <use xlink:href="#DejaVuSans-5b" x="1211.677734"/>
      <use xlink:href="#DejaVuSans-6d" x="1250.691406"/>
      <use xlink:href="#DejaVuSans-57" x="1348.103516"/>
      <use xlink:href="#DejaVuSans-2f" x="1446.980469"/>
      <use xlink:href="#DejaVuSans-68" x="1480.671875"/>
      <use xlink:href="#DejaVuSans-5d" x="1544.050781"/>
     </g>
    </g>
   </g>
   <g id="patch_3">
    <path d="M 50.87 150.100464 
L 50.87 10.824221 
" style="fill: none; stroke: #000000; stroke-width: 0.8; stroke-linejoin: miter; stroke-linecap: square"/>
   </g>
   <g id="patch_4">
    <path d="M 600.28 150.100464 
L 600.28 10.824221 
" style="fill: none; stroke: #000000; stroke-width: 0.8; stroke-linejoin: miter; stroke-linecap: square"/>
   </g>
   <g id="patch_5">
    <path d="M 50.87 150.100464 
L 600.28 150.100464 
" style="fill: none; stroke: #000000; stroke-width: 0.8; stroke-linejoin: miter; stroke-linecap: square"/>
   </g>
   <g id="patch_6">
    <path d="M 50.87 10.824221 
L 600.28 10.824221 
" style="fill: none; stroke: #000000; stroke-width: 0.8; stroke-linejoin: miter; stroke-linecap: square"/>
   </g>
   <g id="patch_7">
    <path d="M 184.95137 150.100464 
L 192.418993 150.100464 
L 192.418993 93.325373 
L 184.95137 93.325373 
z
" clip-path="url(#p554f86c166)" style="fill: #ffa500"/>
   </g>
   <g id="patch_8">
    <path d="M 207.354238 150.100464 
L 214.82186 150.100464 
L 214.82186 17.456423 
L 207.354238 17.456423 
z
" clip-path="url(#p554f86c166)" style="fill: #ffa500"/>
   </g>
   <g id="patch_9">
    <path d="M 214.82186 150.100464 
L 222.289483 150.100464 
L 222.289483 117.345456 
L 214.82186 117.345456 
z
" clip-path="url(#p554f86c166)" style="fill: #ffa500"/>
   </g>
   <g id="patch_10">
    <path d="M 349.239066 150.100464 
L 356.706689 150.100464 
L 356.706689 137.041985 
L 349.239066 137.041985 
z
" clip-path="url(#p554f86c166)" style="fill: #ffa500"/>
   </g>
   <g id="patch_11">
    <path d="M 356.706689 150.100464 
L 364.174311 150.100464 
L 364.174311 97.60287 
L 356.706689 97.60287 
z
" clip-path="url(#p554f86c166)" style="fill: #ffa500"/>
   </g>
   <g id="patch_12">
    <path d="M 364.174311 150.100464 
L 371.641934 150.100464 
L 371.641934 120.715066 
L 364.174311 120.715066 
z
" clip-path="url(#p554f86c166)" style="fill: #ffa500"/>
   </g>
   <g id="patch_13">
    <path d="M 371.641934 150.100464 
L 379.109556 150.100464 
L 379.109556 56.317898 
L 371.641934 56.317898 
z
" clip-path="url(#p554f86c166)" style="fill: #ffa500"/>
   </g>
   <g id="patch_14">
    <path d="M 379.109556 150.100464 
L 386.577179 150.100464 
L 386.577179 111.174583 
L 379.109556 111.174583 
z
" clip-path="url(#p554f86c166)" style="fill: #ffa500"/>
   </g>
   <g id="patch_15">
    <path d="M 386.577179 150.100464 
L 394.044801 150.100464 
L 394.044801 134.853126 
L 386.577179 134.853126 
z
" clip-path="url(#p554f86c166)" style="fill: #ffa500"/>
   </g>
   <g id="patch_16">
    <path d="M 535.92963 150.100464 
L 543.397252 150.100464 
L 543.397252 95.800958 
L 535.92963 95.800958 
z
" clip-path="url(#p554f86c166)" style="fill: #ffa500"/>
   </g>
   <g id="patch_17">
    <path d="M 543.397252 150.100464 
L 550.864875 150.100464 
L 550.864875 112.140613 
L 543.397252 112.140613 
z
" clip-path="url(#p554f86c166)" style="fill: #ffa500"/>
   </g>
   <g id="patch_18">
    <path d="M 550.864875 150.100464 
L 558.332497 150.100464 
L 558.332497 33.369072 
L 550.864875 33.369072 
z
" clip-path="url(#p554f86c166)" style="fill: #ffa500"/>
   </g>
   <g id="patch_19">
    <path d="M 558.332497 150.100464 
L 565.80012 150.100464 
L 565.80012 73.220479 
L 558.332497 73.220479 
z
" clip-path="url(#p554f86c166)" style="fill: #ffa500"/>
   </g>
   <g id="patch_20">
    <path d="M 565.80012 150.100464 
L 573.267742 150.100464 
L 573.267742 113.958205 
L 565.80012 113.958205 
z
" clip-path="url(#p554f86c166)" style="fill: #ffa500"/>
   </g>
  </g>
  <g id="axes_2">
   <g id="line2d_13">
    <path d="M 75.843182 24.42009 
L 75.863925 24.297112 
L 75.95727 24.343229 
L 77.218469 24.938352 
L 77.838697 25.219443 
L 78.929799 26.001229 
L 82.599306 28.197255 
L 83.126188 28.504699 
L 84.464137 29.137154 
L 85.179784 29.453382 
L 85.800012 29.681769 
L 86.95127 30.120974 
L 88.226989 30.718293 
L 89.220598 31.113578 
L 89.78067 31.306828 
L 91.243079 31.833874 
L 91.894422 32.079829 
L 93.10791 32.536603 
L 94.4749 33.186627 
L 95.003857 33.45015 
L 96.372921 34.100174 
L 97.024263 34.398833 
L 98.331097 35.259675 
L 99.853663 36.410393 
L 100.289274 36.770542 
L 102.620832 39.555103 
L 105.13908 44.034996 
L 106.041418 46.064125 
L 107.441597 49.489926 
L 108.435206 52.608283 
L 109.462004 55.963811 
L 111.015684 61.146433 
L 112.789244 68.068308 
L 114.062889 73.93609 
L 115.743104 83.045207 
L 116.705597 89.396115 
L 117.981316 99.550541 
L 119.06827 110.69757 
L 119.815033 120.834427 
L 120.406219 132.086866 
L 120.748485 137.721869 
L 121.152982 143.400793 
M 124.789299 143.769726 
L 124.882644 143.677493 
L 125.598291 142.197371 
L 126.778591 138.894547 
L 127.774274 136.6546 
L 129.454489 133.580164 
L 132.592964 129.337441 
L 133.806453 128.169155 
L 134.771021 127.246824 
L 137.818226 124.804843 
L 142.17019 122.292589 
L 142.885838 121.976361 
L 143.879446 121.537156 
L 144.595093 121.220928 
L 145.528546 120.816859 
L 145.933042 120.597256 
L 146.335464 120.386438 
L 148.07791 119.780335 
L 148.791482 119.499243 
L 151.994263 118.480287 
L 152.585449 118.269469 
L 156.099381 117.391058 
L 157.061874 117.285649 
L 158.399823 117.022126 
L 159.146586 116.916716 
L 159.829043 116.837659 
L 160.451345 116.73225 
L 161.166992 116.644409 
L 161.913755 116.539 
L 162.565097 116.468727 
L 163.031824 116.363318 
L 163.716356 116.284261 
L 164.400888 116.178852 
L 165.14765 116.082226 
L 165.612302 115.976817 
L 166.265719 115.906544 
L 166.670215 115.801135 
L 167.323632 115.730862 
L 168.13055 115.625453 
L 168.846198 115.537612 
L 169.966341 115.432203 
L 170.619758 115.36193 
L 171.488906 115.25652 
L 172.173438 115.177464 
L 173.231351 115.072054 
L 173.882694 115.001781 
L 175.625139 114.896372 
L 176.122981 114.834883 
L 176.338712 115.230168 
L 177.30328 117.408626 
L 177.614431 117.461331 
L 178.174503 117.56674 
L 178.392308 118.05865 
L 178.859035 119.051254 
L 178.888076 119.033686 
L 179.074766 118.655969 
L 179.634838 117.232944 
L 179.759298 117.329569 
L 179.945989 117.847831 
L 180.288255 119.622221 
L 181.003902 124.708218 
L 181.501743 128.098882 
L 181.593014 127.879279 
L 182.121971 125.577844 
L 182.184201 125.674469 
L 182.402007 126.842755 
L 182.682043 127.914416 
L 182.744273 127.852927 
L 182.868733 127.167767 
L 183.428805 123.478443 
L 183.45992 123.513579 
L 183.553265 123.645341 
L 183.58438 123.610204 
L 183.771071 122.845987 
L 184.424488 117.803911 
L 184.453529 117.839047 
L 184.577989 118.041082 
L 184.609104 117.970809 
L 184.76468 116.793739 
L 185.044715 112.428039 
L 185.698132 101.403987 
L 186.040398 98.953221 
L 186.47601 95.817296 
L 187.749654 83.616174 
L 189.149834 73.373907 
L 190.330133 67.040568 
L 190.610169 66.267566 
L 190.952435 65.494565 
L 191.10801 65.433076 
L 191.325816 65.187121 
L 191.419161 65.231042 
L 191.574737 65.318883 
L 191.605852 65.274963 
L 191.885887 64.844541 
L 191.917003 64.888462 
L 192.165923 65.011439 
L 192.290384 64.923598 
L 192.443885 64.703996 
L 192.817266 63.772881 
L 192.910611 63.72896 
L 192.941726 63.764096 
L 193.190647 64.229654 
L 193.221762 64.194518 
L 193.470683 63.368812 
L 193.844064 61.980923 
L 194.030755 61.611991 
L 194.435251 60.285591 
L 195.057553 57.518598 
L 195.304399 57.211154 
L 195.522205 57.105745 
L 195.771126 56.534778 
L 196.331197 54.672548 
L 196.455658 54.479297 
L 196.829039 53.513046 
L 197.14019 52.529226 
L 197.32688 52.581931 
L 197.606916 53.135329 
L 197.949182 53.732648 
L 198.942791 54.971207 
L 199.067251 54.971207 
L 199.471747 54.233342 
L 199.720668 54.171854 
L 200.21851 54.575923 
L 200.374085 54.672548 
L 200.900967 55.401628 
L 201.336579 55.19081 
L 201.554384 54.883366 
L 201.616614 54.944855 
L 201.89665 55.164458 
L 202.394492 56.244902 
L 203.172369 58.010508 
L 204.72605 62.068764 
L 205.068316 62.604595 
L 205.192776 62.639731 
L 205.317236 62.25323 
L 205.628387 60.364648 
L 206.126229 57.369268 
L 206.37515 56.771949 
L 207.835485 51.185258 
L 207.959945 51.325804 
L 208.302211 51.931907 
L 208.488902 51.712304 
L 208.800052 50.658212 
L 208.831168 50.67578 
L 209.111203 51.475133 
L 209.235664 51.914339 
L 209.297894 51.826498 
L 209.389165 51.633247 
L 209.669201 50.245359 
L 210.104812 48.251367 
L 212.218564 43.174154 
L 213.587628 40.714605 
L 214.954618 38.615204 
L 216.043646 37.262451 
L 216.852639 36.515802 
L 219.464232 34.442754 
L 220.520071 33.968412 
L 221.609099 33.775162 
L 221.764675 34.021117 
L 222.822588 36.234711 
L 222.853703 36.217143 
L 223.040394 35.944836 
L 223.536161 35.206971 
L 223.691736 35.479278 
L 224.74965 37.596247 
L 227.018977 40.978128 
L 229.723916 46.564819 
L 232.273279 52.581931 
L 233.455653 55.893538 
L 235.071563 60.777501 
L 237.123085 68.112228 
L 239.021106 76.044275 
L 240.263635 82.544513 
L 241.81939 91.486732 
L 242.564078 97.047071 
L 243.528646 106.138619 
L 244.399869 116.372102 
L 245.022171 126.245436 
L 246.015779 143.30856 
L 246.046894 143.769726 
M 257.706757 143.769726 
L 258.049023 143.66212 
L 259.447128 142.627792 
L 261.654225 140.897323 
L 262.681023 140.194595 
L 263.894512 139.3074 
L 265.883804 138.218171 
L 267.319247 138.060057 
L 267.970589 136.698521 
L 269.184078 136.241748 
L 270.644413 135.539019 
L 271.2356 135.257928 
L 272.82247 134.484927 
L 274.096114 134.010585 
L 274.593956 133.852471 
L 277.641161 132.877435 
L 278.261388 132.649049 
L 290.854704 129.205679 
L 291.414776 129.10027 
L 292.75065 128.836747 
L 293.404067 128.731338 
L 294.771057 128.45903 
L 295.206668 128.353621 
L 296.482387 128.107666 
L 297.011344 128.002257 
L 298.409449 127.721166 
L 298.84506 127.615756 
L 299.529592 127.536699 
L 299.963129 127.43129 
L 300.741006 127.325881 
L 301.207733 127.220472 
L 301.830035 127.158983 
L 302.296761 127.053574 
L 302.948104 126.983301 
L 303.41483 126.877892 
L 304.099362 126.798835 
L 304.597204 126.693425 
L 305.343966 126.5968 
L 305.808618 126.491391 
L 306.43092 126.429902 
L 307.053222 126.324493 
L 307.768869 126.236652 
L 308.264636 126.131243 
L 308.918053 126.06097 
L 309.44701 125.95556 
L 310.131542 125.876504 
L 310.598268 125.771094 
L 311.311841 125.683253 
L 311.840798 125.577844 
L 313.147631 125.323105 
L 313.674514 125.217696 
L 314.390161 125.129855 
L 315.168038 125.024445 
L 315.821455 124.954173 
L 316.503913 124.848763 
L 317.21956 124.760922 
L 317.872977 124.655513 
L 318.526394 124.58524 
L 319.271082 124.479831 
L 319.955614 124.400774 
L 321.106873 124.295365 
L 321.760289 124.225092 
L 322.629438 124.119683 
L 323.345085 124.031841 
L 324.091847 123.926432 
L 324.774305 123.847375 
L 325.987794 123.741966 
L 326.703441 123.654125 
L 327.541474 123.548716 
L 328.163776 123.487227 
L 328.941653 123.381818 
L 329.6573 123.293977 
L 330.401988 123.188567 
L 331.08652 123.10951 
L 331.833283 123.004101 
L 332.517815 122.925044 
L 333.262503 122.819635 
L 333.91592 122.749362 
L 341.719585 122.661521 
L 341.844045 122.564896 
L 348.529642 122.679089 
L 348.712184 122.898692 
L 348.961105 123.267624 
L 349.458946 123.689261 
L 351.417123 123.794671 
L 352.008309 123.847375 
L 353.159568 123.908864 
L 353.377374 125.138639 
L 354.153177 130.453022 
L 354.277637 130.417886 
L 354.433212 129.987465 
L 354.744363 128.344837 
L 355.522241 122.845987 
L 359.500824 94.438191 
L 361.274384 84.116868 
L 363.232561 74.717875 
L 365.470773 65.705384 
L 367.244334 60.083556 
L 369.544776 53.917115 
L 370.258349 51.808929 
L 370.849536 50.456177 
L 373.367784 45.721545 
L 374.674618 43.718769 
L 376.632795 41.145026 
L 379.088813 38.536147 
L 380.240071 37.420565 
L 380.831258 36.919871 
L 384.063079 35.215755 
L 384.623151 34.943448 
L 385.681064 34.469106 
L 391.682129 32.887967 
L 392.209011 32.791342 
L 392.489047 32.747421 
L 392.769083 32.712285 
L 393.173579 32.606876 
L 393.795881 32.545387 
L 394.820604 32.439978 
L 395.505136 32.360921 
L 396.936431 32.255511 
L 397.494428 32.211591 
L 401.008359 32.317 
L 402.159618 32.562955 
L 402.315193 32.536603 
L 402.842076 32.624444 
L 403.122111 32.721069 
L 403.588838 32.861615 
L 403.806643 33.037297 
L 404.055564 33.248115 
L 404.46006 33.371093 
L 404.553406 33.441366 
L 405.422554 34.293424 
L 406.480467 36.410393 
L 406.978309 37.13069 
L 409.838823 42.172766 
L 410.523355 43.613359 
L 411.174698 45.13301 
L 413.910752 52.353544 
L 414.968665 55.814481 
L 416.709036 61.576854 
L 418.700402 69.306867 
L 419.756241 74.261102 
L 421.249765 81.964762 
L 422.927906 92.575961 
L 423.736898 98.803892 
L 424.668277 107.587997 
L 425.66396 118.796515 
L 426.192916 127.510347 
L 426.939679 140.317572 
L 427.126369 143.216327 
M 439.344229 143.769726 
L 439.904301 143.661216 
L 440.464373 143.2866 
L 441.115715 142.873747 
L 442.360319 142.048041 
L 442.982621 141.66154 
L 445.096373 140.58988 
L 445.531984 140.352709 
L 447.739082 139.228343 
L 448.82811 138.806706 
L 449.448338 138.578319 
L 451.595279 137.858023 
L 452.246622 137.612068 
L 456.694006 136.241748 
L 457.191847 136.083634 
L 460.268093 135.328201 
L 460.765934 135.222791 
L 463.595334 134.537631 
L 464.12429 134.432222 
L 465.42905 134.177483 
L 465.989122 134.072074 
L 467.295955 133.817335 
L 467.918257 133.711925 
L 469.160787 133.474754 
L 470.032009 133.369345 
L 471.398999 133.097038 
L 472.083531 132.991629 
L 473.42148 132.728106 
L 473.948363 132.622696 
L 475.379657 132.332821 
L 476.25088 132.227412 
L 476.933337 132.148355 
L 477.555639 132.042945 
L 478.240171 131.963888 
L 478.986933 131.858479 
L 479.700506 131.770638 
L 480.291693 131.665229 
L 480.94511 131.594956 
L 481.720913 131.489547 
L 482.405445 131.41049 
L 483.338898 131.30508 
L 484.02343 131.226024 
L 484.985924 131.120614 
L 485.670456 131.041557 
L 486.541678 130.936148 
L 487.224136 130.857091 
L 487.877553 130.751682 
L 488.53097 130.681409 
L 489.433308 130.576 
L 490.14688 130.488159 
L 491.018103 130.382749 
L 491.702635 130.303693 
L 492.262707 130.198283 
L 492.945165 130.119226 
L 493.785272 130.013817 
L 494.469804 129.93476 
L 495.123221 129.829351 
L 495.805679 129.750294 
L 497.361434 129.644885 
L 498.043891 129.565828 
L 499.13292 129.460418 
L 499.817452 129.381361 
L 501.433362 129.275952 
L 502.086779 129.205679 
L 503.858265 129.10027 
L 504.573912 129.012429 
L 505.818516 128.90702 
L 506.500974 128.827963 
L 508.647915 128.722554 
L 509.299258 128.652281 
L 511.228394 128.546871 
L 511.944041 128.45903 
L 514.244484 128.353621 
L 514.926941 128.274564 
L 517.227384 128.169155 
L 517.849686 128.107666 
L 519.994553 128.002257 
L 520.523509 127.967121 
L 523.010643 127.861711 
L 523.477369 127.844143 
L 524.224131 127.738734 
L 524.690858 127.721166 
L 527.769178 127.615756 
L 528.42052 127.545484 
L 535.075002 127.642109 
L 535.292807 128.362405 
L 536.16403 132.034161 
L 536.381836 132.130786 
L 536.566452 131.963888 
L 536.784258 131.480763 
L 537.064293 130.330045 
L 537.313214 128.125234 
L 539.395851 105.787255 
L 540.702685 96.326774 
L 543.127588 81.305954 
L 544.154386 76.123332 
L 546.485944 66.091884 
L 549.097537 56.921279 
L 549.81111 54.89215 
L 550.713448 52.028532 
L 551.211289 50.693348 
L 552.082512 48.725709 
L 553.045006 46.573603 
L 553.760653 45.572215 
L 554.196264 44.772861 
L 554.943026 43.35862 
L 556.247786 41.364628 
L 560.477364 36.744189 
L 560.848671 36.419177 
L 561.439858 35.760369 
L 562.684462 34.934664 
L 563.337879 34.346129 
L 564.175912 33.994764 
L 564.549293 33.6434 
L 564.922674 33.309604 
L 565.109365 30.843854 
L 565.233825 30.025025 
L 565.420516 17.722547 
L 565.544976 17.154959 
L 565.576091 17.169149 
L 565.825012 23.48805 
L 565.887242 24.200487 
L 565.980587 31.236555 
L 566.042818 31.104794 
L 566.818621 29.997996 
L 568.000994 28.829711 
L 568.841102 28.258744 
L 570.705933 27.327629 
L 571.42158 27.011401 
L 572.072923 26.765446 
L 572.197383 26.730309 
L 573.006376 26.150558 
L 573.597562 25.79041 
L 573.939828 25.579592 
L 574.4999 25.140386 
L 574.964552 24.850511 
L 575.306818 24.797806 
L 575.306818 24.797806 
" clip-path="url(#p554f86c166)" style="fill: none; stroke: #000000; stroke-width: 1.5; stroke-linecap: square"/>
   </g>
   <g id="matplotlib.axis_3">
    <g id="ytick_7">
     <g id="line2d_14">
      <path d="M 50.87 143.954192 
L 600.28 143.954192 
" clip-path="url(#p554f86c166)" style="fill: none; stroke: #b0b0b0; stroke-width: 0.8; stroke-linecap: square"/>
     </g>
     <g id="line2d_15">
      <defs>
       <path id="m3f104e0d3e" d="M 0 0 
L 3.5 0 
" style="stroke: #000000; stroke-width: 0.8"/>
      </defs>
      <g>
       <use xlink:href="#m3f104e0d3e" x="600.28" y="143.954192" style="stroke: #000000; stroke-width: 0.8"/>
      </g>
     </g>
     <g id="text_15">
      <!-- 2.8 -->
      <g transform="translate(607.28 147.753411) scale(0.1 -0.1)">
       <use xlink:href="#DejaVuSans-32"/>
       <use xlink:href="#DejaVuSans-2e" x="63.623047"/>
       <use xlink:href="#DejaVuSans-38" x="95.410156"/>
      </g>
     </g>
    </g>
    <g id="ytick_8">
     <g id="line2d_16">
      <path d="M 50.87 107.06095 
L 600.28 107.06095 
" clip-path="url(#p554f86c166)" style="fill: none; stroke: #b0b0b0; stroke-width: 0.8; stroke-linecap: square"/>
     </g>
     <g id="line2d_17">
      <g>
       <use xlink:href="#m3f104e0d3e" x="600.28" y="107.06095" style="stroke: #000000; stroke-width: 0.8"/>
      </g>
     </g>
     <g id="text_16">
      <!-- 3.0 -->
      <g transform="translate(607.28 110.860169) scale(0.1 -0.1)">
       <use xlink:href="#DejaVuSans-33"/>
       <use xlink:href="#DejaVuSans-2e" x="63.623047"/>
       <use xlink:href="#DejaVuSans-30" x="95.410156"/>
      </g>
     </g>
    </g>
    <g id="ytick_9">
     <g id="line2d_18">
      <path d="M 50.87 70.167709 
L 600.28 70.167709 
" clip-path="url(#p554f86c166)" style="fill: none; stroke: #b0b0b0; stroke-width: 0.8; stroke-linecap: square"/>
     </g>
     <g id="line2d_19">
      <g>
       <use xlink:href="#m3f104e0d3e" x="600.28" y="70.167709" style="stroke: #000000; stroke-width: 0.8"/>
      </g>
     </g>
     <g id="text_17">
      <!-- 3.2 -->
      <g transform="translate(607.28 73.966928) scale(0.1 -0.1)">
       <use xlink:href="#DejaVuSans-33"/>
       <use xlink:href="#DejaVuSans-2e" x="63.623047"/>
       <use xlink:href="#DejaVuSans-32" x="95.410156"/>
      </g>
     </g>
    </g>
    <g id="ytick_10">
     <g id="line2d_20">
      <path d="M 50.87 33.274468 
L 600.28 33.274468 
" clip-path="url(#p554f86c166)" style="fill: none; stroke: #b0b0b0; stroke-width: 0.8; stroke-linecap: square"/>
     </g>
     <g id="line2d_21">
      <g>
       <use xlink:href="#m3f104e0d3e" x="600.28" y="33.274468" style="stroke: #000000; stroke-width: 0.8"/>
      </g>
     </g>
     <g id="text_18">
      <!-- 3.4 -->
      <g transform="translate(607.28 37.073686) scale(0.1 -0.1)">
       <use xlink:href="#DejaVuSans-33"/>
       <use xlink:href="#DejaVuSans-2e" x="63.623047"/>
       <use xlink:href="#DejaVuSans-34" x="95.410156"/>
      </g>
     </g>
    </g>
    <g id="text_19">
     <!-- Battery voltage [V] -->
     <g transform="translate(634.781563 128.151405) rotate(-90) scale(0.1 -0.1)">
      <defs>
       <path id="DejaVuSans-76" d="M 191 3500 
L 800 3500 
L 1894 563 
L 2988 3500 
L 3597 3500 
L 2284 0 
L 1503 0 
L 191 3500 
z
" transform="scale(0.015625)"/>
       <path id="DejaVuSans-6c" d="M 603 4863 
L 1178 4863 
L 1178 0 
L 603 0 
L 603 4863 
z
" transform="scale(0.015625)"/>
       <path id="DejaVuSans-56" d="M 1831 0 
L 50 4666 
L 709 4666 
L 2188 738 
L 3669 4666 
L 4325 4666 
L 2547 0 
L 1831 0 
z
" transform="scale(0.015625)"/>
      </defs>
      <use xlink:href="#DejaVuSans-42"/>
      <use xlink:href="#DejaVuSans-61" x="68.603516"/>
      <use xlink:href="#DejaVuSans-74" x="129.882812"/>
      <use xlink:href="#DejaVuSans-74" x="169.091797"/>
      <use xlink:href="#DejaVuSans-65" x="208.300781"/>
      <use xlink:href="#DejaVuSans-72" x="269.824219"/>
      <use xlink:href="#DejaVuSans-79" x="310.9375"/>
      <use xlink:href="#DejaVuSans-20" x="370.117188"/>
      <use xlink:href="#DejaVuSans-76" x="401.904297"/>
      <use xlink:href="#DejaVuSans-6f" x="461.083984"/>
      <use xlink:href="#DejaVuSans-6c" x="522.265625"/>
      <use xlink:href="#DejaVuSans-74" x="550.048828"/>
      <use xlink:href="#DejaVuSans-61" x="589.257812"/>
      <use xlink:href="#DejaVuSans-67" x="650.537109"/>
      <use xlink:href="#DejaVuSans-65" x="714.013672"/>
      <use xlink:href="#DejaVuSans-20" x="775.537109"/>
      <use xlink:href="#DejaVuSans-5b" x="807.324219"/>
      <use xlink:href="#DejaVuSans-56" x="846.337891"/>
      <use xlink:href="#DejaVuSans-5d" x="914.746094"/>
     </g>
    </g>
   </g>
   <g id="patch_21">
    <path d="M 50.87 150.100464 
L 50.87 10.824221 
" style="fill: none; stroke: #000000; stroke-width: 0.8; stroke-linejoin: miter; stroke-linecap: square"/>
   </g>
   <g id="patch_22">
    <path d="M 600.28 150.100464 
L 600.28 10.824221 
" style="fill: none; stroke: #000000; stroke-width: 0.8; stroke-linejoin: miter; stroke-linecap: square"/>
   </g>
   <g id="patch_23">
    <path d="M 50.87 150.100464 
L 600.28 150.100464 
" style="fill: none; stroke: #000000; stroke-width: 0.8; stroke-linejoin: miter; stroke-linecap: square"/>
   </g>
   <g id="patch_24">
    <path d="M 50.87 10.824221 
L 600.28 10.824221 
" style="fill: none; stroke: #000000; stroke-width: 0.8; stroke-linejoin: miter; stroke-linecap: square"/>
   </g>
  </g>
 </g>
 <defs>
  <clipPath id="p554f86c166">
   <rect x="50.87" y="10.824221" width="549.41" height="139.276243"/>
  </clipPath>
 </defs>
</svg>
