<?xml version="1.0" encoding="utf-8" standalone="no"?>
<!DOCTYPE svg PUBLIC "-//W3C//DTD SVG 1.1//EN"
  "http://www.w3.org/Graphics/SVG/1.1/DTD/svg11.dtd">
<svg xmlns:xlink="http://www.w3.org/1999/xlink" width="648pt" height="216pt" viewBox="0 0 648 216" xmlns="http://www.w3.org/2000/svg" version="1.1">
 <metadata>
  <rdf:RDF xmlns:dc="http://purl.org/dc/elements/1.1/" xmlns:cc="http://creativecommons.org/ns#" xmlns:rdf="http://www.w3.org/1999/02/22-rdf-syntax-ns#">
   <cc:Work>
    <dc:type rdf:resource="http://purl.org/dc/dcmitype/StillImage"/>
    <dc:date>2024-05-14T15:53:57.977803</dc:date>
    <dc:format>image/svg+xml</dc:format>
    <dc:creator>
     <cc:Agent>
      <dc:title>Matplotlib v3.8.4, https://matplotlib.org/</dc:title>
     </cc:Agent>
    </dc:creator>
   </cc:Work>
  </rdf:RDF>
 </metadata>
 <defs>
  <style type="text/css">*{stroke-linejoin: round; stroke-linecap: butt}</style>
 </defs>
 <g id="figure_1">
  <g id="patch_1">
   <path d="M 0 216 
L 648 216 
L 648 0 
L 0 0 
z
" style="fill: #ffffff"/>
  </g>
  <g id="axes_1">
   <g id="patch_2">
    <path d="M 50.87 150.100464 
L 600.28 150.100464 
L 600.28 10.824221 
L 50.87 10.824221 
z
" style="fill: #ffffff"/>
   </g>
   <g id="matplotlib.axis_1">
    <g id="xtick_1">
     <g id="line2d_1">
      <defs>
       <path id="m5ca198519e" d="M 0 0 
L 0 3.5 
" style="stroke: #000000; stroke-width: 0.8"/>
      </defs>
      <g>
       <use xlink:href="#m5ca198519e" x="116.184591" y="150.100464" style="stroke: #000000; stroke-width: 0.8"/>
      </g>
     </g>
     <g id="text_1">
      <!-- 12.05 00h -->
      <g transform="translate(71.091117 189.115279) rotate(-30) scale(0.1 -0.1)">
       <defs>
        <path id="DejaVuSans-31" d="M 794 531 
L 1825 531 
L 1825 4091 
L 703 3866 
L 703 4441 
L 1819 4666 
L 2450 4666 
L 2450 531 
L 3481 531 
L 3481 0 
L 794 0 
L 794 531 
z
" transform="scale(0.015625)"/>
        <path id="DejaVuSans-32" d="M 1228 531 
L 3431 531 
L 3431 0 
L 469 0 
L 469 531 
Q 828 903 1448 1529 
Q 2069 2156 2228 2338 
Q 2531 2678 2651 2914 
Q 2772 3150 2772 3378 
Q 2772 3750 2511 3984 
Q 2250 4219 1831 4219 
Q 1534 4219 1204 4116 
Q 875 4013 500 3803 
L 500 4441 
Q 881 4594 1212 4672 
Q 1544 4750 1819 4750 
Q 2544 4750 2975 4387 
Q 3406 4025 3406 3419 
Q 3406 3131 3298 2873 
Q 3191 2616 2906 2266 
Q 2828 2175 2409 1742 
Q 1991 1309 1228 531 
z
" transform="scale(0.015625)"/>
        <path id="DejaVuSans-2e" d="M 684 794 
L 1344 794 
L 1344 0 
L 684 0 
L 684 794 
z
" transform="scale(0.015625)"/>
        <path id="DejaVuSans-30" d="M 2034 4250 
Q 1547 4250 1301 3770 
Q 1056 3291 1056 2328 
Q 1056 1369 1301 889 
Q 1547 409 2034 409 
Q 2525 409 2770 889 
Q 3016 1369 3016 2328 
Q 3016 3291 2770 3770 
Q 2525 4250 2034 4250 
z
M 2034 4750 
Q 2819 4750 3233 4129 
Q 3647 3509 3647 2328 
Q 3647 1150 3233 529 
Q 2819 -91 2034 -91 
Q 1250 -91 836 529 
Q 422 1150 422 2328 
Q 422 3509 836 4129 
Q 1250 4750 2034 4750 
z
" transform="scale(0.015625)"/>
        <path id="DejaVuSans-35" d="M 691 4666 
L 3169 4666 
L 3169 4134 
L 1269 4134 
L 1269 2991 
Q 1406 3038 1543 3061 
Q 1681 3084 1819 3084 
Q 2600 3084 3056 2656 
Q 3513 2228 3513 1497 
Q 3513 744 3044 326 
Q 2575 -91 1722 -91 
Q 1428 -91 1123 -41 
Q 819 9 494 109 
L 494 744 
Q 775 591 1075 516 
Q 1375 441 1709 441 
Q 2250 441 2565 725 
Q 2881 1009 2881 1497 
Q 2881 1984 2565 2268 
Q 2250 2553 1709 2553 
Q 1456 2553 1204 2497 
Q 953 2441 691 2322 
L 691 4666 
z
" transform="scale(0.015625)"/>
        <path id="DejaVuSans-20" transform="scale(0.015625)"/>
        <path id="DejaVuSans-68" d="M 3513 2113 
L 3513 0 
L 2938 0 
L 2938 2094 
Q 2938 2591 2744 2837 
Q 2550 3084 2163 3084 
Q 1697 3084 1428 2787 
Q 1159 2491 1159 1978 
L 1159 0 
L 581 0 
L 581 4863 
L 1159 4863 
L 1159 2956 
Q 1366 3272 1645 3428 
Q 1925 3584 2291 3584 
Q 2894 3584 3203 3211 
Q 3513 2838 3513 2113 
z
" transform="scale(0.015625)"/>
       </defs>
       <use xlink:href="#DejaVuSans-31"/>
       <use xlink:href="#DejaVuSans-32" x="63.623047"/>
       <use xlink:href="#DejaVuSans-2e" x="127.246094"/>
       <use xlink:href="#DejaVuSans-30" x="159.033203"/>
       <use xlink:href="#DejaVuSans-35" x="222.65625"/>
       <use xlink:href="#DejaVuSans-20" x="286.279297"/>
       <use xlink:href="#DejaVuSans-30" x="318.066406"/>
       <use xlink:href="#DejaVuSans-30" x="381.689453"/>
       <use xlink:href="#DejaVuSans-68" x="445.3125"/>
      </g>
     </g>
    </g>
    <g id="xtick_2">
     <g id="line2d_2">
      <g>
       <use xlink:href="#m5ca198519e" x="202.476375" y="150.100464" style="stroke: #000000; stroke-width: 0.8"/>
      </g>
     </g>
     <g id="text_2">
      <!-- 12.05 12h -->
      <g transform="translate(157.382901 189.115279) rotate(-30) scale(0.1 -0.1)">
       <use xlink:href="#DejaVuSans-31"/>
       <use xlink:href="#DejaVuSans-32" x="63.623047"/>
       <use xlink:href="#DejaVuSans-2e" x="127.246094"/>
       <use xlink:href="#DejaVuSans-30" x="159.033203"/>
       <use xlink:href="#DejaVuSans-35" x="222.65625"/>
       <use xlink:href="#DejaVuSans-20" x="286.279297"/>
       <use xlink:href="#DejaVuSans-31" x="318.066406"/>
       <use xlink:href="#DejaVuSans-32" x="381.689453"/>
       <use xlink:href="#DejaVuSans-68" x="445.3125"/>
      </g>
     </g>
    </g>
    <g id="xtick_3">
     <g id="line2d_3">
      <g>
       <use xlink:href="#m5ca198519e" x="288.768158" y="150.100464" style="stroke: #000000; stroke-width: 0.8"/>
      </g>
     </g>
     <g id="text_3">
      <!-- 13.05 00h -->
      <g transform="translate(243.674685 189.115279) rotate(-30) scale(0.1 -0.1)">
       <defs>
        <path id="DejaVuSans-33" d="M 2597 2516 
Q 3050 2419 3304 2112 
Q 3559 1806 3559 1356 
Q 3559 666 3084 287 
Q 2609 -91 1734 -91 
Q 1441 -91 1130 -33 
Q 819 25 488 141 
L 488 750 
Q 750 597 1062 519 
Q 1375 441 1716 441 
Q 2309 441 2620 675 
Q 2931 909 2931 1356 
Q 2931 1769 2642 2001 
Q 2353 2234 1838 2234 
L 1294 2234 
L 1294 2753 
L 1863 2753 
Q 2328 2753 2575 2939 
Q 2822 3125 2822 3475 
Q 2822 3834 2567 4026 
Q 2313 4219 1838 4219 
Q 1578 4219 1281 4162 
Q 984 4106 628 3988 
L 628 4550 
Q 988 4650 1302 4700 
Q 1616 4750 1894 4750 
Q 2613 4750 3031 4423 
Q 3450 4097 3450 3541 
Q 3450 3153 3228 2886 
Q 3006 2619 2597 2516 
z
" transform="scale(0.015625)"/>
       </defs>
       <use xlink:href="#DejaVuSans-31"/>
       <use xlink:href="#DejaVuSans-33" x="63.623047"/>
       <use xlink:href="#DejaVuSans-2e" x="127.246094"/>
       <use xlink:href="#DejaVuSans-30" x="159.033203"/>
       <use xlink:href="#DejaVuSans-35" x="222.65625"/>
       <use xlink:href="#DejaVuSans-20" x="286.279297"/>
       <use xlink:href="#DejaVuSans-30" x="318.066406"/>
       <use xlink:href="#DejaVuSans-30" x="381.689453"/>
       <use xlink:href="#DejaVuSans-68" x="445.3125"/>
      </g>
     </g>
    </g>
    <g id="xtick_4">
     <g id="line2d_4">
      <g>
       <use xlink:href="#m5ca198519e" x="375.059942" y="150.100464" style="stroke: #000000; stroke-width: 0.8"/>
      </g>
     </g>
     <g id="text_4">
      <!-- 13.05 12h -->
      <g transform="translate(329.966469 189.115279) rotate(-30) scale(0.1 -0.1)">
       <use xlink:href="#DejaVuSans-31"/>
       <use xlink:href="#DejaVuSans-33" x="63.623047"/>
       <use xlink:href="#DejaVuSans-2e" x="127.246094"/>
       <use xlink:href="#DejaVuSans-30" x="159.033203"/>
       <use xlink:href="#DejaVuSans-35" x="222.65625"/>
       <use xlink:href="#DejaVuSans-20" x="286.279297"/>
       <use xlink:href="#DejaVuSans-31" x="318.066406"/>
       <use xlink:href="#DejaVuSans-32" x="381.689453"/>
       <use xlink:href="#DejaVuSans-68" x="445.3125"/>
      </g>
     </g>
    </g>
    <g id="xtick_5">
     <g id="line2d_5">
      <g>
       <use xlink:href="#m5ca198519e" x="461.351726" y="150.100464" style="stroke: #000000; stroke-width: 0.8"/>
      </g>
     </g>
     <g id="text_5">
      <!-- 14.05 00h -->
      <g transform="translate(416.258253 189.115279) rotate(-30) scale(0.1 -0.1)">
       <defs>
        <path id="DejaVuSans-34" d="M 2419 4116 
L 825 1625 
L 2419 1625 
L 2419 4116 
z
M 2253 4666 
L 3047 4666 
L 3047 1625 
L 3713 1625 
L 3713 1100 
L 3047 1100 
L 3047 0 
L 2419 0 
L 2419 1100 
L 313 1100 
L 313 1709 
L 2253 4666 
z
" transform="scale(0.015625)"/>
       </defs>
       <use xlink:href="#DejaVuSans-31"/>
       <use xlink:href="#DejaVuSans-34" x="63.623047"/>
       <use xlink:href="#DejaVuSans-2e" x="127.246094"/>
       <use xlink:href="#DejaVuSans-30" x="159.033203"/>
       <use xlink:href="#DejaVuSans-35" x="222.65625"/>
       <use xlink:href="#DejaVuSans-20" x="286.279297"/>
       <use xlink:href="#DejaVuSans-30" x="318.066406"/>
       <use xlink:href="#DejaVuSans-30" x="381.689453"/>
       <use xlink:href="#DejaVuSans-68" x="445.3125"/>
      </g>
     </g>
    </g>
    <g id="xtick_6">
     <g id="line2d_6">
      <g>
       <use xlink:href="#m5ca198519e" x="547.64351" y="150.100464" style="stroke: #000000; stroke-width: 0.8"/>
      </g>
     </g>
     <g id="text_6">
      <!-- 14.05 12h -->
      <g transform="translate(502.550036 189.115279) rotate(-30) scale(0.1 -0.1)">
       <use xlink:href="#DejaVuSans-31"/>
       <use xlink:href="#DejaVuSans-34" x="63.623047"/>
       <use xlink:href="#DejaVuSans-2e" x="127.246094"/>
       <use xlink:href="#DejaVuSans-30" x="159.033203"/>
       <use xlink:href="#DejaVuSans-35" x="222.65625"/>
       <use xlink:href="#DejaVuSans-20" x="286.279297"/>
       <use xlink:href="#DejaVuSans-31" x="318.066406"/>
       <use xlink:href="#DejaVuSans-32" x="381.689453"/>
       <use xlink:href="#DejaVuSans-68" x="445.3125"/>
      </g>
     </g>
    </g>
    <g id="text_7">
     <!-- Time -->
     <g transform="translate(313.341406 202.514779) scale(0.1 -0.1)">
      <defs>
       <path id="DejaVuSans-54" d="M -19 4666 
L 3928 4666 
L 3928 4134 
L 2272 4134 
L 2272 0 
L 1638 0 
L 1638 4134 
L -19 4134 
L -19 4666 
z
" transform="scale(0.015625)"/>
       <path id="DejaVuSans-69" d="M 603 3500 
L 1178 3500 
L 1178 0 
L 603 0 
L 603 3500 
z
M 603 4863 
L 1178 4863 
L 1178 4134 
L 603 4134 
L 603 4863 
z
" transform="scale(0.015625)"/>
       <path id="DejaVuSans-6d" d="M 3328 2828 
Q 3544 3216 3844 3400 
Q 4144 3584 4550 3584 
Q 5097 3584 5394 3201 
Q 5691 2819 5691 2113 
L 5691 0 
L 5113 0 
L 5113 2094 
Q 5113 2597 4934 2840 
Q 4756 3084 4391 3084 
Q 3944 3084 3684 2787 
Q 3425 2491 3425 1978 
L 3425 0 
L 2847 0 
L 2847 2094 
Q 2847 2600 2669 2842 
Q 2491 3084 2119 3084 
Q 1678 3084 1418 2786 
Q 1159 2488 1159 1978 
L 1159 0 
L 581 0 
L 581 3500 
L 1159 3500 
L 1159 2956 
Q 1356 3278 1631 3431 
Q 1906 3584 2284 3584 
Q 2666 3584 2933 3390 
Q 3200 3197 3328 2828 
z
" transform="scale(0.015625)"/>
       <path id="DejaVuSans-65" d="M 3597 1894 
L 3597 1613 
L 953 1613 
Q 991 1019 1311 708 
Q 1631 397 2203 397 
Q 2534 397 2845 478 
Q 3156 559 3463 722 
L 3463 178 
Q 3153 47 2828 -22 
Q 2503 -91 2169 -91 
Q 1331 -91 842 396 
Q 353 884 353 1716 
Q 353 2575 817 3079 
Q 1281 3584 2069 3584 
Q 2775 3584 3186 3129 
Q 3597 2675 3597 1894 
z
M 3022 2063 
Q 3016 2534 2758 2815 
Q 2500 3097 2075 3097 
Q 1594 3097 1305 2825 
Q 1016 2553 972 2059 
L 3022 2063 
z
" transform="scale(0.015625)"/>
      </defs>
      <use xlink:href="#DejaVuSans-54"/>
      <use xlink:href="#DejaVuSans-69" x="57.958984"/>
      <use xlink:href="#DejaVuSans-6d" x="85.742188"/>
      <use xlink:href="#DejaVuSans-65" x="183.154297"/>
     </g>
    </g>
   </g>
   <g id="matplotlib.axis_2">
    <g id="ytick_1">
     <g id="line2d_7">
      <defs>
       <path id="m38e7b52761" d="M 0 0 
L -3.5 0 
" style="stroke: #000000; stroke-width: 0.8"/>
      </defs>
      <g>
       <use xlink:href="#m38e7b52761" x="50.87" y="150.100464" style="stroke: #000000; stroke-width: 0.8"/>
      </g>
     </g>
     <g id="text_8">
      <!-- 0 -->
      <g transform="translate(37.5075 153.899683) scale(0.1 -0.1)">
       <use xlink:href="#DejaVuSans-30"/>
      </g>
     </g>
    </g>
    <g id="ytick_2">
     <g id="line2d_8">
      <g>
       <use xlink:href="#m38e7b52761" x="50.87" y="122.991621" style="stroke: #000000; stroke-width: 0.8"/>
      </g>
     </g>
     <g id="text_9">
      <!-- 20 -->
      <g transform="translate(31.145 126.79084) scale(0.1 -0.1)">
       <use xlink:href="#DejaVuSans-32"/>
       <use xlink:href="#DejaVuSans-30" x="63.623047"/>
      </g>
     </g>
    </g>
    <g id="ytick_3">
     <g id="line2d_9">
      <g>
       <use xlink:href="#m38e7b52761" x="50.87" y="95.882779" style="stroke: #000000; stroke-width: 0.8"/>
      </g>
     </g>
     <g id="text_10">
      <!-- 40 -->
      <g transform="translate(31.145 99.681997) scale(0.1 -0.1)">
       <use xlink:href="#DejaVuSans-34"/>
       <use xlink:href="#DejaVuSans-30" x="63.623047"/>
      </g>
     </g>
    </g>
    <g id="ytick_4">
     <g id="line2d_10">
      <g>
       <use xlink:href="#m38e7b52761" x="50.87" y="68.773936" style="stroke: #000000; stroke-width: 0.8"/>
      </g>
     </g>
     <g id="text_11">
      <!-- 60 -->
      <g transform="translate(31.145 72.573155) scale(0.1 -0.1)">
       <defs>
        <path id="DejaVuSans-36" d="M 2113 2584 
Q 1688 2584 1439 2293 
Q 1191 2003 1191 1497 
Q 1191 994 1439 701 
Q 1688 409 2113 409 
Q 2538 409 2786 701 
Q 3034 994 3034 1497 
Q 3034 2003 2786 2293 
Q 2538 2584 2113 2584 
z
M 3366 4563 
L 3366 3988 
Q 3128 4100 2886 4159 
Q 2644 4219 2406 4219 
Q 1781 4219 1451 3797 
Q 1122 3375 1075 2522 
Q 1259 2794 1537 2939 
Q 1816 3084 2150 3084 
Q 2853 3084 3261 2657 
Q 3669 2231 3669 1497 
Q 3669 778 3244 343 
Q 2819 -91 2113 -91 
Q 1303 -91 875 529 
Q 447 1150 447 2328 
Q 447 3434 972 4092 
Q 1497 4750 2381 4750 
Q 2619 4750 2861 4703 
Q 3103 4656 3366 4563 
z
" transform="scale(0.015625)"/>
       </defs>
       <use xlink:href="#DejaVuSans-36"/>
       <use xlink:href="#DejaVuSans-30" x="63.623047"/>
      </g>
     </g>
    </g>
    <g id="ytick_5">
     <g id="line2d_11">
      <g>
       <use xlink:href="#m38e7b52761" x="50.87" y="41.665093" style="stroke: #000000; stroke-width: 0.8"/>
      </g>
     </g>
     <g id="text_12">
      <!-- 80 -->
      <g transform="translate(31.145 45.464312) scale(0.1 -0.1)">
       <defs>
        <path id="DejaVuSans-38" d="M 2034 2216 
Q 1584 2216 1326 1975 
Q 1069 1734 1069 1313 
Q 1069 891 1326 650 
Q 1584 409 2034 409 
Q 2484 409 2743 651 
Q 3003 894 3003 1313 
Q 3003 1734 2745 1975 
Q 2488 2216 2034 2216 
z
M 1403 2484 
Q 997 2584 770 2862 
Q 544 3141 544 3541 
Q 544 4100 942 4425 
Q 1341 4750 2034 4750 
Q 2731 4750 3128 4425 
Q 3525 4100 3525 3541 
Q 3525 3141 3298 2862 
Q 3072 2584 2669 2484 
Q 3125 2378 3379 2068 
Q 3634 1759 3634 1313 
Q 3634 634 3220 271 
Q 2806 -91 2034 -91 
Q 1263 -91 848 271 
Q 434 634 434 1313 
Q 434 1759 690 2068 
Q 947 2378 1403 2484 
z
M 1172 3481 
Q 1172 3119 1398 2916 
Q 1625 2713 2034 2713 
Q 2441 2713 2670 2916 
Q 2900 3119 2900 3481 
Q 2900 3844 2670 4047 
Q 2441 4250 2034 4250 
Q 1625 4250 1398 4047 
Q 1172 3844 1172 3481 
z
" transform="scale(0.015625)"/>
       </defs>
       <use xlink:href="#DejaVuSans-38"/>
       <use xlink:href="#DejaVuSans-30" x="63.623047"/>
      </g>
     </g>
    </g>
    <g id="ytick_6">
     <g id="line2d_12">
      <g>
       <use xlink:href="#m38e7b52761" x="50.87" y="14.556251" style="stroke: #000000; stroke-width: 0.8"/>
      </g>
     </g>
     <g id="text_13">
      <!-- 100 -->
      <g transform="translate(24.7825 18.355469) scale(0.1 -0.1)">
       <use xlink:href="#DejaVuSans-31"/>
       <use xlink:href="#DejaVuSans-30" x="63.623047"/>
       <use xlink:href="#DejaVuSans-30" x="127.246094"/>
      </g>
     </g>
    </g>
    <g id="text_14">
     <!-- Battery charging power [mW/h] -->
     <g transform="translate(18.702812 159.615467) rotate(-90) scale(0.1 -0.1)">
      <defs>
       <path id="DejaVuSans-42" d="M 1259 2228 
L 1259 519 
L 2272 519 
Q 2781 519 3026 730 
Q 3272 941 3272 1375 
Q 3272 1813 3026 2020 
Q 2781 2228 2272 2228 
L 1259 2228 
z
M 1259 4147 
L 1259 2741 
L 2194 2741 
Q 2656 2741 2882 2914 
Q 3109 3088 3109 3444 
Q 3109 3797 2882 3972 
Q 2656 4147 2194 4147 
L 1259 4147 
z
M 628 4666 
L 2241 4666 
Q 2963 4666 3353 4366 
Q 3744 4066 3744 3513 
Q 3744 3084 3544 2831 
Q 3344 2578 2956 2516 
Q 3422 2416 3680 2098 
Q 3938 1781 3938 1306 
Q 3938 681 3513 340 
Q 3088 0 2303 0 
L 628 0 
L 628 4666 
z
" transform="scale(0.015625)"/>
       <path id="DejaVuSans-61" d="M 2194 1759 
Q 1497 1759 1228 1600 
Q 959 1441 959 1056 
Q 959 750 1161 570 
Q 1363 391 1709 391 
Q 2188 391 2477 730 
Q 2766 1069 2766 1631 
L 2766 1759 
L 2194 1759 
z
M 3341 1997 
L 3341 0 
L 2766 0 
L 2766 531 
Q 2569 213 2275 61 
Q 1981 -91 1556 -91 
Q 1019 -91 701 211 
Q 384 513 384 1019 
Q 384 1609 779 1909 
Q 1175 2209 1959 2209 
L 2766 2209 
L 2766 2266 
Q 2766 2663 2505 2880 
Q 2244 3097 1772 3097 
Q 1472 3097 1187 3025 
Q 903 2953 641 2809 
L 641 3341 
Q 956 3463 1253 3523 
Q 1550 3584 1831 3584 
Q 2591 3584 2966 3190 
Q 3341 2797 3341 1997 
z
" transform="scale(0.015625)"/>
       <path id="DejaVuSans-74" d="M 1172 4494 
L 1172 3500 
L 2356 3500 
L 2356 3053 
L 1172 3053 
L 1172 1153 
Q 1172 725 1289 603 
Q 1406 481 1766 481 
L 2356 481 
L 2356 0 
L 1766 0 
Q 1100 0 847 248 
Q 594 497 594 1153 
L 594 3053 
L 172 3053 
L 172 3500 
L 594 3500 
L 594 4494 
L 1172 4494 
z
" transform="scale(0.015625)"/>
       <path id="DejaVuSans-72" d="M 2631 2963 
Q 2534 3019 2420 3045 
Q 2306 3072 2169 3072 
Q 1681 3072 1420 2755 
Q 1159 2438 1159 1844 
L 1159 0 
L 581 0 
L 581 3500 
L 1159 3500 
L 1159 2956 
Q 1341 3275 1631 3429 
Q 1922 3584 2338 3584 
Q 2397 3584 2469 3576 
Q 2541 3569 2628 3553 
L 2631 2963 
z
" transform="scale(0.015625)"/>
       <path id="DejaVuSans-79" d="M 2059 -325 
Q 1816 -950 1584 -1140 
Q 1353 -1331 966 -1331 
L 506 -1331 
L 506 -850 
L 844 -850 
Q 1081 -850 1212 -737 
Q 1344 -625 1503 -206 
L 1606 56 
L 191 3500 
L 800 3500 
L 1894 763 
L 2988 3500 
L 3597 3500 
L 2059 -325 
z
" transform="scale(0.015625)"/>
       <path id="DejaVuSans-63" d="M 3122 3366 
L 3122 2828 
Q 2878 2963 2633 3030 
Q 2388 3097 2138 3097 
Q 1578 3097 1268 2742 
Q 959 2388 959 1747 
Q 959 1106 1268 751 
Q 1578 397 2138 397 
Q 2388 397 2633 464 
Q 2878 531 3122 666 
L 3122 134 
Q 2881 22 2623 -34 
Q 2366 -91 2075 -91 
Q 1284 -91 818 406 
Q 353 903 353 1747 
Q 353 2603 823 3093 
Q 1294 3584 2113 3584 
Q 2378 3584 2631 3529 
Q 2884 3475 3122 3366 
z
" transform="scale(0.015625)"/>
       <path id="DejaVuSans-67" d="M 2906 1791 
Q 2906 2416 2648 2759 
Q 2391 3103 1925 3103 
Q 1463 3103 1205 2759 
Q 947 2416 947 1791 
Q 947 1169 1205 825 
Q 1463 481 1925 481 
Q 2391 481 2648 825 
Q 2906 1169 2906 1791 
z
M 3481 434 
Q 3481 -459 3084 -895 
Q 2688 -1331 1869 -1331 
Q 1566 -1331 1297 -1286 
Q 1028 -1241 775 -1147 
L 775 -588 
Q 1028 -725 1275 -790 
Q 1522 -856 1778 -856 
Q 2344 -856 2625 -561 
Q 2906 -266 2906 331 
L 2906 616 
Q 2728 306 2450 153 
Q 2172 0 1784 0 
Q 1141 0 747 490 
Q 353 981 353 1791 
Q 353 2603 747 3093 
Q 1141 3584 1784 3584 
Q 2172 3584 2450 3431 
Q 2728 3278 2906 2969 
L 2906 3500 
L 3481 3500 
L 3481 434 
z
" transform="scale(0.015625)"/>
       <path id="DejaVuSans-6e" d="M 3513 2113 
L 3513 0 
L 2938 0 
L 2938 2094 
Q 2938 2591 2744 2837 
Q 2550 3084 2163 3084 
Q 1697 3084 1428 2787 
Q 1159 2491 1159 1978 
L 1159 0 
L 581 0 
L 581 3500 
L 1159 3500 
L 1159 2956 
Q 1366 3272 1645 3428 
Q 1925 3584 2291 3584 
Q 2894 3584 3203 3211 
Q 3513 2838 3513 2113 
z
" transform="scale(0.015625)"/>
       <path id="DejaVuSans-70" d="M 1159 525 
L 1159 -1331 
L 581 -1331 
L 581 3500 
L 1159 3500 
L 1159 2969 
Q 1341 3281 1617 3432 
Q 1894 3584 2278 3584 
Q 2916 3584 3314 3078 
Q 3713 2572 3713 1747 
Q 3713 922 3314 415 
Q 2916 -91 2278 -91 
Q 1894 -91 1617 61 
Q 1341 213 1159 525 
z
M 3116 1747 
Q 3116 2381 2855 2742 
Q 2594 3103 2138 3103 
Q 1681 3103 1420 2742 
Q 1159 2381 1159 1747 
Q 1159 1113 1420 752 
Q 1681 391 2138 391 
Q 2594 391 2855 752 
Q 3116 1113 3116 1747 
z
" transform="scale(0.015625)"/>
       <path id="DejaVuSans-6f" d="M 1959 3097 
Q 1497 3097 1228 2736 
Q 959 2375 959 1747 
Q 959 1119 1226 758 
Q 1494 397 1959 397 
Q 2419 397 2687 759 
Q 2956 1122 2956 1747 
Q 2956 2369 2687 2733 
Q 2419 3097 1959 3097 
z
M 1959 3584 
Q 2709 3584 3137 3096 
Q 3566 2609 3566 1747 
Q 3566 888 3137 398 
Q 2709 -91 1959 -91 
Q 1206 -91 779 398 
Q 353 888 353 1747 
Q 353 2609 779 3096 
Q 1206 3584 1959 3584 
z
" transform="scale(0.015625)"/>
       <path id="DejaVuSans-77" d="M 269 3500 
L 844 3500 
L 1563 769 
L 2278 3500 
L 2956 3500 
L 3675 769 
L 4391 3500 
L 4966 3500 
L 4050 0 
L 3372 0 
L 2619 2869 
L 1863 0 
L 1184 0 
L 269 3500 
z
" transform="scale(0.015625)"/>
       <path id="DejaVuSans-5b" d="M 550 4863 
L 1875 4863 
L 1875 4416 
L 1125 4416 
L 1125 -397 
L 1875 -397 
L 1875 -844 
L 550 -844 
L 550 4863 
z
" transform="scale(0.015625)"/>
       <path id="DejaVuSans-57" d="M 213 4666 
L 850 4666 
L 1831 722 
L 2809 4666 
L 3519 4666 
L 4500 722 
L 5478 4666 
L 6119 4666 
L 4947 0 
L 4153 0 
L 3169 4050 
L 2175 0 
L 1381 0 
L 213 4666 
z
" transform="scale(0.015625)"/>
       <path id="DejaVuSans-2f" d="M 1625 4666 
L 2156 4666 
L 531 -594 
L 0 -594 
L 1625 4666 
z
" transform="scale(0.015625)"/>
       <path id="DejaVuSans-5d" d="M 1947 4863 
L 1947 -844 
L 622 -844 
L 622 -397 
L 1369 -397 
L 1369 4416 
L 622 4416 
L 622 4863 
L 1947 4863 
z
" transform="scale(0.015625)"/>
      </defs>
      <use xlink:href="#DejaVuSans-42"/>
      <use xlink:href="#DejaVuSans-61" x="68.603516"/>
      <use xlink:href="#DejaVuSans-74" x="129.882812"/>
      <use xlink:href="#DejaVuSans-74" x="169.091797"/>
      <use xlink:href="#DejaVuSans-65" x="208.300781"/>
      <use xlink:href="#DejaVuSans-72" x="269.824219"/>
      <use xlink:href="#DejaVuSans-79" x="310.9375"/>
      <use xlink:href="#DejaVuSans-20" x="370.117188"/>
      <use xlink:href="#DejaVuSans-63" x="401.904297"/>
      <use xlink:href="#DejaVuSans-68" x="456.884766"/>
      <use xlink:href="#DejaVuSans-61" x="520.263672"/>
      <use xlink:href="#DejaVuSans-72" x="581.542969"/>
      <use xlink:href="#DejaVuSans-67" x="620.90625"/>
      <use xlink:href="#DejaVuSans-69" x="684.382812"/>
      <use xlink:href="#DejaVuSans-6e" x="712.166016"/>
      <use xlink:href="#DejaVuSans-67" x="775.544922"/>
      <use xlink:href="#DejaVuSans-20" x="839.021484"/>
      <use xlink:href="#DejaVuSans-70" x="870.808594"/>
      <use xlink:href="#DejaVuSans-6f" x="934.285156"/>
      <use xlink:href="#DejaVuSans-77" x="995.466797"/>
      <use xlink:href="#DejaVuSans-65" x="1077.253906"/>
      <use xlink:href="#DejaVuSans-72" x="1138.777344"/>
      <use xlink:href="#DejaVuSans-20" x="1179.890625"/>
      <use xlink:href="#DejaVuSans-5b" x="1211.677734"/>
      <use xlink:href="#DejaVuSans-6d" x="1250.691406"/>
      <use xlink:href="#DejaVuSans-57" x="1348.103516"/>
      <use xlink:href="#DejaVuSans-2f" x="1446.980469"/>
      <use xlink:href="#DejaVuSans-68" x="1480.671875"/>
      <use xlink:href="#DejaVuSans-5d" x="1544.050781"/>
     </g>
    </g>
   </g>
   <g id="patch_3">
    <path d="M 50.87 150.100464 
L 50.87 10.824221 
" style="fill: none; stroke: #000000; stroke-width: 0.8; stroke-linejoin: miter; stroke-linecap: square"/>
   </g>
   <g id="patch_4">
    <path d="M 600.28 150.100464 
L 600.28 10.824221 
" style="fill: none; stroke: #000000; stroke-width: 0.8; stroke-linejoin: miter; stroke-linecap: square"/>
   </g>
   <g id="patch_5">
    <path d="M 50.87 150.100464 
L 600.28 150.100464 
" style="fill: none; stroke: #000000; stroke-width: 0.8; stroke-linejoin: miter; stroke-linecap: square"/>
   </g>
   <g id="patch_6">
    <path d="M 50.87 10.824221 
L 600.28 10.824221 
" style="fill: none; stroke: #000000; stroke-width: 0.8; stroke-linejoin: miter; stroke-linecap: square"/>
   </g>
   <g id="patch_7">
    <path d="M 180.909421 150.100464 
L 188.100403 150.100464 
L 188.100403 93.325373 
L 180.909421 93.325373 
z
" clip-path="url(#p1cb62bdae1)" style="fill: #ffa500"/>
   </g>
   <g id="patch_8">
    <path d="M 202.482367 150.100464 
L 209.673349 150.100464 
L 209.673349 17.456423 
L 202.482367 17.456423 
z
" clip-path="url(#p1cb62bdae1)" style="fill: #ffa500"/>
   </g>
   <g id="patch_9">
    <path d="M 209.673349 150.100464 
L 216.864331 150.100464 
L 216.864331 117.345456 
L 209.673349 117.345456 
z
" clip-path="url(#p1cb62bdae1)" style="fill: #ffa500"/>
   </g>
   <g id="patch_10">
    <path d="M 339.111025 150.100464 
L 346.302007 150.100464 
L 346.302007 137.041985 
L 339.111025 137.041985 
z
" clip-path="url(#p1cb62bdae1)" style="fill: #ffa500"/>
   </g>
   <g id="patch_11">
    <path d="M 346.302007 150.100464 
L 353.492989 150.100464 
L 353.492989 97.60287 
L 346.302007 97.60287 
z
" clip-path="url(#p1cb62bdae1)" style="fill: #ffa500"/>
   </g>
   <g id="patch_12">
    <path d="M 353.492989 150.100464 
L 360.683971 150.100464 
L 360.683971 120.715066 
L 353.492989 120.715066 
z
" clip-path="url(#p1cb62bdae1)" style="fill: #ffa500"/>
   </g>
   <g id="patch_13">
    <path d="M 360.683971 150.100464 
L 367.874953 150.100464 
L 367.874953 56.317898 
L 360.683971 56.317898 
z
" clip-path="url(#p1cb62bdae1)" style="fill: #ffa500"/>
   </g>
   <g id="patch_14">
    <path d="M 367.874953 150.100464 
L 375.065935 150.100464 
L 375.065935 111.174583 
L 367.874953 111.174583 
z
" clip-path="url(#p1cb62bdae1)" style="fill: #ffa500"/>
   </g>
   <g id="patch_15">
    <path d="M 375.065935 150.100464 
L 382.256917 150.100464 
L 382.256917 134.853126 
L 375.065935 134.853126 
z
" clip-path="url(#p1cb62bdae1)" style="fill: #ffa500"/>
   </g>
   <g id="patch_16">
    <path d="M 518.885575 150.100464 
L 526.076557 150.100464 
L 526.076557 95.800958 
L 518.885575 95.800958 
z
" clip-path="url(#p1cb62bdae1)" style="fill: #ffa500"/>
   </g>
   <g id="patch_17">
    <path d="M 526.076557 150.100464 
L 533.267538 150.100464 
L 533.267538 112.140613 
L 526.076557 112.140613 
z
" clip-path="url(#p1cb62bdae1)" style="fill: #ffa500"/>
   </g>
   <g id="patch_18">
    <path d="M 533.267538 150.100464 
L 540.45852 150.100464 
L 540.45852 33.369072 
L 533.267538 33.369072 
z
" clip-path="url(#p1cb62bdae1)" style="fill: #ffa500"/>
   </g>
   <g id="patch_19">
    <path d="M 540.45852 150.100464 
L 547.649502 150.100464 
L 547.649502 73.220479 
L 540.45852 73.220479 
z
" clip-path="url(#p1cb62bdae1)" style="fill: #ffa500"/>
   </g>
   <g id="patch_20">
    <path d="M 547.649502 150.100464 
L 554.840484 150.100464 
L 554.840484 110.006283 
L 547.649502 110.006283 
z
" clip-path="url(#p1cb62bdae1)" style="fill: #ffa500"/>
   </g>
   <g id="patch_21">
    <path d="M 554.840484 150.100464 
L 562.031466 150.100464 
L 562.031466 119.892942 
L 554.840484 119.892942 
z
" clip-path="url(#p1cb62bdae1)" style="fill: #ffa500"/>
   </g>
  </g>
  <g id="axes_2">
   <g id="line2d_13">
    <path d="M 75.843182 24.42009 
L 75.863157 24.297112 
L 75.953044 24.343229 
L 77.167521 24.938352 
L 77.764772 25.219443 
L 78.815454 26.001229 
L 82.349023 28.197255 
L 82.886349 28.522267 
L 84.144771 29.137154 
L 84.833907 29.453382 
L 85.431158 29.681769 
L 86.539768 30.120974 
L 87.768227 30.718293 
L 88.725027 31.113578 
L 89.264351 31.306828 
L 90.672585 31.833874 
L 91.299798 32.079829 
L 92.468333 32.536603 
L 93.784682 33.186627 
L 94.294043 33.45015 
L 95.61239 34.100174 
L 96.239603 34.398833 
L 97.498025 35.259675 
L 100.462308 38.0091 
L 101.598882 39.502398 
L 104.083766 44.096485 
L 106.300986 49.577767 
L 107.257786 52.722476 
L 107.946921 55.102969 
L 109.742669 61.260627 
L 110.701467 65.020223 
L 112.796839 74.717875 
L 114.264998 83.045207 
L 115.221798 89.624502 
L 116.450258 99.840416 
L 117.347133 109.230624 
L 118.126156 119.868176 
L 118.66548 130.013817 
L 119.144878 138.527811 
L 119.474465 143.400793 
M 122.976074 143.769726 
L 123.065961 143.677493 
L 123.755097 142.197371 
L 124.891671 138.894547 
L 125.880431 136.593112 
L 127.46844 133.580164 
L 130.49065 129.337441 
L 131.659185 128.169155 
L 132.58802 127.246824 
L 135.550305 124.787275 
L 140.939546 121.747974 
L 141.508832 121.466883 
L 142.437668 121.045246 
L 143.096841 120.737802 
L 144.203453 120.210756 
L 145.851386 119.613437 
L 146.388713 119.420186 
L 146.778224 119.314777 
L 149.113296 118.515423 
L 149.742507 118.269469 
L 153.126263 117.391058 
L 154.053101 117.285649 
L 155.341485 117.022126 
L 156.060583 116.916716 
L 156.717759 116.837659 
L 157.317008 116.73225 
L 158.006144 116.644409 
L 158.725242 116.539 
L 159.352455 116.468727 
L 159.801892 116.363318 
L 160.461065 116.284261 
L 161.120238 116.178852 
L 161.839336 116.082226 
L 162.286775 115.976817 
L 162.915986 115.906544 
L 163.305498 115.801135 
L 163.934709 115.730862 
L 164.711734 115.625453 
L 165.40087 115.537612 
L 166.479517 115.432203 
L 167.108728 115.36193 
L 167.945679 115.25652 
L 168.604852 115.177464 
L 169.623574 115.072054 
L 170.250788 115.001781 
L 171.928684 114.896372 
L 172.408082 114.834883 
L 172.615822 115.230168 
L 173.544657 117.408626 
L 173.844281 117.461331 
L 174.383605 117.56674 
L 174.593342 118.05865 
L 175.042778 119.051254 
L 175.070743 119.033686 
L 175.250518 118.655969 
L 175.789841 117.232944 
L 175.909691 117.329569 
L 176.089466 117.847831 
L 176.419052 119.622221 
L 177.138151 124.962957 
L 177.587587 128.098882 
L 177.617549 128.063746 
L 177.735402 127.589404 
L 178.184838 125.577844 
L 178.2148 125.595412 
L 178.364613 126.298141 
L 178.724162 127.914416 
L 178.784086 127.852927 
L 178.903936 127.167767 
L 179.44326 123.478443 
L 179.473222 123.513579 
L 179.56311 123.645341 
L 179.593072 123.610204 
L 179.772846 122.845987 
L 180.402057 117.803911 
L 180.430022 117.839047 
L 180.549872 118.041082 
L 180.579834 117.970809 
L 180.729647 116.793739 
L 180.999308 112.428039 
L 181.628519 101.403987 
L 181.958106 98.953221 
L 182.37758 95.817296 
L 183.634004 83.370219 
L 184.832501 74.120556 
L 185.909151 67.90141 
L 186.38855 66.170941 
L 186.688174 65.494565 
L 186.837986 65.433076 
L 187.047723 65.187121 
L 187.137611 65.231042 
L 187.287423 65.318883 
L 187.317385 65.274963 
L 187.587047 64.844541 
L 187.617009 64.888462 
L 187.856709 65.011439 
L 187.976558 64.923598 
L 188.124373 64.703996 
L 188.513885 63.72896 
L 188.603772 63.764096 
L 188.843471 64.229654 
L 188.873434 64.194518 
L 189.113133 63.368812 
L 189.472682 61.980923 
L 189.652457 61.611991 
L 190.041968 60.285591 
L 190.641217 57.518598 
L 190.878919 57.211154 
L 191.088656 57.105745 
L 191.358317 56.4118 
L 191.837716 54.672548 
L 191.927604 54.619843 
L 192.407002 53.214386 
L 192.646702 52.529226 
L 192.826476 52.581931 
L 193.126101 53.214386 
L 193.513615 53.846842 
L 194.472412 54.99756 
L 194.532337 54.89215 
L 194.831961 54.268479 
L 195.131586 54.171854 
L 195.610984 54.575923 
L 195.760796 54.672548 
L 196.26816 55.401628 
L 196.687634 55.19081 
L 196.897371 54.883366 
L 196.957296 54.944855 
L 197.226958 55.164458 
L 197.706357 56.244902 
L 198.455417 58.010508 
L 199.951541 62.068764 
L 200.31109 62.630947 
L 200.400977 62.639731 
L 200.43094 62.587026 
L 200.640677 61.620775 
L 201.539549 56.771949 
L 202.945786 51.185258 
L 203.065636 51.325804 
L 203.395222 51.931907 
L 203.574997 51.712304 
L 203.874621 50.658212 
L 203.904584 50.67578 
L 204.174245 51.475133 
L 204.294095 51.914339 
L 204.35402 51.826498 
L 204.471872 51.519054 
L 204.771496 49.858858 
L 205.101083 48.330424 
L 207.196455 43.112665 
L 208.48484 40.714605 
L 209.801189 38.615204 
L 210.879836 37.227315 
L 211.628897 36.515802 
L 214.173705 34.425185 
L 215.160468 33.968412 
L 216.209153 33.775162 
L 216.358965 34.021117 
L 217.377687 36.234711 
L 217.40765 36.217143 
L 217.587424 35.944836 
L 218.064826 35.206971 
L 218.214638 35.479278 
L 219.23336 37.596247 
L 221.448582 41.039617 
L 224.053316 46.635092 
L 226.478274 52.581931 
L 227.646809 55.981379 
L 229.202858 60.88291 
L 231.17838 68.235206 
L 233.006088 76.193605 
L 234.202588 82.711411 
L 235.670746 91.486732 
L 236.387847 97.047071 
L 237.316682 106.138619 
L 238.15563 116.372102 
L 238.754879 126.245436 
L 239.741641 143.769726 
M 250.969561 143.769726 
L 251.299147 143.66212 
L 252.645459 142.627792 
L 254.800756 140.879755 
L 255.759554 140.194595 
L 256.928088 139.3074 
L 258.843686 138.218171 
L 260.225952 138.060057 
L 260.853166 136.698521 
L 262.0217 136.241748 
L 263.427937 135.539019 
L 263.997223 135.257928 
L 265.525307 134.484927 
L 266.751769 134.010585 
L 267.231167 133.852471 
L 270.165488 132.877435 
L 270.762739 132.649049 
L 282.889531 129.205679 
L 283.428854 129.10027 
L 284.715241 128.836747 
L 285.344452 128.731338 
L 286.660801 128.45903 
L 287.080275 128.353621 
L 288.308735 128.107666 
L 288.818096 128.002257 
L 290.164407 127.721166 
L 290.583881 127.615756 
L 291.243055 127.536699 
L 291.660531 127.43129 
L 292.409592 127.325881 
L 292.859028 127.220472 
L 293.458277 127.158983 
L 293.907713 127.053574 
L 294.534927 126.983301 
L 294.984363 126.877892 
L 295.643536 126.798835 
L 296.122935 126.693425 
L 296.842033 126.5968 
L 297.289472 126.491391 
L 297.888721 126.429902 
L 298.487969 126.324493 
L 299.177105 126.236652 
L 299.654506 126.131243 
L 300.283717 126.06097 
L 300.793078 125.95556 
L 301.452252 125.876504 
L 301.901688 125.771094 
L 302.588826 125.683253 
L 303.098188 125.577844 
L 304.356609 125.323105 
L 304.863973 125.217696 
L 305.553109 125.129855 
L 306.30217 125.024445 
L 306.93138 124.954173 
L 307.588556 124.848763 
L 308.277692 124.760922 
L 308.906903 124.655513 
L 309.536114 124.58524 
L 310.253215 124.479831 
L 310.912388 124.400774 
L 312.020998 124.295365 
L 312.650209 124.225092 
L 313.487159 124.119683 
L 314.176295 124.031841 
L 314.895393 123.926432 
L 315.552569 123.847375 
L 316.721103 123.741966 
L 317.410239 123.654125 
L 318.217227 123.548716 
L 318.816476 123.487227 
L 319.565536 123.381818 
L 320.254672 123.293977 
L 320.971773 123.188567 
L 321.630946 123.10951 
L 322.350044 123.004101 
L 323.009218 122.925044 
L 323.726318 122.819635 
L 324.355529 122.749362 
L 331.870105 122.661521 
L 331.989955 122.564896 
L 338.427882 122.679089 
L 338.603661 122.898692 
L 338.873323 123.302761 
L 339.322759 123.689261 
L 341.208395 123.794671 
L 341.777681 123.847375 
L 342.88629 123.908864 
L 343.096027 125.138639 
L 343.84309 130.453022 
L 343.96294 130.417886 
L 344.112752 129.987465 
L 344.412377 128.344837 
L 345.1914 122.617601 
L 349.022595 94.244941 
L 350.700491 84.116868 
L 352.616089 74.586114 
L 354.771386 65.599974 
L 356.479244 59.995715 
L 357.555894 56.894926 
L 359.741153 50.816326 
L 362.345887 45.721545 
L 363.634271 43.674848 
L 365.489944 41.145026 
L 367.854978 38.536147 
L 368.963588 37.420565 
L 369.532874 36.919871 
L 372.644971 35.215755 
L 373.184294 34.943448 
L 374.203017 34.469106 
L 379.98177 32.887967 
L 380.489134 32.791342 
L 380.758796 32.747421 
L 381.028457 32.712285 
L 381.417969 32.606876 
L 382.017217 32.545387 
L 383.00398 32.439978 
L 383.663153 32.360921 
L 385.041425 32.255511 
L 385.578751 32.211591 
L 388.962507 32.317 
L 390.071117 32.562955 
L 390.220929 32.536603 
L 390.728293 32.624444 
L 390.997955 32.721069 
L 391.447391 32.861615 
L 391.657128 33.037297 
L 391.896828 33.248115 
L 392.286339 33.371093 
L 392.376226 33.441366 
L 393.213177 34.293424 
L 394.231899 36.410393 
L 394.711298 37.13069 
L 397.495806 42.251823 
L 400.669826 49.973051 
L 401.446851 52.581931 
L 402.405649 55.814481 
L 404.081547 61.576854 
L 405.999142 69.306867 
L 407.04583 74.410432 
L 408.094515 79.830225 
L 409.530713 88.904205 
L 410.699248 97.49506 
L 411.626086 106.323086 
L 412.704733 118.796515 
L 413.244057 128.134019 
L 413.873268 139.404025 
L 414.112967 143.216327 
M 425.878212 143.769726 
L 426.417536 143.661216 
L 426.95686 143.2866 
L 427.614036 142.856179 
L 428.78257 142.048041 
L 429.381819 141.66154 
L 431.417266 140.58988 
L 431.83674 140.352709 
L 433.962075 139.228343 
L 435.01076 138.806706 
L 435.608011 138.578319 
L 437.675418 137.858023 
L 438.302631 137.612068 
L 442.585261 136.241748 
L 443.064659 136.083634 
L 446.026945 135.328201 
L 446.506343 135.222791 
L 449.230926 134.537631 
L 449.740288 134.432222 
L 450.996712 134.177483 
L 451.536036 134.072074 
L 452.794458 133.817335 
L 453.393706 133.711925 
L 454.590206 133.474754 
L 455.429153 133.369345 
L 456.745503 133.097038 
L 457.404676 132.991629 
L 458.69306 132.728106 
L 459.200424 132.622696 
L 460.578696 132.332821 
L 461.417643 132.227412 
L 462.074819 132.148355 
L 462.674068 132.042945 
L 463.333241 131.963888 
L 464.052339 131.858479 
L 464.739478 131.770638 
L 465.308764 131.665229 
L 465.937975 131.594956 
L 466.685038 131.489547 
L 467.344211 131.41049 
L 468.243084 131.30508 
L 468.902257 131.226024 
L 469.829095 131.120614 
L 470.488268 131.041557 
L 471.327216 130.936148 
L 471.984392 130.857091 
L 472.613603 130.751682 
L 473.242814 130.681409 
L 474.111724 130.576 
L 474.798862 130.488159 
L 475.63781 130.382749 
L 476.296984 130.303693 
L 476.836307 130.198283 
L 477.493483 130.119226 
L 478.302469 130.013817 
L 478.961642 129.93476 
L 479.590853 129.829351 
L 480.248029 129.750294 
L 481.74615 129.644885 
L 482.403326 129.565828 
L 483.452011 129.460418 
L 484.111184 129.381361 
L 485.667233 129.275952 
L 486.296444 129.205679 
L 488.002304 129.10027 
L 488.69144 129.012429 
L 489.889937 128.90702 
L 490.547113 128.827963 
L 492.61452 128.722554 
L 493.241734 128.652281 
L 495.099404 128.546871 
L 495.78854 128.45903 
L 498.003762 128.353621 
L 498.660938 128.274564 
L 500.87616 128.169155 
L 501.475408 128.107666 
L 503.540818 128.002257 
L 504.050179 127.967121 
L 506.445176 127.861711 
L 506.894612 127.844143 
L 507.61371 127.738734 
L 508.063147 127.721166 
L 511.027429 127.615756 
L 511.654643 127.545484 
L 518.062607 127.642109 
L 518.272344 128.362405 
L 519.111291 132.034161 
L 519.321028 132.130786 
L 519.498805 131.963888 
L 519.708542 131.480763 
L 519.978204 130.330045 
L 520.247866 127.77387 
L 521.955724 108.088691 
L 523.092299 99.049847 
L 525.157709 85.293938 
L 526.53598 77.476084 
L 529.170676 65.643895 
L 531.625598 56.719244 
L 533.60112 50.693348 
L 534.440068 48.725709 
L 535.366906 46.573603 
L 536.115966 45.47559 
L 536.475515 44.772861 
L 537.194614 43.35862 
L 538.451038 41.364628 
L 542.52393 36.744189 
L 542.881482 36.419177 
L 543.450768 35.760369 
L 544.649265 34.934664 
L 545.278476 34.346129 
L 546.085464 33.994764 
L 546.445013 33.6434 
L 546.804562 33.309604 
L 546.984337 30.843854 
L 547.104186 30.025025 
L 547.283961 17.722547 
L 547.403811 17.154959 
L 547.433773 17.169149 
L 547.673472 23.48805 
L 547.733397 24.200487 
L 547.823285 31.236555 
L 547.913172 31.052089 
L 548.630273 29.997996 
L 549.768845 28.829711 
L 550.57783 28.258744 
L 552.373578 27.327629 
L 553.062714 27.011401 
L 553.689927 26.765446 
L 553.809777 26.730309 
L 554.5888 26.150558 
L 555.158086 25.79041 
L 555.487673 25.579592 
L 556.026996 25.140386 
L 556.504398 24.841727 
L 557.822744 24.341033 
L 558.601768 24.007237 
L 559.678417 23.576816 
L 560.217741 23.146395 
L 560.547328 22.909224 
L 561.266426 22.584212 
L 561.713865 22.338257 
L 562.343076 22.092302 
L 562.552813 22.083518 
L 562.822474 22.496371 
L 563.182024 22.434882 
L 563.451685 21.942972 
L 563.841197 21.942972 
L 564.078899 21.899052 
L 565.067659 21.705801 
L 565.307358 21.96054 
L 565.69687 22.865303 
L 566.176269 23.822771 
L 566.893369 24.692397 
L 567.552543 25.412694 
L 568.091866 26.010013 
L 569.288366 27.248572 
L 571.44566 29.005393 
L 574.977232 30.955464 
L 575.306818 31.078441 
L 575.306818 31.078441 
" clip-path="url(#p1cb62bdae1)" style="fill: none; stroke: #000000; stroke-width: 1.5; stroke-linecap: square"/>
   </g>
   <g id="matplotlib.axis_3">
    <g id="ytick_7">
     <g id="line2d_14">
      <path d="M 50.87 143.954192 
L 600.28 143.954192 
" clip-path="url(#p1cb62bdae1)" style="fill: none; stroke: #b0b0b0; stroke-width: 0.8; stroke-linecap: square"/>
     </g>
     <g id="line2d_15">
      <defs>
       <path id="ma2c4e94bed" d="M 0 0 
L 3.5 0 
" style="stroke: #000000; stroke-width: 0.8"/>
      </defs>
      <g>
       <use xlink:href="#ma2c4e94bed" x="600.28" y="143.954192" style="stroke: #000000; stroke-width: 0.8"/>
      </g>
     </g>
     <g id="text_15">
      <!-- 2.8 -->
      <g transform="translate(607.28 147.753411) scale(0.1 -0.1)">
       <use xlink:href="#DejaVuSans-32"/>
       <use xlink:href="#DejaVuSans-2e" x="63.623047"/>
       <use xlink:href="#DejaVuSans-38" x="95.410156"/>
      </g>
     </g>
    </g>
    <g id="ytick_8">
     <g id="line2d_16">
      <path d="M 50.87 107.06095 
L 600.28 107.06095 
" clip-path="url(#p1cb62bdae1)" style="fill: none; stroke: #b0b0b0; stroke-width: 0.8; stroke-linecap: square"/>
     </g>
     <g id="line2d_17">
      <g>
       <use xlink:href="#ma2c4e94bed" x="600.28" y="107.06095" style="stroke: #000000; stroke-width: 0.8"/>
      </g>
     </g>
     <g id="text_16">
      <!-- 3.0 -->
      <g transform="translate(607.28 110.860169) scale(0.1 -0.1)">
       <use xlink:href="#DejaVuSans-33"/>
       <use xlink:href="#DejaVuSans-2e" x="63.623047"/>
       <use xlink:href="#DejaVuSans-30" x="95.410156"/>
      </g>
     </g>
    </g>
    <g id="ytick_9">
     <g id="line2d_18">
      <path d="M 50.87 70.167709 
L 600.28 70.167709 
" clip-path="url(#p1cb62bdae1)" style="fill: none; stroke: #b0b0b0; stroke-width: 0.8; stroke-linecap: square"/>
     </g>
     <g id="line2d_19">
      <g>
       <use xlink:href="#ma2c4e94bed" x="600.28" y="70.167709" style="stroke: #000000; stroke-width: 0.8"/>
      </g>
     </g>
     <g id="text_17">
      <!-- 3.2 -->
      <g transform="translate(607.28 73.966928) scale(0.1 -0.1)">
       <use xlink:href="#DejaVuSans-33"/>
       <use xlink:href="#DejaVuSans-2e" x="63.623047"/>
       <use xlink:href="#DejaVuSans-32" x="95.410156"/>
      </g>
     </g>
    </g>
    <g id="ytick_10">
     <g id="line2d_20">
      <path d="M 50.87 33.274468 
L 600.28 33.274468 
" clip-path="url(#p1cb62bdae1)" style="fill: none; stroke: #b0b0b0; stroke-width: 0.8; stroke-linecap: square"/>
     </g>
     <g id="line2d_21">
      <g>
       <use xlink:href="#ma2c4e94bed" x="600.28" y="33.274468" style="stroke: #000000; stroke-width: 0.8"/>
      </g>
     </g>
     <g id="text_18">
      <!-- 3.4 -->
      <g transform="translate(607.28 37.073686) scale(0.1 -0.1)">
       <use xlink:href="#DejaVuSans-33"/>
       <use xlink:href="#DejaVuSans-2e" x="63.623047"/>
       <use xlink:href="#DejaVuSans-34" x="95.410156"/>
      </g>
     </g>
    </g>
    <g id="text_19">
     <!-- Battery voltage [V] -->
     <g transform="translate(634.781563 128.151405) rotate(-90) scale(0.1 -0.1)">
      <defs>
       <path id="DejaVuSans-76" d="M 191 3500 
L 800 3500 
L 1894 563 
L 2988 3500 
L 3597 3500 
L 2284 0 
L 1503 0 
L 191 3500 
z
" transform="scale(0.015625)"/>
       <path id="DejaVuSans-6c" d="M 603 4863 
L 1178 4863 
L 1178 0 
L 603 0 
L 603 4863 
z
" transform="scale(0.015625)"/>
       <path id="DejaVuSans-56" d="M 1831 0 
L 50 4666 
L 709 4666 
L 2188 738 
L 3669 4666 
L 4325 4666 
L 2547 0 
L 1831 0 
z
" transform="scale(0.015625)"/>
      </defs>
      <use xlink:href="#DejaVuSans-42"/>
      <use xlink:href="#DejaVuSans-61" x="68.603516"/>
      <use xlink:href="#DejaVuSans-74" x="129.882812"/>
      <use xlink:href="#DejaVuSans-74" x="169.091797"/>
      <use xlink:href="#DejaVuSans-65" x="208.300781"/>
      <use xlink:href="#DejaVuSans-72" x="269.824219"/>
      <use xlink:href="#DejaVuSans-79" x="310.9375"/>
      <use xlink:href="#DejaVuSans-20" x="370.117188"/>
      <use xlink:href="#DejaVuSans-76" x="401.904297"/>
      <use xlink:href="#DejaVuSans-6f" x="461.083984"/>
      <use xlink:href="#DejaVuSans-6c" x="522.265625"/>
      <use xlink:href="#DejaVuSans-74" x="550.048828"/>
      <use xlink:href="#DejaVuSans-61" x="589.257812"/>
      <use xlink:href="#DejaVuSans-67" x="650.537109"/>
      <use xlink:href="#DejaVuSans-65" x="714.013672"/>
      <use xlink:href="#DejaVuSans-20" x="775.537109"/>
      <use xlink:href="#DejaVuSans-5b" x="807.324219"/>
      <use xlink:href="#DejaVuSans-56" x="846.337891"/>
      <use xlink:href="#DejaVuSans-5d" x="914.746094"/>
     </g>
    </g>
   </g>
   <g id="patch_22">
    <path d="M 50.87 150.100464 
L 50.87 10.824221 
" style="fill: none; stroke: #000000; stroke-width: 0.8; stroke-linejoin: miter; stroke-linecap: square"/>
   </g>
   <g id="patch_23">
    <path d="M 600.28 150.100464 
L 600.28 10.824221 
" style="fill: none; stroke: #000000; stroke-width: 0.8; stroke-linejoin: miter; stroke-linecap: square"/>
   </g>
   <g id="patch_24">
    <path d="M 50.87 150.100464 
L 600.28 150.100464 
" style="fill: none; stroke: #000000; stroke-width: 0.8; stroke-linejoin: miter; stroke-linecap: square"/>
   </g>
   <g id="patch_25">
    <path d="M 50.87 10.824221 
L 600.28 10.824221 
" style="fill: none; stroke: #000000; stroke-width: 0.8; stroke-linejoin: miter; stroke-linecap: square"/>
   </g>
  </g>
 </g>
 <defs>
  <clipPath id="p1cb62bdae1">
   <rect x="50.87" y="10.824221" width="549.41" height="139.276243"/>
  </clipPath>
 </defs>
</svg>
