<?xml version="1.0" encoding="utf-8" standalone="no"?>
<!DOCTYPE svg PUBLIC "-//W3C//DTD SVG 1.1//EN"
  "http://www.w3.org/Graphics/SVG/1.1/DTD/svg11.dtd">
<svg xmlns:xlink="http://www.w3.org/1999/xlink" width="648pt" height="216pt" viewBox="0 0 648 216" xmlns="http://www.w3.org/2000/svg" version="1.1">
 <metadata>
  <rdf:RDF xmlns:dc="http://purl.org/dc/elements/1.1/" xmlns:cc="http://creativecommons.org/ns#" xmlns:rdf="http://www.w3.org/1999/02/22-rdf-syntax-ns#">
   <cc:Work>
    <dc:type rdf:resource="http://purl.org/dc/dcmitype/StillImage"/>
    <dc:date>2024-05-19T19:09:47.453234</dc:date>
    <dc:format>image/svg+xml</dc:format>
    <dc:creator>
     <cc:Agent>
      <dc:title>Matplotlib v3.8.4, https://matplotlib.org/</dc:title>
     </cc:Agent>
    </dc:creator>
   </cc:Work>
  </rdf:RDF>
 </metadata>
 <defs>
  <style type="text/css">*{stroke-linejoin: round; stroke-linecap: butt}</style>
 </defs>
 <g id="figure_1">
  <g id="patch_1">
   <path d="M 0 216 
L 648 216 
L 648 0 
L 0 0 
z
" style="fill: #ffffff"/>
  </g>
  <g id="axes_1">
   <g id="patch_2">
    <path d="M 52.114937 150.055464 
L 600.28 150.055464 
L 600.28 10.8 
L 52.114937 10.8 
z
" style="fill: #ffffff"/>
   </g>
   <g id="matplotlib.axis_1">
    <g id="xtick_1">
     <g id="line2d_1">
      <defs>
       <path id="mb173d38745" d="M 0 0 
L 0 3.5 
" style="stroke: #000000; stroke-width: 0.8"/>
      </defs>
      <g>
       <use xlink:href="#mb173d38745" x="60.332641" y="150.055464" style="stroke: #000000; stroke-width: 0.8"/>
      </g>
     </g>
     <g id="text_1">
      <!-- 12.05 06h -->
      <g transform="translate(15.239167 189.070279) rotate(-30) scale(0.1 -0.1)">
       <defs>
        <path id="DejaVuSans-31" d="M 794 531 
L 1825 531 
L 1825 4091 
L 703 3866 
L 703 4441 
L 1819 4666 
L 2450 4666 
L 2450 531 
L 3481 531 
L 3481 0 
L 794 0 
L 794 531 
z
" transform="scale(0.015625)"/>
        <path id="DejaVuSans-32" d="M 1228 531 
L 3431 531 
L 3431 0 
L 469 0 
L 469 531 
Q 828 903 1448 1529 
Q 2069 2156 2228 2338 
Q 2531 2678 2651 2914 
Q 2772 3150 2772 3378 
Q 2772 3750 2511 3984 
Q 2250 4219 1831 4219 
Q 1534 4219 1204 4116 
Q 875 4013 500 3803 
L 500 4441 
Q 881 4594 1212 4672 
Q 1544 4750 1819 4750 
Q 2544 4750 2975 4387 
Q 3406 4025 3406 3419 
Q 3406 3131 3298 2873 
Q 3191 2616 2906 2266 
Q 2828 2175 2409 1742 
Q 1991 1309 1228 531 
z
" transform="scale(0.015625)"/>
        <path id="DejaVuSans-2e" d="M 684 794 
L 1344 794 
L 1344 0 
L 684 0 
L 684 794 
z
" transform="scale(0.015625)"/>
        <path id="DejaVuSans-30" d="M 2034 4250 
Q 1547 4250 1301 3770 
Q 1056 3291 1056 2328 
Q 1056 1369 1301 889 
Q 1547 409 2034 409 
Q 2525 409 2770 889 
Q 3016 1369 3016 2328 
Q 3016 3291 2770 3770 
Q 2525 4250 2034 4250 
z
M 2034 4750 
Q 2819 4750 3233 4129 
Q 3647 3509 3647 2328 
Q 3647 1150 3233 529 
Q 2819 -91 2034 -91 
Q 1250 -91 836 529 
Q 422 1150 422 2328 
Q 422 3509 836 4129 
Q 1250 4750 2034 4750 
z
" transform="scale(0.015625)"/>
        <path id="DejaVuSans-35" d="M 691 4666 
L 3169 4666 
L 3169 4134 
L 1269 4134 
L 1269 2991 
Q 1406 3038 1543 3061 
Q 1681 3084 1819 3084 
Q 2600 3084 3056 2656 
Q 3513 2228 3513 1497 
Q 3513 744 3044 326 
Q 2575 -91 1722 -91 
Q 1428 -91 1123 -41 
Q 819 9 494 109 
L 494 744 
Q 775 591 1075 516 
Q 1375 441 1709 441 
Q 2250 441 2565 725 
Q 2881 1009 2881 1497 
Q 2881 1984 2565 2268 
Q 2250 2553 1709 2553 
Q 1456 2553 1204 2497 
Q 953 2441 691 2322 
L 691 4666 
z
" transform="scale(0.015625)"/>
        <path id="DejaVuSans-20" transform="scale(0.015625)"/>
        <path id="DejaVuSans-36" d="M 2113 2584 
Q 1688 2584 1439 2293 
Q 1191 2003 1191 1497 
Q 1191 994 1439 701 
Q 1688 409 2113 409 
Q 2538 409 2786 701 
Q 3034 994 3034 1497 
Q 3034 2003 2786 2293 
Q 2538 2584 2113 2584 
z
M 3366 4563 
L 3366 3988 
Q 3128 4100 2886 4159 
Q 2644 4219 2406 4219 
Q 1781 4219 1451 3797 
Q 1122 3375 1075 2522 
Q 1259 2794 1537 2939 
Q 1816 3084 2150 3084 
Q 2853 3084 3261 2657 
Q 3669 2231 3669 1497 
Q 3669 778 3244 343 
Q 2819 -91 2113 -91 
Q 1303 -91 875 529 
Q 447 1150 447 2328 
Q 447 3434 972 4092 
Q 1497 4750 2381 4750 
Q 2619 4750 2861 4703 
Q 3103 4656 3366 4563 
z
" transform="scale(0.015625)"/>
        <path id="DejaVuSans-68" d="M 3513 2113 
L 3513 0 
L 2938 0 
L 2938 2094 
Q 2938 2591 2744 2837 
Q 2550 3084 2163 3084 
Q 1697 3084 1428 2787 
Q 1159 2491 1159 1978 
L 1159 0 
L 581 0 
L 581 4863 
L 1159 4863 
L 1159 2956 
Q 1366 3272 1645 3428 
Q 1925 3584 2291 3584 
Q 2894 3584 3203 3211 
Q 3513 2838 3513 2113 
z
" transform="scale(0.015625)"/>
       </defs>
       <use xlink:href="#DejaVuSans-31"/>
       <use xlink:href="#DejaVuSans-32" x="63.623047"/>
       <use xlink:href="#DejaVuSans-2e" x="127.246094"/>
       <use xlink:href="#DejaVuSans-30" x="159.033203"/>
       <use xlink:href="#DejaVuSans-35" x="222.65625"/>
       <use xlink:href="#DejaVuSans-20" x="286.279297"/>
       <use xlink:href="#DejaVuSans-30" x="318.066406"/>
       <use xlink:href="#DejaVuSans-36" x="381.689453"/>
       <use xlink:href="#DejaVuSans-68" x="445.3125"/>
      </g>
     </g>
    </g>
    <g id="xtick_2">
     <g id="line2d_2">
      <g>
       <use xlink:href="#mb173d38745" x="110.387599" y="150.055464" style="stroke: #000000; stroke-width: 0.8"/>
      </g>
     </g>
     <g id="text_2">
      <!-- 12.05 12h -->
      <g transform="translate(65.294126 189.070279) rotate(-30) scale(0.1 -0.1)">
       <use xlink:href="#DejaVuSans-31"/>
       <use xlink:href="#DejaVuSans-32" x="63.623047"/>
       <use xlink:href="#DejaVuSans-2e" x="127.246094"/>
       <use xlink:href="#DejaVuSans-30" x="159.033203"/>
       <use xlink:href="#DejaVuSans-35" x="222.65625"/>
       <use xlink:href="#DejaVuSans-20" x="286.279297"/>
       <use xlink:href="#DejaVuSans-31" x="318.066406"/>
       <use xlink:href="#DejaVuSans-32" x="381.689453"/>
       <use xlink:href="#DejaVuSans-68" x="445.3125"/>
      </g>
     </g>
    </g>
    <g id="xtick_3">
     <g id="line2d_3">
      <g>
       <use xlink:href="#mb173d38745" x="160.442558" y="150.055464" style="stroke: #000000; stroke-width: 0.8"/>
      </g>
     </g>
     <g id="text_3">
      <!-- 12.05 18h -->
      <g transform="translate(115.349085 189.070279) rotate(-30) scale(0.1 -0.1)">
       <defs>
        <path id="DejaVuSans-38" d="M 2034 2216 
Q 1584 2216 1326 1975 
Q 1069 1734 1069 1313 
Q 1069 891 1326 650 
Q 1584 409 2034 409 
Q 2484 409 2743 651 
Q 3003 894 3003 1313 
Q 3003 1734 2745 1975 
Q 2488 2216 2034 2216 
z
M 1403 2484 
Q 997 2584 770 2862 
Q 544 3141 544 3541 
Q 544 4100 942 4425 
Q 1341 4750 2034 4750 
Q 2731 4750 3128 4425 
Q 3525 4100 3525 3541 
Q 3525 3141 3298 2862 
Q 3072 2584 2669 2484 
Q 3125 2378 3379 2068 
Q 3634 1759 3634 1313 
Q 3634 634 3220 271 
Q 2806 -91 2034 -91 
Q 1263 -91 848 271 
Q 434 634 434 1313 
Q 434 1759 690 2068 
Q 947 2378 1403 2484 
z
M 1172 3481 
Q 1172 3119 1398 2916 
Q 1625 2713 2034 2713 
Q 2441 2713 2670 2916 
Q 2900 3119 2900 3481 
Q 2900 3844 2670 4047 
Q 2441 4250 2034 4250 
Q 1625 4250 1398 4047 
Q 1172 3844 1172 3481 
z
" transform="scale(0.015625)"/>
       </defs>
       <use xlink:href="#DejaVuSans-31"/>
       <use xlink:href="#DejaVuSans-32" x="63.623047"/>
       <use xlink:href="#DejaVuSans-2e" x="127.246094"/>
       <use xlink:href="#DejaVuSans-30" x="159.033203"/>
       <use xlink:href="#DejaVuSans-35" x="222.65625"/>
       <use xlink:href="#DejaVuSans-20" x="286.279297"/>
       <use xlink:href="#DejaVuSans-31" x="318.066406"/>
       <use xlink:href="#DejaVuSans-38" x="381.689453"/>
       <use xlink:href="#DejaVuSans-68" x="445.3125"/>
      </g>
     </g>
    </g>
    <g id="xtick_4">
     <g id="line2d_4">
      <g>
       <use xlink:href="#mb173d38745" x="210.497517" y="150.055464" style="stroke: #000000; stroke-width: 0.8"/>
      </g>
     </g>
     <g id="text_4">
      <!-- 13.05 00h -->
      <g transform="translate(165.404044 189.070279) rotate(-30) scale(0.1 -0.1)">
       <defs>
        <path id="DejaVuSans-33" d="M 2597 2516 
Q 3050 2419 3304 2112 
Q 3559 1806 3559 1356 
Q 3559 666 3084 287 
Q 2609 -91 1734 -91 
Q 1441 -91 1130 -33 
Q 819 25 488 141 
L 488 750 
Q 750 597 1062 519 
Q 1375 441 1716 441 
Q 2309 441 2620 675 
Q 2931 909 2931 1356 
Q 2931 1769 2642 2001 
Q 2353 2234 1838 2234 
L 1294 2234 
L 1294 2753 
L 1863 2753 
Q 2328 2753 2575 2939 
Q 2822 3125 2822 3475 
Q 2822 3834 2567 4026 
Q 2313 4219 1838 4219 
Q 1578 4219 1281 4162 
Q 984 4106 628 3988 
L 628 4550 
Q 988 4650 1302 4700 
Q 1616 4750 1894 4750 
Q 2613 4750 3031 4423 
Q 3450 4097 3450 3541 
Q 3450 3153 3228 2886 
Q 3006 2619 2597 2516 
z
" transform="scale(0.015625)"/>
       </defs>
       <use xlink:href="#DejaVuSans-31"/>
       <use xlink:href="#DejaVuSans-33" x="63.623047"/>
       <use xlink:href="#DejaVuSans-2e" x="127.246094"/>
       <use xlink:href="#DejaVuSans-30" x="159.033203"/>
       <use xlink:href="#DejaVuSans-35" x="222.65625"/>
       <use xlink:href="#DejaVuSans-20" x="286.279297"/>
       <use xlink:href="#DejaVuSans-30" x="318.066406"/>
       <use xlink:href="#DejaVuSans-30" x="381.689453"/>
       <use xlink:href="#DejaVuSans-68" x="445.3125"/>
      </g>
     </g>
    </g>
    <g id="xtick_5">
     <g id="line2d_5">
      <g>
       <use xlink:href="#mb173d38745" x="260.552476" y="150.055464" style="stroke: #000000; stroke-width: 0.8"/>
      </g>
     </g>
     <g id="text_5">
      <!-- 13.05 06h -->
      <g transform="translate(215.459002 189.070279) rotate(-30) scale(0.1 -0.1)">
       <use xlink:href="#DejaVuSans-31"/>
       <use xlink:href="#DejaVuSans-33" x="63.623047"/>
       <use xlink:href="#DejaVuSans-2e" x="127.246094"/>
       <use xlink:href="#DejaVuSans-30" x="159.033203"/>
       <use xlink:href="#DejaVuSans-35" x="222.65625"/>
       <use xlink:href="#DejaVuSans-20" x="286.279297"/>
       <use xlink:href="#DejaVuSans-30" x="318.066406"/>
       <use xlink:href="#DejaVuSans-36" x="381.689453"/>
       <use xlink:href="#DejaVuSans-68" x="445.3125"/>
      </g>
     </g>
    </g>
    <g id="xtick_6">
     <g id="line2d_6">
      <g>
       <use xlink:href="#mb173d38745" x="310.607435" y="150.055464" style="stroke: #000000; stroke-width: 0.8"/>
      </g>
     </g>
     <g id="text_6">
      <!-- 13.05 12h -->
      <g transform="translate(265.513961 189.070279) rotate(-30) scale(0.1 -0.1)">
       <use xlink:href="#DejaVuSans-31"/>
       <use xlink:href="#DejaVuSans-33" x="63.623047"/>
       <use xlink:href="#DejaVuSans-2e" x="127.246094"/>
       <use xlink:href="#DejaVuSans-30" x="159.033203"/>
       <use xlink:href="#DejaVuSans-35" x="222.65625"/>
       <use xlink:href="#DejaVuSans-20" x="286.279297"/>
       <use xlink:href="#DejaVuSans-31" x="318.066406"/>
       <use xlink:href="#DejaVuSans-32" x="381.689453"/>
       <use xlink:href="#DejaVuSans-68" x="445.3125"/>
      </g>
     </g>
    </g>
    <g id="xtick_7">
     <g id="line2d_7">
      <g>
       <use xlink:href="#mb173d38745" x="360.662393" y="150.055464" style="stroke: #000000; stroke-width: 0.8"/>
      </g>
     </g>
     <g id="text_7">
      <!-- 13.05 18h -->
      <g transform="translate(315.56892 189.070279) rotate(-30) scale(0.1 -0.1)">
       <use xlink:href="#DejaVuSans-31"/>
       <use xlink:href="#DejaVuSans-33" x="63.623047"/>
       <use xlink:href="#DejaVuSans-2e" x="127.246094"/>
       <use xlink:href="#DejaVuSans-30" x="159.033203"/>
       <use xlink:href="#DejaVuSans-35" x="222.65625"/>
       <use xlink:href="#DejaVuSans-20" x="286.279297"/>
       <use xlink:href="#DejaVuSans-31" x="318.066406"/>
       <use xlink:href="#DejaVuSans-38" x="381.689453"/>
       <use xlink:href="#DejaVuSans-68" x="445.3125"/>
      </g>
     </g>
    </g>
    <g id="xtick_8">
     <g id="line2d_8">
      <g>
       <use xlink:href="#mb173d38745" x="410.717352" y="150.055464" style="stroke: #000000; stroke-width: 0.8"/>
      </g>
     </g>
     <g id="text_8">
      <!-- 14.05 00h -->
      <g transform="translate(365.623879 189.070279) rotate(-30) scale(0.1 -0.1)">
       <defs>
        <path id="DejaVuSans-34" d="M 2419 4116 
L 825 1625 
L 2419 1625 
L 2419 4116 
z
M 2253 4666 
L 3047 4666 
L 3047 1625 
L 3713 1625 
L 3713 1100 
L 3047 1100 
L 3047 0 
L 2419 0 
L 2419 1100 
L 313 1100 
L 313 1709 
L 2253 4666 
z
" transform="scale(0.015625)"/>
       </defs>
       <use xlink:href="#DejaVuSans-31"/>
       <use xlink:href="#DejaVuSans-34" x="63.623047"/>
       <use xlink:href="#DejaVuSans-2e" x="127.246094"/>
       <use xlink:href="#DejaVuSans-30" x="159.033203"/>
       <use xlink:href="#DejaVuSans-35" x="222.65625"/>
       <use xlink:href="#DejaVuSans-20" x="286.279297"/>
       <use xlink:href="#DejaVuSans-30" x="318.066406"/>
       <use xlink:href="#DejaVuSans-30" x="381.689453"/>
       <use xlink:href="#DejaVuSans-68" x="445.3125"/>
      </g>
     </g>
    </g>
    <g id="xtick_9">
     <g id="line2d_9">
      <g>
       <use xlink:href="#mb173d38745" x="460.772311" y="150.055464" style="stroke: #000000; stroke-width: 0.8"/>
      </g>
     </g>
     <g id="text_9">
      <!-- 14.05 06h -->
      <g transform="translate(415.678837 189.070279) rotate(-30) scale(0.1 -0.1)">
       <use xlink:href="#DejaVuSans-31"/>
       <use xlink:href="#DejaVuSans-34" x="63.623047"/>
       <use xlink:href="#DejaVuSans-2e" x="127.246094"/>
       <use xlink:href="#DejaVuSans-30" x="159.033203"/>
       <use xlink:href="#DejaVuSans-35" x="222.65625"/>
       <use xlink:href="#DejaVuSans-20" x="286.279297"/>
       <use xlink:href="#DejaVuSans-30" x="318.066406"/>
       <use xlink:href="#DejaVuSans-36" x="381.689453"/>
       <use xlink:href="#DejaVuSans-68" x="445.3125"/>
      </g>
     </g>
    </g>
    <g id="xtick_10">
     <g id="line2d_10">
      <g>
       <use xlink:href="#mb173d38745" x="510.82727" y="150.055464" style="stroke: #000000; stroke-width: 0.8"/>
      </g>
     </g>
     <g id="text_10">
      <!-- 14.05 12h -->
      <g transform="translate(465.733796 189.070279) rotate(-30) scale(0.1 -0.1)">
       <use xlink:href="#DejaVuSans-31"/>
       <use xlink:href="#DejaVuSans-34" x="63.623047"/>
       <use xlink:href="#DejaVuSans-2e" x="127.246094"/>
       <use xlink:href="#DejaVuSans-30" x="159.033203"/>
       <use xlink:href="#DejaVuSans-35" x="222.65625"/>
       <use xlink:href="#DejaVuSans-20" x="286.279297"/>
       <use xlink:href="#DejaVuSans-31" x="318.066406"/>
       <use xlink:href="#DejaVuSans-32" x="381.689453"/>
       <use xlink:href="#DejaVuSans-68" x="445.3125"/>
      </g>
     </g>
    </g>
    <g id="xtick_11">
     <g id="line2d_11">
      <g>
       <use xlink:href="#mb173d38745" x="560.882229" y="150.055464" style="stroke: #000000; stroke-width: 0.8"/>
      </g>
     </g>
     <g id="text_11">
      <!-- 14.05 18h -->
      <g transform="translate(515.788755 189.070279) rotate(-30) scale(0.1 -0.1)">
       <use xlink:href="#DejaVuSans-31"/>
       <use xlink:href="#DejaVuSans-34" x="63.623047"/>
       <use xlink:href="#DejaVuSans-2e" x="127.246094"/>
       <use xlink:href="#DejaVuSans-30" x="159.033203"/>
       <use xlink:href="#DejaVuSans-35" x="222.65625"/>
       <use xlink:href="#DejaVuSans-20" x="286.279297"/>
       <use xlink:href="#DejaVuSans-31" x="318.066406"/>
       <use xlink:href="#DejaVuSans-38" x="381.689453"/>
       <use xlink:href="#DejaVuSans-68" x="445.3125"/>
      </g>
     </g>
    </g>
    <g id="text_12">
     <!-- Time -->
     <g transform="translate(313.963875 202.469779) scale(0.1 -0.1)">
      <defs>
       <path id="DejaVuSans-54" d="M -19 4666 
L 3928 4666 
L 3928 4134 
L 2272 4134 
L 2272 0 
L 1638 0 
L 1638 4134 
L -19 4134 
L -19 4666 
z
" transform="scale(0.015625)"/>
       <path id="DejaVuSans-69" d="M 603 3500 
L 1178 3500 
L 1178 0 
L 603 0 
L 603 3500 
z
M 603 4863 
L 1178 4863 
L 1178 4134 
L 603 4134 
L 603 4863 
z
" transform="scale(0.015625)"/>
       <path id="DejaVuSans-6d" d="M 3328 2828 
Q 3544 3216 3844 3400 
Q 4144 3584 4550 3584 
Q 5097 3584 5394 3201 
Q 5691 2819 5691 2113 
L 5691 0 
L 5113 0 
L 5113 2094 
Q 5113 2597 4934 2840 
Q 4756 3084 4391 3084 
Q 3944 3084 3684 2787 
Q 3425 2491 3425 1978 
L 3425 0 
L 2847 0 
L 2847 2094 
Q 2847 2600 2669 2842 
Q 2491 3084 2119 3084 
Q 1678 3084 1418 2786 
Q 1159 2488 1159 1978 
L 1159 0 
L 581 0 
L 581 3500 
L 1159 3500 
L 1159 2956 
Q 1356 3278 1631 3431 
Q 1906 3584 2284 3584 
Q 2666 3584 2933 3390 
Q 3200 3197 3328 2828 
z
" transform="scale(0.015625)"/>
       <path id="DejaVuSans-65" d="M 3597 1894 
L 3597 1613 
L 953 1613 
Q 991 1019 1311 708 
Q 1631 397 2203 397 
Q 2534 397 2845 478 
Q 3156 559 3463 722 
L 3463 178 
Q 3153 47 2828 -22 
Q 2503 -91 2169 -91 
Q 1331 -91 842 396 
Q 353 884 353 1716 
Q 353 2575 817 3079 
Q 1281 3584 2069 3584 
Q 2775 3584 3186 3129 
Q 3597 2675 3597 1894 
z
M 3022 2063 
Q 3016 2534 2758 2815 
Q 2500 3097 2075 3097 
Q 1594 3097 1305 2825 
Q 1016 2553 972 2059 
L 3022 2063 
z
" transform="scale(0.015625)"/>
      </defs>
      <use xlink:href="#DejaVuSans-54"/>
      <use xlink:href="#DejaVuSans-69" x="57.958984"/>
      <use xlink:href="#DejaVuSans-6d" x="85.742188"/>
      <use xlink:href="#DejaVuSans-65" x="183.154297"/>
     </g>
    </g>
   </g>
   <g id="matplotlib.axis_2">
    <g id="ytick_1">
     <g id="line2d_12">
      <defs>
       <path id="m1ff3ef2916" d="M 0 0 
L -3.5 0 
" style="stroke: #000000; stroke-width: 0.8"/>
      </defs>
      <g>
       <use xlink:href="#m1ff3ef2916" x="52.114937" y="150.055464" style="stroke: #000000; stroke-width: 0.8"/>
      </g>
     </g>
     <g id="text_13">
      <!-- 0 -->
      <g transform="translate(38.752437 153.854683) scale(0.1 -0.1)">
       <use xlink:href="#DejaVuSans-30"/>
      </g>
     </g>
    </g>
    <g id="ytick_2">
     <g id="line2d_13">
      <g>
       <use xlink:href="#m1ff3ef2916" x="52.114937" y="110.994461" style="stroke: #000000; stroke-width: 0.8"/>
      </g>
     </g>
     <g id="text_14">
      <!-- 20 -->
      <g transform="translate(32.389937 114.79368) scale(0.1 -0.1)">
       <use xlink:href="#DejaVuSans-32"/>
       <use xlink:href="#DejaVuSans-30" x="63.623047"/>
      </g>
     </g>
    </g>
    <g id="ytick_3">
     <g id="line2d_14">
      <g>
       <use xlink:href="#m1ff3ef2916" x="52.114937" y="71.933459" style="stroke: #000000; stroke-width: 0.8"/>
      </g>
     </g>
     <g id="text_15">
      <!-- 40 -->
      <g transform="translate(32.389937 75.732678) scale(0.1 -0.1)">
       <use xlink:href="#DejaVuSans-34"/>
       <use xlink:href="#DejaVuSans-30" x="63.623047"/>
      </g>
     </g>
    </g>
    <g id="ytick_4">
     <g id="line2d_15">
      <g>
       <use xlink:href="#m1ff3ef2916" x="52.114937" y="32.872456" style="stroke: #000000; stroke-width: 0.8"/>
      </g>
     </g>
     <g id="text_16">
      <!-- 60 -->
      <g transform="translate(32.389937 36.671675) scale(0.1 -0.1)">
       <use xlink:href="#DejaVuSans-36"/>
       <use xlink:href="#DejaVuSans-30" x="63.623047"/>
      </g>
     </g>
    </g>
    <g id="text_17">
     <!-- Battery charging power [mW/h] -->
     <g transform="translate(26.31025 159.580857) rotate(-90) scale(0.1 -0.1)">
      <defs>
       <path id="DejaVuSans-42" d="M 1259 2228 
L 1259 519 
L 2272 519 
Q 2781 519 3026 730 
Q 3272 941 3272 1375 
Q 3272 1813 3026 2020 
Q 2781 2228 2272 2228 
L 1259 2228 
z
M 1259 4147 
L 1259 2741 
L 2194 2741 
Q 2656 2741 2882 2914 
Q 3109 3088 3109 3444 
Q 3109 3797 2882 3972 
Q 2656 4147 2194 4147 
L 1259 4147 
z
M 628 4666 
L 2241 4666 
Q 2963 4666 3353 4366 
Q 3744 4066 3744 3513 
Q 3744 3084 3544 2831 
Q 3344 2578 2956 2516 
Q 3422 2416 3680 2098 
Q 3938 1781 3938 1306 
Q 3938 681 3513 340 
Q 3088 0 2303 0 
L 628 0 
L 628 4666 
z
" transform="scale(0.015625)"/>
       <path id="DejaVuSans-61" d="M 2194 1759 
Q 1497 1759 1228 1600 
Q 959 1441 959 1056 
Q 959 750 1161 570 
Q 1363 391 1709 391 
Q 2188 391 2477 730 
Q 2766 1069 2766 1631 
L 2766 1759 
L 2194 1759 
z
M 3341 1997 
L 3341 0 
L 2766 0 
L 2766 531 
Q 2569 213 2275 61 
Q 1981 -91 1556 -91 
Q 1019 -91 701 211 
Q 384 513 384 1019 
Q 384 1609 779 1909 
Q 1175 2209 1959 2209 
L 2766 2209 
L 2766 2266 
Q 2766 2663 2505 2880 
Q 2244 3097 1772 3097 
Q 1472 3097 1187 3025 
Q 903 2953 641 2809 
L 641 3341 
Q 956 3463 1253 3523 
Q 1550 3584 1831 3584 
Q 2591 3584 2966 3190 
Q 3341 2797 3341 1997 
z
" transform="scale(0.015625)"/>
       <path id="DejaVuSans-74" d="M 1172 4494 
L 1172 3500 
L 2356 3500 
L 2356 3053 
L 1172 3053 
L 1172 1153 
Q 1172 725 1289 603 
Q 1406 481 1766 481 
L 2356 481 
L 2356 0 
L 1766 0 
Q 1100 0 847 248 
Q 594 497 594 1153 
L 594 3053 
L 172 3053 
L 172 3500 
L 594 3500 
L 594 4494 
L 1172 4494 
z
" transform="scale(0.015625)"/>
       <path id="DejaVuSans-72" d="M 2631 2963 
Q 2534 3019 2420 3045 
Q 2306 3072 2169 3072 
Q 1681 3072 1420 2755 
Q 1159 2438 1159 1844 
L 1159 0 
L 581 0 
L 581 3500 
L 1159 3500 
L 1159 2956 
Q 1341 3275 1631 3429 
Q 1922 3584 2338 3584 
Q 2397 3584 2469 3576 
Q 2541 3569 2628 3553 
L 2631 2963 
z
" transform="scale(0.015625)"/>
       <path id="DejaVuSans-79" d="M 2059 -325 
Q 1816 -950 1584 -1140 
Q 1353 -1331 966 -1331 
L 506 -1331 
L 506 -850 
L 844 -850 
Q 1081 -850 1212 -737 
Q 1344 -625 1503 -206 
L 1606 56 
L 191 3500 
L 800 3500 
L 1894 763 
L 2988 3500 
L 3597 3500 
L 2059 -325 
z
" transform="scale(0.015625)"/>
       <path id="DejaVuSans-63" d="M 3122 3366 
L 3122 2828 
Q 2878 2963 2633 3030 
Q 2388 3097 2138 3097 
Q 1578 3097 1268 2742 
Q 959 2388 959 1747 
Q 959 1106 1268 751 
Q 1578 397 2138 397 
Q 2388 397 2633 464 
Q 2878 531 3122 666 
L 3122 134 
Q 2881 22 2623 -34 
Q 2366 -91 2075 -91 
Q 1284 -91 818 406 
Q 353 903 353 1747 
Q 353 2603 823 3093 
Q 1294 3584 2113 3584 
Q 2378 3584 2631 3529 
Q 2884 3475 3122 3366 
z
" transform="scale(0.015625)"/>
       <path id="DejaVuSans-67" d="M 2906 1791 
Q 2906 2416 2648 2759 
Q 2391 3103 1925 3103 
Q 1463 3103 1205 2759 
Q 947 2416 947 1791 
Q 947 1169 1205 825 
Q 1463 481 1925 481 
Q 2391 481 2648 825 
Q 2906 1169 2906 1791 
z
M 3481 434 
Q 3481 -459 3084 -895 
Q 2688 -1331 1869 -1331 
Q 1566 -1331 1297 -1286 
Q 1028 -1241 775 -1147 
L 775 -588 
Q 1028 -725 1275 -790 
Q 1522 -856 1778 -856 
Q 2344 -856 2625 -561 
Q 2906 -266 2906 331 
L 2906 616 
Q 2728 306 2450 153 
Q 2172 0 1784 0 
Q 1141 0 747 490 
Q 353 981 353 1791 
Q 353 2603 747 3093 
Q 1141 3584 1784 3584 
Q 2172 3584 2450 3431 
Q 2728 3278 2906 2969 
L 2906 3500 
L 3481 3500 
L 3481 434 
z
" transform="scale(0.015625)"/>
       <path id="DejaVuSans-6e" d="M 3513 2113 
L 3513 0 
L 2938 0 
L 2938 2094 
Q 2938 2591 2744 2837 
Q 2550 3084 2163 3084 
Q 1697 3084 1428 2787 
Q 1159 2491 1159 1978 
L 1159 0 
L 581 0 
L 581 3500 
L 1159 3500 
L 1159 2956 
Q 1366 3272 1645 3428 
Q 1925 3584 2291 3584 
Q 2894 3584 3203 3211 
Q 3513 2838 3513 2113 
z
" transform="scale(0.015625)"/>
       <path id="DejaVuSans-70" d="M 1159 525 
L 1159 -1331 
L 581 -1331 
L 581 3500 
L 1159 3500 
L 1159 2969 
Q 1341 3281 1617 3432 
Q 1894 3584 2278 3584 
Q 2916 3584 3314 3078 
Q 3713 2572 3713 1747 
Q 3713 922 3314 415 
Q 2916 -91 2278 -91 
Q 1894 -91 1617 61 
Q 1341 213 1159 525 
z
M 3116 1747 
Q 3116 2381 2855 2742 
Q 2594 3103 2138 3103 
Q 1681 3103 1420 2742 
Q 1159 2381 1159 1747 
Q 1159 1113 1420 752 
Q 1681 391 2138 391 
Q 2594 391 2855 752 
Q 3116 1113 3116 1747 
z
" transform="scale(0.015625)"/>
       <path id="DejaVuSans-6f" d="M 1959 3097 
Q 1497 3097 1228 2736 
Q 959 2375 959 1747 
Q 959 1119 1226 758 
Q 1494 397 1959 397 
Q 2419 397 2687 759 
Q 2956 1122 2956 1747 
Q 2956 2369 2687 2733 
Q 2419 3097 1959 3097 
z
M 1959 3584 
Q 2709 3584 3137 3096 
Q 3566 2609 3566 1747 
Q 3566 888 3137 398 
Q 2709 -91 1959 -91 
Q 1206 -91 779 398 
Q 353 888 353 1747 
Q 353 2609 779 3096 
Q 1206 3584 1959 3584 
z
" transform="scale(0.015625)"/>
       <path id="DejaVuSans-77" d="M 269 3500 
L 844 3500 
L 1563 769 
L 2278 3500 
L 2956 3500 
L 3675 769 
L 4391 3500 
L 4966 3500 
L 4050 0 
L 3372 0 
L 2619 2869 
L 1863 0 
L 1184 0 
L 269 3500 
z
" transform="scale(0.015625)"/>
       <path id="DejaVuSans-5b" d="M 550 4863 
L 1875 4863 
L 1875 4416 
L 1125 4416 
L 1125 -397 
L 1875 -397 
L 1875 -844 
L 550 -844 
L 550 4863 
z
" transform="scale(0.015625)"/>
       <path id="DejaVuSans-57" d="M 213 4666 
L 850 4666 
L 1831 722 
L 2809 4666 
L 3519 4666 
L 4500 722 
L 5478 4666 
L 6119 4666 
L 4947 0 
L 4153 0 
L 3169 4050 
L 2175 0 
L 1381 0 
L 213 4666 
z
" transform="scale(0.015625)"/>
       <path id="DejaVuSans-2f" d="M 1625 4666 
L 2156 4666 
L 531 -594 
L 0 -594 
L 1625 4666 
z
" transform="scale(0.015625)"/>
       <path id="DejaVuSans-5d" d="M 1947 4863 
L 1947 -844 
L 622 -844 
L 622 -397 
L 1369 -397 
L 1369 4416 
L 622 4416 
L 622 4863 
L 1947 4863 
z
" transform="scale(0.015625)"/>
      </defs>
      <use xlink:href="#DejaVuSans-42"/>
      <use xlink:href="#DejaVuSans-61" x="68.603516"/>
      <use xlink:href="#DejaVuSans-74" x="129.882812"/>
      <use xlink:href="#DejaVuSans-74" x="169.091797"/>
      <use xlink:href="#DejaVuSans-65" x="208.300781"/>
      <use xlink:href="#DejaVuSans-72" x="269.824219"/>
      <use xlink:href="#DejaVuSans-79" x="310.9375"/>
      <use xlink:href="#DejaVuSans-20" x="370.117188"/>
      <use xlink:href="#DejaVuSans-63" x="401.904297"/>
      <use xlink:href="#DejaVuSans-68" x="456.884766"/>
      <use xlink:href="#DejaVuSans-61" x="520.263672"/>
      <use xlink:href="#DejaVuSans-72" x="581.542969"/>
      <use xlink:href="#DejaVuSans-67" x="620.90625"/>
      <use xlink:href="#DejaVuSans-69" x="684.382812"/>
      <use xlink:href="#DejaVuSans-6e" x="712.166016"/>
      <use xlink:href="#DejaVuSans-67" x="775.544922"/>
      <use xlink:href="#DejaVuSans-20" x="839.021484"/>
      <use xlink:href="#DejaVuSans-70" x="870.808594"/>
      <use xlink:href="#DejaVuSans-6f" x="934.285156"/>
      <use xlink:href="#DejaVuSans-77" x="995.466797"/>
      <use xlink:href="#DejaVuSans-65" x="1077.253906"/>
      <use xlink:href="#DejaVuSans-72" x="1138.777344"/>
      <use xlink:href="#DejaVuSans-20" x="1179.890625"/>
      <use xlink:href="#DejaVuSans-5b" x="1211.677734"/>
      <use xlink:href="#DejaVuSans-6d" x="1250.691406"/>
      <use xlink:href="#DejaVuSans-57" x="1348.103516"/>
      <use xlink:href="#DejaVuSans-2f" x="1446.980469"/>
      <use xlink:href="#DejaVuSans-68" x="1480.671875"/>
      <use xlink:href="#DejaVuSans-5d" x="1544.050781"/>
     </g>
    </g>
   </g>
   <g id="patch_3">
    <path d="M 52.114937 150.055464 
L 52.114937 10.8 
" style="fill: none; stroke: #000000; stroke-width: 0.8; stroke-linejoin: miter; stroke-linecap: square"/>
   </g>
   <g id="patch_4">
    <path d="M 600.28 150.055464 
L 600.28 10.8 
" style="fill: none; stroke: #000000; stroke-width: 0.8; stroke-linejoin: miter; stroke-linecap: square"/>
   </g>
   <g id="patch_5">
    <path d="M 52.114937 150.055464 
L 600.28 150.055464 
" style="fill: none; stroke: #000000; stroke-width: 0.8; stroke-linejoin: miter; stroke-linecap: square"/>
   </g>
   <g id="patch_6">
    <path d="M 52.114937 10.8 
L 600.28 10.8 
" style="fill: none; stroke: #000000; stroke-width: 0.8; stroke-linejoin: miter; stroke-linecap: square"/>
   </g>
   <g id="patch_7">
    <path d="M 81.202778 150.055464 
L 89.545271 150.055464 
L 89.545271 75.030348 
L 81.202778 75.030348 
z
" clip-path="url(#p63e0fc0eaa)" style="fill: #ffa500"/>
   </g>
   <g id="patch_8">
    <path d="M 89.545271 150.055464 
L 97.887764 150.055464 
L 97.887764 106.686701 
L 89.545271 106.686701 
z
" clip-path="url(#p63e0fc0eaa)" style="fill: #ffa500"/>
   </g>
   <g id="patch_9">
    <path d="M 106.230257 150.055464 
L 114.57275 150.055464 
L 114.57275 127.919402 
L 106.230257 127.919402 
z
" clip-path="url(#p63e0fc0eaa)" style="fill: #ffa500"/>
   </g>
   <g id="patch_10">
    <path d="M 114.57275 150.055464 
L 122.915243 150.055464 
L 122.915243 17.431213 
L 114.57275 17.431213 
z
" clip-path="url(#p63e0fc0eaa)" style="fill: #ffa500"/>
   </g>
   <g id="patch_11">
    <path d="M 273.08012 150.055464 
L 281.422613 150.055464 
L 281.422613 89.171606 
L 273.08012 89.171606 
z
" clip-path="url(#p63e0fc0eaa)" style="fill: #ffa500"/>
   </g>
   <g id="patch_12">
    <path d="M 281.422613 150.055464 
L 289.765106 150.055464 
L 289.765106 91.025777 
L 281.422613 91.025777 
z
" clip-path="url(#p63e0fc0eaa)" style="fill: #ffa500"/>
   </g>
   <g id="patch_13">
    <path d="M 289.765106 150.055464 
L 298.107599 150.055464 
L 298.107599 119.916029 
L 289.765106 119.916029 
z
" clip-path="url(#p63e0fc0eaa)" style="fill: #ffa500"/>
   </g>
   <g id="patch_14">
    <path d="M 298.107599 150.055464 
L 306.450092 150.055464 
L 306.450092 60.065444 
L 298.107599 60.065444 
z
" clip-path="url(#p63e0fc0eaa)" style="fill: #ffa500"/>
   </g>
   <g id="patch_15">
    <path d="M 306.450092 150.055464 
L 314.792585 150.055464 
L 314.792585 115.515984 
L 306.450092 115.515984 
z
" clip-path="url(#p63e0fc0eaa)" style="fill: #ffa500"/>
   </g>
   <g id="patch_16">
    <path d="M 473.299955 150.055464 
L 481.642448 150.055464 
L 481.642448 112.277754 
L 473.299955 112.277754 
z
" clip-path="url(#p63e0fc0eaa)" style="fill: #ffa500"/>
   </g>
   <g id="patch_17">
    <path d="M 481.642448 150.055464 
L 489.984941 150.055464 
L 489.984941 72.262149 
L 481.642448 72.262149 
z
" clip-path="url(#p63e0fc0eaa)" style="fill: #ffa500"/>
   </g>
   <g id="patch_18">
    <path d="M 489.984941 150.055464 
L 498.327434 150.055464 
L 498.327434 111.521344 
L 489.984941 111.521344 
z
" clip-path="url(#p63e0fc0eaa)" style="fill: #ffa500"/>
   </g>
   <g id="patch_19">
    <path d="M 498.327434 150.055464 
L 506.669927 150.055464 
L 506.669927 24.435778 
L 498.327434 24.435778 
z
" clip-path="url(#p63e0fc0eaa)" style="fill: #ffa500"/>
   </g>
   <g id="patch_20">
    <path d="M 506.669927 150.055464 
L 515.012421 150.055464 
L 515.012421 68.019156 
L 506.669927 68.019156 
z
" clip-path="url(#p63e0fc0eaa)" style="fill: #ffa500"/>
   </g>
   <g id="patch_21">
    <path d="M 515.012421 150.055464 
L 523.354914 150.055464 
L 523.354914 98.661337 
L 515.012421 98.661337 
z
" clip-path="url(#p63e0fc0eaa)" style="fill: #ffa500"/>
   </g>
  </g>
  <g id="axes_2">
   <g id="line2d_16">
    <path d="M 77.031531 117.350938 
L 77.691978 117.452379 
L 77.86578 117.623205 
L 78.560988 119.010886 
L 78.628192 118.958189 
L 78.836754 118.51905 
L 79.427681 117.192848 
L 79.566722 117.289459 
L 79.740524 117.693467 
L 80.088128 119.195325 
L 80.922377 124.421088 
L 81.513304 128.057165 
L 81.615268 127.837595 
L 82.206194 125.536503 
L 82.275715 125.633113 
L 82.519038 126.801225 
L 82.831881 127.872726 
L 82.901402 127.811246 
L 83.040444 127.126188 
L 83.66613 123.437415 
L 83.805172 123.604288 
L 83.839932 123.569157 
L 84.048495 122.805053 
L 84.778463 117.763729 
L 84.810906 117.798861 
L 84.949947 118.000865 
L 84.984708 117.930603 
L 85.123749 117.078671 
L 85.401833 113.574336 
L 86.270842 100.742674 
L 86.653206 98.546975 
L 87.070331 95.780395 
L 88.458429 83.835794 
L 89.814084 74.666557 
L 91.063141 68.307813 
L 91.584547 66.516123 
L 92.105953 65.462188 
L 92.244994 65.400708 
L 92.488317 65.15479 
L 92.592598 65.198704 
L 92.80116 65.242618 
L 93.114004 64.812261 
L 93.148764 64.856175 
L 93.392087 64.979134 
L 93.565889 64.891306 
L 93.737374 64.671736 
L 94.154498 63.74076 
L 94.258779 63.696846 
L 94.29354 63.731977 
L 94.571623 64.197465 
L 94.606383 64.162334 
L 94.849706 63.477276 
L 95.336351 61.913939 
L 95.475393 61.659238 
L 95.927278 60.420864 
L 96.622486 57.592804 
L 96.863491 57.206361 
L 97.280616 56.907746 
L 97.489178 56.380778 
L 98.010584 54.641785 
L 98.149626 54.589088 
L 98.671031 53.333149 
L 98.949114 52.507566 
L 99.192437 52.55148 
L 99.505281 53.104796 
L 99.887645 53.702026 
L 100.99766 54.9404 
L 101.136702 54.9404 
L 101.553826 54.220211 
L 101.86667 54.141166 
L 102.388075 54.545174 
L 102.596638 54.641785 
L 103.185247 55.370757 
L 103.671892 55.15997 
L 103.949976 54.87892 
L 103.984736 54.914052 
L 104.297579 55.133621 
L 104.818985 56.152426 
L 105.687995 57.891419 
L 107.388937 61.896373 
L 107.840822 62.572648 
L 107.979863 62.60778 
L 108.118905 62.221337 
L 108.431748 60.570171 
L 108.987915 57.425931 
L 109.819846 55.080925 
L 110.13269 53.930379 
L 110.584575 52.217734 
L 110.966939 51.163798 
L 111.105981 51.374585 
L 111.453585 51.901553 
L 111.662147 51.681983 
L 112.009751 50.628048 
L 112.148792 50.777355 
L 112.357355 51.444848 
L 112.496396 51.883987 
L 112.531157 51.840073 
L 112.702641 51.488762 
L 113.015485 50.030818 
L 113.397849 48.379652 
L 115.793998 43.206586 
L 117.288695 40.782535 
L 118.815835 38.665882 
L 120.032448 37.304549 
L 120.936219 36.540445 
L 123.923295 34.415009 
L 125.10283 33.940738 
L 126.319444 33.747517 
L 126.493246 33.993435 
L 127.049412 35.363551 
L 127.397016 35.951998 
L 127.70986 36.189134 
L 127.918422 35.916867 
L 128.43751 35.187895 
L 128.541791 35.258157 
L 128.819875 35.846605 
L 129.34128 36.882974 
L 130.592654 38.586837 
L 131.528867 39.684686 
L 132.293596 40.826449 
L 135.315432 46.394741 
L 138.198227 52.446086 
L 139.032477 54.624219 
L 141.463386 61.062008 
L 143.581453 67.833542 
L 145.736597 75.861017 
L 147.055174 82.008973 
L 148.827954 91.046468 
L 149.694646 96.737719 
L 150.91126 107.092634 
L 151.919311 118.044779 
L 152.510238 126.801225 
L 153.446451 141.297227 
L 153.620253 143.72567 
M 166.646129 143.72567 
L 167.028493 143.618081 
L 168.555633 142.619038 
L 169.389882 141.925197 
L 170.606496 141.134746 
L 171.925073 140.344294 
L 173.45453 139.316707 
L 175.781159 138.174944 
L 177.384771 138.016854 
L 178.077662 136.664303 
L 179.468077 136.198815 
L 181.099498 135.496192 
L 181.759946 135.215142 
L 183.532725 134.442256 
L 184.920824 133.985551 
L 185.51175 133.809895 
L 188.88119 132.85257 
L 189.608841 132.606652 
L 203.677529 129.163797 
L 204.303216 129.058403 
L 205.795595 128.794919 
L 206.525563 128.689526 
L 208.052703 128.417259 
L 208.539349 128.311866 
L 209.964524 128.065947 
L 210.555451 127.960554 
L 212.117351 127.679504 
L 212.603997 127.574111 
L 213.368725 127.495066 
L 213.853053 127.389672 
L 214.722063 127.284279 
L 215.243469 127.178885 
L 215.938676 127.117406 
L 216.460082 127.012012 
L 217.187733 126.94175 
L 217.709139 126.836356 
L 218.473867 126.757311 
L 219.030034 126.651918 
L 219.864283 126.555307 
L 220.383371 126.449913 
L 221.078579 126.388434 
L 221.773787 126.28304 
L 222.573276 126.195212 
L 223.127125 126.089819 
L 223.857093 126.019556 
L 224.448019 125.914163 
L 225.212748 125.835118 
L 225.734154 125.729724 
L 226.531325 125.641896 
L 227.122252 125.536503 
L 228.582188 125.281802 
L 229.170798 125.176408 
L 229.970286 125.08858 
L 230.839296 124.983187 
L 231.569264 124.912924 
L 232.331675 124.807531 
L 233.131164 124.719703 
L 233.861133 124.614309 
L 234.591101 124.544047 
L 235.423033 124.438653 
L 236.187761 124.359608 
L 237.473896 124.254215 
L 238.203864 124.183952 
L 239.174837 124.078559 
L 239.974326 123.990731 
L 240.808575 123.885337 
L 241.570987 123.806292 
L 242.926642 123.700899 
L 243.726131 123.613071 
L 244.662344 123.507677 
L 245.357552 123.446197 
L 246.226561 123.340804 
L 247.02605 123.252976 
L 247.857982 123.147582 
L 248.622711 123.068537 
L 249.45696 122.963144 
L 250.221689 122.884099 
L 251.05362 122.778705 
L 251.783589 122.708443 
L 260.501494 122.620615 
L 260.640535 122.524004 
L 268.109384 122.63818 
L 268.313312 122.85775 
L 268.591395 123.226628 
L 269.147561 123.648202 
L 271.335148 123.753595 
L 271.995596 123.806292 
L 273.28173 123.867772 
L 273.525053 125.097363 
L 274.356985 130.384605 
L 274.496026 130.410954 
L 274.635068 130.165035 
L 274.87839 129.216494 
L 275.504077 125.518937 
L 277.517863 112.090044 
L 280.020611 96.377625 
L 281.756313 86.936121 
L 283.700577 78.13576 
L 286.099044 68.887478 
L 288.390912 61.720717 
L 292.835607 50.786138 
L 295.753162 45.850208 
L 297.247859 43.768685 
L 298.047348 42.811361 
L 299.574487 41.054802 
L 302.24872 38.507791 
L 303.465334 37.453856 
L 304.125781 36.926888 
L 307.805747 35.187895 
L 308.431434 34.915628 
L 309.613288 34.441357 
L 316.317408 32.860454 
L 316.906017 32.763844 
L 317.21886 32.71993 
L 317.531704 32.684799 
L 317.983589 32.579405 
L 318.678797 32.517925 
L 319.823572 32.412532 
L 320.588301 32.333487 
L 322.187279 32.228093 
L 322.810648 32.184179 
L 326.736255 32.289573 
L 328.022389 32.535491 
L 328.196191 32.509143 
L 328.7848 32.596971 
L 329.062883 32.693581 
L 329.340966 32.798975 
L 329.862372 33.009762 
L 330.105695 33.202983 
L 330.59234 33.343508 
L 330.696622 33.413771 
L 331.667595 34.265702 
L 332.814688 36.338441 
L 333.996541 38.007172 
L 336.601253 42.143868 
L 337.331221 43.53155 
L 337.783106 44.409829 
L 339.796891 48.722181 
L 340.909224 51.523893 
L 342.262561 55.59911 
L 344.241586 61.422102 
L 347.298183 72.628948 
L 349.314285 81.745489 
L 351.119508 91.907182 
L 352.058039 98.239577 
L 353.133293 107.233159 
L 354.245626 118.334611 
L 354.801792 126.265475 
L 355.809843 141.696845 
L 355.914124 143.172354 
M 369.56337 143.72567 
L 370.189057 143.617177 
L 370.814744 143.242616 
L 371.542395 142.829825 
L 372.93281 142.004242 
L 373.593258 141.635365 
L 375.989407 140.546298 
L 376.476053 140.309163 
L 378.941723 139.184965 
L 380.158336 138.763391 
L 380.851227 138.535039 
L 383.249694 137.814849 
L 383.977344 137.568931 
L 388.459117 136.330557 
L 389.015283 136.172467 
L 393.077614 135.259056 
L 393.59902 135.153663 
L 396.655617 134.494953 
L 397.246543 134.38956 
L 398.704162 134.134858 
L 399.329849 134.029465 
L 400.789785 133.774764 
L 401.484993 133.66937 
L 402.873091 133.432235 
L 403.846382 133.326841 
L 405.373522 133.054575 
L 406.13825 132.949181 
L 407.632947 132.685697 
L 408.221556 132.580304 
L 409.820534 132.290472 
L 410.793825 132.185078 
L 411.556236 132.106033 
L 412.251444 132.000639 
L 413.016173 131.921594 
L 413.850422 131.816201 
L 414.647593 131.728373 
L 415.308041 131.622979 
L 416.038009 131.552717 
L 416.904701 131.447323 
L 417.66943 131.368278 
L 418.712241 131.262885 
L 419.47697 131.183839 
L 420.552225 131.078446 
L 421.316953 130.999401 
L 422.290244 130.894007 
L 423.052655 130.814962 
L 423.782623 130.709569 
L 424.512592 130.639306 
L 425.520643 130.533913 
L 426.317814 130.446085 
L 427.291105 130.340691 
L 428.055834 130.261646 
L 428.681521 130.156253 
L 429.443932 130.077207 
L 430.382462 129.971814 
L 431.147191 129.892769 
L 431.877159 129.787375 
L 432.63957 129.70833 
L 434.37759 129.602936 
L 435.140001 129.523891 
L 436.356614 129.418498 
L 437.121343 129.339453 
L 438.926566 129.234059 
L 439.656534 129.163797 
L 441.635559 129.058403 
L 442.435048 128.970575 
L 443.825463 128.865182 
L 444.587874 128.786137 
L 446.986341 128.680743 
L 447.713992 128.610481 
L 449.869136 128.505087 
L 450.668625 128.417259 
L 453.238576 128.311866 
L 454.000987 128.232821 
L 456.570939 128.127427 
L 457.266147 128.065947 
L 459.662296 127.960554 
L 460.253223 127.925423 
L 463.031736 127.820029 
L 463.553142 127.802464 
L 464.387391 127.69707 
L 464.908797 127.679504 
L 468.347758 127.574111 
L 469.075409 127.503849 
L 476.509497 127.600459 
L 476.75282 128.320648 
L 477.691351 131.956725 
L 477.969434 132.088467 
L 478.140918 131.965508 
L 478.419001 131.438541 
L 478.731845 130.287994 
L 479.009928 128.083513 
L 479.635615 120.662052 
L 480.504625 112.230569 
L 481.510359 104.50171 
L 482.692212 96.904592 
L 484.566955 86.207149 
L 485.92261 79.286306 
L 487.067386 74.324028 
L 488.631603 68.079461 
L 491.966283 57.48741 
L 493.771506 52.630525 
L 494.397193 50.91788 
L 495.405244 48.915403 
L 496.932384 46.07856 
L 497.523311 45.349588 
L 499.363294 42.319524 
L 500.058502 41.450028 
L 504.887878 36.716101 
L 505.302685 36.391138 
L 505.963133 35.732428 
L 507.353548 34.906846 
L 508.083516 34.318398 
L 508.984969 34.002218 
L 509.645417 33.47525 
L 509.853979 33.282029 
L 510.027781 30.961907 
L 510.201583 29.997939 
L 510.375385 17.824986 
L 510.549187 17.129794 
L 510.583947 17.143981 
L 510.82727 23.04129 
L 510.931551 24.174271 
L 511.035832 31.209289 
L 511.105353 31.077547 
L 511.937285 30.006046 
L 513.223419 28.8555 
L 514.16195 28.275836 
L 516.349537 27.292163 
L 517.114265 26.984765 
L 517.841916 26.738847 
L 517.980958 26.703715 
L 518.884728 26.124051 
L 519.510415 25.781522 
L 520.414185 25.201858 
L 521.107075 24.815415 
L 522.636532 24.314795 
L 523.540302 23.981049 
L 524.546036 23.620955 
L 525.588848 22.971028 
L 525.901691 22.856851 
L 526.318816 22.751458 
L 526.63166 22.558236 
L 527.115988 22.321101 
L 528.158799 22.136662 
L 528.402122 22.461626 
L 528.819247 22.470409 
L 529.271132 21.881961 
L 529.583975 21.899527 
L 529.824981 21.899527 
L 530.589709 21.636043 
L 531.145875 21.741437 
L 531.389198 22.048834 
L 532.779614 24.29723 
L 533.542025 25.008636 
L 535.697169 27.037462 
L 538.440922 28.978459 
L 542.538013 30.92824 
L 543.928429 31.393728 
L 545.351287 31.990958 
L 546.880744 32.491577 
L 548.027837 33.194201 
L 548.407884 33.352291 
L 549.172613 33.659689 
L 551.534002 34.977108 
L 553.028698 35.978347 
L 553.862948 36.52288 
L 556.745742 39.579292 
L 558.342403 42.196565 
L 560.390948 46.57918 
L 562.268009 51.602938 
L 565.463648 62.476038 
L 566.573663 66.805955 
L 568.485484 75.500922 
L 569.560739 81.200956 
L 570.56879 87.419174 
L 571.785404 96.474235 
L 572.721617 104.932067 
L 573.555866 114.408702 
L 574.216313 124.350825 
L 575.363406 143.72567 
L 575.363406 143.72567 
" clip-path="url(#p63e0fc0eaa)" style="fill: none; stroke: #000000; stroke-width: 1.5; stroke-linecap: square"/>
   </g>
   <g id="matplotlib.axis_3">
    <g id="ytick_5">
     <g id="line2d_17">
      <path d="M 52.114937 143.910109 
L 600.28 143.910109 
" clip-path="url(#p63e0fc0eaa)" style="fill: none; stroke: #b0b0b0; stroke-width: 0.8; stroke-linecap: square"/>
     </g>
     <g id="line2d_18">
      <defs>
       <path id="ma2309044b6" d="M 0 0 
L 3.5 0 
" style="stroke: #000000; stroke-width: 0.8"/>
      </defs>
      <g>
       <use xlink:href="#ma2309044b6" x="600.28" y="143.910109" style="stroke: #000000; stroke-width: 0.8"/>
      </g>
     </g>
     <g id="text_18">
      <!-- 2.8 -->
      <g transform="translate(607.28 147.709328) scale(0.1 -0.1)">
       <use xlink:href="#DejaVuSans-32"/>
       <use xlink:href="#DejaVuSans-2e" x="63.623047"/>
       <use xlink:href="#DejaVuSans-38" x="95.410156"/>
      </g>
     </g>
    </g>
    <g id="ytick_6">
     <g id="line2d_19">
      <path d="M 52.114937 107.022372 
L 600.28 107.022372 
" clip-path="url(#p63e0fc0eaa)" style="fill: none; stroke: #b0b0b0; stroke-width: 0.8; stroke-linecap: square"/>
     </g>
     <g id="line2d_20">
      <g>
       <use xlink:href="#ma2309044b6" x="600.28" y="107.022372" style="stroke: #000000; stroke-width: 0.8"/>
      </g>
     </g>
     <g id="text_19">
      <!-- 3.0 -->
      <g transform="translate(607.28 110.82159) scale(0.1 -0.1)">
       <use xlink:href="#DejaVuSans-33"/>
       <use xlink:href="#DejaVuSans-2e" x="63.623047"/>
       <use xlink:href="#DejaVuSans-30" x="95.410156"/>
      </g>
     </g>
    </g>
    <g id="ytick_7">
     <g id="line2d_21">
      <path d="M 52.114937 70.134635 
L 600.28 70.134635 
" clip-path="url(#p63e0fc0eaa)" style="fill: none; stroke: #b0b0b0; stroke-width: 0.8; stroke-linecap: square"/>
     </g>
     <g id="line2d_22">
      <g>
       <use xlink:href="#ma2309044b6" x="600.28" y="70.134635" style="stroke: #000000; stroke-width: 0.8"/>
      </g>
     </g>
     <g id="text_20">
      <!-- 3.2 -->
      <g transform="translate(607.28 73.933853) scale(0.1 -0.1)">
       <use xlink:href="#DejaVuSans-33"/>
       <use xlink:href="#DejaVuSans-2e" x="63.623047"/>
       <use xlink:href="#DejaVuSans-32" x="95.410156"/>
      </g>
     </g>
    </g>
    <g id="ytick_8">
     <g id="line2d_23">
      <path d="M 52.114937 33.246897 
L 600.28 33.246897 
" clip-path="url(#p63e0fc0eaa)" style="fill: none; stroke: #b0b0b0; stroke-width: 0.8; stroke-linecap: square"/>
     </g>
     <g id="line2d_24">
      <g>
       <use xlink:href="#ma2309044b6" x="600.28" y="33.246897" style="stroke: #000000; stroke-width: 0.8"/>
      </g>
     </g>
     <g id="text_21">
      <!-- 3.4 -->
      <g transform="translate(607.28 37.046116) scale(0.1 -0.1)">
       <use xlink:href="#DejaVuSans-33"/>
       <use xlink:href="#DejaVuSans-2e" x="63.623047"/>
       <use xlink:href="#DejaVuSans-34" x="95.410156"/>
      </g>
     </g>
    </g>
    <g id="text_22">
     <!-- Battery voltage [V] -->
     <g transform="translate(634.781563 128.116794) rotate(-90) scale(0.1 -0.1)">
      <defs>
       <path id="DejaVuSans-76" d="M 191 3500 
L 800 3500 
L 1894 563 
L 2988 3500 
L 3597 3500 
L 2284 0 
L 1503 0 
L 191 3500 
z
" transform="scale(0.015625)"/>
       <path id="DejaVuSans-6c" d="M 603 4863 
L 1178 4863 
L 1178 0 
L 603 0 
L 603 4863 
z
" transform="scale(0.015625)"/>
       <path id="DejaVuSans-56" d="M 1831 0 
L 50 4666 
L 709 4666 
L 2188 738 
L 3669 4666 
L 4325 4666 
L 2547 0 
L 1831 0 
z
" transform="scale(0.015625)"/>
      </defs>
      <use xlink:href="#DejaVuSans-42"/>
      <use xlink:href="#DejaVuSans-61" x="68.603516"/>
      <use xlink:href="#DejaVuSans-74" x="129.882812"/>
      <use xlink:href="#DejaVuSans-74" x="169.091797"/>
      <use xlink:href="#DejaVuSans-65" x="208.300781"/>
      <use xlink:href="#DejaVuSans-72" x="269.824219"/>
      <use xlink:href="#DejaVuSans-79" x="310.9375"/>
      <use xlink:href="#DejaVuSans-20" x="370.117188"/>
      <use xlink:href="#DejaVuSans-76" x="401.904297"/>
      <use xlink:href="#DejaVuSans-6f" x="461.083984"/>
      <use xlink:href="#DejaVuSans-6c" x="522.265625"/>
      <use xlink:href="#DejaVuSans-74" x="550.048828"/>
      <use xlink:href="#DejaVuSans-61" x="589.257812"/>
      <use xlink:href="#DejaVuSans-67" x="650.537109"/>
      <use xlink:href="#DejaVuSans-65" x="714.013672"/>
      <use xlink:href="#DejaVuSans-20" x="775.537109"/>
      <use xlink:href="#DejaVuSans-5b" x="807.324219"/>
      <use xlink:href="#DejaVuSans-56" x="846.337891"/>
      <use xlink:href="#DejaVuSans-5d" x="914.746094"/>
     </g>
    </g>
   </g>
   <g id="patch_22">
    <path d="M 52.114937 150.055464 
L 52.114937 10.8 
" style="fill: none; stroke: #000000; stroke-width: 0.8; stroke-linejoin: miter; stroke-linecap: square"/>
   </g>
   <g id="patch_23">
    <path d="M 600.28 150.055464 
L 600.28 10.8 
" style="fill: none; stroke: #000000; stroke-width: 0.8; stroke-linejoin: miter; stroke-linecap: square"/>
   </g>
   <g id="patch_24">
    <path d="M 52.114937 150.055464 
L 600.28 150.055464 
" style="fill: none; stroke: #000000; stroke-width: 0.8; stroke-linejoin: miter; stroke-linecap: square"/>
   </g>
   <g id="patch_25">
    <path d="M 52.114937 10.8 
L 600.28 10.8 
" style="fill: none; stroke: #000000; stroke-width: 0.8; stroke-linejoin: miter; stroke-linecap: square"/>
   </g>
  </g>
 </g>
 <defs>
  <clipPath id="p63e0fc0eaa">
   <rect x="52.114937" y="10.8" width="548.165063" height="139.255464"/>
  </clipPath>
 </defs>
</svg>
